<?xml version="1.0" encoding="utf-8" standalone="no"?>
<!DOCTYPE svg PUBLIC "-//W3C//DTD SVG 1.1//EN"
  "http://www.w3.org/Graphics/SVG/1.1/DTD/svg11.dtd">
<!-- Created with matplotlib (http://matplotlib.sourceforge.net/) -->
<svg height="288pt" version="1.1" viewBox="0 0 432 288" width="432pt" xmlns="http://www.w3.org/2000/svg" xmlns:xlink="http://www.w3.org/1999/xlink">
 <defs>
  <style type="text/css">
*{stroke-linecap:square;stroke-linejoin:round;}
  </style>
 </defs>
 <g id="figure_1">
  <g id="patch_1">
   <path d="
M0 288
L432 288
L432 0
L0 0
z
" style="fill:#ffffff;"/>
  </g>
  <g id="axes_1">
   <g id="patch_2">
    <path d="
M46.1172 111.6
L401.941 111.6
L401.941 32
L46.1172 32
z
" style="fill:#ffffff;"/>
   </g>
   <g id="line2d_1">
    <path clip-path="url(#paafe9ad165)" d="
M56.7876 111.6
L56.7876 32" style="fill:none;stroke:#00ffff;stroke-dasharray:6.000000,6.000000;stroke-dashoffset:0.0;stroke-linecap:butt;"/>
   </g>
   <g id="line2d_2">
    <path clip-path="url(#paafe9ad165)" d="
M78.1372 111.6
L78.1372 32" style="fill:none;stroke:#00ffff;stroke-dasharray:6.000000,6.000000;stroke-dashoffset:0.0;stroke-linecap:butt;"/>
   </g>
   <g id="line2d_3">
    <path clip-path="url(#paafe9ad165)" d="
M78.1373 111.6
L78.1373 32" style="fill:none;stroke:#00ffff;stroke-dasharray:6.000000,6.000000;stroke-dashoffset:0.0;stroke-linecap:butt;"/>
   </g>
   <g id="line2d_4">
    <path clip-path="url(#paafe9ad165)" d="
M99.4868 111.6
L99.4868 32" style="fill:none;stroke:#00ffff;stroke-dasharray:6.000000,6.000000;stroke-dashoffset:0.0;stroke-linecap:butt;"/>
   </g>
   <g id="line2d_5">
    <path clip-path="url(#paafe9ad165)" d="
M120.836 111.6
L120.836 32" style="fill:none;stroke:#00ffff;stroke-dasharray:6.000000,6.000000;stroke-dashoffset:0.0;stroke-linecap:butt;"/>
   </g>
   <g id="line2d_6">
    <path clip-path="url(#paafe9ad165)" d="
M120.837 111.6
L120.837 32" style="fill:none;stroke:#00ffff;stroke-dasharray:6.000000,6.000000;stroke-dashoffset:0.0;stroke-linecap:butt;"/>
   </g>
   <g id="line2d_7">
    <path clip-path="url(#paafe9ad165)" d="
M142.186 111.6
L142.186 32" style="fill:none;stroke:#00ffff;stroke-dasharray:6.000000,6.000000;stroke-dashoffset:0.0;stroke-linecap:butt;"/>
   </g>
   <g id="line2d_8">
    <path clip-path="url(#paafe9ad165)" d="
M163.535 111.6
L163.535 32" style="fill:none;stroke:#00ffff;stroke-dasharray:6.000000,6.000000;stroke-dashoffset:0.0;stroke-linecap:butt;"/>
   </g>
   <g id="line2d_9">
    <path clip-path="url(#paafe9ad165)" d="
M163.535 111.6
L163.535 32" style="fill:none;stroke:#00ffff;stroke-dasharray:6.000000,6.000000;stroke-dashoffset:0.0;stroke-linecap:butt;"/>
   </g>
   <g id="line2d_10">
    <path clip-path="url(#paafe9ad165)" d="
M163.535 111.6
L163.535 32" style="fill:none;stroke:#00ffff;stroke-dasharray:6.000000,6.000000;stroke-dashoffset:0.0;stroke-linecap:butt;"/>
   </g>
   <g id="line2d_11">
    <path clip-path="url(#paafe9ad165)" d="
M184.885 111.6
L184.885 32" style="fill:none;stroke:#00ffff;stroke-dasharray:6.000000,6.000000;stroke-dashoffset:0.0;stroke-linecap:butt;"/>
   </g>
   <g id="line2d_12">
    <path clip-path="url(#paafe9ad165)" d="
M206.234 111.6
L206.234 32" style="fill:none;stroke:#00ffff;stroke-dasharray:6.000000,6.000000;stroke-dashoffset:0.0;stroke-linecap:butt;"/>
   </g>
   <g id="line2d_13">
    <path clip-path="url(#paafe9ad165)" d="
M206.234 111.6
L206.234 32" style="fill:none;stroke:#00ffff;stroke-dasharray:6.000000,6.000000;stroke-dashoffset:0.0;stroke-linecap:butt;"/>
   </g>
   <g id="line2d_14">
    <path clip-path="url(#paafe9ad165)" d="
M227.584 111.6
L227.584 32" style="fill:none;stroke:#00ffff;stroke-dasharray:6.000000,6.000000;stroke-dashoffset:0.0;stroke-linecap:butt;"/>
   </g>
   <g id="line2d_15">
    <path clip-path="url(#paafe9ad165)" d="
M248.933 111.6
L248.933 32" style="fill:none;stroke:#00ffff;stroke-dasharray:6.000000,6.000000;stroke-dashoffset:0.0;stroke-linecap:butt;"/>
   </g>
   <g id="line2d_16">
    <path clip-path="url(#paafe9ad165)" d="
M270.283 111.6
L270.283 32" style="fill:none;stroke:#00ffff;stroke-dasharray:6.000000,6.000000;stroke-dashoffset:0.0;stroke-linecap:butt;"/>
   </g>
   <g id="line2d_17">
    <path clip-path="url(#paafe9ad165)" d="
M291.658 111.6
L291.658 32" style="fill:none;stroke:#00ffff;stroke-dasharray:6.000000,6.000000;stroke-dashoffset:0.0;stroke-linecap:butt;"/>
   </g>
   <g id="line2d_18">
    <path clip-path="url(#paafe9ad165)" d="
M312.981 111.6
L312.981 32" style="fill:none;stroke:#00ffff;stroke-dasharray:6.000000,6.000000;stroke-dashoffset:0.0;stroke-linecap:butt;"/>
   </g>
   <g id="line2d_19">
    <path clip-path="url(#paafe9ad165)" d="
M334.33 111.6
L334.33 32" style="fill:none;stroke:#00ffff;stroke-dasharray:6.000000,6.000000;stroke-dashoffset:0.0;stroke-linecap:butt;"/>
   </g>
   <g id="line2d_20">
    <path clip-path="url(#paafe9ad165)" d="
M355.68 111.6
L355.68 32" style="fill:none;stroke:#00ffff;stroke-dasharray:6.000000,6.000000;stroke-dashoffset:0.0;stroke-linecap:butt;"/>
   </g>
   <g id="line2d_21">
    <path clip-path="url(#paafe9ad165)" d="
M377.03 111.6
L377.03 32" style="fill:none;stroke:#00ffff;stroke-dasharray:6.000000,6.000000;stroke-dashoffset:0.0;stroke-linecap:butt;"/>
   </g>
   <g id="line2d_22">
    <path clip-path="url(#paafe9ad165)" d="
M46.1172 104.807
L46.1172 102.675
L46.7043 102.675
L46.7043 101.382
L47.2914 101.382
L47.2914 101.208
L47.8785 101.208
L47.8785 101.479
L48.4656 101.479
L48.4656 101.093
L49.0527 101.093
L49.0527 100.774
L50.2269 100.88
L50.2269 101.17
L50.814 101.17
L50.814 100.533
L51.4011 100.533
L51.4011 101.218
L53.1624 101.199
L53.1624 100.765
L53.7495 100.765
L53.7495 101.315
L54.3366 101.315
L54.3366 100.697
L54.9237 100.697
L54.9237 101.083
L55.5108 101.083
L55.5108 100.958
L56.0979 100.958
L56.0979 99.9637
L56.685 99.9637
L56.685 101.131
L57.2721 101.131
L57.2721 95.1201
L57.8592 95.1201
L57.8592 99.5874
L58.4463 99.5874
L58.4463 102.521
L59.0334 102.521
L59.0334 102.993
L59.6205 102.993
L59.6205 103.534
L60.2076 103.534
L60.2076 102.733
L60.7947 102.733
L60.7947 102.926
L61.3818 102.926
L61.3818 102.55
L61.9689 102.55
L61.9689 102.878
L62.556 102.878
L62.556 102.386
L63.1431 102.386
L63.1431 102.579
L64.3173 102.55
L64.3173 102.376
L65.4915 102.424
L65.4915 102.771
L66.0786 102.771
L66.0786 102.936
L67.2528 102.897
L67.2528 102.752
L67.8399 102.752
L67.8399 98.777
L68.427 98.777
L68.427 101.093
L69.0141 101.093
L69.0141 102.202
L69.6012 102.202
L69.6012 101.006
L70.1883 101.006
L70.1883 100.784
L70.7754 100.784
L70.7754 95.9885
L71.3625 95.9885
L71.3625 94.0105
L71.9496 94.0105
L71.9496 93.393
L72.5367 93.393
L72.5367 94.464
L73.1238 94.464
L73.1238 93.7018
L73.7109 93.7018
L73.7109 93.4027
L74.298 93.4027
L74.298 93.8272
L76.0593 93.8272
L76.0593 91.994
L76.6464 91.994
L76.6464 93.5956
L77.2335 93.5956
L77.2335 95.6218
L77.8206 95.6218
L77.8206 93.4799
L78.4077 93.4799
L78.4077 94.657
L78.9948 94.657
L78.9948 94.0105
L79.5819 94.0105
L79.5819 93.5088
L80.169 93.5088
L80.169 93.6728
L80.7561 93.6728
L80.7561 93.3158
L81.3432 93.3158
L81.3432 93.5281
L82.5174 93.4606
L82.5174 93.2097
L83.1045 93.2097
L83.1045 93.7693
L83.6916 93.7693
L83.6916 94.2421
L84.2787 94.2421
L84.2787 93.557
L84.8658 93.557
L84.8658 93.7114
L85.4529 93.7114
L85.4529 94.1553
L87.8013 94.107
L87.8013 95.3999
L88.3884 95.3999
L88.3884 93.779
L88.9755 93.779
L88.9755 94.1553
L89.5626 94.1553
L89.5626 93.8079
L90.7368 93.7307
L90.7368 94.7824
L91.3239 94.7824
L91.3239 94.0684
L91.911 94.0684
L91.911 93.4509
L92.4981 93.4509
L92.4981 93.7404
L93.0852 93.7404
L93.0852 93.1518
L93.6723 93.1518
L93.6723 93.5184
L94.2594 93.5184
L94.2594 92.7466
L94.8465 92.7466
L94.8465 93.7114
L95.4336 93.7114
L95.4336 93.5184
L96.0207 93.5184
L96.0207 93.4027
L96.6078 93.4027
L96.6078 94.493
L97.1949 94.493
L97.1949 93.9526
L97.782 93.9526
L97.782 93.3255
L98.3691 93.3255
L98.3691 95.2359
L98.9562 95.2359
L98.9562 95.9981
L99.5433 95.9981
L99.5433 93.9623
L101.305 93.8561
L101.305 94.3289
L101.892 94.3289
L101.892 92.6115
L102.479 92.6115
L102.479 93.0457
L103.066 93.0457
L103.066 95.371
L103.653 95.371
L103.653 96.9534
L104.24 96.9534
L104.24 93.3351
L104.827 93.3351
L104.827 94.0009
L106.001 93.9623
L106.001 93.3255
L106.589 93.3255
L106.589 95.0719
L107.176 95.0719
L107.176 95.9596
L107.763 95.9596
L107.763 94.2517
L108.35 94.2517
L108.35 94.9657
L108.937 94.9657
L108.937 93.9623
L109.524 93.9623
L109.524 94.7245
L110.111 94.7245
L110.111 94.3
L110.698 94.3
L110.698 94.0491
L111.285 94.0491
L111.285 92.4667
L111.872 92.4667
L111.872 94.4544
L112.46 94.4544
L112.46 95.1684
L113.047 95.1684
L113.047 93.1711
L113.634 93.1711
L113.634 95.8824
L114.221 95.8824
L114.221 95.1008
L114.808 95.1008
L114.808 95.3227
L115.395 95.3227
L115.395 95.6122
L115.982 95.6122
L115.982 95.0333
L116.569 95.0333
L116.569 95.2456
L117.743 95.3324
L117.743 94.6956
L118.331 94.6956
L118.331 94.136
L118.918 94.136
L118.918 94.6377
L119.505 94.6377
L119.505 95.2263
L120.092 95.2263
L120.092 94.6763
L120.679 94.6763
L120.679 93.1711
L121.266 93.1711
L121.266 94.1456
L121.853 94.1456
L121.853 94.493
L122.44 94.493
L122.44 96.1139
L123.027 96.1139
L123.027 95.2841
L123.614 95.2841
L123.614 96.3551
L124.202 96.3551
L124.202 93.2
L124.789 93.2
L124.789 93.6921
L125.376 93.6921
L125.376 93.3255
L125.963 93.3255
L125.963 94.6956
L127.137 94.6184
L127.137 93.8176
L127.724 93.8176
L127.724 93.9912
L128.311 93.9912
L128.311 95.5833
L128.898 95.5833
L128.898 92.4089
L130.073 92.4571
L130.073 94.7342
L130.66 94.7342
L130.66 95.6411
L131.247 95.6411
L131.247 93.065
L131.834 93.065
L131.834 94.3193
L132.421 94.3193
L132.421 94.9271
L133.008 94.9271
L133.008 101.585
L133.595 101.585
L133.595 97.8507
L134.182 97.8507
L134.182 94.8017
L134.769 94.8017
L134.769 93.3255
L135.356 93.3255
L135.356 93.8851
L135.944 93.8851
L135.944 93.229
L136.531 93.229
L136.531 96.5771
L137.118 96.5771
L137.118 95.4964
L137.705 95.4964
L137.705 93.5956
L138.292 93.5956
L138.292 93.4413
L138.879 93.4413
L138.879 94.0395
L139.466 94.0395
L139.466 95.8824
L140.053 95.8824
L140.053 95.2841
L140.64 95.2841
L140.64 94.7921
L141.227 94.7921
L141.227 97.0209
L141.815 97.0209
L141.815 95.8727
L142.402 95.8727
L142.402 95.371
L142.989 95.371
L142.989 96.7025
L143.576 96.7025
L143.576 94.7728
L144.163 94.7728
L144.163 95.1008
L144.75 95.1008
L144.75 94.271
L145.337 94.271
L145.337 93.8079
L145.924 93.8079
L145.924 95.5833
L146.511 95.5833
L146.511 94.6473
L147.098 94.6473
L147.098 95.371
L147.686 95.371
L147.686 95.1298
L148.273 95.1298
L148.273 94.8693
L148.86 94.8693
L148.86 94.5991
L149.447 94.5991
L149.447 95.6508
L150.034 95.6508
L150.034 94.4737
L150.621 94.4737
L150.621 94.8114
L151.208 94.8114
L151.208 95.2552
L151.795 95.2552
L151.795 93.4702
L152.382 93.4702
L152.382 93.6632
L152.969 93.6632
L152.969 96.4227
L153.557 96.4227
L153.557 94.8403
L154.144 94.8403
L154.144 96.0657
L154.731 96.0657
L154.731 93.8658
L155.318 93.8658
L155.318 93.7404
L156.492 93.6728
L156.492 95.9499
L157.079 95.9499
L157.079 93.7018
L158.253 93.7307
L158.253 93.2579
L158.84 93.2579
L158.84 93.779
L159.428 93.779
L159.428 94.7342
L160.015 94.7342
L160.015 93.9719
L160.602 93.9719
L160.602 94.2035
L161.189 94.2035
L161.189 93.5088
L161.776 93.5088
L161.776 94.2614
L162.363 94.2614
L162.363 95.2552
L162.95 95.2552
L162.95 98.1787
L163.537 98.1787
L163.537 94.9464
L164.124 94.9464
L164.124 94.5412
L164.711 94.5412
L164.711 94.8596
L165.299 94.8596
L165.299 95.2745
L165.886 95.2745
L165.886 94.5123
L166.473 94.5123
L166.473 96.0464
L167.06 96.0464
L167.06 95.5736
L167.647 95.5736
L167.647 94.5894
L168.234 94.5894
L168.234 95.0333
L168.821 95.0333
L168.821 94.3289
L169.408 94.3289
L169.408 96.4613
L169.995 96.4613
L169.995 95.1394
L170.582 95.1394
L170.582 94.493
L171.17 94.493
L171.17 95.5157
L171.757 95.5157
L171.757 94.1167
L172.344 94.1167
L172.344 97.32
L172.931 97.32
L172.931 94.9754
L173.518 94.9754
L173.518 94.5605
L174.105 94.5605
L174.105 96.9051
L174.692 96.9051
L174.692 95.4096
L175.279 95.4096
L175.279 96.413
L175.866 96.413
L175.866 108.059
L176.453 108.059
L176.453 95.564
L177.041 95.564
L177.041 96.1525
L177.628 96.1525
L177.628 94.8114
L178.802 94.8403
L178.802 96.249
L179.389 96.249
L179.389 95.3517
L179.976 95.3517
L179.976 94.628
L180.563 94.628
L180.563 94.85
L181.15 94.85
L181.15 94.985
L181.737 94.985
L181.737 97.0691
L182.324 97.0691
L182.324 95.6604
L183.499 95.5543
L183.499 95.1587
L184.086 95.1587
L184.086 97.2911
L184.673 97.2911
L184.673 96.9244
L185.26 96.9244
L185.26 95.1008
L185.847 95.1008
L185.847 95.371
L186.434 95.371
L186.434 96.0464
L187.021 96.0464
L187.021 95.2359
L187.608 95.2359
L187.608 96.9727
L188.195 96.9727
L188.195 95.3999
L188.783 95.3999
L188.783 96.3262
L189.37 96.3262
L189.37 95.0912
L190.544 94.985
L190.544 96.5288
L191.131 96.5288
L191.131 95.0815
L191.718 95.0815
L191.718 94.5509
L192.892 94.5701
L192.892 95.1008
L193.479 95.1008
L193.479 96.799
L194.066 96.799
L194.066 94.5798
L194.654 94.5798
L194.654 95.0236
L195.828 95.1298
L195.828 95.9885
L196.415 95.9885
L196.415 99.0857
L197.002 99.0857
L197.002 96.3744
L197.589 96.3744
L197.589 95.6508
L198.176 95.6508
L198.176 95.9885
L198.763 95.9885
L198.763 95.7666
L199.35 95.7666
L199.35 96.8955
L199.937 96.8955
L199.937 94.85
L200.525 94.85
L200.525 95.014
L201.112 95.014
L201.112 95.9113
L201.699 95.9113
L201.699 95.3999
L202.286 95.3999
L202.286 94.5509
L202.873 94.5509
L202.873 107.914
L203.46 107.914
L203.46 95.0719
L204.047 95.0719
L204.047 94.7728
L204.634 94.7728
L204.634 95.1973
L205.221 95.1973
L205.221 97.5033
L205.809 97.5033
L205.809 98.748
L206.396 98.748
L206.396 98.9796
L207.57 98.9024
L207.57 99.491
L208.157 99.491
L208.157 98.584
L208.744 98.584
L208.744 97.6577
L209.331 97.6577
L209.331 100.359
L209.918 100.359
L209.918 98.7191
L210.505 98.7191
L210.505 99.1822
L211.092 99.1822
L211.092 97.8893
L211.68 97.8893
L211.68 98.4296
L212.267 98.4296
L212.267 98.6901
L212.854 98.6901
L212.854 100.215
L213.441 100.215
L213.441 98.748
L214.615 98.7384
L214.615 99.7032
L215.202 99.7032
L215.202 98.5743
L215.789 98.5743
L215.789 99.1725
L216.376 99.1725
L216.376 96.7025
L216.963 96.7025
L216.963 97.6288
L217.551 97.6288
L217.551 98.4393
L218.138 98.4393
L218.138 99.3076
L219.312 99.2401
L219.312 101.054
L219.899 101.054
L219.899 99.2304
L220.486 99.2304
L220.486 98.4778
L221.073 98.4778
L221.073 98.7673
L221.66 98.7673
L221.66 98.4875
L222.247 98.4875
L222.247 100.639
L222.834 100.639
L222.834 98.7577
L223.422 98.7577
L223.422 99.0954
L224.009 99.0954
L224.009 97.9375
L224.596 97.9375
L224.596 98.9796
L225.183 98.9796
L225.183 96.1139
L225.77 96.1139
L225.77 99.7708
L226.357 99.7708
L226.357 98.7287
L226.944 98.7287
L226.944 97.9182
L227.531 97.9182
L227.531 95.8052
L228.118 95.8052
L228.118 98.4489
L228.705 98.4489
L228.705 99.2497
L229.293 99.2497
L229.293 99.3752
L231.054 99.2883
L231.054 98.6033
L231.641 98.6033
L231.641 101.382
L232.228 101.382
L232.228 108.976
L232.815 108.976
L232.815 99.2401
L233.989 99.3269
L233.989 98.9989
L234.576 98.9989
L234.576 99.7418
L235.164 99.7418
L235.164 100.369
L235.751 100.369
L235.751 99.0182
L236.338 99.0182
L236.338 99.6743
L236.925 99.6743
L236.925 99.1918
L237.512 99.1918
L237.512 99.5874
L238.099 99.5874
L238.099 99.819
L238.686 99.819
L238.686 101.16
L239.273 101.16
L239.273 99.8673
L239.86 99.8673
L239.86 99.0471
L240.447 99.0471
L240.447 99.4427
L241.035 99.4427
L241.035 95.8245
L241.622 95.8245
L241.622 98.7963
L242.209 98.7963
L242.209 99.2015
L243.383 99.1629
L243.383 99.8287
L243.97 99.8287
L243.97 99.5778
L244.557 99.5778
L244.557 99.3366
L245.144 99.3366
L245.144 101.102
L245.731 101.102
L245.731 99.2304
L247.493 99.2111
L247.493 99.3848
L248.08 99.3848
L248.08 100.591
L248.667 100.591
L248.667 96.2587
L249.254 96.2587
L249.254 97.2621
L249.841 97.2621
L249.841 99.7418
L250.428 99.7418
L250.428 98.9217
L251.015 98.9217
L251.015 101.951
L251.602 101.951
L251.602 99.0954
L252.189 99.0954
L252.189 98.3717
L253.951 98.3428
L253.951 99.3655
L254.538 99.3655
L254.538 101.208
L255.125 101.208
L255.125 98.3524
L255.712 98.3524
L255.712 99.6164
L256.299 99.6164
L256.299 99.0568
L257.473 99.134
L257.473 99.983
L258.06 99.983
L258.06 101.536
L258.648 101.536
L258.648 100.562
L259.235 100.562
L259.235 99.5488
L259.822 99.5488
L259.822 99.9444
L260.409 99.9444
L260.409 100.272
L260.996 100.272
L260.996 100.552
L261.583 100.552
L261.583 109.902
L262.17 109.902
L262.17 102.202
L262.757 102.202
L262.757 99.2787
L263.344 99.2787
L263.344 99.4813
L263.931 99.4813
L263.931 99.0278
L264.519 99.0278
L264.519 99.3655
L265.106 99.3655
L265.106 100.755
L265.693 100.755
L265.693 99.9541
L266.28 99.9541
L266.28 99.6936
L266.867 99.6936
L266.867 100.195
L267.454 100.195
L267.454 99.9637
L268.041 99.9637
L268.041 100.716
L268.628 100.716
L268.628 99.0664
L269.215 99.0664
L269.215 100.224
L269.802 100.224
L269.802 100.031
L270.39 100.031
L270.39 99.2111
L270.977 99.2111
L270.977 101.884
L271.564 101.884
L271.564 101.315
L272.151 101.315
L272.151 98.8059
L273.325 98.7673
L273.325 99.4717
L273.912 99.4717
L273.912 100.986
L274.499 100.986
L274.499 99.848
L275.086 99.848
L275.086 100.224
L276.261 100.253
L276.261 99.819
L276.848 99.819
L276.848 100.35
L277.435 100.35
L277.435 100.205
L278.022 100.205
L278.022 99.8287
L278.609 99.8287
L278.609 100.263
L279.196 100.263
L279.196 101.768
L279.783 101.768
L279.783 110.394
L280.37 110.394
L280.37 99.7418
L281.544 99.7322
L281.544 99.2787
L282.132 99.2787
L282.132 100.572
L282.719 100.572
L282.719 102.077
L283.306 102.077
L283.306 99.7032
L285.067 99.655
L285.067 101.218
L285.654 101.218
L285.654 99.4427
L286.241 99.4427
L286.241 99.6839
L287.415 99.6067
L287.415 98.8541
L288.003 98.8541
L288.003 101.247
L288.59 101.247
L288.59 100.514
L289.177 100.514
L289.177 100.186
L289.764 100.186
L289.764 99.7418
L290.351 99.7418
L290.351 100.002
L290.938 100.002
L290.938 101.556
L291.525 101.556
L291.525 101.372
L292.112 101.372
L292.112 100.475
L292.699 100.475
L292.699 100.099
L293.286 100.099
L293.286 99.8287
L293.874 99.8287
L293.874 100.765
L294.461 100.765
L294.461 101.179
L295.048 101.179
L295.048 102.607
L295.635 102.607
L295.635 99.626
L296.222 99.626
L296.222 99.298
L296.809 99.298
L296.809 99.819
L297.396 99.819
L297.396 100.359
L297.983 100.359
L297.983 107.702
L298.57 107.702
L298.57 106.409
L299.157 106.409
L299.157 101.594
L299.745 101.594
L299.745 99.626
L300.332 99.626
L300.332 99.2401
L300.919 99.2401
L300.919 100.427
L301.506 100.427
L301.506 101.72
L302.093 101.72
L302.093 100.089
L302.68 100.089
L302.68 100.272
L303.267 100.272
L303.267 100.591
L303.854 100.591
L303.854 100.195
L304.441 100.195
L304.441 100.34
L305.028 100.34
L305.028 102.019
L305.616 102.019
L305.616 100.244
L306.79 100.253
L306.79 100.591
L307.964 100.658
L307.964 101.546
L308.551 101.546
L308.551 99.848
L309.138 99.848
L309.138 99.5295
L309.725 99.5295
L309.725 100.205
L310.312 100.205
L310.312 101.16
L310.899 101.16
L310.899 100.147
L311.487 100.147
L311.487 102.135
L312.074 102.135
L312.074 100.359
L313.248 100.301
L313.248 101.17
L313.835 101.17
L313.835 99.9058
L314.422 99.9058
L314.422 101.064
L315.009 101.064
L315.009 102.009
L315.596 102.009
L315.596 101.16
L316.183 101.16
L316.183 100.543
L317.358 100.562
L317.358 100.909
L317.945 100.909
L317.945 103.601
L318.532 103.601
L318.532 100.755
L319.119 100.755
L319.119 100.089
L319.706 100.089
L319.706 100.234
L320.293 100.234
L320.293 98.2945
L320.88 98.2945
L320.88 98.1208
L321.467 98.1208
L321.467 109.12
L322.054 109.12
L322.054 106.843
L322.641 106.843
L322.641 99.6839
L323.816 99.5874
L323.816 100.62
L324.403 100.62
L324.403 100.736
L324.99 100.736
L324.99 102.231
L325.577 102.231
L325.577 100.311
L326.164 100.311
L326.164 99.9348
L326.751 99.9348
L326.751 100.388
L327.338 100.388
L327.338 100.62
L327.925 100.62
L327.925 102.482
L328.512 102.482
L328.512 100.668
L329.687 100.745
L329.687 100.07
L330.274 100.07
L330.274 100.388
L331.448 100.437
L331.448 102.077
L332.035 102.077
L332.035 100.687
L333.209 100.687
L333.209 99.7129
L333.796 99.7129
L333.796 100.34
L334.383 100.34
L334.383 101.797
L334.971 101.797
L334.971 100.34
L335.558 100.34
L335.558 100.06
L336.145 100.06
L336.145 100.909
L336.732 100.909
L336.732 100.427
L337.319 100.427
L337.319 100.668
L337.906 100.668
L337.906 102.463
L338.493 102.463
L338.493 100.822
L339.08 100.822
L339.08 100.996
L339.667 100.996
L339.667 102.029
L340.255 102.029
L340.255 100.736
L340.842 100.736
L340.842 101.942
L341.429 101.942
L341.429 102.849
L342.016 102.849
L342.016 101.237
L343.19 101.208
L343.19 100.9
L343.777 100.9
L343.777 100.61
L344.364 100.61
L344.364 111.359
L344.951 111.359
L344.951 107.789
L345.538 107.789
L345.538 100.282
L346.713 100.33
L346.713 101.035
L347.3 101.035
L347.3 102.25
L347.887 102.25
L347.887 101.334
L348.474 101.334
L348.474 101.054
L349.061 101.054
L349.061 101.286
L350.235 101.276
L350.235 102.424
L350.822 102.424
L350.822 99.8287
L351.409 99.8287
L351.409 100.629
L352.584 100.581
L352.584 100.784
L353.171 100.784
L353.171 100.205
L353.758 100.205
L353.758 101.421
L354.345 101.421
L354.345 100.388
L354.932 100.388
L354.932 101.836
L355.519 101.836
L355.519 103.939
L356.106 103.939
L356.106 99.9927
L356.693 99.9927
L356.693 101.585
L357.28 101.585
L357.28 100.562
L357.868 100.562
L357.868 101.208
L358.455 101.208
L358.455 101.363
L359.042 101.363
L359.042 100.803
L359.629 100.803
L359.629 102.839
L360.216 102.839
L360.216 105.763
L360.803 105.763
L360.803 101.922
L361.39 101.922
L361.39 100.581
L361.977 100.581
L361.977 101.44
L362.564 101.44
L362.564 102.096
L363.151 102.096
L363.151 101.257
L364.326 101.286
L364.326 100.215
L364.913 100.215
L364.913 105.116
L365.5 105.116
L365.5 110.278
L366.087 110.278
L366.087 111.6
L366.674 111.6
L366.674 103.042
L367.261 103.042
L367.261 99.819
L367.848 99.819
L367.848 100.166
L368.435 100.166
L368.435 101.865
L369.022 101.865
L369.022 102.714
L369.61 102.714
L369.61 101.257
L370.197 101.257
L370.197 102.868
L370.784 102.868
L370.784 101.237
L371.371 101.237
L371.371 101.536
L371.958 101.536
L371.958 100.726
L372.545 100.726
L372.545 103.466
L373.132 103.466
L373.132 101.218
L373.719 101.218
L373.719 101.633
L374.306 101.633
L374.306 101.315
L374.893 101.315
L374.893 102.81
L375.481 102.81
L375.481 103.958
L376.068 103.958
L376.068 100.745
L376.655 100.745
L376.655 101.672
L377.242 101.672
L377.242 100.552
L377.829 100.552
L377.829 101.768
L378.416 101.768
L378.416 106.033
L379.003 106.033
L379.003 101.151
L379.59 101.151
L379.59 100.745
L380.177 100.745
L380.177 101.208
L380.764 101.208
L380.764 104.151
L381.352 104.151
L381.352 101.189
L381.939 101.189
L381.939 100.157
L382.526 100.157
L382.526 100.822
L383.113 100.822
L383.113 101.276
L383.7 101.276
L383.7 102.405
L384.287 102.405
L384.287 101.565
L384.874 101.565
L384.874 100.514
L385.461 100.514
L385.461 100.736
L386.048 100.736
L386.048 100.427
L386.635 100.427
L386.635 101.459
L387.223 101.459
L387.223 101.681
L387.81 101.681
L387.81 102.752
L388.397 102.752
L388.397 101.266
L389.571 101.247
L389.571 101.141
L390.158 101.141
L390.158 101.401
L390.745 101.401
L390.745 101.556
L391.332 101.556
L391.332 101.199
L391.919 101.199
L391.919 101.324
L392.506 101.324
L392.506 103.505
L393.094 103.505
L393.094 105.946
L393.681 105.946
L393.681 104.151
L394.268 104.151
L394.268 104.335
L394.855 104.335
L394.855 111.6
L395.442 111.6
L395.442 103.746
L396.029 103.746
L396.029 102.916
L396.616 102.916
L396.616 101.672
L397.203 101.672
L397.203 101.971
L397.79 101.971
L397.79 101.971" style="fill:none;stroke:#0000ff;"/>
   </g>
   <g id="matplotlib.axis_1">
    <g id="xtick_1">
     <g id="line2d_23">
      <defs>
       <path d="
M0 0
L0 -4" id="m0012dd4eef" style="stroke:#000000;stroke-linecap:butt;stroke-width:0.5;"/>
      </defs>
      <g>
       <use style="stroke:#000000;stroke-linecap:butt;stroke-width:0.5;" x="46.1171875" xlink:href="#m0012dd4eef" y="111.6"/>
      </g>
     </g>
     <g id="line2d_24">
      <defs>
       <path d="
M0 0
L0 4" id="m476344969c" style="stroke:#000000;stroke-linecap:butt;stroke-width:0.5;"/>
      </defs>
      <g>
       <use style="stroke:#000000;stroke-linecap:butt;stroke-width:0.5;" x="46.1171875" xlink:href="#m476344969c" y="32.0"/>
      </g>
     </g>
     <g id="text_1">
      <!-- 0 -->
      <defs>
       <path d="
M31.7812 66.4062
Q24.1719 66.4062 20.3281 58.9062
Q16.5 51.4219 16.5 36.375
Q16.5 21.3906 20.3281 13.8906
Q24.1719 6.39062 31.7812 6.39062
Q39.4531 6.39062 43.2812 13.8906
Q47.125 21.3906 47.125 36.375
Q47.125 51.4219 43.2812 58.9062
Q39.4531 66.4062 31.7812 66.4062
M31.7812 74.2188
Q44.0469 74.2188 50.5156 64.5156
Q56.9844 54.8281 56.9844 36.375
Q56.9844 17.9688 50.5156 8.26562
Q44.0469 -1.42188 31.7812 -1.42188
Q19.5312 -1.42188 13.0625 8.26562
Q6.59375 17.9688 6.59375 36.375
Q6.59375 54.8281 13.0625 64.5156
Q19.5312 74.2188 31.7812 74.2188" id="DejaVuSans-30"/>
      </defs>
      <g transform="translate(43.59765625 123.021875)scale(0.1 -0.1)">
       <use xlink:href="#DejaVuSans-30"/>
      </g>
     </g>
    </g>
    <g id="xtick_2">
     <g id="line2d_25">
      <g>
       <use style="stroke:#000000;stroke-linecap:butt;stroke-width:0.5;" x="135.073242188" xlink:href="#m0012dd4eef" y="111.6"/>
      </g>
     </g>
     <g id="line2d_26">
      <g>
       <use style="stroke:#000000;stroke-linecap:butt;stroke-width:0.5;" x="135.073242188" xlink:href="#m476344969c" y="32.0"/>
      </g>
     </g>
     <g id="text_2">
      <!-- 500 -->
      <defs>
       <path d="
M10.7969 72.9062
L49.5156 72.9062
L49.5156 64.5938
L19.8281 64.5938
L19.8281 46.7344
Q21.9688 47.4688 24.1094 47.8281
Q26.2656 48.1875 28.4219 48.1875
Q40.625 48.1875 47.75 41.5
Q54.8906 34.8125 54.8906 23.3906
Q54.8906 11.625 47.5625 5.09375
Q40.2344 -1.42188 26.9062 -1.42188
Q22.3125 -1.42188 17.5469 -0.640625
Q12.7969 0.140625 7.71875 1.70312
L7.71875 11.625
Q12.1094 9.23438 16.7969 8.0625
Q21.4844 6.89062 26.7031 6.89062
Q35.1562 6.89062 40.0781 11.3281
Q45.0156 15.7656 45.0156 23.3906
Q45.0156 31 40.0781 35.4375
Q35.1562 39.8906 26.7031 39.8906
Q22.75 39.8906 18.8125 39.0156
Q14.8906 38.1406 10.7969 36.2812
z
" id="DejaVuSans-35"/>
      </defs>
      <g transform="translate(126.247460938 123.021875)scale(0.1 -0.1)">
       <use xlink:href="#DejaVuSans-35"/>
       <use x="63.623046875" xlink:href="#DejaVuSans-30"/>
       <use x="127.24609375" xlink:href="#DejaVuSans-30"/>
      </g>
     </g>
    </g>
    <g id="xtick_3">
     <g id="line2d_27">
      <g>
       <use style="stroke:#000000;stroke-linecap:butt;stroke-width:0.5;" x="224.029296875" xlink:href="#m0012dd4eef" y="111.6"/>
      </g>
     </g>
     <g id="line2d_28">
      <g>
       <use style="stroke:#000000;stroke-linecap:butt;stroke-width:0.5;" x="224.029296875" xlink:href="#m476344969c" y="32.0"/>
      </g>
     </g>
     <g id="text_3">
      <!-- 1000 -->
      <defs>
       <path d="
M12.4062 8.29688
L28.5156 8.29688
L28.5156 63.9219
L10.9844 60.4062
L10.9844 69.3906
L28.4219 72.9062
L38.2812 72.9062
L38.2812 8.29688
L54.3906 8.29688
L54.3906 0
L12.4062 0
z
" id="DejaVuSans-31"/>
      </defs>
      <g transform="translate(212.185546875 123.021875)scale(0.1 -0.1)">
       <use xlink:href="#DejaVuSans-31"/>
       <use x="63.623046875" xlink:href="#DejaVuSans-30"/>
       <use x="127.24609375" xlink:href="#DejaVuSans-30"/>
       <use x="190.869140625" xlink:href="#DejaVuSans-30"/>
      </g>
     </g>
    </g>
    <g id="xtick_4">
     <g id="line2d_29">
      <g>
       <use style="stroke:#000000;stroke-linecap:butt;stroke-width:0.5;" x="312.985351563" xlink:href="#m0012dd4eef" y="111.6"/>
      </g>
     </g>
     <g id="line2d_30">
      <g>
       <use style="stroke:#000000;stroke-linecap:butt;stroke-width:0.5;" x="312.985351563" xlink:href="#m476344969c" y="32.0"/>
      </g>
     </g>
     <g id="text_4">
      <!-- 1500 -->
      <g transform="translate(301.141601563 123.021875)scale(0.1 -0.1)">
       <use xlink:href="#DejaVuSans-31"/>
       <use x="63.623046875" xlink:href="#DejaVuSans-35"/>
       <use x="127.24609375" xlink:href="#DejaVuSans-30"/>
       <use x="190.869140625" xlink:href="#DejaVuSans-30"/>
      </g>
     </g>
    </g>
    <g id="xtick_5">
     <g id="line2d_31">
      <g>
       <use style="stroke:#000000;stroke-linecap:butt;stroke-width:0.5;" x="401.94140625" xlink:href="#m0012dd4eef" y="111.6"/>
      </g>
     </g>
     <g id="line2d_32">
      <g>
       <use style="stroke:#000000;stroke-linecap:butt;stroke-width:0.5;" x="401.94140625" xlink:href="#m476344969c" y="32.0"/>
      </g>
     </g>
     <g id="text_5">
      <!-- 2000 -->
      <defs>
       <path d="
M19.1875 8.29688
L53.6094 8.29688
L53.6094 0
L7.32812 0
L7.32812 8.29688
Q12.9375 14.1094 22.625 23.8906
Q32.3281 33.6875 34.8125 36.5312
Q39.5469 41.8438 41.4219 45.5312
Q43.3125 49.2188 43.3125 52.7812
Q43.3125 58.5938 39.2344 62.25
Q35.1562 65.9219 28.6094 65.9219
Q23.9688 65.9219 18.8125 64.3125
Q13.6719 62.7031 7.8125 59.4219
L7.8125 69.3906
Q13.7656 71.7812 18.9375 73
Q24.125 74.2188 28.4219 74.2188
Q39.75 74.2188 46.4844 68.5469
Q53.2188 62.8906 53.2188 53.4219
Q53.2188 48.9219 51.5312 44.8906
Q49.8594 40.875 45.4062 35.4062
Q44.1875 33.9844 37.6406 27.2188
Q31.1094 20.4531 19.1875 8.29688" id="DejaVuSans-32"/>
      </defs>
      <g transform="translate(389.91484375 123.021875)scale(0.1 -0.1)">
       <use xlink:href="#DejaVuSans-32"/>
       <use x="63.623046875" xlink:href="#DejaVuSans-30"/>
       <use x="127.24609375" xlink:href="#DejaVuSans-30"/>
       <use x="190.869140625" xlink:href="#DejaVuSans-30"/>
      </g>
     </g>
    </g>
    <g id="text_6">
     <!-- Time -->
     <defs>
      <path d="
M52 44.1875
Q55.375 50.25 60.0625 53.125
Q64.75 56 71.0938 56
Q79.6406 56 84.2812 50.0156
Q88.9219 44.0469 88.9219 33.0156
L88.9219 0
L79.8906 0
L79.8906 32.7188
Q79.8906 40.5781 77.0938 44.375
Q74.3125 48.1875 68.6094 48.1875
Q61.625 48.1875 57.5625 43.5469
Q53.5156 38.9219 53.5156 30.9062
L53.5156 0
L44.4844 0
L44.4844 32.7188
Q44.4844 40.625 41.7031 44.4062
Q38.9219 48.1875 33.1094 48.1875
Q26.2188 48.1875 22.1562 43.5312
Q18.1094 38.875 18.1094 30.9062
L18.1094 0
L9.07812 0
L9.07812 54.6875
L18.1094 54.6875
L18.1094 46.1875
Q21.1875 51.2188 25.4844 53.6094
Q29.7812 56 35.6875 56
Q41.6562 56 45.8281 52.9688
Q50 49.9531 52 44.1875" id="DejaVuSans-6d"/>
      <path d="
M9.42188 54.6875
L18.4062 54.6875
L18.4062 0
L9.42188 0
z

M9.42188 75.9844
L18.4062 75.9844
L18.4062 64.5938
L9.42188 64.5938
z
" id="DejaVuSans-69"/>
      <path d="
M56.2031 29.5938
L56.2031 25.2031
L14.8906 25.2031
Q15.4844 15.9219 20.4844 11.0625
Q25.4844 6.20312 34.4219 6.20312
Q39.5938 6.20312 44.4531 7.46875
Q49.3125 8.73438 54.1094 11.2812
L54.1094 2.78125
Q49.2656 0.734375 44.1875 -0.34375
Q39.1094 -1.42188 33.8906 -1.42188
Q20.7969 -1.42188 13.1562 6.1875
Q5.51562 13.8125 5.51562 26.8125
Q5.51562 40.2344 12.7656 48.1094
Q20.0156 56 32.3281 56
Q43.3594 56 49.7812 48.8906
Q56.2031 41.7969 56.2031 29.5938
M47.2188 32.2344
Q47.125 39.5938 43.0938 43.9844
Q39.0625 48.3906 32.4219 48.3906
Q24.9062 48.3906 20.3906 44.1406
Q15.875 39.8906 15.1875 32.1719
z
" id="DejaVuSans-65"/>
      <path d="
M-0.296875 72.9062
L61.375 72.9062
L61.375 64.5938
L35.5 64.5938
L35.5 0
L25.5938 0
L25.5938 64.5938
L-0.296875 64.5938
z
" id="DejaVuSans-54"/>
     </defs>
     <g transform="translate(212.047265625 135.7625)scale(0.1 -0.1)">
      <use xlink:href="#DejaVuSans-54"/>
      <use x="57.958984375" xlink:href="#DejaVuSans-69"/>
      <use x="85.7421875" xlink:href="#DejaVuSans-6d"/>
      <use x="183.154296875" xlink:href="#DejaVuSans-65"/>
     </g>
    </g>
   </g>
   <g id="matplotlib.axis_2">
    <g id="ytick_1">
     <g id="line2d_33">
      <defs>
       <path d="
M0 0
L4 0" id="me8a85f7bf6" style="stroke:#000000;stroke-linecap:butt;stroke-width:0.5;"/>
      </defs>
      <g>
       <use style="stroke:#000000;stroke-linecap:butt;stroke-width:0.5;" x="46.1171875" xlink:href="#me8a85f7bf6" y="111.6"/>
      </g>
     </g>
     <g id="line2d_34">
      <defs>
       <path d="
M0 0
L-4 0" id="m1a32005dea" style="stroke:#000000;stroke-linecap:butt;stroke-width:0.5;"/>
      </defs>
      <g>
       <use style="stroke:#000000;stroke-linecap:butt;stroke-width:0.5;" x="401.94140625" xlink:href="#m1a32005dea" y="111.6"/>
      </g>
     </g>
     <g id="text_7">
      <!-- 0 -->
      <g transform="translate(37.078125 115.23984375)scale(0.1 -0.1)">
       <use xlink:href="#DejaVuSans-30"/>
      </g>
     </g>
    </g>
    <g id="ytick_2">
     <g id="line2d_35">
      <g>
       <use style="stroke:#000000;stroke-linecap:butt;stroke-width:0.5;" x="46.1171875" xlink:href="#me8a85f7bf6" y="95.68"/>
      </g>
     </g>
     <g id="line2d_36">
      <g>
       <use style="stroke:#000000;stroke-linecap:butt;stroke-width:0.5;" x="401.94140625" xlink:href="#m1a32005dea" y="95.68"/>
      </g>
     </g>
     <g id="text_8">
      <!-- 500 -->
      <g transform="translate(24.465625 99.31984375)scale(0.1 -0.1)">
       <use xlink:href="#DejaVuSans-35"/>
       <use x="63.623046875" xlink:href="#DejaVuSans-30"/>
       <use x="127.24609375" xlink:href="#DejaVuSans-30"/>
      </g>
     </g>
    </g>
    <g id="ytick_3">
     <g id="line2d_37">
      <g>
       <use style="stroke:#000000;stroke-linecap:butt;stroke-width:0.5;" x="46.1171875" xlink:href="#me8a85f7bf6" y="79.76"/>
      </g>
     </g>
     <g id="line2d_38">
      <g>
       <use style="stroke:#000000;stroke-linecap:butt;stroke-width:0.5;" x="401.94140625" xlink:href="#m1a32005dea" y="79.76"/>
      </g>
     </g>
     <g id="text_9">
      <!-- 1000 -->
      <g transform="translate(18.4296875 83.39984375)scale(0.1 -0.1)">
       <use xlink:href="#DejaVuSans-31"/>
       <use x="63.623046875" xlink:href="#DejaVuSans-30"/>
       <use x="127.24609375" xlink:href="#DejaVuSans-30"/>
       <use x="190.869140625" xlink:href="#DejaVuSans-30"/>
      </g>
     </g>
    </g>
    <g id="ytick_4">
     <g id="line2d_39">
      <g>
       <use style="stroke:#000000;stroke-linecap:butt;stroke-width:0.5;" x="46.1171875" xlink:href="#me8a85f7bf6" y="63.84"/>
      </g>
     </g>
     <g id="line2d_40">
      <g>
       <use style="stroke:#000000;stroke-linecap:butt;stroke-width:0.5;" x="401.94140625" xlink:href="#m1a32005dea" y="63.84"/>
      </g>
     </g>
     <g id="text_10">
      <!-- 1500 -->
      <g transform="translate(18.4296875 67.47984375)scale(0.1 -0.1)">
       <use xlink:href="#DejaVuSans-31"/>
       <use x="63.623046875" xlink:href="#DejaVuSans-35"/>
       <use x="127.24609375" xlink:href="#DejaVuSans-30"/>
       <use x="190.869140625" xlink:href="#DejaVuSans-30"/>
      </g>
     </g>
    </g>
    <g id="ytick_5">
     <g id="line2d_41">
      <g>
       <use style="stroke:#000000;stroke-linecap:butt;stroke-width:0.5;" x="46.1171875" xlink:href="#me8a85f7bf6" y="47.92"/>
      </g>
     </g>
     <g id="line2d_42">
      <g>
       <use style="stroke:#000000;stroke-linecap:butt;stroke-width:0.5;" x="401.94140625" xlink:href="#m1a32005dea" y="47.92"/>
      </g>
     </g>
     <g id="text_11">
      <!-- 2000 -->
      <g transform="translate(18.0640625 51.55984375)scale(0.1 -0.1)">
       <use xlink:href="#DejaVuSans-32"/>
       <use x="63.623046875" xlink:href="#DejaVuSans-30"/>
       <use x="127.24609375" xlink:href="#DejaVuSans-30"/>
       <use x="190.869140625" xlink:href="#DejaVuSans-30"/>
      </g>
     </g>
    </g>
    <g id="ytick_6">
     <g id="line2d_43">
      <g>
       <use style="stroke:#000000;stroke-linecap:butt;stroke-width:0.5;" x="46.1171875" xlink:href="#me8a85f7bf6" y="32.0"/>
      </g>
     </g>
     <g id="line2d_44">
      <g>
       <use style="stroke:#000000;stroke-linecap:butt;stroke-width:0.5;" x="401.94140625" xlink:href="#m1a32005dea" y="32.0"/>
      </g>
     </g>
     <g id="text_12">
      <!-- 2500 -->
      <g transform="translate(18.0640625 35.63984375)scale(0.1 -0.1)">
       <use xlink:href="#DejaVuSans-32"/>
       <use x="63.623046875" xlink:href="#DejaVuSans-35"/>
       <use x="127.24609375" xlink:href="#DejaVuSans-30"/>
       <use x="190.869140625" xlink:href="#DejaVuSans-30"/>
      </g>
     </g>
    </g>
   </g>
   <g id="patch_3">
    <path d="
M46.1172 32
L401.941 32" style="fill:none;stroke:#000000;"/>
   </g>
   <g id="patch_4">
    <path d="
M401.941 111.6
L401.941 32" style="fill:none;stroke:#000000;"/>
   </g>
   <g id="patch_5">
    <path d="
M46.1172 111.6
L401.941 111.6" style="fill:none;stroke:#000000;"/>
   </g>
   <g id="patch_6">
    <path d="
M46.1172 111.6
L46.1172 32" style="fill:none;stroke:#000000;"/>
   </g>
   <g id="text_13">
    <!-- OLTP -->
    <defs>
     <path d="
M39.4062 66.2188
Q28.6562 66.2188 22.3281 58.2031
Q16.0156 50.2031 16.0156 36.375
Q16.0156 22.6094 22.3281 14.5938
Q28.6562 6.59375 39.4062 6.59375
Q50.1406 6.59375 56.4219 14.5938
Q62.7031 22.6094 62.7031 36.375
Q62.7031 50.2031 56.4219 58.2031
Q50.1406 66.2188 39.4062 66.2188
M39.4062 74.2188
Q54.7344 74.2188 63.9062 63.9375
Q73.0938 53.6562 73.0938 36.375
Q73.0938 19.1406 63.9062 8.85938
Q54.7344 -1.42188 39.4062 -1.42188
Q24.0312 -1.42188 14.8125 8.82812
Q5.60938 19.0938 5.60938 36.375
Q5.60938 53.6562 14.8125 63.9375
Q24.0312 74.2188 39.4062 74.2188" id="DejaVuSans-4f"/>
     <path d="
M19.6719 64.7969
L19.6719 37.4062
L32.0781 37.4062
Q38.9688 37.4062 42.7188 40.9688
Q46.4844 44.5312 46.4844 51.125
Q46.4844 57.6719 42.7188 61.2344
Q38.9688 64.7969 32.0781 64.7969
z

M9.8125 72.9062
L32.0781 72.9062
Q44.3438 72.9062 50.6094 67.3594
Q56.8906 61.8125 56.8906 51.125
Q56.8906 40.3281 50.6094 34.8125
Q44.3438 29.2969 32.0781 29.2969
L19.6719 29.2969
L19.6719 0
L9.8125 0
z
" id="DejaVuSans-50"/>
     <path d="
M9.8125 72.9062
L19.6719 72.9062
L19.6719 8.29688
L55.1719 8.29688
L55.1719 0
L9.8125 0
z
" id="DejaVuSans-4c"/>
    </defs>
    <g transform="translate(210.046484375 27.0)scale(0.12 -0.12)">
     <use xlink:href="#DejaVuSans-4f"/>
     <use x="78.7109375" xlink:href="#DejaVuSans-4c"/>
     <use x="120.673828125" xlink:href="#DejaVuSans-54"/>
     <use x="181.7578125" xlink:href="#DejaVuSans-50"/>
    </g>
   </g>
  </g>
  <g id="axes_2">
   <g id="patch_7">
    <path d="
M46.1172 246.6
L401.941 246.6
L401.941 167
L46.1172 167
z
" style="fill:#ffffff;"/>
   </g>
   <g id="line2d_45">
    <path clip-path="url(#pe9bd9c4693)" d="
M56.7876 246.6
L56.7876 167" style="fill:none;stroke:#00ffff;stroke-dasharray:6.000000,6.000000;stroke-dashoffset:0.0;stroke-linecap:butt;"/>
   </g>
   <g id="line2d_46">
    <path clip-path="url(#pe9bd9c4693)" d="
M78.1372 246.6
L78.1372 167" style="fill:none;stroke:#00ffff;stroke-dasharray:6.000000,6.000000;stroke-dashoffset:0.0;stroke-linecap:butt;"/>
   </g>
   <g id="line2d_47">
    <path clip-path="url(#pe9bd9c4693)" d="
M78.1373 246.6
L78.1373 167" style="fill:none;stroke:#00ffff;stroke-dasharray:6.000000,6.000000;stroke-dashoffset:0.0;stroke-linecap:butt;"/>
   </g>
   <g id="line2d_48">
    <path clip-path="url(#pe9bd9c4693)" d="
M99.4868 246.6
L99.4868 167" style="fill:none;stroke:#00ffff;stroke-dasharray:6.000000,6.000000;stroke-dashoffset:0.0;stroke-linecap:butt;"/>
   </g>
   <g id="line2d_49">
    <path clip-path="url(#pe9bd9c4693)" d="
M120.836 246.6
L120.836 167" style="fill:none;stroke:#00ffff;stroke-dasharray:6.000000,6.000000;stroke-dashoffset:0.0;stroke-linecap:butt;"/>
   </g>
   <g id="line2d_50">
    <path clip-path="url(#pe9bd9c4693)" d="
M120.837 246.6
L120.837 167" style="fill:none;stroke:#00ffff;stroke-dasharray:6.000000,6.000000;stroke-dashoffset:0.0;stroke-linecap:butt;"/>
   </g>
   <g id="line2d_51">
    <path clip-path="url(#pe9bd9c4693)" d="
M142.186 246.6
L142.186 167" style="fill:none;stroke:#00ffff;stroke-dasharray:6.000000,6.000000;stroke-dashoffset:0.0;stroke-linecap:butt;"/>
   </g>
   <g id="line2d_52">
    <path clip-path="url(#pe9bd9c4693)" d="
M163.535 246.6
L163.535 167" style="fill:none;stroke:#00ffff;stroke-dasharray:6.000000,6.000000;stroke-dashoffset:0.0;stroke-linecap:butt;"/>
   </g>
   <g id="line2d_53">
    <path clip-path="url(#pe9bd9c4693)" d="
M163.535 246.6
L163.535 167" style="fill:none;stroke:#00ffff;stroke-dasharray:6.000000,6.000000;stroke-dashoffset:0.0;stroke-linecap:butt;"/>
   </g>
   <g id="line2d_54">
    <path clip-path="url(#pe9bd9c4693)" d="
M163.535 246.6
L163.535 167" style="fill:none;stroke:#00ffff;stroke-dasharray:6.000000,6.000000;stroke-dashoffset:0.0;stroke-linecap:butt;"/>
   </g>
   <g id="line2d_55">
    <path clip-path="url(#pe9bd9c4693)" d="
M184.885 246.6
L184.885 167" style="fill:none;stroke:#00ffff;stroke-dasharray:6.000000,6.000000;stroke-dashoffset:0.0;stroke-linecap:butt;"/>
   </g>
   <g id="line2d_56">
    <path clip-path="url(#pe9bd9c4693)" d="
M206.234 246.6
L206.234 167" style="fill:none;stroke:#00ffff;stroke-dasharray:6.000000,6.000000;stroke-dashoffset:0.0;stroke-linecap:butt;"/>
   </g>
   <g id="line2d_57">
    <path clip-path="url(#pe9bd9c4693)" d="
M206.234 246.6
L206.234 167" style="fill:none;stroke:#00ffff;stroke-dasharray:6.000000,6.000000;stroke-dashoffset:0.0;stroke-linecap:butt;"/>
   </g>
   <g id="line2d_58">
    <path clip-path="url(#pe9bd9c4693)" d="
M227.584 246.6
L227.584 167" style="fill:none;stroke:#00ffff;stroke-dasharray:6.000000,6.000000;stroke-dashoffset:0.0;stroke-linecap:butt;"/>
   </g>
   <g id="line2d_59">
    <path clip-path="url(#pe9bd9c4693)" d="
M248.933 246.6
L248.933 167" style="fill:none;stroke:#00ffff;stroke-dasharray:6.000000,6.000000;stroke-dashoffset:0.0;stroke-linecap:butt;"/>
   </g>
   <g id="line2d_60">
    <path clip-path="url(#pe9bd9c4693)" d="
M270.283 246.6
L270.283 167" style="fill:none;stroke:#00ffff;stroke-dasharray:6.000000,6.000000;stroke-dashoffset:0.0;stroke-linecap:butt;"/>
   </g>
   <g id="line2d_61">
    <path clip-path="url(#pe9bd9c4693)" d="
M291.658 246.6
L291.658 167" style="fill:none;stroke:#00ffff;stroke-dasharray:6.000000,6.000000;stroke-dashoffset:0.0;stroke-linecap:butt;"/>
   </g>
   <g id="line2d_62">
    <path clip-path="url(#pe9bd9c4693)" d="
M312.981 246.6
L312.981 167" style="fill:none;stroke:#00ffff;stroke-dasharray:6.000000,6.000000;stroke-dashoffset:0.0;stroke-linecap:butt;"/>
   </g>
   <g id="line2d_63">
    <path clip-path="url(#pe9bd9c4693)" d="
M334.33 246.6
L334.33 167" style="fill:none;stroke:#00ffff;stroke-dasharray:6.000000,6.000000;stroke-dashoffset:0.0;stroke-linecap:butt;"/>
   </g>
   <g id="line2d_64">
    <path clip-path="url(#pe9bd9c4693)" d="
M355.68 246.6
L355.68 167" style="fill:none;stroke:#00ffff;stroke-dasharray:6.000000,6.000000;stroke-dashoffset:0.0;stroke-linecap:butt;"/>
   </g>
   <g id="line2d_65">
    <path clip-path="url(#pe9bd9c4693)" d="
M377.03 246.6
L377.03 167" style="fill:none;stroke:#00ffff;stroke-dasharray:6.000000,6.000000;stroke-dashoffset:0.0;stroke-linecap:butt;"/>
   </g>
   <g id="line2d_66">
    <path clip-path="url(#pe9bd9c4693)" d="
M57.0866 209.099
L57.0866 191.833
L77.1608 191.833
L77.1608 187.934
L97.235 187.934
L97.235 181.994
L117.309 181.994
L117.309 169.184
L137.383 169.184
L137.383 163.8
L157.458 163.8
L157.458 169.926
L177.532 169.926
L177.532 167.142
L197.606 167.142
L197.606 175.681
L217.68 175.681
L217.68 174.568
L237.755 174.568
L237.755 184.407
L257.829 184.407
L257.829 184.221
L277.903 184.221
L277.903 182.179
L297.977 182.179
L297.977 185.335
L318.051 185.335
L318.051 181.808
L338.126 181.808
L338.126 186.264
L358.2 186.264
L358.2 189.791
L378.274 189.791" style="fill:none;stroke:#008000;"/>
   </g>
   <g id="matplotlib.axis_3">
    <g id="xtick_6">
     <g id="line2d_67">
      <g>
       <use style="stroke:#000000;stroke-linecap:butt;stroke-width:0.5;" x="46.1171875" xlink:href="#m0012dd4eef" y="246.6"/>
      </g>
     </g>
     <g id="line2d_68">
      <g>
       <use style="stroke:#000000;stroke-linecap:butt;stroke-width:0.5;" x="46.1171875" xlink:href="#m476344969c" y="167.0"/>
      </g>
     </g>
     <g id="text_14">
      <!-- 0 -->
      <g transform="translate(43.59765625 258.021875)scale(0.1 -0.1)">
       <use xlink:href="#DejaVuSans-30"/>
      </g>
     </g>
    </g>
    <g id="xtick_7">
     <g id="line2d_69">
      <g>
       <use style="stroke:#000000;stroke-linecap:butt;stroke-width:0.5;" x="135.073242188" xlink:href="#m0012dd4eef" y="246.6"/>
      </g>
     </g>
     <g id="line2d_70">
      <g>
       <use style="stroke:#000000;stroke-linecap:butt;stroke-width:0.5;" x="135.073242188" xlink:href="#m476344969c" y="167.0"/>
      </g>
     </g>
     <g id="text_15">
      <!-- 500 -->
      <g transform="translate(126.247460938 258.021875)scale(0.1 -0.1)">
       <use xlink:href="#DejaVuSans-35"/>
       <use x="63.623046875" xlink:href="#DejaVuSans-30"/>
       <use x="127.24609375" xlink:href="#DejaVuSans-30"/>
      </g>
     </g>
    </g>
    <g id="xtick_8">
     <g id="line2d_71">
      <g>
       <use style="stroke:#000000;stroke-linecap:butt;stroke-width:0.5;" x="224.029296875" xlink:href="#m0012dd4eef" y="246.6"/>
      </g>
     </g>
     <g id="line2d_72">
      <g>
       <use style="stroke:#000000;stroke-linecap:butt;stroke-width:0.5;" x="224.029296875" xlink:href="#m476344969c" y="167.0"/>
      </g>
     </g>
     <g id="text_16">
      <!-- 1000 -->
      <g transform="translate(212.185546875 258.021875)scale(0.1 -0.1)">
       <use xlink:href="#DejaVuSans-31"/>
       <use x="63.623046875" xlink:href="#DejaVuSans-30"/>
       <use x="127.24609375" xlink:href="#DejaVuSans-30"/>
       <use x="190.869140625" xlink:href="#DejaVuSans-30"/>
      </g>
     </g>
    </g>
    <g id="xtick_9">
     <g id="line2d_73">
      <g>
       <use style="stroke:#000000;stroke-linecap:butt;stroke-width:0.5;" x="312.985351563" xlink:href="#m0012dd4eef" y="246.6"/>
      </g>
     </g>
     <g id="line2d_74">
      <g>
       <use style="stroke:#000000;stroke-linecap:butt;stroke-width:0.5;" x="312.985351563" xlink:href="#m476344969c" y="167.0"/>
      </g>
     </g>
     <g id="text_17">
      <!-- 1500 -->
      <g transform="translate(301.141601563 258.021875)scale(0.1 -0.1)">
       <use xlink:href="#DejaVuSans-31"/>
       <use x="63.623046875" xlink:href="#DejaVuSans-35"/>
       <use x="127.24609375" xlink:href="#DejaVuSans-30"/>
       <use x="190.869140625" xlink:href="#DejaVuSans-30"/>
      </g>
     </g>
    </g>
    <g id="xtick_10">
     <g id="line2d_75">
      <g>
       <use style="stroke:#000000;stroke-linecap:butt;stroke-width:0.5;" x="401.94140625" xlink:href="#m0012dd4eef" y="246.6"/>
      </g>
     </g>
     <g id="line2d_76">
      <g>
       <use style="stroke:#000000;stroke-linecap:butt;stroke-width:0.5;" x="401.94140625" xlink:href="#m476344969c" y="167.0"/>
      </g>
     </g>
     <g id="text_18">
      <!-- 2000 -->
      <g transform="translate(389.91484375 258.021875)scale(0.1 -0.1)">
       <use xlink:href="#DejaVuSans-32"/>
       <use x="63.623046875" xlink:href="#DejaVuSans-30"/>
       <use x="127.24609375" xlink:href="#DejaVuSans-30"/>
       <use x="190.869140625" xlink:href="#DejaVuSans-30"/>
      </g>
     </g>
    </g>
    <g id="text_19">
     <!-- Time -->
     <g transform="translate(212.047265625 270.7625)scale(0.1 -0.1)">
      <use xlink:href="#DejaVuSans-54"/>
      <use x="57.958984375" xlink:href="#DejaVuSans-69"/>
      <use x="85.7421875" xlink:href="#DejaVuSans-6d"/>
      <use x="183.154296875" xlink:href="#DejaVuSans-65"/>
     </g>
    </g>
   </g>
   <g id="matplotlib.axis_4">
    <g id="ytick_7">
     <g id="line2d_77">
      <g>
       <use style="stroke:#000000;stroke-linecap:butt;stroke-width:0.5;" x="46.1171875" xlink:href="#me8a85f7bf6" y="246.6"/>
      </g>
     </g>
     <g id="line2d_78">
      <g>
       <use style="stroke:#000000;stroke-linecap:butt;stroke-width:0.5;" x="401.94140625" xlink:href="#m1a32005dea" y="246.6"/>
      </g>
     </g>
     <g id="text_20">
      <!-- 0.0 -->
      <defs>
       <path d="
M10.6875 12.4062
L21 12.4062
L21 0
L10.6875 0
z
" id="DejaVuSans-2e"/>
      </defs>
      <g transform="translate(27.5375 250.23984375)scale(0.1 -0.1)">
       <use xlink:href="#DejaVuSans-30"/>
       <use x="63.623046875" xlink:href="#DejaVuSans-2e"/>
       <use x="95.41015625" xlink:href="#DejaVuSans-30"/>
      </g>
     </g>
    </g>
    <g id="ytick_8">
     <g id="line2d_79">
      <g>
       <use style="stroke:#000000;stroke-linecap:butt;stroke-width:0.5;" x="46.1171875" xlink:href="#me8a85f7bf6" y="236.126315789"/>
      </g>
     </g>
     <g id="line2d_80">
      <g>
       <use style="stroke:#000000;stroke-linecap:butt;stroke-width:0.5;" x="401.94140625" xlink:href="#m1a32005dea" y="236.126315789"/>
      </g>
     </g>
     <g id="text_21">
      <!-- 0.5 -->
      <g transform="translate(27.746875 239.766159539)scale(0.1 -0.1)">
       <use xlink:href="#DejaVuSans-30"/>
       <use x="63.623046875" xlink:href="#DejaVuSans-2e"/>
       <use x="95.41015625" xlink:href="#DejaVuSans-35"/>
      </g>
     </g>
    </g>
    <g id="ytick_9">
     <g id="line2d_81">
      <g>
       <use style="stroke:#000000;stroke-linecap:butt;stroke-width:0.5;" x="46.1171875" xlink:href="#me8a85f7bf6" y="225.652631579"/>
      </g>
     </g>
     <g id="line2d_82">
      <g>
       <use style="stroke:#000000;stroke-linecap:butt;stroke-width:0.5;" x="401.94140625" xlink:href="#m1a32005dea" y="225.652631579"/>
      </g>
     </g>
     <g id="text_22">
      <!-- 1.0 -->
      <g transform="translate(27.9765625 229.292475329)scale(0.1 -0.1)">
       <use xlink:href="#DejaVuSans-31"/>
       <use x="63.623046875" xlink:href="#DejaVuSans-2e"/>
       <use x="95.41015625" xlink:href="#DejaVuSans-30"/>
      </g>
     </g>
    </g>
    <g id="ytick_10">
     <g id="line2d_83">
      <g>
       <use style="stroke:#000000;stroke-linecap:butt;stroke-width:0.5;" x="46.1171875" xlink:href="#me8a85f7bf6" y="215.178947368"/>
      </g>
     </g>
     <g id="line2d_84">
      <g>
       <use style="stroke:#000000;stroke-linecap:butt;stroke-width:0.5;" x="401.94140625" xlink:href="#m1a32005dea" y="215.178947368"/>
      </g>
     </g>
     <g id="text_23">
      <!-- 1.5 -->
      <g transform="translate(28.1859375 218.753166118)scale(0.1 -0.1)">
       <use xlink:href="#DejaVuSans-31"/>
       <use x="63.623046875" xlink:href="#DejaVuSans-2e"/>
       <use x="95.41015625" xlink:href="#DejaVuSans-35"/>
      </g>
     </g>
    </g>
    <g id="ytick_11">
     <g id="line2d_85">
      <g>
       <use style="stroke:#000000;stroke-linecap:butt;stroke-width:0.5;" x="46.1171875" xlink:href="#me8a85f7bf6" y="204.705263158"/>
      </g>
     </g>
     <g id="line2d_86">
      <g>
       <use style="stroke:#000000;stroke-linecap:butt;stroke-width:0.5;" x="401.94140625" xlink:href="#m1a32005dea" y="204.705263158"/>
      </g>
     </g>
     <g id="text_24">
      <!-- 2.0 -->
      <g transform="translate(27.6109375 208.345106908)scale(0.1 -0.1)">
       <use xlink:href="#DejaVuSans-32"/>
       <use x="63.623046875" xlink:href="#DejaVuSans-2e"/>
       <use x="95.41015625" xlink:href="#DejaVuSans-30"/>
      </g>
     </g>
    </g>
    <g id="ytick_12">
     <g id="line2d_87">
      <g>
       <use style="stroke:#000000;stroke-linecap:butt;stroke-width:0.5;" x="46.1171875" xlink:href="#me8a85f7bf6" y="194.231578947"/>
      </g>
     </g>
     <g id="line2d_88">
      <g>
       <use style="stroke:#000000;stroke-linecap:butt;stroke-width:0.5;" x="401.94140625" xlink:href="#m1a32005dea" y="194.231578947"/>
      </g>
     </g>
     <g id="text_25">
      <!-- 2.5 -->
      <g transform="translate(27.8203125 197.871422697)scale(0.1 -0.1)">
       <use xlink:href="#DejaVuSans-32"/>
       <use x="63.623046875" xlink:href="#DejaVuSans-2e"/>
       <use x="95.41015625" xlink:href="#DejaVuSans-35"/>
      </g>
     </g>
    </g>
    <g id="ytick_13">
     <g id="line2d_89">
      <g>
       <use style="stroke:#000000;stroke-linecap:butt;stroke-width:0.5;" x="46.1171875" xlink:href="#me8a85f7bf6" y="183.757894737"/>
      </g>
     </g>
     <g id="line2d_90">
      <g>
       <use style="stroke:#000000;stroke-linecap:butt;stroke-width:0.5;" x="401.94140625" xlink:href="#m1a32005dea" y="183.757894737"/>
      </g>
     </g>
     <g id="text_26">
      <!-- 3.0 -->
      <defs>
       <path d="
M40.5781 39.3125
Q47.6562 37.7969 51.625 33
Q55.6094 28.2188 55.6094 21.1875
Q55.6094 10.4062 48.1875 4.48438
Q40.7656 -1.42188 27.0938 -1.42188
Q22.5156 -1.42188 17.6562 -0.515625
Q12.7969 0.390625 7.625 2.20312
L7.625 11.7188
Q11.7188 9.32812 16.5938 8.10938
Q21.4844 6.89062 26.8125 6.89062
Q36.0781 6.89062 40.9375 10.5469
Q45.7969 14.2031 45.7969 21.1875
Q45.7969 27.6406 41.2812 31.2656
Q36.7656 34.9062 28.7188 34.9062
L20.2188 34.9062
L20.2188 43.0156
L29.1094 43.0156
Q36.375 43.0156 40.2344 45.9219
Q44.0938 48.8281 44.0938 54.2969
Q44.0938 59.9062 40.1094 62.9062
Q36.1406 65.9219 28.7188 65.9219
Q24.6562 65.9219 20.0156 65.0312
Q15.375 64.1562 9.8125 62.3125
L9.8125 71.0938
Q15.4375 72.6562 20.3438 73.4375
Q25.25 74.2188 29.5938 74.2188
Q40.8281 74.2188 47.3594 69.1094
Q53.9062 64.0156 53.9062 55.3281
Q53.9062 49.2656 50.4375 45.0938
Q46.9688 40.9219 40.5781 39.3125" id="DejaVuSans-33"/>
      </defs>
      <g transform="translate(27.640625 187.397738487)scale(0.1 -0.1)">
       <use xlink:href="#DejaVuSans-33"/>
       <use x="63.623046875" xlink:href="#DejaVuSans-2e"/>
       <use x="95.41015625" xlink:href="#DejaVuSans-30"/>
      </g>
     </g>
    </g>
    <g id="ytick_14">
     <g id="line2d_91">
      <g>
       <use style="stroke:#000000;stroke-linecap:butt;stroke-width:0.5;" x="46.1171875" xlink:href="#me8a85f7bf6" y="173.284210526"/>
      </g>
     </g>
     <g id="line2d_92">
      <g>
       <use style="stroke:#000000;stroke-linecap:butt;stroke-width:0.5;" x="401.94140625" xlink:href="#m1a32005dea" y="173.284210526"/>
      </g>
     </g>
     <g id="text_27">
      <!-- 3.5 -->
      <g transform="translate(27.85 176.924054276)scale(0.1 -0.1)">
       <use xlink:href="#DejaVuSans-33"/>
       <use x="63.623046875" xlink:href="#DejaVuSans-2e"/>
       <use x="95.41015625" xlink:href="#DejaVuSans-35"/>
      </g>
     </g>
    </g>
   </g>
   <g id="patch_8">
    <path d="
M46.1172 167
L401.941 167" style="fill:none;stroke:#000000;"/>
   </g>
   <g id="patch_9">
    <path d="
M401.941 246.6
L401.941 167" style="fill:none;stroke:#000000;"/>
   </g>
   <g id="patch_10">
    <path d="
M46.1172 246.6
L401.941 246.6" style="fill:none;stroke:#000000;"/>
   </g>
   <g id="patch_11">
    <path d="
M46.1172 246.6
L46.1172 167" style="fill:none;stroke:#000000;"/>
   </g>
   <g id="text_28">
    <!-- OLAP -->
    <defs>
     <path d="
M34.1875 63.1875
L20.7969 26.9062
L47.6094 26.9062
z

M28.6094 72.9062
L39.7969 72.9062
L67.5781 0
L57.3281 0
L50.6875 18.7031
L17.8281 18.7031
L11.1875 0
L0.78125 0
z
" id="DejaVuSans-41"/>
    </defs>
    <g transform="translate(208.646796875 162.0)scale(0.12 -0.12)">
     <use xlink:href="#DejaVuSans-4f"/>
     <use x="78.7109375" xlink:href="#DejaVuSans-4c"/>
     <use x="136.673828125" xlink:href="#DejaVuSans-41"/>
     <use x="205.08203125" xlink:href="#DejaVuSans-50"/>
    </g>
   </g>
  </g>
  <g id="text_29">
   <!-- 1 OLTP workers -->
   <defs>
    <path d="
M30.6094 48.3906
Q23.3906 48.3906 19.1875 42.75
Q14.9844 37.1094 14.9844 27.2969
Q14.9844 17.4844 19.1562 11.8438
Q23.3438 6.20312 30.6094 6.20312
Q37.7969 6.20312 41.9844 11.8594
Q46.1875 17.5312 46.1875 27.2969
Q46.1875 37.0156 41.9844 42.7031
Q37.7969 48.3906 30.6094 48.3906
M30.6094 56
Q42.3281 56 49.0156 48.375
Q55.7188 40.7656 55.7188 27.2969
Q55.7188 13.875 49.0156 6.21875
Q42.3281 -1.42188 30.6094 -1.42188
Q18.8438 -1.42188 12.1719 6.21875
Q5.51562 13.875 5.51562 27.2969
Q5.51562 40.7656 12.1719 48.375
Q18.8438 56 30.6094 56" id="DejaVuSans-6f"/>
    <path d="
M9.07812 75.9844
L18.1094 75.9844
L18.1094 31.1094
L44.9219 54.6875
L56.3906 54.6875
L27.3906 29.1094
L57.625 0
L45.9062 0
L18.1094 26.7031
L18.1094 0
L9.07812 0
z
" id="DejaVuSans-6b"/>
    <path id="DejaVuSans-20"/>
    <path d="
M4.20312 54.6875
L13.1875 54.6875
L24.4219 12.0156
L35.5938 54.6875
L46.1875 54.6875
L57.4219 12.0156
L68.6094 54.6875
L77.5938 54.6875
L63.2812 0
L52.6875 0
L40.9219 44.8281
L29.1094 0
L18.5 0
z
" id="DejaVuSans-77"/>
    <path d="
M44.2812 53.0781
L44.2812 44.5781
Q40.4844 46.5312 36.375 47.5
Q32.2812 48.4844 27.875 48.4844
Q21.1875 48.4844 17.8438 46.4375
Q14.5 44.3906 14.5 40.2812
Q14.5 37.1562 16.8906 35.375
Q19.2812 33.5938 26.5156 31.9844
L29.5938 31.2969
Q39.1562 29.25 43.1875 25.5156
Q47.2188 21.7812 47.2188 15.0938
Q47.2188 7.46875 41.1875 3.01562
Q35.1562 -1.42188 24.6094 -1.42188
Q20.2188 -1.42188 15.4531 -0.5625
Q10.6875 0.296875 5.42188 2
L5.42188 11.2812
Q10.4062 8.6875 15.2344 7.39062
Q20.0625 6.10938 24.8125 6.10938
Q31.1562 6.10938 34.5625 8.28125
Q37.9844 10.4531 37.9844 14.4062
Q37.9844 18.0625 35.5156 20.0156
Q33.0625 21.9688 24.7031 23.7812
L21.5781 24.5156
Q13.2344 26.2656 9.51562 29.9062
Q5.8125 33.5469 5.8125 39.8906
Q5.8125 47.6094 11.2812 51.7969
Q16.75 56 26.8125 56
Q31.7812 56 36.1719 55.2656
Q40.5781 54.5469 44.2812 53.0781" id="DejaVuSans-73"/>
    <path d="
M41.1094 46.2969
Q39.5938 47.1719 37.8125 47.5781
Q36.0312 48 33.8906 48
Q26.2656 48 22.1875 43.0469
Q18.1094 38.0938 18.1094 28.8125
L18.1094 0
L9.07812 0
L9.07812 54.6875
L18.1094 54.6875
L18.1094 46.1875
Q20.9531 51.1719 25.4844 53.5781
Q30.0312 56 36.5312 56
Q37.4531 56 38.5781 55.875
Q39.7031 55.7656 41.0625 55.5156
z
" id="DejaVuSans-72"/>
   </defs>
   <g transform="translate(178.1265625 13.3584375)scale(0.1 -0.1)">
    <use xlink:href="#DejaVuSans-31"/>
    <use x="63.623046875" xlink:href="#DejaVuSans-20"/>
    <use x="95.41015625" xlink:href="#DejaVuSans-4f"/>
    <use x="174.12109375" xlink:href="#DejaVuSans-4c"/>
    <use x="216.083984375" xlink:href="#DejaVuSans-54"/>
    <use x="277.16796875" xlink:href="#DejaVuSans-50"/>
    <use x="337.470703125" xlink:href="#DejaVuSans-20"/>
    <use x="369.2578125" xlink:href="#DejaVuSans-77"/>
    <use x="451.044921875" xlink:href="#DejaVuSans-6f"/>
    <use x="512.2265625" xlink:href="#DejaVuSans-72"/>
    <use x="553.33984375" xlink:href="#DejaVuSans-6b"/>
    <use x="607.625" xlink:href="#DejaVuSans-65"/>
    <use x="669.1484375" xlink:href="#DejaVuSans-72"/>
    <use x="710.26171875" xlink:href="#DejaVuSans-73"/>
   </g>
  </g>
 </g>
 <defs>
  <clipPath id="pe9bd9c4693">
   <rect height="79.6" width="355.82421875" x="46.1171875" y="167.0"/>
  </clipPath>
  <clipPath id="paafe9ad165">
   <rect height="79.6" width="355.82421875" x="46.1171875" y="32.0"/>
  </clipPath>
 </defs>
</svg>
