<?xml version="1.0" encoding="utf-8" standalone="no"?>
<!DOCTYPE svg PUBLIC "-//W3C//DTD SVG 1.1//EN"
  "http://www.w3.org/Graphics/SVG/1.1/DTD/svg11.dtd">
<!-- Created with matplotlib (http://matplotlib.sourceforge.net/) -->
<svg height="288pt" version="1.1" viewBox="0 0 432 288" width="432pt" xmlns="http://www.w3.org/2000/svg" xmlns:xlink="http://www.w3.org/1999/xlink">
 <defs>
  <style type="text/css">
*{stroke-linecap:square;stroke-linejoin:round;}
  </style>
 </defs>
 <g id="figure_1">
  <g id="patch_1">
   <path d="
M0 288
L432 288
L432 0
L0 0
z
" style="fill:#ffffff;"/>
  </g>
  <g id="axes_1">
   <g id="patch_2">
    <path d="
M46.1172 111.6
L401.941 111.6
L401.941 32
L46.1172 32
z
" style="fill:#ffffff;"/>
   </g>
   <g id="line2d_1">
    <path clip-path="url(#paafe9ad165)" d="
M56.7921 111.6
L56.7921 32" style="fill:none;stroke:#00ffff;stroke-dasharray:6.000000,6.000000;stroke-dashoffset:0.0;stroke-linecap:butt;"/>
   </g>
   <g id="line2d_2">
    <path clip-path="url(#paafe9ad165)" d="
M78.1418 111.6
L78.1418 32" style="fill:none;stroke:#00ffff;stroke-dasharray:6.000000,6.000000;stroke-dashoffset:0.0;stroke-linecap:butt;"/>
   </g>
   <g id="line2d_3">
    <path clip-path="url(#paafe9ad165)" d="
M78.1421 111.6
L78.1421 32" style="fill:none;stroke:#00ffff;stroke-dasharray:6.000000,6.000000;stroke-dashoffset:0.0;stroke-linecap:butt;"/>
   </g>
   <g id="line2d_4">
    <path clip-path="url(#paafe9ad165)" d="
M78.1426 111.6
L78.1426 32" style="fill:none;stroke:#00ffff;stroke-dasharray:6.000000,6.000000;stroke-dashoffset:0.0;stroke-linecap:butt;"/>
   </g>
   <g id="line2d_5">
    <path clip-path="url(#paafe9ad165)" d="
M99.491 111.6
L99.491 32" style="fill:none;stroke:#00ffff;stroke-dasharray:6.000000,6.000000;stroke-dashoffset:0.0;stroke-linecap:butt;"/>
   </g>
   <g id="line2d_6">
    <path clip-path="url(#paafe9ad165)" d="
M99.491 111.6
L99.491 32" style="fill:none;stroke:#00ffff;stroke-dasharray:6.000000,6.000000;stroke-dashoffset:0.0;stroke-linecap:butt;"/>
   </g>
   <g id="line2d_7">
    <path clip-path="url(#paafe9ad165)" d="
M99.491 111.6
L99.491 32" style="fill:none;stroke:#00ffff;stroke-dasharray:6.000000,6.000000;stroke-dashoffset:0.0;stroke-linecap:butt;"/>
   </g>
   <g id="line2d_8">
    <path clip-path="url(#paafe9ad165)" d="
M120.84 111.6
L120.84 32" style="fill:none;stroke:#00ffff;stroke-dasharray:6.000000,6.000000;stroke-dashoffset:0.0;stroke-linecap:butt;"/>
   </g>
   <g id="line2d_9">
    <path clip-path="url(#paafe9ad165)" d="
M120.841 111.6
L120.841 32" style="fill:none;stroke:#00ffff;stroke-dasharray:6.000000,6.000000;stroke-dashoffset:0.0;stroke-linecap:butt;"/>
   </g>
   <g id="line2d_10">
    <path clip-path="url(#paafe9ad165)" d="
M142.19 111.6
L142.19 32" style="fill:none;stroke:#00ffff;stroke-dasharray:6.000000,6.000000;stroke-dashoffset:0.0;stroke-linecap:butt;"/>
   </g>
   <g id="line2d_11">
    <path clip-path="url(#paafe9ad165)" d="
M142.19 111.6
L142.19 32" style="fill:none;stroke:#00ffff;stroke-dasharray:6.000000,6.000000;stroke-dashoffset:0.0;stroke-linecap:butt;"/>
   </g>
   <g id="line2d_12">
    <path clip-path="url(#paafe9ad165)" d="
M163.539 111.6
L163.539 32" style="fill:none;stroke:#00ffff;stroke-dasharray:6.000000,6.000000;stroke-dashoffset:0.0;stroke-linecap:butt;"/>
   </g>
   <g id="line2d_13">
    <path clip-path="url(#paafe9ad165)" d="
M163.54 111.6
L163.54 32" style="fill:none;stroke:#00ffff;stroke-dasharray:6.000000,6.000000;stroke-dashoffset:0.0;stroke-linecap:butt;"/>
   </g>
   <g id="line2d_14">
    <path clip-path="url(#paafe9ad165)" d="
M184.889 111.6
L184.889 32" style="fill:none;stroke:#00ffff;stroke-dasharray:6.000000,6.000000;stroke-dashoffset:0.0;stroke-linecap:butt;"/>
   </g>
   <g id="line2d_15">
    <path clip-path="url(#paafe9ad165)" d="
M206.238 111.6
L206.238 32" style="fill:none;stroke:#00ffff;stroke-dasharray:6.000000,6.000000;stroke-dashoffset:0.0;stroke-linecap:butt;"/>
   </g>
   <g id="line2d_16">
    <path clip-path="url(#paafe9ad165)" d="
M206.239 111.6
L206.239 32" style="fill:none;stroke:#00ffff;stroke-dasharray:6.000000,6.000000;stroke-dashoffset:0.0;stroke-linecap:butt;"/>
   </g>
   <g id="line2d_17">
    <path clip-path="url(#paafe9ad165)" d="
M227.588 111.6
L227.588 32" style="fill:none;stroke:#00ffff;stroke-dasharray:6.000000,6.000000;stroke-dashoffset:0.0;stroke-linecap:butt;"/>
   </g>
   <g id="line2d_18">
    <path clip-path="url(#paafe9ad165)" d="
M248.937 111.6
L248.937 32" style="fill:none;stroke:#00ffff;stroke-dasharray:6.000000,6.000000;stroke-dashoffset:0.0;stroke-linecap:butt;"/>
   </g>
   <g id="line2d_19">
    <path clip-path="url(#paafe9ad165)" d="
M270.287 111.6
L270.287 32" style="fill:none;stroke:#00ffff;stroke-dasharray:6.000000,6.000000;stroke-dashoffset:0.0;stroke-linecap:butt;"/>
   </g>
   <g id="line2d_20">
    <path clip-path="url(#paafe9ad165)" d="
M270.287 111.6
L270.287 32" style="fill:none;stroke:#00ffff;stroke-dasharray:6.000000,6.000000;stroke-dashoffset:0.0;stroke-linecap:butt;"/>
   </g>
   <g id="line2d_21">
    <path clip-path="url(#paafe9ad165)" d="
M270.287 111.6
L270.287 32" style="fill:none;stroke:#00ffff;stroke-dasharray:6.000000,6.000000;stroke-dashoffset:0.0;stroke-linecap:butt;"/>
   </g>
   <g id="line2d_22">
    <path clip-path="url(#paafe9ad165)" d="
M291.637 111.6
L291.637 32" style="fill:none;stroke:#00ffff;stroke-dasharray:6.000000,6.000000;stroke-dashoffset:0.0;stroke-linecap:butt;"/>
   </g>
   <g id="line2d_23">
    <path clip-path="url(#paafe9ad165)" d="
M312.986 111.6
L312.986 32" style="fill:none;stroke:#00ffff;stroke-dasharray:6.000000,6.000000;stroke-dashoffset:0.0;stroke-linecap:butt;"/>
   </g>
   <g id="line2d_24">
    <path clip-path="url(#paafe9ad165)" d="
M334.335 111.6
L334.335 32" style="fill:none;stroke:#00ffff;stroke-dasharray:6.000000,6.000000;stroke-dashoffset:0.0;stroke-linecap:butt;"/>
   </g>
   <g id="line2d_25">
    <path clip-path="url(#paafe9ad165)" d="
M355.685 111.6
L355.685 32" style="fill:none;stroke:#00ffff;stroke-dasharray:6.000000,6.000000;stroke-dashoffset:0.0;stroke-linecap:butt;"/>
   </g>
   <g id="line2d_26">
    <path clip-path="url(#paafe9ad165)" d="
M377.034 111.6
L377.034 32" style="fill:none;stroke:#00ffff;stroke-dasharray:6.000000,6.000000;stroke-dashoffset:0.0;stroke-linecap:butt;"/>
   </g>
   <g id="line2d_27">
    <path clip-path="url(#paafe9ad165)" d="
M46.1172 60.7138
L46.1172 43.7903
L46.7043 43.7903
L46.7043 42.729
L47.2914 42.729
L47.2914 33.0805
L47.8785 33.0805
L47.8785 34.3252
L48.4656 34.3252
L48.4656 25.1301
L49.0527 25.1301
L49.0527 23.0847
L49.6398 23.0847
L49.6398 27.3589
L50.227 27.3589
L50.227 23.8179
L50.8141 23.8179
L50.8141 34.7593
L51.4012 34.7593
L51.4012 23.9723
L51.9883 23.9723
L51.9883 24.6091
L52.5754 24.6091
L52.5754 24.3872
L53.1625 24.3872
L53.1625 46.9551
L53.7496 46.9551
L53.7496 40.8668
L54.3367 40.8668
L54.3367 24.3583
L54.9238 24.3583
L54.9238 25.7669
L55.5109 25.7669
L55.5109 24.5802
L56.098 24.5802
L56.098 58.7166
L56.6852 58.7166
L56.6852 42.7869
L57.2723 42.7869
L57.2723 36.197
L57.8594 36.197
L57.8594 43.8675
L58.4465 43.8675
L58.4465 36.3224
L59.0336 36.3224
L59.0336 24.9565
L59.6207 24.9565
L59.6207 41.9668
L60.2078 41.9668
L60.2078 39.6415
L60.7949 39.6415
L60.7949 41.33
L61.382 41.33
L61.382 40.1432
L61.9691 40.1432
L61.9691 46.7717
L62.5562 46.7717
L62.5562 24.3293
L63.1434 24.3293
L63.1434 32.4823
L63.7305 32.4823
L63.7305 35.9461
L64.3176 35.9461
L64.3176 35.2321
L64.9047 35.2321
L64.9047 40.944
L65.4918 40.944
L65.4918 33.1577
L66.0789 33.1577
L66.0789 30.8903
L66.666 30.8903
L66.666 34.055
L67.2531 34.055
L67.2531 36.9303
L67.8402 36.9303
L67.8402 30.1377
L68.4273 30.1377
L68.4273 35.8207
L69.0144 35.8207
L69.0144 37.1232
L69.6015 37.1232
L69.6015 35.4251
L70.1887 35.4251
L70.1887 38.4065
L70.7758 38.4065
L70.7758 43.2404
L71.3629 43.2404
L71.3629 45.5946
L71.95 45.5946
L71.95 33.1095
L72.5371 33.1095
L72.5371 34.933
L73.1242 34.933
L73.1242 39.1784
L73.7113 39.1784
L73.7113 23.1329
L74.2984 23.1329
L74.2984 28.8448
L74.8855 28.8448
L74.8855 30.0219
L75.4726 30.0219
L75.4726 29.6553
L76.0597 29.6553
L76.0597 32.106
L76.6469 32.106
L76.6469 29.2983
L77.234 29.2983
L77.234 63.5987
L77.8211 63.5987
L77.8211 52.1363
L78.4082 52.1363
L78.4082 41.3107
L78.9953 41.3107
L78.9953 49.4347
L79.5824 49.4347
L79.5824 56.0922
L80.1695 56.0922
L80.1695 51.8565
L80.7566 51.8565
L80.7566 45.199
L81.3437 45.199
L81.3437 47.7173
L81.9308 47.7173
L81.9308 48.5374
L82.5179 48.5374
L82.5179 51.2583
L83.1051 51.2583
L83.1051 52.831
L83.6922 52.831
L83.6922 49.975
L84.2793 49.975
L84.2793 38.638
L84.8664 38.638
L84.8664 45.1508
L85.4535 45.1508
L85.4535 36.2838
L86.0406 36.2838
L86.0406 35.0585
L86.6277 35.0585
L86.6277 42.7676
L87.2148 42.7676
L87.2148 51.239
L87.8019 51.239
L87.8019 49.8592
L88.389 49.8592
L88.389 50.6215
L88.9761 50.6215
L88.9761 43.0667
L89.5633 43.0667
L89.5633 56.1887
L90.1504 56.1887
L90.1504 52.5126
L90.7375 52.5126
L90.7375 40.1722
L91.3246 40.1722
L91.3246 45.2183
L91.9117 45.2183
L91.9117 62.4891
L92.4988 62.4891
L92.4988 54.5388
L93.0859 54.5388
L93.0859 66.2038
L93.673 66.2038
L93.673 57.8482
L94.2601 57.8482
L94.2601 55.8413
L94.8472 55.8413
L94.8472 59.5946
L95.4343 59.5946
L95.4343 60.9936
L96.0215 60.9936
L96.0215 57.5105
L96.6086 57.5105
L96.6086 52.0302
L97.1957 52.0302
L97.1957 63.8592
L97.7828 63.8592
L97.7828 58.7841
L98.3699 58.7841
L98.3699 61.9874
L98.957 61.9874
L98.957 50.3417
L99.5441 50.3417
L99.5441 48.8944
L100.131 48.8944
L100.131 62.9137
L100.718 62.9137
L100.718 68.0081
L101.305 68.0081
L101.305 62.9523
L101.893 62.9523
L101.893 71.742
L102.48 71.742
L102.48 68.5484
L103.067 68.5484
L103.067 71.4622
L103.654 71.4622
L103.654 77.2996
L104.241 77.2996
L104.241 58.2341
L104.828 58.2341
L104.828 60.5594
L105.415 60.5594
L105.415 63.9461
L106.002 63.9461
L106.002 66.0012
L106.589 66.0012
L106.589 68.8282
L107.177 68.8282
L107.177 66.2135
L107.764 66.2135
L107.764 58.0122
L108.351 58.0122
L108.351 57.2404
L108.938 57.2404
L108.938 54.7028
L109.525 54.7028
L109.525 66.4933
L110.112 66.4933
L110.112 69.5036
L110.699 69.5036
L110.699 72.842
L111.286 72.842
L111.286 90.3926
L111.873 90.3926
L111.873 60.1446
L112.461 60.1446
L112.461 59.6814
L113.048 59.6814
L113.048 60.2507
L113.635 60.2507
L113.635 59.4692
L114.222 59.4692
L114.222 63.5505
L114.809 63.5505
L114.809 64.8241
L115.396 64.8241
L115.396 64.5925
L115.983 64.5925
L115.983 59.5367
L116.57 59.5367
L116.57 61.7751
L117.744 61.8234
L117.744 60.2796
L118.332 60.2796
L118.332 62.5084
L118.919 62.5084
L118.919 59.1893
L119.506 59.1893
L119.506 68.4423
L120.093 68.4423
L120.093 82.6738
L120.68 82.6738
L120.68 65.1039
L121.267 65.1039
L121.267 65.567
L121.854 65.567
L121.854 70.7965
L122.441 70.7965
L122.441 77.8881
L123.028 77.8881
L123.028 81.2941
L123.616 81.2941
L123.616 81.7861
L124.203 81.7861
L124.203 81.0239
L124.79 81.0239
L124.79 78.3899
L125.377 78.3899
L125.377 82.8764
L125.964 82.8764
L125.964 60.5884
L126.551 60.5884
L126.551 53.7958
L127.138 53.7958
L127.138 52.5319
L127.725 52.5319
L127.725 62.3637
L128.312 62.3637
L128.312 33.3893
L128.9 33.3893
L128.9 50.882
L129.487 50.882
L129.487 58.8517
L130.074 58.8517
L130.074 52.2135
L130.661 52.2135
L130.661 60.4822
L131.248 60.4822
L131.248 66.3968
L131.835 66.3968
L131.835 68.5677
L132.422 68.5677
L132.422 64.8241
L133.009 64.8241
L133.009 65.0653
L133.596 65.0653
L133.596 67.5257
L134.184 67.5257
L134.184 71.4429
L134.771 71.4429
L134.771 73.4305
L135.358 73.4305
L135.358 71.607
L135.945 71.607
L135.945 73.2569
L136.532 73.2569
L136.532 74.8585
L137.119 74.8585
L137.119 76.0839
L137.706 76.0839
L137.706 77.4926
L138.293 77.4926
L138.293 77.7531
L138.88 77.7531
L138.88 80.0012
L139.468 80.0012
L139.468 77.1066
L140.055 77.1066
L140.055 81.2458
L140.642 81.2458
L140.642 78.3416
L141.229 78.3416
L141.229 87.6138
L141.816 87.6138
L141.816 88.5401
L142.403 88.5401
L142.403 81.1686
L142.99 81.1686
L142.99 70.0632
L143.577 70.0632
L143.577 70.4299
L144.164 70.4299
L144.164 53.7379
L144.752 53.7379
L144.752 66.5608
L145.339 66.5608
L145.339 68.6352
L145.926 68.6352
L145.926 73.334
L146.513 73.334
L146.513 72.6201
L147.687 72.5815
L147.687 74.0673
L148.274 74.0673
L148.274 74.8875
L148.861 74.8875
L148.861 76.547
L149.448 76.547
L149.448 78.5732
L150.035 78.5732
L150.035 80.773
L150.623 80.773
L150.623 82.0852
L151.21 82.0852
L151.21 81.5642
L151.797 81.5642
L151.797 83.3106
L152.384 83.3106
L152.384 84.0728
L152.971 84.0728
L152.971 84.3333
L153.558 84.3333
L153.558 85.906
L154.145 85.906
L154.145 85.4236
L154.732 85.4236
L154.732 86.5814
L155.319 86.5814
L155.319 88.0094
L155.907 88.0094
L155.907 88.4629
L156.494 88.4629
L156.494 80.7441
L157.081 80.7441
L157.081 74.9646
L157.668 74.9646
L157.668 77.1066
L158.255 77.1066
L158.255 77.6083
L158.842 77.6083
L158.842 79.6924
L159.429 79.6924
L159.429 80.7344
L160.016 80.7344
L160.016 81.9695
L160.603 81.9695
L160.603 81.6511
L161.191 81.6511
L161.191 83.1659
L161.778 83.1659
L161.778 84.8061
L162.365 84.8061
L162.365 84.9508
L162.952 84.9508
L162.952 91.4057
L163.539 91.4057
L163.539 77.1549
L164.126 77.1549
L164.126 63.1645
L164.713 63.1645
L164.713 70.0729
L165.3 70.0729
L165.3 79.3644
L165.887 79.3644
L165.887 81.4098
L166.475 81.4098
L166.475 80.8695
L167.062 80.8695
L167.062 83.4167
L167.649 83.4167
L167.649 83.7737
L168.236 83.7737
L168.236 83.2913
L168.823 83.2913
L168.823 84.4684
L169.41 84.4684
L169.41 86.263
L169.997 86.263
L169.997 86.5235
L170.584 86.5235
L170.584 88.1927
L171.171 88.1927
L171.171 86.4271
L172.346 86.485
L172.346 86.7165
L172.933 86.7165
L172.933 88.0963
L173.52 88.0963
L173.52 76.5181
L174.107 76.5181
L174.107 85.3561
L174.694 85.3561
L174.694 58.3017
L175.281 58.3017
L175.281 44.4754
L175.868 44.4754
L175.868 54.5002
L176.455 54.5002
L176.455 64.0136
L177.043 64.0136
L177.043 71.6263
L177.63 71.6263
L177.63 77.589
L178.217 77.589
L178.217 76.1514
L178.804 76.1514
L178.804 77.9557
L179.391 77.9557
L179.391 73.5849
L179.978 73.5849
L179.978 66.5512
L180.565 66.5512
L180.565 68.0081
L181.152 68.0081
L181.152 64.6697
L181.739 64.6697
L181.739 33.37
L182.326 33.37
L182.326 47.3603
L182.914 47.3603
L182.914 61.3699
L183.501 61.3699
L183.501 74.0577
L184.088 74.0577
L184.088 78.3995
L184.675 78.3995
L184.675 65.8565
L185.262 65.8565
L185.262 68.944
L185.849 68.944
L185.849 72.5622
L186.436 72.5622
L186.436 71.2693
L187.023 71.2693
L187.023 70.2176
L187.61 70.2176
L187.61 78.8916
L188.198 78.8916
L188.198 81.3905
L188.785 81.3905
L188.785 86.1376
L189.372 86.1376
L189.372 86.292
L189.959 86.292
L189.959 88.7138
L190.546 88.7138
L190.546 89.4181
L191.133 89.4181
L191.133 88.5401
L191.72 88.5401
L191.72 89.0225
L192.307 89.0225
L192.307 88.8102
L192.894 88.8102
L192.894 90.8847
L193.482 90.8847
L193.482 89.8137
L194.069 89.8137
L194.069 90.0356
L194.656 90.0356
L194.656 92.0521
L195.243 92.0521
L195.243 91.2996
L196.417 91.3478
L196.417 92.2258
L197.591 92.2837
L197.591 93.345
L198.178 93.345
L198.178 93.0942
L198.766 93.0942
L198.766 93.7599
L199.353 93.7599
L199.353 94.6958
L199.94 94.6958
L199.94 93.8468
L200.527 93.8468
L200.527 95.516
L201.114 95.516
L201.114 91.3478
L201.701 91.3478
L201.701 94.0976
L202.288 94.0976
L202.288 91.9846
L203.462 91.9653
L203.462 92.2065
L204.637 92.2162
L204.637 89.2541
L205.224 89.2541
L205.224 90.7013
L205.811 90.7013
L205.811 87.691
L206.398 87.691
L206.398 84.7
L206.985 84.7
L206.985 85.1149
L207.572 85.1149
L207.572 90.6049
L208.159 90.6049
L208.159 86.8034
L208.746 86.8034
L208.746 85.3175
L209.921 85.3078
L209.921 81.5835
L210.508 81.5835
L210.508 87.1989
L211.095 87.1989
L211.095 79.6924
L211.682 79.6924
L211.682 82.6159
L212.269 82.6159
L212.269 83.3588
L212.856 83.3588
L212.856 85.221
L213.443 85.221
L213.443 84.7193
L214.03 84.7193
L214.03 89.7558
L214.617 89.7558
L214.617 91.6276
L215.205 91.6276
L215.205 90.6917
L215.792 90.6917
L215.792 89.9391
L216.379 89.9391
L216.379 91.8881
L216.966 91.8881
L216.966 92.0328
L217.553 92.0328
L217.553 90.8171
L218.14 90.8171
L218.14 87.6814
L218.727 87.6814
L218.727 88.5015
L219.314 88.5015
L219.314 88.2699
L219.901 88.2699
L219.901 85.7903
L220.489 85.7903
L220.489 88.077
L221.663 88.1541
L221.663 90.6435
L222.25 90.6435
L222.25 88.5497
L222.837 88.5497
L222.837 89.0997
L223.424 89.0997
L223.424 89.6497
L224.011 89.6497
L224.011 91.5697
L224.598 91.5697
L224.598 92.6021
L225.185 92.6021
L225.185 90.7978
L226.36 90.8461
L226.36 92.467
L226.947 92.467
L226.947 91.9557
L227.534 91.9557
L227.534 79.1617
L228.121 79.1617
L228.121 81.1783
L228.708 81.1783
L228.708 84.2465
L229.295 84.2465
L229.295 83.8799
L229.882 83.8799
L229.882 86.1666
L230.469 86.1666
L230.469 87.527
L231.057 87.527
L231.057 89.0225
L231.644 89.0225
L231.644 89.283
L232.231 89.283
L232.231 89.447
L232.818 89.447
L232.818 89.9391
L233.405 89.9391
L233.405 90.7496
L233.992 90.7496
L233.992 88.7716
L234.579 88.7716
L234.579 88.9936
L235.166 88.9936
L235.166 89.6593
L235.753 89.6593
L235.753 85.6069
L236.341 85.6069
L236.341 81.6125
L237.515 81.5932
L237.515 78.6793
L238.102 78.6793
L238.102 79.1135
L238.689 79.1135
L238.689 83.2817
L239.276 83.2817
L239.276 84.314
L239.863 84.314
L239.863 89.833
L240.45 89.833
L240.45 81.9598
L241.037 81.9598
L241.037 89.1286
L241.625 89.1286
L241.625 86.2051
L242.212 86.2051
L242.212 85.2499
L242.799 85.2499
L242.799 91.6276
L243.386 91.6276
L243.386 90.4312
L243.973 90.4312
L243.973 88.2892
L244.56 88.2892
L244.56 89.4953
L245.147 89.4953
L245.147 88.8585
L245.734 88.8585
L245.734 98.0439
L246.321 98.0439
L246.321 93.2871
L246.908 93.2871
L246.908 83.822
L247.496 83.822
L247.496 83.4746
L248.083 83.4746
L248.083 86.4464
L248.67 86.4464
L248.67 87.3437
L249.257 87.3437
L249.257 86.2244
L250.431 86.1569
L250.431 67.7283
L251.018 67.7283
L251.018 61.4374
L251.605 61.4374
L251.605 68.9536
L252.192 68.9536
L252.192 64.853
L252.78 64.853
L252.78 59.9902
L253.367 59.9902
L253.367 62.1032
L253.954 62.1032
L253.954 62.4698
L254.541 62.4698
L254.541 65.731
L255.128 65.731
L255.128 66.638
L255.715 66.638
L255.715 65.7117
L256.302 65.7117
L256.302 66.9178
L256.889 66.9178
L256.889 69.7255
L257.476 69.7255
L257.476 70.0343
L258.064 70.0343
L258.064 73.1314
L258.651 73.1314
L258.651 71.935
L259.238 71.935
L259.238 73.7007
L259.825 73.7007
L259.825 73.2472
L260.412 73.2472
L260.412 75.3506
L260.999 75.3506
L260.999 75.7269
L262.173 75.6786
L262.173 77.8013
L262.76 77.8013
L262.76 78.7372
L263.348 78.7372
L263.348 80.4932
L263.935 80.4932
L263.935 83.4746
L264.522 83.4746
L264.522 82.8089
L265.109 82.8089
L265.109 83.2913
L265.696 83.2913
L265.696 83.6965
L266.283 83.6965
L266.283 82.1914
L266.87 82.1914
L266.87 84.4009
L267.457 84.4009
L267.457 82.8571
L268.044 82.8571
L268.044 85.6648
L268.632 85.6648
L268.632 87.1025
L269.219 87.1025
L269.219 88.5401
L269.806 88.5401
L269.806 88.8971
L270.393 88.8971
L270.393 89.5821
L270.98 89.5821
L270.98 88.212
L271.567 88.212
L271.567 87.6814
L272.154 87.6814
L272.154 90.4891
L272.741 90.4891
L272.741 90.1224
L273.915 90.19
L273.915 83.0018
L274.503 83.0018
L274.503 74.4822
L275.09 74.4822
L275.09 71.8771
L275.677 71.8771
L275.677 74.4243
L276.264 74.4243
L276.264 74.8971
L276.851 74.8971
L276.851 77.7048
L278.025 77.782
L278.025 80.773
L278.612 80.773
L278.612 79.9529
L279.199 79.9529
L279.199 82.6738
L279.787 82.6738
L279.787 85.771
L280.374 85.771
L280.374 86.1762
L280.961 86.1762
L280.961 87.0735
L281.548 87.0735
L281.548 85.0184
L282.135 85.0184
L282.135 85.2596
L282.722 85.2596
L282.722 84.3526
L283.309 84.3526
L283.309 86.1666
L283.896 86.1666
L283.896 87.1121
L284.483 87.1121
L284.483 87.3051
L285.071 87.3051
L285.071 87.7779
L285.658 87.7779
L285.658 88.7427
L286.245 88.7427
L286.245 90.3154
L286.832 90.3154
L286.832 88.6945
L287.419 88.6945
L287.419 93.4319
L288.006 93.4319
L288.006 111.368
L288.593 111.368
L288.593 90.6049
L289.18 90.6049
L289.18 87.6042
L289.767 87.6042
L289.767 86.3113
L290.355 86.3113
L290.355 87.2568
L291.529 87.1989
L291.529 89.4085
L292.116 89.4085
L292.116 90.547
L292.703 90.547
L292.703 91.7048
L293.29 91.7048
L293.29 86.4271
L293.877 86.4271
L293.877 91.068
L294.464 91.068
L294.464 111.6
L295.051 111.6
L295.051 94.6572
L295.639 94.6572
L295.639 85.5973
L296.226 85.5973
L296.226 84.3237
L296.813 84.3237
L296.813 86.3692
L297.4 86.3692
L297.4 94.4643
L297.987 94.4643
L297.987 111.069
L298.574 111.069
L298.574 86.3788
L299.748 86.292
L299.748 85.8578
L300.335 85.8578
L300.335 84.6131
L300.923 84.6131
L300.923 88.241
L301.51 88.241
L301.51 89.2927
L302.097 89.2927
L302.097 84.9991
L302.684 84.9991
L302.684 79.0942
L303.271 79.0942
L303.271 81.0721
L303.858 81.0721
L303.858 83.2817
L304.445 83.2817
L304.445 90.2768
L305.032 90.2768
L305.032 83.9956
L305.619 83.9956
L305.619 89.0418
L306.206 89.0418
L306.206 103.013
L306.794 103.013
L306.794 81.9695
L307.381 81.9695
L307.381 84.179
L307.968 84.179
L307.968 87.3533
L308.555 87.3533
L308.555 84.0632
L309.142 84.0632
L309.142 87.7296
L309.729 87.7296
L309.729 86.0604
L310.316 86.0604
L310.316 86.7262
L310.903 86.7262
L310.903 87.5945
L311.49 87.5945
L311.49 87.8743
L312.078 87.8743
L312.078 87.3533
L312.665 87.3533
L312.665 89.2251
L313.252 89.2251
L313.252 86.9577
L313.839 86.9577
L313.839 82.944
L314.426 82.944
L314.426 92.496
L315.013 92.496
L315.013 87.1989
L315.6 87.1989
L315.6 81.9309
L316.187 81.9309
L316.187 85.6938
L316.774 85.6938
L316.774 87.2954
L317.362 87.2954
L317.362 85.1052
L317.949 85.1052
L317.949 85.5876
L318.536 85.5876
L318.536 90.0935
L319.71 90.1031
L319.71 89.8619
L320.297 89.8619
L320.297 91.261
L320.884 91.261
L320.884 89.312
L321.471 89.312
L321.471 91.3382
L322.058 91.3382
L322.058 91.9653
L322.646 91.9653
L322.646 89.5532
L323.233 89.5532
L323.233 98.1982
L323.82 98.1982
L323.82 111.108
L324.407 111.108
L324.407 95.13
L324.994 95.13
L324.994 86.3113
L325.581 86.3113
L325.581 85.4912
L326.168 85.4912
L326.168 86.7069
L326.755 86.7069
L326.755 85.9639
L327.342 85.9639
L327.342 88.9164
L327.93 88.9164
L327.93 90.9812
L328.517 90.9812
L328.517 88.9646
L329.104 88.9646
L329.104 90.354
L329.691 90.354
L329.691 87.8647
L330.278 87.8647
L330.278 86.3595
L330.865 86.3595
L330.865 91.1741
L331.452 91.1741
L331.452 88.1252
L332.039 88.1252
L332.039 89.9391
L332.626 89.9391
L332.626 99.8674
L333.214 99.8674
L333.214 84.5938
L334.388 84.4974
L334.388 88.6945
L334.975 88.6945
L334.975 87.1314
L335.562 87.1314
L335.562 86.2148
L336.149 86.2148
L336.149 91.7723
L336.736 91.7723
L336.736 84.8737
L337.323 84.8737
L337.323 87.2375
L337.91 87.2375
L337.91 90.8943
L338.497 90.8943
L338.497 88.4243
L339.085 88.4243
L339.085 90.5856
L339.672 90.5856
L339.672 89.3023
L340.259 89.3023
L340.259 91.3285
L340.846 91.3285
L340.846 89.5049
L341.433 89.5049
L341.433 103.273
L342.02 103.273
L342.02 87.3244
L342.607 87.3244
L342.607 86.0701
L343.194 86.0701
L343.194 93.4029
L343.781 93.4029
L343.781 90.8557
L344.956 90.8268
L344.956 92.0039
L345.543 92.0039
L345.543 89.119
L346.13 89.119
L346.13 89.5628
L346.717 89.5628
L346.717 89.312
L347.304 89.312
L347.304 88.9453
L347.891 88.9453
L347.891 88.3182
L348.478 88.3182
L348.478 89.0129
L349.065 89.0129
L349.065 86.8998
L349.653 86.8998
L349.653 87.9419
L350.24 87.9419
L350.24 94.3099
L350.827 94.3099
L350.827 107.818
L351.414 107.818
L351.414 111.6
L352.001 111.6
L352.001 91.7627
L352.588 91.7627
L352.588 85.4526
L353.175 85.4526
L353.175 87.2279
L353.762 87.2279
L353.762 89.6883
L354.349 89.6883
L354.349 86.8612
L354.937 86.8612
L354.937 90.875
L355.524 90.875
L355.524 84.8737
L356.111 84.8737
L356.111 84.2851
L356.698 84.2851
L356.698 81.1686
L357.285 81.1686
L357.285 82.4326
L357.872 82.4326
L357.872 83.5711
L358.459 83.5711
L358.459 83.1466
L359.046 83.1466
L359.046 85.9543
L359.633 85.9543
L359.633 86.7455
L360.221 86.7455
L360.221 90.4891
L360.808 90.4891
L360.808 88.8874
L361.395 88.8874
L361.395 89.119
L361.982 89.119
L361.982 86.7165
L362.569 86.7165
L362.569 86.3209
L363.156 86.3209
L363.156 88.8778
L363.743 88.8778
L363.743 88.5111
L364.33 88.5111
L364.33 92.2548
L364.917 92.2548
L364.917 91.7434
L365.505 91.7434
L365.505 86.456
L366.092 86.456
L366.092 69.629
L366.679 69.629
L366.679 70.8737
L367.266 70.8737
L367.266 68.0274
L367.853 68.0274
L367.853 74.4147
L368.44 74.4147
L368.44 80.802
L369.027 80.802
L369.027 80.1362
L369.614 80.1362
L369.614 76.9522
L370.201 76.9522
L370.201 80.8599
L370.788 80.8599
L370.788 86.6297
L371.376 86.6297
L371.376 87.3919
L371.963 87.3919
L371.963 90.5277
L372.55 90.5277
L372.55 88.9839
L373.137 88.9839
L373.137 86.9288
L373.724 86.9288
L373.724 89.9584
L374.898 89.9584
L374.898 89.8426
L375.485 89.8426
L375.485 94.8888
L376.072 94.8888
L376.072 91.753
L376.66 91.753
L376.66 92.1872
L377.247 92.1872
L377.247 91.8688
L377.834 91.8688
L377.834 92.631
L378.421 92.631
L378.421 91.4732
L379.008 91.4732
L379.008 91.7144
L379.595 91.7144
L379.595 92.7565
L380.182 92.7565
L380.182 93.3643
L380.769 93.3643
L380.769 86.4464
L381.356 86.4464
L381.356 89.0322
L381.944 89.0322
L381.944 85.9736
L382.531 85.9736
L382.531 91.0101
L383.118 91.0101
L383.118 89.6014
L383.705 89.6014
L383.705 91.232
L384.292 91.232
L384.292 89.4277
L384.879 89.4277
L384.879 92.4767
L385.466 92.4767
L385.466 94.0108
L386.053 94.0108
L386.053 93.4126
L386.64 93.4126
L386.64 93.9818
L387.228 93.9818
L387.228 90.1031
L387.815 90.1031
L387.815 85.1245
L388.402 85.1245
L388.402 90.4215
L388.989 90.4215
L388.989 87.1989
L389.576 87.1989
L389.576 88.434
L390.163 88.434
L390.163 91.2417
L390.75 91.2417
L390.75 87.5945
L391.924 87.5559
L391.924 88.0673
L392.512 88.0673
L392.512 92.6118
L393.099 92.6118
L393.099 93.9529
L393.686 93.9529
L393.686 94.7827
L394.273 94.7827
L394.273 96.0756
L394.86 96.0756
L394.86 90.0549
L395.447 90.0549
L395.447 92.7565
L396.034 92.7565
L396.034 93.8854
L396.621 93.8854
L396.621 93.1328
L397.208 93.1328
L397.208 94.7151
L397.796 94.7151
L397.796 94.7151" style="fill:none;stroke:#0000ff;"/>
   </g>
   <g id="matplotlib.axis_1">
    <g id="xtick_1">
     <g id="line2d_28">
      <defs>
       <path d="
M0 0
L0 -4" id="m0012dd4eef" style="stroke:#000000;stroke-linecap:butt;stroke-width:0.5;"/>
      </defs>
      <g>
       <use style="stroke:#000000;stroke-linecap:butt;stroke-width:0.5;" x="46.1171875" xlink:href="#m0012dd4eef" y="111.6"/>
      </g>
     </g>
     <g id="line2d_29">
      <defs>
       <path d="
M0 0
L0 4" id="m476344969c" style="stroke:#000000;stroke-linecap:butt;stroke-width:0.5;"/>
      </defs>
      <g>
       <use style="stroke:#000000;stroke-linecap:butt;stroke-width:0.5;" x="46.1171875" xlink:href="#m476344969c" y="32.0"/>
      </g>
     </g>
     <g id="text_1">
      <!-- 0 -->
      <defs>
       <path d="
M31.7812 66.4062
Q24.1719 66.4062 20.3281 58.9062
Q16.5 51.4219 16.5 36.375
Q16.5 21.3906 20.3281 13.8906
Q24.1719 6.39062 31.7812 6.39062
Q39.4531 6.39062 43.2812 13.8906
Q47.125 21.3906 47.125 36.375
Q47.125 51.4219 43.2812 58.9062
Q39.4531 66.4062 31.7812 66.4062
M31.7812 74.2188
Q44.0469 74.2188 50.5156 64.5156
Q56.9844 54.8281 56.9844 36.375
Q56.9844 17.9688 50.5156 8.26562
Q44.0469 -1.42188 31.7812 -1.42188
Q19.5312 -1.42188 13.0625 8.26562
Q6.59375 17.9688 6.59375 36.375
Q6.59375 54.8281 13.0625 64.5156
Q19.5312 74.2188 31.7812 74.2188" id="DejaVuSans-30"/>
      </defs>
      <g transform="translate(43.59765625 123.021875)scale(0.1 -0.1)">
       <use xlink:href="#DejaVuSans-30"/>
      </g>
     </g>
    </g>
    <g id="xtick_2">
     <g id="line2d_30">
      <g>
       <use style="stroke:#000000;stroke-linecap:butt;stroke-width:0.5;" x="135.073242188" xlink:href="#m0012dd4eef" y="111.6"/>
      </g>
     </g>
     <g id="line2d_31">
      <g>
       <use style="stroke:#000000;stroke-linecap:butt;stroke-width:0.5;" x="135.073242188" xlink:href="#m476344969c" y="32.0"/>
      </g>
     </g>
     <g id="text_2">
      <!-- 500 -->
      <defs>
       <path d="
M10.7969 72.9062
L49.5156 72.9062
L49.5156 64.5938
L19.8281 64.5938
L19.8281 46.7344
Q21.9688 47.4688 24.1094 47.8281
Q26.2656 48.1875 28.4219 48.1875
Q40.625 48.1875 47.75 41.5
Q54.8906 34.8125 54.8906 23.3906
Q54.8906 11.625 47.5625 5.09375
Q40.2344 -1.42188 26.9062 -1.42188
Q22.3125 -1.42188 17.5469 -0.640625
Q12.7969 0.140625 7.71875 1.70312
L7.71875 11.625
Q12.1094 9.23438 16.7969 8.0625
Q21.4844 6.89062 26.7031 6.89062
Q35.1562 6.89062 40.0781 11.3281
Q45.0156 15.7656 45.0156 23.3906
Q45.0156 31 40.0781 35.4375
Q35.1562 39.8906 26.7031 39.8906
Q22.75 39.8906 18.8125 39.0156
Q14.8906 38.1406 10.7969 36.2812
z
" id="DejaVuSans-35"/>
      </defs>
      <g transform="translate(126.247460938 123.021875)scale(0.1 -0.1)">
       <use xlink:href="#DejaVuSans-35"/>
       <use x="63.623046875" xlink:href="#DejaVuSans-30"/>
       <use x="127.24609375" xlink:href="#DejaVuSans-30"/>
      </g>
     </g>
    </g>
    <g id="xtick_3">
     <g id="line2d_32">
      <g>
       <use style="stroke:#000000;stroke-linecap:butt;stroke-width:0.5;" x="224.029296875" xlink:href="#m0012dd4eef" y="111.6"/>
      </g>
     </g>
     <g id="line2d_33">
      <g>
       <use style="stroke:#000000;stroke-linecap:butt;stroke-width:0.5;" x="224.029296875" xlink:href="#m476344969c" y="32.0"/>
      </g>
     </g>
     <g id="text_3">
      <!-- 1000 -->
      <defs>
       <path d="
M12.4062 8.29688
L28.5156 8.29688
L28.5156 63.9219
L10.9844 60.4062
L10.9844 69.3906
L28.4219 72.9062
L38.2812 72.9062
L38.2812 8.29688
L54.3906 8.29688
L54.3906 0
L12.4062 0
z
" id="DejaVuSans-31"/>
      </defs>
      <g transform="translate(212.185546875 123.021875)scale(0.1 -0.1)">
       <use xlink:href="#DejaVuSans-31"/>
       <use x="63.623046875" xlink:href="#DejaVuSans-30"/>
       <use x="127.24609375" xlink:href="#DejaVuSans-30"/>
       <use x="190.869140625" xlink:href="#DejaVuSans-30"/>
      </g>
     </g>
    </g>
    <g id="xtick_4">
     <g id="line2d_34">
      <g>
       <use style="stroke:#000000;stroke-linecap:butt;stroke-width:0.5;" x="312.985351563" xlink:href="#m0012dd4eef" y="111.6"/>
      </g>
     </g>
     <g id="line2d_35">
      <g>
       <use style="stroke:#000000;stroke-linecap:butt;stroke-width:0.5;" x="312.985351563" xlink:href="#m476344969c" y="32.0"/>
      </g>
     </g>
     <g id="text_4">
      <!-- 1500 -->
      <g transform="translate(301.141601563 123.021875)scale(0.1 -0.1)">
       <use xlink:href="#DejaVuSans-31"/>
       <use x="63.623046875" xlink:href="#DejaVuSans-35"/>
       <use x="127.24609375" xlink:href="#DejaVuSans-30"/>
       <use x="190.869140625" xlink:href="#DejaVuSans-30"/>
      </g>
     </g>
    </g>
    <g id="xtick_5">
     <g id="line2d_36">
      <g>
       <use style="stroke:#000000;stroke-linecap:butt;stroke-width:0.5;" x="401.94140625" xlink:href="#m0012dd4eef" y="111.6"/>
      </g>
     </g>
     <g id="line2d_37">
      <g>
       <use style="stroke:#000000;stroke-linecap:butt;stroke-width:0.5;" x="401.94140625" xlink:href="#m476344969c" y="32.0"/>
      </g>
     </g>
     <g id="text_5">
      <!-- 2000 -->
      <defs>
       <path d="
M19.1875 8.29688
L53.6094 8.29688
L53.6094 0
L7.32812 0
L7.32812 8.29688
Q12.9375 14.1094 22.625 23.8906
Q32.3281 33.6875 34.8125 36.5312
Q39.5469 41.8438 41.4219 45.5312
Q43.3125 49.2188 43.3125 52.7812
Q43.3125 58.5938 39.2344 62.25
Q35.1562 65.9219 28.6094 65.9219
Q23.9688 65.9219 18.8125 64.3125
Q13.6719 62.7031 7.8125 59.4219
L7.8125 69.3906
Q13.7656 71.7812 18.9375 73
Q24.125 74.2188 28.4219 74.2188
Q39.75 74.2188 46.4844 68.5469
Q53.2188 62.8906 53.2188 53.4219
Q53.2188 48.9219 51.5312 44.8906
Q49.8594 40.875 45.4062 35.4062
Q44.1875 33.9844 37.6406 27.2188
Q31.1094 20.4531 19.1875 8.29688" id="DejaVuSans-32"/>
      </defs>
      <g transform="translate(389.91484375 123.021875)scale(0.1 -0.1)">
       <use xlink:href="#DejaVuSans-32"/>
       <use x="63.623046875" xlink:href="#DejaVuSans-30"/>
       <use x="127.24609375" xlink:href="#DejaVuSans-30"/>
       <use x="190.869140625" xlink:href="#DejaVuSans-30"/>
      </g>
     </g>
    </g>
    <g id="text_6">
     <!-- Time -->
     <defs>
      <path d="
M52 44.1875
Q55.375 50.25 60.0625 53.125
Q64.75 56 71.0938 56
Q79.6406 56 84.2812 50.0156
Q88.9219 44.0469 88.9219 33.0156
L88.9219 0
L79.8906 0
L79.8906 32.7188
Q79.8906 40.5781 77.0938 44.375
Q74.3125 48.1875 68.6094 48.1875
Q61.625 48.1875 57.5625 43.5469
Q53.5156 38.9219 53.5156 30.9062
L53.5156 0
L44.4844 0
L44.4844 32.7188
Q44.4844 40.625 41.7031 44.4062
Q38.9219 48.1875 33.1094 48.1875
Q26.2188 48.1875 22.1562 43.5312
Q18.1094 38.875 18.1094 30.9062
L18.1094 0
L9.07812 0
L9.07812 54.6875
L18.1094 54.6875
L18.1094 46.1875
Q21.1875 51.2188 25.4844 53.6094
Q29.7812 56 35.6875 56
Q41.6562 56 45.8281 52.9688
Q50 49.9531 52 44.1875" id="DejaVuSans-6d"/>
      <path d="
M9.42188 54.6875
L18.4062 54.6875
L18.4062 0
L9.42188 0
z

M9.42188 75.9844
L18.4062 75.9844
L18.4062 64.5938
L9.42188 64.5938
z
" id="DejaVuSans-69"/>
      <path d="
M56.2031 29.5938
L56.2031 25.2031
L14.8906 25.2031
Q15.4844 15.9219 20.4844 11.0625
Q25.4844 6.20312 34.4219 6.20312
Q39.5938 6.20312 44.4531 7.46875
Q49.3125 8.73438 54.1094 11.2812
L54.1094 2.78125
Q49.2656 0.734375 44.1875 -0.34375
Q39.1094 -1.42188 33.8906 -1.42188
Q20.7969 -1.42188 13.1562 6.1875
Q5.51562 13.8125 5.51562 26.8125
Q5.51562 40.2344 12.7656 48.1094
Q20.0156 56 32.3281 56
Q43.3594 56 49.7812 48.8906
Q56.2031 41.7969 56.2031 29.5938
M47.2188 32.2344
Q47.125 39.5938 43.0938 43.9844
Q39.0625 48.3906 32.4219 48.3906
Q24.9062 48.3906 20.3906 44.1406
Q15.875 39.8906 15.1875 32.1719
z
" id="DejaVuSans-65"/>
      <path d="
M-0.296875 72.9062
L61.375 72.9062
L61.375 64.5938
L35.5 64.5938
L35.5 0
L25.5938 0
L25.5938 64.5938
L-0.296875 64.5938
z
" id="DejaVuSans-54"/>
     </defs>
     <g transform="translate(212.047265625 135.7625)scale(0.1 -0.1)">
      <use xlink:href="#DejaVuSans-54"/>
      <use x="57.958984375" xlink:href="#DejaVuSans-69"/>
      <use x="85.7421875" xlink:href="#DejaVuSans-6d"/>
      <use x="183.154296875" xlink:href="#DejaVuSans-65"/>
     </g>
    </g>
   </g>
   <g id="matplotlib.axis_2">
    <g id="ytick_1">
     <g id="line2d_38">
      <defs>
       <path d="
M0 0
L4 0" id="me8a85f7bf6" style="stroke:#000000;stroke-linecap:butt;stroke-width:0.5;"/>
      </defs>
      <g>
       <use style="stroke:#000000;stroke-linecap:butt;stroke-width:0.5;" x="46.1171875" xlink:href="#me8a85f7bf6" y="111.6"/>
      </g>
     </g>
     <g id="line2d_39">
      <defs>
       <path d="
M0 0
L-4 0" id="m1a32005dea" style="stroke:#000000;stroke-linecap:butt;stroke-width:0.5;"/>
      </defs>
      <g>
       <use style="stroke:#000000;stroke-linecap:butt;stroke-width:0.5;" x="401.94140625" xlink:href="#m1a32005dea" y="111.6"/>
      </g>
     </g>
     <g id="text_7">
      <!-- 0 -->
      <g transform="translate(37.078125 115.23984375)scale(0.1 -0.1)">
       <use xlink:href="#DejaVuSans-30"/>
      </g>
     </g>
    </g>
    <g id="ytick_2">
     <g id="line2d_40">
      <g>
       <use style="stroke:#000000;stroke-linecap:butt;stroke-width:0.5;" x="46.1171875" xlink:href="#me8a85f7bf6" y="95.68"/>
      </g>
     </g>
     <g id="line2d_41">
      <g>
       <use style="stroke:#000000;stroke-linecap:butt;stroke-width:0.5;" x="401.94140625" xlink:href="#m1a32005dea" y="95.68"/>
      </g>
     </g>
     <g id="text_8">
      <!-- 500 -->
      <g transform="translate(24.465625 99.31984375)scale(0.1 -0.1)">
       <use xlink:href="#DejaVuSans-35"/>
       <use x="63.623046875" xlink:href="#DejaVuSans-30"/>
       <use x="127.24609375" xlink:href="#DejaVuSans-30"/>
      </g>
     </g>
    </g>
    <g id="ytick_3">
     <g id="line2d_42">
      <g>
       <use style="stroke:#000000;stroke-linecap:butt;stroke-width:0.5;" x="46.1171875" xlink:href="#me8a85f7bf6" y="79.76"/>
      </g>
     </g>
     <g id="line2d_43">
      <g>
       <use style="stroke:#000000;stroke-linecap:butt;stroke-width:0.5;" x="401.94140625" xlink:href="#m1a32005dea" y="79.76"/>
      </g>
     </g>
     <g id="text_9">
      <!-- 1000 -->
      <g transform="translate(18.4296875 83.39984375)scale(0.1 -0.1)">
       <use xlink:href="#DejaVuSans-31"/>
       <use x="63.623046875" xlink:href="#DejaVuSans-30"/>
       <use x="127.24609375" xlink:href="#DejaVuSans-30"/>
       <use x="190.869140625" xlink:href="#DejaVuSans-30"/>
      </g>
     </g>
    </g>
    <g id="ytick_4">
     <g id="line2d_44">
      <g>
       <use style="stroke:#000000;stroke-linecap:butt;stroke-width:0.5;" x="46.1171875" xlink:href="#me8a85f7bf6" y="63.84"/>
      </g>
     </g>
     <g id="line2d_45">
      <g>
       <use style="stroke:#000000;stroke-linecap:butt;stroke-width:0.5;" x="401.94140625" xlink:href="#m1a32005dea" y="63.84"/>
      </g>
     </g>
     <g id="text_10">
      <!-- 1500 -->
      <g transform="translate(18.4296875 67.47984375)scale(0.1 -0.1)">
       <use xlink:href="#DejaVuSans-31"/>
       <use x="63.623046875" xlink:href="#DejaVuSans-35"/>
       <use x="127.24609375" xlink:href="#DejaVuSans-30"/>
       <use x="190.869140625" xlink:href="#DejaVuSans-30"/>
      </g>
     </g>
    </g>
    <g id="ytick_5">
     <g id="line2d_46">
      <g>
       <use style="stroke:#000000;stroke-linecap:butt;stroke-width:0.5;" x="46.1171875" xlink:href="#me8a85f7bf6" y="47.92"/>
      </g>
     </g>
     <g id="line2d_47">
      <g>
       <use style="stroke:#000000;stroke-linecap:butt;stroke-width:0.5;" x="401.94140625" xlink:href="#m1a32005dea" y="47.92"/>
      </g>
     </g>
     <g id="text_11">
      <!-- 2000 -->
      <g transform="translate(18.0640625 51.55984375)scale(0.1 -0.1)">
       <use xlink:href="#DejaVuSans-32"/>
       <use x="63.623046875" xlink:href="#DejaVuSans-30"/>
       <use x="127.24609375" xlink:href="#DejaVuSans-30"/>
       <use x="190.869140625" xlink:href="#DejaVuSans-30"/>
      </g>
     </g>
    </g>
    <g id="ytick_6">
     <g id="line2d_48">
      <g>
       <use style="stroke:#000000;stroke-linecap:butt;stroke-width:0.5;" x="46.1171875" xlink:href="#me8a85f7bf6" y="32.0"/>
      </g>
     </g>
     <g id="line2d_49">
      <g>
       <use style="stroke:#000000;stroke-linecap:butt;stroke-width:0.5;" x="401.94140625" xlink:href="#m1a32005dea" y="32.0"/>
      </g>
     </g>
     <g id="text_12">
      <!-- 2500 -->
      <g transform="translate(18.0640625 35.63984375)scale(0.1 -0.1)">
       <use xlink:href="#DejaVuSans-32"/>
       <use x="63.623046875" xlink:href="#DejaVuSans-35"/>
       <use x="127.24609375" xlink:href="#DejaVuSans-30"/>
       <use x="190.869140625" xlink:href="#DejaVuSans-30"/>
      </g>
     </g>
    </g>
   </g>
   <g id="patch_3">
    <path d="
M46.1172 32
L401.941 32" style="fill:none;stroke:#000000;"/>
   </g>
   <g id="patch_4">
    <path d="
M401.941 111.6
L401.941 32" style="fill:none;stroke:#000000;"/>
   </g>
   <g id="patch_5">
    <path d="
M46.1172 111.6
L401.941 111.6" style="fill:none;stroke:#000000;"/>
   </g>
   <g id="patch_6">
    <path d="
M46.1172 111.6
L46.1172 32" style="fill:none;stroke:#000000;"/>
   </g>
   <g id="text_13">
    <!-- OLTP -->
    <defs>
     <path d="
M39.4062 66.2188
Q28.6562 66.2188 22.3281 58.2031
Q16.0156 50.2031 16.0156 36.375
Q16.0156 22.6094 22.3281 14.5938
Q28.6562 6.59375 39.4062 6.59375
Q50.1406 6.59375 56.4219 14.5938
Q62.7031 22.6094 62.7031 36.375
Q62.7031 50.2031 56.4219 58.2031
Q50.1406 66.2188 39.4062 66.2188
M39.4062 74.2188
Q54.7344 74.2188 63.9062 63.9375
Q73.0938 53.6562 73.0938 36.375
Q73.0938 19.1406 63.9062 8.85938
Q54.7344 -1.42188 39.4062 -1.42188
Q24.0312 -1.42188 14.8125 8.82812
Q5.60938 19.0938 5.60938 36.375
Q5.60938 53.6562 14.8125 63.9375
Q24.0312 74.2188 39.4062 74.2188" id="DejaVuSans-4f"/>
     <path d="
M19.6719 64.7969
L19.6719 37.4062
L32.0781 37.4062
Q38.9688 37.4062 42.7188 40.9688
Q46.4844 44.5312 46.4844 51.125
Q46.4844 57.6719 42.7188 61.2344
Q38.9688 64.7969 32.0781 64.7969
z

M9.8125 72.9062
L32.0781 72.9062
Q44.3438 72.9062 50.6094 67.3594
Q56.8906 61.8125 56.8906 51.125
Q56.8906 40.3281 50.6094 34.8125
Q44.3438 29.2969 32.0781 29.2969
L19.6719 29.2969
L19.6719 0
L9.8125 0
z
" id="DejaVuSans-50"/>
     <path d="
M9.8125 72.9062
L19.6719 72.9062
L19.6719 8.29688
L55.1719 8.29688
L55.1719 0
L9.8125 0
z
" id="DejaVuSans-4c"/>
    </defs>
    <g transform="translate(210.046484375 27.0)scale(0.12 -0.12)">
     <use xlink:href="#DejaVuSans-4f"/>
     <use x="78.7109375" xlink:href="#DejaVuSans-4c"/>
     <use x="120.673828125" xlink:href="#DejaVuSans-54"/>
     <use x="181.7578125" xlink:href="#DejaVuSans-50"/>
    </g>
   </g>
  </g>
  <g id="axes_2">
   <g id="patch_7">
    <path d="
M46.1172 246.6
L401.941 246.6
L401.941 167
L46.1172 167
z
" style="fill:#ffffff;"/>
   </g>
   <g id="line2d_50">
    <path clip-path="url(#pe9bd9c4693)" d="
M56.7921 246.6
L56.7921 167" style="fill:none;stroke:#00ffff;stroke-dasharray:6.000000,6.000000;stroke-dashoffset:0.0;stroke-linecap:butt;"/>
   </g>
   <g id="line2d_51">
    <path clip-path="url(#pe9bd9c4693)" d="
M78.1418 246.6
L78.1418 167" style="fill:none;stroke:#00ffff;stroke-dasharray:6.000000,6.000000;stroke-dashoffset:0.0;stroke-linecap:butt;"/>
   </g>
   <g id="line2d_52">
    <path clip-path="url(#pe9bd9c4693)" d="
M78.1421 246.6
L78.1421 167" style="fill:none;stroke:#00ffff;stroke-dasharray:6.000000,6.000000;stroke-dashoffset:0.0;stroke-linecap:butt;"/>
   </g>
   <g id="line2d_53">
    <path clip-path="url(#pe9bd9c4693)" d="
M78.1426 246.6
L78.1426 167" style="fill:none;stroke:#00ffff;stroke-dasharray:6.000000,6.000000;stroke-dashoffset:0.0;stroke-linecap:butt;"/>
   </g>
   <g id="line2d_54">
    <path clip-path="url(#pe9bd9c4693)" d="
M99.491 246.6
L99.491 167" style="fill:none;stroke:#00ffff;stroke-dasharray:6.000000,6.000000;stroke-dashoffset:0.0;stroke-linecap:butt;"/>
   </g>
   <g id="line2d_55">
    <path clip-path="url(#pe9bd9c4693)" d="
M99.491 246.6
L99.491 167" style="fill:none;stroke:#00ffff;stroke-dasharray:6.000000,6.000000;stroke-dashoffset:0.0;stroke-linecap:butt;"/>
   </g>
   <g id="line2d_56">
    <path clip-path="url(#pe9bd9c4693)" d="
M99.491 246.6
L99.491 167" style="fill:none;stroke:#00ffff;stroke-dasharray:6.000000,6.000000;stroke-dashoffset:0.0;stroke-linecap:butt;"/>
   </g>
   <g id="line2d_57">
    <path clip-path="url(#pe9bd9c4693)" d="
M120.84 246.6
L120.84 167" style="fill:none;stroke:#00ffff;stroke-dasharray:6.000000,6.000000;stroke-dashoffset:0.0;stroke-linecap:butt;"/>
   </g>
   <g id="line2d_58">
    <path clip-path="url(#pe9bd9c4693)" d="
M120.841 246.6
L120.841 167" style="fill:none;stroke:#00ffff;stroke-dasharray:6.000000,6.000000;stroke-dashoffset:0.0;stroke-linecap:butt;"/>
   </g>
   <g id="line2d_59">
    <path clip-path="url(#pe9bd9c4693)" d="
M142.19 246.6
L142.19 167" style="fill:none;stroke:#00ffff;stroke-dasharray:6.000000,6.000000;stroke-dashoffset:0.0;stroke-linecap:butt;"/>
   </g>
   <g id="line2d_60">
    <path clip-path="url(#pe9bd9c4693)" d="
M142.19 246.6
L142.19 167" style="fill:none;stroke:#00ffff;stroke-dasharray:6.000000,6.000000;stroke-dashoffset:0.0;stroke-linecap:butt;"/>
   </g>
   <g id="line2d_61">
    <path clip-path="url(#pe9bd9c4693)" d="
M163.539 246.6
L163.539 167" style="fill:none;stroke:#00ffff;stroke-dasharray:6.000000,6.000000;stroke-dashoffset:0.0;stroke-linecap:butt;"/>
   </g>
   <g id="line2d_62">
    <path clip-path="url(#pe9bd9c4693)" d="
M163.54 246.6
L163.54 167" style="fill:none;stroke:#00ffff;stroke-dasharray:6.000000,6.000000;stroke-dashoffset:0.0;stroke-linecap:butt;"/>
   </g>
   <g id="line2d_63">
    <path clip-path="url(#pe9bd9c4693)" d="
M184.889 246.6
L184.889 167" style="fill:none;stroke:#00ffff;stroke-dasharray:6.000000,6.000000;stroke-dashoffset:0.0;stroke-linecap:butt;"/>
   </g>
   <g id="line2d_64">
    <path clip-path="url(#pe9bd9c4693)" d="
M206.238 246.6
L206.238 167" style="fill:none;stroke:#00ffff;stroke-dasharray:6.000000,6.000000;stroke-dashoffset:0.0;stroke-linecap:butt;"/>
   </g>
   <g id="line2d_65">
    <path clip-path="url(#pe9bd9c4693)" d="
M206.239 246.6
L206.239 167" style="fill:none;stroke:#00ffff;stroke-dasharray:6.000000,6.000000;stroke-dashoffset:0.0;stroke-linecap:butt;"/>
   </g>
   <g id="line2d_66">
    <path clip-path="url(#pe9bd9c4693)" d="
M227.588 246.6
L227.588 167" style="fill:none;stroke:#00ffff;stroke-dasharray:6.000000,6.000000;stroke-dashoffset:0.0;stroke-linecap:butt;"/>
   </g>
   <g id="line2d_67">
    <path clip-path="url(#pe9bd9c4693)" d="
M248.937 246.6
L248.937 167" style="fill:none;stroke:#00ffff;stroke-dasharray:6.000000,6.000000;stroke-dashoffset:0.0;stroke-linecap:butt;"/>
   </g>
   <g id="line2d_68">
    <path clip-path="url(#pe9bd9c4693)" d="
M270.287 246.6
L270.287 167" style="fill:none;stroke:#00ffff;stroke-dasharray:6.000000,6.000000;stroke-dashoffset:0.0;stroke-linecap:butt;"/>
   </g>
   <g id="line2d_69">
    <path clip-path="url(#pe9bd9c4693)" d="
M270.287 246.6
L270.287 167" style="fill:none;stroke:#00ffff;stroke-dasharray:6.000000,6.000000;stroke-dashoffset:0.0;stroke-linecap:butt;"/>
   </g>
   <g id="line2d_70">
    <path clip-path="url(#pe9bd9c4693)" d="
M270.287 246.6
L270.287 167" style="fill:none;stroke:#00ffff;stroke-dasharray:6.000000,6.000000;stroke-dashoffset:0.0;stroke-linecap:butt;"/>
   </g>
   <g id="line2d_71">
    <path clip-path="url(#pe9bd9c4693)" d="
M291.637 246.6
L291.637 167" style="fill:none;stroke:#00ffff;stroke-dasharray:6.000000,6.000000;stroke-dashoffset:0.0;stroke-linecap:butt;"/>
   </g>
   <g id="line2d_72">
    <path clip-path="url(#pe9bd9c4693)" d="
M312.986 246.6
L312.986 167" style="fill:none;stroke:#00ffff;stroke-dasharray:6.000000,6.000000;stroke-dashoffset:0.0;stroke-linecap:butt;"/>
   </g>
   <g id="line2d_73">
    <path clip-path="url(#pe9bd9c4693)" d="
M334.335 246.6
L334.335 167" style="fill:none;stroke:#00ffff;stroke-dasharray:6.000000,6.000000;stroke-dashoffset:0.0;stroke-linecap:butt;"/>
   </g>
   <g id="line2d_74">
    <path clip-path="url(#pe9bd9c4693)" d="
M355.685 246.6
L355.685 167" style="fill:none;stroke:#00ffff;stroke-dasharray:6.000000,6.000000;stroke-dashoffset:0.0;stroke-linecap:butt;"/>
   </g>
   <g id="line2d_75">
    <path clip-path="url(#pe9bd9c4693)" d="
M377.034 246.6
L377.034 167" style="fill:none;stroke:#00ffff;stroke-dasharray:6.000000,6.000000;stroke-dashoffset:0.0;stroke-linecap:butt;"/>
   </g>
   <g id="line2d_76">
    <path clip-path="url(#pe9bd9c4693)" d="
M57.4966 237.864
L57.4966 233.96
L77.5462 233.96
L77.5462 235.633
L97.5959 235.633
L97.5959 235.447
L117.646 235.447
L117.646 234.704
L137.695 234.704
L137.695 235.261
L157.745 235.261
L157.745 232.845
L177.795 232.845
L177.795 235.447
L197.844 235.447
L197.844 235.076
L217.894 235.076
L217.894 231.172
L237.944 231.172
L237.944 227.083
L257.993 227.083
L257.993 231.358
L278.043 231.358
L278.043 234.146
L298.093 234.146
L298.093 234.704
L318.142 234.704
L318.142 232.102
L338.192 232.102
L338.192 230.057
L358.242 230.057
L358.242 233.96
L378.291 233.96" style="fill:none;stroke:#008000;"/>
   </g>
   <g id="matplotlib.axis_3">
    <g id="xtick_6">
     <g id="line2d_77">
      <g>
       <use style="stroke:#000000;stroke-linecap:butt;stroke-width:0.5;" x="46.1171875" xlink:href="#m0012dd4eef" y="246.6"/>
      </g>
     </g>
     <g id="line2d_78">
      <g>
       <use style="stroke:#000000;stroke-linecap:butt;stroke-width:0.5;" x="46.1171875" xlink:href="#m476344969c" y="167.0"/>
      </g>
     </g>
     <g id="text_14">
      <!-- 0 -->
      <g transform="translate(43.59765625 258.021875)scale(0.1 -0.1)">
       <use xlink:href="#DejaVuSans-30"/>
      </g>
     </g>
    </g>
    <g id="xtick_7">
     <g id="line2d_79">
      <g>
       <use style="stroke:#000000;stroke-linecap:butt;stroke-width:0.5;" x="135.073242188" xlink:href="#m0012dd4eef" y="246.6"/>
      </g>
     </g>
     <g id="line2d_80">
      <g>
       <use style="stroke:#000000;stroke-linecap:butt;stroke-width:0.5;" x="135.073242188" xlink:href="#m476344969c" y="167.0"/>
      </g>
     </g>
     <g id="text_15">
      <!-- 500 -->
      <g transform="translate(126.247460938 258.021875)scale(0.1 -0.1)">
       <use xlink:href="#DejaVuSans-35"/>
       <use x="63.623046875" xlink:href="#DejaVuSans-30"/>
       <use x="127.24609375" xlink:href="#DejaVuSans-30"/>
      </g>
     </g>
    </g>
    <g id="xtick_8">
     <g id="line2d_81">
      <g>
       <use style="stroke:#000000;stroke-linecap:butt;stroke-width:0.5;" x="224.029296875" xlink:href="#m0012dd4eef" y="246.6"/>
      </g>
     </g>
     <g id="line2d_82">
      <g>
       <use style="stroke:#000000;stroke-linecap:butt;stroke-width:0.5;" x="224.029296875" xlink:href="#m476344969c" y="167.0"/>
      </g>
     </g>
     <g id="text_16">
      <!-- 1000 -->
      <g transform="translate(212.185546875 258.021875)scale(0.1 -0.1)">
       <use xlink:href="#DejaVuSans-31"/>
       <use x="63.623046875" xlink:href="#DejaVuSans-30"/>
       <use x="127.24609375" xlink:href="#DejaVuSans-30"/>
       <use x="190.869140625" xlink:href="#DejaVuSans-30"/>
      </g>
     </g>
    </g>
    <g id="xtick_9">
     <g id="line2d_83">
      <g>
       <use style="stroke:#000000;stroke-linecap:butt;stroke-width:0.5;" x="312.985351563" xlink:href="#m0012dd4eef" y="246.6"/>
      </g>
     </g>
     <g id="line2d_84">
      <g>
       <use style="stroke:#000000;stroke-linecap:butt;stroke-width:0.5;" x="312.985351563" xlink:href="#m476344969c" y="167.0"/>
      </g>
     </g>
     <g id="text_17">
      <!-- 1500 -->
      <g transform="translate(301.141601563 258.021875)scale(0.1 -0.1)">
       <use xlink:href="#DejaVuSans-31"/>
       <use x="63.623046875" xlink:href="#DejaVuSans-35"/>
       <use x="127.24609375" xlink:href="#DejaVuSans-30"/>
       <use x="190.869140625" xlink:href="#DejaVuSans-30"/>
      </g>
     </g>
    </g>
    <g id="xtick_10">
     <g id="line2d_85">
      <g>
       <use style="stroke:#000000;stroke-linecap:butt;stroke-width:0.5;" x="401.94140625" xlink:href="#m0012dd4eef" y="246.6"/>
      </g>
     </g>
     <g id="line2d_86">
      <g>
       <use style="stroke:#000000;stroke-linecap:butt;stroke-width:0.5;" x="401.94140625" xlink:href="#m476344969c" y="167.0"/>
      </g>
     </g>
     <g id="text_18">
      <!-- 2000 -->
      <g transform="translate(389.91484375 258.021875)scale(0.1 -0.1)">
       <use xlink:href="#DejaVuSans-32"/>
       <use x="63.623046875" xlink:href="#DejaVuSans-30"/>
       <use x="127.24609375" xlink:href="#DejaVuSans-30"/>
       <use x="190.869140625" xlink:href="#DejaVuSans-30"/>
      </g>
     </g>
    </g>
    <g id="text_19">
     <!-- Time -->
     <g transform="translate(212.047265625 270.7625)scale(0.1 -0.1)">
      <use xlink:href="#DejaVuSans-54"/>
      <use x="57.958984375" xlink:href="#DejaVuSans-69"/>
      <use x="85.7421875" xlink:href="#DejaVuSans-6d"/>
      <use x="183.154296875" xlink:href="#DejaVuSans-65"/>
     </g>
    </g>
   </g>
   <g id="matplotlib.axis_4">
    <g id="ytick_7">
     <g id="line2d_87">
      <g>
       <use style="stroke:#000000;stroke-linecap:butt;stroke-width:0.5;" x="46.1171875" xlink:href="#me8a85f7bf6" y="246.6"/>
      </g>
     </g>
     <g id="line2d_88">
      <g>
       <use style="stroke:#000000;stroke-linecap:butt;stroke-width:0.5;" x="401.94140625" xlink:href="#m1a32005dea" y="246.6"/>
      </g>
     </g>
     <g id="text_20">
      <!-- 0.0 -->
      <defs>
       <path d="
M10.6875 12.4062
L21 12.4062
L21 0
L10.6875 0
z
" id="DejaVuSans-2e"/>
      </defs>
      <g transform="translate(27.5375 250.23984375)scale(0.1 -0.1)">
       <use xlink:href="#DejaVuSans-30"/>
       <use x="63.623046875" xlink:href="#DejaVuSans-2e"/>
       <use x="95.41015625" xlink:href="#DejaVuSans-30"/>
      </g>
     </g>
    </g>
    <g id="ytick_8">
     <g id="line2d_89">
      <g>
       <use style="stroke:#000000;stroke-linecap:butt;stroke-width:0.5;" x="46.1171875" xlink:href="#me8a85f7bf6" y="236.126315789"/>
      </g>
     </g>
     <g id="line2d_90">
      <g>
       <use style="stroke:#000000;stroke-linecap:butt;stroke-width:0.5;" x="401.94140625" xlink:href="#m1a32005dea" y="236.126315789"/>
      </g>
     </g>
     <g id="text_21">
      <!-- 0.5 -->
      <g transform="translate(27.746875 239.766159539)scale(0.1 -0.1)">
       <use xlink:href="#DejaVuSans-30"/>
       <use x="63.623046875" xlink:href="#DejaVuSans-2e"/>
       <use x="95.41015625" xlink:href="#DejaVuSans-35"/>
      </g>
     </g>
    </g>
    <g id="ytick_9">
     <g id="line2d_91">
      <g>
       <use style="stroke:#000000;stroke-linecap:butt;stroke-width:0.5;" x="46.1171875" xlink:href="#me8a85f7bf6" y="225.652631579"/>
      </g>
     </g>
     <g id="line2d_92">
      <g>
       <use style="stroke:#000000;stroke-linecap:butt;stroke-width:0.5;" x="401.94140625" xlink:href="#m1a32005dea" y="225.652631579"/>
      </g>
     </g>
     <g id="text_22">
      <!-- 1.0 -->
      <g transform="translate(27.9765625 229.292475329)scale(0.1 -0.1)">
       <use xlink:href="#DejaVuSans-31"/>
       <use x="63.623046875" xlink:href="#DejaVuSans-2e"/>
       <use x="95.41015625" xlink:href="#DejaVuSans-30"/>
      </g>
     </g>
    </g>
    <g id="ytick_10">
     <g id="line2d_93">
      <g>
       <use style="stroke:#000000;stroke-linecap:butt;stroke-width:0.5;" x="46.1171875" xlink:href="#me8a85f7bf6" y="215.178947368"/>
      </g>
     </g>
     <g id="line2d_94">
      <g>
       <use style="stroke:#000000;stroke-linecap:butt;stroke-width:0.5;" x="401.94140625" xlink:href="#m1a32005dea" y="215.178947368"/>
      </g>
     </g>
     <g id="text_23">
      <!-- 1.5 -->
      <g transform="translate(28.1859375 218.753166118)scale(0.1 -0.1)">
       <use xlink:href="#DejaVuSans-31"/>
       <use x="63.623046875" xlink:href="#DejaVuSans-2e"/>
       <use x="95.41015625" xlink:href="#DejaVuSans-35"/>
      </g>
     </g>
    </g>
    <g id="ytick_11">
     <g id="line2d_95">
      <g>
       <use style="stroke:#000000;stroke-linecap:butt;stroke-width:0.5;" x="46.1171875" xlink:href="#me8a85f7bf6" y="204.705263158"/>
      </g>
     </g>
     <g id="line2d_96">
      <g>
       <use style="stroke:#000000;stroke-linecap:butt;stroke-width:0.5;" x="401.94140625" xlink:href="#m1a32005dea" y="204.705263158"/>
      </g>
     </g>
     <g id="text_24">
      <!-- 2.0 -->
      <g transform="translate(27.6109375 208.345106908)scale(0.1 -0.1)">
       <use xlink:href="#DejaVuSans-32"/>
       <use x="63.623046875" xlink:href="#DejaVuSans-2e"/>
       <use x="95.41015625" xlink:href="#DejaVuSans-30"/>
      </g>
     </g>
    </g>
    <g id="ytick_12">
     <g id="line2d_97">
      <g>
       <use style="stroke:#000000;stroke-linecap:butt;stroke-width:0.5;" x="46.1171875" xlink:href="#me8a85f7bf6" y="194.231578947"/>
      </g>
     </g>
     <g id="line2d_98">
      <g>
       <use style="stroke:#000000;stroke-linecap:butt;stroke-width:0.5;" x="401.94140625" xlink:href="#m1a32005dea" y="194.231578947"/>
      </g>
     </g>
     <g id="text_25">
      <!-- 2.5 -->
      <g transform="translate(27.8203125 197.871422697)scale(0.1 -0.1)">
       <use xlink:href="#DejaVuSans-32"/>
       <use x="63.623046875" xlink:href="#DejaVuSans-2e"/>
       <use x="95.41015625" xlink:href="#DejaVuSans-35"/>
      </g>
     </g>
    </g>
    <g id="ytick_13">
     <g id="line2d_99">
      <g>
       <use style="stroke:#000000;stroke-linecap:butt;stroke-width:0.5;" x="46.1171875" xlink:href="#me8a85f7bf6" y="183.757894737"/>
      </g>
     </g>
     <g id="line2d_100">
      <g>
       <use style="stroke:#000000;stroke-linecap:butt;stroke-width:0.5;" x="401.94140625" xlink:href="#m1a32005dea" y="183.757894737"/>
      </g>
     </g>
     <g id="text_26">
      <!-- 3.0 -->
      <defs>
       <path d="
M40.5781 39.3125
Q47.6562 37.7969 51.625 33
Q55.6094 28.2188 55.6094 21.1875
Q55.6094 10.4062 48.1875 4.48438
Q40.7656 -1.42188 27.0938 -1.42188
Q22.5156 -1.42188 17.6562 -0.515625
Q12.7969 0.390625 7.625 2.20312
L7.625 11.7188
Q11.7188 9.32812 16.5938 8.10938
Q21.4844 6.89062 26.8125 6.89062
Q36.0781 6.89062 40.9375 10.5469
Q45.7969 14.2031 45.7969 21.1875
Q45.7969 27.6406 41.2812 31.2656
Q36.7656 34.9062 28.7188 34.9062
L20.2188 34.9062
L20.2188 43.0156
L29.1094 43.0156
Q36.375 43.0156 40.2344 45.9219
Q44.0938 48.8281 44.0938 54.2969
Q44.0938 59.9062 40.1094 62.9062
Q36.1406 65.9219 28.7188 65.9219
Q24.6562 65.9219 20.0156 65.0312
Q15.375 64.1562 9.8125 62.3125
L9.8125 71.0938
Q15.4375 72.6562 20.3438 73.4375
Q25.25 74.2188 29.5938 74.2188
Q40.8281 74.2188 47.3594 69.1094
Q53.9062 64.0156 53.9062 55.3281
Q53.9062 49.2656 50.4375 45.0938
Q46.9688 40.9219 40.5781 39.3125" id="DejaVuSans-33"/>
      </defs>
      <g transform="translate(27.640625 187.397738487)scale(0.1 -0.1)">
       <use xlink:href="#DejaVuSans-33"/>
       <use x="63.623046875" xlink:href="#DejaVuSans-2e"/>
       <use x="95.41015625" xlink:href="#DejaVuSans-30"/>
      </g>
     </g>
    </g>
    <g id="ytick_14">
     <g id="line2d_101">
      <g>
       <use style="stroke:#000000;stroke-linecap:butt;stroke-width:0.5;" x="46.1171875" xlink:href="#me8a85f7bf6" y="173.284210526"/>
      </g>
     </g>
     <g id="line2d_102">
      <g>
       <use style="stroke:#000000;stroke-linecap:butt;stroke-width:0.5;" x="401.94140625" xlink:href="#m1a32005dea" y="173.284210526"/>
      </g>
     </g>
     <g id="text_27">
      <!-- 3.5 -->
      <g transform="translate(27.85 176.924054276)scale(0.1 -0.1)">
       <use xlink:href="#DejaVuSans-33"/>
       <use x="63.623046875" xlink:href="#DejaVuSans-2e"/>
       <use x="95.41015625" xlink:href="#DejaVuSans-35"/>
      </g>
     </g>
    </g>
   </g>
   <g id="patch_8">
    <path d="
M46.1172 167
L401.941 167" style="fill:none;stroke:#000000;"/>
   </g>
   <g id="patch_9">
    <path d="
M401.941 246.6
L401.941 167" style="fill:none;stroke:#000000;"/>
   </g>
   <g id="patch_10">
    <path d="
M46.1172 246.6
L401.941 246.6" style="fill:none;stroke:#000000;"/>
   </g>
   <g id="patch_11">
    <path d="
M46.1172 246.6
L46.1172 167" style="fill:none;stroke:#000000;"/>
   </g>
   <g id="text_28">
    <!-- OLAP -->
    <defs>
     <path d="
M34.1875 63.1875
L20.7969 26.9062
L47.6094 26.9062
z

M28.6094 72.9062
L39.7969 72.9062
L67.5781 0
L57.3281 0
L50.6875 18.7031
L17.8281 18.7031
L11.1875 0
L0.78125 0
z
" id="DejaVuSans-41"/>
    </defs>
    <g transform="translate(208.646796875 162.0)scale(0.12 -0.12)">
     <use xlink:href="#DejaVuSans-4f"/>
     <use x="78.7109375" xlink:href="#DejaVuSans-4c"/>
     <use x="136.673828125" xlink:href="#DejaVuSans-41"/>
     <use x="205.08203125" xlink:href="#DejaVuSans-50"/>
    </g>
   </g>
  </g>
  <g id="text_29">
   <!-- 10 OLTP workers -->
   <defs>
    <path d="
M30.6094 48.3906
Q23.3906 48.3906 19.1875 42.75
Q14.9844 37.1094 14.9844 27.2969
Q14.9844 17.4844 19.1562 11.8438
Q23.3438 6.20312 30.6094 6.20312
Q37.7969 6.20312 41.9844 11.8594
Q46.1875 17.5312 46.1875 27.2969
Q46.1875 37.0156 41.9844 42.7031
Q37.7969 48.3906 30.6094 48.3906
M30.6094 56
Q42.3281 56 49.0156 48.375
Q55.7188 40.7656 55.7188 27.2969
Q55.7188 13.875 49.0156 6.21875
Q42.3281 -1.42188 30.6094 -1.42188
Q18.8438 -1.42188 12.1719 6.21875
Q5.51562 13.875 5.51562 27.2969
Q5.51562 40.7656 12.1719 48.375
Q18.8438 56 30.6094 56" id="DejaVuSans-6f"/>
    <path d="
M9.07812 75.9844
L18.1094 75.9844
L18.1094 31.1094
L44.9219 54.6875
L56.3906 54.6875
L27.3906 29.1094
L57.625 0
L45.9062 0
L18.1094 26.7031
L18.1094 0
L9.07812 0
z
" id="DejaVuSans-6b"/>
    <path id="DejaVuSans-20"/>
    <path d="
M4.20312 54.6875
L13.1875 54.6875
L24.4219 12.0156
L35.5938 54.6875
L46.1875 54.6875
L57.4219 12.0156
L68.6094 54.6875
L77.5938 54.6875
L63.2812 0
L52.6875 0
L40.9219 44.8281
L29.1094 0
L18.5 0
z
" id="DejaVuSans-77"/>
    <path d="
M44.2812 53.0781
L44.2812 44.5781
Q40.4844 46.5312 36.375 47.5
Q32.2812 48.4844 27.875 48.4844
Q21.1875 48.4844 17.8438 46.4375
Q14.5 44.3906 14.5 40.2812
Q14.5 37.1562 16.8906 35.375
Q19.2812 33.5938 26.5156 31.9844
L29.5938 31.2969
Q39.1562 29.25 43.1875 25.5156
Q47.2188 21.7812 47.2188 15.0938
Q47.2188 7.46875 41.1875 3.01562
Q35.1562 -1.42188 24.6094 -1.42188
Q20.2188 -1.42188 15.4531 -0.5625
Q10.6875 0.296875 5.42188 2
L5.42188 11.2812
Q10.4062 8.6875 15.2344 7.39062
Q20.0625 6.10938 24.8125 6.10938
Q31.1562 6.10938 34.5625 8.28125
Q37.9844 10.4531 37.9844 14.4062
Q37.9844 18.0625 35.5156 20.0156
Q33.0625 21.9688 24.7031 23.7812
L21.5781 24.5156
Q13.2344 26.2656 9.51562 29.9062
Q5.8125 33.5469 5.8125 39.8906
Q5.8125 47.6094 11.2812 51.7969
Q16.75 56 26.8125 56
Q31.7812 56 36.1719 55.2656
Q40.5781 54.5469 44.2812 53.0781" id="DejaVuSans-73"/>
    <path d="
M41.1094 46.2969
Q39.5938 47.1719 37.8125 47.5781
Q36.0312 48 33.8906 48
Q26.2656 48 22.1875 43.0469
Q18.1094 38.0938 18.1094 28.8125
L18.1094 0
L9.07812 0
L9.07812 54.6875
L18.1094 54.6875
L18.1094 46.1875
Q20.9531 51.1719 25.4844 53.5781
Q30.0312 56 36.5312 56
Q37.4531 56 38.5781 55.875
Q39.7031 55.7656 41.0625 55.5156
z
" id="DejaVuSans-72"/>
   </defs>
   <g transform="translate(174.9453125 13.3584375)scale(0.1 -0.1)">
    <use xlink:href="#DejaVuSans-31"/>
    <use x="63.623046875" xlink:href="#DejaVuSans-30"/>
    <use x="127.24609375" xlink:href="#DejaVuSans-20"/>
    <use x="159.033203125" xlink:href="#DejaVuSans-4f"/>
    <use x="237.744140625" xlink:href="#DejaVuSans-4c"/>
    <use x="279.70703125" xlink:href="#DejaVuSans-54"/>
    <use x="340.791015625" xlink:href="#DejaVuSans-50"/>
    <use x="401.09375" xlink:href="#DejaVuSans-20"/>
    <use x="432.880859375" xlink:href="#DejaVuSans-77"/>
    <use x="514.66796875" xlink:href="#DejaVuSans-6f"/>
    <use x="575.849609375" xlink:href="#DejaVuSans-72"/>
    <use x="616.962890625" xlink:href="#DejaVuSans-6b"/>
    <use x="671.248046875" xlink:href="#DejaVuSans-65"/>
    <use x="732.771484375" xlink:href="#DejaVuSans-72"/>
    <use x="773.884765625" xlink:href="#DejaVuSans-73"/>
   </g>
  </g>
 </g>
 <defs>
  <clipPath id="pe9bd9c4693">
   <rect height="79.6" width="355.82421875" x="46.1171875" y="167.0"/>
  </clipPath>
  <clipPath id="paafe9ad165">
   <rect height="79.6" width="355.82421875" x="46.1171875" y="32.0"/>
  </clipPath>
 </defs>
</svg>
