<?xml version="1.0" encoding="utf-8" standalone="no"?>
<!DOCTYPE svg PUBLIC "-//W3C//DTD SVG 1.1//EN"
  "http://www.w3.org/Graphics/SVG/1.1/DTD/svg11.dtd">
<!-- Created with matplotlib (http://matplotlib.sourceforge.net/) -->
<svg height="288pt" version="1.1" viewBox="0 0 432 288" width="432pt" xmlns="http://www.w3.org/2000/svg" xmlns:xlink="http://www.w3.org/1999/xlink">
 <defs>
  <style type="text/css">
*{stroke-linecap:square;stroke-linejoin:round;}
  </style>
 </defs>
 <g id="figure_1">
  <g id="patch_1">
   <path d="
M0 288
L432 288
L432 0
L0 0
z
" style="fill:#ffffff;"/>
  </g>
  <g id="axes_1">
   <g id="patch_2">
    <path d="
M46.1172 111.6
L401.941 111.6
L401.941 32
L46.1172 32
z
" style="fill:#ffffff;"/>
   </g>
   <g id="line2d_1">
    <path clip-path="url(#paafe9ad165)" d="
M56.7923 111.6
L56.7923 32" style="fill:none;stroke:#00ffff;stroke-dasharray:6.000000,6.000000;stroke-dashoffset:0.0;stroke-linecap:butt;"/>
   </g>
   <g id="line2d_2">
    <path clip-path="url(#paafe9ad165)" d="
M56.7923 111.6
L56.7923 32" style="fill:none;stroke:#00ffff;stroke-dasharray:6.000000,6.000000;stroke-dashoffset:0.0;stroke-linecap:butt;"/>
   </g>
   <g id="line2d_3">
    <path clip-path="url(#paafe9ad165)" d="
M78.1416 111.6
L78.1416 32" style="fill:none;stroke:#00ffff;stroke-dasharray:6.000000,6.000000;stroke-dashoffset:0.0;stroke-linecap:butt;"/>
   </g>
   <g id="line2d_4">
    <path clip-path="url(#paafe9ad165)" d="
M78.1416 111.6
L78.1416 32" style="fill:none;stroke:#00ffff;stroke-dasharray:6.000000,6.000000;stroke-dashoffset:0.0;stroke-linecap:butt;"/>
   </g>
   <g id="line2d_5">
    <path clip-path="url(#paafe9ad165)" d="
M78.1417 111.6
L78.1417 32" style="fill:none;stroke:#00ffff;stroke-dasharray:6.000000,6.000000;stroke-dashoffset:0.0;stroke-linecap:butt;"/>
   </g>
   <g id="line2d_6">
    <path clip-path="url(#paafe9ad165)" d="
M78.1417 111.6
L78.1417 32" style="fill:none;stroke:#00ffff;stroke-dasharray:6.000000,6.000000;stroke-dashoffset:0.0;stroke-linecap:butt;"/>
   </g>
   <g id="line2d_7">
    <path clip-path="url(#paafe9ad165)" d="
M99.4911 111.6
L99.4911 32" style="fill:none;stroke:#00ffff;stroke-dasharray:6.000000,6.000000;stroke-dashoffset:0.0;stroke-linecap:butt;"/>
   </g>
   <g id="line2d_8">
    <path clip-path="url(#paafe9ad165)" d="
M99.4911 111.6
L99.4911 32" style="fill:none;stroke:#00ffff;stroke-dasharray:6.000000,6.000000;stroke-dashoffset:0.0;stroke-linecap:butt;"/>
   </g>
   <g id="line2d_9">
    <path clip-path="url(#paafe9ad165)" d="
M99.4912 111.6
L99.4912 32" style="fill:none;stroke:#00ffff;stroke-dasharray:6.000000,6.000000;stroke-dashoffset:0.0;stroke-linecap:butt;"/>
   </g>
   <g id="line2d_10">
    <path clip-path="url(#paafe9ad165)" d="
M99.4912 111.6
L99.4912 32" style="fill:none;stroke:#00ffff;stroke-dasharray:6.000000,6.000000;stroke-dashoffset:0.0;stroke-linecap:butt;"/>
   </g>
   <g id="line2d_11">
    <path clip-path="url(#paafe9ad165)" d="
M120.841 111.6
L120.841 32" style="fill:none;stroke:#00ffff;stroke-dasharray:6.000000,6.000000;stroke-dashoffset:0.0;stroke-linecap:butt;"/>
   </g>
   <g id="line2d_12">
    <path clip-path="url(#paafe9ad165)" d="
M120.841 111.6
L120.841 32" style="fill:none;stroke:#00ffff;stroke-dasharray:6.000000,6.000000;stroke-dashoffset:0.0;stroke-linecap:butt;"/>
   </g>
   <g id="line2d_13">
    <path clip-path="url(#paafe9ad165)" d="
M120.841 111.6
L120.841 32" style="fill:none;stroke:#00ffff;stroke-dasharray:6.000000,6.000000;stroke-dashoffset:0.0;stroke-linecap:butt;"/>
   </g>
   <g id="line2d_14">
    <path clip-path="url(#paafe9ad165)" d="
M142.19 111.6
L142.19 32" style="fill:none;stroke:#00ffff;stroke-dasharray:6.000000,6.000000;stroke-dashoffset:0.0;stroke-linecap:butt;"/>
   </g>
   <g id="line2d_15">
    <path clip-path="url(#paafe9ad165)" d="
M163.539 111.6
L163.539 32" style="fill:none;stroke:#00ffff;stroke-dasharray:6.000000,6.000000;stroke-dashoffset:0.0;stroke-linecap:butt;"/>
   </g>
   <g id="line2d_16">
    <path clip-path="url(#paafe9ad165)" d="
M163.54 111.6
L163.54 32" style="fill:none;stroke:#00ffff;stroke-dasharray:6.000000,6.000000;stroke-dashoffset:0.0;stroke-linecap:butt;"/>
   </g>
   <g id="line2d_17">
    <path clip-path="url(#paafe9ad165)" d="
M163.54 111.6
L163.54 32" style="fill:none;stroke:#00ffff;stroke-dasharray:6.000000,6.000000;stroke-dashoffset:0.0;stroke-linecap:butt;"/>
   </g>
   <g id="line2d_18">
    <path clip-path="url(#paafe9ad165)" d="
M184.889 111.6
L184.889 32" style="fill:none;stroke:#00ffff;stroke-dasharray:6.000000,6.000000;stroke-dashoffset:0.0;stroke-linecap:butt;"/>
   </g>
   <g id="line2d_19">
    <path clip-path="url(#paafe9ad165)" d="
M184.889 111.6
L184.889 32" style="fill:none;stroke:#00ffff;stroke-dasharray:6.000000,6.000000;stroke-dashoffset:0.0;stroke-linecap:butt;"/>
   </g>
   <g id="line2d_20">
    <path clip-path="url(#paafe9ad165)" d="
M206.238 111.6
L206.238 32" style="fill:none;stroke:#00ffff;stroke-dasharray:6.000000,6.000000;stroke-dashoffset:0.0;stroke-linecap:butt;"/>
   </g>
   <g id="line2d_21">
    <path clip-path="url(#paafe9ad165)" d="
M206.239 111.6
L206.239 32" style="fill:none;stroke:#00ffff;stroke-dasharray:6.000000,6.000000;stroke-dashoffset:0.0;stroke-linecap:butt;"/>
   </g>
   <g id="line2d_22">
    <path clip-path="url(#paafe9ad165)" d="
M227.588 111.6
L227.588 32" style="fill:none;stroke:#00ffff;stroke-dasharray:6.000000,6.000000;stroke-dashoffset:0.0;stroke-linecap:butt;"/>
   </g>
   <g id="line2d_23">
    <path clip-path="url(#paafe9ad165)" d="
M248.937 111.6
L248.937 32" style="fill:none;stroke:#00ffff;stroke-dasharray:6.000000,6.000000;stroke-dashoffset:0.0;stroke-linecap:butt;"/>
   </g>
   <g id="line2d_24">
    <path clip-path="url(#paafe9ad165)" d="
M270.287 111.6
L270.287 32" style="fill:none;stroke:#00ffff;stroke-dasharray:6.000000,6.000000;stroke-dashoffset:0.0;stroke-linecap:butt;"/>
   </g>
   <g id="line2d_25">
    <path clip-path="url(#paafe9ad165)" d="
M291.78 111.6
L291.78 32" style="fill:none;stroke:#00ffff;stroke-dasharray:6.000000,6.000000;stroke-dashoffset:0.0;stroke-linecap:butt;"/>
   </g>
   <g id="line2d_26">
    <path clip-path="url(#paafe9ad165)" d="
M312.986 111.6
L312.986 32" style="fill:none;stroke:#00ffff;stroke-dasharray:6.000000,6.000000;stroke-dashoffset:0.0;stroke-linecap:butt;"/>
   </g>
   <g id="line2d_27">
    <path clip-path="url(#paafe9ad165)" d="
M312.986 111.6
L312.986 32" style="fill:none;stroke:#00ffff;stroke-dasharray:6.000000,6.000000;stroke-dashoffset:0.0;stroke-linecap:butt;"/>
   </g>
   <g id="line2d_28">
    <path clip-path="url(#paafe9ad165)" d="
M334.335 111.6
L334.335 32" style="fill:none;stroke:#00ffff;stroke-dasharray:6.000000,6.000000;stroke-dashoffset:0.0;stroke-linecap:butt;"/>
   </g>
   <g id="line2d_29">
    <path clip-path="url(#paafe9ad165)" d="
M355.686 111.6
L355.686 32" style="fill:none;stroke:#00ffff;stroke-dasharray:6.000000,6.000000;stroke-dashoffset:0.0;stroke-linecap:butt;"/>
   </g>
   <g id="line2d_30">
    <path clip-path="url(#paafe9ad165)" d="
M377.034 111.6
L377.034 32" style="fill:none;stroke:#00ffff;stroke-dasharray:6.000000,6.000000;stroke-dashoffset:0.0;stroke-linecap:butt;"/>
   </g>
   <g id="line2d_31">
    <path clip-path="url(#paafe9ad165)" d="
M46.1172 60.803
L46.1172 48.904
L46.7047 48.904
L46.7047 42.106
L47.2921 42.106
L47.2921 45.1627
L47.8796 45.1627
L47.8796 27.0058
L48.4671 27.0058
L48.4671 36.2819
L49.642 36.1855
L49.642 36.6098
L50.2295 36.6098
L50.2295 41.4118
L50.817 41.4118
L50.817 34.6331
L51.4044 34.6331
L51.4044 29.7925
L51.9919 29.7925
L51.9919 34.5077
L52.5794 34.5077
L52.5794 24.7494
L53.1668 24.7494
L53.1668 20.661
L53.7543 20.661
L53.7543 27.7
L54.3418 27.7
L54.3418 26.1765
L54.9292 26.1765
L54.9292 20.8249
L55.5167 20.8249
L55.5167 23.168
L56.1042 23.168
L56.1042 59.2023
L56.6917 59.2023
L56.6917 44.5456
L57.2791 44.5456
L57.2791 46.3681
L57.8666 46.3681
L57.8666 44.4781
L58.4541 44.4781
L58.4541 45.0856
L59.0415 45.0856
L59.0415 49.039
L59.629 49.039
L59.629 50.6011
L60.2165 50.6011
L60.2165 37.6415
L60.8039 37.6415
L60.8039 38.8372
L61.3914 38.8372
L61.3914 44.806
L61.9789 44.806
L61.9789 48.3737
L62.5664 48.3737
L62.5664 49.7526
L63.1538 49.7526
L63.1538 44.6613
L64.3288 44.6806
L64.3288 37.333
L64.9162 37.333
L64.9162 40.8043
L65.5037 40.8043
L65.5037 47.5155
L66.0912 47.5155
L66.0912 50.9386
L66.6787 50.9386
L66.6787 44.8349
L67.2661 44.8349
L67.2661 34.3534
L67.8536 34.3534
L67.8536 36.4651
L68.4411 36.4651
L68.4411 47.5927
L69.0285 47.5927
L69.0285 52.5779
L69.616 52.5779
L69.616 57.0327
L70.2035 57.0327
L70.2035 54.8728
L70.7909 54.8728
L70.7909 46.8984
L71.3784 46.8984
L71.3784 50.7458
L71.9659 50.7458
L71.9659 56.3867
L72.5534 56.3867
L72.5534 45.8666
L73.1408 45.8666
L73.1408 49.7526
L73.7283 49.7526
L73.7283 47.2359
L74.3158 47.2359
L74.3158 42.9642
L74.9032 42.9642
L74.9032 48.6148
L75.4907 48.6148
L75.4907 31.8367
L76.0782 31.8367
L76.0782 44.5842
L76.6657 44.5842
L76.6657 31.3835
L77.2531 31.3835
L77.2531 55.5285
L77.8406 55.5285
L77.8406 50.1961
L78.4281 50.1961
L78.4281 49.0198
L79.0155 49.0198
L79.0155 57.7559
L79.603 57.7559
L79.603 48.6244
L80.1905 48.6244
L80.1905 51.4111
L80.7779 51.4111
L80.7779 52.6068
L81.3654 52.6068
L81.3654 51.1604
L81.9529 51.1604
L81.9529 55.8853
L82.5404 55.8853
L82.5404 33.1481
L83.1278 33.1481
L83.1278 52.4236
L83.7153 52.4236
L83.7153 46.8116
L84.3028 46.8116
L84.3028 56.4831
L84.8902 56.4831
L84.8902 51.1122
L85.4777 51.1122
L85.4777 49.9744
L86.0652 49.9744
L86.0652 52.6261
L86.6526 52.6261
L86.6526 56.7242
L87.2401 56.7242
L87.2401 53.3203
L87.8276 53.3203
L87.8276 48.9137
L88.4151 48.9137
L88.4151 57.6884
L89.0025 57.6884
L89.0025 45.2206
L89.59 45.2206
L89.59 53.1275
L90.1775 53.1275
L90.1775 50.4083
L90.7649 50.4083
L90.7649 53.976
L91.3524 53.976
L91.3524 56.7145
L91.9399 56.7145
L91.9399 58.4695
L92.5274 58.4695
L92.5274 47.072
L93.1148 47.072
L93.1148 51.2954
L93.7023 51.2954
L93.7023 55.0464
L94.2898 55.0464
L94.2898 60.2823
L94.8772 60.2823
L94.8772 62.8761
L95.4647 62.8761
L95.4647 58.9902
L96.0522 58.9902
L96.0522 41.2671
L96.6396 41.2671
L96.6396 50.6783
L97.2271 50.6783
L97.2271 41.7975
L97.8146 41.7975
L97.8146 41.0164
L98.4021 41.0164
L98.4021 58.2573
L98.9895 58.2573
L98.9895 56.0878
L99.577 56.0878
L99.577 48.8173
L100.164 48.8173
L100.164 60.0798
L100.752 60.0798
L100.752 52.5489
L101.339 52.5489
L101.339 52.7514
L101.927 52.7514
L101.927 60.4751
L102.514 60.4751
L102.514 55.2971
L103.102 55.2971
L103.102 59.6844
L103.689 59.6844
L103.689 61.8154
L104.277 61.8154
L104.277 65.5664
L104.864 65.5664
L104.864 68.411
L105.452 68.411
L105.452 70.7348
L106.039 70.7348
L106.039 67.2924
L106.627 67.2924
L106.627 54.1978
L107.214 54.1978
L107.214 57.7752
L107.802 57.7752
L107.802 61.4105
L108.389 61.4105
L108.389 64.4286
L108.977 64.4286
L108.977 61.2465
L109.564 61.2465
L109.564 61.449
L110.151 61.449
L110.151 65.1903
L110.739 65.1903
L110.739 67.8517
L111.326 67.8517
L111.326 70.0598
L111.914 70.0598
L111.914 68.517
L112.501 68.517
L112.501 58.0066
L113.089 58.0066
L113.089 54.0242
L113.676 54.0242
L113.676 38.4419
L114.264 38.4419
L114.264 56.2324
L114.851 56.2324
L114.851 56.7531
L115.439 56.7531
L115.439 63.3486
L116.026 63.3486
L116.026 64.4575
L116.614 64.4575
L116.614 65.2193
L117.789 65.2868
L117.789 63.8886
L118.376 63.8886
L118.376 60.9765
L118.964 60.9765
L118.964 56.1649
L119.551 56.1649
L119.551 45.182
L120.138 45.182
L120.138 66.5885
L120.726 66.5885
L120.726 54.516
L121.313 54.516
L121.313 43.6778
L121.901 43.6778
L121.901 59.9448
L122.488 59.9448
L122.488 67.3406
L123.076 67.3406
L123.076 71.0144
L123.663 71.0144
L123.663 73.4926
L124.251 73.4926
L124.251 69.462
L124.838 69.462
L124.838 77.0796
L125.426 77.0796
L125.426 76.9543
L126.013 76.9543
L126.013 78.4681
L126.601 78.4681
L126.601 80.4256
L127.188 80.4256
L127.188 79.7699
L127.776 79.7699
L127.776 82.8941
L128.363 82.8941
L128.363 82.5855
L128.951 82.5855
L128.951 82.7591
L129.538 82.7591
L129.538 65.0264
L130.125 65.0264
L130.125 62.0083
L130.713 62.0083
L130.713 59.8966
L131.3 59.8966
L131.3 62.6254
L131.888 62.6254
L131.888 61.1694
L132.475 61.1694
L132.475 57.9681
L133.063 57.9681
L133.063 66.6753
L133.65 66.6753
L133.65 68.9895
L134.238 68.9895
L134.238 71.1784
L134.825 71.1784
L134.825 73.1262
L135.413 73.1262
L135.413 75.7586
L136 75.7586
L136 76.7903
L136.588 76.7903
L136.588 77.745
L137.175 77.745
L137.175 79.1335
L137.763 79.1335
L137.763 80.0592
L138.35 80.0592
L138.35 81.5441
L138.938 81.5441
L138.938 82.4505
L139.525 82.4505
L139.525 83.5787
L140.112 83.5787
L140.112 82.9423
L140.7 82.9423
L140.7 83.9066
L141.287 83.9066
L141.287 87.4357
L141.875 87.4357
L141.875 77.3689
L142.462 77.3689
L142.462 71.9016
L143.05 71.9016
L143.05 74.3411
L143.637 74.3411
L143.637 82.0359
L144.225 82.0359
L144.225 85.459
L144.812 85.459
L144.812 68.4399
L145.4 68.4399
L145.4 66.5982
L145.987 66.5982
L145.987 67.3888
L146.575 67.3888
L146.575 70.0309
L147.162 70.0309
L147.162 71.3327
L147.75 71.3327
L147.75 74.1965
L148.337 74.1965
L148.337 75.3247
L148.925 75.3247
L148.925 76.4914
L149.512 76.4914
L149.512 77.5425
L150.099 77.5425
L150.099 78.1403
L150.687 78.1403
L150.687 79.6638
L151.274 79.6638
L151.274 80.8402
L151.862 80.8402
L151.862 82.0745
L152.449 82.0745
L152.449 82.5855
L153.037 82.5855
L153.037 84.0512
L153.624 84.0512
L153.624 84.8419
L154.212 84.8419
L154.212 85.5072
L154.799 85.5072
L154.799 86.7222
L155.387 86.7222
L155.387 87.7154
L155.974 87.7154
L155.974 88.0818
L156.562 88.0818
L156.562 88.805
L157.149 88.805
L157.149 96.1719
L157.737 96.1719
L157.737 47.2166
L158.324 47.2166
L158.324 66.9839
L158.912 66.9839
L158.912 71.0337
L159.499 71.0337
L159.499 70.3395
L160.674 70.4455
L160.674 73.6565
L161.261 73.6565
L161.261 69.7513
L161.849 69.7513
L161.849 67.196
L162.436 67.196
L162.436 69.5391
L163.024 69.5391
L163.024 74.4665
L163.611 74.4665
L163.611 59.858
L164.199 59.858
L164.199 64.4961
L164.786 64.4961
L164.786 70.2238
L165.374 70.2238
L165.374 78.5549
L165.961 78.5549
L165.961 81.4091
L166.549 81.4091
L166.549 83.1737
L167.136 83.1737
L167.136 82.1516
L167.724 82.1516
L167.724 83.3569
L168.311 83.3569
L168.311 83.9837
L168.899 83.9837
L168.899 85.3722
L169.486 85.3722
L169.486 86.4522
L170.073 86.4522
L170.073 86.2883
L171.836 86.2497
L171.836 87.1561
L172.423 87.1561
L172.423 87.9854
L173.011 87.9854
L173.011 88.5832
L173.598 88.5832
L173.598 89.3642
L174.186 89.3642
L174.186 90.4056
L174.773 90.4056
L174.773 89.4028
L175.361 89.4028
L175.361 80.1749
L175.948 80.1749
L175.948 72.0944
L176.536 72.0944
L176.536 69.6163
L177.123 69.6163
L177.123 72.0751
L177.711 72.0751
L177.711 74.7365
L178.298 74.7365
L178.298 69.0281
L178.886 69.0281
L178.886 73.3576
L179.473 73.3576
L179.473 74.5822
L180.648 74.669
L180.648 74.7268
L181.235 74.7268
L181.235 71.8919
L181.823 71.8919
L181.823 73.4154
L182.41 73.4154
L182.41 67.0996
L182.998 67.0996
L182.998 67.7263
L183.585 67.7263
L183.585 70.6287
L184.173 70.6287
L184.173 74.9583
L184.76 74.9583
L184.76 66.2317
L185.348 66.2317
L185.348 61.7383
L185.935 61.7383
L185.935 60.4173
L186.523 60.4173
L186.523 66.6849
L187.11 66.6849
L187.11 71.6316
L187.698 71.6316
L187.698 77.8896
L188.285 77.8896
L188.285 80.4642
L188.873 80.4642
L188.873 82.3155
L189.46 82.3155
L189.46 83.8101
L190.047 83.8101
L190.047 85.1987
L190.635 85.1987
L190.635 83.9258
L191.222 83.9258
L191.222 85.2951
L191.81 85.2951
L191.81 86.5197
L192.397 86.5197
L192.397 86.1629
L192.985 86.1629
L192.985 89.586
L193.572 89.586
L193.572 87.8696
L194.747 87.86
L194.747 88.0721
L195.335 88.0721
L195.335 89.1039
L195.922 89.1039
L195.922 87.8022
L196.51 87.8022
L196.51 89.2003
L197.097 89.2003
L197.097 90.6467
L197.685 90.6467
L197.685 92.2281
L198.272 92.2281
L198.272 91.2253
L198.86 91.2253
L198.86 91.5435
L200.622 91.4567
L200.622 89.4317
L201.209 89.4317
L201.209 92.4402
L201.797 92.4402
L201.797 93.2116
L202.972 93.2116
L202.972 92.8549
L203.559 92.8549
L203.559 93.7709
L204.147 93.7709
L204.147 94.2145
L204.734 94.2145
L204.734 95.0534
L205.322 95.0534
L205.322 93.1056
L205.909 93.1056
L205.909 85.9508
L206.497 85.9508
L206.497 86.915
L207.084 86.915
L207.084 86.78
L207.672 86.78
L207.672 85.2662
L208.259 85.2662
L208.259 84.8612
L208.846 84.8612
L208.846 86.8765
L209.434 86.8765
L209.434 87.6961
L210.021 87.6961
L210.021 92.6041
L210.609 92.6041
L210.609 102.42
L211.196 102.42
L211.196 92.4499
L211.784 92.4499
L211.784 85.189
L212.371 85.189
L212.371 86.6933
L213.546 86.6354
L213.546 80.387
L214.134 80.387
L214.134 76.395
L214.721 76.395
L214.721 79.2974
L215.309 79.2974
L215.309 87.2911
L215.896 87.2911
L215.896 88.3903
L216.484 88.3903
L216.484 82.7977
L217.071 82.7977
L217.071 88.7953
L217.659 88.7953
L217.659 91.071
L218.246 91.071
L218.246 89.0268
L218.833 89.0268
L218.833 91.3217
L220.008 91.2445
L220.008 90.0296
L220.596 90.0296
L220.596 86.9247
L221.183 86.9247
L221.183 87.0404
L221.771 87.0404
L221.771 91.7749
L222.358 91.7749
L222.358 91.071
L222.946 91.071
L222.946 93.1345
L223.533 93.1345
L223.533 90.531
L224.121 90.531
L224.121 91.0999
L224.708 91.0999
L224.708 89.316
L225.296 89.316
L225.296 90.6274
L225.883 90.6274
L225.883 89.8849
L226.471 89.8849
L226.471 90.801
L227.058 90.801
L227.058 86.6065
L227.646 86.6065
L227.646 82.6434
L228.233 82.6434
L228.233 84.138
L228.82 84.138
L228.82 85.6133
L229.408 85.6133
L229.408 85.7676
L229.995 85.7676
L229.995 85.6229
L231.17 85.6808
L231.17 82.3445
L231.758 82.3445
L231.758 71.6412
L232.345 71.6412
L232.345 93.1731
L232.933 93.1731
L232.933 95.0148
L233.52 95.0148
L233.52 69.1824
L234.108 69.1824
L234.108 78.5549
L235.283 78.4585
L235.283 74.4183
L235.87 74.4183
L235.87 84.6394
L236.458 84.6394
L236.458 85.8736
L237.045 85.8736
L237.045 87.3682
L237.633 87.3682
L237.633 88.4482
L238.22 88.4482
L238.22 88.3036
L238.807 88.3036
L238.807 87.9564
L239.395 87.9564
L239.395 88.2361
L239.982 88.2361
L239.982 88.5543
L241.157 88.5639
L241.157 89.5282
L241.745 89.5282
L241.745 90.2514
L242.332 90.2514
L242.332 92.0834
L242.92 92.0834
L242.92 92.4402
L243.507 92.4402
L243.507 92.5945
L244.095 92.5945
L244.095 96.2201
L244.682 96.2201
L244.682 84.4948
L245.27 84.4948
L245.27 86.4522
L245.857 86.4522
L245.857 85.4976
L246.445 85.4976
L246.445 76.3854
L247.032 76.3854
L247.032 67.5142
L247.62 67.5142
L247.62 69.6645
L248.207 69.6645
L248.207 66.9935
L248.794 66.9935
L248.794 71.593
L249.382 71.593
L249.382 70.3588
L249.969 70.3588
L249.969 70.4937
L250.557 70.4937
L250.557 72.1716
L251.144 72.1716
L251.144 73.6083
L251.732 73.6083
L251.732 76.7325
L252.319 76.7325
L252.319 78.4778
L252.907 78.4778
L252.907 77.3689
L253.494 77.3689
L253.494 77.8896
L254.082 77.8896
L254.082 79.471
L254.669 79.471
L254.669 82.7977
L255.257 82.7977
L255.257 82.4505
L255.844 82.4505
L255.844 83.7908
L256.432 83.7908
L256.432 84.2248
L257.019 84.2248
L257.019 86.4425
L257.607 86.4425
L257.607 86.0665
L258.194 86.0665
L258.194 85.7386
L258.781 85.7386
L258.781 87.6286
L259.369 87.6286
L259.369 88.7953
L259.956 88.7953
L259.956 87.8022
L260.544 87.8022
L260.544 88.2554
L261.131 88.2554
L261.131 88.13
L261.719 88.13
L261.719 90.3478
L262.894 90.3092
L262.894 85.6326
L264.069 85.6615
L264.069 87.6575
L264.656 87.6575
L264.656 89.9332
L265.244 89.9332
L265.244 85.4976
L265.831 85.4976
L265.831 87.1079
L266.419 87.1079
L266.419 87.9082
L267.006 87.9082
L267.006 88.4771
L267.594 88.4771
L267.594 84.4465
L268.181 84.4465
L268.181 67.1863
L268.768 67.1863
L268.768 72.8658
L269.356 72.8658
L269.356 72.644
L269.943 72.644
L269.943 76.2889
L270.531 76.2889
L270.531 77.2243
L271.118 77.2243
L271.118 74.9004
L271.706 74.9004
L271.706 79.5192
L272.293 79.5192
L272.293 80.7727
L272.881 80.7727
L272.881 82.6241
L273.468 82.6241
L273.468 81.2356
L274.056 81.2356
L274.056 82.5855
L274.643 82.5855
L274.643 84.2151
L275.231 84.2151
L275.231 82.3541
L275.818 82.3541
L275.818 90.7335
L276.406 90.7335
L276.406 83.328
L276.993 83.328
L276.993 84.9383
L277.581 84.9383
L277.581 86.134
L278.168 86.134
L278.168 87.0307
L278.755 87.0307
L278.755 87.5418
L279.343 87.5418
L279.343 90.6563
L279.93 90.6563
L279.93 88.13
L280.518 88.13
L280.518 87.3007
L281.105 87.3007
L281.105 80.4159
L281.693 80.4159
L281.693 100.222
L282.28 100.222
L282.28 88.6121
L282.868 88.6121
L282.868 86.7318
L283.455 86.7318
L283.455 85.1408
L284.043 85.1408
L284.043 87.2332
L284.63 87.2332
L284.63 89.3064
L285.218 89.3064
L285.218 86.2883
L285.805 86.2883
L285.805 89.075
L286.393 89.075
L286.393 88.5736
L286.98 88.5736
L286.98 87.4261
L287.568 87.4261
L287.568 91.5628
L288.155 91.5628
L288.155 91.1963
L288.742 91.1963
L288.742 86.6354
L289.33 86.6354
L289.33 84.244
L289.917 84.244
L289.917 82.4891
L290.505 82.4891
L290.505 110.308
L291.092 110.308
L291.092 83.2894
L291.68 83.2894
L291.68 106.644
L292.267 106.644
L292.267 100.193
L292.855 100.193
L292.855 85.4879
L293.442 85.4879
L293.442 86.1243
L294.03 86.1243
L294.03 87.3297
L294.617 87.3297
L294.617 87.4936
L295.205 87.4936
L295.205 84.948
L295.792 84.948
L295.792 85.0733
L296.38 85.0733
L296.38 86.674
L296.967 86.674
L296.967 82.3541
L297.555 82.3541
L297.555 76.7518
L298.142 76.7518
L298.142 82.7784
L298.729 82.7784
L298.729 86.7608
L299.317 86.7608
L299.317 81.6791
L299.904 81.6791
L299.904 85.5554
L300.492 85.5554
L300.492 89.4221
L301.079 89.4221
L301.079 83.2605
L301.667 83.2605
L301.667 82.6337
L302.254 82.6337
L302.254 82.8459
L303.429 82.8555
L303.429 89.046
L304.017 89.046
L304.017 86.3654
L304.604 86.3654
L304.604 86.5968
L305.192 86.5968
L305.192 87.4743
L305.779 87.4743
L305.779 87.7443
L306.367 87.7443
L306.367 87.3007
L306.954 87.3007
L306.954 88.2071
L307.542 88.2071
L307.542 90.4153
L308.129 90.4153
L308.129 86.5583
L308.716 86.5583
L308.716 89.6342
L309.304 89.6342
L309.304 88.0239
L309.891 88.0239
L309.891 86.0472
L310.479 86.0472
L310.479 92.4884
L311.066 92.4884
L311.066 89.3546
L311.654 89.3546
L311.654 86.1629
L312.241 86.1629
L312.241 90.4924
L312.829 90.4924
L312.829 87.3779
L313.416 87.3779
L313.416 88.9014
L314.004 88.9014
L314.004 88.3807
L314.591 88.3807
L314.591 90.4056
L315.179 90.4056
L315.179 88.3903
L315.766 88.3903
L315.766 84.7069
L316.354 84.7069
L316.354 111.533
L316.941 111.533
L316.941 94.5519
L317.529 94.5519
L317.529 79.9049
L318.116 79.9049
L318.116 78.0824
L318.703 78.0824
L318.703 79.7217
L319.291 79.7217
L319.291 77.851
L319.878 77.851
L319.878 80.8884
L320.466 80.8884
L320.466 79.6445
L321.641 79.6156
L321.641 82.383
L322.228 82.383
L322.228 80.8499
L322.816 80.8499
L322.816 86.1147
L323.403 86.1147
L323.403 83.4244
L323.991 83.4244
L323.991 84.9383
L324.578 84.9383
L324.578 87.4357
L325.166 87.4357
L325.166 86.0858
L325.753 86.0858
L325.753 87.3875
L326.341 87.3875
L326.341 87.7636
L326.928 87.7636
L326.928 88.6218
L327.516 88.6218
L327.516 86.9729
L328.103 86.9729
L328.103 88.265
L328.69 88.265
L328.69 89.1907
L329.278 89.1907
L329.278 89.3064
L329.865 89.3064
L329.865 92.5463
L330.453 92.5463
L330.453 90.5214
L331.04 90.5214
L331.04 89.4317
L331.628 89.4317
L331.628 86.9247
L332.215 86.9247
L332.215 92.5849
L332.803 92.5849
L332.803 89.181
L333.39 89.181
L333.39 88.9785
L334.565 89.0075
L334.565 93.5105
L335.153 93.5105
L335.153 91.9388
L335.74 91.9388
L335.74 93.1923
L336.328 93.1923
L336.328 93.848
L336.915 93.848
L336.915 88.2939
L337.503 88.2939
L337.503 87.3972
L338.09 87.3972
L338.09 94.8123
L338.677 94.8123
L338.677 90.3285
L339.265 90.3285
L339.265 89.451
L339.852 89.451
L339.852 91.0228
L340.44 91.0228
L340.44 95.9212
L341.027 95.9212
L341.027 94.147
L341.615 94.147
L341.615 91.582
L342.202 91.582
L342.202 93.0091
L342.79 93.0091
L342.79 92.8741
L343.377 92.8741
L343.377 92.4499
L343.965 92.4499
L343.965 90.2514
L344.552 90.2514
L344.552 89.3064
L345.14 89.3064
L345.14 90.8685
L345.727 90.8685
L345.727 87.4647
L346.315 87.4647
L346.315 86.1726
L346.902 86.1726
L346.902 93.202
L347.49 93.202
L347.49 89.3257
L348.077 89.3257
L348.077 92.1413
L348.664 92.1413
L348.664 89.5378
L349.252 89.5378
L349.252 91.1288
L349.839 91.1288
L349.839 89.0846
L350.427 89.0846
L350.427 105.477
L351.014 105.477
L351.014 87.455
L351.602 87.455
L351.602 86.6933
L352.189 86.6933
L352.189 91.447
L352.777 91.447
L352.777 88.6314
L353.364 88.6314
L353.364 93.7613
L353.952 93.7613
L353.952 89.345
L354.539 89.345
L354.539 88.2361
L355.127 88.2361
L355.127 89.991
L355.714 89.991
L355.714 91.1288
L356.302 91.1288
L356.302 94.388
L356.889 94.388
L356.889 94.0216
L357.477 94.0216
L357.477 100.675
L358.064 100.675
L358.064 111.6
L358.651 111.6
L358.651 97.7629
L359.239 97.7629
L359.239 84.273
L359.826 84.273
L359.826 84.4755
L360.414 84.4755
L360.414 89.9428
L361.001 89.9428
L361.001 106.624
L361.589 106.624
L361.589 88.0143
L362.176 88.0143
L362.176 91.2928
L362.764 91.2928
L362.764 90.8492
L363.351 90.8492
L363.351 84.4273
L363.939 84.4273
L363.939 82.2384
L364.526 82.2384
L364.526 83.0098
L365.114 83.0098
L365.114 81.332
L365.701 81.332
L365.701 82.8652
L366.289 82.8652
L366.289 85.1794
L366.876 85.1794
L366.876 83.4726
L367.464 83.4726
L367.464 81.9105
L368.051 81.9105
L368.051 85.6519
L368.638 85.6519
L368.638 86.4618
L369.226 86.4618
L369.226 84.6105
L369.813 84.6105
L369.813 85.2951
L370.401 85.2951
L370.401 87.7347
L370.988 87.7347
L370.988 94.3109
L371.576 94.3109
L371.576 90.3767
L372.163 90.3767
L372.163 87.6189
L372.751 87.6189
L372.751 87.9564
L373.338 87.9564
L373.338 88.3036
L373.926 88.3036
L373.926 82.7302
L374.513 82.7302
L374.513 85.0637
L375.101 85.0637
L375.101 86.1822
L375.688 86.1822
L375.688 87.7154
L376.276 87.7154
L376.276 85.1312
L376.863 85.1312
L376.863 83.8198
L377.451 83.8198
L377.451 83.0677
L378.038 83.0677
L378.038 86.1726
L378.625 86.1726
L378.625 90.9746
L379.213 90.9746
L379.213 91.7267
L379.8 91.7267
L379.8 89.5089
L380.388 89.5089
L380.388 91.2831
L380.975 91.2831
L380.975 90.0585
L381.563 90.0585
L381.563 90.1742
L382.15 90.1742
L382.15 90.6949
L382.738 90.6949
L382.738 92.9127
L383.325 92.9127
L383.325 92.4402
L383.913 92.4402
L383.913 91.8231
L384.5 91.8231
L384.5 94.8027
L385.088 94.8027
L385.088 87.4454
L385.675 87.4454
L385.675 86.7125
L386.263 86.7125
L386.263 86.2786
L386.85 86.2786
L386.85 92.7488
L387.438 92.7488
L387.438 91.0228
L388.025 91.0228
L388.025 89.9332
L388.612 89.9332
L388.612 93.9155
L389.2 93.9155
L389.2 88.9689
L389.787 88.9689
L389.787 91.0035
L390.375 91.0035
L390.375 100.646
L390.962 100.646
L390.962 92.0931
L391.55 92.0931
L391.55 89.21
L392.137 89.21
L392.137 94.3398
L392.725 94.3398
L392.725 93.2598
L393.312 93.2598
L393.312 89.8078
L393.9 89.8078
L393.9 92.9802
L394.487 92.9802
L394.487 97.9558
L395.075 97.9558
L395.075 91.0421
L395.662 91.0421
L395.662 93.6552
L396.25 93.6552
L396.25 93.8673
L396.837 93.8673
L396.837 93.9927
L397.425 93.9927
L397.425 104.619
L398.012 104.619
L398.012 104.619" style="fill:none;stroke:#0000ff;"/>
   </g>
   <g id="matplotlib.axis_1">
    <g id="xtick_1">
     <g id="line2d_32">
      <defs>
       <path d="
M0 0
L0 -4" id="m0012dd4eef" style="stroke:#000000;stroke-linecap:butt;stroke-width:0.5;"/>
      </defs>
      <g>
       <use style="stroke:#000000;stroke-linecap:butt;stroke-width:0.5;" x="46.1171875" xlink:href="#m0012dd4eef" y="111.6"/>
      </g>
     </g>
     <g id="line2d_33">
      <defs>
       <path d="
M0 0
L0 4" id="m476344969c" style="stroke:#000000;stroke-linecap:butt;stroke-width:0.5;"/>
      </defs>
      <g>
       <use style="stroke:#000000;stroke-linecap:butt;stroke-width:0.5;" x="46.1171875" xlink:href="#m476344969c" y="32.0"/>
      </g>
     </g>
     <g id="text_1">
      <!-- 0 -->
      <defs>
       <path d="
M31.7812 66.4062
Q24.1719 66.4062 20.3281 58.9062
Q16.5 51.4219 16.5 36.375
Q16.5 21.3906 20.3281 13.8906
Q24.1719 6.39062 31.7812 6.39062
Q39.4531 6.39062 43.2812 13.8906
Q47.125 21.3906 47.125 36.375
Q47.125 51.4219 43.2812 58.9062
Q39.4531 66.4062 31.7812 66.4062
M31.7812 74.2188
Q44.0469 74.2188 50.5156 64.5156
Q56.9844 54.8281 56.9844 36.375
Q56.9844 17.9688 50.5156 8.26562
Q44.0469 -1.42188 31.7812 -1.42188
Q19.5312 -1.42188 13.0625 8.26562
Q6.59375 17.9688 6.59375 36.375
Q6.59375 54.8281 13.0625 64.5156
Q19.5312 74.2188 31.7812 74.2188" id="DejaVuSans-30"/>
      </defs>
      <g transform="translate(43.59765625 123.021875)scale(0.1 -0.1)">
       <use xlink:href="#DejaVuSans-30"/>
      </g>
     </g>
    </g>
    <g id="xtick_2">
     <g id="line2d_34">
      <g>
       <use style="stroke:#000000;stroke-linecap:butt;stroke-width:0.5;" x="135.073242188" xlink:href="#m0012dd4eef" y="111.6"/>
      </g>
     </g>
     <g id="line2d_35">
      <g>
       <use style="stroke:#000000;stroke-linecap:butt;stroke-width:0.5;" x="135.073242188" xlink:href="#m476344969c" y="32.0"/>
      </g>
     </g>
     <g id="text_2">
      <!-- 500 -->
      <defs>
       <path d="
M10.7969 72.9062
L49.5156 72.9062
L49.5156 64.5938
L19.8281 64.5938
L19.8281 46.7344
Q21.9688 47.4688 24.1094 47.8281
Q26.2656 48.1875 28.4219 48.1875
Q40.625 48.1875 47.75 41.5
Q54.8906 34.8125 54.8906 23.3906
Q54.8906 11.625 47.5625 5.09375
Q40.2344 -1.42188 26.9062 -1.42188
Q22.3125 -1.42188 17.5469 -0.640625
Q12.7969 0.140625 7.71875 1.70312
L7.71875 11.625
Q12.1094 9.23438 16.7969 8.0625
Q21.4844 6.89062 26.7031 6.89062
Q35.1562 6.89062 40.0781 11.3281
Q45.0156 15.7656 45.0156 23.3906
Q45.0156 31 40.0781 35.4375
Q35.1562 39.8906 26.7031 39.8906
Q22.75 39.8906 18.8125 39.0156
Q14.8906 38.1406 10.7969 36.2812
z
" id="DejaVuSans-35"/>
      </defs>
      <g transform="translate(126.247460938 123.021875)scale(0.1 -0.1)">
       <use xlink:href="#DejaVuSans-35"/>
       <use x="63.623046875" xlink:href="#DejaVuSans-30"/>
       <use x="127.24609375" xlink:href="#DejaVuSans-30"/>
      </g>
     </g>
    </g>
    <g id="xtick_3">
     <g id="line2d_36">
      <g>
       <use style="stroke:#000000;stroke-linecap:butt;stroke-width:0.5;" x="224.029296875" xlink:href="#m0012dd4eef" y="111.6"/>
      </g>
     </g>
     <g id="line2d_37">
      <g>
       <use style="stroke:#000000;stroke-linecap:butt;stroke-width:0.5;" x="224.029296875" xlink:href="#m476344969c" y="32.0"/>
      </g>
     </g>
     <g id="text_3">
      <!-- 1000 -->
      <defs>
       <path d="
M12.4062 8.29688
L28.5156 8.29688
L28.5156 63.9219
L10.9844 60.4062
L10.9844 69.3906
L28.4219 72.9062
L38.2812 72.9062
L38.2812 8.29688
L54.3906 8.29688
L54.3906 0
L12.4062 0
z
" id="DejaVuSans-31"/>
      </defs>
      <g transform="translate(212.185546875 123.021875)scale(0.1 -0.1)">
       <use xlink:href="#DejaVuSans-31"/>
       <use x="63.623046875" xlink:href="#DejaVuSans-30"/>
       <use x="127.24609375" xlink:href="#DejaVuSans-30"/>
       <use x="190.869140625" xlink:href="#DejaVuSans-30"/>
      </g>
     </g>
    </g>
    <g id="xtick_4">
     <g id="line2d_38">
      <g>
       <use style="stroke:#000000;stroke-linecap:butt;stroke-width:0.5;" x="312.985351563" xlink:href="#m0012dd4eef" y="111.6"/>
      </g>
     </g>
     <g id="line2d_39">
      <g>
       <use style="stroke:#000000;stroke-linecap:butt;stroke-width:0.5;" x="312.985351563" xlink:href="#m476344969c" y="32.0"/>
      </g>
     </g>
     <g id="text_4">
      <!-- 1500 -->
      <g transform="translate(301.141601563 123.021875)scale(0.1 -0.1)">
       <use xlink:href="#DejaVuSans-31"/>
       <use x="63.623046875" xlink:href="#DejaVuSans-35"/>
       <use x="127.24609375" xlink:href="#DejaVuSans-30"/>
       <use x="190.869140625" xlink:href="#DejaVuSans-30"/>
      </g>
     </g>
    </g>
    <g id="xtick_5">
     <g id="line2d_40">
      <g>
       <use style="stroke:#000000;stroke-linecap:butt;stroke-width:0.5;" x="401.94140625" xlink:href="#m0012dd4eef" y="111.6"/>
      </g>
     </g>
     <g id="line2d_41">
      <g>
       <use style="stroke:#000000;stroke-linecap:butt;stroke-width:0.5;" x="401.94140625" xlink:href="#m476344969c" y="32.0"/>
      </g>
     </g>
     <g id="text_5">
      <!-- 2000 -->
      <defs>
       <path d="
M19.1875 8.29688
L53.6094 8.29688
L53.6094 0
L7.32812 0
L7.32812 8.29688
Q12.9375 14.1094 22.625 23.8906
Q32.3281 33.6875 34.8125 36.5312
Q39.5469 41.8438 41.4219 45.5312
Q43.3125 49.2188 43.3125 52.7812
Q43.3125 58.5938 39.2344 62.25
Q35.1562 65.9219 28.6094 65.9219
Q23.9688 65.9219 18.8125 64.3125
Q13.6719 62.7031 7.8125 59.4219
L7.8125 69.3906
Q13.7656 71.7812 18.9375 73
Q24.125 74.2188 28.4219 74.2188
Q39.75 74.2188 46.4844 68.5469
Q53.2188 62.8906 53.2188 53.4219
Q53.2188 48.9219 51.5312 44.8906
Q49.8594 40.875 45.4062 35.4062
Q44.1875 33.9844 37.6406 27.2188
Q31.1094 20.4531 19.1875 8.29688" id="DejaVuSans-32"/>
      </defs>
      <g transform="translate(389.91484375 123.021875)scale(0.1 -0.1)">
       <use xlink:href="#DejaVuSans-32"/>
       <use x="63.623046875" xlink:href="#DejaVuSans-30"/>
       <use x="127.24609375" xlink:href="#DejaVuSans-30"/>
       <use x="190.869140625" xlink:href="#DejaVuSans-30"/>
      </g>
     </g>
    </g>
    <g id="text_6">
     <!-- Time -->
     <defs>
      <path d="
M52 44.1875
Q55.375 50.25 60.0625 53.125
Q64.75 56 71.0938 56
Q79.6406 56 84.2812 50.0156
Q88.9219 44.0469 88.9219 33.0156
L88.9219 0
L79.8906 0
L79.8906 32.7188
Q79.8906 40.5781 77.0938 44.375
Q74.3125 48.1875 68.6094 48.1875
Q61.625 48.1875 57.5625 43.5469
Q53.5156 38.9219 53.5156 30.9062
L53.5156 0
L44.4844 0
L44.4844 32.7188
Q44.4844 40.625 41.7031 44.4062
Q38.9219 48.1875 33.1094 48.1875
Q26.2188 48.1875 22.1562 43.5312
Q18.1094 38.875 18.1094 30.9062
L18.1094 0
L9.07812 0
L9.07812 54.6875
L18.1094 54.6875
L18.1094 46.1875
Q21.1875 51.2188 25.4844 53.6094
Q29.7812 56 35.6875 56
Q41.6562 56 45.8281 52.9688
Q50 49.9531 52 44.1875" id="DejaVuSans-6d"/>
      <path d="
M9.42188 54.6875
L18.4062 54.6875
L18.4062 0
L9.42188 0
z

M9.42188 75.9844
L18.4062 75.9844
L18.4062 64.5938
L9.42188 64.5938
z
" id="DejaVuSans-69"/>
      <path d="
M56.2031 29.5938
L56.2031 25.2031
L14.8906 25.2031
Q15.4844 15.9219 20.4844 11.0625
Q25.4844 6.20312 34.4219 6.20312
Q39.5938 6.20312 44.4531 7.46875
Q49.3125 8.73438 54.1094 11.2812
L54.1094 2.78125
Q49.2656 0.734375 44.1875 -0.34375
Q39.1094 -1.42188 33.8906 -1.42188
Q20.7969 -1.42188 13.1562 6.1875
Q5.51562 13.8125 5.51562 26.8125
Q5.51562 40.2344 12.7656 48.1094
Q20.0156 56 32.3281 56
Q43.3594 56 49.7812 48.8906
Q56.2031 41.7969 56.2031 29.5938
M47.2188 32.2344
Q47.125 39.5938 43.0938 43.9844
Q39.0625 48.3906 32.4219 48.3906
Q24.9062 48.3906 20.3906 44.1406
Q15.875 39.8906 15.1875 32.1719
z
" id="DejaVuSans-65"/>
      <path d="
M-0.296875 72.9062
L61.375 72.9062
L61.375 64.5938
L35.5 64.5938
L35.5 0
L25.5938 0
L25.5938 64.5938
L-0.296875 64.5938
z
" id="DejaVuSans-54"/>
     </defs>
     <g transform="translate(212.047265625 135.7625)scale(0.1 -0.1)">
      <use xlink:href="#DejaVuSans-54"/>
      <use x="57.958984375" xlink:href="#DejaVuSans-69"/>
      <use x="85.7421875" xlink:href="#DejaVuSans-6d"/>
      <use x="183.154296875" xlink:href="#DejaVuSans-65"/>
     </g>
    </g>
   </g>
   <g id="matplotlib.axis_2">
    <g id="ytick_1">
     <g id="line2d_42">
      <defs>
       <path d="
M0 0
L4 0" id="me8a85f7bf6" style="stroke:#000000;stroke-linecap:butt;stroke-width:0.5;"/>
      </defs>
      <g>
       <use style="stroke:#000000;stroke-linecap:butt;stroke-width:0.5;" x="46.1171875" xlink:href="#me8a85f7bf6" y="111.6"/>
      </g>
     </g>
     <g id="line2d_43">
      <defs>
       <path d="
M0 0
L-4 0" id="m1a32005dea" style="stroke:#000000;stroke-linecap:butt;stroke-width:0.5;"/>
      </defs>
      <g>
       <use style="stroke:#000000;stroke-linecap:butt;stroke-width:0.5;" x="401.94140625" xlink:href="#m1a32005dea" y="111.6"/>
      </g>
     </g>
     <g id="text_7">
      <!-- 0 -->
      <g transform="translate(37.078125 115.23984375)scale(0.1 -0.1)">
       <use xlink:href="#DejaVuSans-30"/>
      </g>
     </g>
    </g>
    <g id="ytick_2">
     <g id="line2d_44">
      <g>
       <use style="stroke:#000000;stroke-linecap:butt;stroke-width:0.5;" x="46.1171875" xlink:href="#me8a85f7bf6" y="95.68"/>
      </g>
     </g>
     <g id="line2d_45">
      <g>
       <use style="stroke:#000000;stroke-linecap:butt;stroke-width:0.5;" x="401.94140625" xlink:href="#m1a32005dea" y="95.68"/>
      </g>
     </g>
     <g id="text_8">
      <!-- 500 -->
      <g transform="translate(24.465625 99.31984375)scale(0.1 -0.1)">
       <use xlink:href="#DejaVuSans-35"/>
       <use x="63.623046875" xlink:href="#DejaVuSans-30"/>
       <use x="127.24609375" xlink:href="#DejaVuSans-30"/>
      </g>
     </g>
    </g>
    <g id="ytick_3">
     <g id="line2d_46">
      <g>
       <use style="stroke:#000000;stroke-linecap:butt;stroke-width:0.5;" x="46.1171875" xlink:href="#me8a85f7bf6" y="79.76"/>
      </g>
     </g>
     <g id="line2d_47">
      <g>
       <use style="stroke:#000000;stroke-linecap:butt;stroke-width:0.5;" x="401.94140625" xlink:href="#m1a32005dea" y="79.76"/>
      </g>
     </g>
     <g id="text_9">
      <!-- 1000 -->
      <g transform="translate(18.4296875 83.39984375)scale(0.1 -0.1)">
       <use xlink:href="#DejaVuSans-31"/>
       <use x="63.623046875" xlink:href="#DejaVuSans-30"/>
       <use x="127.24609375" xlink:href="#DejaVuSans-30"/>
       <use x="190.869140625" xlink:href="#DejaVuSans-30"/>
      </g>
     </g>
    </g>
    <g id="ytick_4">
     <g id="line2d_48">
      <g>
       <use style="stroke:#000000;stroke-linecap:butt;stroke-width:0.5;" x="46.1171875" xlink:href="#me8a85f7bf6" y="63.84"/>
      </g>
     </g>
     <g id="line2d_49">
      <g>
       <use style="stroke:#000000;stroke-linecap:butt;stroke-width:0.5;" x="401.94140625" xlink:href="#m1a32005dea" y="63.84"/>
      </g>
     </g>
     <g id="text_10">
      <!-- 1500 -->
      <g transform="translate(18.4296875 67.47984375)scale(0.1 -0.1)">
       <use xlink:href="#DejaVuSans-31"/>
       <use x="63.623046875" xlink:href="#DejaVuSans-35"/>
       <use x="127.24609375" xlink:href="#DejaVuSans-30"/>
       <use x="190.869140625" xlink:href="#DejaVuSans-30"/>
      </g>
     </g>
    </g>
    <g id="ytick_5">
     <g id="line2d_50">
      <g>
       <use style="stroke:#000000;stroke-linecap:butt;stroke-width:0.5;" x="46.1171875" xlink:href="#me8a85f7bf6" y="47.92"/>
      </g>
     </g>
     <g id="line2d_51">
      <g>
       <use style="stroke:#000000;stroke-linecap:butt;stroke-width:0.5;" x="401.94140625" xlink:href="#m1a32005dea" y="47.92"/>
      </g>
     </g>
     <g id="text_11">
      <!-- 2000 -->
      <g transform="translate(18.0640625 51.55984375)scale(0.1 -0.1)">
       <use xlink:href="#DejaVuSans-32"/>
       <use x="63.623046875" xlink:href="#DejaVuSans-30"/>
       <use x="127.24609375" xlink:href="#DejaVuSans-30"/>
       <use x="190.869140625" xlink:href="#DejaVuSans-30"/>
      </g>
     </g>
    </g>
    <g id="ytick_6">
     <g id="line2d_52">
      <g>
       <use style="stroke:#000000;stroke-linecap:butt;stroke-width:0.5;" x="46.1171875" xlink:href="#me8a85f7bf6" y="32.0"/>
      </g>
     </g>
     <g id="line2d_53">
      <g>
       <use style="stroke:#000000;stroke-linecap:butt;stroke-width:0.5;" x="401.94140625" xlink:href="#m1a32005dea" y="32.0"/>
      </g>
     </g>
     <g id="text_12">
      <!-- 2500 -->
      <g transform="translate(18.0640625 35.63984375)scale(0.1 -0.1)">
       <use xlink:href="#DejaVuSans-32"/>
       <use x="63.623046875" xlink:href="#DejaVuSans-35"/>
       <use x="127.24609375" xlink:href="#DejaVuSans-30"/>
       <use x="190.869140625" xlink:href="#DejaVuSans-30"/>
      </g>
     </g>
    </g>
   </g>
   <g id="patch_3">
    <path d="
M46.1172 32
L401.941 32" style="fill:none;stroke:#000000;"/>
   </g>
   <g id="patch_4">
    <path d="
M401.941 111.6
L401.941 32" style="fill:none;stroke:#000000;"/>
   </g>
   <g id="patch_5">
    <path d="
M46.1172 111.6
L401.941 111.6" style="fill:none;stroke:#000000;"/>
   </g>
   <g id="patch_6">
    <path d="
M46.1172 111.6
L46.1172 32" style="fill:none;stroke:#000000;"/>
   </g>
   <g id="text_13">
    <!-- OLTP -->
    <defs>
     <path d="
M39.4062 66.2188
Q28.6562 66.2188 22.3281 58.2031
Q16.0156 50.2031 16.0156 36.375
Q16.0156 22.6094 22.3281 14.5938
Q28.6562 6.59375 39.4062 6.59375
Q50.1406 6.59375 56.4219 14.5938
Q62.7031 22.6094 62.7031 36.375
Q62.7031 50.2031 56.4219 58.2031
Q50.1406 66.2188 39.4062 66.2188
M39.4062 74.2188
Q54.7344 74.2188 63.9062 63.9375
Q73.0938 53.6562 73.0938 36.375
Q73.0938 19.1406 63.9062 8.85938
Q54.7344 -1.42188 39.4062 -1.42188
Q24.0312 -1.42188 14.8125 8.82812
Q5.60938 19.0938 5.60938 36.375
Q5.60938 53.6562 14.8125 63.9375
Q24.0312 74.2188 39.4062 74.2188" id="DejaVuSans-4f"/>
     <path d="
M19.6719 64.7969
L19.6719 37.4062
L32.0781 37.4062
Q38.9688 37.4062 42.7188 40.9688
Q46.4844 44.5312 46.4844 51.125
Q46.4844 57.6719 42.7188 61.2344
Q38.9688 64.7969 32.0781 64.7969
z

M9.8125 72.9062
L32.0781 72.9062
Q44.3438 72.9062 50.6094 67.3594
Q56.8906 61.8125 56.8906 51.125
Q56.8906 40.3281 50.6094 34.8125
Q44.3438 29.2969 32.0781 29.2969
L19.6719 29.2969
L19.6719 0
L9.8125 0
z
" id="DejaVuSans-50"/>
     <path d="
M9.8125 72.9062
L19.6719 72.9062
L19.6719 8.29688
L55.1719 8.29688
L55.1719 0
L9.8125 0
z
" id="DejaVuSans-4c"/>
    </defs>
    <g transform="translate(210.046484375 27.0)scale(0.12 -0.12)">
     <use xlink:href="#DejaVuSans-4f"/>
     <use x="78.7109375" xlink:href="#DejaVuSans-4c"/>
     <use x="120.673828125" xlink:href="#DejaVuSans-54"/>
     <use x="181.7578125" xlink:href="#DejaVuSans-50"/>
    </g>
   </g>
  </g>
  <g id="axes_2">
   <g id="patch_7">
    <path d="
M46.1172 246.6
L401.941 246.6
L401.941 167
L46.1172 167
z
" style="fill:#ffffff;"/>
   </g>
   <g id="line2d_54">
    <path clip-path="url(#pe9bd9c4693)" d="
M56.7923 246.6
L56.7923 167" style="fill:none;stroke:#00ffff;stroke-dasharray:6.000000,6.000000;stroke-dashoffset:0.0;stroke-linecap:butt;"/>
   </g>
   <g id="line2d_55">
    <path clip-path="url(#pe9bd9c4693)" d="
M56.7923 246.6
L56.7923 167" style="fill:none;stroke:#00ffff;stroke-dasharray:6.000000,6.000000;stroke-dashoffset:0.0;stroke-linecap:butt;"/>
   </g>
   <g id="line2d_56">
    <path clip-path="url(#pe9bd9c4693)" d="
M78.1416 246.6
L78.1416 167" style="fill:none;stroke:#00ffff;stroke-dasharray:6.000000,6.000000;stroke-dashoffset:0.0;stroke-linecap:butt;"/>
   </g>
   <g id="line2d_57">
    <path clip-path="url(#pe9bd9c4693)" d="
M78.1416 246.6
L78.1416 167" style="fill:none;stroke:#00ffff;stroke-dasharray:6.000000,6.000000;stroke-dashoffset:0.0;stroke-linecap:butt;"/>
   </g>
   <g id="line2d_58">
    <path clip-path="url(#pe9bd9c4693)" d="
M78.1417 246.6
L78.1417 167" style="fill:none;stroke:#00ffff;stroke-dasharray:6.000000,6.000000;stroke-dashoffset:0.0;stroke-linecap:butt;"/>
   </g>
   <g id="line2d_59">
    <path clip-path="url(#pe9bd9c4693)" d="
M78.1417 246.6
L78.1417 167" style="fill:none;stroke:#00ffff;stroke-dasharray:6.000000,6.000000;stroke-dashoffset:0.0;stroke-linecap:butt;"/>
   </g>
   <g id="line2d_60">
    <path clip-path="url(#pe9bd9c4693)" d="
M99.4911 246.6
L99.4911 167" style="fill:none;stroke:#00ffff;stroke-dasharray:6.000000,6.000000;stroke-dashoffset:0.0;stroke-linecap:butt;"/>
   </g>
   <g id="line2d_61">
    <path clip-path="url(#pe9bd9c4693)" d="
M99.4911 246.6
L99.4911 167" style="fill:none;stroke:#00ffff;stroke-dasharray:6.000000,6.000000;stroke-dashoffset:0.0;stroke-linecap:butt;"/>
   </g>
   <g id="line2d_62">
    <path clip-path="url(#pe9bd9c4693)" d="
M99.4912 246.6
L99.4912 167" style="fill:none;stroke:#00ffff;stroke-dasharray:6.000000,6.000000;stroke-dashoffset:0.0;stroke-linecap:butt;"/>
   </g>
   <g id="line2d_63">
    <path clip-path="url(#pe9bd9c4693)" d="
M99.4912 246.6
L99.4912 167" style="fill:none;stroke:#00ffff;stroke-dasharray:6.000000,6.000000;stroke-dashoffset:0.0;stroke-linecap:butt;"/>
   </g>
   <g id="line2d_64">
    <path clip-path="url(#pe9bd9c4693)" d="
M120.841 246.6
L120.841 167" style="fill:none;stroke:#00ffff;stroke-dasharray:6.000000,6.000000;stroke-dashoffset:0.0;stroke-linecap:butt;"/>
   </g>
   <g id="line2d_65">
    <path clip-path="url(#pe9bd9c4693)" d="
M120.841 246.6
L120.841 167" style="fill:none;stroke:#00ffff;stroke-dasharray:6.000000,6.000000;stroke-dashoffset:0.0;stroke-linecap:butt;"/>
   </g>
   <g id="line2d_66">
    <path clip-path="url(#pe9bd9c4693)" d="
M120.841 246.6
L120.841 167" style="fill:none;stroke:#00ffff;stroke-dasharray:6.000000,6.000000;stroke-dashoffset:0.0;stroke-linecap:butt;"/>
   </g>
   <g id="line2d_67">
    <path clip-path="url(#pe9bd9c4693)" d="
M142.19 246.6
L142.19 167" style="fill:none;stroke:#00ffff;stroke-dasharray:6.000000,6.000000;stroke-dashoffset:0.0;stroke-linecap:butt;"/>
   </g>
   <g id="line2d_68">
    <path clip-path="url(#pe9bd9c4693)" d="
M163.539 246.6
L163.539 167" style="fill:none;stroke:#00ffff;stroke-dasharray:6.000000,6.000000;stroke-dashoffset:0.0;stroke-linecap:butt;"/>
   </g>
   <g id="line2d_69">
    <path clip-path="url(#pe9bd9c4693)" d="
M163.54 246.6
L163.54 167" style="fill:none;stroke:#00ffff;stroke-dasharray:6.000000,6.000000;stroke-dashoffset:0.0;stroke-linecap:butt;"/>
   </g>
   <g id="line2d_70">
    <path clip-path="url(#pe9bd9c4693)" d="
M163.54 246.6
L163.54 167" style="fill:none;stroke:#00ffff;stroke-dasharray:6.000000,6.000000;stroke-dashoffset:0.0;stroke-linecap:butt;"/>
   </g>
   <g id="line2d_71">
    <path clip-path="url(#pe9bd9c4693)" d="
M184.889 246.6
L184.889 167" style="fill:none;stroke:#00ffff;stroke-dasharray:6.000000,6.000000;stroke-dashoffset:0.0;stroke-linecap:butt;"/>
   </g>
   <g id="line2d_72">
    <path clip-path="url(#pe9bd9c4693)" d="
M184.889 246.6
L184.889 167" style="fill:none;stroke:#00ffff;stroke-dasharray:6.000000,6.000000;stroke-dashoffset:0.0;stroke-linecap:butt;"/>
   </g>
   <g id="line2d_73">
    <path clip-path="url(#pe9bd9c4693)" d="
M206.238 246.6
L206.238 167" style="fill:none;stroke:#00ffff;stroke-dasharray:6.000000,6.000000;stroke-dashoffset:0.0;stroke-linecap:butt;"/>
   </g>
   <g id="line2d_74">
    <path clip-path="url(#pe9bd9c4693)" d="
M206.239 246.6
L206.239 167" style="fill:none;stroke:#00ffff;stroke-dasharray:6.000000,6.000000;stroke-dashoffset:0.0;stroke-linecap:butt;"/>
   </g>
   <g id="line2d_75">
    <path clip-path="url(#pe9bd9c4693)" d="
M227.588 246.6
L227.588 167" style="fill:none;stroke:#00ffff;stroke-dasharray:6.000000,6.000000;stroke-dashoffset:0.0;stroke-linecap:butt;"/>
   </g>
   <g id="line2d_76">
    <path clip-path="url(#pe9bd9c4693)" d="
M248.937 246.6
L248.937 167" style="fill:none;stroke:#00ffff;stroke-dasharray:6.000000,6.000000;stroke-dashoffset:0.0;stroke-linecap:butt;"/>
   </g>
   <g id="line2d_77">
    <path clip-path="url(#pe9bd9c4693)" d="
M270.287 246.6
L270.287 167" style="fill:none;stroke:#00ffff;stroke-dasharray:6.000000,6.000000;stroke-dashoffset:0.0;stroke-linecap:butt;"/>
   </g>
   <g id="line2d_78">
    <path clip-path="url(#pe9bd9c4693)" d="
M291.78 246.6
L291.78 167" style="fill:none;stroke:#00ffff;stroke-dasharray:6.000000,6.000000;stroke-dashoffset:0.0;stroke-linecap:butt;"/>
   </g>
   <g id="line2d_79">
    <path clip-path="url(#pe9bd9c4693)" d="
M312.986 246.6
L312.986 167" style="fill:none;stroke:#00ffff;stroke-dasharray:6.000000,6.000000;stroke-dashoffset:0.0;stroke-linecap:butt;"/>
   </g>
   <g id="line2d_80">
    <path clip-path="url(#pe9bd9c4693)" d="
M312.986 246.6
L312.986 167" style="fill:none;stroke:#00ffff;stroke-dasharray:6.000000,6.000000;stroke-dashoffset:0.0;stroke-linecap:butt;"/>
   </g>
   <g id="line2d_81">
    <path clip-path="url(#pe9bd9c4693)" d="
M334.335 246.6
L334.335 167" style="fill:none;stroke:#00ffff;stroke-dasharray:6.000000,6.000000;stroke-dashoffset:0.0;stroke-linecap:butt;"/>
   </g>
   <g id="line2d_82">
    <path clip-path="url(#pe9bd9c4693)" d="
M355.686 246.6
L355.686 167" style="fill:none;stroke:#00ffff;stroke-dasharray:6.000000,6.000000;stroke-dashoffset:0.0;stroke-linecap:butt;"/>
   </g>
   <g id="line2d_83">
    <path clip-path="url(#pe9bd9c4693)" d="
M377.034 246.6
L377.034 167" style="fill:none;stroke:#00ffff;stroke-dasharray:6.000000,6.000000;stroke-dashoffset:0.0;stroke-linecap:butt;"/>
   </g>
   <g id="line2d_84">
    <path clip-path="url(#pe9bd9c4693)" d="
M56.7922 237.502
L56.7922 233.789
L76.8643 233.789
L76.8643 232.86
L96.9364 232.86
L96.9364 234.531
L117.008 234.531
L117.008 237.502
L137.081 237.502
L137.081 236.202
L157.153 236.202
L157.153 236.945
L177.225 236.945
L177.225 237.873
L197.297 237.873
L197.297 235.645
L217.369 235.645
L217.369 229.89
L237.441 229.89
L237.441 232.489
L257.513 232.489
L257.513 233.046
L277.585 233.046
L277.585 237.316
L297.657 237.316
L297.657 229.704
L317.729 229.704
L317.729 235.274
L337.801 235.274
L337.801 232.489
L357.873 232.489
L357.873 238.059
L377.946 238.059" style="fill:none;stroke:#008000;"/>
   </g>
   <g id="matplotlib.axis_3">
    <g id="xtick_6">
     <g id="line2d_85">
      <g>
       <use style="stroke:#000000;stroke-linecap:butt;stroke-width:0.5;" x="46.1171875" xlink:href="#m0012dd4eef" y="246.6"/>
      </g>
     </g>
     <g id="line2d_86">
      <g>
       <use style="stroke:#000000;stroke-linecap:butt;stroke-width:0.5;" x="46.1171875" xlink:href="#m476344969c" y="167.0"/>
      </g>
     </g>
     <g id="text_14">
      <!-- 0 -->
      <g transform="translate(43.59765625 258.021875)scale(0.1 -0.1)">
       <use xlink:href="#DejaVuSans-30"/>
      </g>
     </g>
    </g>
    <g id="xtick_7">
     <g id="line2d_87">
      <g>
       <use style="stroke:#000000;stroke-linecap:butt;stroke-width:0.5;" x="135.073242188" xlink:href="#m0012dd4eef" y="246.6"/>
      </g>
     </g>
     <g id="line2d_88">
      <g>
       <use style="stroke:#000000;stroke-linecap:butt;stroke-width:0.5;" x="135.073242188" xlink:href="#m476344969c" y="167.0"/>
      </g>
     </g>
     <g id="text_15">
      <!-- 500 -->
      <g transform="translate(126.247460938 258.021875)scale(0.1 -0.1)">
       <use xlink:href="#DejaVuSans-35"/>
       <use x="63.623046875" xlink:href="#DejaVuSans-30"/>
       <use x="127.24609375" xlink:href="#DejaVuSans-30"/>
      </g>
     </g>
    </g>
    <g id="xtick_8">
     <g id="line2d_89">
      <g>
       <use style="stroke:#000000;stroke-linecap:butt;stroke-width:0.5;" x="224.029296875" xlink:href="#m0012dd4eef" y="246.6"/>
      </g>
     </g>
     <g id="line2d_90">
      <g>
       <use style="stroke:#000000;stroke-linecap:butt;stroke-width:0.5;" x="224.029296875" xlink:href="#m476344969c" y="167.0"/>
      </g>
     </g>
     <g id="text_16">
      <!-- 1000 -->
      <g transform="translate(212.185546875 258.021875)scale(0.1 -0.1)">
       <use xlink:href="#DejaVuSans-31"/>
       <use x="63.623046875" xlink:href="#DejaVuSans-30"/>
       <use x="127.24609375" xlink:href="#DejaVuSans-30"/>
       <use x="190.869140625" xlink:href="#DejaVuSans-30"/>
      </g>
     </g>
    </g>
    <g id="xtick_9">
     <g id="line2d_91">
      <g>
       <use style="stroke:#000000;stroke-linecap:butt;stroke-width:0.5;" x="312.985351563" xlink:href="#m0012dd4eef" y="246.6"/>
      </g>
     </g>
     <g id="line2d_92">
      <g>
       <use style="stroke:#000000;stroke-linecap:butt;stroke-width:0.5;" x="312.985351563" xlink:href="#m476344969c" y="167.0"/>
      </g>
     </g>
     <g id="text_17">
      <!-- 1500 -->
      <g transform="translate(301.141601563 258.021875)scale(0.1 -0.1)">
       <use xlink:href="#DejaVuSans-31"/>
       <use x="63.623046875" xlink:href="#DejaVuSans-35"/>
       <use x="127.24609375" xlink:href="#DejaVuSans-30"/>
       <use x="190.869140625" xlink:href="#DejaVuSans-30"/>
      </g>
     </g>
    </g>
    <g id="xtick_10">
     <g id="line2d_93">
      <g>
       <use style="stroke:#000000;stroke-linecap:butt;stroke-width:0.5;" x="401.94140625" xlink:href="#m0012dd4eef" y="246.6"/>
      </g>
     </g>
     <g id="line2d_94">
      <g>
       <use style="stroke:#000000;stroke-linecap:butt;stroke-width:0.5;" x="401.94140625" xlink:href="#m476344969c" y="167.0"/>
      </g>
     </g>
     <g id="text_18">
      <!-- 2000 -->
      <g transform="translate(389.91484375 258.021875)scale(0.1 -0.1)">
       <use xlink:href="#DejaVuSans-32"/>
       <use x="63.623046875" xlink:href="#DejaVuSans-30"/>
       <use x="127.24609375" xlink:href="#DejaVuSans-30"/>
       <use x="190.869140625" xlink:href="#DejaVuSans-30"/>
      </g>
     </g>
    </g>
    <g id="text_19">
     <!-- Time -->
     <g transform="translate(212.047265625 270.7625)scale(0.1 -0.1)">
      <use xlink:href="#DejaVuSans-54"/>
      <use x="57.958984375" xlink:href="#DejaVuSans-69"/>
      <use x="85.7421875" xlink:href="#DejaVuSans-6d"/>
      <use x="183.154296875" xlink:href="#DejaVuSans-65"/>
     </g>
    </g>
   </g>
   <g id="matplotlib.axis_4">
    <g id="ytick_7">
     <g id="line2d_95">
      <g>
       <use style="stroke:#000000;stroke-linecap:butt;stroke-width:0.5;" x="46.1171875" xlink:href="#me8a85f7bf6" y="246.6"/>
      </g>
     </g>
     <g id="line2d_96">
      <g>
       <use style="stroke:#000000;stroke-linecap:butt;stroke-width:0.5;" x="401.94140625" xlink:href="#m1a32005dea" y="246.6"/>
      </g>
     </g>
     <g id="text_20">
      <!-- 0.0 -->
      <defs>
       <path d="
M10.6875 12.4062
L21 12.4062
L21 0
L10.6875 0
z
" id="DejaVuSans-2e"/>
      </defs>
      <g transform="translate(27.5375 250.23984375)scale(0.1 -0.1)">
       <use xlink:href="#DejaVuSans-30"/>
       <use x="63.623046875" xlink:href="#DejaVuSans-2e"/>
       <use x="95.41015625" xlink:href="#DejaVuSans-30"/>
      </g>
     </g>
    </g>
    <g id="ytick_8">
     <g id="line2d_97">
      <g>
       <use style="stroke:#000000;stroke-linecap:butt;stroke-width:0.5;" x="46.1171875" xlink:href="#me8a85f7bf6" y="236.126315789"/>
      </g>
     </g>
     <g id="line2d_98">
      <g>
       <use style="stroke:#000000;stroke-linecap:butt;stroke-width:0.5;" x="401.94140625" xlink:href="#m1a32005dea" y="236.126315789"/>
      </g>
     </g>
     <g id="text_21">
      <!-- 0.5 -->
      <g transform="translate(27.746875 239.766159539)scale(0.1 -0.1)">
       <use xlink:href="#DejaVuSans-30"/>
       <use x="63.623046875" xlink:href="#DejaVuSans-2e"/>
       <use x="95.41015625" xlink:href="#DejaVuSans-35"/>
      </g>
     </g>
    </g>
    <g id="ytick_9">
     <g id="line2d_99">
      <g>
       <use style="stroke:#000000;stroke-linecap:butt;stroke-width:0.5;" x="46.1171875" xlink:href="#me8a85f7bf6" y="225.652631579"/>
      </g>
     </g>
     <g id="line2d_100">
      <g>
       <use style="stroke:#000000;stroke-linecap:butt;stroke-width:0.5;" x="401.94140625" xlink:href="#m1a32005dea" y="225.652631579"/>
      </g>
     </g>
     <g id="text_22">
      <!-- 1.0 -->
      <g transform="translate(27.9765625 229.292475329)scale(0.1 -0.1)">
       <use xlink:href="#DejaVuSans-31"/>
       <use x="63.623046875" xlink:href="#DejaVuSans-2e"/>
       <use x="95.41015625" xlink:href="#DejaVuSans-30"/>
      </g>
     </g>
    </g>
    <g id="ytick_10">
     <g id="line2d_101">
      <g>
       <use style="stroke:#000000;stroke-linecap:butt;stroke-width:0.5;" x="46.1171875" xlink:href="#me8a85f7bf6" y="215.178947368"/>
      </g>
     </g>
     <g id="line2d_102">
      <g>
       <use style="stroke:#000000;stroke-linecap:butt;stroke-width:0.5;" x="401.94140625" xlink:href="#m1a32005dea" y="215.178947368"/>
      </g>
     </g>
     <g id="text_23">
      <!-- 1.5 -->
      <g transform="translate(28.1859375 218.753166118)scale(0.1 -0.1)">
       <use xlink:href="#DejaVuSans-31"/>
       <use x="63.623046875" xlink:href="#DejaVuSans-2e"/>
       <use x="95.41015625" xlink:href="#DejaVuSans-35"/>
      </g>
     </g>
    </g>
    <g id="ytick_11">
     <g id="line2d_103">
      <g>
       <use style="stroke:#000000;stroke-linecap:butt;stroke-width:0.5;" x="46.1171875" xlink:href="#me8a85f7bf6" y="204.705263158"/>
      </g>
     </g>
     <g id="line2d_104">
      <g>
       <use style="stroke:#000000;stroke-linecap:butt;stroke-width:0.5;" x="401.94140625" xlink:href="#m1a32005dea" y="204.705263158"/>
      </g>
     </g>
     <g id="text_24">
      <!-- 2.0 -->
      <g transform="translate(27.6109375 208.345106908)scale(0.1 -0.1)">
       <use xlink:href="#DejaVuSans-32"/>
       <use x="63.623046875" xlink:href="#DejaVuSans-2e"/>
       <use x="95.41015625" xlink:href="#DejaVuSans-30"/>
      </g>
     </g>
    </g>
    <g id="ytick_12">
     <g id="line2d_105">
      <g>
       <use style="stroke:#000000;stroke-linecap:butt;stroke-width:0.5;" x="46.1171875" xlink:href="#me8a85f7bf6" y="194.231578947"/>
      </g>
     </g>
     <g id="line2d_106">
      <g>
       <use style="stroke:#000000;stroke-linecap:butt;stroke-width:0.5;" x="401.94140625" xlink:href="#m1a32005dea" y="194.231578947"/>
      </g>
     </g>
     <g id="text_25">
      <!-- 2.5 -->
      <g transform="translate(27.8203125 197.871422697)scale(0.1 -0.1)">
       <use xlink:href="#DejaVuSans-32"/>
       <use x="63.623046875" xlink:href="#DejaVuSans-2e"/>
       <use x="95.41015625" xlink:href="#DejaVuSans-35"/>
      </g>
     </g>
    </g>
    <g id="ytick_13">
     <g id="line2d_107">
      <g>
       <use style="stroke:#000000;stroke-linecap:butt;stroke-width:0.5;" x="46.1171875" xlink:href="#me8a85f7bf6" y="183.757894737"/>
      </g>
     </g>
     <g id="line2d_108">
      <g>
       <use style="stroke:#000000;stroke-linecap:butt;stroke-width:0.5;" x="401.94140625" xlink:href="#m1a32005dea" y="183.757894737"/>
      </g>
     </g>
     <g id="text_26">
      <!-- 3.0 -->
      <defs>
       <path d="
M40.5781 39.3125
Q47.6562 37.7969 51.625 33
Q55.6094 28.2188 55.6094 21.1875
Q55.6094 10.4062 48.1875 4.48438
Q40.7656 -1.42188 27.0938 -1.42188
Q22.5156 -1.42188 17.6562 -0.515625
Q12.7969 0.390625 7.625 2.20312
L7.625 11.7188
Q11.7188 9.32812 16.5938 8.10938
Q21.4844 6.89062 26.8125 6.89062
Q36.0781 6.89062 40.9375 10.5469
Q45.7969 14.2031 45.7969 21.1875
Q45.7969 27.6406 41.2812 31.2656
Q36.7656 34.9062 28.7188 34.9062
L20.2188 34.9062
L20.2188 43.0156
L29.1094 43.0156
Q36.375 43.0156 40.2344 45.9219
Q44.0938 48.8281 44.0938 54.2969
Q44.0938 59.9062 40.1094 62.9062
Q36.1406 65.9219 28.7188 65.9219
Q24.6562 65.9219 20.0156 65.0312
Q15.375 64.1562 9.8125 62.3125
L9.8125 71.0938
Q15.4375 72.6562 20.3438 73.4375
Q25.25 74.2188 29.5938 74.2188
Q40.8281 74.2188 47.3594 69.1094
Q53.9062 64.0156 53.9062 55.3281
Q53.9062 49.2656 50.4375 45.0938
Q46.9688 40.9219 40.5781 39.3125" id="DejaVuSans-33"/>
      </defs>
      <g transform="translate(27.640625 187.397738487)scale(0.1 -0.1)">
       <use xlink:href="#DejaVuSans-33"/>
       <use x="63.623046875" xlink:href="#DejaVuSans-2e"/>
       <use x="95.41015625" xlink:href="#DejaVuSans-30"/>
      </g>
     </g>
    </g>
    <g id="ytick_14">
     <g id="line2d_109">
      <g>
       <use style="stroke:#000000;stroke-linecap:butt;stroke-width:0.5;" x="46.1171875" xlink:href="#me8a85f7bf6" y="173.284210526"/>
      </g>
     </g>
     <g id="line2d_110">
      <g>
       <use style="stroke:#000000;stroke-linecap:butt;stroke-width:0.5;" x="401.94140625" xlink:href="#m1a32005dea" y="173.284210526"/>
      </g>
     </g>
     <g id="text_27">
      <!-- 3.5 -->
      <g transform="translate(27.85 176.924054276)scale(0.1 -0.1)">
       <use xlink:href="#DejaVuSans-33"/>
       <use x="63.623046875" xlink:href="#DejaVuSans-2e"/>
       <use x="95.41015625" xlink:href="#DejaVuSans-35"/>
      </g>
     </g>
    </g>
   </g>
   <g id="patch_8">
    <path d="
M46.1172 167
L401.941 167" style="fill:none;stroke:#000000;"/>
   </g>
   <g id="patch_9">
    <path d="
M401.941 246.6
L401.941 167" style="fill:none;stroke:#000000;"/>
   </g>
   <g id="patch_10">
    <path d="
M46.1172 246.6
L401.941 246.6" style="fill:none;stroke:#000000;"/>
   </g>
   <g id="patch_11">
    <path d="
M46.1172 246.6
L46.1172 167" style="fill:none;stroke:#000000;"/>
   </g>
   <g id="text_28">
    <!-- OLAP -->
    <defs>
     <path d="
M34.1875 63.1875
L20.7969 26.9062
L47.6094 26.9062
z

M28.6094 72.9062
L39.7969 72.9062
L67.5781 0
L57.3281 0
L50.6875 18.7031
L17.8281 18.7031
L11.1875 0
L0.78125 0
z
" id="DejaVuSans-41"/>
    </defs>
    <g transform="translate(208.646796875 162.0)scale(0.12 -0.12)">
     <use xlink:href="#DejaVuSans-4f"/>
     <use x="78.7109375" xlink:href="#DejaVuSans-4c"/>
     <use x="136.673828125" xlink:href="#DejaVuSans-41"/>
     <use x="205.08203125" xlink:href="#DejaVuSans-50"/>
    </g>
   </g>
  </g>
  <g id="text_29">
   <!-- 11 OLTP workers -->
   <defs>
    <path d="
M30.6094 48.3906
Q23.3906 48.3906 19.1875 42.75
Q14.9844 37.1094 14.9844 27.2969
Q14.9844 17.4844 19.1562 11.8438
Q23.3438 6.20312 30.6094 6.20312
Q37.7969 6.20312 41.9844 11.8594
Q46.1875 17.5312 46.1875 27.2969
Q46.1875 37.0156 41.9844 42.7031
Q37.7969 48.3906 30.6094 48.3906
M30.6094 56
Q42.3281 56 49.0156 48.375
Q55.7188 40.7656 55.7188 27.2969
Q55.7188 13.875 49.0156 6.21875
Q42.3281 -1.42188 30.6094 -1.42188
Q18.8438 -1.42188 12.1719 6.21875
Q5.51562 13.875 5.51562 27.2969
Q5.51562 40.7656 12.1719 48.375
Q18.8438 56 30.6094 56" id="DejaVuSans-6f"/>
    <path d="
M9.07812 75.9844
L18.1094 75.9844
L18.1094 31.1094
L44.9219 54.6875
L56.3906 54.6875
L27.3906 29.1094
L57.625 0
L45.9062 0
L18.1094 26.7031
L18.1094 0
L9.07812 0
z
" id="DejaVuSans-6b"/>
    <path id="DejaVuSans-20"/>
    <path d="
M4.20312 54.6875
L13.1875 54.6875
L24.4219 12.0156
L35.5938 54.6875
L46.1875 54.6875
L57.4219 12.0156
L68.6094 54.6875
L77.5938 54.6875
L63.2812 0
L52.6875 0
L40.9219 44.8281
L29.1094 0
L18.5 0
z
" id="DejaVuSans-77"/>
    <path d="
M44.2812 53.0781
L44.2812 44.5781
Q40.4844 46.5312 36.375 47.5
Q32.2812 48.4844 27.875 48.4844
Q21.1875 48.4844 17.8438 46.4375
Q14.5 44.3906 14.5 40.2812
Q14.5 37.1562 16.8906 35.375
Q19.2812 33.5938 26.5156 31.9844
L29.5938 31.2969
Q39.1562 29.25 43.1875 25.5156
Q47.2188 21.7812 47.2188 15.0938
Q47.2188 7.46875 41.1875 3.01562
Q35.1562 -1.42188 24.6094 -1.42188
Q20.2188 -1.42188 15.4531 -0.5625
Q10.6875 0.296875 5.42188 2
L5.42188 11.2812
Q10.4062 8.6875 15.2344 7.39062
Q20.0625 6.10938 24.8125 6.10938
Q31.1562 6.10938 34.5625 8.28125
Q37.9844 10.4531 37.9844 14.4062
Q37.9844 18.0625 35.5156 20.0156
Q33.0625 21.9688 24.7031 23.7812
L21.5781 24.5156
Q13.2344 26.2656 9.51562 29.9062
Q5.8125 33.5469 5.8125 39.8906
Q5.8125 47.6094 11.2812 51.7969
Q16.75 56 26.8125 56
Q31.7812 56 36.1719 55.2656
Q40.5781 54.5469 44.2812 53.0781" id="DejaVuSans-73"/>
    <path d="
M41.1094 46.2969
Q39.5938 47.1719 37.8125 47.5781
Q36.0312 48 33.8906 48
Q26.2656 48 22.1875 43.0469
Q18.1094 38.0938 18.1094 28.8125
L18.1094 0
L9.07812 0
L9.07812 54.6875
L18.1094 54.6875
L18.1094 46.1875
Q20.9531 51.1719 25.4844 53.5781
Q30.0312 56 36.5312 56
Q37.4531 56 38.5781 55.875
Q39.7031 55.7656 41.0625 55.5156
z
" id="DejaVuSans-72"/>
   </defs>
   <g transform="translate(174.9453125 13.3584375)scale(0.1 -0.1)">
    <use xlink:href="#DejaVuSans-31"/>
    <use x="63.623046875" xlink:href="#DejaVuSans-31"/>
    <use x="127.24609375" xlink:href="#DejaVuSans-20"/>
    <use x="159.033203125" xlink:href="#DejaVuSans-4f"/>
    <use x="237.744140625" xlink:href="#DejaVuSans-4c"/>
    <use x="279.70703125" xlink:href="#DejaVuSans-54"/>
    <use x="340.791015625" xlink:href="#DejaVuSans-50"/>
    <use x="401.09375" xlink:href="#DejaVuSans-20"/>
    <use x="432.880859375" xlink:href="#DejaVuSans-77"/>
    <use x="514.66796875" xlink:href="#DejaVuSans-6f"/>
    <use x="575.849609375" xlink:href="#DejaVuSans-72"/>
    <use x="616.962890625" xlink:href="#DejaVuSans-6b"/>
    <use x="671.248046875" xlink:href="#DejaVuSans-65"/>
    <use x="732.771484375" xlink:href="#DejaVuSans-72"/>
    <use x="773.884765625" xlink:href="#DejaVuSans-73"/>
   </g>
  </g>
 </g>
 <defs>
  <clipPath id="pe9bd9c4693">
   <rect height="79.6" width="355.82421875" x="46.1171875" y="167.0"/>
  </clipPath>
  <clipPath id="paafe9ad165">
   <rect height="79.6" width="355.82421875" x="46.1171875" y="32.0"/>
  </clipPath>
 </defs>
</svg>
