<?xml version="1.0" encoding="utf-8" standalone="no"?>
<!DOCTYPE svg PUBLIC "-//W3C//DTD SVG 1.1//EN"
  "http://www.w3.org/Graphics/SVG/1.1/DTD/svg11.dtd">
<!-- Created with matplotlib (http://matplotlib.sourceforge.net/) -->
<svg height="288pt" version="1.1" viewBox="0 0 432 288" width="432pt" xmlns="http://www.w3.org/2000/svg" xmlns:xlink="http://www.w3.org/1999/xlink">
 <defs>
  <style type="text/css">
*{stroke-linecap:square;stroke-linejoin:round;}
  </style>
 </defs>
 <g id="figure_1">
  <g id="patch_1">
   <path d="
M0 288
L432 288
L432 0
L0 0
z
" style="fill:#ffffff;"/>
  </g>
  <g id="axes_1">
   <g id="patch_2">
    <path d="
M46.1172 111.6
L401.941 111.6
L401.941 32
L46.1172 32
z
" style="fill:#ffffff;"/>
   </g>
   <g id="line2d_1">
    <path clip-path="url(#paafe9ad165)" d="
M56.7921 111.6
L56.7921 32" style="fill:none;stroke:#00ffff;stroke-dasharray:6.000000,6.000000;stroke-dashoffset:0.0;stroke-linecap:butt;"/>
   </g>
   <g id="line2d_2">
    <path clip-path="url(#paafe9ad165)" d="
M78.1418 111.6
L78.1418 32" style="fill:none;stroke:#00ffff;stroke-dasharray:6.000000,6.000000;stroke-dashoffset:0.0;stroke-linecap:butt;"/>
   </g>
   <g id="line2d_3">
    <path clip-path="url(#paafe9ad165)" d="
M78.1419 111.6
L78.1419 32" style="fill:none;stroke:#00ffff;stroke-dasharray:6.000000,6.000000;stroke-dashoffset:0.0;stroke-linecap:butt;"/>
   </g>
   <g id="line2d_4">
    <path clip-path="url(#paafe9ad165)" d="
M78.1422 111.6
L78.1422 32" style="fill:none;stroke:#00ffff;stroke-dasharray:6.000000,6.000000;stroke-dashoffset:0.0;stroke-linecap:butt;"/>
   </g>
   <g id="line2d_5">
    <path clip-path="url(#paafe9ad165)" d="
M99.4912 111.6
L99.4912 32" style="fill:none;stroke:#00ffff;stroke-dasharray:6.000000,6.000000;stroke-dashoffset:0.0;stroke-linecap:butt;"/>
   </g>
   <g id="line2d_6">
    <path clip-path="url(#paafe9ad165)" d="
M99.4913 111.6
L99.4913 32" style="fill:none;stroke:#00ffff;stroke-dasharray:6.000000,6.000000;stroke-dashoffset:0.0;stroke-linecap:butt;"/>
   </g>
   <g id="line2d_7">
    <path clip-path="url(#paafe9ad165)" d="
M99.4914 111.6
L99.4914 32" style="fill:none;stroke:#00ffff;stroke-dasharray:6.000000,6.000000;stroke-dashoffset:0.0;stroke-linecap:butt;"/>
   </g>
   <g id="line2d_8">
    <path clip-path="url(#paafe9ad165)" d="
M99.4917 111.6
L99.4917 32" style="fill:none;stroke:#00ffff;stroke-dasharray:6.000000,6.000000;stroke-dashoffset:0.0;stroke-linecap:butt;"/>
   </g>
   <g id="line2d_9">
    <path clip-path="url(#paafe9ad165)" d="
M120.84 111.6
L120.84 32" style="fill:none;stroke:#00ffff;stroke-dasharray:6.000000,6.000000;stroke-dashoffset:0.0;stroke-linecap:butt;"/>
   </g>
   <g id="line2d_10">
    <path clip-path="url(#paafe9ad165)" d="
M120.841 111.6
L120.841 32" style="fill:none;stroke:#00ffff;stroke-dasharray:6.000000,6.000000;stroke-dashoffset:0.0;stroke-linecap:butt;"/>
   </g>
   <g id="line2d_11">
    <path clip-path="url(#paafe9ad165)" d="
M120.841 111.6
L120.841 32" style="fill:none;stroke:#00ffff;stroke-dasharray:6.000000,6.000000;stroke-dashoffset:0.0;stroke-linecap:butt;"/>
   </g>
   <g id="line2d_12">
    <path clip-path="url(#paafe9ad165)" d="
M142.19 111.6
L142.19 32" style="fill:none;stroke:#00ffff;stroke-dasharray:6.000000,6.000000;stroke-dashoffset:0.0;stroke-linecap:butt;"/>
   </g>
   <g id="line2d_13">
    <path clip-path="url(#paafe9ad165)" d="
M142.19 111.6
L142.19 32" style="fill:none;stroke:#00ffff;stroke-dasharray:6.000000,6.000000;stroke-dashoffset:0.0;stroke-linecap:butt;"/>
   </g>
   <g id="line2d_14">
    <path clip-path="url(#paafe9ad165)" d="
M163.539 111.6
L163.539 32" style="fill:none;stroke:#00ffff;stroke-dasharray:6.000000,6.000000;stroke-dashoffset:0.0;stroke-linecap:butt;"/>
   </g>
   <g id="line2d_15">
    <path clip-path="url(#paafe9ad165)" d="
M163.54 111.6
L163.54 32" style="fill:none;stroke:#00ffff;stroke-dasharray:6.000000,6.000000;stroke-dashoffset:0.0;stroke-linecap:butt;"/>
   </g>
   <g id="line2d_16">
    <path clip-path="url(#paafe9ad165)" d="
M184.889 111.6
L184.889 32" style="fill:none;stroke:#00ffff;stroke-dasharray:6.000000,6.000000;stroke-dashoffset:0.0;stroke-linecap:butt;"/>
   </g>
   <g id="line2d_17">
    <path clip-path="url(#paafe9ad165)" d="
M184.889 111.6
L184.889 32" style="fill:none;stroke:#00ffff;stroke-dasharray:6.000000,6.000000;stroke-dashoffset:0.0;stroke-linecap:butt;"/>
   </g>
   <g id="line2d_18">
    <path clip-path="url(#paafe9ad165)" d="
M206.239 111.6
L206.239 32" style="fill:none;stroke:#00ffff;stroke-dasharray:6.000000,6.000000;stroke-dashoffset:0.0;stroke-linecap:butt;"/>
   </g>
   <g id="line2d_19">
    <path clip-path="url(#paafe9ad165)" d="
M206.239 111.6
L206.239 32" style="fill:none;stroke:#00ffff;stroke-dasharray:6.000000,6.000000;stroke-dashoffset:0.0;stroke-linecap:butt;"/>
   </g>
   <g id="line2d_20">
    <path clip-path="url(#paafe9ad165)" d="
M206.239 111.6
L206.239 32" style="fill:none;stroke:#00ffff;stroke-dasharray:6.000000,6.000000;stroke-dashoffset:0.0;stroke-linecap:butt;"/>
   </g>
   <g id="line2d_21">
    <path clip-path="url(#paafe9ad165)" d="
M206.239 111.6
L206.239 32" style="fill:none;stroke:#00ffff;stroke-dasharray:6.000000,6.000000;stroke-dashoffset:0.0;stroke-linecap:butt;"/>
   </g>
   <g id="line2d_22">
    <path clip-path="url(#paafe9ad165)" d="
M227.588 111.6
L227.588 32" style="fill:none;stroke:#00ffff;stroke-dasharray:6.000000,6.000000;stroke-dashoffset:0.0;stroke-linecap:butt;"/>
   </g>
   <g id="line2d_23">
    <path clip-path="url(#paafe9ad165)" d="
M227.588 111.6
L227.588 32" style="fill:none;stroke:#00ffff;stroke-dasharray:6.000000,6.000000;stroke-dashoffset:0.0;stroke-linecap:butt;"/>
   </g>
   <g id="line2d_24">
    <path clip-path="url(#paafe9ad165)" d="
M248.937 111.6
L248.937 32" style="fill:none;stroke:#00ffff;stroke-dasharray:6.000000,6.000000;stroke-dashoffset:0.0;stroke-linecap:butt;"/>
   </g>
   <g id="line2d_25">
    <path clip-path="url(#paafe9ad165)" d="
M248.937 111.6
L248.937 32" style="fill:none;stroke:#00ffff;stroke-dasharray:6.000000,6.000000;stroke-dashoffset:0.0;stroke-linecap:butt;"/>
   </g>
   <g id="line2d_26">
    <path clip-path="url(#paafe9ad165)" d="
M270.287 111.6
L270.287 32" style="fill:none;stroke:#00ffff;stroke-dasharray:6.000000,6.000000;stroke-dashoffset:0.0;stroke-linecap:butt;"/>
   </g>
   <g id="line2d_27">
    <path clip-path="url(#paafe9ad165)" d="
M270.287 111.6
L270.287 32" style="fill:none;stroke:#00ffff;stroke-dasharray:6.000000,6.000000;stroke-dashoffset:0.0;stroke-linecap:butt;"/>
   </g>
   <g id="line2d_28">
    <path clip-path="url(#paafe9ad165)" d="
M291.636 111.6
L291.636 32" style="fill:none;stroke:#00ffff;stroke-dasharray:6.000000,6.000000;stroke-dashoffset:0.0;stroke-linecap:butt;"/>
   </g>
   <g id="line2d_29">
    <path clip-path="url(#paafe9ad165)" d="
M312.986 111.6
L312.986 32" style="fill:none;stroke:#00ffff;stroke-dasharray:6.000000,6.000000;stroke-dashoffset:0.0;stroke-linecap:butt;"/>
   </g>
   <g id="line2d_30">
    <path clip-path="url(#paafe9ad165)" d="
M334.335 111.6
L334.335 32" style="fill:none;stroke:#00ffff;stroke-dasharray:6.000000,6.000000;stroke-dashoffset:0.0;stroke-linecap:butt;"/>
   </g>
   <g id="line2d_31">
    <path clip-path="url(#paafe9ad165)" d="
M355.685 111.6
L355.685 32" style="fill:none;stroke:#00ffff;stroke-dasharray:6.000000,6.000000;stroke-dashoffset:0.0;stroke-linecap:butt;"/>
   </g>
   <g id="line2d_32">
    <path clip-path="url(#paafe9ad165)" d="
M377.034 111.6
L377.034 32" style="fill:none;stroke:#00ffff;stroke-dasharray:6.000000,6.000000;stroke-dashoffset:0.0;stroke-linecap:butt;"/>
   </g>
   <g id="line2d_33">
    <path clip-path="url(#paafe9ad165)" d="
M377.035 111.6
L377.035 32" style="fill:none;stroke:#00ffff;stroke-dasharray:6.000000,6.000000;stroke-dashoffset:0.0;stroke-linecap:butt;"/>
   </g>
   <g id="line2d_34">
    <path clip-path="url(#paafe9ad165)" d="
M46.1172 59.3149
L46.1172 42.8063
L46.7043 42.8063
L46.7043 42.1116
L47.2914 42.1116
L47.2914 40.0372
L47.8785 40.0372
L47.8785 38.8022
L48.4656 38.8022
L48.4656 37.6251
L49.0527 37.6251
L49.0527 39.5837
L49.6398 39.5837
L49.6398 28.2564
L50.227 28.2564
L50.227 30.7553
L50.8141 30.7553
L50.8141 38.2812
L51.4012 38.2812
L51.4012 38.5224
L51.9883 38.5224
L51.9883 26.0951
L52.5754 26.0951
L52.5754 37.49
L53.1625 37.49
L53.1625 38.9083
L53.7496 38.9083
L53.7496 30.4948
L54.3367 30.4948
L54.3367 38.5417
L54.9238 38.5417
L54.9238 39.4486
L55.5109 39.4486
L55.5109 31.4597
L56.0981 31.4597
L56.0981 49.2708
L56.6852 49.2708
L56.6852 46.8394
L57.2723 46.8394
L57.2723 40.4231
L57.8594 40.4231
L57.8594 44.0509
L58.4465 44.0509
L58.4465 45.9517
L59.0336 45.9517
L59.0336 45.5851
L59.6207 45.5851
L59.6207 44.6684
L60.2078 44.6684
L60.2078 44.4465
L60.7949 44.4465
L60.7949 39.5837
L61.382 39.5837
L61.382 44.4176
L61.9692 44.4176
L61.9692 46.0578
L62.5563 46.0578
L62.5563 42.0441
L63.1434 42.0441
L63.1434 39.1109
L63.7305 39.1109
L63.7305 43.2501
L64.3176 43.2501
L64.3176 41.6774
L64.9047 41.6774
L64.9047 45.1123
L65.4918 45.1123
L65.4918 43.6457
L66.0789 43.6457
L66.0789 50.0041
L66.666 50.0041
L66.666 46.7525
L67.2531 46.7525
L67.2531 46.299
L67.8403 46.299
L67.8403 43.9834
L68.4274 43.9834
L68.4274 43.0668
L69.0145 43.0668
L69.0145 44.1281
L69.6016 44.1281
L69.6016 43.5299
L70.1887 43.5299
L70.1887 36.4576
L70.7758 36.4576
L70.7758 48.1708
L71.3629 48.1708
L71.3629 52.4162
L71.95 52.4162
L71.95 35.7436
L72.5371 35.7436
L72.5371 44.2922
L73.1242 44.2922
L73.1242 45.8456
L73.7114 45.8456
L73.7114 43.9159
L74.2985 43.9159
L74.2985 44.5816
L74.8856 44.5816
L74.8856 38.696
L75.4727 38.696
L75.4727 44.4272
L76.0598 44.4272
L76.0598 44.1281
L76.6469 44.1281
L76.6469 45.1605
L77.234 45.1605
L77.234 66.4354
L77.8211 66.4354
L77.8211 40.8284
L78.4082 40.8284
L78.4082 35.1164
L78.9953 35.1164
L78.9953 54.7994
L79.5824 54.7994
L79.5824 51.3934
L80.1696 51.3934
L80.1696 48.8462
L80.7567 48.8462
L80.7567 52.7828
L81.3438 52.7828
L81.3438 42.4204
L81.9309 42.4204
L81.9309 48.8752
L82.518 48.8752
L82.518 54.3266
L83.1051 54.3266
L83.1051 52.86
L83.6922 52.86
L83.6922 55.7256
L84.2793 55.7256
L84.2793 59.3727
L84.8664 59.3727
L84.8664 63.7821
L85.4535 63.7821
L85.4535 60.9647
L86.0407 60.9647
L86.0407 61.2156
L86.6278 61.2156
L86.6278 53.6994
L87.2149 53.6994
L87.2149 36.3418
L87.802 36.3418
L87.802 51.3356
L88.3891 51.3356
L88.3891 56.9413
L88.9762 56.9413
L88.9762 54.0275
L89.5633 54.0275
L89.5633 36.4383
L90.1504 36.4383
L90.1504 52.6863
L90.7375 52.6863
L90.7375 54.0854
L91.3246 54.0854
L91.3246 49.4541
L91.9118 49.4541
L91.9118 50.3225
L92.4989 50.3225
L92.4989 47.9103
L93.086 47.9103
L93.086 52.2039
L93.6731 52.2039
L93.6731 56.7387
L94.2602 56.7387
L94.2602 58.4851
L94.8473 58.4851
L94.8473 59.228
L96.0215 59.2859
L96.0215 64.7855
L96.6086 64.7855
L96.6086 53.9889
L97.1957 53.9889
L97.1957 50.8145
L97.7829 50.8145
L97.7829 56.6133
L98.37 56.6133
L98.37 53.381
L98.9571 53.381
L98.9571 75.2542
L99.5442 75.2542
L99.5442 64.8627
L100.131 64.8627
L100.131 60.6946
L100.718 60.6946
L100.718 65.4899
L101.306 65.4899
L101.306 65.1715
L101.893 65.1715
L101.893 66.4161
L102.48 66.4161
L102.48 68.2204
L103.067 68.2204
L103.067 57.115
L103.654 57.115
L103.654 75.3603
L104.241 75.3603
L104.241 41.4266
L104.828 41.4266
L104.828 54.5967
L105.415 54.5967
L105.415 60.5981
L106.002 60.5981
L106.002 58.4658
L106.59 58.4658
L106.59 55.5616
L107.177 55.5616
L107.177 56.6326
L107.764 56.6326
L107.764 37.654
L108.351 37.654
L108.351 54.1626
L108.938 54.1626
L108.938 59.1991
L109.525 59.1991
L109.525 59.9034
L110.112 59.9034
L110.112 48.3156
L110.699 48.3156
L110.699 55.3011
L111.286 55.3011
L111.286 43.115
L111.873 43.115
L111.873 54.0757
L112.461 54.0757
L112.461 56.0826
L113.048 56.0826
L113.048 59.8745
L113.635 59.8745
L113.635 60.627
L114.222 60.627
L114.222 50.197
L114.809 50.197
L114.809 51.7311
L115.396 51.7311
L115.396 60.0095
L115.983 60.0095
L115.983 56.6712
L116.57 56.6712
L116.57 57.7807
L117.157 57.7807
L117.157 60.9261
L117.745 60.9261
L117.745 62.5085
L118.332 62.5085
L118.332 59.6622
L118.919 59.6622
L118.919 61.3603
L119.506 61.3603
L119.506 42.2467
L120.093 42.2467
L120.093 69.7063
L120.68 69.7063
L120.68 64.9785
L121.267 64.9785
L121.267 67.0433
L121.854 67.0433
L121.854 68.944
L122.441 68.944
L122.441 58.4561
L123.029 58.4561
L123.029 61.177
L123.616 61.177
L123.616 63.4926
L124.203 63.4926
L124.203 61.6884
L124.79 61.6884
L124.79 59.5175
L125.377 59.5175
L125.377 60.2797
L125.964 60.2797
L125.964 63.4251
L126.551 63.4251
L126.551 68.0178
L127.138 68.0178
L127.138 64.0909
L127.725 64.0909
L127.725 61.341
L128.313 61.341
L128.313 65.1425
L128.9 65.1425
L128.9 66.667
L129.487 66.667
L129.487 70.8351
L130.074 70.8351
L130.074 72.8227
L130.661 72.8227
L130.661 73.942
L131.248 73.942
L131.248 71.9544
L131.835 71.9544
L131.835 59.3631
L132.422 59.3631
L132.422 61.2638
L133.009 61.2638
L133.009 48.9427
L133.597 48.9427
L133.597 58.0702
L134.184 58.0702
L134.184 65.6443
L134.771 65.6443
L134.771 68.5002
L135.358 68.5002
L135.358 70.9123
L135.945 70.9123
L135.945 72.7745
L136.532 72.7745
L136.532 74.8779
L137.119 74.8779
L137.119 74.7235
L137.706 74.7235
L137.706 63.9944
L138.293 63.9944
L138.293 65.6732
L138.881 65.6732
L138.881 47.1578
L139.468 47.1578
L139.468 59.6236
L140.055 59.6236
L140.055 61.9103
L140.642 61.9103
L140.642 60.8393
L141.229 60.8393
L141.229 66.8986
L141.816 66.8986
L141.816 63.3962
L142.403 63.3962
L142.403 57.2308
L142.99 57.2308
L142.99 64.2838
L143.577 64.2838
L143.577 72.5815
L144.165 72.5815
L144.165 75.0998
L144.752 75.0998
L144.752 76.7497
L145.339 76.7497
L145.339 79.1425
L146.513 79.0942
L146.513 81.9695
L147.1 81.9695
L147.1 80.9564
L147.687 80.9564
L147.687 83.8413
L148.274 83.8413
L148.274 82.6159
L148.861 82.6159
L148.861 83.0115
L149.449 83.0115
L149.449 83.2045
L150.036 83.2045
L150.036 85.5008
L150.623 85.5008
L150.623 85.1439
L151.21 85.1439
L151.21 85.3561
L151.797 85.3561
L151.797 86.8227
L152.384 86.8227
L152.384 87.8261
L153.558 87.72
L153.558 90.1128
L154.145 90.1128
L154.145 80.5029
L154.733 80.5029
L154.733 82.9729
L155.32 82.9729
L155.32 85.0184
L155.907 85.0184
L155.907 84.2272
L156.494 84.2272
L156.494 85.4333
L157.081 85.4333
L157.081 68.5292
L157.668 68.5292
L157.668 65.3259
L158.255 65.3259
L158.255 66.4065
L158.842 66.4065
L158.842 63.483
L159.429 63.483
L159.429 67.6994
L160.017 67.6994
L160.017 62.6822
L160.604 62.6822
L160.604 64.6601
L161.191 64.6601
L161.191 67.3424
L161.778 67.3424
L161.778 69.494
L162.365 69.494
L162.365 70.9799
L162.952 70.9799
L162.952 78.1198
L163.539 78.1198
L163.539 66.667
L164.126 66.667
L164.126 65.6732
L164.713 65.6732
L164.713 72.7841
L165.3 72.7841
L165.3 81.3327
L165.888 81.3327
L165.888 82.394
L166.475 82.394
L166.475 83.0887
L167.062 83.0887
L167.062 83.2045
L167.649 83.2045
L167.649 84.6325
L168.236 84.6325
L168.236 84.7483
L168.823 84.7483
L168.823 85.7228
L169.41 85.7228
L169.41 86.5525
L169.997 86.5525
L169.997 87.0446
L170.584 87.0446
L170.584 87.1893
L171.172 87.1893
L171.172 87.3919
L171.759 87.3919
L171.759 87.7103
L172.346 87.7103
L172.346 88.4726
L172.933 88.4726
L172.933 88.2024
L173.52 88.2024
L173.52 87.9516
L174.107 87.9516
L174.107 86.3789
L174.694 86.3789
L174.694 87.1121
L175.281 87.1121
L175.281 88.2507
L176.456 88.2217
L176.456 80.0591
L177.043 80.0591
L177.043 82.8186
L177.63 82.8186
L177.63 81.7283
L178.217 81.7283
L178.217 81.9406
L178.804 81.9406
L178.804 86.0219
L179.978 86.1087
L179.978 86.2534
L180.565 86.2534
L180.565 86.9095
L181.74 87.0157
L181.74 88.8006
L182.327 88.8006
L182.327 87.72
L182.914 87.72
L182.914 74.3279
L183.501 74.3279
L183.501 76.4506
L184.088 76.4506
L184.088 90.6724
L184.675 90.6724
L184.675 85.4333
L185.262 85.4333
L185.262 71.771
L185.849 71.771
L185.849 80.2231
L186.436 80.2231
L186.436 83.5133
L187.024 83.5133
L187.024 80.2424
L187.611 80.2424
L187.611 82.78
L188.198 82.78
L188.198 84.6325
L188.785 84.6325
L188.785 87.0446
L189.372 87.0446
L189.372 86.3403
L189.959 86.3403
L189.959 87.7103
L190.546 87.7103
L190.546 88.1928
L191.133 88.1928
L191.133 88.4629
L191.72 88.4629
L191.72 89.2155
L192.308 89.2155
L192.308 89.9199
L192.895 89.9199
L192.895 89.6786
L193.482 89.6786
L193.482 84.5456
L194.069 84.5456
L194.069 87.7972
L194.656 87.7972
L194.656 81.4581
L195.243 81.4581
L195.243 85.4719
L195.83 85.4719
L195.83 87.8165
L196.417 87.8165
L196.417 88.5112
L197.004 88.5112
L197.004 88.1542
L197.592 88.1542
L197.592 88.5691
L198.179 88.5691
L198.179 88.27
L198.766 88.27
L198.766 90.5759
L199.353 90.5759
L199.353 91.5601
L199.94 91.5601
L199.94 90.4119
L200.527 90.4119
L200.527 89.7365
L201.114 89.7365
L201.114 90.2093
L201.701 90.2093
L201.701 90.3733
L202.288 90.3733
L202.288 91.5987
L202.876 91.5987
L202.876 86.7744
L203.463 86.7744
L203.463 90.711
L204.05 90.711
L204.05 92.5442
L204.637 92.5442
L204.637 90.3444
L205.224 90.3444
L205.224 92.3416
L205.811 92.3416
L205.811 86.2148
L206.398 86.2148
L206.398 86.6683
L206.985 86.6683
L206.985 85.5105
L207.572 85.5105
L207.572 87.0543
L208.16 87.0543
L208.16 87.8454
L208.747 87.8454
L208.747 89.9102
L209.334 89.9102
L209.334 88.762
L209.921 88.762
L209.921 87.7489
L210.508 87.7489
L210.508 88.4919
L211.095 88.4919
L211.095 93.1714
L211.682 93.1714
L211.682 92.6986
L212.269 92.6986
L212.269 95.0239
L212.856 95.0239
L212.856 90.7303
L213.443 90.7303
L213.443 82.3651
L214.618 82.2975
L214.618 83.0694
L215.205 83.0694
L215.205 82.1721
L215.792 82.1721
L215.792 83.6966
L216.379 83.6966
L216.379 84.5456
L216.966 84.5456
L216.966 87.3437
L217.553 87.3437
L217.553 98.507
L218.14 98.507
L218.14 76.7207
L218.727 76.7207
L218.727 82.6352
L219.315 82.6352
L219.315 83.7159
L219.902 83.7159
L219.902 85.0667
L220.489 85.0667
L220.489 86.6297
L221.076 86.6297
L221.076 85.6552
L221.663 85.6552
L221.663 87.4595
L222.25 87.4595
L222.25 88.6366
L222.837 88.6366
L222.837 90.0453
L223.424 90.0453
L223.424 90.9812
L224.011 90.9812
L224.011 90.547
L224.599 90.547
L224.599 91.0294
L225.186 91.0294
L225.186 93.403
L225.773 93.403
L225.773 91.975
L226.36 91.975
L226.36 79.8565
L226.947 79.8565
L226.947 71.4526
L227.534 71.4526
L227.534 67.6318
L228.121 67.6318
L228.121 72.8517
L228.708 72.8517
L228.708 72.2438
L229.295 72.2438
L229.295 73.4981
L229.883 73.4981
L229.883 74.5112
L230.47 74.5112
L230.47 76.9619
L231.057 76.9619
L231.057 77.3286
L231.644 77.3286
L231.644 79.1039
L232.231 79.1039
L232.231 77.4733
L232.818 77.4733
L232.818 84.0632
L233.405 84.0632
L233.405 82.4809
L233.992 82.4809
L233.992 81.0336
L234.579 81.0336
L234.579 86.5043
L235.167 86.5043
L235.167 89.9874
L235.754 89.9874
L235.754 90.7303
L236.341 90.7303
L236.341 91.4829
L236.928 91.4829
L236.928 91.6759
L237.515 91.6759
L237.515 92.2065
L238.102 92.2065
L238.102 92.9398
L238.689 92.9398
L238.689 93.5766
L239.276 93.5766
L239.276 93.3451
L239.863 93.3451
L239.863 92.6697
L240.451 92.6697
L240.451 90.7979
L241.038 90.7979
L241.038 89.8909
L241.625 89.8909
L241.625 91.0777
L242.212 91.0777
L242.212 88.5305
L242.799 88.5305
L242.799 88.8199
L243.386 88.8199
L243.386 89.476
L243.973 89.476
L243.973 87.6042
L244.56 87.6042
L244.56 89.0804
L245.147 89.0804
L245.147 89.7269
L245.735 89.7269
L245.735 89.119
L246.322 89.119
L246.322 89.5146
L246.909 89.5146
L246.909 88.3279
L247.496 88.3279
L247.496 78.6408
L248.083 78.6408
L248.083 77.9847
L248.67 77.9847
L248.67 75.2542
L249.257 75.2542
L249.257 77.0488
L249.844 77.0488
L249.844 74.6463
L250.431 74.6463
L250.431 77.6373
L251.019 77.6373
L251.019 78.2548
L251.606 78.2548
L251.606 80.4257
L252.193 80.4257
L252.193 84.3044
L252.78 84.3044
L252.78 81.8344
L253.367 81.8344
L253.367 81.159
L253.954 81.159
L253.954 86.0701
L254.541 86.0701
L254.541 84.9316
L255.715 84.893
L255.715 85.6359
L256.303 85.6359
L256.303 85.25
L256.89 85.25
L256.89 86.0026
L257.477 86.0026
L257.477 87.884
L258.064 87.884
L258.064 86.7166
L258.651 86.7166
L258.651 90.5181
L259.238 90.5181
L259.238 88.2024
L259.825 88.2024
L259.825 86.1955
L260.412 86.1955
L260.412 84.2465
L260.999 84.2465
L260.999 85.3272
L261.587 85.3272
L261.587 86.9674
L262.174 86.9674
L262.174 85.7324
L262.761 85.7324
L262.761 86.4175
L263.348 86.4175
L263.348 111.233
L263.935 111.233
L263.935 87.4981
L264.522 87.4981
L264.522 87.2279
L265.109 87.2279
L265.109 76.6242
L265.696 76.6242
L265.696 68.6063
L266.283 68.6063
L266.283 74.3279
L266.87 74.3279
L266.87 75.1673
L267.458 75.1673
L267.458 72.3789
L268.045 72.3789
L268.045 76.2576
L268.632 76.2576
L268.632 81.2845
L269.219 81.2845
L269.219 78.0426
L269.806 78.0426
L269.806 81.352
L270.393 81.352
L270.393 80.0205
L270.98 80.0205
L270.98 81.352
L271.567 81.352
L271.567 82.4423
L272.154 82.4423
L272.154 83.8413
L272.742 83.8413
L272.742 88.5787
L273.329 88.5787
L273.329 85.8289
L273.916 85.8289
L273.916 90.3058
L274.503 90.3058
L274.503 86.3982
L275.09 86.3982
L275.09 84.5649
L275.677 84.5649
L275.677 89.7655
L276.264 89.7655
L276.264 87.9612
L276.851 87.9612
L276.851 83.5904
L277.438 83.5904
L277.438 82.944
L278.026 82.944
L278.026 80.5705
L278.613 80.5705
L278.613 81.2555
L279.2 81.2555
L279.2 91.0391
L279.787 91.0391
L279.787 84.1983
L280.374 84.1983
L280.374 82.3361
L280.961 82.3361
L280.961 84.7772
L281.548 84.7772
L281.548 85.2017
L282.135 85.2017
L282.135 84.3527
L282.722 84.3527
L282.722 86.3789
L283.31 86.3789
L283.31 87.1797
L283.897 87.1797
L283.897 89.6497
L284.484 89.6497
L284.484 87.913
L285.071 87.913
L285.071 89.0804
L286.245 89.0901
L286.245 86.6104
L286.832 86.6104
L286.832 85.4044
L287.419 85.4044
L287.419 86.1183
L288.006 86.1183
L288.006 86.7551
L288.594 86.7551
L288.594 86.321
L289.181 86.321
L289.181 89.2059
L289.768 89.2059
L289.768 90.4409
L290.355 90.4409
L290.355 86.2534
L290.942 86.2534
L290.942 97.0211
L291.529 97.0211
L291.529 108.484
L292.116 108.484
L292.116 86.8709
L292.703 86.8709
L292.703 87.7393
L293.29 87.7393
L293.29 85.1053
L293.878 85.1053
L293.878 74.6849
L294.465 74.6849
L294.465 86.4175
L295.052 86.4175
L295.052 79.239
L295.639 79.239
L295.639 79.9626
L296.226 79.9626
L296.226 79.0364
L296.813 79.0364
L296.813 81.2941
L297.4 81.2941
L297.4 80.3678
L297.987 80.3678
L297.987 81.5353
L298.574 81.5353
L298.574 82.5581
L299.162 82.5581
L299.162 84.6518
L299.749 84.6518
L299.749 89.0225
L300.336 89.0225
L300.336 82.6352
L300.923 82.6352
L300.923 84.0439
L301.51 84.0439
L301.51 85.5491
L302.097 85.5491
L302.097 89.9488
L302.684 89.9488
L302.684 88.7524
L303.271 88.7524
L303.271 89.1383
L303.858 89.1383
L303.858 87.363
L304.446 87.363
L304.446 90.354
L305.033 90.354
L305.033 85.2114
L305.62 85.2114
L305.62 80.2714
L306.207 80.2714
L306.207 86.0701
L306.794 86.0701
L306.794 83.5808
L307.381 83.5808
L307.381 84.7579
L307.968 84.7579
L307.968 84.5167
L308.555 84.5167
L308.555 84.8544
L309.142 84.8544
L309.142 87.1218
L309.73 87.1218
L309.73 90.7689
L310.317 90.7689
L310.317 88.3471
L310.904 88.3471
L310.904 88.2314
L311.491 88.2314
L311.491 90.8075
L312.078 90.8075
L312.078 89.5243
L312.665 89.5243
L312.665 86.7648
L313.252 86.7648
L313.252 88.3857
L313.839 88.3857
L313.839 89.997
L314.426 89.997
L314.426 91.6083
L315.014 91.6083
L315.014 89.4953
L315.601 89.4953
L315.601 91.2127
L316.188 91.2127
L316.188 92.8916
L316.775 92.8916
L316.775 80.0205
L317.362 80.0205
L317.362 83.301
L317.949 83.301
L317.949 90.74
L318.536 90.74
L318.536 82.0467
L319.123 82.0467
L319.123 86.1376
L319.71 86.1376
L319.71 88.6559
L320.297 88.6559
L320.297 89.3892
L320.885 89.3892
L320.885 89.1094
L321.472 89.1094
L321.472 85.5008
L322.059 85.5008
L322.059 88.2989
L322.646 88.2989
L322.646 86.6683
L323.233 86.6683
L323.233 89.1287
L323.82 89.1287
L323.82 88.0866
L324.407 88.0866
L324.407 90.4505
L324.994 90.4505
L324.994 87.5849
L325.581 87.5849
L325.581 88.7813
L326.169 88.7813
L326.169 89.5532
L326.756 89.5532
L326.756 90.4988
L327.343 90.4988
L327.343 91.6083
L327.93 91.6083
L327.93 87.2376
L328.517 87.2376
L328.517 89.5629
L329.104 89.5629
L329.104 88.1831
L329.691 88.1831
L329.691 105.801
L330.278 105.801
L330.278 104.151
L330.865 104.151
L330.865 76.5181
L332.04 76.4409
L332.04 75.0708
L332.627 75.0708
L332.627 82.3265
L333.214 82.3265
L333.214 78.7758
L333.801 78.7758
L333.801 79.7214
L334.388 79.7214
L334.388 85.2982
L334.975 85.2982
L334.975 80.8117
L335.562 80.8117
L335.562 82.6256
L336.149 82.6256
L336.149 86.8034
L336.737 86.8034
L336.737 85.7421
L337.324 85.7421
L337.324 85.3754
L337.911 85.3754
L337.911 87.5367
L338.498 87.5367
L338.498 88.7331
L339.085 88.7331
L339.085 88.1735
L339.672 88.1735
L339.672 88.5208
L340.259 88.5208
L340.259 91.1742
L340.846 91.1742
L340.846 88.6655
L341.433 88.6655
L341.433 89.5725
L342.021 89.5725
L342.021 90.6917
L342.608 90.6917
L342.608 88.7524
L343.782 88.7717
L343.782 91.4636
L344.369 91.4636
L344.369 93.7407
L344.956 93.7407
L344.956 89.9199
L345.543 89.9199
L345.543 90.9619
L346.717 90.9619
L346.717 89.9295
L347.305 89.9295
L347.305 90.5084
L347.892 90.5084
L347.892 88.7524
L348.479 88.7524
L348.479 89.2734
L349.066 89.2734
L349.066 92.9688
L349.653 92.9688
L349.653 90.0742
L350.24 90.0742
L350.24 88.8199
L350.827 88.8199
L350.827 73.7972
L351.414 73.7972
L351.414 74.9743
L352.001 74.9743
L352.001 74.7814
L352.589 74.7814
L352.589 76.1708
L353.176 76.1708
L353.176 75.8234
L353.763 75.8234
L353.763 80.0012
L354.35 80.0012
L354.35 79.2679
L354.937 79.2679
L354.937 84.1404
L355.524 84.1404
L355.524 86.0605
L356.111 86.0605
L356.111 76.4313
L356.698 76.4313
L356.698 82.751
L357.285 82.751
L357.285 88.2507
L357.873 88.2507
L357.873 80.667
L358.46 80.667
L358.46 85.2403
L359.047 85.2403
L359.047 81.3616
L359.634 81.3616
L359.634 79.9916
L360.221 79.9916
L360.221 85.7903
L360.808 85.7903
L360.808 80.7731
L361.395 80.7731
L361.395 84.507
L361.982 84.507
L361.982 89.0611
L362.569 89.0611
L362.569 84.2079
L363.157 84.2079
L363.157 88.7331
L363.744 88.7331
L363.744 86.6104
L364.918 86.678
L364.918 92.7469
L365.505 92.7469
L365.505 90.2479
L366.092 90.2479
L366.092 88.9164
L366.679 88.9164
L366.679 92.2548
L367.266 92.2548
L367.266 93.3644
L367.853 93.3644
L367.853 88.3954
L368.441 88.3954
L368.441 91.3864
L369.028 91.3864
L369.028 91.0101
L369.615 91.0101
L369.615 92.1872
L370.202 92.1872
L370.202 90.7979
L370.789 90.7979
L370.789 88.3182
L371.376 88.3182
L371.376 92.6986
L371.963 92.6986
L371.963 95.6511
L372.55 95.6511
L372.55 92.2934
L373.137 92.2934
L373.137 94.8406
L373.724 94.8406
L373.724 92.1004
L374.899 92.0232
L374.899 96.037
L375.486 96.037
L375.486 94.9274
L376.073 94.9274
L376.073 95.1686
L376.66 95.1686
L376.66 94.1459
L377.247 94.1459
L377.247 98.3526
L377.834 98.3526
L377.834 88.3182
L378.421 88.3182
L378.421 105.068
L379.008 105.068
L379.008 111.6
L379.596 111.6
L379.596 101.209
L380.183 101.209
L380.183 87.9805
L380.77 87.9805
L380.77 89.5629
L381.357 89.5629
L381.357 89.1962
L381.944 89.1962
L381.944 96.8378
L382.531 96.8378
L382.531 92.9977
L383.118 92.9977
L383.118 90.7786
L383.705 90.7786
L383.705 94.9467
L384.292 94.9467
L384.292 95.4098
L384.88 95.4098
L384.88 92.2548
L385.467 92.2548
L385.467 93.8661
L386.054 93.8661
L386.054 93.2872
L386.641 93.2872
L386.641 92.0811
L387.228 92.0811
L387.228 88.2121
L387.815 88.2121
L387.815 87.9033
L388.402 87.9033
L388.402 90.0453
L388.989 90.0453
L388.989 89.2541
L389.576 89.2541
L389.576 97.8027
L390.164 97.8027
L390.164 91.9267
L390.751 91.9267
L390.751 94.5511
L391.338 94.5511
L391.338 91.8495
L391.925 91.8495
L391.925 89.2059
L392.512 89.2059
L392.512 90.9329
L393.099 90.9329
L393.099 93.374
L393.686 93.374
L393.686 91.454
L394.273 91.454
L394.273 89.3892
L394.86 89.3892
L394.86 84.7965
L395.448 84.7965
L395.448 90.0549
L396.035 90.0549
L396.035 89.6883
L396.622 89.6883
L396.622 86.8034
L397.209 86.8034
L397.209 87.2183
L397.796 87.2183
L397.796 87.2183" style="fill:none;stroke:#0000ff;"/>
   </g>
   <g id="matplotlib.axis_1">
    <g id="xtick_1">
     <g id="line2d_35">
      <defs>
       <path d="
M0 0
L0 -4" id="m0012dd4eef" style="stroke:#000000;stroke-linecap:butt;stroke-width:0.5;"/>
      </defs>
      <g>
       <use style="stroke:#000000;stroke-linecap:butt;stroke-width:0.5;" x="46.1171875" xlink:href="#m0012dd4eef" y="111.6"/>
      </g>
     </g>
     <g id="line2d_36">
      <defs>
       <path d="
M0 0
L0 4" id="m476344969c" style="stroke:#000000;stroke-linecap:butt;stroke-width:0.5;"/>
      </defs>
      <g>
       <use style="stroke:#000000;stroke-linecap:butt;stroke-width:0.5;" x="46.1171875" xlink:href="#m476344969c" y="32.0"/>
      </g>
     </g>
     <g id="text_1">
      <!-- 0 -->
      <defs>
       <path d="
M31.7812 66.4062
Q24.1719 66.4062 20.3281 58.9062
Q16.5 51.4219 16.5 36.375
Q16.5 21.3906 20.3281 13.8906
Q24.1719 6.39062 31.7812 6.39062
Q39.4531 6.39062 43.2812 13.8906
Q47.125 21.3906 47.125 36.375
Q47.125 51.4219 43.2812 58.9062
Q39.4531 66.4062 31.7812 66.4062
M31.7812 74.2188
Q44.0469 74.2188 50.5156 64.5156
Q56.9844 54.8281 56.9844 36.375
Q56.9844 17.9688 50.5156 8.26562
Q44.0469 -1.42188 31.7812 -1.42188
Q19.5312 -1.42188 13.0625 8.26562
Q6.59375 17.9688 6.59375 36.375
Q6.59375 54.8281 13.0625 64.5156
Q19.5312 74.2188 31.7812 74.2188" id="DejaVuSans-30"/>
      </defs>
      <g transform="translate(43.59765625 123.021875)scale(0.1 -0.1)">
       <use xlink:href="#DejaVuSans-30"/>
      </g>
     </g>
    </g>
    <g id="xtick_2">
     <g id="line2d_37">
      <g>
       <use style="stroke:#000000;stroke-linecap:butt;stroke-width:0.5;" x="135.073242188" xlink:href="#m0012dd4eef" y="111.6"/>
      </g>
     </g>
     <g id="line2d_38">
      <g>
       <use style="stroke:#000000;stroke-linecap:butt;stroke-width:0.5;" x="135.073242188" xlink:href="#m476344969c" y="32.0"/>
      </g>
     </g>
     <g id="text_2">
      <!-- 500 -->
      <defs>
       <path d="
M10.7969 72.9062
L49.5156 72.9062
L49.5156 64.5938
L19.8281 64.5938
L19.8281 46.7344
Q21.9688 47.4688 24.1094 47.8281
Q26.2656 48.1875 28.4219 48.1875
Q40.625 48.1875 47.75 41.5
Q54.8906 34.8125 54.8906 23.3906
Q54.8906 11.625 47.5625 5.09375
Q40.2344 -1.42188 26.9062 -1.42188
Q22.3125 -1.42188 17.5469 -0.640625
Q12.7969 0.140625 7.71875 1.70312
L7.71875 11.625
Q12.1094 9.23438 16.7969 8.0625
Q21.4844 6.89062 26.7031 6.89062
Q35.1562 6.89062 40.0781 11.3281
Q45.0156 15.7656 45.0156 23.3906
Q45.0156 31 40.0781 35.4375
Q35.1562 39.8906 26.7031 39.8906
Q22.75 39.8906 18.8125 39.0156
Q14.8906 38.1406 10.7969 36.2812
z
" id="DejaVuSans-35"/>
      </defs>
      <g transform="translate(126.247460938 123.021875)scale(0.1 -0.1)">
       <use xlink:href="#DejaVuSans-35"/>
       <use x="63.623046875" xlink:href="#DejaVuSans-30"/>
       <use x="127.24609375" xlink:href="#DejaVuSans-30"/>
      </g>
     </g>
    </g>
    <g id="xtick_3">
     <g id="line2d_39">
      <g>
       <use style="stroke:#000000;stroke-linecap:butt;stroke-width:0.5;" x="224.029296875" xlink:href="#m0012dd4eef" y="111.6"/>
      </g>
     </g>
     <g id="line2d_40">
      <g>
       <use style="stroke:#000000;stroke-linecap:butt;stroke-width:0.5;" x="224.029296875" xlink:href="#m476344969c" y="32.0"/>
      </g>
     </g>
     <g id="text_3">
      <!-- 1000 -->
      <defs>
       <path d="
M12.4062 8.29688
L28.5156 8.29688
L28.5156 63.9219
L10.9844 60.4062
L10.9844 69.3906
L28.4219 72.9062
L38.2812 72.9062
L38.2812 8.29688
L54.3906 8.29688
L54.3906 0
L12.4062 0
z
" id="DejaVuSans-31"/>
      </defs>
      <g transform="translate(212.185546875 123.021875)scale(0.1 -0.1)">
       <use xlink:href="#DejaVuSans-31"/>
       <use x="63.623046875" xlink:href="#DejaVuSans-30"/>
       <use x="127.24609375" xlink:href="#DejaVuSans-30"/>
       <use x="190.869140625" xlink:href="#DejaVuSans-30"/>
      </g>
     </g>
    </g>
    <g id="xtick_4">
     <g id="line2d_41">
      <g>
       <use style="stroke:#000000;stroke-linecap:butt;stroke-width:0.5;" x="312.985351563" xlink:href="#m0012dd4eef" y="111.6"/>
      </g>
     </g>
     <g id="line2d_42">
      <g>
       <use style="stroke:#000000;stroke-linecap:butt;stroke-width:0.5;" x="312.985351563" xlink:href="#m476344969c" y="32.0"/>
      </g>
     </g>
     <g id="text_4">
      <!-- 1500 -->
      <g transform="translate(301.141601563 123.021875)scale(0.1 -0.1)">
       <use xlink:href="#DejaVuSans-31"/>
       <use x="63.623046875" xlink:href="#DejaVuSans-35"/>
       <use x="127.24609375" xlink:href="#DejaVuSans-30"/>
       <use x="190.869140625" xlink:href="#DejaVuSans-30"/>
      </g>
     </g>
    </g>
    <g id="xtick_5">
     <g id="line2d_43">
      <g>
       <use style="stroke:#000000;stroke-linecap:butt;stroke-width:0.5;" x="401.94140625" xlink:href="#m0012dd4eef" y="111.6"/>
      </g>
     </g>
     <g id="line2d_44">
      <g>
       <use style="stroke:#000000;stroke-linecap:butt;stroke-width:0.5;" x="401.94140625" xlink:href="#m476344969c" y="32.0"/>
      </g>
     </g>
     <g id="text_5">
      <!-- 2000 -->
      <defs>
       <path d="
M19.1875 8.29688
L53.6094 8.29688
L53.6094 0
L7.32812 0
L7.32812 8.29688
Q12.9375 14.1094 22.625 23.8906
Q32.3281 33.6875 34.8125 36.5312
Q39.5469 41.8438 41.4219 45.5312
Q43.3125 49.2188 43.3125 52.7812
Q43.3125 58.5938 39.2344 62.25
Q35.1562 65.9219 28.6094 65.9219
Q23.9688 65.9219 18.8125 64.3125
Q13.6719 62.7031 7.8125 59.4219
L7.8125 69.3906
Q13.7656 71.7812 18.9375 73
Q24.125 74.2188 28.4219 74.2188
Q39.75 74.2188 46.4844 68.5469
Q53.2188 62.8906 53.2188 53.4219
Q53.2188 48.9219 51.5312 44.8906
Q49.8594 40.875 45.4062 35.4062
Q44.1875 33.9844 37.6406 27.2188
Q31.1094 20.4531 19.1875 8.29688" id="DejaVuSans-32"/>
      </defs>
      <g transform="translate(389.91484375 123.021875)scale(0.1 -0.1)">
       <use xlink:href="#DejaVuSans-32"/>
       <use x="63.623046875" xlink:href="#DejaVuSans-30"/>
       <use x="127.24609375" xlink:href="#DejaVuSans-30"/>
       <use x="190.869140625" xlink:href="#DejaVuSans-30"/>
      </g>
     </g>
    </g>
    <g id="text_6">
     <!-- Time -->
     <defs>
      <path d="
M52 44.1875
Q55.375 50.25 60.0625 53.125
Q64.75 56 71.0938 56
Q79.6406 56 84.2812 50.0156
Q88.9219 44.0469 88.9219 33.0156
L88.9219 0
L79.8906 0
L79.8906 32.7188
Q79.8906 40.5781 77.0938 44.375
Q74.3125 48.1875 68.6094 48.1875
Q61.625 48.1875 57.5625 43.5469
Q53.5156 38.9219 53.5156 30.9062
L53.5156 0
L44.4844 0
L44.4844 32.7188
Q44.4844 40.625 41.7031 44.4062
Q38.9219 48.1875 33.1094 48.1875
Q26.2188 48.1875 22.1562 43.5312
Q18.1094 38.875 18.1094 30.9062
L18.1094 0
L9.07812 0
L9.07812 54.6875
L18.1094 54.6875
L18.1094 46.1875
Q21.1875 51.2188 25.4844 53.6094
Q29.7812 56 35.6875 56
Q41.6562 56 45.8281 52.9688
Q50 49.9531 52 44.1875" id="DejaVuSans-6d"/>
      <path d="
M9.42188 54.6875
L18.4062 54.6875
L18.4062 0
L9.42188 0
z

M9.42188 75.9844
L18.4062 75.9844
L18.4062 64.5938
L9.42188 64.5938
z
" id="DejaVuSans-69"/>
      <path d="
M56.2031 29.5938
L56.2031 25.2031
L14.8906 25.2031
Q15.4844 15.9219 20.4844 11.0625
Q25.4844 6.20312 34.4219 6.20312
Q39.5938 6.20312 44.4531 7.46875
Q49.3125 8.73438 54.1094 11.2812
L54.1094 2.78125
Q49.2656 0.734375 44.1875 -0.34375
Q39.1094 -1.42188 33.8906 -1.42188
Q20.7969 -1.42188 13.1562 6.1875
Q5.51562 13.8125 5.51562 26.8125
Q5.51562 40.2344 12.7656 48.1094
Q20.0156 56 32.3281 56
Q43.3594 56 49.7812 48.8906
Q56.2031 41.7969 56.2031 29.5938
M47.2188 32.2344
Q47.125 39.5938 43.0938 43.9844
Q39.0625 48.3906 32.4219 48.3906
Q24.9062 48.3906 20.3906 44.1406
Q15.875 39.8906 15.1875 32.1719
z
" id="DejaVuSans-65"/>
      <path d="
M-0.296875 72.9062
L61.375 72.9062
L61.375 64.5938
L35.5 64.5938
L35.5 0
L25.5938 0
L25.5938 64.5938
L-0.296875 64.5938
z
" id="DejaVuSans-54"/>
     </defs>
     <g transform="translate(212.047265625 135.7625)scale(0.1 -0.1)">
      <use xlink:href="#DejaVuSans-54"/>
      <use x="57.958984375" xlink:href="#DejaVuSans-69"/>
      <use x="85.7421875" xlink:href="#DejaVuSans-6d"/>
      <use x="183.154296875" xlink:href="#DejaVuSans-65"/>
     </g>
    </g>
   </g>
   <g id="matplotlib.axis_2">
    <g id="ytick_1">
     <g id="line2d_45">
      <defs>
       <path d="
M0 0
L4 0" id="me8a85f7bf6" style="stroke:#000000;stroke-linecap:butt;stroke-width:0.5;"/>
      </defs>
      <g>
       <use style="stroke:#000000;stroke-linecap:butt;stroke-width:0.5;" x="46.1171875" xlink:href="#me8a85f7bf6" y="111.6"/>
      </g>
     </g>
     <g id="line2d_46">
      <defs>
       <path d="
M0 0
L-4 0" id="m1a32005dea" style="stroke:#000000;stroke-linecap:butt;stroke-width:0.5;"/>
      </defs>
      <g>
       <use style="stroke:#000000;stroke-linecap:butt;stroke-width:0.5;" x="401.94140625" xlink:href="#m1a32005dea" y="111.6"/>
      </g>
     </g>
     <g id="text_7">
      <!-- 0 -->
      <g transform="translate(37.078125 115.23984375)scale(0.1 -0.1)">
       <use xlink:href="#DejaVuSans-30"/>
      </g>
     </g>
    </g>
    <g id="ytick_2">
     <g id="line2d_47">
      <g>
       <use style="stroke:#000000;stroke-linecap:butt;stroke-width:0.5;" x="46.1171875" xlink:href="#me8a85f7bf6" y="95.68"/>
      </g>
     </g>
     <g id="line2d_48">
      <g>
       <use style="stroke:#000000;stroke-linecap:butt;stroke-width:0.5;" x="401.94140625" xlink:href="#m1a32005dea" y="95.68"/>
      </g>
     </g>
     <g id="text_8">
      <!-- 500 -->
      <g transform="translate(24.465625 99.31984375)scale(0.1 -0.1)">
       <use xlink:href="#DejaVuSans-35"/>
       <use x="63.623046875" xlink:href="#DejaVuSans-30"/>
       <use x="127.24609375" xlink:href="#DejaVuSans-30"/>
      </g>
     </g>
    </g>
    <g id="ytick_3">
     <g id="line2d_49">
      <g>
       <use style="stroke:#000000;stroke-linecap:butt;stroke-width:0.5;" x="46.1171875" xlink:href="#me8a85f7bf6" y="79.76"/>
      </g>
     </g>
     <g id="line2d_50">
      <g>
       <use style="stroke:#000000;stroke-linecap:butt;stroke-width:0.5;" x="401.94140625" xlink:href="#m1a32005dea" y="79.76"/>
      </g>
     </g>
     <g id="text_9">
      <!-- 1000 -->
      <g transform="translate(18.4296875 83.39984375)scale(0.1 -0.1)">
       <use xlink:href="#DejaVuSans-31"/>
       <use x="63.623046875" xlink:href="#DejaVuSans-30"/>
       <use x="127.24609375" xlink:href="#DejaVuSans-30"/>
       <use x="190.869140625" xlink:href="#DejaVuSans-30"/>
      </g>
     </g>
    </g>
    <g id="ytick_4">
     <g id="line2d_51">
      <g>
       <use style="stroke:#000000;stroke-linecap:butt;stroke-width:0.5;" x="46.1171875" xlink:href="#me8a85f7bf6" y="63.84"/>
      </g>
     </g>
     <g id="line2d_52">
      <g>
       <use style="stroke:#000000;stroke-linecap:butt;stroke-width:0.5;" x="401.94140625" xlink:href="#m1a32005dea" y="63.84"/>
      </g>
     </g>
     <g id="text_10">
      <!-- 1500 -->
      <g transform="translate(18.4296875 67.47984375)scale(0.1 -0.1)">
       <use xlink:href="#DejaVuSans-31"/>
       <use x="63.623046875" xlink:href="#DejaVuSans-35"/>
       <use x="127.24609375" xlink:href="#DejaVuSans-30"/>
       <use x="190.869140625" xlink:href="#DejaVuSans-30"/>
      </g>
     </g>
    </g>
    <g id="ytick_5">
     <g id="line2d_53">
      <g>
       <use style="stroke:#000000;stroke-linecap:butt;stroke-width:0.5;" x="46.1171875" xlink:href="#me8a85f7bf6" y="47.92"/>
      </g>
     </g>
     <g id="line2d_54">
      <g>
       <use style="stroke:#000000;stroke-linecap:butt;stroke-width:0.5;" x="401.94140625" xlink:href="#m1a32005dea" y="47.92"/>
      </g>
     </g>
     <g id="text_11">
      <!-- 2000 -->
      <g transform="translate(18.0640625 51.55984375)scale(0.1 -0.1)">
       <use xlink:href="#DejaVuSans-32"/>
       <use x="63.623046875" xlink:href="#DejaVuSans-30"/>
       <use x="127.24609375" xlink:href="#DejaVuSans-30"/>
       <use x="190.869140625" xlink:href="#DejaVuSans-30"/>
      </g>
     </g>
    </g>
    <g id="ytick_6">
     <g id="line2d_55">
      <g>
       <use style="stroke:#000000;stroke-linecap:butt;stroke-width:0.5;" x="46.1171875" xlink:href="#me8a85f7bf6" y="32.0"/>
      </g>
     </g>
     <g id="line2d_56">
      <g>
       <use style="stroke:#000000;stroke-linecap:butt;stroke-width:0.5;" x="401.94140625" xlink:href="#m1a32005dea" y="32.0"/>
      </g>
     </g>
     <g id="text_12">
      <!-- 2500 -->
      <g transform="translate(18.0640625 35.63984375)scale(0.1 -0.1)">
       <use xlink:href="#DejaVuSans-32"/>
       <use x="63.623046875" xlink:href="#DejaVuSans-35"/>
       <use x="127.24609375" xlink:href="#DejaVuSans-30"/>
       <use x="190.869140625" xlink:href="#DejaVuSans-30"/>
      </g>
     </g>
    </g>
   </g>
   <g id="patch_3">
    <path d="
M46.1172 32
L401.941 32" style="fill:none;stroke:#000000;"/>
   </g>
   <g id="patch_4">
    <path d="
M401.941 111.6
L401.941 32" style="fill:none;stroke:#000000;"/>
   </g>
   <g id="patch_5">
    <path d="
M46.1172 111.6
L401.941 111.6" style="fill:none;stroke:#000000;"/>
   </g>
   <g id="patch_6">
    <path d="
M46.1172 111.6
L46.1172 32" style="fill:none;stroke:#000000;"/>
   </g>
   <g id="text_13">
    <!-- OLTP -->
    <defs>
     <path d="
M39.4062 66.2188
Q28.6562 66.2188 22.3281 58.2031
Q16.0156 50.2031 16.0156 36.375
Q16.0156 22.6094 22.3281 14.5938
Q28.6562 6.59375 39.4062 6.59375
Q50.1406 6.59375 56.4219 14.5938
Q62.7031 22.6094 62.7031 36.375
Q62.7031 50.2031 56.4219 58.2031
Q50.1406 66.2188 39.4062 66.2188
M39.4062 74.2188
Q54.7344 74.2188 63.9062 63.9375
Q73.0938 53.6562 73.0938 36.375
Q73.0938 19.1406 63.9062 8.85938
Q54.7344 -1.42188 39.4062 -1.42188
Q24.0312 -1.42188 14.8125 8.82812
Q5.60938 19.0938 5.60938 36.375
Q5.60938 53.6562 14.8125 63.9375
Q24.0312 74.2188 39.4062 74.2188" id="DejaVuSans-4f"/>
     <path d="
M19.6719 64.7969
L19.6719 37.4062
L32.0781 37.4062
Q38.9688 37.4062 42.7188 40.9688
Q46.4844 44.5312 46.4844 51.125
Q46.4844 57.6719 42.7188 61.2344
Q38.9688 64.7969 32.0781 64.7969
z

M9.8125 72.9062
L32.0781 72.9062
Q44.3438 72.9062 50.6094 67.3594
Q56.8906 61.8125 56.8906 51.125
Q56.8906 40.3281 50.6094 34.8125
Q44.3438 29.2969 32.0781 29.2969
L19.6719 29.2969
L19.6719 0
L9.8125 0
z
" id="DejaVuSans-50"/>
     <path d="
M9.8125 72.9062
L19.6719 72.9062
L19.6719 8.29688
L55.1719 8.29688
L55.1719 0
L9.8125 0
z
" id="DejaVuSans-4c"/>
    </defs>
    <g transform="translate(210.046484375 27.0)scale(0.12 -0.12)">
     <use xlink:href="#DejaVuSans-4f"/>
     <use x="78.7109375" xlink:href="#DejaVuSans-4c"/>
     <use x="120.673828125" xlink:href="#DejaVuSans-54"/>
     <use x="181.7578125" xlink:href="#DejaVuSans-50"/>
    </g>
   </g>
  </g>
  <g id="axes_2">
   <g id="patch_7">
    <path d="
M46.1172 246.6
L401.941 246.6
L401.941 167
L46.1172 167
z
" style="fill:#ffffff;"/>
   </g>
   <g id="line2d_57">
    <path clip-path="url(#pe9bd9c4693)" d="
M56.7921 246.6
L56.7921 167" style="fill:none;stroke:#00ffff;stroke-dasharray:6.000000,6.000000;stroke-dashoffset:0.0;stroke-linecap:butt;"/>
   </g>
   <g id="line2d_58">
    <path clip-path="url(#pe9bd9c4693)" d="
M78.1418 246.6
L78.1418 167" style="fill:none;stroke:#00ffff;stroke-dasharray:6.000000,6.000000;stroke-dashoffset:0.0;stroke-linecap:butt;"/>
   </g>
   <g id="line2d_59">
    <path clip-path="url(#pe9bd9c4693)" d="
M78.1419 246.6
L78.1419 167" style="fill:none;stroke:#00ffff;stroke-dasharray:6.000000,6.000000;stroke-dashoffset:0.0;stroke-linecap:butt;"/>
   </g>
   <g id="line2d_60">
    <path clip-path="url(#pe9bd9c4693)" d="
M78.1422 246.6
L78.1422 167" style="fill:none;stroke:#00ffff;stroke-dasharray:6.000000,6.000000;stroke-dashoffset:0.0;stroke-linecap:butt;"/>
   </g>
   <g id="line2d_61">
    <path clip-path="url(#pe9bd9c4693)" d="
M99.4912 246.6
L99.4912 167" style="fill:none;stroke:#00ffff;stroke-dasharray:6.000000,6.000000;stroke-dashoffset:0.0;stroke-linecap:butt;"/>
   </g>
   <g id="line2d_62">
    <path clip-path="url(#pe9bd9c4693)" d="
M99.4913 246.6
L99.4913 167" style="fill:none;stroke:#00ffff;stroke-dasharray:6.000000,6.000000;stroke-dashoffset:0.0;stroke-linecap:butt;"/>
   </g>
   <g id="line2d_63">
    <path clip-path="url(#pe9bd9c4693)" d="
M99.4914 246.6
L99.4914 167" style="fill:none;stroke:#00ffff;stroke-dasharray:6.000000,6.000000;stroke-dashoffset:0.0;stroke-linecap:butt;"/>
   </g>
   <g id="line2d_64">
    <path clip-path="url(#pe9bd9c4693)" d="
M99.4917 246.6
L99.4917 167" style="fill:none;stroke:#00ffff;stroke-dasharray:6.000000,6.000000;stroke-dashoffset:0.0;stroke-linecap:butt;"/>
   </g>
   <g id="line2d_65">
    <path clip-path="url(#pe9bd9c4693)" d="
M120.84 246.6
L120.84 167" style="fill:none;stroke:#00ffff;stroke-dasharray:6.000000,6.000000;stroke-dashoffset:0.0;stroke-linecap:butt;"/>
   </g>
   <g id="line2d_66">
    <path clip-path="url(#pe9bd9c4693)" d="
M120.841 246.6
L120.841 167" style="fill:none;stroke:#00ffff;stroke-dasharray:6.000000,6.000000;stroke-dashoffset:0.0;stroke-linecap:butt;"/>
   </g>
   <g id="line2d_67">
    <path clip-path="url(#pe9bd9c4693)" d="
M120.841 246.6
L120.841 167" style="fill:none;stroke:#00ffff;stroke-dasharray:6.000000,6.000000;stroke-dashoffset:0.0;stroke-linecap:butt;"/>
   </g>
   <g id="line2d_68">
    <path clip-path="url(#pe9bd9c4693)" d="
M142.19 246.6
L142.19 167" style="fill:none;stroke:#00ffff;stroke-dasharray:6.000000,6.000000;stroke-dashoffset:0.0;stroke-linecap:butt;"/>
   </g>
   <g id="line2d_69">
    <path clip-path="url(#pe9bd9c4693)" d="
M142.19 246.6
L142.19 167" style="fill:none;stroke:#00ffff;stroke-dasharray:6.000000,6.000000;stroke-dashoffset:0.0;stroke-linecap:butt;"/>
   </g>
   <g id="line2d_70">
    <path clip-path="url(#pe9bd9c4693)" d="
M163.539 246.6
L163.539 167" style="fill:none;stroke:#00ffff;stroke-dasharray:6.000000,6.000000;stroke-dashoffset:0.0;stroke-linecap:butt;"/>
   </g>
   <g id="line2d_71">
    <path clip-path="url(#pe9bd9c4693)" d="
M163.54 246.6
L163.54 167" style="fill:none;stroke:#00ffff;stroke-dasharray:6.000000,6.000000;stroke-dashoffset:0.0;stroke-linecap:butt;"/>
   </g>
   <g id="line2d_72">
    <path clip-path="url(#pe9bd9c4693)" d="
M184.889 246.6
L184.889 167" style="fill:none;stroke:#00ffff;stroke-dasharray:6.000000,6.000000;stroke-dashoffset:0.0;stroke-linecap:butt;"/>
   </g>
   <g id="line2d_73">
    <path clip-path="url(#pe9bd9c4693)" d="
M184.889 246.6
L184.889 167" style="fill:none;stroke:#00ffff;stroke-dasharray:6.000000,6.000000;stroke-dashoffset:0.0;stroke-linecap:butt;"/>
   </g>
   <g id="line2d_74">
    <path clip-path="url(#pe9bd9c4693)" d="
M206.239 246.6
L206.239 167" style="fill:none;stroke:#00ffff;stroke-dasharray:6.000000,6.000000;stroke-dashoffset:0.0;stroke-linecap:butt;"/>
   </g>
   <g id="line2d_75">
    <path clip-path="url(#pe9bd9c4693)" d="
M206.239 246.6
L206.239 167" style="fill:none;stroke:#00ffff;stroke-dasharray:6.000000,6.000000;stroke-dashoffset:0.0;stroke-linecap:butt;"/>
   </g>
   <g id="line2d_76">
    <path clip-path="url(#pe9bd9c4693)" d="
M206.239 246.6
L206.239 167" style="fill:none;stroke:#00ffff;stroke-dasharray:6.000000,6.000000;stroke-dashoffset:0.0;stroke-linecap:butt;"/>
   </g>
   <g id="line2d_77">
    <path clip-path="url(#pe9bd9c4693)" d="
M206.239 246.6
L206.239 167" style="fill:none;stroke:#00ffff;stroke-dasharray:6.000000,6.000000;stroke-dashoffset:0.0;stroke-linecap:butt;"/>
   </g>
   <g id="line2d_78">
    <path clip-path="url(#pe9bd9c4693)" d="
M227.588 246.6
L227.588 167" style="fill:none;stroke:#00ffff;stroke-dasharray:6.000000,6.000000;stroke-dashoffset:0.0;stroke-linecap:butt;"/>
   </g>
   <g id="line2d_79">
    <path clip-path="url(#pe9bd9c4693)" d="
M227.588 246.6
L227.588 167" style="fill:none;stroke:#00ffff;stroke-dasharray:6.000000,6.000000;stroke-dashoffset:0.0;stroke-linecap:butt;"/>
   </g>
   <g id="line2d_80">
    <path clip-path="url(#pe9bd9c4693)" d="
M248.937 246.6
L248.937 167" style="fill:none;stroke:#00ffff;stroke-dasharray:6.000000,6.000000;stroke-dashoffset:0.0;stroke-linecap:butt;"/>
   </g>
   <g id="line2d_81">
    <path clip-path="url(#pe9bd9c4693)" d="
M248.937 246.6
L248.937 167" style="fill:none;stroke:#00ffff;stroke-dasharray:6.000000,6.000000;stroke-dashoffset:0.0;stroke-linecap:butt;"/>
   </g>
   <g id="line2d_82">
    <path clip-path="url(#pe9bd9c4693)" d="
M270.287 246.6
L270.287 167" style="fill:none;stroke:#00ffff;stroke-dasharray:6.000000,6.000000;stroke-dashoffset:0.0;stroke-linecap:butt;"/>
   </g>
   <g id="line2d_83">
    <path clip-path="url(#pe9bd9c4693)" d="
M270.287 246.6
L270.287 167" style="fill:none;stroke:#00ffff;stroke-dasharray:6.000000,6.000000;stroke-dashoffset:0.0;stroke-linecap:butt;"/>
   </g>
   <g id="line2d_84">
    <path clip-path="url(#pe9bd9c4693)" d="
M291.636 246.6
L291.636 167" style="fill:none;stroke:#00ffff;stroke-dasharray:6.000000,6.000000;stroke-dashoffset:0.0;stroke-linecap:butt;"/>
   </g>
   <g id="line2d_85">
    <path clip-path="url(#pe9bd9c4693)" d="
M312.986 246.6
L312.986 167" style="fill:none;stroke:#00ffff;stroke-dasharray:6.000000,6.000000;stroke-dashoffset:0.0;stroke-linecap:butt;"/>
   </g>
   <g id="line2d_86">
    <path clip-path="url(#pe9bd9c4693)" d="
M334.335 246.6
L334.335 167" style="fill:none;stroke:#00ffff;stroke-dasharray:6.000000,6.000000;stroke-dashoffset:0.0;stroke-linecap:butt;"/>
   </g>
   <g id="line2d_87">
    <path clip-path="url(#pe9bd9c4693)" d="
M355.685 246.6
L355.685 167" style="fill:none;stroke:#00ffff;stroke-dasharray:6.000000,6.000000;stroke-dashoffset:0.0;stroke-linecap:butt;"/>
   </g>
   <g id="line2d_88">
    <path clip-path="url(#pe9bd9c4693)" d="
M377.034 246.6
L377.034 167" style="fill:none;stroke:#00ffff;stroke-dasharray:6.000000,6.000000;stroke-dashoffset:0.0;stroke-linecap:butt;"/>
   </g>
   <g id="line2d_89">
    <path clip-path="url(#pe9bd9c4693)" d="
M377.035 246.6
L377.035 167" style="fill:none;stroke:#00ffff;stroke-dasharray:6.000000,6.000000;stroke-dashoffset:0.0;stroke-linecap:butt;"/>
   </g>
   <g id="line2d_90">
    <path clip-path="url(#pe9bd9c4693)" d="
M57.8201 235.987
L57.8201 235.428
L77.8359 235.428
L77.8359 231.705
L97.8518 231.705
L97.8518 231.705
L117.868 231.705
L117.868 235.056
L137.883 235.056
L137.883 235.615
L157.899 235.615
L157.899 233.38
L177.915 233.38
L177.915 233.194
L197.931 233.194
L197.931 230.215
L217.947 230.215
L217.947 234.498
L237.963 234.498
L237.963 228.539
L257.979 228.539
L257.979 229.284
L277.994 229.284
L277.994 230.774
L298.01 230.774
L298.01 232.822
L318.026 232.822
L318.026 232.077
L338.042 232.077
L338.042 235.242
L358.058 235.242
L358.058 233.753
L378.074 233.753" style="fill:none;stroke:#008000;"/>
   </g>
   <g id="matplotlib.axis_3">
    <g id="xtick_6">
     <g id="line2d_91">
      <g>
       <use style="stroke:#000000;stroke-linecap:butt;stroke-width:0.5;" x="46.1171875" xlink:href="#m0012dd4eef" y="246.6"/>
      </g>
     </g>
     <g id="line2d_92">
      <g>
       <use style="stroke:#000000;stroke-linecap:butt;stroke-width:0.5;" x="46.1171875" xlink:href="#m476344969c" y="167.0"/>
      </g>
     </g>
     <g id="text_14">
      <!-- 0 -->
      <g transform="translate(43.59765625 258.021875)scale(0.1 -0.1)">
       <use xlink:href="#DejaVuSans-30"/>
      </g>
     </g>
    </g>
    <g id="xtick_7">
     <g id="line2d_93">
      <g>
       <use style="stroke:#000000;stroke-linecap:butt;stroke-width:0.5;" x="135.073242188" xlink:href="#m0012dd4eef" y="246.6"/>
      </g>
     </g>
     <g id="line2d_94">
      <g>
       <use style="stroke:#000000;stroke-linecap:butt;stroke-width:0.5;" x="135.073242188" xlink:href="#m476344969c" y="167.0"/>
      </g>
     </g>
     <g id="text_15">
      <!-- 500 -->
      <g transform="translate(126.247460938 258.021875)scale(0.1 -0.1)">
       <use xlink:href="#DejaVuSans-35"/>
       <use x="63.623046875" xlink:href="#DejaVuSans-30"/>
       <use x="127.24609375" xlink:href="#DejaVuSans-30"/>
      </g>
     </g>
    </g>
    <g id="xtick_8">
     <g id="line2d_95">
      <g>
       <use style="stroke:#000000;stroke-linecap:butt;stroke-width:0.5;" x="224.029296875" xlink:href="#m0012dd4eef" y="246.6"/>
      </g>
     </g>
     <g id="line2d_96">
      <g>
       <use style="stroke:#000000;stroke-linecap:butt;stroke-width:0.5;" x="224.029296875" xlink:href="#m476344969c" y="167.0"/>
      </g>
     </g>
     <g id="text_16">
      <!-- 1000 -->
      <g transform="translate(212.185546875 258.021875)scale(0.1 -0.1)">
       <use xlink:href="#DejaVuSans-31"/>
       <use x="63.623046875" xlink:href="#DejaVuSans-30"/>
       <use x="127.24609375" xlink:href="#DejaVuSans-30"/>
       <use x="190.869140625" xlink:href="#DejaVuSans-30"/>
      </g>
     </g>
    </g>
    <g id="xtick_9">
     <g id="line2d_97">
      <g>
       <use style="stroke:#000000;stroke-linecap:butt;stroke-width:0.5;" x="312.985351563" xlink:href="#m0012dd4eef" y="246.6"/>
      </g>
     </g>
     <g id="line2d_98">
      <g>
       <use style="stroke:#000000;stroke-linecap:butt;stroke-width:0.5;" x="312.985351563" xlink:href="#m476344969c" y="167.0"/>
      </g>
     </g>
     <g id="text_17">
      <!-- 1500 -->
      <g transform="translate(301.141601563 258.021875)scale(0.1 -0.1)">
       <use xlink:href="#DejaVuSans-31"/>
       <use x="63.623046875" xlink:href="#DejaVuSans-35"/>
       <use x="127.24609375" xlink:href="#DejaVuSans-30"/>
       <use x="190.869140625" xlink:href="#DejaVuSans-30"/>
      </g>
     </g>
    </g>
    <g id="xtick_10">
     <g id="line2d_99">
      <g>
       <use style="stroke:#000000;stroke-linecap:butt;stroke-width:0.5;" x="401.94140625" xlink:href="#m0012dd4eef" y="246.6"/>
      </g>
     </g>
     <g id="line2d_100">
      <g>
       <use style="stroke:#000000;stroke-linecap:butt;stroke-width:0.5;" x="401.94140625" xlink:href="#m476344969c" y="167.0"/>
      </g>
     </g>
     <g id="text_18">
      <!-- 2000 -->
      <g transform="translate(389.91484375 258.021875)scale(0.1 -0.1)">
       <use xlink:href="#DejaVuSans-32"/>
       <use x="63.623046875" xlink:href="#DejaVuSans-30"/>
       <use x="127.24609375" xlink:href="#DejaVuSans-30"/>
       <use x="190.869140625" xlink:href="#DejaVuSans-30"/>
      </g>
     </g>
    </g>
    <g id="text_19">
     <!-- Time -->
     <g transform="translate(212.047265625 270.7625)scale(0.1 -0.1)">
      <use xlink:href="#DejaVuSans-54"/>
      <use x="57.958984375" xlink:href="#DejaVuSans-69"/>
      <use x="85.7421875" xlink:href="#DejaVuSans-6d"/>
      <use x="183.154296875" xlink:href="#DejaVuSans-65"/>
     </g>
    </g>
   </g>
   <g id="matplotlib.axis_4">
    <g id="ytick_7">
     <g id="line2d_101">
      <g>
       <use style="stroke:#000000;stroke-linecap:butt;stroke-width:0.5;" x="46.1171875" xlink:href="#me8a85f7bf6" y="246.6"/>
      </g>
     </g>
     <g id="line2d_102">
      <g>
       <use style="stroke:#000000;stroke-linecap:butt;stroke-width:0.5;" x="401.94140625" xlink:href="#m1a32005dea" y="246.6"/>
      </g>
     </g>
     <g id="text_20">
      <!-- 0.0 -->
      <defs>
       <path d="
M10.6875 12.4062
L21 12.4062
L21 0
L10.6875 0
z
" id="DejaVuSans-2e"/>
      </defs>
      <g transform="translate(27.5375 250.23984375)scale(0.1 -0.1)">
       <use xlink:href="#DejaVuSans-30"/>
       <use x="63.623046875" xlink:href="#DejaVuSans-2e"/>
       <use x="95.41015625" xlink:href="#DejaVuSans-30"/>
      </g>
     </g>
    </g>
    <g id="ytick_8">
     <g id="line2d_103">
      <g>
       <use style="stroke:#000000;stroke-linecap:butt;stroke-width:0.5;" x="46.1171875" xlink:href="#me8a85f7bf6" y="236.126315789"/>
      </g>
     </g>
     <g id="line2d_104">
      <g>
       <use style="stroke:#000000;stroke-linecap:butt;stroke-width:0.5;" x="401.94140625" xlink:href="#m1a32005dea" y="236.126315789"/>
      </g>
     </g>
     <g id="text_21">
      <!-- 0.5 -->
      <g transform="translate(27.746875 239.766159539)scale(0.1 -0.1)">
       <use xlink:href="#DejaVuSans-30"/>
       <use x="63.623046875" xlink:href="#DejaVuSans-2e"/>
       <use x="95.41015625" xlink:href="#DejaVuSans-35"/>
      </g>
     </g>
    </g>
    <g id="ytick_9">
     <g id="line2d_105">
      <g>
       <use style="stroke:#000000;stroke-linecap:butt;stroke-width:0.5;" x="46.1171875" xlink:href="#me8a85f7bf6" y="225.652631579"/>
      </g>
     </g>
     <g id="line2d_106">
      <g>
       <use style="stroke:#000000;stroke-linecap:butt;stroke-width:0.5;" x="401.94140625" xlink:href="#m1a32005dea" y="225.652631579"/>
      </g>
     </g>
     <g id="text_22">
      <!-- 1.0 -->
      <g transform="translate(27.9765625 229.292475329)scale(0.1 -0.1)">
       <use xlink:href="#DejaVuSans-31"/>
       <use x="63.623046875" xlink:href="#DejaVuSans-2e"/>
       <use x="95.41015625" xlink:href="#DejaVuSans-30"/>
      </g>
     </g>
    </g>
    <g id="ytick_10">
     <g id="line2d_107">
      <g>
       <use style="stroke:#000000;stroke-linecap:butt;stroke-width:0.5;" x="46.1171875" xlink:href="#me8a85f7bf6" y="215.178947368"/>
      </g>
     </g>
     <g id="line2d_108">
      <g>
       <use style="stroke:#000000;stroke-linecap:butt;stroke-width:0.5;" x="401.94140625" xlink:href="#m1a32005dea" y="215.178947368"/>
      </g>
     </g>
     <g id="text_23">
      <!-- 1.5 -->
      <g transform="translate(28.1859375 218.753166118)scale(0.1 -0.1)">
       <use xlink:href="#DejaVuSans-31"/>
       <use x="63.623046875" xlink:href="#DejaVuSans-2e"/>
       <use x="95.41015625" xlink:href="#DejaVuSans-35"/>
      </g>
     </g>
    </g>
    <g id="ytick_11">
     <g id="line2d_109">
      <g>
       <use style="stroke:#000000;stroke-linecap:butt;stroke-width:0.5;" x="46.1171875" xlink:href="#me8a85f7bf6" y="204.705263158"/>
      </g>
     </g>
     <g id="line2d_110">
      <g>
       <use style="stroke:#000000;stroke-linecap:butt;stroke-width:0.5;" x="401.94140625" xlink:href="#m1a32005dea" y="204.705263158"/>
      </g>
     </g>
     <g id="text_24">
      <!-- 2.0 -->
      <g transform="translate(27.6109375 208.345106908)scale(0.1 -0.1)">
       <use xlink:href="#DejaVuSans-32"/>
       <use x="63.623046875" xlink:href="#DejaVuSans-2e"/>
       <use x="95.41015625" xlink:href="#DejaVuSans-30"/>
      </g>
     </g>
    </g>
    <g id="ytick_12">
     <g id="line2d_111">
      <g>
       <use style="stroke:#000000;stroke-linecap:butt;stroke-width:0.5;" x="46.1171875" xlink:href="#me8a85f7bf6" y="194.231578947"/>
      </g>
     </g>
     <g id="line2d_112">
      <g>
       <use style="stroke:#000000;stroke-linecap:butt;stroke-width:0.5;" x="401.94140625" xlink:href="#m1a32005dea" y="194.231578947"/>
      </g>
     </g>
     <g id="text_25">
      <!-- 2.5 -->
      <g transform="translate(27.8203125 197.871422697)scale(0.1 -0.1)">
       <use xlink:href="#DejaVuSans-32"/>
       <use x="63.623046875" xlink:href="#DejaVuSans-2e"/>
       <use x="95.41015625" xlink:href="#DejaVuSans-35"/>
      </g>
     </g>
    </g>
    <g id="ytick_13">
     <g id="line2d_113">
      <g>
       <use style="stroke:#000000;stroke-linecap:butt;stroke-width:0.5;" x="46.1171875" xlink:href="#me8a85f7bf6" y="183.757894737"/>
      </g>
     </g>
     <g id="line2d_114">
      <g>
       <use style="stroke:#000000;stroke-linecap:butt;stroke-width:0.5;" x="401.94140625" xlink:href="#m1a32005dea" y="183.757894737"/>
      </g>
     </g>
     <g id="text_26">
      <!-- 3.0 -->
      <defs>
       <path d="
M40.5781 39.3125
Q47.6562 37.7969 51.625 33
Q55.6094 28.2188 55.6094 21.1875
Q55.6094 10.4062 48.1875 4.48438
Q40.7656 -1.42188 27.0938 -1.42188
Q22.5156 -1.42188 17.6562 -0.515625
Q12.7969 0.390625 7.625 2.20312
L7.625 11.7188
Q11.7188 9.32812 16.5938 8.10938
Q21.4844 6.89062 26.8125 6.89062
Q36.0781 6.89062 40.9375 10.5469
Q45.7969 14.2031 45.7969 21.1875
Q45.7969 27.6406 41.2812 31.2656
Q36.7656 34.9062 28.7188 34.9062
L20.2188 34.9062
L20.2188 43.0156
L29.1094 43.0156
Q36.375 43.0156 40.2344 45.9219
Q44.0938 48.8281 44.0938 54.2969
Q44.0938 59.9062 40.1094 62.9062
Q36.1406 65.9219 28.7188 65.9219
Q24.6562 65.9219 20.0156 65.0312
Q15.375 64.1562 9.8125 62.3125
L9.8125 71.0938
Q15.4375 72.6562 20.3438 73.4375
Q25.25 74.2188 29.5938 74.2188
Q40.8281 74.2188 47.3594 69.1094
Q53.9062 64.0156 53.9062 55.3281
Q53.9062 49.2656 50.4375 45.0938
Q46.9688 40.9219 40.5781 39.3125" id="DejaVuSans-33"/>
      </defs>
      <g transform="translate(27.640625 187.397738487)scale(0.1 -0.1)">
       <use xlink:href="#DejaVuSans-33"/>
       <use x="63.623046875" xlink:href="#DejaVuSans-2e"/>
       <use x="95.41015625" xlink:href="#DejaVuSans-30"/>
      </g>
     </g>
    </g>
    <g id="ytick_14">
     <g id="line2d_115">
      <g>
       <use style="stroke:#000000;stroke-linecap:butt;stroke-width:0.5;" x="46.1171875" xlink:href="#me8a85f7bf6" y="173.284210526"/>
      </g>
     </g>
     <g id="line2d_116">
      <g>
       <use style="stroke:#000000;stroke-linecap:butt;stroke-width:0.5;" x="401.94140625" xlink:href="#m1a32005dea" y="173.284210526"/>
      </g>
     </g>
     <g id="text_27">
      <!-- 3.5 -->
      <g transform="translate(27.85 176.924054276)scale(0.1 -0.1)">
       <use xlink:href="#DejaVuSans-33"/>
       <use x="63.623046875" xlink:href="#DejaVuSans-2e"/>
       <use x="95.41015625" xlink:href="#DejaVuSans-35"/>
      </g>
     </g>
    </g>
   </g>
   <g id="patch_8">
    <path d="
M46.1172 167
L401.941 167" style="fill:none;stroke:#000000;"/>
   </g>
   <g id="patch_9">
    <path d="
M401.941 246.6
L401.941 167" style="fill:none;stroke:#000000;"/>
   </g>
   <g id="patch_10">
    <path d="
M46.1172 246.6
L401.941 246.6" style="fill:none;stroke:#000000;"/>
   </g>
   <g id="patch_11">
    <path d="
M46.1172 246.6
L46.1172 167" style="fill:none;stroke:#000000;"/>
   </g>
   <g id="text_28">
    <!-- OLAP -->
    <defs>
     <path d="
M34.1875 63.1875
L20.7969 26.9062
L47.6094 26.9062
z

M28.6094 72.9062
L39.7969 72.9062
L67.5781 0
L57.3281 0
L50.6875 18.7031
L17.8281 18.7031
L11.1875 0
L0.78125 0
z
" id="DejaVuSans-41"/>
    </defs>
    <g transform="translate(208.646796875 162.0)scale(0.12 -0.12)">
     <use xlink:href="#DejaVuSans-4f"/>
     <use x="78.7109375" xlink:href="#DejaVuSans-4c"/>
     <use x="136.673828125" xlink:href="#DejaVuSans-41"/>
     <use x="205.08203125" xlink:href="#DejaVuSans-50"/>
    </g>
   </g>
  </g>
  <g id="text_29">
   <!-- 12 OLTP workers -->
   <defs>
    <path d="
M30.6094 48.3906
Q23.3906 48.3906 19.1875 42.75
Q14.9844 37.1094 14.9844 27.2969
Q14.9844 17.4844 19.1562 11.8438
Q23.3438 6.20312 30.6094 6.20312
Q37.7969 6.20312 41.9844 11.8594
Q46.1875 17.5312 46.1875 27.2969
Q46.1875 37.0156 41.9844 42.7031
Q37.7969 48.3906 30.6094 48.3906
M30.6094 56
Q42.3281 56 49.0156 48.375
Q55.7188 40.7656 55.7188 27.2969
Q55.7188 13.875 49.0156 6.21875
Q42.3281 -1.42188 30.6094 -1.42188
Q18.8438 -1.42188 12.1719 6.21875
Q5.51562 13.875 5.51562 27.2969
Q5.51562 40.7656 12.1719 48.375
Q18.8438 56 30.6094 56" id="DejaVuSans-6f"/>
    <path d="
M9.07812 75.9844
L18.1094 75.9844
L18.1094 31.1094
L44.9219 54.6875
L56.3906 54.6875
L27.3906 29.1094
L57.625 0
L45.9062 0
L18.1094 26.7031
L18.1094 0
L9.07812 0
z
" id="DejaVuSans-6b"/>
    <path id="DejaVuSans-20"/>
    <path d="
M4.20312 54.6875
L13.1875 54.6875
L24.4219 12.0156
L35.5938 54.6875
L46.1875 54.6875
L57.4219 12.0156
L68.6094 54.6875
L77.5938 54.6875
L63.2812 0
L52.6875 0
L40.9219 44.8281
L29.1094 0
L18.5 0
z
" id="DejaVuSans-77"/>
    <path d="
M44.2812 53.0781
L44.2812 44.5781
Q40.4844 46.5312 36.375 47.5
Q32.2812 48.4844 27.875 48.4844
Q21.1875 48.4844 17.8438 46.4375
Q14.5 44.3906 14.5 40.2812
Q14.5 37.1562 16.8906 35.375
Q19.2812 33.5938 26.5156 31.9844
L29.5938 31.2969
Q39.1562 29.25 43.1875 25.5156
Q47.2188 21.7812 47.2188 15.0938
Q47.2188 7.46875 41.1875 3.01562
Q35.1562 -1.42188 24.6094 -1.42188
Q20.2188 -1.42188 15.4531 -0.5625
Q10.6875 0.296875 5.42188 2
L5.42188 11.2812
Q10.4062 8.6875 15.2344 7.39062
Q20.0625 6.10938 24.8125 6.10938
Q31.1562 6.10938 34.5625 8.28125
Q37.9844 10.4531 37.9844 14.4062
Q37.9844 18.0625 35.5156 20.0156
Q33.0625 21.9688 24.7031 23.7812
L21.5781 24.5156
Q13.2344 26.2656 9.51562 29.9062
Q5.8125 33.5469 5.8125 39.8906
Q5.8125 47.6094 11.2812 51.7969
Q16.75 56 26.8125 56
Q31.7812 56 36.1719 55.2656
Q40.5781 54.5469 44.2812 53.0781" id="DejaVuSans-73"/>
    <path d="
M41.1094 46.2969
Q39.5938 47.1719 37.8125 47.5781
Q36.0312 48 33.8906 48
Q26.2656 48 22.1875 43.0469
Q18.1094 38.0938 18.1094 28.8125
L18.1094 0
L9.07812 0
L9.07812 54.6875
L18.1094 54.6875
L18.1094 46.1875
Q20.9531 51.1719 25.4844 53.5781
Q30.0312 56 36.5312 56
Q37.4531 56 38.5781 55.875
Q39.7031 55.7656 41.0625 55.5156
z
" id="DejaVuSans-72"/>
   </defs>
   <g transform="translate(174.9453125 13.3584375)scale(0.1 -0.1)">
    <use xlink:href="#DejaVuSans-31"/>
    <use x="63.623046875" xlink:href="#DejaVuSans-32"/>
    <use x="127.24609375" xlink:href="#DejaVuSans-20"/>
    <use x="159.033203125" xlink:href="#DejaVuSans-4f"/>
    <use x="237.744140625" xlink:href="#DejaVuSans-4c"/>
    <use x="279.70703125" xlink:href="#DejaVuSans-54"/>
    <use x="340.791015625" xlink:href="#DejaVuSans-50"/>
    <use x="401.09375" xlink:href="#DejaVuSans-20"/>
    <use x="432.880859375" xlink:href="#DejaVuSans-77"/>
    <use x="514.66796875" xlink:href="#DejaVuSans-6f"/>
    <use x="575.849609375" xlink:href="#DejaVuSans-72"/>
    <use x="616.962890625" xlink:href="#DejaVuSans-6b"/>
    <use x="671.248046875" xlink:href="#DejaVuSans-65"/>
    <use x="732.771484375" xlink:href="#DejaVuSans-72"/>
    <use x="773.884765625" xlink:href="#DejaVuSans-73"/>
   </g>
  </g>
 </g>
 <defs>
  <clipPath id="pe9bd9c4693">
   <rect height="79.6" width="355.82421875" x="46.1171875" y="167.0"/>
  </clipPath>
  <clipPath id="paafe9ad165">
   <rect height="79.6" width="355.82421875" x="46.1171875" y="32.0"/>
  </clipPath>
 </defs>
</svg>
