<?xml version="1.0" encoding="utf-8" standalone="no"?>
<!DOCTYPE svg PUBLIC "-//W3C//DTD SVG 1.1//EN"
  "http://www.w3.org/Graphics/SVG/1.1/DTD/svg11.dtd">
<!-- Created with matplotlib (http://matplotlib.sourceforge.net/) -->
<svg height="288pt" version="1.1" viewBox="0 0 432 288" width="432pt" xmlns="http://www.w3.org/2000/svg" xmlns:xlink="http://www.w3.org/1999/xlink">
 <defs>
  <style type="text/css">
*{stroke-linecap:square;stroke-linejoin:round;}
  </style>
 </defs>
 <g id="figure_1">
  <g id="patch_1">
   <path d="
M0 288
L432 288
L432 0
L0 0
z
" style="fill:#ffffff;"/>
  </g>
  <g id="axes_1">
   <g id="patch_2">
    <path d="
M46.1172 111.6
L401.941 111.6
L401.941 32
L46.1172 32
z
" style="fill:#ffffff;"/>
   </g>
   <g id="line2d_1">
    <path clip-path="url(#paafe9ad165)" d="
M56.7922 111.6
L56.7922 32" style="fill:none;stroke:#00ffff;stroke-dasharray:6.000000,6.000000;stroke-dashoffset:0.0;stroke-linecap:butt;"/>
   </g>
   <g id="line2d_2">
    <path clip-path="url(#paafe9ad165)" d="
M78.1415 111.6
L78.1415 32" style="fill:none;stroke:#00ffff;stroke-dasharray:6.000000,6.000000;stroke-dashoffset:0.0;stroke-linecap:butt;"/>
   </g>
   <g id="line2d_3">
    <path clip-path="url(#paafe9ad165)" d="
M78.1418 111.6
L78.1418 32" style="fill:none;stroke:#00ffff;stroke-dasharray:6.000000,6.000000;stroke-dashoffset:0.0;stroke-linecap:butt;"/>
   </g>
   <g id="line2d_4">
    <path clip-path="url(#paafe9ad165)" d="
M78.142 111.6
L78.142 32" style="fill:none;stroke:#00ffff;stroke-dasharray:6.000000,6.000000;stroke-dashoffset:0.0;stroke-linecap:butt;"/>
   </g>
   <g id="line2d_5">
    <path clip-path="url(#paafe9ad165)" d="
M99.4912 111.6
L99.4912 32" style="fill:none;stroke:#00ffff;stroke-dasharray:6.000000,6.000000;stroke-dashoffset:0.0;stroke-linecap:butt;"/>
   </g>
   <g id="line2d_6">
    <path clip-path="url(#paafe9ad165)" d="
M99.4913 111.6
L99.4913 32" style="fill:none;stroke:#00ffff;stroke-dasharray:6.000000,6.000000;stroke-dashoffset:0.0;stroke-linecap:butt;"/>
   </g>
   <g id="line2d_7">
    <path clip-path="url(#paafe9ad165)" d="
M99.4916 111.6
L99.4916 32" style="fill:none;stroke:#00ffff;stroke-dasharray:6.000000,6.000000;stroke-dashoffset:0.0;stroke-linecap:butt;"/>
   </g>
   <g id="line2d_8">
    <path clip-path="url(#paafe9ad165)" d="
M120.841 111.6
L120.841 32" style="fill:none;stroke:#00ffff;stroke-dasharray:6.000000,6.000000;stroke-dashoffset:0.0;stroke-linecap:butt;"/>
   </g>
   <g id="line2d_9">
    <path clip-path="url(#paafe9ad165)" d="
M120.841 111.6
L120.841 32" style="fill:none;stroke:#00ffff;stroke-dasharray:6.000000,6.000000;stroke-dashoffset:0.0;stroke-linecap:butt;"/>
   </g>
   <g id="line2d_10">
    <path clip-path="url(#paafe9ad165)" d="
M120.841 111.6
L120.841 32" style="fill:none;stroke:#00ffff;stroke-dasharray:6.000000,6.000000;stroke-dashoffset:0.0;stroke-linecap:butt;"/>
   </g>
   <g id="line2d_11">
    <path clip-path="url(#paafe9ad165)" d="
M142.19 111.6
L142.19 32" style="fill:none;stroke:#00ffff;stroke-dasharray:6.000000,6.000000;stroke-dashoffset:0.0;stroke-linecap:butt;"/>
   </g>
   <g id="line2d_12">
    <path clip-path="url(#paafe9ad165)" d="
M163.539 111.6
L163.539 32" style="fill:none;stroke:#00ffff;stroke-dasharray:6.000000,6.000000;stroke-dashoffset:0.0;stroke-linecap:butt;"/>
   </g>
   <g id="line2d_13">
    <path clip-path="url(#paafe9ad165)" d="
M163.54 111.6
L163.54 32" style="fill:none;stroke:#00ffff;stroke-dasharray:6.000000,6.000000;stroke-dashoffset:0.0;stroke-linecap:butt;"/>
   </g>
   <g id="line2d_14">
    <path clip-path="url(#paafe9ad165)" d="
M184.889 111.6
L184.889 32" style="fill:none;stroke:#00ffff;stroke-dasharray:6.000000,6.000000;stroke-dashoffset:0.0;stroke-linecap:butt;"/>
   </g>
   <g id="line2d_15">
    <path clip-path="url(#paafe9ad165)" d="
M184.889 111.6
L184.889 32" style="fill:none;stroke:#00ffff;stroke-dasharray:6.000000,6.000000;stroke-dashoffset:0.0;stroke-linecap:butt;"/>
   </g>
   <g id="line2d_16">
    <path clip-path="url(#paafe9ad165)" d="
M206.239 111.6
L206.239 32" style="fill:none;stroke:#00ffff;stroke-dasharray:6.000000,6.000000;stroke-dashoffset:0.0;stroke-linecap:butt;"/>
   </g>
   <g id="line2d_17">
    <path clip-path="url(#paafe9ad165)" d="
M206.239 111.6
L206.239 32" style="fill:none;stroke:#00ffff;stroke-dasharray:6.000000,6.000000;stroke-dashoffset:0.0;stroke-linecap:butt;"/>
   </g>
   <g id="line2d_18">
    <path clip-path="url(#paafe9ad165)" d="
M227.588 111.6
L227.588 32" style="fill:none;stroke:#00ffff;stroke-dasharray:6.000000,6.000000;stroke-dashoffset:0.0;stroke-linecap:butt;"/>
   </g>
   <g id="line2d_19">
    <path clip-path="url(#paafe9ad165)" d="
M227.589 111.6
L227.589 32" style="fill:none;stroke:#00ffff;stroke-dasharray:6.000000,6.000000;stroke-dashoffset:0.0;stroke-linecap:butt;"/>
   </g>
   <g id="line2d_20">
    <path clip-path="url(#paafe9ad165)" d="
M248.937 111.6
L248.937 32" style="fill:none;stroke:#00ffff;stroke-dasharray:6.000000,6.000000;stroke-dashoffset:0.0;stroke-linecap:butt;"/>
   </g>
   <g id="line2d_21">
    <path clip-path="url(#paafe9ad165)" d="
M248.937 111.6
L248.937 32" style="fill:none;stroke:#00ffff;stroke-dasharray:6.000000,6.000000;stroke-dashoffset:0.0;stroke-linecap:butt;"/>
   </g>
   <g id="line2d_22">
    <path clip-path="url(#paafe9ad165)" d="
M248.937 111.6
L248.937 32" style="fill:none;stroke:#00ffff;stroke-dasharray:6.000000,6.000000;stroke-dashoffset:0.0;stroke-linecap:butt;"/>
   </g>
   <g id="line2d_23">
    <path clip-path="url(#paafe9ad165)" d="
M270.287 111.6
L270.287 32" style="fill:none;stroke:#00ffff;stroke-dasharray:6.000000,6.000000;stroke-dashoffset:0.0;stroke-linecap:butt;"/>
   </g>
   <g id="line2d_24">
    <path clip-path="url(#paafe9ad165)" d="
M291.636 111.6
L291.636 32" style="fill:none;stroke:#00ffff;stroke-dasharray:6.000000,6.000000;stroke-dashoffset:0.0;stroke-linecap:butt;"/>
   </g>
   <g id="line2d_25">
    <path clip-path="url(#paafe9ad165)" d="
M312.986 111.6
L312.986 32" style="fill:none;stroke:#00ffff;stroke-dasharray:6.000000,6.000000;stroke-dashoffset:0.0;stroke-linecap:butt;"/>
   </g>
   <g id="line2d_26">
    <path clip-path="url(#paafe9ad165)" d="
M312.986 111.6
L312.986 32" style="fill:none;stroke:#00ffff;stroke-dasharray:6.000000,6.000000;stroke-dashoffset:0.0;stroke-linecap:butt;"/>
   </g>
   <g id="line2d_27">
    <path clip-path="url(#paafe9ad165)" d="
M334.335 111.6
L334.335 32" style="fill:none;stroke:#00ffff;stroke-dasharray:6.000000,6.000000;stroke-dashoffset:0.0;stroke-linecap:butt;"/>
   </g>
   <g id="line2d_28">
    <path clip-path="url(#paafe9ad165)" d="
M334.335 111.6
L334.335 32" style="fill:none;stroke:#00ffff;stroke-dasharray:6.000000,6.000000;stroke-dashoffset:0.0;stroke-linecap:butt;"/>
   </g>
   <g id="line2d_29">
    <path clip-path="url(#paafe9ad165)" d="
M355.684 111.6
L355.684 32" style="fill:none;stroke:#00ffff;stroke-dasharray:6.000000,6.000000;stroke-dashoffset:0.0;stroke-linecap:butt;"/>
   </g>
   <g id="line2d_30">
    <path clip-path="url(#paafe9ad165)" d="
M377.034 111.6
L377.034 32" style="fill:none;stroke:#00ffff;stroke-dasharray:6.000000,6.000000;stroke-dashoffset:0.0;stroke-linecap:butt;"/>
   </g>
   <g id="line2d_31">
    <path clip-path="url(#paafe9ad165)" d="
M46.1172 61.1578
L46.1172 34.2964
L46.7043 34.2964
L46.7043 38.1365
L47.8785 38.0593
L47.8785 37.6637
L48.4656 37.6637
L48.4656 29.3467
L49.0527 29.3467
L49.0527 39.7767
L49.6399 39.7767
L49.6399 45.2667
L50.227 45.2667
L50.227 37.0462
L50.8141 37.0462
L50.8141 29.8002
L51.4012 29.8002
L51.4012 37.5672
L51.9883 37.5672
L51.9883 43.0283
L52.5754 43.0283
L52.5754 25.9601
L53.1625 25.9601
L53.1625 36.448
L53.7496 36.448
L53.7496 31.4019
L54.3367 31.4019
L54.3367 36.5927
L54.9238 36.5927
L54.9238 37.4032
L55.511 37.4032
L55.511 42.2274
L56.0981 42.2274
L56.0981 63.2804
L56.6852 63.2804
L56.6852 58.2536
L57.2723 58.2536
L57.2723 33.9394
L57.8594 33.9394
L57.8594 48.7498
L58.4465 48.7498
L58.4465 44.1861
L59.0336 44.1861
L59.0336 41.0407
L59.6207 41.0407
L59.6207 46.3281
L60.2078 46.3281
L60.2078 45.4983
L60.7949 45.4983
L60.7949 38.204
L61.3821 38.204
L61.3821 46.3088
L61.9692 46.3088
L61.9692 43.7133
L62.5563 43.7133
L62.5563 41.06
L63.1434 41.06
L63.1434 42.7967
L63.7305 42.7967
L63.7305 40.7898
L64.3176 40.7898
L64.3176 42.5941
L64.9047 42.5941
L64.9047 40.8381
L65.4918 40.8381
L65.4918 37.0076
L66.0789 37.0076
L66.0789 45.643
L66.6661 45.643
L66.6661 46.6657
L67.2532 46.6657
L67.2532 45.5948
L67.8403 45.5948
L67.8403 41.4749
L68.4274 41.4749
L68.4274 44.6589
L69.0145 44.6589
L69.0145 45.3536
L70.1887 45.2474
L70.1887 44.1475
L70.7758 44.1475
L70.7758 45.0255
L71.3629 45.0255
L71.3629 34.1227
L71.95 34.1227
L71.95 42.7195
L72.5372 42.7195
L72.5372 47.264
L73.1243 47.264
L73.1243 43.2405
L73.7114 43.2405
L73.7114 47.9972
L74.2985 47.9972
L74.2985 54.0275
L74.8856 54.0275
L74.8856 55.9186
L75.4727 55.9186
L75.4727 44.3308
L76.0598 44.3308
L76.0598 41.6968
L76.6469 41.6968
L76.6469 43.5396
L77.234 43.5396
L77.234 69.2914
L77.8212 69.2914
L77.8212 41.7354
L78.4083 41.7354
L78.4083 41.9283
L78.9954 41.9283
L78.9954 58.2922
L79.5825 58.2922
L79.5825 63.2901
L80.1696 63.2901
L80.1696 49.0682
L80.7567 49.0682
L80.7567 48.113
L81.3438 48.113
L81.3438 51.0076
L81.9309 51.0076
L81.9309 49.4638
L82.518 49.4638
L82.518 47.949
L83.1051 47.949
L83.1051 47.2157
L83.6923 47.2157
L83.6923 46.4342
L84.2794 46.4342
L84.2794 49.6664
L84.8665 49.6664
L84.8665 51.4321
L85.4536 51.4321
L85.4536 46.0193
L86.0407 46.0193
L86.0407 51.49
L86.6278 51.49
L86.6278 57.2115
L87.802 57.308
L87.802 57.472
L88.3891 57.472
L88.3891 53.0241
L88.9762 53.0241
L88.9762 49.9462
L89.5634 49.9462
L89.5634 48.4893
L90.1505 48.4893
L90.1505 48.8463
L90.7376 48.8463
L90.7376 50.1971
L91.3247 50.1971
L91.3247 45.4211
L91.9118 45.4211
L91.9118 51.5189
L92.4989 51.5189
L92.4989 54.4328
L93.086 54.4328
L93.086 57.0282
L93.6731 57.0282
L93.6731 62.7112
L94.2602 62.7112
L94.2602 66.3293
L94.8474 66.3293
L94.8474 67.4968
L95.4345 67.4968
L95.4345 62.1998
L96.0216 62.1998
L96.0216 59.7008
L96.6087 59.7008
L96.6087 47.0903
L97.1958 47.0903
L97.1958 39.4583
L97.7829 39.4583
L97.7829 50.3997
L98.37 50.3997
L98.37 60.2508
L98.9571 60.2508
L98.9571 67.1205
L99.5442 67.1205
L99.5442 50.2646
L100.131 50.2646
L100.131 58.6492
L100.718 58.6492
L100.718 63.8207
L101.306 63.8207
L101.306 60.2412
L101.893 60.2412
L101.893 68.8379
L102.48 68.8379
L102.48 57.4817
L103.067 57.4817
L103.067 53.8346
L103.654 53.8346
L103.654 54.1723
L104.241 54.1723
L104.241 51.2488
L104.828 51.2488
L104.828 53.5644
L105.415 53.5644
L105.415 57.1633
L106.002 57.1633
L106.002 61.7656
L106.59 61.7656
L106.59 64.8821
L107.177 64.8821
L107.177 67.4389
L107.764 67.4389
L107.764 70.1984
L108.351 70.1984
L108.351 66.9083
L108.938 66.9083
L108.938 66.5416
L109.525 66.5416
L109.525 69.0213
L110.112 69.0213
L110.112 73.7104
L110.699 73.7104
L110.699 45.5369
L111.286 45.5369
L111.286 57.1633
L111.874 57.1633
L111.874 60.6946
L112.461 60.6946
L112.461 59.1412
L113.635 59.2088
L113.635 58.929
L114.222 58.929
L114.222 52.889
L114.809 52.889
L114.809 53.7863
L115.396 53.7863
L115.396 54.8187
L115.983 54.8187
L115.983 62.8559
L116.57 62.8559
L116.57 67.6126
L117.158 67.6126
L117.158 69.0116
L117.745 69.0116
L117.745 70.4107
L118.332 70.4107
L118.332 71.9737
L118.919 71.9737
L118.919 74.1446
L119.506 74.1446
L119.506 75.8331
L120.093 75.8331
L120.093 85.9736
L120.68 85.9736
L120.68 84.1211
L121.267 84.1211
L121.267 77.6567
L121.854 77.6567
L121.854 76.6243
L122.442 76.6243
L122.442 77.2611
L123.029 77.2611
L123.029 71.9448
L123.616 71.9448
L123.616 69.8703
L124.203 69.8703
L124.203 71.5685
L124.79 71.5685
L124.79 73.3148
L125.377 73.3148
L125.377 74.9744
L125.964 74.9744
L125.964 76.8944
L126.551 76.8944
L126.551 77.5602
L127.138 77.5602
L127.138 78.1005
L127.726 78.1005
L127.726 79.924
L128.313 79.924
L128.313 80.8889
L128.9 80.8889
L128.9 81.024
L129.487 81.024
L129.487 81.2073
L130.074 81.2073
L130.074 91.2514
L130.661 91.2514
L130.661 54.2495
L131.248 54.2495
L131.248 62.0261
L131.835 62.0261
L131.835 60.4824
L132.422 60.4824
L132.422 62.0551
L133.01 62.0551
L133.01 62.8366
L133.597 62.8366
L133.597 60.7622
L134.184 60.7622
L134.184 57.472
L134.771 57.472
L134.771 58.1571
L135.358 58.1571
L135.358 60.2605
L136.532 60.328
L136.532 58.7746
L137.119 58.7746
L137.119 59.1991
L137.706 59.1991
L137.706 62.6822
L138.294 62.6822
L138.294 66.532
L138.881 66.532
L138.881 65.0461
L139.468 65.0461
L139.468 62.5664
L140.055 62.5664
L140.055 65.5961
L140.642 65.5961
L140.642 69.6195
L141.229 69.6195
L141.229 72.9096
L141.816 72.9096
L141.816 67.6126
L142.403 67.6126
L142.403 73.5657
L142.99 73.5657
L142.99 68.1336
L143.578 68.1336
L143.578 73.3148
L144.165 73.3148
L144.165 79.7407
L144.752 79.7407
L144.752 67.6801
L145.339 67.6801
L145.339 66.1171
L145.926 66.1171
L145.926 67.4872
L146.513 67.4872
L146.513 68.481
L147.1 68.481
L147.1 67.8442
L147.687 67.8442
L147.687 73.2473
L148.274 73.2473
L148.274 61.7077
L148.862 61.7077
L148.862 70.1115
L149.449 70.1115
L149.449 74.27
L150.036 74.27
L150.036 76.4217
L150.623 76.4217
L150.623 77.4347
L151.21 77.4347
L151.21 77.6374
L152.384 77.6663
L152.384 76.7497
L152.971 76.7497
L152.971 77.8979
L153.558 77.8979
L153.558 77.3479
L154.146 77.3479
L154.146 78.718
L155.32 78.7759
L155.32 79.7504
L155.907 79.7504
L155.907 81.6704
L156.494 81.6704
L156.494 81.0143
L157.081 81.0143
L157.081 82.1818
L157.668 82.1818
L157.668 82.9537
L158.255 82.9537
L158.255 83.1466
L158.842 83.1466
L158.842 84.5746
L159.43 84.5746
L159.43 84.9991
L160.017 84.9991
L160.017 85.8675
L160.604 85.8675
L160.604 80.4451
L161.191 80.4451
L161.191 60.3859
L161.778 60.3859
L161.778 67.4389
L162.365 67.4389
L162.365 49.9269
L162.952 49.9269
L162.952 64.4189
L163.539 64.4189
L163.539 60.8394
L164.126 60.8394
L164.126 64.9014
L164.713 64.9014
L164.713 68.7222
L165.301 68.7222
L165.301 80.3389
L165.888 80.3389
L165.888 82.1143
L166.475 82.1143
L166.475 82.5484
L167.062 82.5484
L167.062 83.2914
L167.649 83.2914
L167.649 84.4974
L168.236 84.4974
L168.236 85.4526
L168.823 85.4526
L168.823 84.6422
L169.41 84.6422
L169.41 86.3499
L170.585 86.2438
L170.585 86.0412
L171.172 86.0412
L171.172 87.5078
L171.759 87.5078
L171.759 88.4726
L172.346 88.4726
L172.346 88.3182
L172.933 88.3182
L172.933 89.6787
L173.52 89.6787
L173.52 90.9812
L174.107 90.9812
L174.107 81.7573
L174.694 81.7573
L174.694 74.9068
L175.281 74.9068
L175.281 76.7401
L175.869 76.7401
L175.869 77.6567
L176.456 77.6567
L176.456 80.5512
L177.043 80.5512
L177.043 76.4506
L177.63 76.4506
L177.63 80.4451
L178.217 80.4451
L178.217 82.4423
L178.804 82.4423
L178.804 84.2948
L179.391 84.2948
L179.391 82.7993
L179.978 82.7993
L179.978 84.3431
L180.565 84.3431
L180.565 85.1632
L181.153 85.1632
L181.153 85.9447
L181.74 85.9447
L181.74 87.5367
L182.327 87.5367
L182.327 85.1439
L182.914 85.1439
L182.914 87.9902
L183.501 87.9902
L183.501 88.4726
L184.088 88.4726
L184.088 85.4333
L184.675 85.4333
L184.675 82.8861
L185.262 82.8861
L185.262 78.2356
L185.849 78.2356
L185.849 80.0688
L186.437 80.0688
L186.437 89.3603
L187.024 89.3603
L187.024 82.3844
L187.611 82.3844
L187.611 87.2376
L188.198 87.2376
L188.198 87.6814
L188.785 87.6814
L188.785 84.9413
L189.959 84.9606
L189.959 89.5146
L190.546 89.5146
L190.546 79.9723
L191.133 79.9723
L191.133 84.2176
L191.721 84.2176
L191.721 87.2955
L192.308 87.2955
L192.308 88.6849
L192.895 88.6849
L192.895 87.1797
L193.482 87.1797
L193.482 76.1515
L194.069 76.1515
L194.069 85.3851
L194.656 85.3851
L194.656 87.6042
L195.243 87.6042
L195.243 88.2024
L195.83 88.2024
L195.83 87.9805
L196.417 87.9805
L196.417 83.851
L197.005 83.851
L197.005 85.1246
L197.592 85.1246
L197.592 86.4947
L198.766 86.5429
L198.766 88.0674
L199.353 88.0674
L199.353 84.0054
L199.94 84.0054
L199.94 87.4016
L200.527 87.4016
L200.527 89.4857
L201.114 89.4857
L201.114 88.434
L201.701 88.434
L201.701 90.026
L202.876 90.0839
L202.876 89.8813
L203.463 89.8813
L203.463 90.3541
L204.05 90.3541
L204.05 90.5953
L204.637 90.5953
L204.637 91.425
L205.224 91.425
L205.224 92.689
L205.811 92.689
L205.811 85.5009
L206.398 85.5009
L206.398 87.7007
L206.985 87.7007
L206.985 85.0667
L207.573 85.0667
L207.573 76.7593
L208.16 76.7593
L208.16 82.4327
L208.747 82.4327
L208.747 84.7579
L209.334 84.7579
L209.334 87.9516
L209.921 87.9516
L209.921 93.2004
L210.508 93.2004
L210.508 91.0294
L211.095 91.0294
L211.095 91.3478
L211.682 91.3478
L211.682 91.9943
L212.857 92.0232
L212.857 94.5415
L213.444 94.5415
L213.444 92.4188
L214.031 92.4188
L214.031 94.5897
L214.618 94.5897
L214.618 92.5829
L215.205 92.5829
L215.205 94.966
L215.792 94.966
L215.792 93.731
L216.379 93.731
L216.379 94.2617
L216.966 94.2617
L216.966 91.5312
L217.553 91.5312
L217.553 92.303
L218.141 92.303
L218.141 91.7241
L218.728 91.7241
L218.728 84.8255
L219.315 84.8255
L219.315 90.1128
L219.902 90.1128
L219.902 100.215
L220.489 100.215
L220.489 85.2693
L221.076 85.2693
L221.076 83.851
L221.663 83.851
L221.663 88.7717
L222.25 88.7717
L222.25 83.0212
L222.837 83.0212
L222.837 84.1501
L223.425 84.1501
L223.425 90.7496
L224.012 90.7496
L224.012 88.6077
L224.599 88.6077
L224.599 86.157
L225.186 86.157
L225.186 88.8392
L225.773 88.8392
L225.773 90.5374
L226.947 90.5181
L226.947 83.465
L227.534 83.465
L227.534 84.9027
L228.121 84.9027
L228.121 84.3238
L228.709 84.3238
L228.709 91.0487
L229.296 91.0487
L229.296 84.6904
L229.883 84.6904
L229.883 83.1659
L230.47 83.1659
L230.47 85.4816
L231.057 85.4816
L231.057 86.5429
L231.644 86.5429
L231.644 87.5078
L232.231 87.5078
L232.231 83.1466
L232.818 83.1466
L232.818 81.3231
L233.405 81.3231
L233.405 83.2817
L233.993 83.2817
L233.993 86.9867
L234.58 86.9867
L234.58 86.2631
L235.167 86.2631
L235.167 86.8903
L235.754 86.8903
L235.754 70.6133
L236.341 70.6133
L236.341 99.5587
L236.928 99.5587
L236.928 60.2701
L237.515 60.2701
L237.515 62.8462
L238.102 62.8462
L238.102 65.5961
L239.277 65.5768
L239.277 69.6002
L239.864 69.6002
L239.864 78.5926
L240.451 78.5926
L240.451 83.2528
L241.038 83.2528
L241.038 85.2983
L241.625 85.2983
L241.625 85.0956
L242.212 85.0956
L242.212 84.0343
L242.799 84.0343
L242.799 87.6139
L243.386 87.6139
L243.386 86.2149
L243.973 86.2149
L243.973 85.8772
L245.148 85.8868
L245.148 87.4885
L245.735 87.4885
L245.735 87.0736
L246.322 87.0736
L246.322 85.8289
L246.909 85.8289
L246.909 87.2665
L247.496 87.2665
L247.496 93.731
L248.083 93.731
L248.083 94.0687
L248.67 94.0687
L248.67 90.5953
L249.257 90.5953
L249.257 89.341
L249.845 89.341
L249.845 87.1122
L250.432 87.1122
L250.432 87.4499
L251.019 87.4499
L251.019 94.7538
L251.606 94.7538
L251.606 89.4374
L252.193 89.4374
L252.193 86.9578
L252.78 86.9578
L252.78 90.4023
L253.367 90.4023
L253.367 90.7496
L253.954 90.7496
L253.954 87.4016
L254.541 87.4016
L254.541 85.4044
L255.129 85.4044
L255.129 87.4113
L255.716 87.4113
L255.716 85.7035
L256.303 85.7035
L256.303 89.9006
L256.89 89.9006
L256.89 85.3465
L257.477 85.3465
L257.477 87.0639
L258.064 87.0639
L258.064 85.25
L258.651 85.25
L258.651 85.4526
L259.238 85.4526
L259.238 85.6456
L259.825 85.6456
L259.825 87.4788
L260.412 87.4788
L260.412 84.8158
L261 84.8158
L261 86.8613
L261.587 86.8613
L261.587 87.3341
L262.761 87.2762
L262.761 86.6297
L263.348 86.6297
L263.348 83.108
L263.935 83.108
L263.935 86.0219
L264.522 86.0219
L264.522 93.8082
L265.109 93.8082
L265.109 96.558
L265.696 96.558
L265.696 79.7793
L266.284 79.7793
L266.284 77.3769
L266.871 77.3769
L266.871 75.6498
L267.458 75.6498
L267.458 77.097
L268.045 77.097
L268.045 76.3252
L268.632 76.3252
L268.632 78.5733
L269.219 78.5733
L269.219 81.6222
L269.806 81.6222
L269.806 89.9102
L270.393 89.9102
L270.393 83.0888
L270.98 83.0888
L270.98 82.0178
L271.568 82.0178
L271.568 83.0019
L272.155 83.0019
L272.155 86.6587
L272.742 86.6587
L272.742 85.6649
L273.329 85.6649
L273.329 85.3272
L273.916 85.3272
L273.916 89.1673
L274.503 89.1673
L274.503 85.9061
L275.09 85.9061
L275.09 87.3437
L275.677 87.3437
L275.677 88.627
L276.264 88.627
L276.264 84.1211
L276.852 84.1211
L276.852 84.9895
L277.439 84.9895
L277.439 87.9612
L278.026 87.9612
L278.026 86.9674
L278.613 86.9674
L278.613 85.2018
L279.2 85.2018
L279.2 86.7841
L279.787 86.7841
L279.787 88.3086
L280.374 88.3086
L280.374 86.8131
L281.548 86.7841
L281.548 79.9723
L282.136 79.9723
L282.136 78.2066
L282.723 78.2066
L282.723 78.4092
L283.31 78.4092
L283.31 83.8799
L283.897 83.8799
L283.897 81.6608
L284.484 81.6608
L284.484 83.465
L285.071 83.465
L285.071 83.6773
L285.658 83.6773
L285.658 83.8317
L286.832 83.9089
L286.832 83.5615
L287.42 83.5615
L287.42 84.5264
L288.007 84.5264
L288.007 85.4044
L288.594 85.4044
L288.594 87.1315
L289.181 87.1315
L289.181 89.6304
L289.768 89.6304
L289.768 73.4692
L290.355 73.4692
L290.355 74.2025
L290.942 74.2025
L290.942 81.4292
L291.529 81.4292
L291.529 111.542
L292.116 111.542
L292.116 87.72
L292.704 87.72
L292.704 78.8724
L293.291 78.8724
L293.291 80.7731
L293.878 80.7731
L293.878 79.046
L294.465 79.046
L294.465 81.3038
L295.052 81.3038
L295.052 82.5484
L295.639 82.5484
L295.639 83.2721
L296.226 83.2721
L296.226 84.1404
L296.813 84.1404
L296.813 88.1831
L297.4 88.1831
L297.4 86.5911
L297.988 86.5911
L297.988 86.292
L298.575 86.292
L298.575 93.1425
L299.162 93.1425
L299.162 87.6911
L299.749 87.6911
L299.749 88.5594
L300.336 88.5594
L300.336 92.8048
L300.923 92.8048
L300.923 95.5546
L301.51 95.5546
L301.51 99.3657
L302.097 99.3657
L302.097 91.5601
L302.684 91.5601
L302.684 89.9295
L303.272 89.9295
L303.272 92.4671
L303.859 92.4671
L303.859 89.6594
L304.446 89.6594
L304.446 82.3072
L305.033 82.3072
L305.033 85.8772
L305.62 85.8772
L305.62 83.3686
L306.207 83.3686
L306.207 86.3692
L306.794 86.3692
L306.794 88.1253
L307.381 88.1253
L307.381 87.4595
L307.968 87.4595
L307.968 85.3658
L308.556 85.3658
L308.556 89.3506
L309.143 89.3506
L309.143 88.106
L309.73 88.106
L309.73 87.0929
L310.317 87.0929
L310.317 89.9778
L311.491 89.9681
L311.491 88.241
L312.078 88.241
L312.078 85.2018
L312.665 85.2018
L312.665 83.2045
L313.252 83.2045
L313.252 97.6097
L313.84 97.6097
L313.84 102.994
L314.427 102.994
L314.427 82.5484
L315.014 82.5484
L315.014 83.2914
L315.601 83.2914
L315.601 84.8158
L316.188 84.8158
L316.188 83.8992
L317.362 83.8703
L317.362 83.2335
L317.949 83.2335
L317.949 84.9413
L318.536 84.9413
L318.536 87.2955
L319.124 87.2955
L319.124 88.3665
L319.711 88.3665
L319.711 89.0612
L320.298 89.0612
L320.298 77.8689
L320.885 77.8689
L320.885 68.9441
L321.472 68.9441
L321.472 76.6436
L322.059 76.6436
L322.059 78.7855
L322.646 78.7855
L322.646 79.4513
L323.233 79.4513
L323.233 76.7979
L323.82 76.7979
L323.82 82.1818
L324.408 82.1818
L324.408 76.9427
L324.995 76.9427
L324.995 78.8145
L325.582 78.8145
L325.582 79.6635
L326.169 79.6635
L326.169 79.924
L326.756 79.924
L326.756 80.6863
L327.343 80.6863
L327.343 83.5712
L327.93 83.5712
L327.93 85.7421
L328.517 85.7421
L328.517 82.2204
L329.104 82.2204
L329.104 88.1349
L329.692 88.1349
L329.692 86.6587
L330.279 86.6587
L330.279 86.8903
L330.866 86.8903
L330.866 85.9254
L331.453 85.9254
L331.453 89.2734
L332.04 89.2734
L332.04 86.1666
L332.627 86.1666
L332.627 89.2638
L333.214 89.2638
L333.214 90.6821
L333.801 90.6821
L333.801 88.7717
L334.388 88.7717
L334.388 90.6049
L334.976 90.6049
L334.976 89.0612
L335.563 89.0612
L335.563 90.547
L336.15 90.547
L336.15 88.3858
L336.737 88.3858
L336.737 92.2355
L337.324 92.2355
L337.324 90.4505
L337.911 90.4505
L337.911 91.0391
L338.498 91.0391
L338.498 90.026
L339.085 90.026
L339.085 91.5987
L339.672 91.5987
L339.672 66.0978
L340.26 66.0978
L340.26 79.4899
L340.847 79.4899
L340.847 79.9144
L341.434 79.9144
L341.434 80.1267
L342.021 80.1267
L342.021 79.1811
L342.608 79.1811
L342.608 82.3458
L343.195 82.3458
L343.195 79.9433
L343.782 79.9433
L343.782 74.106
L344.369 74.106
L344.369 71.9158
L344.956 71.9158
L344.956 72.3982
L345.544 72.3982
L345.544 77.0392
L346.131 77.0392
L346.131 78.7662
L346.718 78.7662
L346.718 79.1618
L347.305 79.1618
L347.305 81.9985
L347.892 81.9985
L347.892 78.168
L348.479 78.168
L348.479 82.8765
L349.066 82.8765
L349.066 84.6904
L349.653 84.6904
L349.653 82.3748
L350.24 82.3748
L350.24 86.2149
L350.828 86.2149
L350.828 80.7345
L351.415 80.7345
L351.415 82.8668
L352.002 82.8668
L352.002 82.3072
L352.589 82.3072
L352.589 80.4933
L353.176 80.4933
L353.176 80.2232
L353.763 80.2232
L353.763 80.6477
L354.35 80.6477
L354.35 89.9006
L354.937 89.9006
L354.937 83.4264
L355.524 83.4264
L355.524 81.6511
L356.111 81.6511
L356.111 78.7662
L356.699 78.7662
L356.699 78.9013
L357.286 78.9013
L357.286 87.1218
L357.873 87.1218
L357.873 79.8469
L358.46 79.8469
L358.46 82.3555
L359.047 82.3555
L359.047 87.6428
L359.634 87.6428
L359.634 86.1377
L360.221 86.1377
L360.221 89.2155
L360.808 89.2155
L360.808 86.9674
L361.395 86.9674
L361.395 87.4981
L361.983 87.4981
L361.983 91.2031
L362.57 91.2031
L362.57 87.6139
L363.744 87.5367
L363.744 88.7621
L364.331 88.7621
L364.331 88.0191
L364.918 88.0191
L364.918 90.7496
L365.505 90.7496
L365.505 89.5339
L366.092 89.5339
L366.092 91.1356
L366.679 91.1356
L366.679 93.7889
L367.267 93.7889
L367.267 89.4085
L367.854 89.4085
L367.854 93.7696
L368.441 93.7696
L368.441 93.0074
L369.028 93.0074
L369.028 91.1935
L369.615 91.1935
L369.615 92.4478
L370.202 92.4478
L370.202 94.5222
L370.789 94.5222
L370.789 95.0046
L371.376 95.0046
L371.376 95.5256
L371.963 95.5256
L371.963 95.8151
L372.551 95.8151
L372.551 99.8578
L373.138 99.8578
L373.138 97.1755
L374.312 97.0694
L374.312 98.4009
L374.899 98.4009
L374.899 95.8923
L375.486 95.8923
L375.486 99.5491
L376.073 99.5491
L376.073 94.5511
L376.66 94.5511
L376.66 95.2844
L377.247 95.2844
L377.247 99.9832
L377.835 99.9832
L377.835 95.1783
L378.422 95.1783
L378.422 94.0398
L379.009 94.0398
L379.009 92.6311
L379.596 92.6311
L379.596 87.5849
L380.183 87.5849
L380.183 87.2086
L380.77 87.2086
L380.77 89.6208
L381.357 89.6208
L381.357 88.241
L381.944 88.241
L381.944 88.6173
L382.531 88.6173
L382.531 90.2865
L383.119 90.2865
L383.119 91.811
L383.706 91.811
L383.706 78.5733
L384.293 78.5733
L384.293 69.7449
L384.88 69.7449
L384.88 67.8731
L385.467 67.8731
L385.467 77.1067
L386.054 77.1067
L386.054 69.0695
L386.641 69.0695
L386.641 73.9999
L387.228 73.9999
L387.228 85.6263
L387.815 85.6263
L387.815 86.649
L388.403 86.649
L388.403 81.3038
L388.99 81.3038
L388.99 86.9192
L389.577 86.9192
L389.577 87.0639
L390.164 87.0639
L390.164 87.72
L390.751 87.72
L390.751 86.0508
L391.925 85.9736
L391.925 83.0116
L392.512 83.0116
L392.512 86.3306
L393.099 86.3306
L393.099 86.7841
L393.687 86.7841
L393.687 80.8407
L394.274 80.8407
L394.274 88.0191
L394.861 88.0191
L394.861 90.0935
L395.448 90.0935
L395.448 82.9537
L396.035 82.9537
L396.035 82.6353
L396.622 82.6353
L396.622 83.6387
L397.796 83.5712
L397.796 83.5712" style="fill:none;stroke:#0000ff;"/>
   </g>
   <g id="matplotlib.axis_1">
    <g id="xtick_1">
     <g id="line2d_32">
      <defs>
       <path d="
M0 0
L0 -4" id="m0012dd4eef" style="stroke:#000000;stroke-linecap:butt;stroke-width:0.5;"/>
      </defs>
      <g>
       <use style="stroke:#000000;stroke-linecap:butt;stroke-width:0.5;" x="46.1171875" xlink:href="#m0012dd4eef" y="111.6"/>
      </g>
     </g>
     <g id="line2d_33">
      <defs>
       <path d="
M0 0
L0 4" id="m476344969c" style="stroke:#000000;stroke-linecap:butt;stroke-width:0.5;"/>
      </defs>
      <g>
       <use style="stroke:#000000;stroke-linecap:butt;stroke-width:0.5;" x="46.1171875" xlink:href="#m476344969c" y="32.0"/>
      </g>
     </g>
     <g id="text_1">
      <!-- 0 -->
      <defs>
       <path d="
M31.7812 66.4062
Q24.1719 66.4062 20.3281 58.9062
Q16.5 51.4219 16.5 36.375
Q16.5 21.3906 20.3281 13.8906
Q24.1719 6.39062 31.7812 6.39062
Q39.4531 6.39062 43.2812 13.8906
Q47.125 21.3906 47.125 36.375
Q47.125 51.4219 43.2812 58.9062
Q39.4531 66.4062 31.7812 66.4062
M31.7812 74.2188
Q44.0469 74.2188 50.5156 64.5156
Q56.9844 54.8281 56.9844 36.375
Q56.9844 17.9688 50.5156 8.26562
Q44.0469 -1.42188 31.7812 -1.42188
Q19.5312 -1.42188 13.0625 8.26562
Q6.59375 17.9688 6.59375 36.375
Q6.59375 54.8281 13.0625 64.5156
Q19.5312 74.2188 31.7812 74.2188" id="DejaVuSans-30"/>
      </defs>
      <g transform="translate(43.59765625 123.021875)scale(0.1 -0.1)">
       <use xlink:href="#DejaVuSans-30"/>
      </g>
     </g>
    </g>
    <g id="xtick_2">
     <g id="line2d_34">
      <g>
       <use style="stroke:#000000;stroke-linecap:butt;stroke-width:0.5;" x="135.073242188" xlink:href="#m0012dd4eef" y="111.6"/>
      </g>
     </g>
     <g id="line2d_35">
      <g>
       <use style="stroke:#000000;stroke-linecap:butt;stroke-width:0.5;" x="135.073242188" xlink:href="#m476344969c" y="32.0"/>
      </g>
     </g>
     <g id="text_2">
      <!-- 500 -->
      <defs>
       <path d="
M10.7969 72.9062
L49.5156 72.9062
L49.5156 64.5938
L19.8281 64.5938
L19.8281 46.7344
Q21.9688 47.4688 24.1094 47.8281
Q26.2656 48.1875 28.4219 48.1875
Q40.625 48.1875 47.75 41.5
Q54.8906 34.8125 54.8906 23.3906
Q54.8906 11.625 47.5625 5.09375
Q40.2344 -1.42188 26.9062 -1.42188
Q22.3125 -1.42188 17.5469 -0.640625
Q12.7969 0.140625 7.71875 1.70312
L7.71875 11.625
Q12.1094 9.23438 16.7969 8.0625
Q21.4844 6.89062 26.7031 6.89062
Q35.1562 6.89062 40.0781 11.3281
Q45.0156 15.7656 45.0156 23.3906
Q45.0156 31 40.0781 35.4375
Q35.1562 39.8906 26.7031 39.8906
Q22.75 39.8906 18.8125 39.0156
Q14.8906 38.1406 10.7969 36.2812
z
" id="DejaVuSans-35"/>
      </defs>
      <g transform="translate(126.247460938 123.021875)scale(0.1 -0.1)">
       <use xlink:href="#DejaVuSans-35"/>
       <use x="63.623046875" xlink:href="#DejaVuSans-30"/>
       <use x="127.24609375" xlink:href="#DejaVuSans-30"/>
      </g>
     </g>
    </g>
    <g id="xtick_3">
     <g id="line2d_36">
      <g>
       <use style="stroke:#000000;stroke-linecap:butt;stroke-width:0.5;" x="224.029296875" xlink:href="#m0012dd4eef" y="111.6"/>
      </g>
     </g>
     <g id="line2d_37">
      <g>
       <use style="stroke:#000000;stroke-linecap:butt;stroke-width:0.5;" x="224.029296875" xlink:href="#m476344969c" y="32.0"/>
      </g>
     </g>
     <g id="text_3">
      <!-- 1000 -->
      <defs>
       <path d="
M12.4062 8.29688
L28.5156 8.29688
L28.5156 63.9219
L10.9844 60.4062
L10.9844 69.3906
L28.4219 72.9062
L38.2812 72.9062
L38.2812 8.29688
L54.3906 8.29688
L54.3906 0
L12.4062 0
z
" id="DejaVuSans-31"/>
      </defs>
      <g transform="translate(212.185546875 123.021875)scale(0.1 -0.1)">
       <use xlink:href="#DejaVuSans-31"/>
       <use x="63.623046875" xlink:href="#DejaVuSans-30"/>
       <use x="127.24609375" xlink:href="#DejaVuSans-30"/>
       <use x="190.869140625" xlink:href="#DejaVuSans-30"/>
      </g>
     </g>
    </g>
    <g id="xtick_4">
     <g id="line2d_38">
      <g>
       <use style="stroke:#000000;stroke-linecap:butt;stroke-width:0.5;" x="312.985351563" xlink:href="#m0012dd4eef" y="111.6"/>
      </g>
     </g>
     <g id="line2d_39">
      <g>
       <use style="stroke:#000000;stroke-linecap:butt;stroke-width:0.5;" x="312.985351563" xlink:href="#m476344969c" y="32.0"/>
      </g>
     </g>
     <g id="text_4">
      <!-- 1500 -->
      <g transform="translate(301.141601563 123.021875)scale(0.1 -0.1)">
       <use xlink:href="#DejaVuSans-31"/>
       <use x="63.623046875" xlink:href="#DejaVuSans-35"/>
       <use x="127.24609375" xlink:href="#DejaVuSans-30"/>
       <use x="190.869140625" xlink:href="#DejaVuSans-30"/>
      </g>
     </g>
    </g>
    <g id="xtick_5">
     <g id="line2d_40">
      <g>
       <use style="stroke:#000000;stroke-linecap:butt;stroke-width:0.5;" x="401.94140625" xlink:href="#m0012dd4eef" y="111.6"/>
      </g>
     </g>
     <g id="line2d_41">
      <g>
       <use style="stroke:#000000;stroke-linecap:butt;stroke-width:0.5;" x="401.94140625" xlink:href="#m476344969c" y="32.0"/>
      </g>
     </g>
     <g id="text_5">
      <!-- 2000 -->
      <defs>
       <path d="
M19.1875 8.29688
L53.6094 8.29688
L53.6094 0
L7.32812 0
L7.32812 8.29688
Q12.9375 14.1094 22.625 23.8906
Q32.3281 33.6875 34.8125 36.5312
Q39.5469 41.8438 41.4219 45.5312
Q43.3125 49.2188 43.3125 52.7812
Q43.3125 58.5938 39.2344 62.25
Q35.1562 65.9219 28.6094 65.9219
Q23.9688 65.9219 18.8125 64.3125
Q13.6719 62.7031 7.8125 59.4219
L7.8125 69.3906
Q13.7656 71.7812 18.9375 73
Q24.125 74.2188 28.4219 74.2188
Q39.75 74.2188 46.4844 68.5469
Q53.2188 62.8906 53.2188 53.4219
Q53.2188 48.9219 51.5312 44.8906
Q49.8594 40.875 45.4062 35.4062
Q44.1875 33.9844 37.6406 27.2188
Q31.1094 20.4531 19.1875 8.29688" id="DejaVuSans-32"/>
      </defs>
      <g transform="translate(389.91484375 123.021875)scale(0.1 -0.1)">
       <use xlink:href="#DejaVuSans-32"/>
       <use x="63.623046875" xlink:href="#DejaVuSans-30"/>
       <use x="127.24609375" xlink:href="#DejaVuSans-30"/>
       <use x="190.869140625" xlink:href="#DejaVuSans-30"/>
      </g>
     </g>
    </g>
    <g id="text_6">
     <!-- Time -->
     <defs>
      <path d="
M52 44.1875
Q55.375 50.25 60.0625 53.125
Q64.75 56 71.0938 56
Q79.6406 56 84.2812 50.0156
Q88.9219 44.0469 88.9219 33.0156
L88.9219 0
L79.8906 0
L79.8906 32.7188
Q79.8906 40.5781 77.0938 44.375
Q74.3125 48.1875 68.6094 48.1875
Q61.625 48.1875 57.5625 43.5469
Q53.5156 38.9219 53.5156 30.9062
L53.5156 0
L44.4844 0
L44.4844 32.7188
Q44.4844 40.625 41.7031 44.4062
Q38.9219 48.1875 33.1094 48.1875
Q26.2188 48.1875 22.1562 43.5312
Q18.1094 38.875 18.1094 30.9062
L18.1094 0
L9.07812 0
L9.07812 54.6875
L18.1094 54.6875
L18.1094 46.1875
Q21.1875 51.2188 25.4844 53.6094
Q29.7812 56 35.6875 56
Q41.6562 56 45.8281 52.9688
Q50 49.9531 52 44.1875" id="DejaVuSans-6d"/>
      <path d="
M9.42188 54.6875
L18.4062 54.6875
L18.4062 0
L9.42188 0
z

M9.42188 75.9844
L18.4062 75.9844
L18.4062 64.5938
L9.42188 64.5938
z
" id="DejaVuSans-69"/>
      <path d="
M56.2031 29.5938
L56.2031 25.2031
L14.8906 25.2031
Q15.4844 15.9219 20.4844 11.0625
Q25.4844 6.20312 34.4219 6.20312
Q39.5938 6.20312 44.4531 7.46875
Q49.3125 8.73438 54.1094 11.2812
L54.1094 2.78125
Q49.2656 0.734375 44.1875 -0.34375
Q39.1094 -1.42188 33.8906 -1.42188
Q20.7969 -1.42188 13.1562 6.1875
Q5.51562 13.8125 5.51562 26.8125
Q5.51562 40.2344 12.7656 48.1094
Q20.0156 56 32.3281 56
Q43.3594 56 49.7812 48.8906
Q56.2031 41.7969 56.2031 29.5938
M47.2188 32.2344
Q47.125 39.5938 43.0938 43.9844
Q39.0625 48.3906 32.4219 48.3906
Q24.9062 48.3906 20.3906 44.1406
Q15.875 39.8906 15.1875 32.1719
z
" id="DejaVuSans-65"/>
      <path d="
M-0.296875 72.9062
L61.375 72.9062
L61.375 64.5938
L35.5 64.5938
L35.5 0
L25.5938 0
L25.5938 64.5938
L-0.296875 64.5938
z
" id="DejaVuSans-54"/>
     </defs>
     <g transform="translate(212.047265625 135.7625)scale(0.1 -0.1)">
      <use xlink:href="#DejaVuSans-54"/>
      <use x="57.958984375" xlink:href="#DejaVuSans-69"/>
      <use x="85.7421875" xlink:href="#DejaVuSans-6d"/>
      <use x="183.154296875" xlink:href="#DejaVuSans-65"/>
     </g>
    </g>
   </g>
   <g id="matplotlib.axis_2">
    <g id="ytick_1">
     <g id="line2d_42">
      <defs>
       <path d="
M0 0
L4 0" id="me8a85f7bf6" style="stroke:#000000;stroke-linecap:butt;stroke-width:0.5;"/>
      </defs>
      <g>
       <use style="stroke:#000000;stroke-linecap:butt;stroke-width:0.5;" x="46.1171875" xlink:href="#me8a85f7bf6" y="111.6"/>
      </g>
     </g>
     <g id="line2d_43">
      <defs>
       <path d="
M0 0
L-4 0" id="m1a32005dea" style="stroke:#000000;stroke-linecap:butt;stroke-width:0.5;"/>
      </defs>
      <g>
       <use style="stroke:#000000;stroke-linecap:butt;stroke-width:0.5;" x="401.94140625" xlink:href="#m1a32005dea" y="111.6"/>
      </g>
     </g>
     <g id="text_7">
      <!-- 0 -->
      <g transform="translate(37.078125 115.23984375)scale(0.1 -0.1)">
       <use xlink:href="#DejaVuSans-30"/>
      </g>
     </g>
    </g>
    <g id="ytick_2">
     <g id="line2d_44">
      <g>
       <use style="stroke:#000000;stroke-linecap:butt;stroke-width:0.5;" x="46.1171875" xlink:href="#me8a85f7bf6" y="95.68"/>
      </g>
     </g>
     <g id="line2d_45">
      <g>
       <use style="stroke:#000000;stroke-linecap:butt;stroke-width:0.5;" x="401.94140625" xlink:href="#m1a32005dea" y="95.68"/>
      </g>
     </g>
     <g id="text_8">
      <!-- 500 -->
      <g transform="translate(24.465625 99.31984375)scale(0.1 -0.1)">
       <use xlink:href="#DejaVuSans-35"/>
       <use x="63.623046875" xlink:href="#DejaVuSans-30"/>
       <use x="127.24609375" xlink:href="#DejaVuSans-30"/>
      </g>
     </g>
    </g>
    <g id="ytick_3">
     <g id="line2d_46">
      <g>
       <use style="stroke:#000000;stroke-linecap:butt;stroke-width:0.5;" x="46.1171875" xlink:href="#me8a85f7bf6" y="79.76"/>
      </g>
     </g>
     <g id="line2d_47">
      <g>
       <use style="stroke:#000000;stroke-linecap:butt;stroke-width:0.5;" x="401.94140625" xlink:href="#m1a32005dea" y="79.76"/>
      </g>
     </g>
     <g id="text_9">
      <!-- 1000 -->
      <g transform="translate(18.4296875 83.39984375)scale(0.1 -0.1)">
       <use xlink:href="#DejaVuSans-31"/>
       <use x="63.623046875" xlink:href="#DejaVuSans-30"/>
       <use x="127.24609375" xlink:href="#DejaVuSans-30"/>
       <use x="190.869140625" xlink:href="#DejaVuSans-30"/>
      </g>
     </g>
    </g>
    <g id="ytick_4">
     <g id="line2d_48">
      <g>
       <use style="stroke:#000000;stroke-linecap:butt;stroke-width:0.5;" x="46.1171875" xlink:href="#me8a85f7bf6" y="63.84"/>
      </g>
     </g>
     <g id="line2d_49">
      <g>
       <use style="stroke:#000000;stroke-linecap:butt;stroke-width:0.5;" x="401.94140625" xlink:href="#m1a32005dea" y="63.84"/>
      </g>
     </g>
     <g id="text_10">
      <!-- 1500 -->
      <g transform="translate(18.4296875 67.47984375)scale(0.1 -0.1)">
       <use xlink:href="#DejaVuSans-31"/>
       <use x="63.623046875" xlink:href="#DejaVuSans-35"/>
       <use x="127.24609375" xlink:href="#DejaVuSans-30"/>
       <use x="190.869140625" xlink:href="#DejaVuSans-30"/>
      </g>
     </g>
    </g>
    <g id="ytick_5">
     <g id="line2d_50">
      <g>
       <use style="stroke:#000000;stroke-linecap:butt;stroke-width:0.5;" x="46.1171875" xlink:href="#me8a85f7bf6" y="47.92"/>
      </g>
     </g>
     <g id="line2d_51">
      <g>
       <use style="stroke:#000000;stroke-linecap:butt;stroke-width:0.5;" x="401.94140625" xlink:href="#m1a32005dea" y="47.92"/>
      </g>
     </g>
     <g id="text_11">
      <!-- 2000 -->
      <g transform="translate(18.0640625 51.55984375)scale(0.1 -0.1)">
       <use xlink:href="#DejaVuSans-32"/>
       <use x="63.623046875" xlink:href="#DejaVuSans-30"/>
       <use x="127.24609375" xlink:href="#DejaVuSans-30"/>
       <use x="190.869140625" xlink:href="#DejaVuSans-30"/>
      </g>
     </g>
    </g>
    <g id="ytick_6">
     <g id="line2d_52">
      <g>
       <use style="stroke:#000000;stroke-linecap:butt;stroke-width:0.5;" x="46.1171875" xlink:href="#me8a85f7bf6" y="32.0"/>
      </g>
     </g>
     <g id="line2d_53">
      <g>
       <use style="stroke:#000000;stroke-linecap:butt;stroke-width:0.5;" x="401.94140625" xlink:href="#m1a32005dea" y="32.0"/>
      </g>
     </g>
     <g id="text_12">
      <!-- 2500 -->
      <g transform="translate(18.0640625 35.63984375)scale(0.1 -0.1)">
       <use xlink:href="#DejaVuSans-32"/>
       <use x="63.623046875" xlink:href="#DejaVuSans-35"/>
       <use x="127.24609375" xlink:href="#DejaVuSans-30"/>
       <use x="190.869140625" xlink:href="#DejaVuSans-30"/>
      </g>
     </g>
    </g>
   </g>
   <g id="patch_3">
    <path d="
M46.1172 32
L401.941 32" style="fill:none;stroke:#000000;"/>
   </g>
   <g id="patch_4">
    <path d="
M401.941 111.6
L401.941 32" style="fill:none;stroke:#000000;"/>
   </g>
   <g id="patch_5">
    <path d="
M46.1172 111.6
L401.941 111.6" style="fill:none;stroke:#000000;"/>
   </g>
   <g id="patch_6">
    <path d="
M46.1172 111.6
L46.1172 32" style="fill:none;stroke:#000000;"/>
   </g>
   <g id="text_13">
    <!-- OLTP -->
    <defs>
     <path d="
M39.4062 66.2188
Q28.6562 66.2188 22.3281 58.2031
Q16.0156 50.2031 16.0156 36.375
Q16.0156 22.6094 22.3281 14.5938
Q28.6562 6.59375 39.4062 6.59375
Q50.1406 6.59375 56.4219 14.5938
Q62.7031 22.6094 62.7031 36.375
Q62.7031 50.2031 56.4219 58.2031
Q50.1406 66.2188 39.4062 66.2188
M39.4062 74.2188
Q54.7344 74.2188 63.9062 63.9375
Q73.0938 53.6562 73.0938 36.375
Q73.0938 19.1406 63.9062 8.85938
Q54.7344 -1.42188 39.4062 -1.42188
Q24.0312 -1.42188 14.8125 8.82812
Q5.60938 19.0938 5.60938 36.375
Q5.60938 53.6562 14.8125 63.9375
Q24.0312 74.2188 39.4062 74.2188" id="DejaVuSans-4f"/>
     <path d="
M19.6719 64.7969
L19.6719 37.4062
L32.0781 37.4062
Q38.9688 37.4062 42.7188 40.9688
Q46.4844 44.5312 46.4844 51.125
Q46.4844 57.6719 42.7188 61.2344
Q38.9688 64.7969 32.0781 64.7969
z

M9.8125 72.9062
L32.0781 72.9062
Q44.3438 72.9062 50.6094 67.3594
Q56.8906 61.8125 56.8906 51.125
Q56.8906 40.3281 50.6094 34.8125
Q44.3438 29.2969 32.0781 29.2969
L19.6719 29.2969
L19.6719 0
L9.8125 0
z
" id="DejaVuSans-50"/>
     <path d="
M9.8125 72.9062
L19.6719 72.9062
L19.6719 8.29688
L55.1719 8.29688
L55.1719 0
L9.8125 0
z
" id="DejaVuSans-4c"/>
    </defs>
    <g transform="translate(210.046484375 27.0)scale(0.12 -0.12)">
     <use xlink:href="#DejaVuSans-4f"/>
     <use x="78.7109375" xlink:href="#DejaVuSans-4c"/>
     <use x="120.673828125" xlink:href="#DejaVuSans-54"/>
     <use x="181.7578125" xlink:href="#DejaVuSans-50"/>
    </g>
   </g>
  </g>
  <g id="axes_2">
   <g id="patch_7">
    <path d="
M46.1172 246.6
L401.941 246.6
L401.941 167
L46.1172 167
z
" style="fill:#ffffff;"/>
   </g>
   <g id="line2d_54">
    <path clip-path="url(#pe9bd9c4693)" d="
M56.7922 246.6
L56.7922 167" style="fill:none;stroke:#00ffff;stroke-dasharray:6.000000,6.000000;stroke-dashoffset:0.0;stroke-linecap:butt;"/>
   </g>
   <g id="line2d_55">
    <path clip-path="url(#pe9bd9c4693)" d="
M78.1415 246.6
L78.1415 167" style="fill:none;stroke:#00ffff;stroke-dasharray:6.000000,6.000000;stroke-dashoffset:0.0;stroke-linecap:butt;"/>
   </g>
   <g id="line2d_56">
    <path clip-path="url(#pe9bd9c4693)" d="
M78.1418 246.6
L78.1418 167" style="fill:none;stroke:#00ffff;stroke-dasharray:6.000000,6.000000;stroke-dashoffset:0.0;stroke-linecap:butt;"/>
   </g>
   <g id="line2d_57">
    <path clip-path="url(#pe9bd9c4693)" d="
M78.142 246.6
L78.142 167" style="fill:none;stroke:#00ffff;stroke-dasharray:6.000000,6.000000;stroke-dashoffset:0.0;stroke-linecap:butt;"/>
   </g>
   <g id="line2d_58">
    <path clip-path="url(#pe9bd9c4693)" d="
M99.4912 246.6
L99.4912 167" style="fill:none;stroke:#00ffff;stroke-dasharray:6.000000,6.000000;stroke-dashoffset:0.0;stroke-linecap:butt;"/>
   </g>
   <g id="line2d_59">
    <path clip-path="url(#pe9bd9c4693)" d="
M99.4913 246.6
L99.4913 167" style="fill:none;stroke:#00ffff;stroke-dasharray:6.000000,6.000000;stroke-dashoffset:0.0;stroke-linecap:butt;"/>
   </g>
   <g id="line2d_60">
    <path clip-path="url(#pe9bd9c4693)" d="
M99.4916 246.6
L99.4916 167" style="fill:none;stroke:#00ffff;stroke-dasharray:6.000000,6.000000;stroke-dashoffset:0.0;stroke-linecap:butt;"/>
   </g>
   <g id="line2d_61">
    <path clip-path="url(#pe9bd9c4693)" d="
M120.841 246.6
L120.841 167" style="fill:none;stroke:#00ffff;stroke-dasharray:6.000000,6.000000;stroke-dashoffset:0.0;stroke-linecap:butt;"/>
   </g>
   <g id="line2d_62">
    <path clip-path="url(#pe9bd9c4693)" d="
M120.841 246.6
L120.841 167" style="fill:none;stroke:#00ffff;stroke-dasharray:6.000000,6.000000;stroke-dashoffset:0.0;stroke-linecap:butt;"/>
   </g>
   <g id="line2d_63">
    <path clip-path="url(#pe9bd9c4693)" d="
M120.841 246.6
L120.841 167" style="fill:none;stroke:#00ffff;stroke-dasharray:6.000000,6.000000;stroke-dashoffset:0.0;stroke-linecap:butt;"/>
   </g>
   <g id="line2d_64">
    <path clip-path="url(#pe9bd9c4693)" d="
M142.19 246.6
L142.19 167" style="fill:none;stroke:#00ffff;stroke-dasharray:6.000000,6.000000;stroke-dashoffset:0.0;stroke-linecap:butt;"/>
   </g>
   <g id="line2d_65">
    <path clip-path="url(#pe9bd9c4693)" d="
M163.539 246.6
L163.539 167" style="fill:none;stroke:#00ffff;stroke-dasharray:6.000000,6.000000;stroke-dashoffset:0.0;stroke-linecap:butt;"/>
   </g>
   <g id="line2d_66">
    <path clip-path="url(#pe9bd9c4693)" d="
M163.54 246.6
L163.54 167" style="fill:none;stroke:#00ffff;stroke-dasharray:6.000000,6.000000;stroke-dashoffset:0.0;stroke-linecap:butt;"/>
   </g>
   <g id="line2d_67">
    <path clip-path="url(#pe9bd9c4693)" d="
M184.889 246.6
L184.889 167" style="fill:none;stroke:#00ffff;stroke-dasharray:6.000000,6.000000;stroke-dashoffset:0.0;stroke-linecap:butt;"/>
   </g>
   <g id="line2d_68">
    <path clip-path="url(#pe9bd9c4693)" d="
M184.889 246.6
L184.889 167" style="fill:none;stroke:#00ffff;stroke-dasharray:6.000000,6.000000;stroke-dashoffset:0.0;stroke-linecap:butt;"/>
   </g>
   <g id="line2d_69">
    <path clip-path="url(#pe9bd9c4693)" d="
M206.239 246.6
L206.239 167" style="fill:none;stroke:#00ffff;stroke-dasharray:6.000000,6.000000;stroke-dashoffset:0.0;stroke-linecap:butt;"/>
   </g>
   <g id="line2d_70">
    <path clip-path="url(#pe9bd9c4693)" d="
M206.239 246.6
L206.239 167" style="fill:none;stroke:#00ffff;stroke-dasharray:6.000000,6.000000;stroke-dashoffset:0.0;stroke-linecap:butt;"/>
   </g>
   <g id="line2d_71">
    <path clip-path="url(#pe9bd9c4693)" d="
M227.588 246.6
L227.588 167" style="fill:none;stroke:#00ffff;stroke-dasharray:6.000000,6.000000;stroke-dashoffset:0.0;stroke-linecap:butt;"/>
   </g>
   <g id="line2d_72">
    <path clip-path="url(#pe9bd9c4693)" d="
M227.589 246.6
L227.589 167" style="fill:none;stroke:#00ffff;stroke-dasharray:6.000000,6.000000;stroke-dashoffset:0.0;stroke-linecap:butt;"/>
   </g>
   <g id="line2d_73">
    <path clip-path="url(#pe9bd9c4693)" d="
M248.937 246.6
L248.937 167" style="fill:none;stroke:#00ffff;stroke-dasharray:6.000000,6.000000;stroke-dashoffset:0.0;stroke-linecap:butt;"/>
   </g>
   <g id="line2d_74">
    <path clip-path="url(#pe9bd9c4693)" d="
M248.937 246.6
L248.937 167" style="fill:none;stroke:#00ffff;stroke-dasharray:6.000000,6.000000;stroke-dashoffset:0.0;stroke-linecap:butt;"/>
   </g>
   <g id="line2d_75">
    <path clip-path="url(#pe9bd9c4693)" d="
M248.937 246.6
L248.937 167" style="fill:none;stroke:#00ffff;stroke-dasharray:6.000000,6.000000;stroke-dashoffset:0.0;stroke-linecap:butt;"/>
   </g>
   <g id="line2d_76">
    <path clip-path="url(#pe9bd9c4693)" d="
M270.287 246.6
L270.287 167" style="fill:none;stroke:#00ffff;stroke-dasharray:6.000000,6.000000;stroke-dashoffset:0.0;stroke-linecap:butt;"/>
   </g>
   <g id="line2d_77">
    <path clip-path="url(#pe9bd9c4693)" d="
M291.636 246.6
L291.636 167" style="fill:none;stroke:#00ffff;stroke-dasharray:6.000000,6.000000;stroke-dashoffset:0.0;stroke-linecap:butt;"/>
   </g>
   <g id="line2d_78">
    <path clip-path="url(#pe9bd9c4693)" d="
M312.986 246.6
L312.986 167" style="fill:none;stroke:#00ffff;stroke-dasharray:6.000000,6.000000;stroke-dashoffset:0.0;stroke-linecap:butt;"/>
   </g>
   <g id="line2d_79">
    <path clip-path="url(#pe9bd9c4693)" d="
M312.986 246.6
L312.986 167" style="fill:none;stroke:#00ffff;stroke-dasharray:6.000000,6.000000;stroke-dashoffset:0.0;stroke-linecap:butt;"/>
   </g>
   <g id="line2d_80">
    <path clip-path="url(#pe9bd9c4693)" d="
M334.335 246.6
L334.335 167" style="fill:none;stroke:#00ffff;stroke-dasharray:6.000000,6.000000;stroke-dashoffset:0.0;stroke-linecap:butt;"/>
   </g>
   <g id="line2d_81">
    <path clip-path="url(#pe9bd9c4693)" d="
M334.335 246.6
L334.335 167" style="fill:none;stroke:#00ffff;stroke-dasharray:6.000000,6.000000;stroke-dashoffset:0.0;stroke-linecap:butt;"/>
   </g>
   <g id="line2d_82">
    <path clip-path="url(#pe9bd9c4693)" d="
M355.684 246.6
L355.684 167" style="fill:none;stroke:#00ffff;stroke-dasharray:6.000000,6.000000;stroke-dashoffset:0.0;stroke-linecap:butt;"/>
   </g>
   <g id="line2d_83">
    <path clip-path="url(#pe9bd9c4693)" d="
M377.034 246.6
L377.034 167" style="fill:none;stroke:#00ffff;stroke-dasharray:6.000000,6.000000;stroke-dashoffset:0.0;stroke-linecap:butt;"/>
   </g>
   <g id="line2d_84">
    <path clip-path="url(#pe9bd9c4693)" d="
M58.0164 239.525
L58.0164 235.057
L78.0338 235.057
L78.0338 235.616
L98.0511 235.616
L98.0511 234.312
L118.068 234.312
L118.068 237.663
L138.086 237.663
L138.086 234.498
L158.103 234.498
L158.103 235.243
L178.121 235.243
L178.121 238.408
L198.138 238.408
L198.138 234.498
L218.155 234.498
L218.155 236.733
L238.173 236.733
L238.173 230.03
L258.19 230.03
L258.19 235.057
L278.207 235.057
L278.207 234.498
L298.225 234.498
L298.225 232.637
L318.242 232.637
L318.242 233.009
L338.26 233.009
L338.26 238.594
L358.277 238.594
L358.277 235.988
L378.294 235.988" style="fill:none;stroke:#008000;"/>
   </g>
   <g id="matplotlib.axis_3">
    <g id="xtick_6">
     <g id="line2d_85">
      <g>
       <use style="stroke:#000000;stroke-linecap:butt;stroke-width:0.5;" x="46.1171875" xlink:href="#m0012dd4eef" y="246.6"/>
      </g>
     </g>
     <g id="line2d_86">
      <g>
       <use style="stroke:#000000;stroke-linecap:butt;stroke-width:0.5;" x="46.1171875" xlink:href="#m476344969c" y="167.0"/>
      </g>
     </g>
     <g id="text_14">
      <!-- 0 -->
      <g transform="translate(43.59765625 258.021875)scale(0.1 -0.1)">
       <use xlink:href="#DejaVuSans-30"/>
      </g>
     </g>
    </g>
    <g id="xtick_7">
     <g id="line2d_87">
      <g>
       <use style="stroke:#000000;stroke-linecap:butt;stroke-width:0.5;" x="135.073242188" xlink:href="#m0012dd4eef" y="246.6"/>
      </g>
     </g>
     <g id="line2d_88">
      <g>
       <use style="stroke:#000000;stroke-linecap:butt;stroke-width:0.5;" x="135.073242188" xlink:href="#m476344969c" y="167.0"/>
      </g>
     </g>
     <g id="text_15">
      <!-- 500 -->
      <g transform="translate(126.247460938 258.021875)scale(0.1 -0.1)">
       <use xlink:href="#DejaVuSans-35"/>
       <use x="63.623046875" xlink:href="#DejaVuSans-30"/>
       <use x="127.24609375" xlink:href="#DejaVuSans-30"/>
      </g>
     </g>
    </g>
    <g id="xtick_8">
     <g id="line2d_89">
      <g>
       <use style="stroke:#000000;stroke-linecap:butt;stroke-width:0.5;" x="224.029296875" xlink:href="#m0012dd4eef" y="246.6"/>
      </g>
     </g>
     <g id="line2d_90">
      <g>
       <use style="stroke:#000000;stroke-linecap:butt;stroke-width:0.5;" x="224.029296875" xlink:href="#m476344969c" y="167.0"/>
      </g>
     </g>
     <g id="text_16">
      <!-- 1000 -->
      <g transform="translate(212.185546875 258.021875)scale(0.1 -0.1)">
       <use xlink:href="#DejaVuSans-31"/>
       <use x="63.623046875" xlink:href="#DejaVuSans-30"/>
       <use x="127.24609375" xlink:href="#DejaVuSans-30"/>
       <use x="190.869140625" xlink:href="#DejaVuSans-30"/>
      </g>
     </g>
    </g>
    <g id="xtick_9">
     <g id="line2d_91">
      <g>
       <use style="stroke:#000000;stroke-linecap:butt;stroke-width:0.5;" x="312.985351563" xlink:href="#m0012dd4eef" y="246.6"/>
      </g>
     </g>
     <g id="line2d_92">
      <g>
       <use style="stroke:#000000;stroke-linecap:butt;stroke-width:0.5;" x="312.985351563" xlink:href="#m476344969c" y="167.0"/>
      </g>
     </g>
     <g id="text_17">
      <!-- 1500 -->
      <g transform="translate(301.141601563 258.021875)scale(0.1 -0.1)">
       <use xlink:href="#DejaVuSans-31"/>
       <use x="63.623046875" xlink:href="#DejaVuSans-35"/>
       <use x="127.24609375" xlink:href="#DejaVuSans-30"/>
       <use x="190.869140625" xlink:href="#DejaVuSans-30"/>
      </g>
     </g>
    </g>
    <g id="xtick_10">
     <g id="line2d_93">
      <g>
       <use style="stroke:#000000;stroke-linecap:butt;stroke-width:0.5;" x="401.94140625" xlink:href="#m0012dd4eef" y="246.6"/>
      </g>
     </g>
     <g id="line2d_94">
      <g>
       <use style="stroke:#000000;stroke-linecap:butt;stroke-width:0.5;" x="401.94140625" xlink:href="#m476344969c" y="167.0"/>
      </g>
     </g>
     <g id="text_18">
      <!-- 2000 -->
      <g transform="translate(389.91484375 258.021875)scale(0.1 -0.1)">
       <use xlink:href="#DejaVuSans-32"/>
       <use x="63.623046875" xlink:href="#DejaVuSans-30"/>
       <use x="127.24609375" xlink:href="#DejaVuSans-30"/>
       <use x="190.869140625" xlink:href="#DejaVuSans-30"/>
      </g>
     </g>
    </g>
    <g id="text_19">
     <!-- Time -->
     <g transform="translate(212.047265625 270.7625)scale(0.1 -0.1)">
      <use xlink:href="#DejaVuSans-54"/>
      <use x="57.958984375" xlink:href="#DejaVuSans-69"/>
      <use x="85.7421875" xlink:href="#DejaVuSans-6d"/>
      <use x="183.154296875" xlink:href="#DejaVuSans-65"/>
     </g>
    </g>
   </g>
   <g id="matplotlib.axis_4">
    <g id="ytick_7">
     <g id="line2d_95">
      <g>
       <use style="stroke:#000000;stroke-linecap:butt;stroke-width:0.5;" x="46.1171875" xlink:href="#me8a85f7bf6" y="246.6"/>
      </g>
     </g>
     <g id="line2d_96">
      <g>
       <use style="stroke:#000000;stroke-linecap:butt;stroke-width:0.5;" x="401.94140625" xlink:href="#m1a32005dea" y="246.6"/>
      </g>
     </g>
     <g id="text_20">
      <!-- 0.0 -->
      <defs>
       <path d="
M10.6875 12.4062
L21 12.4062
L21 0
L10.6875 0
z
" id="DejaVuSans-2e"/>
      </defs>
      <g transform="translate(27.5375 250.23984375)scale(0.1 -0.1)">
       <use xlink:href="#DejaVuSans-30"/>
       <use x="63.623046875" xlink:href="#DejaVuSans-2e"/>
       <use x="95.41015625" xlink:href="#DejaVuSans-30"/>
      </g>
     </g>
    </g>
    <g id="ytick_8">
     <g id="line2d_97">
      <g>
       <use style="stroke:#000000;stroke-linecap:butt;stroke-width:0.5;" x="46.1171875" xlink:href="#me8a85f7bf6" y="236.126315789"/>
      </g>
     </g>
     <g id="line2d_98">
      <g>
       <use style="stroke:#000000;stroke-linecap:butt;stroke-width:0.5;" x="401.94140625" xlink:href="#m1a32005dea" y="236.126315789"/>
      </g>
     </g>
     <g id="text_21">
      <!-- 0.5 -->
      <g transform="translate(27.746875 239.766159539)scale(0.1 -0.1)">
       <use xlink:href="#DejaVuSans-30"/>
       <use x="63.623046875" xlink:href="#DejaVuSans-2e"/>
       <use x="95.41015625" xlink:href="#DejaVuSans-35"/>
      </g>
     </g>
    </g>
    <g id="ytick_9">
     <g id="line2d_99">
      <g>
       <use style="stroke:#000000;stroke-linecap:butt;stroke-width:0.5;" x="46.1171875" xlink:href="#me8a85f7bf6" y="225.652631579"/>
      </g>
     </g>
     <g id="line2d_100">
      <g>
       <use style="stroke:#000000;stroke-linecap:butt;stroke-width:0.5;" x="401.94140625" xlink:href="#m1a32005dea" y="225.652631579"/>
      </g>
     </g>
     <g id="text_22">
      <!-- 1.0 -->
      <g transform="translate(27.9765625 229.292475329)scale(0.1 -0.1)">
       <use xlink:href="#DejaVuSans-31"/>
       <use x="63.623046875" xlink:href="#DejaVuSans-2e"/>
       <use x="95.41015625" xlink:href="#DejaVuSans-30"/>
      </g>
     </g>
    </g>
    <g id="ytick_10">
     <g id="line2d_101">
      <g>
       <use style="stroke:#000000;stroke-linecap:butt;stroke-width:0.5;" x="46.1171875" xlink:href="#me8a85f7bf6" y="215.178947368"/>
      </g>
     </g>
     <g id="line2d_102">
      <g>
       <use style="stroke:#000000;stroke-linecap:butt;stroke-width:0.5;" x="401.94140625" xlink:href="#m1a32005dea" y="215.178947368"/>
      </g>
     </g>
     <g id="text_23">
      <!-- 1.5 -->
      <g transform="translate(28.1859375 218.753166118)scale(0.1 -0.1)">
       <use xlink:href="#DejaVuSans-31"/>
       <use x="63.623046875" xlink:href="#DejaVuSans-2e"/>
       <use x="95.41015625" xlink:href="#DejaVuSans-35"/>
      </g>
     </g>
    </g>
    <g id="ytick_11">
     <g id="line2d_103">
      <g>
       <use style="stroke:#000000;stroke-linecap:butt;stroke-width:0.5;" x="46.1171875" xlink:href="#me8a85f7bf6" y="204.705263158"/>
      </g>
     </g>
     <g id="line2d_104">
      <g>
       <use style="stroke:#000000;stroke-linecap:butt;stroke-width:0.5;" x="401.94140625" xlink:href="#m1a32005dea" y="204.705263158"/>
      </g>
     </g>
     <g id="text_24">
      <!-- 2.0 -->
      <g transform="translate(27.6109375 208.345106908)scale(0.1 -0.1)">
       <use xlink:href="#DejaVuSans-32"/>
       <use x="63.623046875" xlink:href="#DejaVuSans-2e"/>
       <use x="95.41015625" xlink:href="#DejaVuSans-30"/>
      </g>
     </g>
    </g>
    <g id="ytick_12">
     <g id="line2d_105">
      <g>
       <use style="stroke:#000000;stroke-linecap:butt;stroke-width:0.5;" x="46.1171875" xlink:href="#me8a85f7bf6" y="194.231578947"/>
      </g>
     </g>
     <g id="line2d_106">
      <g>
       <use style="stroke:#000000;stroke-linecap:butt;stroke-width:0.5;" x="401.94140625" xlink:href="#m1a32005dea" y="194.231578947"/>
      </g>
     </g>
     <g id="text_25">
      <!-- 2.5 -->
      <g transform="translate(27.8203125 197.871422697)scale(0.1 -0.1)">
       <use xlink:href="#DejaVuSans-32"/>
       <use x="63.623046875" xlink:href="#DejaVuSans-2e"/>
       <use x="95.41015625" xlink:href="#DejaVuSans-35"/>
      </g>
     </g>
    </g>
    <g id="ytick_13">
     <g id="line2d_107">
      <g>
       <use style="stroke:#000000;stroke-linecap:butt;stroke-width:0.5;" x="46.1171875" xlink:href="#me8a85f7bf6" y="183.757894737"/>
      </g>
     </g>
     <g id="line2d_108">
      <g>
       <use style="stroke:#000000;stroke-linecap:butt;stroke-width:0.5;" x="401.94140625" xlink:href="#m1a32005dea" y="183.757894737"/>
      </g>
     </g>
     <g id="text_26">
      <!-- 3.0 -->
      <defs>
       <path d="
M40.5781 39.3125
Q47.6562 37.7969 51.625 33
Q55.6094 28.2188 55.6094 21.1875
Q55.6094 10.4062 48.1875 4.48438
Q40.7656 -1.42188 27.0938 -1.42188
Q22.5156 -1.42188 17.6562 -0.515625
Q12.7969 0.390625 7.625 2.20312
L7.625 11.7188
Q11.7188 9.32812 16.5938 8.10938
Q21.4844 6.89062 26.8125 6.89062
Q36.0781 6.89062 40.9375 10.5469
Q45.7969 14.2031 45.7969 21.1875
Q45.7969 27.6406 41.2812 31.2656
Q36.7656 34.9062 28.7188 34.9062
L20.2188 34.9062
L20.2188 43.0156
L29.1094 43.0156
Q36.375 43.0156 40.2344 45.9219
Q44.0938 48.8281 44.0938 54.2969
Q44.0938 59.9062 40.1094 62.9062
Q36.1406 65.9219 28.7188 65.9219
Q24.6562 65.9219 20.0156 65.0312
Q15.375 64.1562 9.8125 62.3125
L9.8125 71.0938
Q15.4375 72.6562 20.3438 73.4375
Q25.25 74.2188 29.5938 74.2188
Q40.8281 74.2188 47.3594 69.1094
Q53.9062 64.0156 53.9062 55.3281
Q53.9062 49.2656 50.4375 45.0938
Q46.9688 40.9219 40.5781 39.3125" id="DejaVuSans-33"/>
      </defs>
      <g transform="translate(27.640625 187.397738487)scale(0.1 -0.1)">
       <use xlink:href="#DejaVuSans-33"/>
       <use x="63.623046875" xlink:href="#DejaVuSans-2e"/>
       <use x="95.41015625" xlink:href="#DejaVuSans-30"/>
      </g>
     </g>
    </g>
    <g id="ytick_14">
     <g id="line2d_109">
      <g>
       <use style="stroke:#000000;stroke-linecap:butt;stroke-width:0.5;" x="46.1171875" xlink:href="#me8a85f7bf6" y="173.284210526"/>
      </g>
     </g>
     <g id="line2d_110">
      <g>
       <use style="stroke:#000000;stroke-linecap:butt;stroke-width:0.5;" x="401.94140625" xlink:href="#m1a32005dea" y="173.284210526"/>
      </g>
     </g>
     <g id="text_27">
      <!-- 3.5 -->
      <g transform="translate(27.85 176.924054276)scale(0.1 -0.1)">
       <use xlink:href="#DejaVuSans-33"/>
       <use x="63.623046875" xlink:href="#DejaVuSans-2e"/>
       <use x="95.41015625" xlink:href="#DejaVuSans-35"/>
      </g>
     </g>
    </g>
   </g>
   <g id="patch_8">
    <path d="
M46.1172 167
L401.941 167" style="fill:none;stroke:#000000;"/>
   </g>
   <g id="patch_9">
    <path d="
M401.941 246.6
L401.941 167" style="fill:none;stroke:#000000;"/>
   </g>
   <g id="patch_10">
    <path d="
M46.1172 246.6
L401.941 246.6" style="fill:none;stroke:#000000;"/>
   </g>
   <g id="patch_11">
    <path d="
M46.1172 246.6
L46.1172 167" style="fill:none;stroke:#000000;"/>
   </g>
   <g id="text_28">
    <!-- OLAP -->
    <defs>
     <path d="
M34.1875 63.1875
L20.7969 26.9062
L47.6094 26.9062
z

M28.6094 72.9062
L39.7969 72.9062
L67.5781 0
L57.3281 0
L50.6875 18.7031
L17.8281 18.7031
L11.1875 0
L0.78125 0
z
" id="DejaVuSans-41"/>
    </defs>
    <g transform="translate(208.646796875 162.0)scale(0.12 -0.12)">
     <use xlink:href="#DejaVuSans-4f"/>
     <use x="78.7109375" xlink:href="#DejaVuSans-4c"/>
     <use x="136.673828125" xlink:href="#DejaVuSans-41"/>
     <use x="205.08203125" xlink:href="#DejaVuSans-50"/>
    </g>
   </g>
  </g>
  <g id="text_29">
   <!-- 13 OLTP workers -->
   <defs>
    <path d="
M30.6094 48.3906
Q23.3906 48.3906 19.1875 42.75
Q14.9844 37.1094 14.9844 27.2969
Q14.9844 17.4844 19.1562 11.8438
Q23.3438 6.20312 30.6094 6.20312
Q37.7969 6.20312 41.9844 11.8594
Q46.1875 17.5312 46.1875 27.2969
Q46.1875 37.0156 41.9844 42.7031
Q37.7969 48.3906 30.6094 48.3906
M30.6094 56
Q42.3281 56 49.0156 48.375
Q55.7188 40.7656 55.7188 27.2969
Q55.7188 13.875 49.0156 6.21875
Q42.3281 -1.42188 30.6094 -1.42188
Q18.8438 -1.42188 12.1719 6.21875
Q5.51562 13.875 5.51562 27.2969
Q5.51562 40.7656 12.1719 48.375
Q18.8438 56 30.6094 56" id="DejaVuSans-6f"/>
    <path d="
M9.07812 75.9844
L18.1094 75.9844
L18.1094 31.1094
L44.9219 54.6875
L56.3906 54.6875
L27.3906 29.1094
L57.625 0
L45.9062 0
L18.1094 26.7031
L18.1094 0
L9.07812 0
z
" id="DejaVuSans-6b"/>
    <path id="DejaVuSans-20"/>
    <path d="
M4.20312 54.6875
L13.1875 54.6875
L24.4219 12.0156
L35.5938 54.6875
L46.1875 54.6875
L57.4219 12.0156
L68.6094 54.6875
L77.5938 54.6875
L63.2812 0
L52.6875 0
L40.9219 44.8281
L29.1094 0
L18.5 0
z
" id="DejaVuSans-77"/>
    <path d="
M44.2812 53.0781
L44.2812 44.5781
Q40.4844 46.5312 36.375 47.5
Q32.2812 48.4844 27.875 48.4844
Q21.1875 48.4844 17.8438 46.4375
Q14.5 44.3906 14.5 40.2812
Q14.5 37.1562 16.8906 35.375
Q19.2812 33.5938 26.5156 31.9844
L29.5938 31.2969
Q39.1562 29.25 43.1875 25.5156
Q47.2188 21.7812 47.2188 15.0938
Q47.2188 7.46875 41.1875 3.01562
Q35.1562 -1.42188 24.6094 -1.42188
Q20.2188 -1.42188 15.4531 -0.5625
Q10.6875 0.296875 5.42188 2
L5.42188 11.2812
Q10.4062 8.6875 15.2344 7.39062
Q20.0625 6.10938 24.8125 6.10938
Q31.1562 6.10938 34.5625 8.28125
Q37.9844 10.4531 37.9844 14.4062
Q37.9844 18.0625 35.5156 20.0156
Q33.0625 21.9688 24.7031 23.7812
L21.5781 24.5156
Q13.2344 26.2656 9.51562 29.9062
Q5.8125 33.5469 5.8125 39.8906
Q5.8125 47.6094 11.2812 51.7969
Q16.75 56 26.8125 56
Q31.7812 56 36.1719 55.2656
Q40.5781 54.5469 44.2812 53.0781" id="DejaVuSans-73"/>
    <path d="
M41.1094 46.2969
Q39.5938 47.1719 37.8125 47.5781
Q36.0312 48 33.8906 48
Q26.2656 48 22.1875 43.0469
Q18.1094 38.0938 18.1094 28.8125
L18.1094 0
L9.07812 0
L9.07812 54.6875
L18.1094 54.6875
L18.1094 46.1875
Q20.9531 51.1719 25.4844 53.5781
Q30.0312 56 36.5312 56
Q37.4531 56 38.5781 55.875
Q39.7031 55.7656 41.0625 55.5156
z
" id="DejaVuSans-72"/>
   </defs>
   <g transform="translate(174.9453125 13.3584375)scale(0.1 -0.1)">
    <use xlink:href="#DejaVuSans-31"/>
    <use x="63.623046875" xlink:href="#DejaVuSans-33"/>
    <use x="127.24609375" xlink:href="#DejaVuSans-20"/>
    <use x="159.033203125" xlink:href="#DejaVuSans-4f"/>
    <use x="237.744140625" xlink:href="#DejaVuSans-4c"/>
    <use x="279.70703125" xlink:href="#DejaVuSans-54"/>
    <use x="340.791015625" xlink:href="#DejaVuSans-50"/>
    <use x="401.09375" xlink:href="#DejaVuSans-20"/>
    <use x="432.880859375" xlink:href="#DejaVuSans-77"/>
    <use x="514.66796875" xlink:href="#DejaVuSans-6f"/>
    <use x="575.849609375" xlink:href="#DejaVuSans-72"/>
    <use x="616.962890625" xlink:href="#DejaVuSans-6b"/>
    <use x="671.248046875" xlink:href="#DejaVuSans-65"/>
    <use x="732.771484375" xlink:href="#DejaVuSans-72"/>
    <use x="773.884765625" xlink:href="#DejaVuSans-73"/>
   </g>
  </g>
 </g>
 <defs>
  <clipPath id="pe9bd9c4693">
   <rect height="79.6" width="355.82421875" x="46.1171875" y="167.0"/>
  </clipPath>
  <clipPath id="paafe9ad165">
   <rect height="79.6" width="355.82421875" x="46.1171875" y="32.0"/>
  </clipPath>
 </defs>
</svg>
