<?xml version="1.0" encoding="utf-8" standalone="no"?>
<!DOCTYPE svg PUBLIC "-//W3C//DTD SVG 1.1//EN"
  "http://www.w3.org/Graphics/SVG/1.1/DTD/svg11.dtd">
<!-- Created with matplotlib (http://matplotlib.sourceforge.net/) -->
<svg height="288pt" version="1.1" viewBox="0 0 432 288" width="432pt" xmlns="http://www.w3.org/2000/svg" xmlns:xlink="http://www.w3.org/1999/xlink">
 <defs>
  <style type="text/css">
*{stroke-linecap:square;stroke-linejoin:round;}
  </style>
 </defs>
 <g id="figure_1">
  <g id="patch_1">
   <path d="
M0 288
L432 288
L432 0
L0 0
z
" style="fill:#ffffff;"/>
  </g>
  <g id="axes_1">
   <g id="patch_2">
    <path d="
M46.1172 111.6
L401.941 111.6
L401.941 32
L46.1172 32
z
" style="fill:#ffffff;"/>
   </g>
   <g id="line2d_1">
    <path clip-path="url(#paafe9ad165)" d="
M56.7923 111.6
L56.7923 32" style="fill:none;stroke:#00ffff;stroke-dasharray:6.000000,6.000000;stroke-dashoffset:0.0;stroke-linecap:butt;"/>
   </g>
   <g id="line2d_2">
    <path clip-path="url(#paafe9ad165)" d="
M78.1416 111.6
L78.1416 32" style="fill:none;stroke:#00ffff;stroke-dasharray:6.000000,6.000000;stroke-dashoffset:0.0;stroke-linecap:butt;"/>
   </g>
   <g id="line2d_3">
    <path clip-path="url(#paafe9ad165)" d="
M78.1416 111.6
L78.1416 32" style="fill:none;stroke:#00ffff;stroke-dasharray:6.000000,6.000000;stroke-dashoffset:0.0;stroke-linecap:butt;"/>
   </g>
   <g id="line2d_4">
    <path clip-path="url(#paafe9ad165)" d="
M78.142 111.6
L78.142 32" style="fill:none;stroke:#00ffff;stroke-dasharray:6.000000,6.000000;stroke-dashoffset:0.0;stroke-linecap:butt;"/>
   </g>
   <g id="line2d_5">
    <path clip-path="url(#paafe9ad165)" d="
M99.4913 111.6
L99.4913 32" style="fill:none;stroke:#00ffff;stroke-dasharray:6.000000,6.000000;stroke-dashoffset:0.0;stroke-linecap:butt;"/>
   </g>
   <g id="line2d_6">
    <path clip-path="url(#paafe9ad165)" d="
M99.4915 111.6
L99.4915 32" style="fill:none;stroke:#00ffff;stroke-dasharray:6.000000,6.000000;stroke-dashoffset:0.0;stroke-linecap:butt;"/>
   </g>
   <g id="line2d_7">
    <path clip-path="url(#paafe9ad165)" d="
M120.841 111.6
L120.841 32" style="fill:none;stroke:#00ffff;stroke-dasharray:6.000000,6.000000;stroke-dashoffset:0.0;stroke-linecap:butt;"/>
   </g>
   <g id="line2d_8">
    <path clip-path="url(#paafe9ad165)" d="
M120.841 111.6
L120.841 32" style="fill:none;stroke:#00ffff;stroke-dasharray:6.000000,6.000000;stroke-dashoffset:0.0;stroke-linecap:butt;"/>
   </g>
   <g id="line2d_9">
    <path clip-path="url(#paafe9ad165)" d="
M120.841 111.6
L120.841 32" style="fill:none;stroke:#00ffff;stroke-dasharray:6.000000,6.000000;stroke-dashoffset:0.0;stroke-linecap:butt;"/>
   </g>
   <g id="line2d_10">
    <path clip-path="url(#paafe9ad165)" d="
M142.19 111.6
L142.19 32" style="fill:none;stroke:#00ffff;stroke-dasharray:6.000000,6.000000;stroke-dashoffset:0.0;stroke-linecap:butt;"/>
   </g>
   <g id="line2d_11">
    <path clip-path="url(#paafe9ad165)" d="
M142.19 111.6
L142.19 32" style="fill:none;stroke:#00ffff;stroke-dasharray:6.000000,6.000000;stroke-dashoffset:0.0;stroke-linecap:butt;"/>
   </g>
   <g id="line2d_12">
    <path clip-path="url(#paafe9ad165)" d="
M163.54 111.6
L163.54 32" style="fill:none;stroke:#00ffff;stroke-dasharray:6.000000,6.000000;stroke-dashoffset:0.0;stroke-linecap:butt;"/>
   </g>
   <g id="line2d_13">
    <path clip-path="url(#paafe9ad165)" d="
M184.889 111.6
L184.889 32" style="fill:none;stroke:#00ffff;stroke-dasharray:6.000000,6.000000;stroke-dashoffset:0.0;stroke-linecap:butt;"/>
   </g>
   <g id="line2d_14">
    <path clip-path="url(#paafe9ad165)" d="
M184.889 111.6
L184.889 32" style="fill:none;stroke:#00ffff;stroke-dasharray:6.000000,6.000000;stroke-dashoffset:0.0;stroke-linecap:butt;"/>
   </g>
   <g id="line2d_15">
    <path clip-path="url(#paafe9ad165)" d="
M184.889 111.6
L184.889 32" style="fill:none;stroke:#00ffff;stroke-dasharray:6.000000,6.000000;stroke-dashoffset:0.0;stroke-linecap:butt;"/>
   </g>
   <g id="line2d_16">
    <path clip-path="url(#paafe9ad165)" d="
M184.889 111.6
L184.889 32" style="fill:none;stroke:#00ffff;stroke-dasharray:6.000000,6.000000;stroke-dashoffset:0.0;stroke-linecap:butt;"/>
   </g>
   <g id="line2d_17">
    <path clip-path="url(#paafe9ad165)" d="
M206.238 111.6
L206.238 32" style="fill:none;stroke:#00ffff;stroke-dasharray:6.000000,6.000000;stroke-dashoffset:0.0;stroke-linecap:butt;"/>
   </g>
   <g id="line2d_18">
    <path clip-path="url(#paafe9ad165)" d="
M206.239 111.6
L206.239 32" style="fill:none;stroke:#00ffff;stroke-dasharray:6.000000,6.000000;stroke-dashoffset:0.0;stroke-linecap:butt;"/>
   </g>
   <g id="line2d_19">
    <path clip-path="url(#paafe9ad165)" d="
M227.588 111.6
L227.588 32" style="fill:none;stroke:#00ffff;stroke-dasharray:6.000000,6.000000;stroke-dashoffset:0.0;stroke-linecap:butt;"/>
   </g>
   <g id="line2d_20">
    <path clip-path="url(#paafe9ad165)" d="
M227.588 111.6
L227.588 32" style="fill:none;stroke:#00ffff;stroke-dasharray:6.000000,6.000000;stroke-dashoffset:0.0;stroke-linecap:butt;"/>
   </g>
   <g id="line2d_21">
    <path clip-path="url(#paafe9ad165)" d="
M248.937 111.6
L248.937 32" style="fill:none;stroke:#00ffff;stroke-dasharray:6.000000,6.000000;stroke-dashoffset:0.0;stroke-linecap:butt;"/>
   </g>
   <g id="line2d_22">
    <path clip-path="url(#paafe9ad165)" d="
M270.287 111.6
L270.287 32" style="fill:none;stroke:#00ffff;stroke-dasharray:6.000000,6.000000;stroke-dashoffset:0.0;stroke-linecap:butt;"/>
   </g>
   <g id="line2d_23">
    <path clip-path="url(#paafe9ad165)" d="
M291.636 111.6
L291.636 32" style="fill:none;stroke:#00ffff;stroke-dasharray:6.000000,6.000000;stroke-dashoffset:0.0;stroke-linecap:butt;"/>
   </g>
   <g id="line2d_24">
    <path clip-path="url(#paafe9ad165)" d="
M291.636 111.6
L291.636 32" style="fill:none;stroke:#00ffff;stroke-dasharray:6.000000,6.000000;stroke-dashoffset:0.0;stroke-linecap:butt;"/>
   </g>
   <g id="line2d_25">
    <path clip-path="url(#paafe9ad165)" d="
M312.986 111.6
L312.986 32" style="fill:none;stroke:#00ffff;stroke-dasharray:6.000000,6.000000;stroke-dashoffset:0.0;stroke-linecap:butt;"/>
   </g>
   <g id="line2d_26">
    <path clip-path="url(#paafe9ad165)" d="
M334.335 111.6
L334.335 32" style="fill:none;stroke:#00ffff;stroke-dasharray:6.000000,6.000000;stroke-dashoffset:0.0;stroke-linecap:butt;"/>
   </g>
   <g id="line2d_27">
    <path clip-path="url(#paafe9ad165)" d="
M355.685 111.6
L355.685 32" style="fill:none;stroke:#00ffff;stroke-dasharray:6.000000,6.000000;stroke-dashoffset:0.0;stroke-linecap:butt;"/>
   </g>
   <g id="line2d_28">
    <path clip-path="url(#paafe9ad165)" d="
M377.034 111.6
L377.034 32" style="fill:none;stroke:#00ffff;stroke-dasharray:6.000000,6.000000;stroke-dashoffset:0.0;stroke-linecap:butt;"/>
   </g>
   <g id="line2d_29">
    <path clip-path="url(#paafe9ad165)" d="
M46.1172 52.088
L46.1172 39.5161
L46.7043 39.5161
L46.7043 40.259
L47.2914 40.259
L47.2914 43.8289
L47.8785 43.8289
L47.8785 42.6325
L48.4656 42.6325
L48.4656 37.7021
L49.0527 37.7021
L49.0527 38.3293
L49.6398 38.3293
L49.6398 38.9564
L50.227 38.9564
L50.227 36.197
L50.8141 36.197
L50.8141 35.5119
L51.4012 35.5119
L51.4012 35.3865
L51.9883 35.3865
L51.9883 36.7855
L52.5754 36.7855
L52.5754 35.3093
L53.1625 35.3093
L53.1625 41.0116
L53.7496 41.0116
L53.7496 32.1639
L54.3367 32.1639
L54.3367 34.8944
L54.9238 34.8944
L54.9238 35.5698
L55.5109 35.5698
L55.5109 36.361
L56.098 36.361
L56.098 69.2624
L56.6851 69.2624
L56.6851 52.6573
L57.2723 52.6573
L57.2723 49.5312
L57.8594 49.5312
L57.8594 50.5443
L58.4465 50.5443
L58.4465 37.5092
L59.0336 37.5092
L59.0336 41.2045
L59.6207 41.2045
L59.6207 48.6049
L60.2078 48.6049
L60.2078 44.2052
L60.7949 44.2052
L60.7949 47.8331
L61.382 47.8331
L61.382 44.4754
L61.9691 44.4754
L61.9691 38.7152
L62.5562 38.7152
L62.5562 37.9723
L63.1433 37.9723
L63.1433 41.1081
L63.7305 41.1081
L63.7305 39.6222
L64.3176 39.6222
L64.3176 41.4843
L64.9047 41.4843
L64.9047 43.1439
L65.4918 43.1439
L65.4918 44.0508
L66.0789 44.0508
L66.0789 43.1825
L66.666 43.1825
L66.666 41.0695
L67.2531 41.0695
L67.2531 44.1473
L67.8402 44.1473
L67.8402 50.1391
L68.4273 50.1391
L68.4273 43.771
L69.0144 43.771
L69.0144 50.3996
L69.6015 50.3996
L69.6015 54.8668
L70.1887 54.8668
L70.1887 51.5767
L70.7758 51.5767
L70.7758 47.2059
L71.3629 47.2059
L71.3629 44.3307
L71.95 44.3307
L71.95 43.0185
L72.5371 43.0185
L72.5371 43.3176
L73.1242 43.3176
L73.1242 45.0832
L73.7113 45.0832
L73.7113 46.8393
L74.2984 46.8393
L74.2984 50.5829
L74.8855 50.5829
L74.8855 45.3244
L75.4726 45.3244
L75.4726 46.6463
L76.0597 46.6463
L76.0597 28.922
L76.6469 28.922
L76.6469 42.1501
L77.234 42.1501
L77.234 61.9681
L77.8211 61.9681
L77.8211 48.1901
L78.4082 48.1901
L78.4082 46.82
L78.9953 46.82
L78.9953 58.5236
L79.5824 58.5236
L79.5824 58.8131
L80.1695 58.8131
L80.1695 53.8055
L80.7566 53.8055
L80.7566 53.5064
L81.3437 53.5064
L81.3437 52.9082
L81.9308 52.9082
L81.9308 58.7262
L82.5179 58.7262
L82.5179 58.8516
L83.1051 58.8516
L83.1051 59.2569
L83.6922 59.2569
L83.6922 50.1294
L84.2793 50.1294
L84.2793 47.7945
L84.8664 47.7945
L84.8664 46.5498
L85.4535 46.5498
L85.4535 49.4058
L86.0406 49.4058
L86.0406 52.7731
L86.6277 52.7731
L86.6277 47.2638
L87.2148 47.2638
L87.2148 52.5994
L87.8019 52.5994
L87.8019 56.7676
L88.389 56.7676
L88.389 61.119
L88.9761 61.119
L88.9761 62.7303
L89.5633 62.7303
L89.5633 57.8868
L90.1504 57.8868
L90.1504 47.9199
L90.7375 47.9199
L90.7375 50.7373
L91.3246 50.7373
L91.3246 52.8889
L91.9117 52.8889
L91.9117 51.2969
L92.4988 51.2969
L92.4988 51.5767
L93.0859 51.5767
L93.0859 56.9412
L93.673 56.9412
L93.673 61.0612
L94.2601 61.0612
L94.2601 63.9654
L94.8472 63.9654
L94.8472 66.0012
L95.4343 66.0012
L95.4343 43.2404
L96.0215 43.2404
L96.0215 48.8944
L96.6086 48.8944
L96.6086 53.5932
L97.1957 53.5932
L97.1957 56.1018
L97.7828 56.1018
L97.7828 47.3989
L98.3699 47.3989
L98.3699 53.2169
L98.957 53.2169
L98.957 61.6015
L99.5441 61.6015
L99.5441 55.2045
L100.131 55.2045
L100.131 67.8055
L100.718 67.8055
L100.718 69.793
L101.305 69.793
L101.305 55.8606
L101.893 55.8606
L101.893 58.5525
L102.48 58.5525
L102.48 54.9537
L103.067 54.9537
L103.067 53.6415
L103.654 53.6415
L103.654 56.8062
L104.241 56.8062
L104.241 60.598
L104.828 60.598
L104.828 60.4726
L105.415 60.4726
L105.415 56.8158
L106.002 56.8158
L106.002 57.2789
L106.589 57.2789
L106.589 60.0095
L107.177 60.0095
L107.177 58.2148
L107.764 58.2148
L107.764 65.3644
L108.351 65.3644
L108.351 67.9888
L108.938 67.9888
L108.938 70.0053
L109.525 70.0053
L109.525 56.3334
L110.112 56.3334
L110.112 52.7634
L110.699 52.7634
L110.699 55.2335
L111.286 55.2335
L111.286 56.6807
L111.873 56.6807
L111.873 60.1445
L112.461 60.1445
L112.461 49.3286
L113.048 49.3286
L113.048 62.9716
L113.635 62.9716
L113.635 75.5436
L114.222 75.5436
L114.222 35.0681
L114.809 35.0681
L114.809 53.9309
L115.396 53.9309
L115.396 60.4919
L115.983 60.4919
L115.983 58.8131
L116.57 58.8131
L116.57 59.6621
L117.157 59.6621
L117.157 57.2018
L117.744 57.2018
L117.744 57.3658
L118.332 57.3658
L118.332 56.0246
L118.919 56.0246
L118.919 58.8613
L119.506 58.8613
L119.506 59.3823
L120.093 59.3823
L120.093 73.1218
L120.68 73.1218
L120.68 62.2286
L121.267 62.2286
L121.267 48.6628
L121.854 48.6628
L121.854 59.4981
L122.441 59.4981
L122.441 66.1652
L123.028 66.1652
L123.028 65.5284
L123.616 65.5284
L123.616 67.7476
L124.203 67.7476
L124.203 66.9853
L124.79 66.9853
L124.79 69.793
L125.377 69.793
L125.377 72.0026
L125.964 72.0026
L125.964 75.8813
L126.551 75.8813
L126.551 68.9729
L127.138 68.9729
L127.138 56.7676
L127.725 56.7676
L127.725 59.8551
L128.312 59.8551
L128.312 63.3671
L128.9 63.3671
L128.9 66.7731
L129.487 66.7731
L129.487 68.2203
L130.074 68.2203
L130.074 54.7896
L130.661 54.7896
L130.661 57.6745
L131.248 57.6745
L131.248 57.8193
L131.835 57.8193
L131.835 61.862
L132.422 61.862
L132.422 65.6152
L133.009 65.6152
L133.009 69.1177
L133.596 69.1177
L133.596 71.5201
L134.184 71.5201
L134.184 74.4147
L134.771 74.4147
L134.771 74.8199
L135.358 74.8199
L135.358 77.4829
L135.945 77.4829
L135.945 79.1231
L136.532 79.1231
L136.532 78.467
L137.119 78.467
L137.119 80.0687
L137.706 80.0687
L137.706 80.7151
L138.293 80.7151
L138.293 82.7317
L138.88 82.7317
L138.88 82.5387
L139.468 82.5387
L139.468 83.4167
L140.055 83.4167
L140.055 83.6676
L140.642 83.6676
L140.642 84.9508
L141.229 84.9508
L141.229 89.1383
L141.816 89.1383
L141.816 77.946
L142.403 77.946
L142.403 86.4174
L142.99 86.4174
L142.99 84.7868
L143.577 84.7868
L143.577 83.5711
L144.164 83.5711
L144.164 83.7351
L144.751 83.7351
L144.751 82.7799
L145.339 82.7799
L145.339 67.8923
L145.926 67.8923
L145.926 62.9909
L146.513 62.9909
L146.513 64.9688
L147.1 64.9688
L147.1 67.6318
L147.687 67.6318
L147.687 70.2658
L148.274 70.2658
L148.274 71.9061
L148.861 71.9061
L148.861 72.4271
L149.448 72.4271
L149.448 73.9708
L150.035 73.9708
L150.035 75.1383
L150.623 75.1383
L150.623 69.1369
L151.21 69.1369
L151.21 51.8661
L151.797 51.8661
L151.797 66.6669
L152.384 66.6669
L152.384 62.4795
L152.971 62.4795
L152.971 65.6731
L153.558 65.6731
L153.558 68.6835
L154.145 68.6835
L154.145 71.9833
L154.732 71.9833
L154.732 74.7041
L155.319 74.7041
L155.319 75.0997
L155.907 75.0997
L155.907 76.0453
L156.494 76.0453
L156.494 77.0487
L157.081 77.0487
L157.081 78.496
L157.668 78.496
L157.668 80.7827
L158.255 80.7827
L158.255 81.7282
L158.842 81.7282
L158.842 83.1562
L159.429 83.1562
L159.429 82.5001
L160.016 82.5001
L160.016 81.6318
L160.603 81.6318
L160.603 82.8861
L161.191 82.8861
L161.191 85.2017
L162.365 85.2499
L162.365 86.1955
L162.952 86.1955
L162.952 88.4725
L163.539 88.4725
L163.539 84.314
L164.126 84.314
L164.126 89.7751
L164.713 89.7751
L164.713 85.1535
L165.3 85.1535
L165.3 88.6173
L165.887 88.6173
L165.887 84.4588
L166.475 84.4588
L166.475 83.986
L167.062 83.986
L167.062 87.7489
L167.649 87.7489
L167.649 87.6235
L168.236 87.6235
L168.236 75.6593
L168.823 75.6593
L168.823 72.0701
L169.41 72.0701
L169.41 74.2024
L169.997 74.2024
L169.997 74.9839
L170.584 74.9839
L170.584 75.4567
L171.171 75.4567
L171.171 77.4636
L171.759 77.4636
L171.759 77.6952
L172.346 77.6952
L172.346 81.2265
L172.933 81.2265
L172.933 80.0591
L173.52 80.0591
L173.52 81.8247
L174.107 81.8247
L174.107 82.558
L174.694 82.558
L174.694 83.4457
L175.281 83.4457
L175.281 86.2534
L176.455 86.2051
L176.455 85.3561
L177.042 85.3561
L177.042 86.0411
L177.63 86.0411
L177.63 87.2375
L178.217 87.2375
L178.217 87.9322
L178.804 87.9322
L178.804 88.4532
L179.391 88.4532
L179.391 88.7138
L179.978 88.7138
L179.978 83.7834
L180.565 83.7834
L180.565 70.3044
L181.152 70.3044
L181.152 89.9488
L181.739 89.9488
L181.739 64.9881
L182.326 64.9881
L182.326 76.0549
L182.914 76.0549
L182.914 77.5408
L183.501 77.5408
L183.501 78.3802
L184.088 78.3802
L184.088 79.8854
L184.675 79.8854
L184.675 73.4112
L185.262 73.4112
L185.262 71.4912
L185.849 71.4912
L185.849 76.9908
L186.436 76.9908
L186.436 85.1631
L187.023 85.1631
L187.023 84.0728
L187.61 84.0728
L187.61 88.6945
L188.198 88.6945
L188.198 87.8068
L188.785 87.8068
L188.785 89.1962
L189.372 89.1962
L189.372 88.8874
L190.546 88.9936
L190.546 89.7365
L191.133 89.7365
L191.133 90.9619
L191.72 90.9619
L191.72 84.5263
L192.307 84.5263
L192.307 84.6903
L192.894 84.6903
L192.894 83.9763
L194.069 84.0342
L194.069 86.3885
L194.656 86.3885
L194.656 84.3237
L195.243 84.3237
L195.243 86.0701
L195.83 86.0701
L195.83 87.5559
L196.417 87.5559
L196.417 88.3471
L197.004 88.3471
L197.004 90.1417
L197.591 90.1417
L197.591 88.9646
L198.178 88.9646
L198.178 90.1031
L198.766 90.1031
L198.766 89.0708
L199.353 89.0708
L199.353 89.8909
L199.94 89.8909
L199.94 84.1983
L200.527 84.1983
L200.527 86.0315
L201.114 86.0315
L201.114 91.4829
L201.701 91.4829
L201.701 111.6
L202.288 111.6
L202.288 85.385
L202.875 85.385
L202.875 85.7131
L203.462 85.7131
L203.462 87.4787
L204.05 87.4787
L204.05 88.6848
L204.637 88.6848
L204.637 89.2541
L205.224 89.2541
L205.224 89.7461
L205.811 89.7461
L205.811 83.5711
L206.398 83.5711
L206.398 84.4781
L206.985 84.4781
L206.985 86.8323
L207.572 86.8323
L207.572 89.0708
L208.159 89.0708
L208.159 89.4567
L208.746 89.4567
L208.746 91.589
L209.333 91.589
L209.333 88.762
L209.921 88.762
L209.921 84.864
L210.508 84.864
L210.508 110.143
L211.095 110.143
L211.095 88.569
L211.682 88.569
L211.682 83.1466
L212.269 83.1466
L212.269 87.4691
L212.856 87.4691
L212.856 88.6945
L213.443 88.6945
L213.443 88.4436
L214.03 88.4436
L214.03 86.6104
L214.617 86.6104
L214.617 87.8454
L215.205 87.8454
L215.205 89.2058
L215.792 89.2058
L215.792 90.9136
L216.379 90.9136
L216.379 88.212
L216.966 88.212
L216.966 87.0253
L217.553 87.0253
L217.553 77.3575
L218.14 77.3575
L218.14 79.4705
L218.727 79.4705
L218.727 100.745
L219.314 100.745
L219.314 111.6
L219.901 111.6
L219.901 86.8034
L220.489 86.8034
L220.489 73.2086
L221.076 73.2086
L221.076 77.2803
L221.663 77.2803
L221.663 81.3712
L222.25 81.3712
L222.25 80.1459
L222.837 80.1459
L222.837 81.1204
L223.424 81.1204
L223.424 83.1659
L224.011 83.1659
L224.011 85.2596
L224.598 85.2596
L224.598 82.7317
L225.185 82.7317
L225.185 83.3974
L225.773 83.3974
L225.773 86.1376
L226.36 86.1376
L226.36 87.4498
L226.947 87.4498
L226.947 88.1252
L227.534 88.1252
L227.534 84.8351
L228.121 84.8351
L228.121 85.2403
L228.708 85.2403
L228.708 85.6841
L229.295 85.6841
L229.295 86.8902
L229.882 86.8902
L229.882 81.68
L230.469 81.68
L230.469 83.2431
L231.057 83.2431
L231.057 82.4422
L231.644 82.4422
L231.644 83.986
L232.231 83.986
L232.231 85.2692
L232.818 85.2692
L232.818 84.8351
L233.405 84.8351
L233.405 86.0218
L233.992 86.0218
L233.992 79.8275
L234.579 79.8275
L234.579 75.5821
L235.166 75.5821
L235.166 75.0997
L235.753 75.0997
L235.753 74.8778
L236.341 74.8778
L236.341 77.5987
L236.928 77.5987
L236.928 78.1197
L237.515 78.1197
L237.515 78.9784
L238.102 78.9784
L238.102 76.9426
L238.689 76.9426
L238.689 79.6249
L239.276 79.6249
L239.276 82.944
L239.863 82.944
L239.863 100.832
L240.45 100.832
L240.45 84.4105
L241.037 84.4105
L241.037 86.977
L241.624 86.977
L241.624 93.2003
L242.212 93.2003
L242.212 91.2031
L242.799 91.2031
L242.799 93.3161
L243.386 93.3161
L243.386 92.6889
L243.973 92.6889
L243.973 85.9543
L244.56 85.9543
L244.56 78.7854
L245.147 78.7854
L245.147 77.7531
L245.734 77.7531
L245.734 77.5408
L246.908 77.5408
L246.908 76.1514
L247.496 76.1514
L247.496 108.638
L248.083 108.638
L248.083 75.3892
L248.67 75.3892
L248.67 82.7124
L249.257 82.7124
L249.257 77.8592
L249.844 77.8592
L249.844 81.487
L250.431 81.487
L250.431 85.2596
L251.018 85.2596
L251.018 79.3547
L251.605 79.3547
L251.605 81.7958
L252.192 81.7958
L252.192 81.2651
L252.78 81.2651
L252.78 85.2403
L253.367 85.2403
L253.367 84.7675
L253.954 84.7675
L253.954 84.9026
L254.541 84.9026
L254.541 85.385
L255.128 85.385
L255.128 85.7999
L255.715 85.7999
L255.715 89.6207
L256.302 89.6207
L256.302 86.4946
L256.889 86.4946
L256.889 86.9384
L257.476 86.9384
L257.476 85.8289
L258.064 85.8289
L258.064 85.0666
L258.651 85.0666
L258.651 85.578
L259.825 85.4719
L259.825 88.6076
L260.412 88.6076
L260.412 85.5105
L260.999 85.5105
L260.999 82.6159
L261.586 82.6159
L261.586 89.1576
L262.173 89.1576
L262.173 84.9508
L262.76 84.9508
L262.76 85.2306
L263.348 85.2306
L263.348 84.3044
L263.935 84.3044
L263.935 86.3788
L264.522 86.3788
L264.522 89.3409
L265.109 89.3409
L265.109 90.4408
L265.696 90.4408
L265.696 89.0032
L266.283 89.0032
L266.283 86.3692
L266.87 86.3692
L266.87 83.1273
L267.457 83.1273
L267.457 78.0232
L268.044 78.0232
L268.044 82.8185
L268.631 82.8185
L268.631 92.0328
L269.219 92.0328
L269.219 95.3326
L269.806 95.3326
L269.806 82.9247
L270.393 82.9247
L270.393 84.2272
L270.98 84.2272
L270.98 84.8158
L272.154 84.7482
L272.154 84.6807
L272.741 84.6807
L272.741 86.485
L273.915 86.4078
L273.915 87.8164
L274.503 87.8164
L274.503 86.7841
L275.09 86.7841
L275.09 86.1762
L275.677 86.1762
L275.677 86.292
L276.264 86.292
L276.264 85.578
L276.851 85.578
L276.851 88.598
L277.438 88.598
L277.438 88.3761
L278.025 88.3761
L278.025 82.037
L278.612 82.037
L278.612 80.966
L279.199 80.966
L279.199 82.8282
L279.787 82.8282
L279.787 81.9309
L280.374 81.9309
L280.374 87.1314
L280.961 87.1314
L280.961 83.3492
L281.548 83.3492
L281.548 84.8929
L282.135 84.8929
L282.135 87.7586
L282.722 87.7586
L282.722 85.1342
L283.309 85.1342
L283.309 93.1231
L283.896 93.1231
L283.896 86.1087
L284.483 86.1087
L284.483 85.414
L285.658 85.5201
L285.658 85.771
L286.832 85.6648
L286.832 89.3216
L288.006 89.2734
L288.006 90.4698
L288.593 90.4698
L288.593 89.1383
L289.18 89.1383
L289.18 73.1411
L289.767 73.1411
L289.767 75.5243
L290.355 75.5243
L290.355 79.2582
L290.942 79.2582
L290.942 81.6704
L291.529 81.6704
L291.529 111.6
L292.116 111.6
L292.116 79.0749
L292.703 79.0749
L292.703 72.5911
L293.29 72.5911
L293.29 71.6359
L293.877 71.6359
L293.877 72.6876
L294.464 72.6876
L294.464 78.3416
L295.051 78.3416
L295.051 77.946
L295.639 77.946
L295.639 80.7055
L296.226 80.7055
L296.226 81.9695
L296.813 81.9695
L296.813 80.7151
L297.4 80.7151
L297.4 84.1693
L297.987 84.1693
L297.987 83.6579
L298.574 83.6579
L298.574 84.5649
L299.161 84.5649
L299.161 90.9619
L299.748 90.9619
L299.748 97.9377
L300.335 97.9377
L300.335 88.6655
L300.922 88.6655
L300.922 88.4725
L301.51 88.4725
L301.51 87.4884
L302.097 87.4884
L302.097 90.161
L302.684 90.161
L302.684 90.9715
L303.271 90.9715
L303.271 89.1769
L303.858 89.1769
L303.858 88.926
L304.445 88.926
L304.445 89.4084
L305.032 89.4084
L305.032 90.6724
L305.619 90.6724
L305.619 90.2189
L306.206 90.2189
L306.206 89.5242
L306.794 89.5242
L306.794 92.6696
L307.381 92.6696
L307.381 90.6917
L307.968 90.6917
L307.968 91.2899
L308.555 91.2899
L308.555 87.7586
L309.142 87.7586
L309.142 94.8695
L309.729 94.8695
L309.729 89.476
L310.316 89.476
L310.316 91.7723
L310.903 91.7723
L310.903 89.3216
L311.49 89.3216
L311.49 89.669
L312.078 89.669
L312.078 94.1266
L312.665 94.1266
L312.665 91.5987
L313.252 91.5987
L313.252 95.1975
L313.839 95.1975
L313.839 92.5346
L314.426 92.5346
L314.426 92.2162
L315.013 92.2162
L315.013 90.6628
L315.6 90.6628
L315.6 73.4112
L316.187 73.4112
L316.187 71.8385
L316.774 71.8385
L316.774 70.2851
L317.362 70.2851
L317.362 72.9192
L317.949 72.9192
L317.949 107.905
L318.536 107.905
L318.536 77.9557
L319.123 77.9557
L319.123 70.5842
L319.71 70.5842
L319.71 70.8544
L320.297 70.8544
L320.297 71.414
L320.884 71.414
L320.884 76.3733
L321.471 76.3733
L321.471 79.374
L322.058 79.374
L322.058 80.4257
L322.646 80.4257
L322.646 81.0528
L323.233 81.0528
L323.233 84.7579
L323.82 84.7579
L323.82 81.8054
L324.407 81.8054
L324.407 86.813
L324.994 86.813
L324.994 84.1404
L325.581 84.1404
L325.581 85.0859
L326.168 85.0859
L326.168 89.7847
L326.755 89.7847
L326.755 85.8867
L327.342 85.8867
L327.342 88.9164
L327.93 88.9164
L327.93 86.1666
L328.517 86.1666
L328.517 89.3988
L329.104 89.3988
L329.104 90.7689
L329.691 90.7689
L329.691 90.4891
L330.278 90.4891
L330.278 88.0094
L330.865 88.0094
L330.865 90.0935
L331.452 90.0935
L331.452 90.2093
L332.039 90.2093
L332.039 109.169
L332.626 109.169
L332.626 95.2747
L333.213 95.2747
L333.213 91.232
L333.801 91.232
L333.801 98.9701
L334.388 98.9701
L334.388 91.5504
L334.975 91.5504
L334.975 92.9302
L335.562 92.9302
L335.562 93.5477
L336.149 93.5477
L336.149 88.1445
L336.736 88.1445
L336.736 91.7723
L337.323 91.7723
L337.323 89.3216
L337.91 89.3216
L337.91 90.9426
L338.497 90.9426
L338.497 89.3216
L339.672 89.4181
L339.672 91.6276
L340.259 91.6276
L340.259 94.802
L340.846 94.802
L340.846 90.7013
L341.433 90.7013
L341.433 90.8557
L342.02 90.8557
L342.02 90.1803
L342.607 90.1803
L342.607 108.136
L343.194 108.136
L343.194 93.7599
L343.781 93.7599
L343.781 91.6469
L344.369 91.6469
L344.369 90.2093
L344.956 90.2093
L344.956 91.1162
L345.543 91.1162
L345.543 87.6042
L346.13 87.6042
L346.13 91.753
L347.304 91.782
L347.304 92.1486
L347.891 92.1486
L347.891 82.6159
L348.478 82.6159
L348.478 81.8826
L349.065 81.8826
L349.065 77.6276
L349.653 77.6276
L349.653 83.5229
L350.24 83.5229
L350.24 82.8957
L350.827 82.8957
L350.827 84.9605
L351.414 84.9605
L351.414 111.349
L352.001 111.349
L352.001 110.452
L352.588 110.452
L352.588 90.5277
L353.175 90.5277
L353.175 82.751
L353.762 82.751
L353.762 81.3616
L354.349 81.3616
L354.349 84.9894
L354.937 84.9894
L354.937 83.4746
L356.111 83.5808
L356.111 87.0832
L356.698 87.0832
L356.698 86.1473
L357.285 86.1473
L357.285 86.4271
L357.872 86.4271
L357.872 88.8006
L358.459 88.8006
L358.459 88.4918
L359.046 88.4918
L359.046 87.0639
L359.633 87.0639
L359.633 92.9977
L360.22 92.9977
L360.22 99.9832
L360.808 99.9832
L360.808 97.7544
L361.395 97.7544
L361.395 81.0046
L361.982 81.0046
L361.982 85.6166
L362.569 85.6166
L362.569 84.4298
L363.156 84.4298
L363.156 89.8716
L363.743 89.8716
L363.743 87.334
L364.33 87.334
L364.33 86.0894
L364.917 86.0894
L364.917 89.1286
L365.504 89.1286
L365.504 87.3147
L366.092 87.3147
L366.092 93.2486
L366.679 93.2486
L366.679 91.8978
L367.266 91.8978
L367.266 92.1872
L367.853 92.1872
L367.853 98.6807
L368.44 98.6807
L368.44 94.252
L369.027 94.252
L369.027 91.6565
L369.614 91.6565
L369.614 91.8302
L370.201 91.8302
L370.201 87.7296
L370.788 87.7296
L370.788 83.6676
L371.376 83.6676
L371.376 92.9784
L371.963 92.9784
L371.963 84.8447
L372.55 84.8447
L372.55 94.5607
L373.137 94.5607
L373.137 88.1541
L373.724 88.1541
L373.724 88.7909
L374.311 88.7909
L374.311 86.6683
L374.898 86.6683
L374.898 92.6407
L375.485 92.6407
L375.485 89.5242
L376.072 89.5242
L376.072 90.0163
L376.66 90.0163
L376.66 91.9171
L377.834 91.8785
L377.834 89.2348
L378.421 89.2348
L378.421 91.2031
L379.008 91.2031
L379.008 105.676
L379.595 105.676
L379.595 92.6889
L380.182 92.6889
L380.182 91.4539
L380.769 91.4539
L380.769 91.8688
L381.356 91.8688
L381.356 93.7406
L381.944 93.7406
L381.944 88.762
L382.531 88.762
L382.531 87.4498
L383.118 87.4498
L383.118 93.6152
L384.292 93.6538
L384.292 88.3761
L384.879 88.3761
L384.879 87.7393
L385.466 87.7393
L385.466 89.283
L386.053 89.283
L386.053 88.8199
L386.64 88.8199
L386.64 87.3823
L387.228 87.3823
L387.228 89.6979
L387.815 89.6979
L387.815 92.2837
L388.402 92.2837
L388.402 95.5256
L388.989 95.5256
L388.989 96.9246
L389.576 96.9246
L389.576 92.2644
L390.163 92.2644
L390.163 93.538
L390.75 93.538
L390.75 88.1059
L391.337 88.1059
L391.337 93.1617
L391.924 93.1617
L391.924 94.2038
L392.511 94.2038
L392.511 111.6
L393.099 111.6
L393.099 102.144
L393.686 102.144
L393.686 92.9205
L394.273 92.9205
L394.273 88.4243
L394.86 88.4243
L394.86 90.7206
L395.447 90.7206
L395.447 89.6304
L396.034 89.6304
L396.034 91.7434
L396.621 91.7434
L396.621 91.039
L397.208 91.039
L397.208 93.9336
L397.795 93.9336
L397.795 93.9336" style="fill:none;stroke:#0000ff;"/>
   </g>
   <g id="matplotlib.axis_1">
    <g id="xtick_1">
     <g id="line2d_30">
      <defs>
       <path d="
M0 0
L0 -4" id="m0012dd4eef" style="stroke:#000000;stroke-linecap:butt;stroke-width:0.5;"/>
      </defs>
      <g>
       <use style="stroke:#000000;stroke-linecap:butt;stroke-width:0.5;" x="46.1171875" xlink:href="#m0012dd4eef" y="111.6"/>
      </g>
     </g>
     <g id="line2d_31">
      <defs>
       <path d="
M0 0
L0 4" id="m476344969c" style="stroke:#000000;stroke-linecap:butt;stroke-width:0.5;"/>
      </defs>
      <g>
       <use style="stroke:#000000;stroke-linecap:butt;stroke-width:0.5;" x="46.1171875" xlink:href="#m476344969c" y="32.0"/>
      </g>
     </g>
     <g id="text_1">
      <!-- 0 -->
      <defs>
       <path d="
M31.7812 66.4062
Q24.1719 66.4062 20.3281 58.9062
Q16.5 51.4219 16.5 36.375
Q16.5 21.3906 20.3281 13.8906
Q24.1719 6.39062 31.7812 6.39062
Q39.4531 6.39062 43.2812 13.8906
Q47.125 21.3906 47.125 36.375
Q47.125 51.4219 43.2812 58.9062
Q39.4531 66.4062 31.7812 66.4062
M31.7812 74.2188
Q44.0469 74.2188 50.5156 64.5156
Q56.9844 54.8281 56.9844 36.375
Q56.9844 17.9688 50.5156 8.26562
Q44.0469 -1.42188 31.7812 -1.42188
Q19.5312 -1.42188 13.0625 8.26562
Q6.59375 17.9688 6.59375 36.375
Q6.59375 54.8281 13.0625 64.5156
Q19.5312 74.2188 31.7812 74.2188" id="DejaVuSans-30"/>
      </defs>
      <g transform="translate(43.59765625 123.021875)scale(0.1 -0.1)">
       <use xlink:href="#DejaVuSans-30"/>
      </g>
     </g>
    </g>
    <g id="xtick_2">
     <g id="line2d_32">
      <g>
       <use style="stroke:#000000;stroke-linecap:butt;stroke-width:0.5;" x="135.073242188" xlink:href="#m0012dd4eef" y="111.6"/>
      </g>
     </g>
     <g id="line2d_33">
      <g>
       <use style="stroke:#000000;stroke-linecap:butt;stroke-width:0.5;" x="135.073242188" xlink:href="#m476344969c" y="32.0"/>
      </g>
     </g>
     <g id="text_2">
      <!-- 500 -->
      <defs>
       <path d="
M10.7969 72.9062
L49.5156 72.9062
L49.5156 64.5938
L19.8281 64.5938
L19.8281 46.7344
Q21.9688 47.4688 24.1094 47.8281
Q26.2656 48.1875 28.4219 48.1875
Q40.625 48.1875 47.75 41.5
Q54.8906 34.8125 54.8906 23.3906
Q54.8906 11.625 47.5625 5.09375
Q40.2344 -1.42188 26.9062 -1.42188
Q22.3125 -1.42188 17.5469 -0.640625
Q12.7969 0.140625 7.71875 1.70312
L7.71875 11.625
Q12.1094 9.23438 16.7969 8.0625
Q21.4844 6.89062 26.7031 6.89062
Q35.1562 6.89062 40.0781 11.3281
Q45.0156 15.7656 45.0156 23.3906
Q45.0156 31 40.0781 35.4375
Q35.1562 39.8906 26.7031 39.8906
Q22.75 39.8906 18.8125 39.0156
Q14.8906 38.1406 10.7969 36.2812
z
" id="DejaVuSans-35"/>
      </defs>
      <g transform="translate(126.247460938 123.021875)scale(0.1 -0.1)">
       <use xlink:href="#DejaVuSans-35"/>
       <use x="63.623046875" xlink:href="#DejaVuSans-30"/>
       <use x="127.24609375" xlink:href="#DejaVuSans-30"/>
      </g>
     </g>
    </g>
    <g id="xtick_3">
     <g id="line2d_34">
      <g>
       <use style="stroke:#000000;stroke-linecap:butt;stroke-width:0.5;" x="224.029296875" xlink:href="#m0012dd4eef" y="111.6"/>
      </g>
     </g>
     <g id="line2d_35">
      <g>
       <use style="stroke:#000000;stroke-linecap:butt;stroke-width:0.5;" x="224.029296875" xlink:href="#m476344969c" y="32.0"/>
      </g>
     </g>
     <g id="text_3">
      <!-- 1000 -->
      <defs>
       <path d="
M12.4062 8.29688
L28.5156 8.29688
L28.5156 63.9219
L10.9844 60.4062
L10.9844 69.3906
L28.4219 72.9062
L38.2812 72.9062
L38.2812 8.29688
L54.3906 8.29688
L54.3906 0
L12.4062 0
z
" id="DejaVuSans-31"/>
      </defs>
      <g transform="translate(212.185546875 123.021875)scale(0.1 -0.1)">
       <use xlink:href="#DejaVuSans-31"/>
       <use x="63.623046875" xlink:href="#DejaVuSans-30"/>
       <use x="127.24609375" xlink:href="#DejaVuSans-30"/>
       <use x="190.869140625" xlink:href="#DejaVuSans-30"/>
      </g>
     </g>
    </g>
    <g id="xtick_4">
     <g id="line2d_36">
      <g>
       <use style="stroke:#000000;stroke-linecap:butt;stroke-width:0.5;" x="312.985351563" xlink:href="#m0012dd4eef" y="111.6"/>
      </g>
     </g>
     <g id="line2d_37">
      <g>
       <use style="stroke:#000000;stroke-linecap:butt;stroke-width:0.5;" x="312.985351563" xlink:href="#m476344969c" y="32.0"/>
      </g>
     </g>
     <g id="text_4">
      <!-- 1500 -->
      <g transform="translate(301.141601563 123.021875)scale(0.1 -0.1)">
       <use xlink:href="#DejaVuSans-31"/>
       <use x="63.623046875" xlink:href="#DejaVuSans-35"/>
       <use x="127.24609375" xlink:href="#DejaVuSans-30"/>
       <use x="190.869140625" xlink:href="#DejaVuSans-30"/>
      </g>
     </g>
    </g>
    <g id="xtick_5">
     <g id="line2d_38">
      <g>
       <use style="stroke:#000000;stroke-linecap:butt;stroke-width:0.5;" x="401.94140625" xlink:href="#m0012dd4eef" y="111.6"/>
      </g>
     </g>
     <g id="line2d_39">
      <g>
       <use style="stroke:#000000;stroke-linecap:butt;stroke-width:0.5;" x="401.94140625" xlink:href="#m476344969c" y="32.0"/>
      </g>
     </g>
     <g id="text_5">
      <!-- 2000 -->
      <defs>
       <path d="
M19.1875 8.29688
L53.6094 8.29688
L53.6094 0
L7.32812 0
L7.32812 8.29688
Q12.9375 14.1094 22.625 23.8906
Q32.3281 33.6875 34.8125 36.5312
Q39.5469 41.8438 41.4219 45.5312
Q43.3125 49.2188 43.3125 52.7812
Q43.3125 58.5938 39.2344 62.25
Q35.1562 65.9219 28.6094 65.9219
Q23.9688 65.9219 18.8125 64.3125
Q13.6719 62.7031 7.8125 59.4219
L7.8125 69.3906
Q13.7656 71.7812 18.9375 73
Q24.125 74.2188 28.4219 74.2188
Q39.75 74.2188 46.4844 68.5469
Q53.2188 62.8906 53.2188 53.4219
Q53.2188 48.9219 51.5312 44.8906
Q49.8594 40.875 45.4062 35.4062
Q44.1875 33.9844 37.6406 27.2188
Q31.1094 20.4531 19.1875 8.29688" id="DejaVuSans-32"/>
      </defs>
      <g transform="translate(389.91484375 123.021875)scale(0.1 -0.1)">
       <use xlink:href="#DejaVuSans-32"/>
       <use x="63.623046875" xlink:href="#DejaVuSans-30"/>
       <use x="127.24609375" xlink:href="#DejaVuSans-30"/>
       <use x="190.869140625" xlink:href="#DejaVuSans-30"/>
      </g>
     </g>
    </g>
    <g id="text_6">
     <!-- Time -->
     <defs>
      <path d="
M52 44.1875
Q55.375 50.25 60.0625 53.125
Q64.75 56 71.0938 56
Q79.6406 56 84.2812 50.0156
Q88.9219 44.0469 88.9219 33.0156
L88.9219 0
L79.8906 0
L79.8906 32.7188
Q79.8906 40.5781 77.0938 44.375
Q74.3125 48.1875 68.6094 48.1875
Q61.625 48.1875 57.5625 43.5469
Q53.5156 38.9219 53.5156 30.9062
L53.5156 0
L44.4844 0
L44.4844 32.7188
Q44.4844 40.625 41.7031 44.4062
Q38.9219 48.1875 33.1094 48.1875
Q26.2188 48.1875 22.1562 43.5312
Q18.1094 38.875 18.1094 30.9062
L18.1094 0
L9.07812 0
L9.07812 54.6875
L18.1094 54.6875
L18.1094 46.1875
Q21.1875 51.2188 25.4844 53.6094
Q29.7812 56 35.6875 56
Q41.6562 56 45.8281 52.9688
Q50 49.9531 52 44.1875" id="DejaVuSans-6d"/>
      <path d="
M9.42188 54.6875
L18.4062 54.6875
L18.4062 0
L9.42188 0
z

M9.42188 75.9844
L18.4062 75.9844
L18.4062 64.5938
L9.42188 64.5938
z
" id="DejaVuSans-69"/>
      <path d="
M56.2031 29.5938
L56.2031 25.2031
L14.8906 25.2031
Q15.4844 15.9219 20.4844 11.0625
Q25.4844 6.20312 34.4219 6.20312
Q39.5938 6.20312 44.4531 7.46875
Q49.3125 8.73438 54.1094 11.2812
L54.1094 2.78125
Q49.2656 0.734375 44.1875 -0.34375
Q39.1094 -1.42188 33.8906 -1.42188
Q20.7969 -1.42188 13.1562 6.1875
Q5.51562 13.8125 5.51562 26.8125
Q5.51562 40.2344 12.7656 48.1094
Q20.0156 56 32.3281 56
Q43.3594 56 49.7812 48.8906
Q56.2031 41.7969 56.2031 29.5938
M47.2188 32.2344
Q47.125 39.5938 43.0938 43.9844
Q39.0625 48.3906 32.4219 48.3906
Q24.9062 48.3906 20.3906 44.1406
Q15.875 39.8906 15.1875 32.1719
z
" id="DejaVuSans-65"/>
      <path d="
M-0.296875 72.9062
L61.375 72.9062
L61.375 64.5938
L35.5 64.5938
L35.5 0
L25.5938 0
L25.5938 64.5938
L-0.296875 64.5938
z
" id="DejaVuSans-54"/>
     </defs>
     <g transform="translate(212.047265625 135.7625)scale(0.1 -0.1)">
      <use xlink:href="#DejaVuSans-54"/>
      <use x="57.958984375" xlink:href="#DejaVuSans-69"/>
      <use x="85.7421875" xlink:href="#DejaVuSans-6d"/>
      <use x="183.154296875" xlink:href="#DejaVuSans-65"/>
     </g>
    </g>
   </g>
   <g id="matplotlib.axis_2">
    <g id="ytick_1">
     <g id="line2d_40">
      <defs>
       <path d="
M0 0
L4 0" id="me8a85f7bf6" style="stroke:#000000;stroke-linecap:butt;stroke-width:0.5;"/>
      </defs>
      <g>
       <use style="stroke:#000000;stroke-linecap:butt;stroke-width:0.5;" x="46.1171875" xlink:href="#me8a85f7bf6" y="111.6"/>
      </g>
     </g>
     <g id="line2d_41">
      <defs>
       <path d="
M0 0
L-4 0" id="m1a32005dea" style="stroke:#000000;stroke-linecap:butt;stroke-width:0.5;"/>
      </defs>
      <g>
       <use style="stroke:#000000;stroke-linecap:butt;stroke-width:0.5;" x="401.94140625" xlink:href="#m1a32005dea" y="111.6"/>
      </g>
     </g>
     <g id="text_7">
      <!-- 0 -->
      <g transform="translate(37.078125 115.23984375)scale(0.1 -0.1)">
       <use xlink:href="#DejaVuSans-30"/>
      </g>
     </g>
    </g>
    <g id="ytick_2">
     <g id="line2d_42">
      <g>
       <use style="stroke:#000000;stroke-linecap:butt;stroke-width:0.5;" x="46.1171875" xlink:href="#me8a85f7bf6" y="95.68"/>
      </g>
     </g>
     <g id="line2d_43">
      <g>
       <use style="stroke:#000000;stroke-linecap:butt;stroke-width:0.5;" x="401.94140625" xlink:href="#m1a32005dea" y="95.68"/>
      </g>
     </g>
     <g id="text_8">
      <!-- 500 -->
      <g transform="translate(24.465625 99.31984375)scale(0.1 -0.1)">
       <use xlink:href="#DejaVuSans-35"/>
       <use x="63.623046875" xlink:href="#DejaVuSans-30"/>
       <use x="127.24609375" xlink:href="#DejaVuSans-30"/>
      </g>
     </g>
    </g>
    <g id="ytick_3">
     <g id="line2d_44">
      <g>
       <use style="stroke:#000000;stroke-linecap:butt;stroke-width:0.5;" x="46.1171875" xlink:href="#me8a85f7bf6" y="79.76"/>
      </g>
     </g>
     <g id="line2d_45">
      <g>
       <use style="stroke:#000000;stroke-linecap:butt;stroke-width:0.5;" x="401.94140625" xlink:href="#m1a32005dea" y="79.76"/>
      </g>
     </g>
     <g id="text_9">
      <!-- 1000 -->
      <g transform="translate(18.4296875 83.39984375)scale(0.1 -0.1)">
       <use xlink:href="#DejaVuSans-31"/>
       <use x="63.623046875" xlink:href="#DejaVuSans-30"/>
       <use x="127.24609375" xlink:href="#DejaVuSans-30"/>
       <use x="190.869140625" xlink:href="#DejaVuSans-30"/>
      </g>
     </g>
    </g>
    <g id="ytick_4">
     <g id="line2d_46">
      <g>
       <use style="stroke:#000000;stroke-linecap:butt;stroke-width:0.5;" x="46.1171875" xlink:href="#me8a85f7bf6" y="63.84"/>
      </g>
     </g>
     <g id="line2d_47">
      <g>
       <use style="stroke:#000000;stroke-linecap:butt;stroke-width:0.5;" x="401.94140625" xlink:href="#m1a32005dea" y="63.84"/>
      </g>
     </g>
     <g id="text_10">
      <!-- 1500 -->
      <g transform="translate(18.4296875 67.47984375)scale(0.1 -0.1)">
       <use xlink:href="#DejaVuSans-31"/>
       <use x="63.623046875" xlink:href="#DejaVuSans-35"/>
       <use x="127.24609375" xlink:href="#DejaVuSans-30"/>
       <use x="190.869140625" xlink:href="#DejaVuSans-30"/>
      </g>
     </g>
    </g>
    <g id="ytick_5">
     <g id="line2d_48">
      <g>
       <use style="stroke:#000000;stroke-linecap:butt;stroke-width:0.5;" x="46.1171875" xlink:href="#me8a85f7bf6" y="47.92"/>
      </g>
     </g>
     <g id="line2d_49">
      <g>
       <use style="stroke:#000000;stroke-linecap:butt;stroke-width:0.5;" x="401.94140625" xlink:href="#m1a32005dea" y="47.92"/>
      </g>
     </g>
     <g id="text_11">
      <!-- 2000 -->
      <g transform="translate(18.0640625 51.55984375)scale(0.1 -0.1)">
       <use xlink:href="#DejaVuSans-32"/>
       <use x="63.623046875" xlink:href="#DejaVuSans-30"/>
       <use x="127.24609375" xlink:href="#DejaVuSans-30"/>
       <use x="190.869140625" xlink:href="#DejaVuSans-30"/>
      </g>
     </g>
    </g>
    <g id="ytick_6">
     <g id="line2d_50">
      <g>
       <use style="stroke:#000000;stroke-linecap:butt;stroke-width:0.5;" x="46.1171875" xlink:href="#me8a85f7bf6" y="32.0"/>
      </g>
     </g>
     <g id="line2d_51">
      <g>
       <use style="stroke:#000000;stroke-linecap:butt;stroke-width:0.5;" x="401.94140625" xlink:href="#m1a32005dea" y="32.0"/>
      </g>
     </g>
     <g id="text_12">
      <!-- 2500 -->
      <g transform="translate(18.0640625 35.63984375)scale(0.1 -0.1)">
       <use xlink:href="#DejaVuSans-32"/>
       <use x="63.623046875" xlink:href="#DejaVuSans-35"/>
       <use x="127.24609375" xlink:href="#DejaVuSans-30"/>
       <use x="190.869140625" xlink:href="#DejaVuSans-30"/>
      </g>
     </g>
    </g>
   </g>
   <g id="patch_3">
    <path d="
M46.1172 32
L401.941 32" style="fill:none;stroke:#000000;"/>
   </g>
   <g id="patch_4">
    <path d="
M401.941 111.6
L401.941 32" style="fill:none;stroke:#000000;"/>
   </g>
   <g id="patch_5">
    <path d="
M46.1172 111.6
L401.941 111.6" style="fill:none;stroke:#000000;"/>
   </g>
   <g id="patch_6">
    <path d="
M46.1172 111.6
L46.1172 32" style="fill:none;stroke:#000000;"/>
   </g>
   <g id="text_13">
    <!-- OLTP -->
    <defs>
     <path d="
M39.4062 66.2188
Q28.6562 66.2188 22.3281 58.2031
Q16.0156 50.2031 16.0156 36.375
Q16.0156 22.6094 22.3281 14.5938
Q28.6562 6.59375 39.4062 6.59375
Q50.1406 6.59375 56.4219 14.5938
Q62.7031 22.6094 62.7031 36.375
Q62.7031 50.2031 56.4219 58.2031
Q50.1406 66.2188 39.4062 66.2188
M39.4062 74.2188
Q54.7344 74.2188 63.9062 63.9375
Q73.0938 53.6562 73.0938 36.375
Q73.0938 19.1406 63.9062 8.85938
Q54.7344 -1.42188 39.4062 -1.42188
Q24.0312 -1.42188 14.8125 8.82812
Q5.60938 19.0938 5.60938 36.375
Q5.60938 53.6562 14.8125 63.9375
Q24.0312 74.2188 39.4062 74.2188" id="DejaVuSans-4f"/>
     <path d="
M19.6719 64.7969
L19.6719 37.4062
L32.0781 37.4062
Q38.9688 37.4062 42.7188 40.9688
Q46.4844 44.5312 46.4844 51.125
Q46.4844 57.6719 42.7188 61.2344
Q38.9688 64.7969 32.0781 64.7969
z

M9.8125 72.9062
L32.0781 72.9062
Q44.3438 72.9062 50.6094 67.3594
Q56.8906 61.8125 56.8906 51.125
Q56.8906 40.3281 50.6094 34.8125
Q44.3438 29.2969 32.0781 29.2969
L19.6719 29.2969
L19.6719 0
L9.8125 0
z
" id="DejaVuSans-50"/>
     <path d="
M9.8125 72.9062
L19.6719 72.9062
L19.6719 8.29688
L55.1719 8.29688
L55.1719 0
L9.8125 0
z
" id="DejaVuSans-4c"/>
    </defs>
    <g transform="translate(210.046484375 27.0)scale(0.12 -0.12)">
     <use xlink:href="#DejaVuSans-4f"/>
     <use x="78.7109375" xlink:href="#DejaVuSans-4c"/>
     <use x="120.673828125" xlink:href="#DejaVuSans-54"/>
     <use x="181.7578125" xlink:href="#DejaVuSans-50"/>
    </g>
   </g>
  </g>
  <g id="axes_2">
   <g id="patch_7">
    <path d="
M46.1172 246.6
L401.941 246.6
L401.941 167
L46.1172 167
z
" style="fill:#ffffff;"/>
   </g>
   <g id="line2d_52">
    <path clip-path="url(#pe9bd9c4693)" d="
M56.7923 246.6
L56.7923 167" style="fill:none;stroke:#00ffff;stroke-dasharray:6.000000,6.000000;stroke-dashoffset:0.0;stroke-linecap:butt;"/>
   </g>
   <g id="line2d_53">
    <path clip-path="url(#pe9bd9c4693)" d="
M78.1416 246.6
L78.1416 167" style="fill:none;stroke:#00ffff;stroke-dasharray:6.000000,6.000000;stroke-dashoffset:0.0;stroke-linecap:butt;"/>
   </g>
   <g id="line2d_54">
    <path clip-path="url(#pe9bd9c4693)" d="
M78.1416 246.6
L78.1416 167" style="fill:none;stroke:#00ffff;stroke-dasharray:6.000000,6.000000;stroke-dashoffset:0.0;stroke-linecap:butt;"/>
   </g>
   <g id="line2d_55">
    <path clip-path="url(#pe9bd9c4693)" d="
M78.142 246.6
L78.142 167" style="fill:none;stroke:#00ffff;stroke-dasharray:6.000000,6.000000;stroke-dashoffset:0.0;stroke-linecap:butt;"/>
   </g>
   <g id="line2d_56">
    <path clip-path="url(#pe9bd9c4693)" d="
M99.4913 246.6
L99.4913 167" style="fill:none;stroke:#00ffff;stroke-dasharray:6.000000,6.000000;stroke-dashoffset:0.0;stroke-linecap:butt;"/>
   </g>
   <g id="line2d_57">
    <path clip-path="url(#pe9bd9c4693)" d="
M99.4915 246.6
L99.4915 167" style="fill:none;stroke:#00ffff;stroke-dasharray:6.000000,6.000000;stroke-dashoffset:0.0;stroke-linecap:butt;"/>
   </g>
   <g id="line2d_58">
    <path clip-path="url(#pe9bd9c4693)" d="
M120.841 246.6
L120.841 167" style="fill:none;stroke:#00ffff;stroke-dasharray:6.000000,6.000000;stroke-dashoffset:0.0;stroke-linecap:butt;"/>
   </g>
   <g id="line2d_59">
    <path clip-path="url(#pe9bd9c4693)" d="
M120.841 246.6
L120.841 167" style="fill:none;stroke:#00ffff;stroke-dasharray:6.000000,6.000000;stroke-dashoffset:0.0;stroke-linecap:butt;"/>
   </g>
   <g id="line2d_60">
    <path clip-path="url(#pe9bd9c4693)" d="
M120.841 246.6
L120.841 167" style="fill:none;stroke:#00ffff;stroke-dasharray:6.000000,6.000000;stroke-dashoffset:0.0;stroke-linecap:butt;"/>
   </g>
   <g id="line2d_61">
    <path clip-path="url(#pe9bd9c4693)" d="
M142.19 246.6
L142.19 167" style="fill:none;stroke:#00ffff;stroke-dasharray:6.000000,6.000000;stroke-dashoffset:0.0;stroke-linecap:butt;"/>
   </g>
   <g id="line2d_62">
    <path clip-path="url(#pe9bd9c4693)" d="
M142.19 246.6
L142.19 167" style="fill:none;stroke:#00ffff;stroke-dasharray:6.000000,6.000000;stroke-dashoffset:0.0;stroke-linecap:butt;"/>
   </g>
   <g id="line2d_63">
    <path clip-path="url(#pe9bd9c4693)" d="
M163.54 246.6
L163.54 167" style="fill:none;stroke:#00ffff;stroke-dasharray:6.000000,6.000000;stroke-dashoffset:0.0;stroke-linecap:butt;"/>
   </g>
   <g id="line2d_64">
    <path clip-path="url(#pe9bd9c4693)" d="
M184.889 246.6
L184.889 167" style="fill:none;stroke:#00ffff;stroke-dasharray:6.000000,6.000000;stroke-dashoffset:0.0;stroke-linecap:butt;"/>
   </g>
   <g id="line2d_65">
    <path clip-path="url(#pe9bd9c4693)" d="
M184.889 246.6
L184.889 167" style="fill:none;stroke:#00ffff;stroke-dasharray:6.000000,6.000000;stroke-dashoffset:0.0;stroke-linecap:butt;"/>
   </g>
   <g id="line2d_66">
    <path clip-path="url(#pe9bd9c4693)" d="
M184.889 246.6
L184.889 167" style="fill:none;stroke:#00ffff;stroke-dasharray:6.000000,6.000000;stroke-dashoffset:0.0;stroke-linecap:butt;"/>
   </g>
   <g id="line2d_67">
    <path clip-path="url(#pe9bd9c4693)" d="
M184.889 246.6
L184.889 167" style="fill:none;stroke:#00ffff;stroke-dasharray:6.000000,6.000000;stroke-dashoffset:0.0;stroke-linecap:butt;"/>
   </g>
   <g id="line2d_68">
    <path clip-path="url(#pe9bd9c4693)" d="
M206.238 246.6
L206.238 167" style="fill:none;stroke:#00ffff;stroke-dasharray:6.000000,6.000000;stroke-dashoffset:0.0;stroke-linecap:butt;"/>
   </g>
   <g id="line2d_69">
    <path clip-path="url(#pe9bd9c4693)" d="
M206.239 246.6
L206.239 167" style="fill:none;stroke:#00ffff;stroke-dasharray:6.000000,6.000000;stroke-dashoffset:0.0;stroke-linecap:butt;"/>
   </g>
   <g id="line2d_70">
    <path clip-path="url(#pe9bd9c4693)" d="
M227.588 246.6
L227.588 167" style="fill:none;stroke:#00ffff;stroke-dasharray:6.000000,6.000000;stroke-dashoffset:0.0;stroke-linecap:butt;"/>
   </g>
   <g id="line2d_71">
    <path clip-path="url(#pe9bd9c4693)" d="
M227.588 246.6
L227.588 167" style="fill:none;stroke:#00ffff;stroke-dasharray:6.000000,6.000000;stroke-dashoffset:0.0;stroke-linecap:butt;"/>
   </g>
   <g id="line2d_72">
    <path clip-path="url(#pe9bd9c4693)" d="
M248.937 246.6
L248.937 167" style="fill:none;stroke:#00ffff;stroke-dasharray:6.000000,6.000000;stroke-dashoffset:0.0;stroke-linecap:butt;"/>
   </g>
   <g id="line2d_73">
    <path clip-path="url(#pe9bd9c4693)" d="
M270.287 246.6
L270.287 167" style="fill:none;stroke:#00ffff;stroke-dasharray:6.000000,6.000000;stroke-dashoffset:0.0;stroke-linecap:butt;"/>
   </g>
   <g id="line2d_74">
    <path clip-path="url(#pe9bd9c4693)" d="
M291.636 246.6
L291.636 167" style="fill:none;stroke:#00ffff;stroke-dasharray:6.000000,6.000000;stroke-dashoffset:0.0;stroke-linecap:butt;"/>
   </g>
   <g id="line2d_75">
    <path clip-path="url(#pe9bd9c4693)" d="
M291.636 246.6
L291.636 167" style="fill:none;stroke:#00ffff;stroke-dasharray:6.000000,6.000000;stroke-dashoffset:0.0;stroke-linecap:butt;"/>
   </g>
   <g id="line2d_76">
    <path clip-path="url(#pe9bd9c4693)" d="
M312.986 246.6
L312.986 167" style="fill:none;stroke:#00ffff;stroke-dasharray:6.000000,6.000000;stroke-dashoffset:0.0;stroke-linecap:butt;"/>
   </g>
   <g id="line2d_77">
    <path clip-path="url(#pe9bd9c4693)" d="
M334.335 246.6
L334.335 167" style="fill:none;stroke:#00ffff;stroke-dasharray:6.000000,6.000000;stroke-dashoffset:0.0;stroke-linecap:butt;"/>
   </g>
   <g id="line2d_78">
    <path clip-path="url(#pe9bd9c4693)" d="
M355.685 246.6
L355.685 167" style="fill:none;stroke:#00ffff;stroke-dasharray:6.000000,6.000000;stroke-dashoffset:0.0;stroke-linecap:butt;"/>
   </g>
   <g id="line2d_79">
    <path clip-path="url(#pe9bd9c4693)" d="
M377.034 246.6
L377.034 167" style="fill:none;stroke:#00ffff;stroke-dasharray:6.000000,6.000000;stroke-dashoffset:0.0;stroke-linecap:butt;"/>
   </g>
   <g id="line2d_80">
    <path clip-path="url(#pe9bd9c4693)" d="
M56.7923 238.996
L56.7923 235.286
L76.8855 235.286
L76.8855 235.286
L96.9787 235.286
L96.9787 233.431
L117.072 233.431
L117.072 236.028
L137.165 236.028
L137.165 235.657
L157.258 235.657
L157.258 233.802
L177.352 233.802
L177.352 233.988
L197.445 233.988
L197.445 228.98
L217.538 228.98
L217.538 231.391
L237.631 231.391
L237.631 233.617
L257.725 233.617
L257.725 229.351
L277.818 229.351
L277.818 232.133
L297.911 232.133
L297.911 234.73
L318.004 234.73
L318.004 231.762
L338.097 231.762
L338.097 235.842
L358.191 235.842
L358.191 232.504
L378.284 232.504" style="fill:none;stroke:#008000;"/>
   </g>
   <g id="matplotlib.axis_3">
    <g id="xtick_6">
     <g id="line2d_81">
      <g>
       <use style="stroke:#000000;stroke-linecap:butt;stroke-width:0.5;" x="46.1171875" xlink:href="#m0012dd4eef" y="246.6"/>
      </g>
     </g>
     <g id="line2d_82">
      <g>
       <use style="stroke:#000000;stroke-linecap:butt;stroke-width:0.5;" x="46.1171875" xlink:href="#m476344969c" y="167.0"/>
      </g>
     </g>
     <g id="text_14">
      <!-- 0 -->
      <g transform="translate(43.59765625 258.021875)scale(0.1 -0.1)">
       <use xlink:href="#DejaVuSans-30"/>
      </g>
     </g>
    </g>
    <g id="xtick_7">
     <g id="line2d_83">
      <g>
       <use style="stroke:#000000;stroke-linecap:butt;stroke-width:0.5;" x="135.073242188" xlink:href="#m0012dd4eef" y="246.6"/>
      </g>
     </g>
     <g id="line2d_84">
      <g>
       <use style="stroke:#000000;stroke-linecap:butt;stroke-width:0.5;" x="135.073242188" xlink:href="#m476344969c" y="167.0"/>
      </g>
     </g>
     <g id="text_15">
      <!-- 500 -->
      <g transform="translate(126.247460938 258.021875)scale(0.1 -0.1)">
       <use xlink:href="#DejaVuSans-35"/>
       <use x="63.623046875" xlink:href="#DejaVuSans-30"/>
       <use x="127.24609375" xlink:href="#DejaVuSans-30"/>
      </g>
     </g>
    </g>
    <g id="xtick_8">
     <g id="line2d_85">
      <g>
       <use style="stroke:#000000;stroke-linecap:butt;stroke-width:0.5;" x="224.029296875" xlink:href="#m0012dd4eef" y="246.6"/>
      </g>
     </g>
     <g id="line2d_86">
      <g>
       <use style="stroke:#000000;stroke-linecap:butt;stroke-width:0.5;" x="224.029296875" xlink:href="#m476344969c" y="167.0"/>
      </g>
     </g>
     <g id="text_16">
      <!-- 1000 -->
      <g transform="translate(212.185546875 258.021875)scale(0.1 -0.1)">
       <use xlink:href="#DejaVuSans-31"/>
       <use x="63.623046875" xlink:href="#DejaVuSans-30"/>
       <use x="127.24609375" xlink:href="#DejaVuSans-30"/>
       <use x="190.869140625" xlink:href="#DejaVuSans-30"/>
      </g>
     </g>
    </g>
    <g id="xtick_9">
     <g id="line2d_87">
      <g>
       <use style="stroke:#000000;stroke-linecap:butt;stroke-width:0.5;" x="312.985351563" xlink:href="#m0012dd4eef" y="246.6"/>
      </g>
     </g>
     <g id="line2d_88">
      <g>
       <use style="stroke:#000000;stroke-linecap:butt;stroke-width:0.5;" x="312.985351563" xlink:href="#m476344969c" y="167.0"/>
      </g>
     </g>
     <g id="text_17">
      <!-- 1500 -->
      <g transform="translate(301.141601563 258.021875)scale(0.1 -0.1)">
       <use xlink:href="#DejaVuSans-31"/>
       <use x="63.623046875" xlink:href="#DejaVuSans-35"/>
       <use x="127.24609375" xlink:href="#DejaVuSans-30"/>
       <use x="190.869140625" xlink:href="#DejaVuSans-30"/>
      </g>
     </g>
    </g>
    <g id="xtick_10">
     <g id="line2d_89">
      <g>
       <use style="stroke:#000000;stroke-linecap:butt;stroke-width:0.5;" x="401.94140625" xlink:href="#m0012dd4eef" y="246.6"/>
      </g>
     </g>
     <g id="line2d_90">
      <g>
       <use style="stroke:#000000;stroke-linecap:butt;stroke-width:0.5;" x="401.94140625" xlink:href="#m476344969c" y="167.0"/>
      </g>
     </g>
     <g id="text_18">
      <!-- 2000 -->
      <g transform="translate(389.91484375 258.021875)scale(0.1 -0.1)">
       <use xlink:href="#DejaVuSans-32"/>
       <use x="63.623046875" xlink:href="#DejaVuSans-30"/>
       <use x="127.24609375" xlink:href="#DejaVuSans-30"/>
       <use x="190.869140625" xlink:href="#DejaVuSans-30"/>
      </g>
     </g>
    </g>
    <g id="text_19">
     <!-- Time -->
     <g transform="translate(212.047265625 270.7625)scale(0.1 -0.1)">
      <use xlink:href="#DejaVuSans-54"/>
      <use x="57.958984375" xlink:href="#DejaVuSans-69"/>
      <use x="85.7421875" xlink:href="#DejaVuSans-6d"/>
      <use x="183.154296875" xlink:href="#DejaVuSans-65"/>
     </g>
    </g>
   </g>
   <g id="matplotlib.axis_4">
    <g id="ytick_7">
     <g id="line2d_91">
      <g>
       <use style="stroke:#000000;stroke-linecap:butt;stroke-width:0.5;" x="46.1171875" xlink:href="#me8a85f7bf6" y="246.6"/>
      </g>
     </g>
     <g id="line2d_92">
      <g>
       <use style="stroke:#000000;stroke-linecap:butt;stroke-width:0.5;" x="401.94140625" xlink:href="#m1a32005dea" y="246.6"/>
      </g>
     </g>
     <g id="text_20">
      <!-- 0.0 -->
      <defs>
       <path d="
M10.6875 12.4062
L21 12.4062
L21 0
L10.6875 0
z
" id="DejaVuSans-2e"/>
      </defs>
      <g transform="translate(27.5375 250.23984375)scale(0.1 -0.1)">
       <use xlink:href="#DejaVuSans-30"/>
       <use x="63.623046875" xlink:href="#DejaVuSans-2e"/>
       <use x="95.41015625" xlink:href="#DejaVuSans-30"/>
      </g>
     </g>
    </g>
    <g id="ytick_8">
     <g id="line2d_93">
      <g>
       <use style="stroke:#000000;stroke-linecap:butt;stroke-width:0.5;" x="46.1171875" xlink:href="#me8a85f7bf6" y="236.126315789"/>
      </g>
     </g>
     <g id="line2d_94">
      <g>
       <use style="stroke:#000000;stroke-linecap:butt;stroke-width:0.5;" x="401.94140625" xlink:href="#m1a32005dea" y="236.126315789"/>
      </g>
     </g>
     <g id="text_21">
      <!-- 0.5 -->
      <g transform="translate(27.746875 239.766159539)scale(0.1 -0.1)">
       <use xlink:href="#DejaVuSans-30"/>
       <use x="63.623046875" xlink:href="#DejaVuSans-2e"/>
       <use x="95.41015625" xlink:href="#DejaVuSans-35"/>
      </g>
     </g>
    </g>
    <g id="ytick_9">
     <g id="line2d_95">
      <g>
       <use style="stroke:#000000;stroke-linecap:butt;stroke-width:0.5;" x="46.1171875" xlink:href="#me8a85f7bf6" y="225.652631579"/>
      </g>
     </g>
     <g id="line2d_96">
      <g>
       <use style="stroke:#000000;stroke-linecap:butt;stroke-width:0.5;" x="401.94140625" xlink:href="#m1a32005dea" y="225.652631579"/>
      </g>
     </g>
     <g id="text_22">
      <!-- 1.0 -->
      <g transform="translate(27.9765625 229.292475329)scale(0.1 -0.1)">
       <use xlink:href="#DejaVuSans-31"/>
       <use x="63.623046875" xlink:href="#DejaVuSans-2e"/>
       <use x="95.41015625" xlink:href="#DejaVuSans-30"/>
      </g>
     </g>
    </g>
    <g id="ytick_10">
     <g id="line2d_97">
      <g>
       <use style="stroke:#000000;stroke-linecap:butt;stroke-width:0.5;" x="46.1171875" xlink:href="#me8a85f7bf6" y="215.178947368"/>
      </g>
     </g>
     <g id="line2d_98">
      <g>
       <use style="stroke:#000000;stroke-linecap:butt;stroke-width:0.5;" x="401.94140625" xlink:href="#m1a32005dea" y="215.178947368"/>
      </g>
     </g>
     <g id="text_23">
      <!-- 1.5 -->
      <g transform="translate(28.1859375 218.753166118)scale(0.1 -0.1)">
       <use xlink:href="#DejaVuSans-31"/>
       <use x="63.623046875" xlink:href="#DejaVuSans-2e"/>
       <use x="95.41015625" xlink:href="#DejaVuSans-35"/>
      </g>
     </g>
    </g>
    <g id="ytick_11">
     <g id="line2d_99">
      <g>
       <use style="stroke:#000000;stroke-linecap:butt;stroke-width:0.5;" x="46.1171875" xlink:href="#me8a85f7bf6" y="204.705263158"/>
      </g>
     </g>
     <g id="line2d_100">
      <g>
       <use style="stroke:#000000;stroke-linecap:butt;stroke-width:0.5;" x="401.94140625" xlink:href="#m1a32005dea" y="204.705263158"/>
      </g>
     </g>
     <g id="text_24">
      <!-- 2.0 -->
      <g transform="translate(27.6109375 208.345106908)scale(0.1 -0.1)">
       <use xlink:href="#DejaVuSans-32"/>
       <use x="63.623046875" xlink:href="#DejaVuSans-2e"/>
       <use x="95.41015625" xlink:href="#DejaVuSans-30"/>
      </g>
     </g>
    </g>
    <g id="ytick_12">
     <g id="line2d_101">
      <g>
       <use style="stroke:#000000;stroke-linecap:butt;stroke-width:0.5;" x="46.1171875" xlink:href="#me8a85f7bf6" y="194.231578947"/>
      </g>
     </g>
     <g id="line2d_102">
      <g>
       <use style="stroke:#000000;stroke-linecap:butt;stroke-width:0.5;" x="401.94140625" xlink:href="#m1a32005dea" y="194.231578947"/>
      </g>
     </g>
     <g id="text_25">
      <!-- 2.5 -->
      <g transform="translate(27.8203125 197.871422697)scale(0.1 -0.1)">
       <use xlink:href="#DejaVuSans-32"/>
       <use x="63.623046875" xlink:href="#DejaVuSans-2e"/>
       <use x="95.41015625" xlink:href="#DejaVuSans-35"/>
      </g>
     </g>
    </g>
    <g id="ytick_13">
     <g id="line2d_103">
      <g>
       <use style="stroke:#000000;stroke-linecap:butt;stroke-width:0.5;" x="46.1171875" xlink:href="#me8a85f7bf6" y="183.757894737"/>
      </g>
     </g>
     <g id="line2d_104">
      <g>
       <use style="stroke:#000000;stroke-linecap:butt;stroke-width:0.5;" x="401.94140625" xlink:href="#m1a32005dea" y="183.757894737"/>
      </g>
     </g>
     <g id="text_26">
      <!-- 3.0 -->
      <defs>
       <path d="
M40.5781 39.3125
Q47.6562 37.7969 51.625 33
Q55.6094 28.2188 55.6094 21.1875
Q55.6094 10.4062 48.1875 4.48438
Q40.7656 -1.42188 27.0938 -1.42188
Q22.5156 -1.42188 17.6562 -0.515625
Q12.7969 0.390625 7.625 2.20312
L7.625 11.7188
Q11.7188 9.32812 16.5938 8.10938
Q21.4844 6.89062 26.8125 6.89062
Q36.0781 6.89062 40.9375 10.5469
Q45.7969 14.2031 45.7969 21.1875
Q45.7969 27.6406 41.2812 31.2656
Q36.7656 34.9062 28.7188 34.9062
L20.2188 34.9062
L20.2188 43.0156
L29.1094 43.0156
Q36.375 43.0156 40.2344 45.9219
Q44.0938 48.8281 44.0938 54.2969
Q44.0938 59.9062 40.1094 62.9062
Q36.1406 65.9219 28.7188 65.9219
Q24.6562 65.9219 20.0156 65.0312
Q15.375 64.1562 9.8125 62.3125
L9.8125 71.0938
Q15.4375 72.6562 20.3438 73.4375
Q25.25 74.2188 29.5938 74.2188
Q40.8281 74.2188 47.3594 69.1094
Q53.9062 64.0156 53.9062 55.3281
Q53.9062 49.2656 50.4375 45.0938
Q46.9688 40.9219 40.5781 39.3125" id="DejaVuSans-33"/>
      </defs>
      <g transform="translate(27.640625 187.397738487)scale(0.1 -0.1)">
       <use xlink:href="#DejaVuSans-33"/>
       <use x="63.623046875" xlink:href="#DejaVuSans-2e"/>
       <use x="95.41015625" xlink:href="#DejaVuSans-30"/>
      </g>
     </g>
    </g>
    <g id="ytick_14">
     <g id="line2d_105">
      <g>
       <use style="stroke:#000000;stroke-linecap:butt;stroke-width:0.5;" x="46.1171875" xlink:href="#me8a85f7bf6" y="173.284210526"/>
      </g>
     </g>
     <g id="line2d_106">
      <g>
       <use style="stroke:#000000;stroke-linecap:butt;stroke-width:0.5;" x="401.94140625" xlink:href="#m1a32005dea" y="173.284210526"/>
      </g>
     </g>
     <g id="text_27">
      <!-- 3.5 -->
      <g transform="translate(27.85 176.924054276)scale(0.1 -0.1)">
       <use xlink:href="#DejaVuSans-33"/>
       <use x="63.623046875" xlink:href="#DejaVuSans-2e"/>
       <use x="95.41015625" xlink:href="#DejaVuSans-35"/>
      </g>
     </g>
    </g>
   </g>
   <g id="patch_8">
    <path d="
M46.1172 167
L401.941 167" style="fill:none;stroke:#000000;"/>
   </g>
   <g id="patch_9">
    <path d="
M401.941 246.6
L401.941 167" style="fill:none;stroke:#000000;"/>
   </g>
   <g id="patch_10">
    <path d="
M46.1172 246.6
L401.941 246.6" style="fill:none;stroke:#000000;"/>
   </g>
   <g id="patch_11">
    <path d="
M46.1172 246.6
L46.1172 167" style="fill:none;stroke:#000000;"/>
   </g>
   <g id="text_28">
    <!-- OLAP -->
    <defs>
     <path d="
M34.1875 63.1875
L20.7969 26.9062
L47.6094 26.9062
z

M28.6094 72.9062
L39.7969 72.9062
L67.5781 0
L57.3281 0
L50.6875 18.7031
L17.8281 18.7031
L11.1875 0
L0.78125 0
z
" id="DejaVuSans-41"/>
    </defs>
    <g transform="translate(208.646796875 162.0)scale(0.12 -0.12)">
     <use xlink:href="#DejaVuSans-4f"/>
     <use x="78.7109375" xlink:href="#DejaVuSans-4c"/>
     <use x="136.673828125" xlink:href="#DejaVuSans-41"/>
     <use x="205.08203125" xlink:href="#DejaVuSans-50"/>
    </g>
   </g>
  </g>
  <g id="text_29">
   <!-- 14 OLTP workers -->
   <defs>
    <path d="
M30.6094 48.3906
Q23.3906 48.3906 19.1875 42.75
Q14.9844 37.1094 14.9844 27.2969
Q14.9844 17.4844 19.1562 11.8438
Q23.3438 6.20312 30.6094 6.20312
Q37.7969 6.20312 41.9844 11.8594
Q46.1875 17.5312 46.1875 27.2969
Q46.1875 37.0156 41.9844 42.7031
Q37.7969 48.3906 30.6094 48.3906
M30.6094 56
Q42.3281 56 49.0156 48.375
Q55.7188 40.7656 55.7188 27.2969
Q55.7188 13.875 49.0156 6.21875
Q42.3281 -1.42188 30.6094 -1.42188
Q18.8438 -1.42188 12.1719 6.21875
Q5.51562 13.875 5.51562 27.2969
Q5.51562 40.7656 12.1719 48.375
Q18.8438 56 30.6094 56" id="DejaVuSans-6f"/>
    <path d="
M9.07812 75.9844
L18.1094 75.9844
L18.1094 31.1094
L44.9219 54.6875
L56.3906 54.6875
L27.3906 29.1094
L57.625 0
L45.9062 0
L18.1094 26.7031
L18.1094 0
L9.07812 0
z
" id="DejaVuSans-6b"/>
    <path id="DejaVuSans-20"/>
    <path d="
M37.7969 64.3125
L12.8906 25.3906
L37.7969 25.3906
z

M35.2031 72.9062
L47.6094 72.9062
L47.6094 25.3906
L58.0156 25.3906
L58.0156 17.1875
L47.6094 17.1875
L47.6094 0
L37.7969 0
L37.7969 17.1875
L4.89062 17.1875
L4.89062 26.7031
z
" id="DejaVuSans-34"/>
    <path d="
M4.20312 54.6875
L13.1875 54.6875
L24.4219 12.0156
L35.5938 54.6875
L46.1875 54.6875
L57.4219 12.0156
L68.6094 54.6875
L77.5938 54.6875
L63.2812 0
L52.6875 0
L40.9219 44.8281
L29.1094 0
L18.5 0
z
" id="DejaVuSans-77"/>
    <path d="
M44.2812 53.0781
L44.2812 44.5781
Q40.4844 46.5312 36.375 47.5
Q32.2812 48.4844 27.875 48.4844
Q21.1875 48.4844 17.8438 46.4375
Q14.5 44.3906 14.5 40.2812
Q14.5 37.1562 16.8906 35.375
Q19.2812 33.5938 26.5156 31.9844
L29.5938 31.2969
Q39.1562 29.25 43.1875 25.5156
Q47.2188 21.7812 47.2188 15.0938
Q47.2188 7.46875 41.1875 3.01562
Q35.1562 -1.42188 24.6094 -1.42188
Q20.2188 -1.42188 15.4531 -0.5625
Q10.6875 0.296875 5.42188 2
L5.42188 11.2812
Q10.4062 8.6875 15.2344 7.39062
Q20.0625 6.10938 24.8125 6.10938
Q31.1562 6.10938 34.5625 8.28125
Q37.9844 10.4531 37.9844 14.4062
Q37.9844 18.0625 35.5156 20.0156
Q33.0625 21.9688 24.7031 23.7812
L21.5781 24.5156
Q13.2344 26.2656 9.51562 29.9062
Q5.8125 33.5469 5.8125 39.8906
Q5.8125 47.6094 11.2812 51.7969
Q16.75 56 26.8125 56
Q31.7812 56 36.1719 55.2656
Q40.5781 54.5469 44.2812 53.0781" id="DejaVuSans-73"/>
    <path d="
M41.1094 46.2969
Q39.5938 47.1719 37.8125 47.5781
Q36.0312 48 33.8906 48
Q26.2656 48 22.1875 43.0469
Q18.1094 38.0938 18.1094 28.8125
L18.1094 0
L9.07812 0
L9.07812 54.6875
L18.1094 54.6875
L18.1094 46.1875
Q20.9531 51.1719 25.4844 53.5781
Q30.0312 56 36.5312 56
Q37.4531 56 38.5781 55.875
Q39.7031 55.7656 41.0625 55.5156
z
" id="DejaVuSans-72"/>
   </defs>
   <g transform="translate(174.9453125 13.3584375)scale(0.1 -0.1)">
    <use xlink:href="#DejaVuSans-31"/>
    <use x="63.623046875" xlink:href="#DejaVuSans-34"/>
    <use x="127.24609375" xlink:href="#DejaVuSans-20"/>
    <use x="159.033203125" xlink:href="#DejaVuSans-4f"/>
    <use x="237.744140625" xlink:href="#DejaVuSans-4c"/>
    <use x="279.70703125" xlink:href="#DejaVuSans-54"/>
    <use x="340.791015625" xlink:href="#DejaVuSans-50"/>
    <use x="401.09375" xlink:href="#DejaVuSans-20"/>
    <use x="432.880859375" xlink:href="#DejaVuSans-77"/>
    <use x="514.66796875" xlink:href="#DejaVuSans-6f"/>
    <use x="575.849609375" xlink:href="#DejaVuSans-72"/>
    <use x="616.962890625" xlink:href="#DejaVuSans-6b"/>
    <use x="671.248046875" xlink:href="#DejaVuSans-65"/>
    <use x="732.771484375" xlink:href="#DejaVuSans-72"/>
    <use x="773.884765625" xlink:href="#DejaVuSans-73"/>
   </g>
  </g>
 </g>
 <defs>
  <clipPath id="pe9bd9c4693">
   <rect height="79.6" width="355.82421875" x="46.1171875" y="167.0"/>
  </clipPath>
  <clipPath id="paafe9ad165">
   <rect height="79.6" width="355.82421875" x="46.1171875" y="32.0"/>
  </clipPath>
 </defs>
</svg>
