<?xml version="1.0" encoding="utf-8" standalone="no"?>
<!DOCTYPE svg PUBLIC "-//W3C//DTD SVG 1.1//EN"
  "http://www.w3.org/Graphics/SVG/1.1/DTD/svg11.dtd">
<!-- Created with matplotlib (http://matplotlib.sourceforge.net/) -->
<svg height="288pt" version="1.1" viewBox="0 0 432 288" width="432pt" xmlns="http://www.w3.org/2000/svg" xmlns:xlink="http://www.w3.org/1999/xlink">
 <defs>
  <style type="text/css">
*{stroke-linecap:square;stroke-linejoin:round;}
  </style>
 </defs>
 <g id="figure_1">
  <g id="patch_1">
   <path d="
M0 288
L432 288
L432 0
L0 0
z
" style="fill:#ffffff;"/>
  </g>
  <g id="axes_1">
   <g id="patch_2">
    <path d="
M46.1172 111.6
L401.941 111.6
L401.941 32
L46.1172 32
z
" style="fill:#ffffff;"/>
   </g>
   <g id="line2d_1">
    <path clip-path="url(#paafe9ad165)" d="
M56.7923 111.6
L56.7923 32" style="fill:none;stroke:#00ffff;stroke-dasharray:6.000000,6.000000;stroke-dashoffset:0.0;stroke-linecap:butt;"/>
   </g>
   <g id="line2d_2">
    <path clip-path="url(#paafe9ad165)" d="
M78.1416 111.6
L78.1416 32" style="fill:none;stroke:#00ffff;stroke-dasharray:6.000000,6.000000;stroke-dashoffset:0.0;stroke-linecap:butt;"/>
   </g>
   <g id="line2d_3">
    <path clip-path="url(#paafe9ad165)" d="
M78.1417 111.6
L78.1417 32" style="fill:none;stroke:#00ffff;stroke-dasharray:6.000000,6.000000;stroke-dashoffset:0.0;stroke-linecap:butt;"/>
   </g>
   <g id="line2d_4">
    <path clip-path="url(#paafe9ad165)" d="
M78.1417 111.6
L78.1417 32" style="fill:none;stroke:#00ffff;stroke-dasharray:6.000000,6.000000;stroke-dashoffset:0.0;stroke-linecap:butt;"/>
   </g>
   <g id="line2d_5">
    <path clip-path="url(#paafe9ad165)" d="
M78.1418 111.6
L78.1418 32" style="fill:none;stroke:#00ffff;stroke-dasharray:6.000000,6.000000;stroke-dashoffset:0.0;stroke-linecap:butt;"/>
   </g>
   <g id="line2d_6">
    <path clip-path="url(#paafe9ad165)" d="
M78.142 111.6
L78.142 32" style="fill:none;stroke:#00ffff;stroke-dasharray:6.000000,6.000000;stroke-dashoffset:0.0;stroke-linecap:butt;"/>
   </g>
   <g id="line2d_7">
    <path clip-path="url(#paafe9ad165)" d="
M99.4911 111.6
L99.4911 32" style="fill:none;stroke:#00ffff;stroke-dasharray:6.000000,6.000000;stroke-dashoffset:0.0;stroke-linecap:butt;"/>
   </g>
   <g id="line2d_8">
    <path clip-path="url(#paafe9ad165)" d="
M99.4912 111.6
L99.4912 32" style="fill:none;stroke:#00ffff;stroke-dasharray:6.000000,6.000000;stroke-dashoffset:0.0;stroke-linecap:butt;"/>
   </g>
   <g id="line2d_9">
    <path clip-path="url(#paafe9ad165)" d="
M120.841 111.6
L120.841 32" style="fill:none;stroke:#00ffff;stroke-dasharray:6.000000,6.000000;stroke-dashoffset:0.0;stroke-linecap:butt;"/>
   </g>
   <g id="line2d_10">
    <path clip-path="url(#paafe9ad165)" d="
M120.841 111.6
L120.841 32" style="fill:none;stroke:#00ffff;stroke-dasharray:6.000000,6.000000;stroke-dashoffset:0.0;stroke-linecap:butt;"/>
   </g>
   <g id="line2d_11">
    <path clip-path="url(#paafe9ad165)" d="
M142.28 111.6
L142.28 32" style="fill:none;stroke:#00ffff;stroke-dasharray:6.000000,6.000000;stroke-dashoffset:0.0;stroke-linecap:butt;"/>
   </g>
   <g id="line2d_12">
    <path clip-path="url(#paafe9ad165)" d="
M142.28 111.6
L142.28 32" style="fill:none;stroke:#00ffff;stroke-dasharray:6.000000,6.000000;stroke-dashoffset:0.0;stroke-linecap:butt;"/>
   </g>
   <g id="line2d_13">
    <path clip-path="url(#paafe9ad165)" d="
M163.54 111.6
L163.54 32" style="fill:none;stroke:#00ffff;stroke-dasharray:6.000000,6.000000;stroke-dashoffset:0.0;stroke-linecap:butt;"/>
   </g>
   <g id="line2d_14">
    <path clip-path="url(#paafe9ad165)" d="
M163.54 111.6
L163.54 32" style="fill:none;stroke:#00ffff;stroke-dasharray:6.000000,6.000000;stroke-dashoffset:0.0;stroke-linecap:butt;"/>
   </g>
   <g id="line2d_15">
    <path clip-path="url(#paafe9ad165)" d="
M184.889 111.6
L184.889 32" style="fill:none;stroke:#00ffff;stroke-dasharray:6.000000,6.000000;stroke-dashoffset:0.0;stroke-linecap:butt;"/>
   </g>
   <g id="line2d_16">
    <path clip-path="url(#paafe9ad165)" d="
M184.889 111.6
L184.889 32" style="fill:none;stroke:#00ffff;stroke-dasharray:6.000000,6.000000;stroke-dashoffset:0.0;stroke-linecap:butt;"/>
   </g>
   <g id="line2d_17">
    <path clip-path="url(#paafe9ad165)" d="
M206.238 111.6
L206.238 32" style="fill:none;stroke:#00ffff;stroke-dasharray:6.000000,6.000000;stroke-dashoffset:0.0;stroke-linecap:butt;"/>
   </g>
   <g id="line2d_18">
    <path clip-path="url(#paafe9ad165)" d="
M206.238 111.6
L206.238 32" style="fill:none;stroke:#00ffff;stroke-dasharray:6.000000,6.000000;stroke-dashoffset:0.0;stroke-linecap:butt;"/>
   </g>
   <g id="line2d_19">
    <path clip-path="url(#paafe9ad165)" d="
M206.239 111.6
L206.239 32" style="fill:none;stroke:#00ffff;stroke-dasharray:6.000000,6.000000;stroke-dashoffset:0.0;stroke-linecap:butt;"/>
   </g>
   <g id="line2d_20">
    <path clip-path="url(#paafe9ad165)" d="
M227.588 111.6
L227.588 32" style="fill:none;stroke:#00ffff;stroke-dasharray:6.000000,6.000000;stroke-dashoffset:0.0;stroke-linecap:butt;"/>
   </g>
   <g id="line2d_21">
    <path clip-path="url(#paafe9ad165)" d="
M248.938 111.6
L248.938 32" style="fill:none;stroke:#00ffff;stroke-dasharray:6.000000,6.000000;stroke-dashoffset:0.0;stroke-linecap:butt;"/>
   </g>
   <g id="line2d_22">
    <path clip-path="url(#paafe9ad165)" d="
M270.287 111.6
L270.287 32" style="fill:none;stroke:#00ffff;stroke-dasharray:6.000000,6.000000;stroke-dashoffset:0.0;stroke-linecap:butt;"/>
   </g>
   <g id="line2d_23">
    <path clip-path="url(#paafe9ad165)" d="
M270.287 111.6
L270.287 32" style="fill:none;stroke:#00ffff;stroke-dasharray:6.000000,6.000000;stroke-dashoffset:0.0;stroke-linecap:butt;"/>
   </g>
   <g id="line2d_24">
    <path clip-path="url(#paafe9ad165)" d="
M291.636 111.6
L291.636 32" style="fill:none;stroke:#00ffff;stroke-dasharray:6.000000,6.000000;stroke-dashoffset:0.0;stroke-linecap:butt;"/>
   </g>
   <g id="line2d_25">
    <path clip-path="url(#paafe9ad165)" d="
M312.986 111.6
L312.986 32" style="fill:none;stroke:#00ffff;stroke-dasharray:6.000000,6.000000;stroke-dashoffset:0.0;stroke-linecap:butt;"/>
   </g>
   <g id="line2d_26">
    <path clip-path="url(#paafe9ad165)" d="
M334.335 111.6
L334.335 32" style="fill:none;stroke:#00ffff;stroke-dasharray:6.000000,6.000000;stroke-dashoffset:0.0;stroke-linecap:butt;"/>
   </g>
   <g id="line2d_27">
    <path clip-path="url(#paafe9ad165)" d="
M355.685 111.6
L355.685 32" style="fill:none;stroke:#00ffff;stroke-dasharray:6.000000,6.000000;stroke-dashoffset:0.0;stroke-linecap:butt;"/>
   </g>
   <g id="line2d_28">
    <path clip-path="url(#paafe9ad165)" d="
M377.034 111.6
L377.034 32" style="fill:none;stroke:#00ffff;stroke-dasharray:6.000000,6.000000;stroke-dashoffset:0.0;stroke-linecap:butt;"/>
   </g>
   <g id="line2d_29">
    <path clip-path="url(#paafe9ad165)" d="
M46.1172 63.5795
L46.1172 41.8993
L46.7043 41.8993
L46.7043 43.2115
L47.2914 43.2115
L47.2914 38.8601
L47.8785 38.8601
L47.8785 35.5699
L49.0527 35.5024
L49.0527 35.184
L49.6398 35.184
L49.6398 36.2743
L50.227 36.2743
L50.227 34.3735
L50.8141 34.3735
L50.8141 34.827
L51.4012 34.827
L51.4012 34.2674
L51.9883 34.2674
L51.9883 38.4934
L52.5754 38.4934
L52.5754 32.9841
L53.1625 32.9841
L53.1625 34.8656
L54.3367 34.8656
L54.3367 34.6533
L54.9238 34.6533
L54.9238 34.1323
L55.5109 34.1323
L55.5109 34.2867
L56.0981 34.2867
L56.0981 66.86
L56.6852 66.86
L56.6852 50.747
L57.2723 50.747
L57.2723 43.0475
L57.8594 43.0475
L57.8594 45.5658
L58.4465 45.5658
L58.4465 42.7291
L59.0336 42.7291
L59.0336 45.3535
L59.6207 45.3535
L59.6207 46.2798
L60.2078 46.2798
L60.2078 47.4858
L60.7949 47.4858
L60.7949 42.8738
L61.382 42.8738
L61.382 43.6264
L61.9692 43.6264
L61.9692 41.8897
L62.5563 41.8897
L62.5563 43.2887
L63.1434 43.2887
L63.1434 43.9931
L63.7305 43.9931
L63.7305 43.144
L64.3176 43.144
L64.3176 49.5892
L64.9047 49.5892
L64.9047 54.1529
L65.4918 54.1529
L65.4918 40.867
L66.0789 40.867
L66.0789 45.4114
L66.666 45.4114
L66.666 44.6202
L67.2531 44.6202
L67.2531 45.3824
L67.8403 45.3824
L67.8403 44.7649
L68.4274 44.7649
L68.4274 46.9359
L69.0145 46.9359
L69.0145 47.2736
L69.6016 47.2736
L69.6016 40.9248
L70.1887 40.9248
L70.1887 45.6237
L70.7758 45.6237
L70.7758 44.3115
L71.3629 44.3115
L71.3629 42.9607
L71.95 42.9607
L71.95 46.2122
L72.5371 46.2122
L72.5371 42.5168
L73.1242 42.5168
L73.1242 49.9172
L73.7114 49.9172
L73.7114 41.9572
L74.2985 41.9572
L74.2985 40.2784
L74.8856 40.2784
L74.8856 41.9765
L75.4727 41.9765
L75.4727 38.8794
L76.0598 38.8794
L76.0598 47.1095
L76.6469 47.1095
L76.6469 51.8952
L77.234 51.8952
L77.234 73.3341
L77.8211 73.3341
L77.8211 51.6829
L78.4082 51.6829
L78.4082 44.7842
L78.9953 44.7842
L78.9953 46.8297
L79.5825 46.8297
L79.5825 50.5058
L80.1696 50.5058
L80.1696 47.1867
L80.7567 47.1867
L80.7567 51.0365
L81.3438 51.0365
L81.3438 58.4851
L81.9309 58.4851
L81.9309 62.3927
L82.518 62.3927
L82.518 62.5471
L83.1051 62.5471
L83.1051 46.849
L83.6922 46.849
L83.6922 52.2715
L84.2793 52.2715
L84.2793 48.5182
L84.8664 48.5182
L84.8664 52.6092
L85.4536 52.6092
L85.4536 54.3845
L86.0407 54.3845
L86.0407 52.8118
L86.6278 52.8118
L86.6278 46.3087
L87.2149 46.3087
L87.2149 47.9104
L87.802 47.9104
L87.802 56.2659
L88.3891 56.2659
L88.3891 56.6422
L88.9762 56.6422
L88.9762 50.8242
L89.5633 50.8242
L89.5633 54.2301
L90.1504 54.2301
L90.1504 55.3976
L90.7375 55.3976
L90.7375 51.0944
L91.3247 51.0944
L91.3247 48.5664
L91.9118 48.5664
L91.9118 44.2246
L92.4989 44.2246
L92.4989 49.6374
L93.086 49.6374
L93.086 56.0151
L93.6731 56.0151
L93.6731 54.3459
L94.2602 54.3459
L94.2602 57.2597
L94.8473 57.2597
L94.8473 54.6643
L95.4344 54.6643
L95.4344 55.3107
L96.0215 55.3107
L96.0215 53.2267
L96.6086 53.2267
L96.6086 54.9248
L97.1958 54.9248
L97.1958 47.206
L97.7829 47.206
L97.7829 48.6629
L98.37 48.6629
L98.37 53.0626
L98.9571 53.0626
L98.9571 59.1894
L99.5442 59.1894
L99.5442 51.9917
L100.131 51.9917
L100.131 57.5974
L100.718 57.5974
L100.718 66.3968
L101.306 66.3968
L101.306 71.1921
L101.893 71.1921
L101.893 62.9427
L102.48 62.9427
L102.48 56.0633
L103.067 56.0633
L103.067 54.7318
L103.654 54.7318
L103.654 60.6656
L104.241 60.6656
L104.241 60.9551
L104.828 60.9551
L104.828 55.5905
L105.415 55.5905
L105.415 55.2336
L106.002 55.2336
L106.002 59.6622
L106.59 59.6622
L106.59 54.3748
L107.177 54.3748
L107.177 55.9475
L107.764 55.9475
L107.764 56.1212
L108.351 56.1212
L108.351 60.0288
L108.938 60.0288
L108.938 53.0819
L109.525 53.0819
L109.525 57.0668
L110.112 57.0668
L110.112 61.0226
L110.699 61.0226
L110.699 54.7318
L111.286 54.7318
L111.286 47.0516
L111.874 47.0516
L111.874 49.1068
L112.461 49.1068
L112.461 55.7449
L113.048 55.7449
L113.048 55.88
L113.635 55.88
L113.635 59.7876
L114.222 59.7876
L114.222 62.1322
L114.809 62.1322
L114.809 59.614
L115.396 59.614
L115.396 57.3176
L115.983 57.3176
L115.983 66.1556
L116.57 66.1556
L116.57 66.8117
L117.157 66.8117
L117.157 67.9117
L117.745 67.9117
L117.745 70.4299
L118.332 70.4299
L118.332 71.7035
L118.919 71.7035
L118.919 73.5464
L119.506 73.5464
L119.506 75.2252
L120.093 75.2252
L120.093 80.1459
L120.68 80.1459
L120.68 74.7138
L121.267 74.7138
L121.267 78.0522
L121.854 78.0522
L121.854 81.7765
L122.441 81.7765
L122.441 83.272
L123.029 83.272
L123.029 91.6373
L123.616 91.6373
L123.616 66.8117
L124.203 66.8117
L124.203 61.2735
L124.79 61.2735
L124.79 63.676
L125.377 63.676
L125.377 66.5126
L125.964 66.5126
L125.964 67.9985
L126.551 67.9985
L126.551 70.3334
L127.138 70.3334
L127.138 70.6808
L127.725 70.6808
L127.725 60.6656
L128.313 60.6656
L128.313 64.0812
L128.9 64.0812
L128.9 66.6381
L129.487 66.6381
L129.487 70.0054
L130.074 70.0054
L130.074 66.5705
L130.661 66.5705
L130.661 61.3121
L131.248 61.3121
L131.248 60.135
L131.835 60.135
L131.835 64.6215
L132.422 64.6215
L132.422 67.4003
L133.009 67.4003
L133.009 71.3369
L133.597 71.3369
L133.597 70.6615
L134.184 70.6615
L134.184 73.0157
L134.771 73.0157
L134.771 74.7042
L135.358 74.7042
L135.358 77.5601
L135.945 77.5601
L135.945 77.1453
L136.532 77.1453
L136.532 78.6408
L137.119 78.6408
L137.119 79.3355
L138.293 79.3837
L138.293 81.3809
L138.881 81.3809
L138.881 81.2555
L139.468 81.2555
L139.468 82.8186
L140.055 82.8186
L140.055 83.8992
L140.642 83.8992
L140.642 85.1632
L141.229 85.1632
L141.229 98.8544
L141.816 98.8544
L141.816 76.9426
L142.403 76.9426
L142.403 77.1742
L142.99 77.1742
L142.99 81.1976
L143.577 81.1976
L143.577 83.0019
L144.165 83.0019
L144.165 83.5808
L144.752 83.5808
L144.752 69.6001
L145.339 69.6001
L145.339 68.6546
L145.926 68.6546
L145.926 68.9055
L146.513 68.9055
L146.513 70.7097
L147.1 70.7097
L147.1 72.7166
L147.687 72.7166
L147.687 71.8579
L148.274 71.8579
L148.274 68.3651
L148.861 68.3651
L148.861 70.8062
L149.449 70.8062
L149.449 74.9744
L150.036 74.9744
L150.036 75.2928
L150.623 75.2928
L150.623 76.7304
L151.21 76.7304
L151.21 78.332
L151.797 78.332
L151.797 78.7373
L152.384 78.7373
L152.384 80.1749
L152.971 80.1749
L152.971 80.7538
L153.558 80.7538
L153.558 81.2073
L154.145 81.2073
L154.145 84.179
L154.733 84.179
L154.733 83.2624
L155.32 83.2624
L155.32 83.986
L155.907 83.986
L155.907 84.729
L156.494 84.729
L156.494 86.7359
L157.081 86.7359
L157.081 86.128
L157.668 86.128
L157.668 86.5043
L158.255 86.5043
L158.255 83.8703
L158.842 83.8703
L158.842 81.1397
L159.429 81.1397
L159.429 82.3458
L160.017 82.3458
L160.017 82.9633
L160.604 82.9633
L160.604 84.6904
L161.191 84.6904
L161.191 84.5071
L161.778 84.5071
L161.778 84.8737
L162.365 84.8737
L162.365 76.8365
L162.952 76.8365
L162.952 74.0192
L163.539 74.0192
L163.539 61.2349
L164.126 61.2349
L164.126 69.0502
L164.713 69.0502
L164.713 70.5939
L165.301 70.5939
L165.301 79.6249
L165.888 79.6249
L165.888 82.6352
L167.062 82.7028
L167.062 85.5877
L167.649 85.5877
L167.649 84.7097
L168.236 84.7097
L168.236 85.1535
L168.823 85.1535
L168.823 87.1893
L169.41 87.1893
L169.41 86.292
L169.997 86.292
L169.997 87.6718
L170.585 87.6718
L170.585 78.4575
L171.172 78.4575
L171.172 66.8407
L171.759 66.8407
L171.759 71.6263
L172.346 71.6263
L172.346 74.8682
L172.933 74.8682
L172.933 74.2121
L173.52 74.2121
L173.52 75.6787
L174.107 75.6787
L174.107 76.0743
L174.694 76.0743
L174.694 78.3031
L175.281 78.3031
L175.281 78.6504
L175.868 78.6504
L175.868 94.445
L176.456 94.445
L176.456 77.3961
L177.043 77.3961
L177.043 83.2142
L177.63 83.2142
L177.63 82.9536
L178.217 82.9536
L178.217 83.1852
L178.804 83.1852
L178.804 84.0343
L179.391 84.0343
L179.391 84.9798
L179.978 84.9798
L179.978 85.9157
L180.565 85.9157
L180.565 86.5332
L181.152 86.5332
L181.152 86.7359
L181.74 86.7359
L181.74 87.2183
L182.327 87.2183
L182.327 87.8647
L183.501 87.9709
L183.501 88.4629
L184.088 88.4629
L184.088 87.2086
L184.675 87.2086
L184.675 81.1108
L185.849 81.1687
L185.849 82.6063
L186.436 82.6063
L186.436 87.4691
L187.024 87.4691
L187.024 83.5133
L187.611 83.5133
L187.611 78.004
L188.198 78.004
L188.198 82.6835
L188.785 82.6835
L188.785 79.8082
L189.372 79.8082
L189.372 83.0115
L189.959 83.0115
L189.959 82.1046
L190.546 82.1046
L190.546 83.7159
L191.133 83.7159
L191.133 86.5622
L191.72 86.5622
L191.72 85.5105
L192.308 85.5105
L192.308 85.7517
L192.895 85.7517
L192.895 85.414
L193.482 85.414
L193.482 86.3692
L194.069 86.3692
L194.069 87.6042
L194.656 87.6042
L194.656 88.4243
L195.243 88.4243
L195.243 87.9709
L195.83 87.9709
L195.83 89.7076
L196.417 89.7076
L196.417 89.476
L197.004 89.476
L197.004 90.2672
L197.592 90.2672
L197.592 90.547
L198.179 90.547
L198.179 89.3313
L198.766 89.3313
L198.766 89.833
L199.353 89.833
L199.353 90.0549
L199.94 90.0549
L199.94 88.0095
L200.527 88.0095
L200.527 87.3727
L201.114 87.3727
L201.114 89.9681
L201.701 89.9681
L201.701 87.2569
L202.288 87.2569
L202.288 87.8068
L202.876 87.8068
L202.876 89.3024
L203.463 89.3024
L203.463 89.8813
L204.05 89.8813
L204.05 103.64
L204.637 103.64
L204.637 71.6263
L205.224 71.6263
L205.224 80.474
L205.811 80.474
L205.811 72.1377
L206.398 72.1377
L206.398 68.1239
L206.985 68.1239
L206.985 74.106
L207.572 74.106
L207.572 73.0061
L208.16 73.0061
L208.16 79.1811
L208.747 79.1811
L208.747 82.2204
L209.334 82.2204
L209.334 76.8655
L209.921 76.8655
L209.921 78.496
L210.508 78.496
L210.508 84.2948
L211.095 84.2948
L211.095 105.029
L211.682 105.029
L211.682 87.8068
L212.269 87.8068
L212.269 82.9536
L212.856 82.9536
L212.856 85.5973
L213.444 85.5973
L213.444 87.6139
L214.031 87.6139
L214.031 89.4374
L214.618 89.4374
L214.618 91.7917
L215.205 91.7917
L215.205 91.5504
L215.792 91.5504
L215.792 92.5442
L216.966 92.5828
L216.966 93.9529
L217.553 93.9529
L217.553 92.9688
L218.14 92.9688
L218.14 92.7758
L218.728 92.7758
L218.728 93.1039
L219.315 93.1039
L219.315 93.5187
L219.902 93.5187
L219.902 86.2534
L220.489 86.2534
L220.489 92.1294
L221.076 92.1294
L221.076 108.831
L221.663 108.831
L221.663 78.1487
L222.25 78.1487
L222.25 84.1404
L222.837 84.1404
L222.837 89.6786
L224.012 89.6979
L224.012 89.9006
L224.599 89.9006
L224.599 90.19
L225.186 90.19
L225.186 89.0997
L225.773 89.0997
L225.773 92.8337
L226.36 92.8337
L226.36 90.8075
L226.947 90.8075
L226.947 88.3664
L227.534 88.3664
L227.534 87.527
L228.121 87.527
L228.121 84.8158
L228.708 84.8158
L228.708 82.7607
L229.295 82.7607
L229.295 90.7593
L229.883 90.7593
L229.883 89.5146
L230.47 89.5146
L230.47 83.2045
L231.057 83.2045
L231.057 79.2776
L231.644 79.2776
L231.644 78.6215
L232.231 78.6215
L232.231 103.601
L232.818 103.601
L232.818 89.5629
L233.405 89.5629
L233.405 85.7903
L233.992 85.7903
L233.992 83.9957
L234.579 83.9957
L234.579 84.4106
L235.167 84.4106
L235.167 83.2817
L235.754 83.2817
L235.754 85.9447
L236.341 85.9447
L236.341 86.7359
L236.928 86.7359
L236.928 86.4078
L237.515 86.4078
L237.515 88.598
L238.102 88.598
L238.102 84.4492
L238.689 84.4492
L238.689 86.2148
L239.276 86.2148
L239.276 85.4333
L240.451 85.3368
L240.451 89.3795
L241.038 89.3795
L241.038 87.8068
L241.625 87.8068
L241.625 86.321
L242.799 86.4078
L242.799 84.3913
L243.386 84.3913
L243.386 84.7483
L243.973 84.7483
L243.973 85.2017
L244.56 85.2017
L244.56 86.7552
L245.147 86.7552
L245.147 86.3499
L245.735 86.3499
L245.735 85.6842
L246.322 85.6842
L246.322 82.5388
L246.909 82.5388
L246.909 81.5932
L247.496 81.5932
L247.496 83.2528
L248.083 83.2528
L248.083 79.1811
L248.67 79.1811
L248.67 70.0054
L249.257 70.0054
L249.257 69.7835
L249.844 69.7835
L249.844 73.6525
L250.431 73.6525
L250.431 70.4203
L251.019 70.4203
L251.019 72.1763
L251.606 72.1763
L251.606 78.3996
L252.193 78.3996
L252.193 75.3313
L252.78 75.3313
L252.78 79.7407
L253.367 79.7407
L253.367 77.9075
L253.954 77.9075
L253.954 78.689
L254.541 78.689
L254.541 83.8799
L255.128 83.8799
L255.128 82.2011
L255.715 82.2011
L255.715 82.7896
L256.303 82.7896
L256.303 83.6194
L256.89 83.6194
L256.89 84.8833
L257.477 84.8833
L257.477 86.7166
L258.064 86.7166
L258.064 85.0088
L258.651 85.0088
L258.651 87.1507
L259.238 87.1507
L259.238 86.6008
L259.825 86.6008
L259.825 90.3733
L260.412 90.3733
L260.412 89.1383
L260.999 89.1383
L260.999 88.3568
L261.587 88.3568
L261.587 88.1638
L262.174 88.1638
L262.174 91.1259
L262.761 91.1259
L262.761 88.2507
L263.348 88.2507
L263.348 88.5112
L263.935 88.5112
L263.935 92.4285
L264.522 92.4285
L264.522 86.9674
L265.109 86.9674
L265.109 88.3568
L265.696 88.3568
L265.696 87.5174
L266.283 87.5174
L266.283 86.2727
L266.871 86.2727
L266.871 86.5429
L267.458 86.5429
L267.458 81.9406
L268.045 81.9406
L268.045 83.5133
L268.632 83.5133
L268.632 84.0439
L269.219 84.0439
L269.219 85.2596
L269.806 85.2596
L269.806 86.7744
L270.393 86.7744
L270.393 84.1404
L270.98 84.1404
L270.98 88.3857
L271.567 88.3857
L271.567 109.574
L272.155 109.574
L272.155 90.904
L272.742 90.904
L272.742 84.9412
L273.329 84.9412
L273.329 84.208
L273.916 84.208
L273.916 84.8351
L274.503 84.8351
L274.503 86.3885
L275.09 86.3885
L275.09 86.0701
L275.677 86.0701
L275.677 84.9026
L276.264 84.9026
L276.264 72.8903
L276.851 72.8903
L276.851 77.3672
L277.439 77.3672
L277.439 72.9578
L278.026 72.9578
L278.026 76.3541
L278.613 76.3541
L278.613 77.5987
L279.2 77.5987
L279.2 82.0177
L279.787 82.0177
L279.787 80.638
L280.374 80.638
L280.374 83.3106
L280.961 83.3106
L280.961 84.4299
L281.548 84.4299
L281.548 84.1404
L282.135 84.1404
L282.135 83.6869
L282.723 83.6869
L282.723 85.4623
L283.31 85.4623
L283.31 84.8062
L283.897 84.8062
L283.897 85.4333
L284.484 85.4333
L284.484 88.4533
L285.071 88.4533
L285.071 87.9612
L285.658 87.9612
L285.658 88.27
L286.245 88.27
L286.245 89.8427
L286.832 89.8427
L286.832 87.0832
L287.419 87.0832
L287.419 86.1666
L288.006 86.1666
L288.006 85.9157
L288.594 85.9157
L288.594 87.035
L289.181 87.035
L289.181 92.2741
L289.768 92.2741
L289.768 87.9805
L290.355 87.9805
L290.355 87.199
L290.942 87.199
L290.942 91.3864
L291.529 91.3864
L291.529 86.0315
L292.116 86.0315
L292.116 86.9578
L292.703 86.9578
L292.703 87.9226
L293.29 87.9226
L293.29 90.5277
L293.878 90.5277
L293.878 87.8261
L294.465 87.8261
L294.465 92.2644
L295.052 92.2644
L295.052 86.2438
L295.639 86.2438
L295.639 88.8006
L296.226 88.8006
L296.226 92.0425
L296.813 92.0425
L296.813 89.0997
L297.4 89.0997
L297.4 104.557
L297.987 104.557
L297.987 98.8158
L298.574 98.8158
L298.574 80.7248
L299.162 80.7248
L299.162 83.494
L299.749 83.494
L299.749 83.1949
L300.336 83.1949
L300.336 84.1597
L300.923 84.1597
L300.923 110.269
L301.51 110.269
L301.51 99.028
L302.097 99.028
L302.097 83.629
L302.684 83.629
L302.684 86.5043
L303.271 86.5043
L303.271 86.7359
L303.858 86.7359
L303.858 87.4884
L304.446 87.4884
L304.446 77.3189
L305.033 77.3189
L305.033 62.2673
L305.62 62.2673
L305.62 65.2101
L306.207 65.2101
L306.207 67.8152
L306.794 67.8152
L306.794 70.0536
L307.381 70.0536
L307.381 69.4361
L307.968 69.4361
L307.968 72.485
L309.142 72.3789
L309.142 76.6918
L309.73 76.6918
L309.73 77.5408
L310.317 77.5408
L310.317 78.8916
L310.904 78.8916
L310.904 77.9847
L311.491 77.9847
L311.491 80.3872
L312.078 80.3872
L312.078 83.3685
L312.665 83.3685
L312.665 78.9302
L313.252 78.9302
L313.252 81.2555
L313.839 81.2555
L313.839 82.0467
L314.426 82.0467
L314.426 84.5842
L315.014 84.5842
L315.014 85.1149
L315.601 85.1149
L315.601 86.9964
L316.188 86.9964
L316.188 82.616
L316.775 82.616
L316.775 85.7903
L317.362 85.7903
L317.362 87.1604
L317.949 87.1604
L317.949 90.4312
L318.536 90.4312
L318.536 92.689
L319.123 92.689
L319.123 93.2582
L319.71 93.2582
L319.71 88.5787
L320.298 88.5787
L320.298 89.6111
L320.885 89.6111
L320.885 91.425
L321.472 91.425
L321.472 92.2644
L322.059 92.2644
L322.059 93.046
L322.646 93.046
L322.646 91.6662
L323.233 91.6662
L323.233 90.6531
L323.82 90.6531
L323.82 92.7179
L324.407 92.7179
L324.407 89.505
L324.994 89.505
L324.994 87.913
L325.582 87.913
L325.582 89.5918
L326.169 89.5918
L326.169 92.1004
L326.756 92.1004
L326.756 91.1645
L327.343 91.1645
L327.343 90.547
L328.517 90.5181
L328.517 91.7917
L329.104 91.7917
L329.104 92.2355
L329.691 92.2355
L329.691 90.8365
L330.278 90.8365
L330.278 90.2383
L330.866 90.2383
L330.866 93.2293
L331.453 93.2293
L331.453 77.6373
L332.04 77.6373
L332.04 74.7717
L332.627 74.7717
L332.627 71.9158
L333.214 71.9158
L333.214 72.4561
L333.801 72.4561
L333.801 75.0033
L334.388 75.0033
L334.388 68.9055
L334.975 68.9055
L334.975 76.3927
L335.562 76.3927
L335.562 74.3472
L336.15 74.3472
L336.15 73.1797
L336.737 73.1797
L336.737 78.9013
L337.324 78.9013
L337.324 81.188
L337.911 81.188
L337.911 83.8896
L338.498 83.8896
L338.498 80.0688
L339.085 80.0688
L339.085 79.5091
L339.672 79.5091
L339.672 83.3106
L340.259 83.3106
L340.259 83.7641
L340.846 83.7641
L340.846 81.873
L341.434 81.873
L341.434 88.1928
L342.021 88.1928
L342.021 86.6394
L342.608 86.6394
L342.608 84.5939
L343.195 84.5939
L343.195 90.6145
L343.782 90.6145
L343.782 88.8006
L344.369 88.8006
L344.369 87.8261
L344.956 87.8261
L344.956 93.3547
L345.543 93.3547
L345.543 89.505
L346.13 89.505
L346.13 90.19
L346.717 90.19
L346.717 88.762
L347.305 88.762
L347.305 89.4085
L347.892 89.4085
L347.892 89.7462
L348.479 89.7462
L348.479 90.7496
L349.066 90.7496
L349.066 91.5697
L349.653 91.5697
L349.653 90.5277
L350.24 90.5277
L350.24 92.0039
L350.827 92.0039
L350.827 92.7662
L351.414 92.7662
L351.414 93.1617
L352.001 93.1617
L352.001 89.8813
L352.589 89.8813
L352.589 93.0846
L353.176 93.0846
L353.176 90.3926
L353.763 90.3926
L353.763 93.4994
L354.35 93.4994
L354.35 91.3189
L354.937 91.3189
L354.937 95.6221
L355.524 95.6221
L355.524 90.2576
L356.111 90.2576
L356.111 92.8144
L356.698 92.8144
L356.698 92.1872
L357.285 92.1872
L357.285 92.5442
L357.873 92.5442
L357.873 86.8613
L358.46 86.8613
L358.46 92.3995
L359.047 92.3995
L359.047 102.096
L359.634 102.096
L359.634 90.8654
L360.221 90.8654
L360.221 94.5029
L360.808 94.5029
L360.808 94.966
L361.395 94.966
L361.395 102.029
L361.982 102.029
L361.982 111.6
L362.569 111.6
L362.569 106.998
L363.157 106.998
L363.157 90.3444
L363.744 90.3444
L363.744 90.9136
L364.918 90.8654
L364.918 93.9047
L365.505 93.9047
L365.505 90.1707
L366.092 90.1707
L366.092 91.2899
L366.679 91.2899
L366.679 86.9964
L367.266 86.9964
L367.266 92.1197
L367.853 92.1197
L367.853 95.5353
L368.441 95.5353
L368.441 92.2065
L369.028 92.2065
L369.028 96.4905
L369.615 96.4905
L369.615 82.7703
L370.202 82.7703
L370.202 88.3954
L370.789 88.3954
L370.789 94.9178
L371.376 94.9178
L371.376 89.9102
L371.963 89.9102
L371.963 87.9612
L372.55 87.9612
L372.55 88.1349
L373.137 88.1349
L373.137 88.6463
L373.725 88.6463
L373.725 87.0736
L374.312 87.0736
L374.312 88.8103
L374.899 88.8103
L374.899 93.7021
L376.073 93.76
L376.073 91.3671
L376.66 91.3671
L376.66 92.2258
L377.247 92.2258
L377.247 81.5836
L377.834 81.5836
L377.834 82.6642
L378.421 82.6642
L378.421 85.3079
L379.009 85.3079
L379.009 90.3251
L379.596 90.3251
L379.596 109.4
L380.183 109.4
L380.183 95.0046
L380.77 95.0046
L380.77 89.2734
L381.357 89.2734
L381.357 91.782
L381.944 91.782
L381.944 95.516
L382.531 95.516
L382.531 87.5753
L383.118 87.5753
L383.118 88.6945
L383.705 88.6945
L383.705 96.7124
L384.293 96.7124
L384.293 93.8757
L384.88 93.8757
L384.88 99.8192
L385.467 99.8192
L385.467 93.6828
L386.054 93.6828
L386.054 88.9647
L386.641 88.9647
L386.641 93.1521
L387.228 93.1521
L387.228 90.4602
L387.815 90.4602
L387.815 89.0708
L388.402 89.0708
L388.402 89.8427
L388.989 89.8427
L388.989 89.6208
L389.577 89.6208
L389.577 88.9164
L390.164 88.9164
L390.164 87.6525
L390.751 87.6525
L390.751 90.1225
L391.338 90.1225
L391.338 89.6304
L391.925 89.6304
L391.925 88.8392
L392.512 88.8392
L392.512 92.9205
L393.099 92.9205
L393.099 111.6
L393.686 111.6
L393.686 99.3368
L394.273 99.3368
L394.273 78.6215
L394.861 78.6215
L394.861 79.9626
L395.448 79.9626
L395.448 81.9213
L396.035 81.9213
L396.035 82.616
L396.622 82.616
L396.622 85.3561
L397.209 85.3561
L397.209 86.9192
L397.796 86.9192
L397.796 86.9192" style="fill:none;stroke:#0000ff;"/>
   </g>
   <g id="matplotlib.axis_1">
    <g id="xtick_1">
     <g id="line2d_30">
      <defs>
       <path d="
M0 0
L0 -4" id="m0012dd4eef" style="stroke:#000000;stroke-linecap:butt;stroke-width:0.5;"/>
      </defs>
      <g>
       <use style="stroke:#000000;stroke-linecap:butt;stroke-width:0.5;" x="46.1171875" xlink:href="#m0012dd4eef" y="111.6"/>
      </g>
     </g>
     <g id="line2d_31">
      <defs>
       <path d="
M0 0
L0 4" id="m476344969c" style="stroke:#000000;stroke-linecap:butt;stroke-width:0.5;"/>
      </defs>
      <g>
       <use style="stroke:#000000;stroke-linecap:butt;stroke-width:0.5;" x="46.1171875" xlink:href="#m476344969c" y="32.0"/>
      </g>
     </g>
     <g id="text_1">
      <!-- 0 -->
      <defs>
       <path d="
M31.7812 66.4062
Q24.1719 66.4062 20.3281 58.9062
Q16.5 51.4219 16.5 36.375
Q16.5 21.3906 20.3281 13.8906
Q24.1719 6.39062 31.7812 6.39062
Q39.4531 6.39062 43.2812 13.8906
Q47.125 21.3906 47.125 36.375
Q47.125 51.4219 43.2812 58.9062
Q39.4531 66.4062 31.7812 66.4062
M31.7812 74.2188
Q44.0469 74.2188 50.5156 64.5156
Q56.9844 54.8281 56.9844 36.375
Q56.9844 17.9688 50.5156 8.26562
Q44.0469 -1.42188 31.7812 -1.42188
Q19.5312 -1.42188 13.0625 8.26562
Q6.59375 17.9688 6.59375 36.375
Q6.59375 54.8281 13.0625 64.5156
Q19.5312 74.2188 31.7812 74.2188" id="DejaVuSans-30"/>
      </defs>
      <g transform="translate(43.59765625 123.021875)scale(0.1 -0.1)">
       <use xlink:href="#DejaVuSans-30"/>
      </g>
     </g>
    </g>
    <g id="xtick_2">
     <g id="line2d_32">
      <g>
       <use style="stroke:#000000;stroke-linecap:butt;stroke-width:0.5;" x="135.073242188" xlink:href="#m0012dd4eef" y="111.6"/>
      </g>
     </g>
     <g id="line2d_33">
      <g>
       <use style="stroke:#000000;stroke-linecap:butt;stroke-width:0.5;" x="135.073242188" xlink:href="#m476344969c" y="32.0"/>
      </g>
     </g>
     <g id="text_2">
      <!-- 500 -->
      <defs>
       <path d="
M10.7969 72.9062
L49.5156 72.9062
L49.5156 64.5938
L19.8281 64.5938
L19.8281 46.7344
Q21.9688 47.4688 24.1094 47.8281
Q26.2656 48.1875 28.4219 48.1875
Q40.625 48.1875 47.75 41.5
Q54.8906 34.8125 54.8906 23.3906
Q54.8906 11.625 47.5625 5.09375
Q40.2344 -1.42188 26.9062 -1.42188
Q22.3125 -1.42188 17.5469 -0.640625
Q12.7969 0.140625 7.71875 1.70312
L7.71875 11.625
Q12.1094 9.23438 16.7969 8.0625
Q21.4844 6.89062 26.7031 6.89062
Q35.1562 6.89062 40.0781 11.3281
Q45.0156 15.7656 45.0156 23.3906
Q45.0156 31 40.0781 35.4375
Q35.1562 39.8906 26.7031 39.8906
Q22.75 39.8906 18.8125 39.0156
Q14.8906 38.1406 10.7969 36.2812
z
" id="DejaVuSans-35"/>
      </defs>
      <g transform="translate(126.247460938 123.021875)scale(0.1 -0.1)">
       <use xlink:href="#DejaVuSans-35"/>
       <use x="63.623046875" xlink:href="#DejaVuSans-30"/>
       <use x="127.24609375" xlink:href="#DejaVuSans-30"/>
      </g>
     </g>
    </g>
    <g id="xtick_3">
     <g id="line2d_34">
      <g>
       <use style="stroke:#000000;stroke-linecap:butt;stroke-width:0.5;" x="224.029296875" xlink:href="#m0012dd4eef" y="111.6"/>
      </g>
     </g>
     <g id="line2d_35">
      <g>
       <use style="stroke:#000000;stroke-linecap:butt;stroke-width:0.5;" x="224.029296875" xlink:href="#m476344969c" y="32.0"/>
      </g>
     </g>
     <g id="text_3">
      <!-- 1000 -->
      <defs>
       <path d="
M12.4062 8.29688
L28.5156 8.29688
L28.5156 63.9219
L10.9844 60.4062
L10.9844 69.3906
L28.4219 72.9062
L38.2812 72.9062
L38.2812 8.29688
L54.3906 8.29688
L54.3906 0
L12.4062 0
z
" id="DejaVuSans-31"/>
      </defs>
      <g transform="translate(212.185546875 123.021875)scale(0.1 -0.1)">
       <use xlink:href="#DejaVuSans-31"/>
       <use x="63.623046875" xlink:href="#DejaVuSans-30"/>
       <use x="127.24609375" xlink:href="#DejaVuSans-30"/>
       <use x="190.869140625" xlink:href="#DejaVuSans-30"/>
      </g>
     </g>
    </g>
    <g id="xtick_4">
     <g id="line2d_36">
      <g>
       <use style="stroke:#000000;stroke-linecap:butt;stroke-width:0.5;" x="312.985351563" xlink:href="#m0012dd4eef" y="111.6"/>
      </g>
     </g>
     <g id="line2d_37">
      <g>
       <use style="stroke:#000000;stroke-linecap:butt;stroke-width:0.5;" x="312.985351563" xlink:href="#m476344969c" y="32.0"/>
      </g>
     </g>
     <g id="text_4">
      <!-- 1500 -->
      <g transform="translate(301.141601563 123.021875)scale(0.1 -0.1)">
       <use xlink:href="#DejaVuSans-31"/>
       <use x="63.623046875" xlink:href="#DejaVuSans-35"/>
       <use x="127.24609375" xlink:href="#DejaVuSans-30"/>
       <use x="190.869140625" xlink:href="#DejaVuSans-30"/>
      </g>
     </g>
    </g>
    <g id="xtick_5">
     <g id="line2d_38">
      <g>
       <use style="stroke:#000000;stroke-linecap:butt;stroke-width:0.5;" x="401.94140625" xlink:href="#m0012dd4eef" y="111.6"/>
      </g>
     </g>
     <g id="line2d_39">
      <g>
       <use style="stroke:#000000;stroke-linecap:butt;stroke-width:0.5;" x="401.94140625" xlink:href="#m476344969c" y="32.0"/>
      </g>
     </g>
     <g id="text_5">
      <!-- 2000 -->
      <defs>
       <path d="
M19.1875 8.29688
L53.6094 8.29688
L53.6094 0
L7.32812 0
L7.32812 8.29688
Q12.9375 14.1094 22.625 23.8906
Q32.3281 33.6875 34.8125 36.5312
Q39.5469 41.8438 41.4219 45.5312
Q43.3125 49.2188 43.3125 52.7812
Q43.3125 58.5938 39.2344 62.25
Q35.1562 65.9219 28.6094 65.9219
Q23.9688 65.9219 18.8125 64.3125
Q13.6719 62.7031 7.8125 59.4219
L7.8125 69.3906
Q13.7656 71.7812 18.9375 73
Q24.125 74.2188 28.4219 74.2188
Q39.75 74.2188 46.4844 68.5469
Q53.2188 62.8906 53.2188 53.4219
Q53.2188 48.9219 51.5312 44.8906
Q49.8594 40.875 45.4062 35.4062
Q44.1875 33.9844 37.6406 27.2188
Q31.1094 20.4531 19.1875 8.29688" id="DejaVuSans-32"/>
      </defs>
      <g transform="translate(389.91484375 123.021875)scale(0.1 -0.1)">
       <use xlink:href="#DejaVuSans-32"/>
       <use x="63.623046875" xlink:href="#DejaVuSans-30"/>
       <use x="127.24609375" xlink:href="#DejaVuSans-30"/>
       <use x="190.869140625" xlink:href="#DejaVuSans-30"/>
      </g>
     </g>
    </g>
    <g id="text_6">
     <!-- Time -->
     <defs>
      <path d="
M52 44.1875
Q55.375 50.25 60.0625 53.125
Q64.75 56 71.0938 56
Q79.6406 56 84.2812 50.0156
Q88.9219 44.0469 88.9219 33.0156
L88.9219 0
L79.8906 0
L79.8906 32.7188
Q79.8906 40.5781 77.0938 44.375
Q74.3125 48.1875 68.6094 48.1875
Q61.625 48.1875 57.5625 43.5469
Q53.5156 38.9219 53.5156 30.9062
L53.5156 0
L44.4844 0
L44.4844 32.7188
Q44.4844 40.625 41.7031 44.4062
Q38.9219 48.1875 33.1094 48.1875
Q26.2188 48.1875 22.1562 43.5312
Q18.1094 38.875 18.1094 30.9062
L18.1094 0
L9.07812 0
L9.07812 54.6875
L18.1094 54.6875
L18.1094 46.1875
Q21.1875 51.2188 25.4844 53.6094
Q29.7812 56 35.6875 56
Q41.6562 56 45.8281 52.9688
Q50 49.9531 52 44.1875" id="DejaVuSans-6d"/>
      <path d="
M9.42188 54.6875
L18.4062 54.6875
L18.4062 0
L9.42188 0
z

M9.42188 75.9844
L18.4062 75.9844
L18.4062 64.5938
L9.42188 64.5938
z
" id="DejaVuSans-69"/>
      <path d="
M56.2031 29.5938
L56.2031 25.2031
L14.8906 25.2031
Q15.4844 15.9219 20.4844 11.0625
Q25.4844 6.20312 34.4219 6.20312
Q39.5938 6.20312 44.4531 7.46875
Q49.3125 8.73438 54.1094 11.2812
L54.1094 2.78125
Q49.2656 0.734375 44.1875 -0.34375
Q39.1094 -1.42188 33.8906 -1.42188
Q20.7969 -1.42188 13.1562 6.1875
Q5.51562 13.8125 5.51562 26.8125
Q5.51562 40.2344 12.7656 48.1094
Q20.0156 56 32.3281 56
Q43.3594 56 49.7812 48.8906
Q56.2031 41.7969 56.2031 29.5938
M47.2188 32.2344
Q47.125 39.5938 43.0938 43.9844
Q39.0625 48.3906 32.4219 48.3906
Q24.9062 48.3906 20.3906 44.1406
Q15.875 39.8906 15.1875 32.1719
z
" id="DejaVuSans-65"/>
      <path d="
M-0.296875 72.9062
L61.375 72.9062
L61.375 64.5938
L35.5 64.5938
L35.5 0
L25.5938 0
L25.5938 64.5938
L-0.296875 64.5938
z
" id="DejaVuSans-54"/>
     </defs>
     <g transform="translate(212.047265625 135.7625)scale(0.1 -0.1)">
      <use xlink:href="#DejaVuSans-54"/>
      <use x="57.958984375" xlink:href="#DejaVuSans-69"/>
      <use x="85.7421875" xlink:href="#DejaVuSans-6d"/>
      <use x="183.154296875" xlink:href="#DejaVuSans-65"/>
     </g>
    </g>
   </g>
   <g id="matplotlib.axis_2">
    <g id="ytick_1">
     <g id="line2d_40">
      <defs>
       <path d="
M0 0
L4 0" id="me8a85f7bf6" style="stroke:#000000;stroke-linecap:butt;stroke-width:0.5;"/>
      </defs>
      <g>
       <use style="stroke:#000000;stroke-linecap:butt;stroke-width:0.5;" x="46.1171875" xlink:href="#me8a85f7bf6" y="111.6"/>
      </g>
     </g>
     <g id="line2d_41">
      <defs>
       <path d="
M0 0
L-4 0" id="m1a32005dea" style="stroke:#000000;stroke-linecap:butt;stroke-width:0.5;"/>
      </defs>
      <g>
       <use style="stroke:#000000;stroke-linecap:butt;stroke-width:0.5;" x="401.94140625" xlink:href="#m1a32005dea" y="111.6"/>
      </g>
     </g>
     <g id="text_7">
      <!-- 0 -->
      <g transform="translate(37.078125 115.23984375)scale(0.1 -0.1)">
       <use xlink:href="#DejaVuSans-30"/>
      </g>
     </g>
    </g>
    <g id="ytick_2">
     <g id="line2d_42">
      <g>
       <use style="stroke:#000000;stroke-linecap:butt;stroke-width:0.5;" x="46.1171875" xlink:href="#me8a85f7bf6" y="95.68"/>
      </g>
     </g>
     <g id="line2d_43">
      <g>
       <use style="stroke:#000000;stroke-linecap:butt;stroke-width:0.5;" x="401.94140625" xlink:href="#m1a32005dea" y="95.68"/>
      </g>
     </g>
     <g id="text_8">
      <!-- 500 -->
      <g transform="translate(24.465625 99.31984375)scale(0.1 -0.1)">
       <use xlink:href="#DejaVuSans-35"/>
       <use x="63.623046875" xlink:href="#DejaVuSans-30"/>
       <use x="127.24609375" xlink:href="#DejaVuSans-30"/>
      </g>
     </g>
    </g>
    <g id="ytick_3">
     <g id="line2d_44">
      <g>
       <use style="stroke:#000000;stroke-linecap:butt;stroke-width:0.5;" x="46.1171875" xlink:href="#me8a85f7bf6" y="79.76"/>
      </g>
     </g>
     <g id="line2d_45">
      <g>
       <use style="stroke:#000000;stroke-linecap:butt;stroke-width:0.5;" x="401.94140625" xlink:href="#m1a32005dea" y="79.76"/>
      </g>
     </g>
     <g id="text_9">
      <!-- 1000 -->
      <g transform="translate(18.4296875 83.39984375)scale(0.1 -0.1)">
       <use xlink:href="#DejaVuSans-31"/>
       <use x="63.623046875" xlink:href="#DejaVuSans-30"/>
       <use x="127.24609375" xlink:href="#DejaVuSans-30"/>
       <use x="190.869140625" xlink:href="#DejaVuSans-30"/>
      </g>
     </g>
    </g>
    <g id="ytick_4">
     <g id="line2d_46">
      <g>
       <use style="stroke:#000000;stroke-linecap:butt;stroke-width:0.5;" x="46.1171875" xlink:href="#me8a85f7bf6" y="63.84"/>
      </g>
     </g>
     <g id="line2d_47">
      <g>
       <use style="stroke:#000000;stroke-linecap:butt;stroke-width:0.5;" x="401.94140625" xlink:href="#m1a32005dea" y="63.84"/>
      </g>
     </g>
     <g id="text_10">
      <!-- 1500 -->
      <g transform="translate(18.4296875 67.47984375)scale(0.1 -0.1)">
       <use xlink:href="#DejaVuSans-31"/>
       <use x="63.623046875" xlink:href="#DejaVuSans-35"/>
       <use x="127.24609375" xlink:href="#DejaVuSans-30"/>
       <use x="190.869140625" xlink:href="#DejaVuSans-30"/>
      </g>
     </g>
    </g>
    <g id="ytick_5">
     <g id="line2d_48">
      <g>
       <use style="stroke:#000000;stroke-linecap:butt;stroke-width:0.5;" x="46.1171875" xlink:href="#me8a85f7bf6" y="47.92"/>
      </g>
     </g>
     <g id="line2d_49">
      <g>
       <use style="stroke:#000000;stroke-linecap:butt;stroke-width:0.5;" x="401.94140625" xlink:href="#m1a32005dea" y="47.92"/>
      </g>
     </g>
     <g id="text_11">
      <!-- 2000 -->
      <g transform="translate(18.0640625 51.55984375)scale(0.1 -0.1)">
       <use xlink:href="#DejaVuSans-32"/>
       <use x="63.623046875" xlink:href="#DejaVuSans-30"/>
       <use x="127.24609375" xlink:href="#DejaVuSans-30"/>
       <use x="190.869140625" xlink:href="#DejaVuSans-30"/>
      </g>
     </g>
    </g>
    <g id="ytick_6">
     <g id="line2d_50">
      <g>
       <use style="stroke:#000000;stroke-linecap:butt;stroke-width:0.5;" x="46.1171875" xlink:href="#me8a85f7bf6" y="32.0"/>
      </g>
     </g>
     <g id="line2d_51">
      <g>
       <use style="stroke:#000000;stroke-linecap:butt;stroke-width:0.5;" x="401.94140625" xlink:href="#m1a32005dea" y="32.0"/>
      </g>
     </g>
     <g id="text_12">
      <!-- 2500 -->
      <g transform="translate(18.0640625 35.63984375)scale(0.1 -0.1)">
       <use xlink:href="#DejaVuSans-32"/>
       <use x="63.623046875" xlink:href="#DejaVuSans-35"/>
       <use x="127.24609375" xlink:href="#DejaVuSans-30"/>
       <use x="190.869140625" xlink:href="#DejaVuSans-30"/>
      </g>
     </g>
    </g>
   </g>
   <g id="patch_3">
    <path d="
M46.1172 32
L401.941 32" style="fill:none;stroke:#000000;"/>
   </g>
   <g id="patch_4">
    <path d="
M401.941 111.6
L401.941 32" style="fill:none;stroke:#000000;"/>
   </g>
   <g id="patch_5">
    <path d="
M46.1172 111.6
L401.941 111.6" style="fill:none;stroke:#000000;"/>
   </g>
   <g id="patch_6">
    <path d="
M46.1172 111.6
L46.1172 32" style="fill:none;stroke:#000000;"/>
   </g>
   <g id="text_13">
    <!-- OLTP -->
    <defs>
     <path d="
M39.4062 66.2188
Q28.6562 66.2188 22.3281 58.2031
Q16.0156 50.2031 16.0156 36.375
Q16.0156 22.6094 22.3281 14.5938
Q28.6562 6.59375 39.4062 6.59375
Q50.1406 6.59375 56.4219 14.5938
Q62.7031 22.6094 62.7031 36.375
Q62.7031 50.2031 56.4219 58.2031
Q50.1406 66.2188 39.4062 66.2188
M39.4062 74.2188
Q54.7344 74.2188 63.9062 63.9375
Q73.0938 53.6562 73.0938 36.375
Q73.0938 19.1406 63.9062 8.85938
Q54.7344 -1.42188 39.4062 -1.42188
Q24.0312 -1.42188 14.8125 8.82812
Q5.60938 19.0938 5.60938 36.375
Q5.60938 53.6562 14.8125 63.9375
Q24.0312 74.2188 39.4062 74.2188" id="DejaVuSans-4f"/>
     <path d="
M19.6719 64.7969
L19.6719 37.4062
L32.0781 37.4062
Q38.9688 37.4062 42.7188 40.9688
Q46.4844 44.5312 46.4844 51.125
Q46.4844 57.6719 42.7188 61.2344
Q38.9688 64.7969 32.0781 64.7969
z

M9.8125 72.9062
L32.0781 72.9062
Q44.3438 72.9062 50.6094 67.3594
Q56.8906 61.8125 56.8906 51.125
Q56.8906 40.3281 50.6094 34.8125
Q44.3438 29.2969 32.0781 29.2969
L19.6719 29.2969
L19.6719 0
L9.8125 0
z
" id="DejaVuSans-50"/>
     <path d="
M9.8125 72.9062
L19.6719 72.9062
L19.6719 8.29688
L55.1719 8.29688
L55.1719 0
L9.8125 0
z
" id="DejaVuSans-4c"/>
    </defs>
    <g transform="translate(210.046484375 27.0)scale(0.12 -0.12)">
     <use xlink:href="#DejaVuSans-4f"/>
     <use x="78.7109375" xlink:href="#DejaVuSans-4c"/>
     <use x="120.673828125" xlink:href="#DejaVuSans-54"/>
     <use x="181.7578125" xlink:href="#DejaVuSans-50"/>
    </g>
   </g>
  </g>
  <g id="axes_2">
   <g id="patch_7">
    <path d="
M46.1172 246.6
L401.941 246.6
L401.941 167
L46.1172 167
z
" style="fill:#ffffff;"/>
   </g>
   <g id="line2d_52">
    <path clip-path="url(#pe9bd9c4693)" d="
M56.7923 246.6
L56.7923 167" style="fill:none;stroke:#00ffff;stroke-dasharray:6.000000,6.000000;stroke-dashoffset:0.0;stroke-linecap:butt;"/>
   </g>
   <g id="line2d_53">
    <path clip-path="url(#pe9bd9c4693)" d="
M78.1416 246.6
L78.1416 167" style="fill:none;stroke:#00ffff;stroke-dasharray:6.000000,6.000000;stroke-dashoffset:0.0;stroke-linecap:butt;"/>
   </g>
   <g id="line2d_54">
    <path clip-path="url(#pe9bd9c4693)" d="
M78.1417 246.6
L78.1417 167" style="fill:none;stroke:#00ffff;stroke-dasharray:6.000000,6.000000;stroke-dashoffset:0.0;stroke-linecap:butt;"/>
   </g>
   <g id="line2d_55">
    <path clip-path="url(#pe9bd9c4693)" d="
M78.1417 246.6
L78.1417 167" style="fill:none;stroke:#00ffff;stroke-dasharray:6.000000,6.000000;stroke-dashoffset:0.0;stroke-linecap:butt;"/>
   </g>
   <g id="line2d_56">
    <path clip-path="url(#pe9bd9c4693)" d="
M78.1418 246.6
L78.1418 167" style="fill:none;stroke:#00ffff;stroke-dasharray:6.000000,6.000000;stroke-dashoffset:0.0;stroke-linecap:butt;"/>
   </g>
   <g id="line2d_57">
    <path clip-path="url(#pe9bd9c4693)" d="
M78.142 246.6
L78.142 167" style="fill:none;stroke:#00ffff;stroke-dasharray:6.000000,6.000000;stroke-dashoffset:0.0;stroke-linecap:butt;"/>
   </g>
   <g id="line2d_58">
    <path clip-path="url(#pe9bd9c4693)" d="
M99.4911 246.6
L99.4911 167" style="fill:none;stroke:#00ffff;stroke-dasharray:6.000000,6.000000;stroke-dashoffset:0.0;stroke-linecap:butt;"/>
   </g>
   <g id="line2d_59">
    <path clip-path="url(#pe9bd9c4693)" d="
M99.4912 246.6
L99.4912 167" style="fill:none;stroke:#00ffff;stroke-dasharray:6.000000,6.000000;stroke-dashoffset:0.0;stroke-linecap:butt;"/>
   </g>
   <g id="line2d_60">
    <path clip-path="url(#pe9bd9c4693)" d="
M120.841 246.6
L120.841 167" style="fill:none;stroke:#00ffff;stroke-dasharray:6.000000,6.000000;stroke-dashoffset:0.0;stroke-linecap:butt;"/>
   </g>
   <g id="line2d_61">
    <path clip-path="url(#pe9bd9c4693)" d="
M120.841 246.6
L120.841 167" style="fill:none;stroke:#00ffff;stroke-dasharray:6.000000,6.000000;stroke-dashoffset:0.0;stroke-linecap:butt;"/>
   </g>
   <g id="line2d_62">
    <path clip-path="url(#pe9bd9c4693)" d="
M142.28 246.6
L142.28 167" style="fill:none;stroke:#00ffff;stroke-dasharray:6.000000,6.000000;stroke-dashoffset:0.0;stroke-linecap:butt;"/>
   </g>
   <g id="line2d_63">
    <path clip-path="url(#pe9bd9c4693)" d="
M142.28 246.6
L142.28 167" style="fill:none;stroke:#00ffff;stroke-dasharray:6.000000,6.000000;stroke-dashoffset:0.0;stroke-linecap:butt;"/>
   </g>
   <g id="line2d_64">
    <path clip-path="url(#pe9bd9c4693)" d="
M163.54 246.6
L163.54 167" style="fill:none;stroke:#00ffff;stroke-dasharray:6.000000,6.000000;stroke-dashoffset:0.0;stroke-linecap:butt;"/>
   </g>
   <g id="line2d_65">
    <path clip-path="url(#pe9bd9c4693)" d="
M163.54 246.6
L163.54 167" style="fill:none;stroke:#00ffff;stroke-dasharray:6.000000,6.000000;stroke-dashoffset:0.0;stroke-linecap:butt;"/>
   </g>
   <g id="line2d_66">
    <path clip-path="url(#pe9bd9c4693)" d="
M184.889 246.6
L184.889 167" style="fill:none;stroke:#00ffff;stroke-dasharray:6.000000,6.000000;stroke-dashoffset:0.0;stroke-linecap:butt;"/>
   </g>
   <g id="line2d_67">
    <path clip-path="url(#pe9bd9c4693)" d="
M184.889 246.6
L184.889 167" style="fill:none;stroke:#00ffff;stroke-dasharray:6.000000,6.000000;stroke-dashoffset:0.0;stroke-linecap:butt;"/>
   </g>
   <g id="line2d_68">
    <path clip-path="url(#pe9bd9c4693)" d="
M206.238 246.6
L206.238 167" style="fill:none;stroke:#00ffff;stroke-dasharray:6.000000,6.000000;stroke-dashoffset:0.0;stroke-linecap:butt;"/>
   </g>
   <g id="line2d_69">
    <path clip-path="url(#pe9bd9c4693)" d="
M206.238 246.6
L206.238 167" style="fill:none;stroke:#00ffff;stroke-dasharray:6.000000,6.000000;stroke-dashoffset:0.0;stroke-linecap:butt;"/>
   </g>
   <g id="line2d_70">
    <path clip-path="url(#pe9bd9c4693)" d="
M206.239 246.6
L206.239 167" style="fill:none;stroke:#00ffff;stroke-dasharray:6.000000,6.000000;stroke-dashoffset:0.0;stroke-linecap:butt;"/>
   </g>
   <g id="line2d_71">
    <path clip-path="url(#pe9bd9c4693)" d="
M227.588 246.6
L227.588 167" style="fill:none;stroke:#00ffff;stroke-dasharray:6.000000,6.000000;stroke-dashoffset:0.0;stroke-linecap:butt;"/>
   </g>
   <g id="line2d_72">
    <path clip-path="url(#pe9bd9c4693)" d="
M248.938 246.6
L248.938 167" style="fill:none;stroke:#00ffff;stroke-dasharray:6.000000,6.000000;stroke-dashoffset:0.0;stroke-linecap:butt;"/>
   </g>
   <g id="line2d_73">
    <path clip-path="url(#pe9bd9c4693)" d="
M270.287 246.6
L270.287 167" style="fill:none;stroke:#00ffff;stroke-dasharray:6.000000,6.000000;stroke-dashoffset:0.0;stroke-linecap:butt;"/>
   </g>
   <g id="line2d_74">
    <path clip-path="url(#pe9bd9c4693)" d="
M270.287 246.6
L270.287 167" style="fill:none;stroke:#00ffff;stroke-dasharray:6.000000,6.000000;stroke-dashoffset:0.0;stroke-linecap:butt;"/>
   </g>
   <g id="line2d_75">
    <path clip-path="url(#pe9bd9c4693)" d="
M291.636 246.6
L291.636 167" style="fill:none;stroke:#00ffff;stroke-dasharray:6.000000,6.000000;stroke-dashoffset:0.0;stroke-linecap:butt;"/>
   </g>
   <g id="line2d_76">
    <path clip-path="url(#pe9bd9c4693)" d="
M312.986 246.6
L312.986 167" style="fill:none;stroke:#00ffff;stroke-dasharray:6.000000,6.000000;stroke-dashoffset:0.0;stroke-linecap:butt;"/>
   </g>
   <g id="line2d_77">
    <path clip-path="url(#pe9bd9c4693)" d="
M334.335 246.6
L334.335 167" style="fill:none;stroke:#00ffff;stroke-dasharray:6.000000,6.000000;stroke-dashoffset:0.0;stroke-linecap:butt;"/>
   </g>
   <g id="line2d_78">
    <path clip-path="url(#pe9bd9c4693)" d="
M355.685 246.6
L355.685 167" style="fill:none;stroke:#00ffff;stroke-dasharray:6.000000,6.000000;stroke-dashoffset:0.0;stroke-linecap:butt;"/>
   </g>
   <g id="line2d_79">
    <path clip-path="url(#pe9bd9c4693)" d="
M377.034 246.6
L377.034 167" style="fill:none;stroke:#00ffff;stroke-dasharray:6.000000,6.000000;stroke-dashoffset:0.0;stroke-linecap:butt;"/>
   </g>
   <g id="line2d_80">
    <path clip-path="url(#pe9bd9c4693)" d="
M57.9597 239.712
L57.9597 233.941
L77.9781 233.941
L77.9781 232.823
L97.9964 232.823
L97.9964 234.871
L118.015 234.871
L118.015 237.105
L138.033 237.105
L138.033 234.685
L158.051 234.685
L158.051 238.222
L178.07 238.222
L178.07 237.664
L198.088 237.664
L198.088 237.105
L218.106 237.105
L218.106 229.472
L238.125 229.472
L238.125 234.127
L258.143 234.127
L258.143 231.148
L278.161 231.148
L278.161 230.589
L298.18 230.589
L298.18 229.1
L318.198 229.1
L318.198 232.637
L338.216 232.637
L338.216 234.127
L358.235 234.127
L358.235 233.754
L378.253 233.754" style="fill:none;stroke:#008000;"/>
   </g>
   <g id="matplotlib.axis_3">
    <g id="xtick_6">
     <g id="line2d_81">
      <g>
       <use style="stroke:#000000;stroke-linecap:butt;stroke-width:0.5;" x="46.1171875" xlink:href="#m0012dd4eef" y="246.6"/>
      </g>
     </g>
     <g id="line2d_82">
      <g>
       <use style="stroke:#000000;stroke-linecap:butt;stroke-width:0.5;" x="46.1171875" xlink:href="#m476344969c" y="167.0"/>
      </g>
     </g>
     <g id="text_14">
      <!-- 0 -->
      <g transform="translate(43.59765625 258.021875)scale(0.1 -0.1)">
       <use xlink:href="#DejaVuSans-30"/>
      </g>
     </g>
    </g>
    <g id="xtick_7">
     <g id="line2d_83">
      <g>
       <use style="stroke:#000000;stroke-linecap:butt;stroke-width:0.5;" x="135.073242188" xlink:href="#m0012dd4eef" y="246.6"/>
      </g>
     </g>
     <g id="line2d_84">
      <g>
       <use style="stroke:#000000;stroke-linecap:butt;stroke-width:0.5;" x="135.073242188" xlink:href="#m476344969c" y="167.0"/>
      </g>
     </g>
     <g id="text_15">
      <!-- 500 -->
      <g transform="translate(126.247460938 258.021875)scale(0.1 -0.1)">
       <use xlink:href="#DejaVuSans-35"/>
       <use x="63.623046875" xlink:href="#DejaVuSans-30"/>
       <use x="127.24609375" xlink:href="#DejaVuSans-30"/>
      </g>
     </g>
    </g>
    <g id="xtick_8">
     <g id="line2d_85">
      <g>
       <use style="stroke:#000000;stroke-linecap:butt;stroke-width:0.5;" x="224.029296875" xlink:href="#m0012dd4eef" y="246.6"/>
      </g>
     </g>
     <g id="line2d_86">
      <g>
       <use style="stroke:#000000;stroke-linecap:butt;stroke-width:0.5;" x="224.029296875" xlink:href="#m476344969c" y="167.0"/>
      </g>
     </g>
     <g id="text_16">
      <!-- 1000 -->
      <g transform="translate(212.185546875 258.021875)scale(0.1 -0.1)">
       <use xlink:href="#DejaVuSans-31"/>
       <use x="63.623046875" xlink:href="#DejaVuSans-30"/>
       <use x="127.24609375" xlink:href="#DejaVuSans-30"/>
       <use x="190.869140625" xlink:href="#DejaVuSans-30"/>
      </g>
     </g>
    </g>
    <g id="xtick_9">
     <g id="line2d_87">
      <g>
       <use style="stroke:#000000;stroke-linecap:butt;stroke-width:0.5;" x="312.985351563" xlink:href="#m0012dd4eef" y="246.6"/>
      </g>
     </g>
     <g id="line2d_88">
      <g>
       <use style="stroke:#000000;stroke-linecap:butt;stroke-width:0.5;" x="312.985351563" xlink:href="#m476344969c" y="167.0"/>
      </g>
     </g>
     <g id="text_17">
      <!-- 1500 -->
      <g transform="translate(301.141601563 258.021875)scale(0.1 -0.1)">
       <use xlink:href="#DejaVuSans-31"/>
       <use x="63.623046875" xlink:href="#DejaVuSans-35"/>
       <use x="127.24609375" xlink:href="#DejaVuSans-30"/>
       <use x="190.869140625" xlink:href="#DejaVuSans-30"/>
      </g>
     </g>
    </g>
    <g id="xtick_10">
     <g id="line2d_89">
      <g>
       <use style="stroke:#000000;stroke-linecap:butt;stroke-width:0.5;" x="401.94140625" xlink:href="#m0012dd4eef" y="246.6"/>
      </g>
     </g>
     <g id="line2d_90">
      <g>
       <use style="stroke:#000000;stroke-linecap:butt;stroke-width:0.5;" x="401.94140625" xlink:href="#m476344969c" y="167.0"/>
      </g>
     </g>
     <g id="text_18">
      <!-- 2000 -->
      <g transform="translate(389.91484375 258.021875)scale(0.1 -0.1)">
       <use xlink:href="#DejaVuSans-32"/>
       <use x="63.623046875" xlink:href="#DejaVuSans-30"/>
       <use x="127.24609375" xlink:href="#DejaVuSans-30"/>
       <use x="190.869140625" xlink:href="#DejaVuSans-30"/>
      </g>
     </g>
    </g>
    <g id="text_19">
     <!-- Time -->
     <g transform="translate(212.047265625 270.7625)scale(0.1 -0.1)">
      <use xlink:href="#DejaVuSans-54"/>
      <use x="57.958984375" xlink:href="#DejaVuSans-69"/>
      <use x="85.7421875" xlink:href="#DejaVuSans-6d"/>
      <use x="183.154296875" xlink:href="#DejaVuSans-65"/>
     </g>
    </g>
   </g>
   <g id="matplotlib.axis_4">
    <g id="ytick_7">
     <g id="line2d_91">
      <g>
       <use style="stroke:#000000;stroke-linecap:butt;stroke-width:0.5;" x="46.1171875" xlink:href="#me8a85f7bf6" y="246.6"/>
      </g>
     </g>
     <g id="line2d_92">
      <g>
       <use style="stroke:#000000;stroke-linecap:butt;stroke-width:0.5;" x="401.94140625" xlink:href="#m1a32005dea" y="246.6"/>
      </g>
     </g>
     <g id="text_20">
      <!-- 0.0 -->
      <defs>
       <path d="
M10.6875 12.4062
L21 12.4062
L21 0
L10.6875 0
z
" id="DejaVuSans-2e"/>
      </defs>
      <g transform="translate(27.5375 250.23984375)scale(0.1 -0.1)">
       <use xlink:href="#DejaVuSans-30"/>
       <use x="63.623046875" xlink:href="#DejaVuSans-2e"/>
       <use x="95.41015625" xlink:href="#DejaVuSans-30"/>
      </g>
     </g>
    </g>
    <g id="ytick_8">
     <g id="line2d_93">
      <g>
       <use style="stroke:#000000;stroke-linecap:butt;stroke-width:0.5;" x="46.1171875" xlink:href="#me8a85f7bf6" y="236.126315789"/>
      </g>
     </g>
     <g id="line2d_94">
      <g>
       <use style="stroke:#000000;stroke-linecap:butt;stroke-width:0.5;" x="401.94140625" xlink:href="#m1a32005dea" y="236.126315789"/>
      </g>
     </g>
     <g id="text_21">
      <!-- 0.5 -->
      <g transform="translate(27.746875 239.766159539)scale(0.1 -0.1)">
       <use xlink:href="#DejaVuSans-30"/>
       <use x="63.623046875" xlink:href="#DejaVuSans-2e"/>
       <use x="95.41015625" xlink:href="#DejaVuSans-35"/>
      </g>
     </g>
    </g>
    <g id="ytick_9">
     <g id="line2d_95">
      <g>
       <use style="stroke:#000000;stroke-linecap:butt;stroke-width:0.5;" x="46.1171875" xlink:href="#me8a85f7bf6" y="225.652631579"/>
      </g>
     </g>
     <g id="line2d_96">
      <g>
       <use style="stroke:#000000;stroke-linecap:butt;stroke-width:0.5;" x="401.94140625" xlink:href="#m1a32005dea" y="225.652631579"/>
      </g>
     </g>
     <g id="text_22">
      <!-- 1.0 -->
      <g transform="translate(27.9765625 229.292475329)scale(0.1 -0.1)">
       <use xlink:href="#DejaVuSans-31"/>
       <use x="63.623046875" xlink:href="#DejaVuSans-2e"/>
       <use x="95.41015625" xlink:href="#DejaVuSans-30"/>
      </g>
     </g>
    </g>
    <g id="ytick_10">
     <g id="line2d_97">
      <g>
       <use style="stroke:#000000;stroke-linecap:butt;stroke-width:0.5;" x="46.1171875" xlink:href="#me8a85f7bf6" y="215.178947368"/>
      </g>
     </g>
     <g id="line2d_98">
      <g>
       <use style="stroke:#000000;stroke-linecap:butt;stroke-width:0.5;" x="401.94140625" xlink:href="#m1a32005dea" y="215.178947368"/>
      </g>
     </g>
     <g id="text_23">
      <!-- 1.5 -->
      <g transform="translate(28.1859375 218.753166118)scale(0.1 -0.1)">
       <use xlink:href="#DejaVuSans-31"/>
       <use x="63.623046875" xlink:href="#DejaVuSans-2e"/>
       <use x="95.41015625" xlink:href="#DejaVuSans-35"/>
      </g>
     </g>
    </g>
    <g id="ytick_11">
     <g id="line2d_99">
      <g>
       <use style="stroke:#000000;stroke-linecap:butt;stroke-width:0.5;" x="46.1171875" xlink:href="#me8a85f7bf6" y="204.705263158"/>
      </g>
     </g>
     <g id="line2d_100">
      <g>
       <use style="stroke:#000000;stroke-linecap:butt;stroke-width:0.5;" x="401.94140625" xlink:href="#m1a32005dea" y="204.705263158"/>
      </g>
     </g>
     <g id="text_24">
      <!-- 2.0 -->
      <g transform="translate(27.6109375 208.345106908)scale(0.1 -0.1)">
       <use xlink:href="#DejaVuSans-32"/>
       <use x="63.623046875" xlink:href="#DejaVuSans-2e"/>
       <use x="95.41015625" xlink:href="#DejaVuSans-30"/>
      </g>
     </g>
    </g>
    <g id="ytick_12">
     <g id="line2d_101">
      <g>
       <use style="stroke:#000000;stroke-linecap:butt;stroke-width:0.5;" x="46.1171875" xlink:href="#me8a85f7bf6" y="194.231578947"/>
      </g>
     </g>
     <g id="line2d_102">
      <g>
       <use style="stroke:#000000;stroke-linecap:butt;stroke-width:0.5;" x="401.94140625" xlink:href="#m1a32005dea" y="194.231578947"/>
      </g>
     </g>
     <g id="text_25">
      <!-- 2.5 -->
      <g transform="translate(27.8203125 197.871422697)scale(0.1 -0.1)">
       <use xlink:href="#DejaVuSans-32"/>
       <use x="63.623046875" xlink:href="#DejaVuSans-2e"/>
       <use x="95.41015625" xlink:href="#DejaVuSans-35"/>
      </g>
     </g>
    </g>
    <g id="ytick_13">
     <g id="line2d_103">
      <g>
       <use style="stroke:#000000;stroke-linecap:butt;stroke-width:0.5;" x="46.1171875" xlink:href="#me8a85f7bf6" y="183.757894737"/>
      </g>
     </g>
     <g id="line2d_104">
      <g>
       <use style="stroke:#000000;stroke-linecap:butt;stroke-width:0.5;" x="401.94140625" xlink:href="#m1a32005dea" y="183.757894737"/>
      </g>
     </g>
     <g id="text_26">
      <!-- 3.0 -->
      <defs>
       <path d="
M40.5781 39.3125
Q47.6562 37.7969 51.625 33
Q55.6094 28.2188 55.6094 21.1875
Q55.6094 10.4062 48.1875 4.48438
Q40.7656 -1.42188 27.0938 -1.42188
Q22.5156 -1.42188 17.6562 -0.515625
Q12.7969 0.390625 7.625 2.20312
L7.625 11.7188
Q11.7188 9.32812 16.5938 8.10938
Q21.4844 6.89062 26.8125 6.89062
Q36.0781 6.89062 40.9375 10.5469
Q45.7969 14.2031 45.7969 21.1875
Q45.7969 27.6406 41.2812 31.2656
Q36.7656 34.9062 28.7188 34.9062
L20.2188 34.9062
L20.2188 43.0156
L29.1094 43.0156
Q36.375 43.0156 40.2344 45.9219
Q44.0938 48.8281 44.0938 54.2969
Q44.0938 59.9062 40.1094 62.9062
Q36.1406 65.9219 28.7188 65.9219
Q24.6562 65.9219 20.0156 65.0312
Q15.375 64.1562 9.8125 62.3125
L9.8125 71.0938
Q15.4375 72.6562 20.3438 73.4375
Q25.25 74.2188 29.5938 74.2188
Q40.8281 74.2188 47.3594 69.1094
Q53.9062 64.0156 53.9062 55.3281
Q53.9062 49.2656 50.4375 45.0938
Q46.9688 40.9219 40.5781 39.3125" id="DejaVuSans-33"/>
      </defs>
      <g transform="translate(27.640625 187.397738487)scale(0.1 -0.1)">
       <use xlink:href="#DejaVuSans-33"/>
       <use x="63.623046875" xlink:href="#DejaVuSans-2e"/>
       <use x="95.41015625" xlink:href="#DejaVuSans-30"/>
      </g>
     </g>
    </g>
    <g id="ytick_14">
     <g id="line2d_105">
      <g>
       <use style="stroke:#000000;stroke-linecap:butt;stroke-width:0.5;" x="46.1171875" xlink:href="#me8a85f7bf6" y="173.284210526"/>
      </g>
     </g>
     <g id="line2d_106">
      <g>
       <use style="stroke:#000000;stroke-linecap:butt;stroke-width:0.5;" x="401.94140625" xlink:href="#m1a32005dea" y="173.284210526"/>
      </g>
     </g>
     <g id="text_27">
      <!-- 3.5 -->
      <g transform="translate(27.85 176.924054276)scale(0.1 -0.1)">
       <use xlink:href="#DejaVuSans-33"/>
       <use x="63.623046875" xlink:href="#DejaVuSans-2e"/>
       <use x="95.41015625" xlink:href="#DejaVuSans-35"/>
      </g>
     </g>
    </g>
   </g>
   <g id="patch_8">
    <path d="
M46.1172 167
L401.941 167" style="fill:none;stroke:#000000;"/>
   </g>
   <g id="patch_9">
    <path d="
M401.941 246.6
L401.941 167" style="fill:none;stroke:#000000;"/>
   </g>
   <g id="patch_10">
    <path d="
M46.1172 246.6
L401.941 246.6" style="fill:none;stroke:#000000;"/>
   </g>
   <g id="patch_11">
    <path d="
M46.1172 246.6
L46.1172 167" style="fill:none;stroke:#000000;"/>
   </g>
   <g id="text_28">
    <!-- OLAP -->
    <defs>
     <path d="
M34.1875 63.1875
L20.7969 26.9062
L47.6094 26.9062
z

M28.6094 72.9062
L39.7969 72.9062
L67.5781 0
L57.3281 0
L50.6875 18.7031
L17.8281 18.7031
L11.1875 0
L0.78125 0
z
" id="DejaVuSans-41"/>
    </defs>
    <g transform="translate(208.646796875 162.0)scale(0.12 -0.12)">
     <use xlink:href="#DejaVuSans-4f"/>
     <use x="78.7109375" xlink:href="#DejaVuSans-4c"/>
     <use x="136.673828125" xlink:href="#DejaVuSans-41"/>
     <use x="205.08203125" xlink:href="#DejaVuSans-50"/>
    </g>
   </g>
  </g>
  <g id="text_29">
   <!-- 15 OLTP workers -->
   <defs>
    <path d="
M30.6094 48.3906
Q23.3906 48.3906 19.1875 42.75
Q14.9844 37.1094 14.9844 27.2969
Q14.9844 17.4844 19.1562 11.8438
Q23.3438 6.20312 30.6094 6.20312
Q37.7969 6.20312 41.9844 11.8594
Q46.1875 17.5312 46.1875 27.2969
Q46.1875 37.0156 41.9844 42.7031
Q37.7969 48.3906 30.6094 48.3906
M30.6094 56
Q42.3281 56 49.0156 48.375
Q55.7188 40.7656 55.7188 27.2969
Q55.7188 13.875 49.0156 6.21875
Q42.3281 -1.42188 30.6094 -1.42188
Q18.8438 -1.42188 12.1719 6.21875
Q5.51562 13.875 5.51562 27.2969
Q5.51562 40.7656 12.1719 48.375
Q18.8438 56 30.6094 56" id="DejaVuSans-6f"/>
    <path d="
M9.07812 75.9844
L18.1094 75.9844
L18.1094 31.1094
L44.9219 54.6875
L56.3906 54.6875
L27.3906 29.1094
L57.625 0
L45.9062 0
L18.1094 26.7031
L18.1094 0
L9.07812 0
z
" id="DejaVuSans-6b"/>
    <path id="DejaVuSans-20"/>
    <path d="
M4.20312 54.6875
L13.1875 54.6875
L24.4219 12.0156
L35.5938 54.6875
L46.1875 54.6875
L57.4219 12.0156
L68.6094 54.6875
L77.5938 54.6875
L63.2812 0
L52.6875 0
L40.9219 44.8281
L29.1094 0
L18.5 0
z
" id="DejaVuSans-77"/>
    <path d="
M44.2812 53.0781
L44.2812 44.5781
Q40.4844 46.5312 36.375 47.5
Q32.2812 48.4844 27.875 48.4844
Q21.1875 48.4844 17.8438 46.4375
Q14.5 44.3906 14.5 40.2812
Q14.5 37.1562 16.8906 35.375
Q19.2812 33.5938 26.5156 31.9844
L29.5938 31.2969
Q39.1562 29.25 43.1875 25.5156
Q47.2188 21.7812 47.2188 15.0938
Q47.2188 7.46875 41.1875 3.01562
Q35.1562 -1.42188 24.6094 -1.42188
Q20.2188 -1.42188 15.4531 -0.5625
Q10.6875 0.296875 5.42188 2
L5.42188 11.2812
Q10.4062 8.6875 15.2344 7.39062
Q20.0625 6.10938 24.8125 6.10938
Q31.1562 6.10938 34.5625 8.28125
Q37.9844 10.4531 37.9844 14.4062
Q37.9844 18.0625 35.5156 20.0156
Q33.0625 21.9688 24.7031 23.7812
L21.5781 24.5156
Q13.2344 26.2656 9.51562 29.9062
Q5.8125 33.5469 5.8125 39.8906
Q5.8125 47.6094 11.2812 51.7969
Q16.75 56 26.8125 56
Q31.7812 56 36.1719 55.2656
Q40.5781 54.5469 44.2812 53.0781" id="DejaVuSans-73"/>
    <path d="
M41.1094 46.2969
Q39.5938 47.1719 37.8125 47.5781
Q36.0312 48 33.8906 48
Q26.2656 48 22.1875 43.0469
Q18.1094 38.0938 18.1094 28.8125
L18.1094 0
L9.07812 0
L9.07812 54.6875
L18.1094 54.6875
L18.1094 46.1875
Q20.9531 51.1719 25.4844 53.5781
Q30.0312 56 36.5312 56
Q37.4531 56 38.5781 55.875
Q39.7031 55.7656 41.0625 55.5156
z
" id="DejaVuSans-72"/>
   </defs>
   <g transform="translate(174.9453125 13.3584375)scale(0.1 -0.1)">
    <use xlink:href="#DejaVuSans-31"/>
    <use x="63.623046875" xlink:href="#DejaVuSans-35"/>
    <use x="127.24609375" xlink:href="#DejaVuSans-20"/>
    <use x="159.033203125" xlink:href="#DejaVuSans-4f"/>
    <use x="237.744140625" xlink:href="#DejaVuSans-4c"/>
    <use x="279.70703125" xlink:href="#DejaVuSans-54"/>
    <use x="340.791015625" xlink:href="#DejaVuSans-50"/>
    <use x="401.09375" xlink:href="#DejaVuSans-20"/>
    <use x="432.880859375" xlink:href="#DejaVuSans-77"/>
    <use x="514.66796875" xlink:href="#DejaVuSans-6f"/>
    <use x="575.849609375" xlink:href="#DejaVuSans-72"/>
    <use x="616.962890625" xlink:href="#DejaVuSans-6b"/>
    <use x="671.248046875" xlink:href="#DejaVuSans-65"/>
    <use x="732.771484375" xlink:href="#DejaVuSans-72"/>
    <use x="773.884765625" xlink:href="#DejaVuSans-73"/>
   </g>
  </g>
 </g>
 <defs>
  <clipPath id="pe9bd9c4693">
   <rect height="79.6" width="355.82421875" x="46.1171875" y="167.0"/>
  </clipPath>
  <clipPath id="paafe9ad165">
   <rect height="79.6" width="355.82421875" x="46.1171875" y="32.0"/>
  </clipPath>
 </defs>
</svg>
