<?xml version="1.0" encoding="utf-8" standalone="no"?>
<!DOCTYPE svg PUBLIC "-//W3C//DTD SVG 1.1//EN"
  "http://www.w3.org/Graphics/SVG/1.1/DTD/svg11.dtd">
<!-- Created with matplotlib (http://matplotlib.sourceforge.net/) -->
<svg height="288pt" version="1.1" viewBox="0 0 432 288" width="432pt" xmlns="http://www.w3.org/2000/svg" xmlns:xlink="http://www.w3.org/1999/xlink">
 <defs>
  <style type="text/css">
*{stroke-linecap:square;stroke-linejoin:round;}
  </style>
 </defs>
 <g id="figure_1">
  <g id="patch_1">
   <path d="
M0 288
L432 288
L432 0
L0 0
z
" style="fill:#ffffff;"/>
  </g>
  <g id="axes_1">
   <g id="patch_2">
    <path d="
M46.1172 111.6
L401.941 111.6
L401.941 32
L46.1172 32
z
" style="fill:#ffffff;"/>
   </g>
   <g id="line2d_1">
    <path clip-path="url(#paafe9ad165)" d="
M56.7921 111.6
L56.7921 32" style="fill:none;stroke:#00ffff;stroke-dasharray:6.000000,6.000000;stroke-dashoffset:0.0;stroke-linecap:butt;"/>
   </g>
   <g id="line2d_2">
    <path clip-path="url(#paafe9ad165)" d="
M78.1416 111.6
L78.1416 32" style="fill:none;stroke:#00ffff;stroke-dasharray:6.000000,6.000000;stroke-dashoffset:0.0;stroke-linecap:butt;"/>
   </g>
   <g id="line2d_3">
    <path clip-path="url(#paafe9ad165)" d="
M78.1417 111.6
L78.1417 32" style="fill:none;stroke:#00ffff;stroke-dasharray:6.000000,6.000000;stroke-dashoffset:0.0;stroke-linecap:butt;"/>
   </g>
   <g id="line2d_4">
    <path clip-path="url(#paafe9ad165)" d="
M78.1418 111.6
L78.1418 32" style="fill:none;stroke:#00ffff;stroke-dasharray:6.000000,6.000000;stroke-dashoffset:0.0;stroke-linecap:butt;"/>
   </g>
   <g id="line2d_5">
    <path clip-path="url(#paafe9ad165)" d="
M78.1421 111.6
L78.1421 32" style="fill:none;stroke:#00ffff;stroke-dasharray:6.000000,6.000000;stroke-dashoffset:0.0;stroke-linecap:butt;"/>
   </g>
   <g id="line2d_6">
    <path clip-path="url(#paafe9ad165)" d="
M78.1435 111.6
L78.1435 32" style="fill:none;stroke:#00ffff;stroke-dasharray:6.000000,6.000000;stroke-dashoffset:0.0;stroke-linecap:butt;"/>
   </g>
   <g id="line2d_7">
    <path clip-path="url(#paafe9ad165)" d="
M99.4911 111.6
L99.4911 32" style="fill:none;stroke:#00ffff;stroke-dasharray:6.000000,6.000000;stroke-dashoffset:0.0;stroke-linecap:butt;"/>
   </g>
   <g id="line2d_8">
    <path clip-path="url(#paafe9ad165)" d="
M99.4913 111.6
L99.4913 32" style="fill:none;stroke:#00ffff;stroke-dasharray:6.000000,6.000000;stroke-dashoffset:0.0;stroke-linecap:butt;"/>
   </g>
   <g id="line2d_9">
    <path clip-path="url(#paafe9ad165)" d="
M99.4914 111.6
L99.4914 32" style="fill:none;stroke:#00ffff;stroke-dasharray:6.000000,6.000000;stroke-dashoffset:0.0;stroke-linecap:butt;"/>
   </g>
   <g id="line2d_10">
    <path clip-path="url(#paafe9ad165)" d="
M120.841 111.6
L120.841 32" style="fill:none;stroke:#00ffff;stroke-dasharray:6.000000,6.000000;stroke-dashoffset:0.0;stroke-linecap:butt;"/>
   </g>
   <g id="line2d_11">
    <path clip-path="url(#paafe9ad165)" d="
M120.841 111.6
L120.841 32" style="fill:none;stroke:#00ffff;stroke-dasharray:6.000000,6.000000;stroke-dashoffset:0.0;stroke-linecap:butt;"/>
   </g>
   <g id="line2d_12">
    <path clip-path="url(#paafe9ad165)" d="
M142.19 111.6
L142.19 32" style="fill:none;stroke:#00ffff;stroke-dasharray:6.000000,6.000000;stroke-dashoffset:0.0;stroke-linecap:butt;"/>
   </g>
   <g id="line2d_13">
    <path clip-path="url(#paafe9ad165)" d="
M142.19 111.6
L142.19 32" style="fill:none;stroke:#00ffff;stroke-dasharray:6.000000,6.000000;stroke-dashoffset:0.0;stroke-linecap:butt;"/>
   </g>
   <g id="line2d_14">
    <path clip-path="url(#paafe9ad165)" d="
M142.19 111.6
L142.19 32" style="fill:none;stroke:#00ffff;stroke-dasharray:6.000000,6.000000;stroke-dashoffset:0.0;stroke-linecap:butt;"/>
   </g>
   <g id="line2d_15">
    <path clip-path="url(#paafe9ad165)" d="
M163.54 111.6
L163.54 32" style="fill:none;stroke:#00ffff;stroke-dasharray:6.000000,6.000000;stroke-dashoffset:0.0;stroke-linecap:butt;"/>
   </g>
   <g id="line2d_16">
    <path clip-path="url(#paafe9ad165)" d="
M184.889 111.6
L184.889 32" style="fill:none;stroke:#00ffff;stroke-dasharray:6.000000,6.000000;stroke-dashoffset:0.0;stroke-linecap:butt;"/>
   </g>
   <g id="line2d_17">
    <path clip-path="url(#paafe9ad165)" d="
M184.889 111.6
L184.889 32" style="fill:none;stroke:#00ffff;stroke-dasharray:6.000000,6.000000;stroke-dashoffset:0.0;stroke-linecap:butt;"/>
   </g>
   <g id="line2d_18">
    <path clip-path="url(#paafe9ad165)" d="
M184.893 111.6
L184.893 32" style="fill:none;stroke:#00ffff;stroke-dasharray:6.000000,6.000000;stroke-dashoffset:0.0;stroke-linecap:butt;"/>
   </g>
   <g id="line2d_19">
    <path clip-path="url(#paafe9ad165)" d="
M206.239 111.6
L206.239 32" style="fill:none;stroke:#00ffff;stroke-dasharray:6.000000,6.000000;stroke-dashoffset:0.0;stroke-linecap:butt;"/>
   </g>
   <g id="line2d_20">
    <path clip-path="url(#paafe9ad165)" d="
M227.588 111.6
L227.588 32" style="fill:none;stroke:#00ffff;stroke-dasharray:6.000000,6.000000;stroke-dashoffset:0.0;stroke-linecap:butt;"/>
   </g>
   <g id="line2d_21">
    <path clip-path="url(#paafe9ad165)" d="
M227.588 111.6
L227.588 32" style="fill:none;stroke:#00ffff;stroke-dasharray:6.000000,6.000000;stroke-dashoffset:0.0;stroke-linecap:butt;"/>
   </g>
   <g id="line2d_22">
    <path clip-path="url(#paafe9ad165)" d="
M248.937 111.6
L248.937 32" style="fill:none;stroke:#00ffff;stroke-dasharray:6.000000,6.000000;stroke-dashoffset:0.0;stroke-linecap:butt;"/>
   </g>
   <g id="line2d_23">
    <path clip-path="url(#paafe9ad165)" d="
M248.937 111.6
L248.937 32" style="fill:none;stroke:#00ffff;stroke-dasharray:6.000000,6.000000;stroke-dashoffset:0.0;stroke-linecap:butt;"/>
   </g>
   <g id="line2d_24">
    <path clip-path="url(#paafe9ad165)" d="
M270.287 111.6
L270.287 32" style="fill:none;stroke:#00ffff;stroke-dasharray:6.000000,6.000000;stroke-dashoffset:0.0;stroke-linecap:butt;"/>
   </g>
   <g id="line2d_25">
    <path clip-path="url(#paafe9ad165)" d="
M291.636 111.6
L291.636 32" style="fill:none;stroke:#00ffff;stroke-dasharray:6.000000,6.000000;stroke-dashoffset:0.0;stroke-linecap:butt;"/>
   </g>
   <g id="line2d_26">
    <path clip-path="url(#paafe9ad165)" d="
M291.636 111.6
L291.636 32" style="fill:none;stroke:#00ffff;stroke-dasharray:6.000000,6.000000;stroke-dashoffset:0.0;stroke-linecap:butt;"/>
   </g>
   <g id="line2d_27">
    <path clip-path="url(#paafe9ad165)" d="
M291.636 111.6
L291.636 32" style="fill:none;stroke:#00ffff;stroke-dasharray:6.000000,6.000000;stroke-dashoffset:0.0;stroke-linecap:butt;"/>
   </g>
   <g id="line2d_28">
    <path clip-path="url(#paafe9ad165)" d="
M312.986 111.6
L312.986 32" style="fill:none;stroke:#00ffff;stroke-dasharray:6.000000,6.000000;stroke-dashoffset:0.0;stroke-linecap:butt;"/>
   </g>
   <g id="line2d_29">
    <path clip-path="url(#paafe9ad165)" d="
M312.986 111.6
L312.986 32" style="fill:none;stroke:#00ffff;stroke-dasharray:6.000000,6.000000;stroke-dashoffset:0.0;stroke-linecap:butt;"/>
   </g>
   <g id="line2d_30">
    <path clip-path="url(#paafe9ad165)" d="
M334.336 111.6
L334.336 32" style="fill:none;stroke:#00ffff;stroke-dasharray:6.000000,6.000000;stroke-dashoffset:0.0;stroke-linecap:butt;"/>
   </g>
   <g id="line2d_31">
    <path clip-path="url(#paafe9ad165)" d="
M355.684 111.6
L355.684 32" style="fill:none;stroke:#00ffff;stroke-dasharray:6.000000,6.000000;stroke-dashoffset:0.0;stroke-linecap:butt;"/>
   </g>
   <g id="line2d_32">
    <path clip-path="url(#paafe9ad165)" d="
M377.034 111.6
L377.034 32" style="fill:none;stroke:#00ffff;stroke-dasharray:6.000000,6.000000;stroke-dashoffset:0.0;stroke-linecap:butt;"/>
   </g>
   <g id="line2d_33">
    <path clip-path="url(#paafe9ad165)" d="
M377.034 111.6
L377.034 32" style="fill:none;stroke:#00ffff;stroke-dasharray:6.000000,6.000000;stroke-dashoffset:0.0;stroke-linecap:butt;"/>
   </g>
   <g id="line2d_34">
    <path clip-path="url(#paafe9ad165)" d="
M46.1172 62.4216
L46.1172 40.5099
L46.7043 40.5099
L46.7043 44.3114
L47.2914 44.3114
L47.2914 43.1633
L47.8785 43.1633
L47.8785 42.1888
L48.4656 42.1888
L48.4656 35.8208
L49.0527 35.8208
L49.0527 35.4445
L49.6398 35.4445
L49.6398 34.8463
L50.227 34.8463
L50.227 34.3059
L50.8141 34.3059
L50.8141 37.818
L51.4012 37.818
L51.4012 30.1282
L51.9883 30.1282
L51.9883 34.1516
L53.1625 34.1612
L53.1625 33.6402
L53.7496 33.6402
L53.7496 35.1936
L54.3367 35.1936
L54.3367 34.6822
L54.9238 34.6822
L54.9238 34.0937
L55.5109 34.0937
L55.5109 44.4176
L56.0981 44.4176
L56.0981 54.8862
L56.6852 54.8862
L56.6852 46.4534
L57.2723 46.4534
L57.2723 51.982
L57.8594 51.982
L57.8594 46.6464
L58.4465 46.6464
L58.4465 44.2342
L59.0336 44.2342
L59.0336 40.1433
L59.6207 40.1433
L59.6207 50.004
L60.2078 50.004
L60.2078 34.1709
L60.7949 34.1709
L60.7949 43.4238
L61.382 43.4238
L61.382 44.0992
L61.9691 44.0992
L61.9691 42.5072
L62.5563 42.5072
L62.5563 42.7001
L63.1434 42.7001
L63.1434 42.9221
L63.7305 42.9221
L63.7305 37.5768
L64.3176 37.5768
L64.3176 47.8814
L64.9047 47.8814
L64.9047 44.5237
L65.4918 44.5237
L65.4918 43.1054
L66.0789 43.1054
L66.0789 43.7615
L66.666 43.7615
L66.666 42.1502
L67.2531 42.1502
L67.2531 41.6581
L67.8402 41.6581
L67.8402 43.5878
L68.4274 43.5878
L68.4274 44.4465
L69.0145 44.4465
L69.0145 45.3535
L69.6016 45.3535
L69.6016 43.3273
L70.1887 43.3273
L70.1887 50.6601
L70.7758 50.6601
L70.7758 55.4458
L71.3629 55.4458
L71.3629 41.4651
L71.95 41.4651
L71.95 43.9834
L72.5371 43.9834
L72.5371 48.3542
L73.1242 48.3542
L73.1242 42.758
L73.7113 42.758
L73.7113 42.5554
L74.8856 42.4589
L74.8856 43.2115
L75.4727 43.2115
L75.4727 41.8511
L76.0598 41.8511
L76.0598 44.9772
L76.6469 44.9772
L76.6469 43.7422
L77.234 43.7422
L77.234 57.829
L77.8211 57.829
L77.8211 51.0461
L78.4082 51.0461
L78.4082 52.6477
L78.9953 52.6477
L78.9953 57.9062
L79.5824 57.9062
L79.5824 63.2225
L80.1695 63.2225
L80.1695 60.82
L80.7567 60.82
L80.7567 50.226
L81.3438 50.226
L81.3438 54.9441
L81.9309 54.9441
L81.9309 49.3672
L82.518 49.3672
L82.518 52.2039
L83.1051 52.2039
L83.1051 48.7883
L83.6922 48.7883
L83.6922 50.1488
L84.2793 50.1488
L84.2793 55.6967
L84.8664 55.6967
L84.8664 48.2963
L85.4535 48.2963
L85.4535 45.7877
L86.0406 45.7877
L86.0406 47.7463
L86.6278 47.7463
L86.6278 47.2928
L87.2149 47.2928
L87.2149 52.0206
L87.802 52.0206
L87.802 53.9599
L88.3891 53.9599
L88.3891 53.7091
L88.9762 53.7091
L88.9762 55.9282
L89.5633 55.9282
L89.5633 49.9269
L90.1504 49.9269
L90.1504 47.4568
L90.7375 47.4568
L90.7375 53.7766
L91.3246 53.7766
L91.3246 53.6512
L91.9117 53.6512
L91.9117 54.1818
L92.4989 54.1818
L92.4989 60.3279
L93.086 60.3279
L93.086 56.2177
L93.6731 56.2177
L93.6731 59.3534
L94.2602 59.3534
L94.2602 64.3224
L94.8473 64.3224
L94.8473 66.831
L95.4344 66.831
L95.4344 42.9124
L96.0215 42.9124
L96.0215 49.9654
L96.6086 49.9654
L96.6086 43.144
L97.1957 43.144
L97.1957 54.5678
L97.7828 54.5678
L97.7828 62.2673
L98.3699 62.2673
L98.3699 68.1721
L98.9571 68.1721
L98.9571 78.1294
L99.5442 78.1294
L99.5442 47.0998
L100.131 47.0998
L100.131 53.0144
L100.718 53.0144
L100.718 63.0392
L101.305 63.0392
L101.305 66.995
L101.893 66.995
L101.893 67.3906
L102.48 67.3906
L102.48 56.6422
L103.067 56.6422
L103.067 58.0798
L103.654 58.0798
L103.654 59.6525
L104.241 59.6525
L104.241 60.9937
L104.828 60.9937
L104.828 62.5278
L105.415 62.5278
L105.415 54.1625
L106.002 54.1625
L106.002 57.9062
L106.589 57.9062
L106.589 58.8131
L107.177 58.8131
L107.177 61.177
L107.764 61.177
L107.764 58.1377
L108.351 58.1377
L108.351 55.2432
L108.938 55.2432
L108.938 57.7421
L109.525 57.7421
L109.525 61.4086
L110.112 61.4086
L110.112 64.718
L110.699 64.718
L110.699 68.8765
L111.286 68.8765
L111.286 69.851
L111.873 69.851
L111.873 72.3403
L112.461 72.3403
L112.461 89.3892
L113.048 89.3892
L113.048 45.6429
L113.635 45.6429
L113.635 54.2397
L114.222 54.2397
L114.222 52.9372
L114.809 52.9372
L114.809 55.0599
L115.396 55.0599
L115.396 61.1577
L115.983 61.1577
L115.983 59.3438
L116.57 59.3438
L116.57 61.8138
L117.157 61.8138
L117.157 57.5106
L117.745 57.5106
L117.745 60.984
L118.332 60.984
L118.332 58.8035
L118.919 58.8035
L118.919 54.7318
L119.506 54.7318
L119.506 58.6008
L120.093 58.6008
L120.093 71.0377
L120.68 71.0377
L120.68 69.0695
L121.267 69.0695
L121.267 69.7545
L121.854 69.7545
L121.854 67.5739
L122.441 67.5739
L122.441 65.9819
L123.029 65.9819
L123.029 72.7455
L124.203 72.7262
L124.203 72.9482
L124.79 72.9482
L124.79 74.2893
L125.377 74.2893
L125.377 77.29
L125.964 77.29
L125.964 78.4188
L126.551 78.4188
L126.551 78.0619
L127.138 78.0619
L127.138 78.5636
L127.725 78.5636
L127.725 80.3775
L128.313 80.3775
L128.313 81.5643
L128.9 81.5643
L128.9 82.751
L129.487 82.751
L129.487 82.8764
L130.074 82.8764
L130.074 73.1894
L130.661 73.1894
L130.661 58.2053
L131.248 58.2053
L131.248 62.084
L131.835 62.084
L131.835 65.9626
L132.422 65.9626
L132.422 63.8786
L133.009 63.8786
L133.009 65.0943
L133.597 65.0943
L133.597 67.7862
L134.184 67.7862
L134.184 68.1046
L134.771 68.1046
L134.771 68.2783
L135.358 68.2783
L135.358 60.7525
L135.945 60.7525
L135.945 62.769
L136.532 62.769
L136.532 64.718
L137.119 64.718
L137.119 68.423
L137.706 68.423
L137.706 69.4457
L138.293 69.4457
L138.293 66.995
L138.881 66.995
L138.881 63.8303
L139.468 63.8303
L139.468 67.024
L140.055 67.024
L140.055 69.5712
L140.642 69.5712
L140.642 72.8999
L141.229 72.8999
L141.229 82.0081
L141.816 82.0081
L141.816 72.5719
L142.403 72.5719
L142.403 70.6036
L142.99 70.6036
L142.99 73.8841
L143.577 73.8841
L143.577 81.7283
L144.165 81.7283
L144.165 82.8282
L144.752 82.8282
L144.752 83.3589
L145.339 83.3589
L145.339 84.3527
L145.926 84.3527
L145.926 85.1052
L146.513 85.1052
L146.513 86.4078
L147.1 86.4078
L147.1 85.8289
L147.687 85.8289
L147.687 86.321
L148.274 86.321
L148.274 77.9171
L148.861 77.9171
L148.861 68.6546
L149.448 68.6546
L149.448 65.5574
L150.036 65.5574
L150.036 67.3038
L150.623 67.3038
L150.623 62.2576
L151.21 62.2576
L151.21 65.4802
L151.797 65.4802
L151.797 67.2555
L152.384 67.2555
L152.384 70.0247
L152.971 70.0247
L152.971 67.1591
L154.145 67.1398
L154.145 73.1315
L154.732 73.1315
L154.732 71.9447
L155.32 71.9447
L155.32 70.7869
L155.907 70.7869
L155.907 67.4003
L156.494 67.4003
L156.494 69.9957
L157.081 69.9957
L157.081 67.8634
L157.668 67.8634
L157.668 68.3651
L158.255 68.3651
L158.255 70.6711
L158.842 70.6711
L158.842 72.485
L159.429 72.485
L159.429 73.7972
L160.016 73.7972
L160.016 75.4085
L160.604 75.4085
L160.604 76.6532
L161.191 76.6532
L161.191 78.3127
L161.778 78.3127
L161.778 78.8241
L162.365 78.8241
L162.365 79.5574
L162.952 79.5574
L162.952 81.0722
L163.539 81.0722
L163.539 77.4058
L164.126 77.4058
L164.126 75.862
L164.713 75.862
L164.713 79.6346
L165.3 79.6346
L165.3 85.1728
L165.888 85.1728
L165.888 86.3403
L166.475 86.3403
L166.475 88.3568
L167.062 88.3568
L167.062 88.7813
L167.649 88.7813
L167.649 89.3023
L168.236 89.3023
L168.236 89.4471
L168.823 89.4471
L168.823 89.6497
L169.41 89.6497
L169.41 88.8489
L169.997 88.8489
L169.997 86.292
L170.584 86.292
L170.584 92.7469
L171.172 92.7469
L171.172 92.4863
L171.759 92.4863
L171.759 67.8055
L172.346 67.8055
L172.346 67.3424
L172.933 67.3424
L172.933 68.1625
L173.52 68.1625
L173.52 67.873
L174.107 67.873
L174.107 70.6615
L174.694 70.6615
L174.694 73.5464
L175.281 73.5464
L175.281 75.4857
L175.868 75.4857
L175.868 76.2865
L176.456 76.2865
L176.456 77.3865
L177.043 77.3865
L177.043 76.4023
L177.63 76.4023
L177.63 78.7951
L178.217 78.7951
L178.217 79.1907
L178.804 79.1907
L178.804 79.76
L179.391 79.76
L179.391 80.831
L179.978 80.831
L179.978 82.5195
L180.565 82.5195
L180.565 83.3492
L181.152 83.3492
L181.152 83.7448
L181.74 83.7448
L181.74 83.5036
L182.327 83.5036
L182.327 85.7228
L182.914 85.7228
L182.914 86.0412
L183.501 86.0412
L183.501 86.4464
L184.088 86.4464
L184.088 83.7738
L184.675 83.7738
L184.675 79.1521
L185.262 79.1521
L185.262 80.6573
L185.849 80.6573
L185.849 83.7448
L186.436 83.7448
L186.436 81.0432
L187.024 81.0432
L187.024 85.1245
L188.198 85.1921
L188.198 84.9991
L188.785 84.9991
L188.785 85.9447
L189.372 85.9447
L189.372 87.4016
L189.959 87.4016
L189.959 88.2989
L190.546 88.2989
L190.546 87.4884
L191.133 87.4884
L191.133 89.3699
L191.72 89.3699
L191.72 90.1997
L192.307 90.1997
L192.307 86.0219
L192.895 86.0219
L192.895 78.6311
L193.482 78.6311
L193.482 78.4285
L194.069 78.4285
L194.069 81.1108
L194.656 81.1108
L194.656 80.1266
L195.243 80.1266
L195.243 81.7669
L195.83 81.7669
L195.83 83.658
L196.417 83.658
L196.417 84.9605
L197.004 84.9605
L197.004 87.5463
L197.591 87.5463
L197.591 85.2596
L198.766 85.221
L198.766 85.4815
L199.353 85.4815
L199.353 87.0253
L199.94 87.0253
L199.94 91.3575
L200.527 91.3575
L200.527 87.4305
L201.114 87.4305
L201.114 88.4436
L201.701 88.4436
L201.701 87.8358
L202.288 87.8358
L202.288 87.72
L202.875 87.72
L202.875 90.4119
L203.463 90.4119
L203.463 90.7979
L204.05 90.7979
L204.05 91.0777
L204.637 91.0777
L204.637 90.547
L205.224 90.547
L205.224 91.3575
L205.811 91.3575
L205.811 90.1321
L206.398 90.1321
L206.398 86.7648
L206.985 86.7648
L206.985 84.8158
L207.572 84.8158
L207.572 88.0577
L208.159 88.0577
L208.159 92.9302
L208.747 92.9302
L208.747 93.9819
L209.334 93.9819
L209.334 93.6538
L209.921 93.6538
L209.921 93.2293
L210.508 93.2293
L210.508 93.8275
L211.095 93.8275
L211.095 90.875
L211.682 90.875
L211.682 91.1452
L212.269 91.1452
L212.269 90.4602
L212.856 90.4602
L212.856 91.5022
L213.443 91.5022
L213.443 89.997
L214.031 89.997
L214.031 91.7241
L214.618 91.7241
L214.618 92.1004
L215.205 92.1004
L215.205 92.6793
L215.792 92.6793
L215.792 94.802
L216.379 94.802
L216.379 92.9205
L216.966 92.9205
L216.966 93.046
L217.553 93.046
L217.553 88.1156
L218.14 88.1156
L218.14 76.8944
L218.727 76.8944
L218.727 100.504
L219.315 100.504
L219.315 89.4181
L219.902 89.4181
L219.902 75.5436
L220.489 75.5436
L220.489 79.4705
L221.076 79.4705
L221.076 81.7765
L221.663 81.7765
L221.663 82.4905
L222.25 82.4905
L222.25 82.8475
L222.837 82.8475
L222.837 80.5222
L223.424 80.5222
L223.424 83.137
L224.011 83.137
L224.011 83.7352
L224.599 83.7352
L224.599 85.6456
L225.186 85.6456
L225.186 88.3664
L225.773 88.3664
L225.773 88.598
L226.36 88.598
L226.36 91.4733
L226.947 91.4733
L226.947 87.2279
L227.534 87.2279
L227.534 81.2941
L228.121 81.2941
L228.121 89.0804
L228.708 89.0804
L228.708 83.9185
L229.295 83.9185
L229.295 84.2272
L229.883 84.2272
L229.883 86.9481
L230.47 86.9481
L230.47 88.5208
L231.057 88.5208
L231.057 83.9764
L231.644 83.9764
L231.644 85.5008
L232.231 85.5008
L232.231 84.3816
L232.818 84.3816
L232.818 83.301
L233.405 83.301
L233.405 83.8027
L233.992 83.8027
L233.992 86.9674
L234.579 86.9674
L234.579 85.7999
L235.167 85.7999
L235.167 83.5808
L235.754 83.5808
L235.754 89.7269
L236.341 89.7269
L236.341 88.9357
L236.928 88.9357
L236.928 87.199
L237.515 87.199
L237.515 88.7717
L238.102 88.7717
L238.102 87.1797
L238.689 87.1797
L238.689 88.8971
L239.276 88.8971
L239.276 89.5725
L239.863 89.5725
L239.863 85.9543
L240.45 85.9543
L240.45 86.2534
L241.038 86.2534
L241.038 89.862
L241.625 89.862
L241.625 83.137
L242.212 83.137
L242.212 71.5105
L242.799 71.5105
L242.799 84.3237
L243.386 84.3237
L243.386 87.9805
L243.973 87.9805
L243.973 86.7937
L244.56 86.7937
L244.56 85.607
L245.734 85.5684
L245.734 96.6062
L246.322 96.6062
L246.322 94.1362
L246.909 94.1362
L246.909 81.0336
L247.496 81.0336
L247.496 82.4809
L248.67 82.587
L248.67 82.5966
L249.257 82.5966
L249.257 81.7669
L249.844 81.7669
L249.844 83.0598
L250.431 83.0598
L250.431 84.9026
L251.018 84.9026
L251.018 85.3754
L251.606 85.3754
L251.606 84.8833
L252.193 84.8833
L252.193 86.3981
L252.78 86.3981
L252.78 84.1693
L253.367 84.1693
L253.367 86.9771
L253.954 86.9771
L253.954 83.4554
L254.541 83.4554
L254.541 83.6966
L255.128 83.6966
L255.128 85.5973
L255.715 85.5973
L255.715 83.1852
L256.302 83.1852
L256.302 82.2782
L256.89 82.2782
L256.89 82.6159
L257.477 82.6159
L257.477 83.5132
L258.064 83.5132
L258.064 86.7165
L258.651 86.7165
L258.651 88.241
L259.238 88.241
L259.238 87.3051
L259.825 87.3051
L259.825 86.9578
L260.412 86.9578
L260.412 88.4919
L260.999 88.4919
L260.999 80.1459
L262.174 80.2328
L262.174 80.8889
L262.761 80.8889
L262.761 80.4643
L263.348 80.4643
L263.348 82.7414
L263.935 82.7414
L263.935 83.0405
L264.522 83.0405
L264.522 82.8571
L265.109 82.8571
L265.109 83.5325
L265.696 83.5325
L265.696 85.1728
L266.283 85.1728
L266.283 86.6104
L267.458 86.6876
L267.458 82.4712
L268.045 82.4712
L268.045 73.6911
L268.632 73.6911
L268.632 72.5333
L269.219 72.5333
L269.219 77.1549
L269.806 77.1549
L269.806 85.8385
L270.393 85.8385
L270.393 85.6456
L270.98 85.6456
L270.98 78.9399
L271.567 78.9399
L271.567 78.6311
L272.154 78.6311
L272.154 81.4485
L272.742 81.4485
L272.742 85.7324
L273.329 85.7324
L273.329 84.5456
L273.916 84.5456
L273.916 87.1507
L274.503 87.1507
L274.503 85.0088
L275.09 85.0088
L275.09 86.9481
L275.677 86.9481
L275.677 85.5877
L276.851 85.5298
L276.851 86.6201
L277.438 86.6201
L277.438 88.9743
L278.026 88.9743
L278.026 88.5594
L279.2 88.5787
L279.2 85.9929
L279.787 85.9929
L279.787 84.2658
L280.374 84.2658
L280.374 84.6325
L280.961 84.6325
L280.961 85.8289
L281.548 85.8289
L281.548 87.0832
L282.135 87.0832
L282.135 85.9736
L282.722 85.9736
L282.722 85.742
L283.309 85.742
L283.309 88.0577
L283.897 88.0577
L283.897 85.5877
L284.484 85.5877
L284.484 78.9495
L285.071 78.9495
L285.071 76.2769
L285.658 76.2769
L285.658 75.9681
L286.245 75.9681
L286.245 77.29
L286.832 77.29
L286.832 81.2748
L287.419 81.2748
L287.419 80.5994
L288.006 80.5994
L288.006 80.3678
L288.593 80.3678
L288.593 108.165
L289.181 108.165
L289.181 89.0901
L289.768 89.0901
L289.768 84.4974
L290.355 84.4974
L290.355 83.9957
L290.942 83.9957
L290.942 86.3306
L291.529 86.3306
L291.529 81.1687
L292.116 81.1687
L292.116 85.0281
L292.703 85.0281
L292.703 84.5553
L293.29 84.5553
L293.29 85.7903
L293.877 85.7903
L293.877 86.0219
L294.465 86.0219
L294.465 85.4719
L295.052 85.4719
L295.052 86.9578
L295.639 86.9578
L295.639 86.649
L296.226 86.649
L296.226 88.1156
L296.813 88.1156
L296.813 84.4395
L297.4 84.4395
L297.4 82.1142
L297.987 82.1142
L297.987 81.8248
L298.574 81.8248
L298.574 85.9254
L299.161 85.9254
L299.161 83.7641
L299.749 83.7641
L299.749 85.2789
L300.336 85.2789
L300.336 88.2796
L300.923 88.2796
L300.923 86.292
L301.51 86.292
L301.51 86.485
L302.097 86.485
L302.097 85.9929
L302.684 85.9929
L302.684 90.8943
L303.271 90.8943
L303.271 87.4884
L303.858 87.4884
L303.858 89.6014
L304.445 89.6014
L304.445 93.7599
L305.033 93.7599
L305.033 89.6207
L305.62 89.6207
L305.62 88.5401
L306.207 88.5401
L306.207 90.1997
L306.794 90.1997
L306.794 89.7751
L307.381 89.7751
L307.381 90.6145
L307.968 90.6145
L307.968 89.8523
L308.555 89.8523
L308.555 87.334
L309.142 87.334
L309.142 90.7303
L309.729 90.7303
L309.729 88.4147
L310.317 88.4147
L310.317 87.5367
L310.904 87.5367
L310.904 89.6207
L311.491 89.6207
L311.491 91.5794
L312.078 91.5794
L312.078 89.997
L312.665 89.997
L312.665 92.5153
L313.252 92.5153
L313.252 94.9949
L313.839 94.9949
L313.839 92.5056
L314.426 92.5056
L314.426 102.598
L315.013 102.598
L315.013 110.066
L315.601 110.066
L315.601 78.2741
L316.188 78.2741
L316.188 77.1645
L316.775 77.1645
L316.775 74.5209
L317.362 74.5209
L317.362 77.8399
L317.949 77.8399
L317.949 74.1253
L319.123 74.0288
L319.123 73.4016
L319.71 73.4016
L319.71 73.1508
L320.297 73.1508
L320.297 75.4761
L320.885 75.4761
L320.885 80.8503
L321.472 80.8503
L321.472 80.4933
L322.059 80.4933
L322.059 80.7441
L322.646 80.7441
L322.646 88.0963
L323.82 88.048
L323.82 85.5684
L324.407 85.5684
L324.407 86.2148
L325.581 86.1376
L325.581 85.4429
L326.169 85.4429
L326.169 85.8771
L326.756 85.8771
L326.756 86.0797
L327.343 86.0797
L327.343 89.8909
L327.93 89.8909
L327.93 84.8061
L328.517 84.8061
L328.517 86.1376
L329.104 86.1376
L329.104 87.2858
L329.691 87.2858
L329.691 88.0577
L330.278 88.0577
L330.278 87.0928
L330.865 87.0928
L330.865 91.4057
L331.452 91.4057
L331.452 89.862
L332.04 89.862
L332.04 86.8034
L332.627 86.8034
L332.627 90.1514
L333.214 90.1514
L333.214 89.8523
L333.801 89.8523
L333.801 91.2224
L334.388 91.2224
L334.388 91.0584
L334.975 91.0584
L334.975 89.1576
L335.562 89.1576
L335.562 93.1038
L336.149 93.1038
L336.149 88.4822
L336.736 88.4822
L336.736 87.9998
L337.324 87.9998
L337.324 88.6269
L337.911 88.6269
L337.911 95.2169
L338.498 95.2169
L338.498 92.139
L339.085 92.139
L339.085 88.7331
L339.672 88.7331
L339.672 91.946
L340.259 91.946
L340.259 88.2989
L340.846 88.2989
L340.846 89.5628
L341.433 89.5628
L341.433 90.4891
L342.02 90.4891
L342.02 102.868
L342.608 102.868
L342.608 92.0329
L343.195 92.0329
L343.195 87.2762
L343.782 87.2762
L343.782 86.2824
L344.369 86.2824
L344.369 88.2507
L344.956 88.2507
L344.956 88.4436
L346.13 88.3664
L346.13 86.7937
L346.717 86.7937
L346.717 89.3313
L347.304 89.3313
L347.304 87.8744
L347.892 87.8744
L347.892 90.3637
L349.066 90.2672
L349.066 89.1673
L349.653 89.1673
L349.653 92.4188
L350.24 92.4188
L350.24 87.006
L350.827 87.006
L350.827 90.7593
L351.414 90.7593
L351.414 102.106
L352.001 102.106
L352.001 90.4795
L352.588 90.4795
L352.588 89.5436
L353.176 89.5436
L353.176 93.6152
L353.763 93.6152
L353.763 92.6214
L354.35 92.6214
L354.35 93.6152
L354.937 93.6152
L354.937 88.434
L355.524 88.434
L355.524 86.9288
L356.111 86.9288
L356.111 98.9219
L356.698 98.9219
L356.698 111.6
L357.285 111.6
L357.285 95.3133
L357.872 95.3133
L357.872 88.241
L359.047 88.3182
L359.047 89.9295
L359.634 89.9295
L359.634 89.0515
L360.221 89.0515
L360.221 93.5959
L360.808 93.5959
L360.808 87.7586
L361.395 87.7586
L361.395 88.6848
L361.982 88.6848
L361.982 84.1886
L362.569 84.1886
L362.569 84.3237
L363.156 84.3237
L363.156 89.8427
L363.744 89.8427
L363.744 85.7228
L364.331 85.7228
L364.331 87.2472
L364.918 87.2472
L364.918 86.9192
L365.505 86.9192
L365.505 87.9419
L366.092 87.9419
L366.092 86.678
L366.679 86.678
L366.679 88.6655
L367.266 88.6655
L367.266 88.3182
L367.853 88.3182
L367.853 87.7489
L368.44 87.7489
L368.44 87.0735
L369.028 87.0735
L369.028 87.4112
L369.615 87.4112
L369.615 87.6042
L370.202 87.6042
L370.202 89.1287
L370.789 89.1287
L370.789 88.2796
L371.376 88.2796
L371.376 87.9419
L371.963 87.9419
L371.963 79.1425
L372.55 79.1425
L372.55 76.9426
L373.137 76.9426
L373.137 92.9012
L373.724 92.9012
L373.724 108.416
L374.311 108.416
L374.311 73.3148
L374.899 73.3148
L374.899 79.046
L375.486 79.046
L375.486 76.933
L376.073 76.933
L376.073 82.037
L376.66 82.037
L376.66 80.8696
L377.247 80.8696
L377.247 101.498
L377.834 101.498
L377.834 87.6621
L378.421 87.6621
L378.421 84.6421
L379.008 84.6421
L379.008 84.0825
L379.595 84.0825
L379.595 90.0742
L380.183 90.0742
L380.183 86.1569
L380.77 86.1569
L380.77 83.4939
L381.357 83.4939
L381.357 86.2727
L381.944 86.2727
L381.944 88.8875
L382.531 88.8875
L382.531 89.4374
L383.118 89.4374
L383.118 87.7586
L383.705 87.7586
L383.705 87.0832
L384.292 87.0832
L384.292 87.5946
L384.879 87.5946
L384.879 89.3023
L385.467 89.3023
L385.467 90.2961
L386.054 90.2961
L386.054 111.6
L386.641 111.6
L386.641 100.639
L387.228 100.639
L387.228 89.7365
L387.815 89.7365
L387.815 89.3795
L388.402 89.3795
L388.402 92.6021
L388.989 92.6021
L388.989 90.6435
L390.163 90.5373
L390.163 88.6848
L390.751 88.6848
L390.751 92.4863
L391.338 92.4863
L391.338 89.4857
L391.925 89.4857
L391.925 96.5387
L392.512 96.5387
L392.512 98.5263
L393.099 98.5263
L393.099 96.0949
L393.686 96.0949
L393.686 103.534
L394.273 103.534
L394.273 92.1486
L394.86 92.1486
L394.86 90.9908
L395.447 90.9908
L395.447 93.7599
L396.035 93.7599
L396.035 95.9887
L396.622 95.9887
L396.622 94.4739
L397.209 94.4739
L397.209 94.2134
L397.796 94.2134
L397.796 94.2134" style="fill:none;stroke:#0000ff;"/>
   </g>
   <g id="matplotlib.axis_1">
    <g id="xtick_1">
     <g id="line2d_35">
      <defs>
       <path d="
M0 0
L0 -4" id="m0012dd4eef" style="stroke:#000000;stroke-linecap:butt;stroke-width:0.5;"/>
      </defs>
      <g>
       <use style="stroke:#000000;stroke-linecap:butt;stroke-width:0.5;" x="46.1171875" xlink:href="#m0012dd4eef" y="111.6"/>
      </g>
     </g>
     <g id="line2d_36">
      <defs>
       <path d="
M0 0
L0 4" id="m476344969c" style="stroke:#000000;stroke-linecap:butt;stroke-width:0.5;"/>
      </defs>
      <g>
       <use style="stroke:#000000;stroke-linecap:butt;stroke-width:0.5;" x="46.1171875" xlink:href="#m476344969c" y="32.0"/>
      </g>
     </g>
     <g id="text_1">
      <!-- 0 -->
      <defs>
       <path d="
M31.7812 66.4062
Q24.1719 66.4062 20.3281 58.9062
Q16.5 51.4219 16.5 36.375
Q16.5 21.3906 20.3281 13.8906
Q24.1719 6.39062 31.7812 6.39062
Q39.4531 6.39062 43.2812 13.8906
Q47.125 21.3906 47.125 36.375
Q47.125 51.4219 43.2812 58.9062
Q39.4531 66.4062 31.7812 66.4062
M31.7812 74.2188
Q44.0469 74.2188 50.5156 64.5156
Q56.9844 54.8281 56.9844 36.375
Q56.9844 17.9688 50.5156 8.26562
Q44.0469 -1.42188 31.7812 -1.42188
Q19.5312 -1.42188 13.0625 8.26562
Q6.59375 17.9688 6.59375 36.375
Q6.59375 54.8281 13.0625 64.5156
Q19.5312 74.2188 31.7812 74.2188" id="DejaVuSans-30"/>
      </defs>
      <g transform="translate(43.59765625 123.021875)scale(0.1 -0.1)">
       <use xlink:href="#DejaVuSans-30"/>
      </g>
     </g>
    </g>
    <g id="xtick_2">
     <g id="line2d_37">
      <g>
       <use style="stroke:#000000;stroke-linecap:butt;stroke-width:0.5;" x="135.073242188" xlink:href="#m0012dd4eef" y="111.6"/>
      </g>
     </g>
     <g id="line2d_38">
      <g>
       <use style="stroke:#000000;stroke-linecap:butt;stroke-width:0.5;" x="135.073242188" xlink:href="#m476344969c" y="32.0"/>
      </g>
     </g>
     <g id="text_2">
      <!-- 500 -->
      <defs>
       <path d="
M10.7969 72.9062
L49.5156 72.9062
L49.5156 64.5938
L19.8281 64.5938
L19.8281 46.7344
Q21.9688 47.4688 24.1094 47.8281
Q26.2656 48.1875 28.4219 48.1875
Q40.625 48.1875 47.75 41.5
Q54.8906 34.8125 54.8906 23.3906
Q54.8906 11.625 47.5625 5.09375
Q40.2344 -1.42188 26.9062 -1.42188
Q22.3125 -1.42188 17.5469 -0.640625
Q12.7969 0.140625 7.71875 1.70312
L7.71875 11.625
Q12.1094 9.23438 16.7969 8.0625
Q21.4844 6.89062 26.7031 6.89062
Q35.1562 6.89062 40.0781 11.3281
Q45.0156 15.7656 45.0156 23.3906
Q45.0156 31 40.0781 35.4375
Q35.1562 39.8906 26.7031 39.8906
Q22.75 39.8906 18.8125 39.0156
Q14.8906 38.1406 10.7969 36.2812
z
" id="DejaVuSans-35"/>
      </defs>
      <g transform="translate(126.247460938 123.021875)scale(0.1 -0.1)">
       <use xlink:href="#DejaVuSans-35"/>
       <use x="63.623046875" xlink:href="#DejaVuSans-30"/>
       <use x="127.24609375" xlink:href="#DejaVuSans-30"/>
      </g>
     </g>
    </g>
    <g id="xtick_3">
     <g id="line2d_39">
      <g>
       <use style="stroke:#000000;stroke-linecap:butt;stroke-width:0.5;" x="224.029296875" xlink:href="#m0012dd4eef" y="111.6"/>
      </g>
     </g>
     <g id="line2d_40">
      <g>
       <use style="stroke:#000000;stroke-linecap:butt;stroke-width:0.5;" x="224.029296875" xlink:href="#m476344969c" y="32.0"/>
      </g>
     </g>
     <g id="text_3">
      <!-- 1000 -->
      <defs>
       <path d="
M12.4062 8.29688
L28.5156 8.29688
L28.5156 63.9219
L10.9844 60.4062
L10.9844 69.3906
L28.4219 72.9062
L38.2812 72.9062
L38.2812 8.29688
L54.3906 8.29688
L54.3906 0
L12.4062 0
z
" id="DejaVuSans-31"/>
      </defs>
      <g transform="translate(212.185546875 123.021875)scale(0.1 -0.1)">
       <use xlink:href="#DejaVuSans-31"/>
       <use x="63.623046875" xlink:href="#DejaVuSans-30"/>
       <use x="127.24609375" xlink:href="#DejaVuSans-30"/>
       <use x="190.869140625" xlink:href="#DejaVuSans-30"/>
      </g>
     </g>
    </g>
    <g id="xtick_4">
     <g id="line2d_41">
      <g>
       <use style="stroke:#000000;stroke-linecap:butt;stroke-width:0.5;" x="312.985351563" xlink:href="#m0012dd4eef" y="111.6"/>
      </g>
     </g>
     <g id="line2d_42">
      <g>
       <use style="stroke:#000000;stroke-linecap:butt;stroke-width:0.5;" x="312.985351563" xlink:href="#m476344969c" y="32.0"/>
      </g>
     </g>
     <g id="text_4">
      <!-- 1500 -->
      <g transform="translate(301.141601563 123.021875)scale(0.1 -0.1)">
       <use xlink:href="#DejaVuSans-31"/>
       <use x="63.623046875" xlink:href="#DejaVuSans-35"/>
       <use x="127.24609375" xlink:href="#DejaVuSans-30"/>
       <use x="190.869140625" xlink:href="#DejaVuSans-30"/>
      </g>
     </g>
    </g>
    <g id="xtick_5">
     <g id="line2d_43">
      <g>
       <use style="stroke:#000000;stroke-linecap:butt;stroke-width:0.5;" x="401.94140625" xlink:href="#m0012dd4eef" y="111.6"/>
      </g>
     </g>
     <g id="line2d_44">
      <g>
       <use style="stroke:#000000;stroke-linecap:butt;stroke-width:0.5;" x="401.94140625" xlink:href="#m476344969c" y="32.0"/>
      </g>
     </g>
     <g id="text_5">
      <!-- 2000 -->
      <defs>
       <path d="
M19.1875 8.29688
L53.6094 8.29688
L53.6094 0
L7.32812 0
L7.32812 8.29688
Q12.9375 14.1094 22.625 23.8906
Q32.3281 33.6875 34.8125 36.5312
Q39.5469 41.8438 41.4219 45.5312
Q43.3125 49.2188 43.3125 52.7812
Q43.3125 58.5938 39.2344 62.25
Q35.1562 65.9219 28.6094 65.9219
Q23.9688 65.9219 18.8125 64.3125
Q13.6719 62.7031 7.8125 59.4219
L7.8125 69.3906
Q13.7656 71.7812 18.9375 73
Q24.125 74.2188 28.4219 74.2188
Q39.75 74.2188 46.4844 68.5469
Q53.2188 62.8906 53.2188 53.4219
Q53.2188 48.9219 51.5312 44.8906
Q49.8594 40.875 45.4062 35.4062
Q44.1875 33.9844 37.6406 27.2188
Q31.1094 20.4531 19.1875 8.29688" id="DejaVuSans-32"/>
      </defs>
      <g transform="translate(389.91484375 123.021875)scale(0.1 -0.1)">
       <use xlink:href="#DejaVuSans-32"/>
       <use x="63.623046875" xlink:href="#DejaVuSans-30"/>
       <use x="127.24609375" xlink:href="#DejaVuSans-30"/>
       <use x="190.869140625" xlink:href="#DejaVuSans-30"/>
      </g>
     </g>
    </g>
    <g id="text_6">
     <!-- Time -->
     <defs>
      <path d="
M52 44.1875
Q55.375 50.25 60.0625 53.125
Q64.75 56 71.0938 56
Q79.6406 56 84.2812 50.0156
Q88.9219 44.0469 88.9219 33.0156
L88.9219 0
L79.8906 0
L79.8906 32.7188
Q79.8906 40.5781 77.0938 44.375
Q74.3125 48.1875 68.6094 48.1875
Q61.625 48.1875 57.5625 43.5469
Q53.5156 38.9219 53.5156 30.9062
L53.5156 0
L44.4844 0
L44.4844 32.7188
Q44.4844 40.625 41.7031 44.4062
Q38.9219 48.1875 33.1094 48.1875
Q26.2188 48.1875 22.1562 43.5312
Q18.1094 38.875 18.1094 30.9062
L18.1094 0
L9.07812 0
L9.07812 54.6875
L18.1094 54.6875
L18.1094 46.1875
Q21.1875 51.2188 25.4844 53.6094
Q29.7812 56 35.6875 56
Q41.6562 56 45.8281 52.9688
Q50 49.9531 52 44.1875" id="DejaVuSans-6d"/>
      <path d="
M9.42188 54.6875
L18.4062 54.6875
L18.4062 0
L9.42188 0
z

M9.42188 75.9844
L18.4062 75.9844
L18.4062 64.5938
L9.42188 64.5938
z
" id="DejaVuSans-69"/>
      <path d="
M56.2031 29.5938
L56.2031 25.2031
L14.8906 25.2031
Q15.4844 15.9219 20.4844 11.0625
Q25.4844 6.20312 34.4219 6.20312
Q39.5938 6.20312 44.4531 7.46875
Q49.3125 8.73438 54.1094 11.2812
L54.1094 2.78125
Q49.2656 0.734375 44.1875 -0.34375
Q39.1094 -1.42188 33.8906 -1.42188
Q20.7969 -1.42188 13.1562 6.1875
Q5.51562 13.8125 5.51562 26.8125
Q5.51562 40.2344 12.7656 48.1094
Q20.0156 56 32.3281 56
Q43.3594 56 49.7812 48.8906
Q56.2031 41.7969 56.2031 29.5938
M47.2188 32.2344
Q47.125 39.5938 43.0938 43.9844
Q39.0625 48.3906 32.4219 48.3906
Q24.9062 48.3906 20.3906 44.1406
Q15.875 39.8906 15.1875 32.1719
z
" id="DejaVuSans-65"/>
      <path d="
M-0.296875 72.9062
L61.375 72.9062
L61.375 64.5938
L35.5 64.5938
L35.5 0
L25.5938 0
L25.5938 64.5938
L-0.296875 64.5938
z
" id="DejaVuSans-54"/>
     </defs>
     <g transform="translate(212.047265625 135.7625)scale(0.1 -0.1)">
      <use xlink:href="#DejaVuSans-54"/>
      <use x="57.958984375" xlink:href="#DejaVuSans-69"/>
      <use x="85.7421875" xlink:href="#DejaVuSans-6d"/>
      <use x="183.154296875" xlink:href="#DejaVuSans-65"/>
     </g>
    </g>
   </g>
   <g id="matplotlib.axis_2">
    <g id="ytick_1">
     <g id="line2d_45">
      <defs>
       <path d="
M0 0
L4 0" id="me8a85f7bf6" style="stroke:#000000;stroke-linecap:butt;stroke-width:0.5;"/>
      </defs>
      <g>
       <use style="stroke:#000000;stroke-linecap:butt;stroke-width:0.5;" x="46.1171875" xlink:href="#me8a85f7bf6" y="111.6"/>
      </g>
     </g>
     <g id="line2d_46">
      <defs>
       <path d="
M0 0
L-4 0" id="m1a32005dea" style="stroke:#000000;stroke-linecap:butt;stroke-width:0.5;"/>
      </defs>
      <g>
       <use style="stroke:#000000;stroke-linecap:butt;stroke-width:0.5;" x="401.94140625" xlink:href="#m1a32005dea" y="111.6"/>
      </g>
     </g>
     <g id="text_7">
      <!-- 0 -->
      <g transform="translate(37.078125 115.23984375)scale(0.1 -0.1)">
       <use xlink:href="#DejaVuSans-30"/>
      </g>
     </g>
    </g>
    <g id="ytick_2">
     <g id="line2d_47">
      <g>
       <use style="stroke:#000000;stroke-linecap:butt;stroke-width:0.5;" x="46.1171875" xlink:href="#me8a85f7bf6" y="95.68"/>
      </g>
     </g>
     <g id="line2d_48">
      <g>
       <use style="stroke:#000000;stroke-linecap:butt;stroke-width:0.5;" x="401.94140625" xlink:href="#m1a32005dea" y="95.68"/>
      </g>
     </g>
     <g id="text_8">
      <!-- 500 -->
      <g transform="translate(24.465625 99.31984375)scale(0.1 -0.1)">
       <use xlink:href="#DejaVuSans-35"/>
       <use x="63.623046875" xlink:href="#DejaVuSans-30"/>
       <use x="127.24609375" xlink:href="#DejaVuSans-30"/>
      </g>
     </g>
    </g>
    <g id="ytick_3">
     <g id="line2d_49">
      <g>
       <use style="stroke:#000000;stroke-linecap:butt;stroke-width:0.5;" x="46.1171875" xlink:href="#me8a85f7bf6" y="79.76"/>
      </g>
     </g>
     <g id="line2d_50">
      <g>
       <use style="stroke:#000000;stroke-linecap:butt;stroke-width:0.5;" x="401.94140625" xlink:href="#m1a32005dea" y="79.76"/>
      </g>
     </g>
     <g id="text_9">
      <!-- 1000 -->
      <g transform="translate(18.4296875 83.39984375)scale(0.1 -0.1)">
       <use xlink:href="#DejaVuSans-31"/>
       <use x="63.623046875" xlink:href="#DejaVuSans-30"/>
       <use x="127.24609375" xlink:href="#DejaVuSans-30"/>
       <use x="190.869140625" xlink:href="#DejaVuSans-30"/>
      </g>
     </g>
    </g>
    <g id="ytick_4">
     <g id="line2d_51">
      <g>
       <use style="stroke:#000000;stroke-linecap:butt;stroke-width:0.5;" x="46.1171875" xlink:href="#me8a85f7bf6" y="63.84"/>
      </g>
     </g>
     <g id="line2d_52">
      <g>
       <use style="stroke:#000000;stroke-linecap:butt;stroke-width:0.5;" x="401.94140625" xlink:href="#m1a32005dea" y="63.84"/>
      </g>
     </g>
     <g id="text_10">
      <!-- 1500 -->
      <g transform="translate(18.4296875 67.47984375)scale(0.1 -0.1)">
       <use xlink:href="#DejaVuSans-31"/>
       <use x="63.623046875" xlink:href="#DejaVuSans-35"/>
       <use x="127.24609375" xlink:href="#DejaVuSans-30"/>
       <use x="190.869140625" xlink:href="#DejaVuSans-30"/>
      </g>
     </g>
    </g>
    <g id="ytick_5">
     <g id="line2d_53">
      <g>
       <use style="stroke:#000000;stroke-linecap:butt;stroke-width:0.5;" x="46.1171875" xlink:href="#me8a85f7bf6" y="47.92"/>
      </g>
     </g>
     <g id="line2d_54">
      <g>
       <use style="stroke:#000000;stroke-linecap:butt;stroke-width:0.5;" x="401.94140625" xlink:href="#m1a32005dea" y="47.92"/>
      </g>
     </g>
     <g id="text_11">
      <!-- 2000 -->
      <g transform="translate(18.0640625 51.55984375)scale(0.1 -0.1)">
       <use xlink:href="#DejaVuSans-32"/>
       <use x="63.623046875" xlink:href="#DejaVuSans-30"/>
       <use x="127.24609375" xlink:href="#DejaVuSans-30"/>
       <use x="190.869140625" xlink:href="#DejaVuSans-30"/>
      </g>
     </g>
    </g>
    <g id="ytick_6">
     <g id="line2d_55">
      <g>
       <use style="stroke:#000000;stroke-linecap:butt;stroke-width:0.5;" x="46.1171875" xlink:href="#me8a85f7bf6" y="32.0"/>
      </g>
     </g>
     <g id="line2d_56">
      <g>
       <use style="stroke:#000000;stroke-linecap:butt;stroke-width:0.5;" x="401.94140625" xlink:href="#m1a32005dea" y="32.0"/>
      </g>
     </g>
     <g id="text_12">
      <!-- 2500 -->
      <g transform="translate(18.0640625 35.63984375)scale(0.1 -0.1)">
       <use xlink:href="#DejaVuSans-32"/>
       <use x="63.623046875" xlink:href="#DejaVuSans-35"/>
       <use x="127.24609375" xlink:href="#DejaVuSans-30"/>
       <use x="190.869140625" xlink:href="#DejaVuSans-30"/>
      </g>
     </g>
    </g>
   </g>
   <g id="patch_3">
    <path d="
M46.1172 32
L401.941 32" style="fill:none;stroke:#000000;"/>
   </g>
   <g id="patch_4">
    <path d="
M401.941 111.6
L401.941 32" style="fill:none;stroke:#000000;"/>
   </g>
   <g id="patch_5">
    <path d="
M46.1172 111.6
L401.941 111.6" style="fill:none;stroke:#000000;"/>
   </g>
   <g id="patch_6">
    <path d="
M46.1172 111.6
L46.1172 32" style="fill:none;stroke:#000000;"/>
   </g>
   <g id="text_13">
    <!-- OLTP -->
    <defs>
     <path d="
M39.4062 66.2188
Q28.6562 66.2188 22.3281 58.2031
Q16.0156 50.2031 16.0156 36.375
Q16.0156 22.6094 22.3281 14.5938
Q28.6562 6.59375 39.4062 6.59375
Q50.1406 6.59375 56.4219 14.5938
Q62.7031 22.6094 62.7031 36.375
Q62.7031 50.2031 56.4219 58.2031
Q50.1406 66.2188 39.4062 66.2188
M39.4062 74.2188
Q54.7344 74.2188 63.9062 63.9375
Q73.0938 53.6562 73.0938 36.375
Q73.0938 19.1406 63.9062 8.85938
Q54.7344 -1.42188 39.4062 -1.42188
Q24.0312 -1.42188 14.8125 8.82812
Q5.60938 19.0938 5.60938 36.375
Q5.60938 53.6562 14.8125 63.9375
Q24.0312 74.2188 39.4062 74.2188" id="DejaVuSans-4f"/>
     <path d="
M19.6719 64.7969
L19.6719 37.4062
L32.0781 37.4062
Q38.9688 37.4062 42.7188 40.9688
Q46.4844 44.5312 46.4844 51.125
Q46.4844 57.6719 42.7188 61.2344
Q38.9688 64.7969 32.0781 64.7969
z

M9.8125 72.9062
L32.0781 72.9062
Q44.3438 72.9062 50.6094 67.3594
Q56.8906 61.8125 56.8906 51.125
Q56.8906 40.3281 50.6094 34.8125
Q44.3438 29.2969 32.0781 29.2969
L19.6719 29.2969
L19.6719 0
L9.8125 0
z
" id="DejaVuSans-50"/>
     <path d="
M9.8125 72.9062
L19.6719 72.9062
L19.6719 8.29688
L55.1719 8.29688
L55.1719 0
L9.8125 0
z
" id="DejaVuSans-4c"/>
    </defs>
    <g transform="translate(210.046484375 27.0)scale(0.12 -0.12)">
     <use xlink:href="#DejaVuSans-4f"/>
     <use x="78.7109375" xlink:href="#DejaVuSans-4c"/>
     <use x="120.673828125" xlink:href="#DejaVuSans-54"/>
     <use x="181.7578125" xlink:href="#DejaVuSans-50"/>
    </g>
   </g>
  </g>
  <g id="axes_2">
   <g id="patch_7">
    <path d="
M46.1172 246.6
L401.941 246.6
L401.941 167
L46.1172 167
z
" style="fill:#ffffff;"/>
   </g>
   <g id="line2d_57">
    <path clip-path="url(#pe9bd9c4693)" d="
M56.7921 246.6
L56.7921 167" style="fill:none;stroke:#00ffff;stroke-dasharray:6.000000,6.000000;stroke-dashoffset:0.0;stroke-linecap:butt;"/>
   </g>
   <g id="line2d_58">
    <path clip-path="url(#pe9bd9c4693)" d="
M78.1416 246.6
L78.1416 167" style="fill:none;stroke:#00ffff;stroke-dasharray:6.000000,6.000000;stroke-dashoffset:0.0;stroke-linecap:butt;"/>
   </g>
   <g id="line2d_59">
    <path clip-path="url(#pe9bd9c4693)" d="
M78.1417 246.6
L78.1417 167" style="fill:none;stroke:#00ffff;stroke-dasharray:6.000000,6.000000;stroke-dashoffset:0.0;stroke-linecap:butt;"/>
   </g>
   <g id="line2d_60">
    <path clip-path="url(#pe9bd9c4693)" d="
M78.1418 246.6
L78.1418 167" style="fill:none;stroke:#00ffff;stroke-dasharray:6.000000,6.000000;stroke-dashoffset:0.0;stroke-linecap:butt;"/>
   </g>
   <g id="line2d_61">
    <path clip-path="url(#pe9bd9c4693)" d="
M78.1421 246.6
L78.1421 167" style="fill:none;stroke:#00ffff;stroke-dasharray:6.000000,6.000000;stroke-dashoffset:0.0;stroke-linecap:butt;"/>
   </g>
   <g id="line2d_62">
    <path clip-path="url(#pe9bd9c4693)" d="
M78.1435 246.6
L78.1435 167" style="fill:none;stroke:#00ffff;stroke-dasharray:6.000000,6.000000;stroke-dashoffset:0.0;stroke-linecap:butt;"/>
   </g>
   <g id="line2d_63">
    <path clip-path="url(#pe9bd9c4693)" d="
M99.4911 246.6
L99.4911 167" style="fill:none;stroke:#00ffff;stroke-dasharray:6.000000,6.000000;stroke-dashoffset:0.0;stroke-linecap:butt;"/>
   </g>
   <g id="line2d_64">
    <path clip-path="url(#pe9bd9c4693)" d="
M99.4913 246.6
L99.4913 167" style="fill:none;stroke:#00ffff;stroke-dasharray:6.000000,6.000000;stroke-dashoffset:0.0;stroke-linecap:butt;"/>
   </g>
   <g id="line2d_65">
    <path clip-path="url(#pe9bd9c4693)" d="
M99.4914 246.6
L99.4914 167" style="fill:none;stroke:#00ffff;stroke-dasharray:6.000000,6.000000;stroke-dashoffset:0.0;stroke-linecap:butt;"/>
   </g>
   <g id="line2d_66">
    <path clip-path="url(#pe9bd9c4693)" d="
M120.841 246.6
L120.841 167" style="fill:none;stroke:#00ffff;stroke-dasharray:6.000000,6.000000;stroke-dashoffset:0.0;stroke-linecap:butt;"/>
   </g>
   <g id="line2d_67">
    <path clip-path="url(#pe9bd9c4693)" d="
M120.841 246.6
L120.841 167" style="fill:none;stroke:#00ffff;stroke-dasharray:6.000000,6.000000;stroke-dashoffset:0.0;stroke-linecap:butt;"/>
   </g>
   <g id="line2d_68">
    <path clip-path="url(#pe9bd9c4693)" d="
M142.19 246.6
L142.19 167" style="fill:none;stroke:#00ffff;stroke-dasharray:6.000000,6.000000;stroke-dashoffset:0.0;stroke-linecap:butt;"/>
   </g>
   <g id="line2d_69">
    <path clip-path="url(#pe9bd9c4693)" d="
M142.19 246.6
L142.19 167" style="fill:none;stroke:#00ffff;stroke-dasharray:6.000000,6.000000;stroke-dashoffset:0.0;stroke-linecap:butt;"/>
   </g>
   <g id="line2d_70">
    <path clip-path="url(#pe9bd9c4693)" d="
M142.19 246.6
L142.19 167" style="fill:none;stroke:#00ffff;stroke-dasharray:6.000000,6.000000;stroke-dashoffset:0.0;stroke-linecap:butt;"/>
   </g>
   <g id="line2d_71">
    <path clip-path="url(#pe9bd9c4693)" d="
M163.54 246.6
L163.54 167" style="fill:none;stroke:#00ffff;stroke-dasharray:6.000000,6.000000;stroke-dashoffset:0.0;stroke-linecap:butt;"/>
   </g>
   <g id="line2d_72">
    <path clip-path="url(#pe9bd9c4693)" d="
M184.889 246.6
L184.889 167" style="fill:none;stroke:#00ffff;stroke-dasharray:6.000000,6.000000;stroke-dashoffset:0.0;stroke-linecap:butt;"/>
   </g>
   <g id="line2d_73">
    <path clip-path="url(#pe9bd9c4693)" d="
M184.889 246.6
L184.889 167" style="fill:none;stroke:#00ffff;stroke-dasharray:6.000000,6.000000;stroke-dashoffset:0.0;stroke-linecap:butt;"/>
   </g>
   <g id="line2d_74">
    <path clip-path="url(#pe9bd9c4693)" d="
M184.893 246.6
L184.893 167" style="fill:none;stroke:#00ffff;stroke-dasharray:6.000000,6.000000;stroke-dashoffset:0.0;stroke-linecap:butt;"/>
   </g>
   <g id="line2d_75">
    <path clip-path="url(#pe9bd9c4693)" d="
M206.239 246.6
L206.239 167" style="fill:none;stroke:#00ffff;stroke-dasharray:6.000000,6.000000;stroke-dashoffset:0.0;stroke-linecap:butt;"/>
   </g>
   <g id="line2d_76">
    <path clip-path="url(#pe9bd9c4693)" d="
M227.588 246.6
L227.588 167" style="fill:none;stroke:#00ffff;stroke-dasharray:6.000000,6.000000;stroke-dashoffset:0.0;stroke-linecap:butt;"/>
   </g>
   <g id="line2d_77">
    <path clip-path="url(#pe9bd9c4693)" d="
M227.588 246.6
L227.588 167" style="fill:none;stroke:#00ffff;stroke-dasharray:6.000000,6.000000;stroke-dashoffset:0.0;stroke-linecap:butt;"/>
   </g>
   <g id="line2d_78">
    <path clip-path="url(#pe9bd9c4693)" d="
M248.937 246.6
L248.937 167" style="fill:none;stroke:#00ffff;stroke-dasharray:6.000000,6.000000;stroke-dashoffset:0.0;stroke-linecap:butt;"/>
   </g>
   <g id="line2d_79">
    <path clip-path="url(#pe9bd9c4693)" d="
M248.937 246.6
L248.937 167" style="fill:none;stroke:#00ffff;stroke-dasharray:6.000000,6.000000;stroke-dashoffset:0.0;stroke-linecap:butt;"/>
   </g>
   <g id="line2d_80">
    <path clip-path="url(#pe9bd9c4693)" d="
M270.287 246.6
L270.287 167" style="fill:none;stroke:#00ffff;stroke-dasharray:6.000000,6.000000;stroke-dashoffset:0.0;stroke-linecap:butt;"/>
   </g>
   <g id="line2d_81">
    <path clip-path="url(#pe9bd9c4693)" d="
M291.636 246.6
L291.636 167" style="fill:none;stroke:#00ffff;stroke-dasharray:6.000000,6.000000;stroke-dashoffset:0.0;stroke-linecap:butt;"/>
   </g>
   <g id="line2d_82">
    <path clip-path="url(#pe9bd9c4693)" d="
M291.636 246.6
L291.636 167" style="fill:none;stroke:#00ffff;stroke-dasharray:6.000000,6.000000;stroke-dashoffset:0.0;stroke-linecap:butt;"/>
   </g>
   <g id="line2d_83">
    <path clip-path="url(#pe9bd9c4693)" d="
M291.636 246.6
L291.636 167" style="fill:none;stroke:#00ffff;stroke-dasharray:6.000000,6.000000;stroke-dashoffset:0.0;stroke-linecap:butt;"/>
   </g>
   <g id="line2d_84">
    <path clip-path="url(#pe9bd9c4693)" d="
M312.986 246.6
L312.986 167" style="fill:none;stroke:#00ffff;stroke-dasharray:6.000000,6.000000;stroke-dashoffset:0.0;stroke-linecap:butt;"/>
   </g>
   <g id="line2d_85">
    <path clip-path="url(#pe9bd9c4693)" d="
M312.986 246.6
L312.986 167" style="fill:none;stroke:#00ffff;stroke-dasharray:6.000000,6.000000;stroke-dashoffset:0.0;stroke-linecap:butt;"/>
   </g>
   <g id="line2d_86">
    <path clip-path="url(#pe9bd9c4693)" d="
M334.336 246.6
L334.336 167" style="fill:none;stroke:#00ffff;stroke-dasharray:6.000000,6.000000;stroke-dashoffset:0.0;stroke-linecap:butt;"/>
   </g>
   <g id="line2d_87">
    <path clip-path="url(#pe9bd9c4693)" d="
M355.684 246.6
L355.684 167" style="fill:none;stroke:#00ffff;stroke-dasharray:6.000000,6.000000;stroke-dashoffset:0.0;stroke-linecap:butt;"/>
   </g>
   <g id="line2d_88">
    <path clip-path="url(#pe9bd9c4693)" d="
M377.034 246.6
L377.034 167" style="fill:none;stroke:#00ffff;stroke-dasharray:6.000000,6.000000;stroke-dashoffset:0.0;stroke-linecap:butt;"/>
   </g>
   <g id="line2d_89">
    <path clip-path="url(#pe9bd9c4693)" d="
M377.034 246.6
L377.034 167" style="fill:none;stroke:#00ffff;stroke-dasharray:6.000000,6.000000;stroke-dashoffset:0.0;stroke-linecap:butt;"/>
   </g>
   <g id="line2d_90">
    <path clip-path="url(#pe9bd9c4693)" d="
M58.2981 235.981
L58.2981 238.776
L78.3028 238.776
L78.3028 234.304
L98.3075 234.304
L98.3075 233
L118.312 233
L118.312 231.883
L138.317 231.883
L138.317 236.167
L158.322 236.167
L158.322 234.304
L178.326 234.304
L178.326 236.167
L198.331 236.167
L198.331 233.373
L218.336 233.373
L218.336 232.442
L238.34 232.442
L238.34 231.883
L258.345 231.883
L258.345 233.746
L278.35 233.746
L278.35 235.05
L298.354 235.05
L298.354 231.137
L318.359 231.137
L318.359 236.167
L338.364 236.167
L338.364 230.02
L358.368 230.02
L358.368 234.863
L378.373 234.863" style="fill:none;stroke:#008000;"/>
   </g>
   <g id="matplotlib.axis_3">
    <g id="xtick_6">
     <g id="line2d_91">
      <g>
       <use style="stroke:#000000;stroke-linecap:butt;stroke-width:0.5;" x="46.1171875" xlink:href="#m0012dd4eef" y="246.6"/>
      </g>
     </g>
     <g id="line2d_92">
      <g>
       <use style="stroke:#000000;stroke-linecap:butt;stroke-width:0.5;" x="46.1171875" xlink:href="#m476344969c" y="167.0"/>
      </g>
     </g>
     <g id="text_14">
      <!-- 0 -->
      <g transform="translate(43.59765625 258.021875)scale(0.1 -0.1)">
       <use xlink:href="#DejaVuSans-30"/>
      </g>
     </g>
    </g>
    <g id="xtick_7">
     <g id="line2d_93">
      <g>
       <use style="stroke:#000000;stroke-linecap:butt;stroke-width:0.5;" x="135.073242188" xlink:href="#m0012dd4eef" y="246.6"/>
      </g>
     </g>
     <g id="line2d_94">
      <g>
       <use style="stroke:#000000;stroke-linecap:butt;stroke-width:0.5;" x="135.073242188" xlink:href="#m476344969c" y="167.0"/>
      </g>
     </g>
     <g id="text_15">
      <!-- 500 -->
      <g transform="translate(126.247460938 258.021875)scale(0.1 -0.1)">
       <use xlink:href="#DejaVuSans-35"/>
       <use x="63.623046875" xlink:href="#DejaVuSans-30"/>
       <use x="127.24609375" xlink:href="#DejaVuSans-30"/>
      </g>
     </g>
    </g>
    <g id="xtick_8">
     <g id="line2d_95">
      <g>
       <use style="stroke:#000000;stroke-linecap:butt;stroke-width:0.5;" x="224.029296875" xlink:href="#m0012dd4eef" y="246.6"/>
      </g>
     </g>
     <g id="line2d_96">
      <g>
       <use style="stroke:#000000;stroke-linecap:butt;stroke-width:0.5;" x="224.029296875" xlink:href="#m476344969c" y="167.0"/>
      </g>
     </g>
     <g id="text_16">
      <!-- 1000 -->
      <g transform="translate(212.185546875 258.021875)scale(0.1 -0.1)">
       <use xlink:href="#DejaVuSans-31"/>
       <use x="63.623046875" xlink:href="#DejaVuSans-30"/>
       <use x="127.24609375" xlink:href="#DejaVuSans-30"/>
       <use x="190.869140625" xlink:href="#DejaVuSans-30"/>
      </g>
     </g>
    </g>
    <g id="xtick_9">
     <g id="line2d_97">
      <g>
       <use style="stroke:#000000;stroke-linecap:butt;stroke-width:0.5;" x="312.985351563" xlink:href="#m0012dd4eef" y="246.6"/>
      </g>
     </g>
     <g id="line2d_98">
      <g>
       <use style="stroke:#000000;stroke-linecap:butt;stroke-width:0.5;" x="312.985351563" xlink:href="#m476344969c" y="167.0"/>
      </g>
     </g>
     <g id="text_17">
      <!-- 1500 -->
      <g transform="translate(301.141601563 258.021875)scale(0.1 -0.1)">
       <use xlink:href="#DejaVuSans-31"/>
       <use x="63.623046875" xlink:href="#DejaVuSans-35"/>
       <use x="127.24609375" xlink:href="#DejaVuSans-30"/>
       <use x="190.869140625" xlink:href="#DejaVuSans-30"/>
      </g>
     </g>
    </g>
    <g id="xtick_10">
     <g id="line2d_99">
      <g>
       <use style="stroke:#000000;stroke-linecap:butt;stroke-width:0.5;" x="401.94140625" xlink:href="#m0012dd4eef" y="246.6"/>
      </g>
     </g>
     <g id="line2d_100">
      <g>
       <use style="stroke:#000000;stroke-linecap:butt;stroke-width:0.5;" x="401.94140625" xlink:href="#m476344969c" y="167.0"/>
      </g>
     </g>
     <g id="text_18">
      <!-- 2000 -->
      <g transform="translate(389.91484375 258.021875)scale(0.1 -0.1)">
       <use xlink:href="#DejaVuSans-32"/>
       <use x="63.623046875" xlink:href="#DejaVuSans-30"/>
       <use x="127.24609375" xlink:href="#DejaVuSans-30"/>
       <use x="190.869140625" xlink:href="#DejaVuSans-30"/>
      </g>
     </g>
    </g>
    <g id="text_19">
     <!-- Time -->
     <g transform="translate(212.047265625 270.7625)scale(0.1 -0.1)">
      <use xlink:href="#DejaVuSans-54"/>
      <use x="57.958984375" xlink:href="#DejaVuSans-69"/>
      <use x="85.7421875" xlink:href="#DejaVuSans-6d"/>
      <use x="183.154296875" xlink:href="#DejaVuSans-65"/>
     </g>
    </g>
   </g>
   <g id="matplotlib.axis_4">
    <g id="ytick_7">
     <g id="line2d_101">
      <g>
       <use style="stroke:#000000;stroke-linecap:butt;stroke-width:0.5;" x="46.1171875" xlink:href="#me8a85f7bf6" y="246.6"/>
      </g>
     </g>
     <g id="line2d_102">
      <g>
       <use style="stroke:#000000;stroke-linecap:butt;stroke-width:0.5;" x="401.94140625" xlink:href="#m1a32005dea" y="246.6"/>
      </g>
     </g>
     <g id="text_20">
      <!-- 0.0 -->
      <defs>
       <path d="
M10.6875 12.4062
L21 12.4062
L21 0
L10.6875 0
z
" id="DejaVuSans-2e"/>
      </defs>
      <g transform="translate(27.5375 250.23984375)scale(0.1 -0.1)">
       <use xlink:href="#DejaVuSans-30"/>
       <use x="63.623046875" xlink:href="#DejaVuSans-2e"/>
       <use x="95.41015625" xlink:href="#DejaVuSans-30"/>
      </g>
     </g>
    </g>
    <g id="ytick_8">
     <g id="line2d_103">
      <g>
       <use style="stroke:#000000;stroke-linecap:butt;stroke-width:0.5;" x="46.1171875" xlink:href="#me8a85f7bf6" y="236.126315789"/>
      </g>
     </g>
     <g id="line2d_104">
      <g>
       <use style="stroke:#000000;stroke-linecap:butt;stroke-width:0.5;" x="401.94140625" xlink:href="#m1a32005dea" y="236.126315789"/>
      </g>
     </g>
     <g id="text_21">
      <!-- 0.5 -->
      <g transform="translate(27.746875 239.766159539)scale(0.1 -0.1)">
       <use xlink:href="#DejaVuSans-30"/>
       <use x="63.623046875" xlink:href="#DejaVuSans-2e"/>
       <use x="95.41015625" xlink:href="#DejaVuSans-35"/>
      </g>
     </g>
    </g>
    <g id="ytick_9">
     <g id="line2d_105">
      <g>
       <use style="stroke:#000000;stroke-linecap:butt;stroke-width:0.5;" x="46.1171875" xlink:href="#me8a85f7bf6" y="225.652631579"/>
      </g>
     </g>
     <g id="line2d_106">
      <g>
       <use style="stroke:#000000;stroke-linecap:butt;stroke-width:0.5;" x="401.94140625" xlink:href="#m1a32005dea" y="225.652631579"/>
      </g>
     </g>
     <g id="text_22">
      <!-- 1.0 -->
      <g transform="translate(27.9765625 229.292475329)scale(0.1 -0.1)">
       <use xlink:href="#DejaVuSans-31"/>
       <use x="63.623046875" xlink:href="#DejaVuSans-2e"/>
       <use x="95.41015625" xlink:href="#DejaVuSans-30"/>
      </g>
     </g>
    </g>
    <g id="ytick_10">
     <g id="line2d_107">
      <g>
       <use style="stroke:#000000;stroke-linecap:butt;stroke-width:0.5;" x="46.1171875" xlink:href="#me8a85f7bf6" y="215.178947368"/>
      </g>
     </g>
     <g id="line2d_108">
      <g>
       <use style="stroke:#000000;stroke-linecap:butt;stroke-width:0.5;" x="401.94140625" xlink:href="#m1a32005dea" y="215.178947368"/>
      </g>
     </g>
     <g id="text_23">
      <!-- 1.5 -->
      <g transform="translate(28.1859375 218.753166118)scale(0.1 -0.1)">
       <use xlink:href="#DejaVuSans-31"/>
       <use x="63.623046875" xlink:href="#DejaVuSans-2e"/>
       <use x="95.41015625" xlink:href="#DejaVuSans-35"/>
      </g>
     </g>
    </g>
    <g id="ytick_11">
     <g id="line2d_109">
      <g>
       <use style="stroke:#000000;stroke-linecap:butt;stroke-width:0.5;" x="46.1171875" xlink:href="#me8a85f7bf6" y="204.705263158"/>
      </g>
     </g>
     <g id="line2d_110">
      <g>
       <use style="stroke:#000000;stroke-linecap:butt;stroke-width:0.5;" x="401.94140625" xlink:href="#m1a32005dea" y="204.705263158"/>
      </g>
     </g>
     <g id="text_24">
      <!-- 2.0 -->
      <g transform="translate(27.6109375 208.345106908)scale(0.1 -0.1)">
       <use xlink:href="#DejaVuSans-32"/>
       <use x="63.623046875" xlink:href="#DejaVuSans-2e"/>
       <use x="95.41015625" xlink:href="#DejaVuSans-30"/>
      </g>
     </g>
    </g>
    <g id="ytick_12">
     <g id="line2d_111">
      <g>
       <use style="stroke:#000000;stroke-linecap:butt;stroke-width:0.5;" x="46.1171875" xlink:href="#me8a85f7bf6" y="194.231578947"/>
      </g>
     </g>
     <g id="line2d_112">
      <g>
       <use style="stroke:#000000;stroke-linecap:butt;stroke-width:0.5;" x="401.94140625" xlink:href="#m1a32005dea" y="194.231578947"/>
      </g>
     </g>
     <g id="text_25">
      <!-- 2.5 -->
      <g transform="translate(27.8203125 197.871422697)scale(0.1 -0.1)">
       <use xlink:href="#DejaVuSans-32"/>
       <use x="63.623046875" xlink:href="#DejaVuSans-2e"/>
       <use x="95.41015625" xlink:href="#DejaVuSans-35"/>
      </g>
     </g>
    </g>
    <g id="ytick_13">
     <g id="line2d_113">
      <g>
       <use style="stroke:#000000;stroke-linecap:butt;stroke-width:0.5;" x="46.1171875" xlink:href="#me8a85f7bf6" y="183.757894737"/>
      </g>
     </g>
     <g id="line2d_114">
      <g>
       <use style="stroke:#000000;stroke-linecap:butt;stroke-width:0.5;" x="401.94140625" xlink:href="#m1a32005dea" y="183.757894737"/>
      </g>
     </g>
     <g id="text_26">
      <!-- 3.0 -->
      <defs>
       <path d="
M40.5781 39.3125
Q47.6562 37.7969 51.625 33
Q55.6094 28.2188 55.6094 21.1875
Q55.6094 10.4062 48.1875 4.48438
Q40.7656 -1.42188 27.0938 -1.42188
Q22.5156 -1.42188 17.6562 -0.515625
Q12.7969 0.390625 7.625 2.20312
L7.625 11.7188
Q11.7188 9.32812 16.5938 8.10938
Q21.4844 6.89062 26.8125 6.89062
Q36.0781 6.89062 40.9375 10.5469
Q45.7969 14.2031 45.7969 21.1875
Q45.7969 27.6406 41.2812 31.2656
Q36.7656 34.9062 28.7188 34.9062
L20.2188 34.9062
L20.2188 43.0156
L29.1094 43.0156
Q36.375 43.0156 40.2344 45.9219
Q44.0938 48.8281 44.0938 54.2969
Q44.0938 59.9062 40.1094 62.9062
Q36.1406 65.9219 28.7188 65.9219
Q24.6562 65.9219 20.0156 65.0312
Q15.375 64.1562 9.8125 62.3125
L9.8125 71.0938
Q15.4375 72.6562 20.3438 73.4375
Q25.25 74.2188 29.5938 74.2188
Q40.8281 74.2188 47.3594 69.1094
Q53.9062 64.0156 53.9062 55.3281
Q53.9062 49.2656 50.4375 45.0938
Q46.9688 40.9219 40.5781 39.3125" id="DejaVuSans-33"/>
      </defs>
      <g transform="translate(27.640625 187.397738487)scale(0.1 -0.1)">
       <use xlink:href="#DejaVuSans-33"/>
       <use x="63.623046875" xlink:href="#DejaVuSans-2e"/>
       <use x="95.41015625" xlink:href="#DejaVuSans-30"/>
      </g>
     </g>
    </g>
    <g id="ytick_14">
     <g id="line2d_115">
      <g>
       <use style="stroke:#000000;stroke-linecap:butt;stroke-width:0.5;" x="46.1171875" xlink:href="#me8a85f7bf6" y="173.284210526"/>
      </g>
     </g>
     <g id="line2d_116">
      <g>
       <use style="stroke:#000000;stroke-linecap:butt;stroke-width:0.5;" x="401.94140625" xlink:href="#m1a32005dea" y="173.284210526"/>
      </g>
     </g>
     <g id="text_27">
      <!-- 3.5 -->
      <g transform="translate(27.85 176.924054276)scale(0.1 -0.1)">
       <use xlink:href="#DejaVuSans-33"/>
       <use x="63.623046875" xlink:href="#DejaVuSans-2e"/>
       <use x="95.41015625" xlink:href="#DejaVuSans-35"/>
      </g>
     </g>
    </g>
   </g>
   <g id="patch_8">
    <path d="
M46.1172 167
L401.941 167" style="fill:none;stroke:#000000;"/>
   </g>
   <g id="patch_9">
    <path d="
M401.941 246.6
L401.941 167" style="fill:none;stroke:#000000;"/>
   </g>
   <g id="patch_10">
    <path d="
M46.1172 246.6
L401.941 246.6" style="fill:none;stroke:#000000;"/>
   </g>
   <g id="patch_11">
    <path d="
M46.1172 246.6
L46.1172 167" style="fill:none;stroke:#000000;"/>
   </g>
   <g id="text_28">
    <!-- OLAP -->
    <defs>
     <path d="
M34.1875 63.1875
L20.7969 26.9062
L47.6094 26.9062
z

M28.6094 72.9062
L39.7969 72.9062
L67.5781 0
L57.3281 0
L50.6875 18.7031
L17.8281 18.7031
L11.1875 0
L0.78125 0
z
" id="DejaVuSans-41"/>
    </defs>
    <g transform="translate(208.646796875 162.0)scale(0.12 -0.12)">
     <use xlink:href="#DejaVuSans-4f"/>
     <use x="78.7109375" xlink:href="#DejaVuSans-4c"/>
     <use x="136.673828125" xlink:href="#DejaVuSans-41"/>
     <use x="205.08203125" xlink:href="#DejaVuSans-50"/>
    </g>
   </g>
  </g>
  <g id="text_29">
   <!-- 16 OLTP workers -->
   <defs>
    <path d="
M30.6094 48.3906
Q23.3906 48.3906 19.1875 42.75
Q14.9844 37.1094 14.9844 27.2969
Q14.9844 17.4844 19.1562 11.8438
Q23.3438 6.20312 30.6094 6.20312
Q37.7969 6.20312 41.9844 11.8594
Q46.1875 17.5312 46.1875 27.2969
Q46.1875 37.0156 41.9844 42.7031
Q37.7969 48.3906 30.6094 48.3906
M30.6094 56
Q42.3281 56 49.0156 48.375
Q55.7188 40.7656 55.7188 27.2969
Q55.7188 13.875 49.0156 6.21875
Q42.3281 -1.42188 30.6094 -1.42188
Q18.8438 -1.42188 12.1719 6.21875
Q5.51562 13.875 5.51562 27.2969
Q5.51562 40.7656 12.1719 48.375
Q18.8438 56 30.6094 56" id="DejaVuSans-6f"/>
    <path d="
M9.07812 75.9844
L18.1094 75.9844
L18.1094 31.1094
L44.9219 54.6875
L56.3906 54.6875
L27.3906 29.1094
L57.625 0
L45.9062 0
L18.1094 26.7031
L18.1094 0
L9.07812 0
z
" id="DejaVuSans-6b"/>
    <path id="DejaVuSans-20"/>
    <path d="
M33.0156 40.375
Q26.375 40.375 22.4844 35.8281
Q18.6094 31.2969 18.6094 23.3906
Q18.6094 15.5312 22.4844 10.9531
Q26.375 6.39062 33.0156 6.39062
Q39.6562 6.39062 43.5312 10.9531
Q47.4062 15.5312 47.4062 23.3906
Q47.4062 31.2969 43.5312 35.8281
Q39.6562 40.375 33.0156 40.375
M52.5938 71.2969
L52.5938 62.3125
Q48.875 64.0625 45.0938 64.9844
Q41.3125 65.9219 37.5938 65.9219
Q27.8281 65.9219 22.6719 59.3281
Q17.5312 52.7344 16.7969 39.4062
Q19.6719 43.6562 24.0156 45.9219
Q28.375 48.1875 33.5938 48.1875
Q44.5781 48.1875 50.9531 41.5156
Q57.3281 34.8594 57.3281 23.3906
Q57.3281 12.1562 50.6875 5.35938
Q44.0469 -1.42188 33.0156 -1.42188
Q20.3594 -1.42188 13.6719 8.26562
Q6.98438 17.9688 6.98438 36.375
Q6.98438 53.6562 15.1875 63.9375
Q23.3906 74.2188 37.2031 74.2188
Q40.9219 74.2188 44.7031 73.4844
Q48.4844 72.75 52.5938 71.2969" id="DejaVuSans-36"/>
    <path d="
M4.20312 54.6875
L13.1875 54.6875
L24.4219 12.0156
L35.5938 54.6875
L46.1875 54.6875
L57.4219 12.0156
L68.6094 54.6875
L77.5938 54.6875
L63.2812 0
L52.6875 0
L40.9219 44.8281
L29.1094 0
L18.5 0
z
" id="DejaVuSans-77"/>
    <path d="
M44.2812 53.0781
L44.2812 44.5781
Q40.4844 46.5312 36.375 47.5
Q32.2812 48.4844 27.875 48.4844
Q21.1875 48.4844 17.8438 46.4375
Q14.5 44.3906 14.5 40.2812
Q14.5 37.1562 16.8906 35.375
Q19.2812 33.5938 26.5156 31.9844
L29.5938 31.2969
Q39.1562 29.25 43.1875 25.5156
Q47.2188 21.7812 47.2188 15.0938
Q47.2188 7.46875 41.1875 3.01562
Q35.1562 -1.42188 24.6094 -1.42188
Q20.2188 -1.42188 15.4531 -0.5625
Q10.6875 0.296875 5.42188 2
L5.42188 11.2812
Q10.4062 8.6875 15.2344 7.39062
Q20.0625 6.10938 24.8125 6.10938
Q31.1562 6.10938 34.5625 8.28125
Q37.9844 10.4531 37.9844 14.4062
Q37.9844 18.0625 35.5156 20.0156
Q33.0625 21.9688 24.7031 23.7812
L21.5781 24.5156
Q13.2344 26.2656 9.51562 29.9062
Q5.8125 33.5469 5.8125 39.8906
Q5.8125 47.6094 11.2812 51.7969
Q16.75 56 26.8125 56
Q31.7812 56 36.1719 55.2656
Q40.5781 54.5469 44.2812 53.0781" id="DejaVuSans-73"/>
    <path d="
M41.1094 46.2969
Q39.5938 47.1719 37.8125 47.5781
Q36.0312 48 33.8906 48
Q26.2656 48 22.1875 43.0469
Q18.1094 38.0938 18.1094 28.8125
L18.1094 0
L9.07812 0
L9.07812 54.6875
L18.1094 54.6875
L18.1094 46.1875
Q20.9531 51.1719 25.4844 53.5781
Q30.0312 56 36.5312 56
Q37.4531 56 38.5781 55.875
Q39.7031 55.7656 41.0625 55.5156
z
" id="DejaVuSans-72"/>
   </defs>
   <g transform="translate(174.9453125 13.3584375)scale(0.1 -0.1)">
    <use xlink:href="#DejaVuSans-31"/>
    <use x="63.623046875" xlink:href="#DejaVuSans-36"/>
    <use x="127.24609375" xlink:href="#DejaVuSans-20"/>
    <use x="159.033203125" xlink:href="#DejaVuSans-4f"/>
    <use x="237.744140625" xlink:href="#DejaVuSans-4c"/>
    <use x="279.70703125" xlink:href="#DejaVuSans-54"/>
    <use x="340.791015625" xlink:href="#DejaVuSans-50"/>
    <use x="401.09375" xlink:href="#DejaVuSans-20"/>
    <use x="432.880859375" xlink:href="#DejaVuSans-77"/>
    <use x="514.66796875" xlink:href="#DejaVuSans-6f"/>
    <use x="575.849609375" xlink:href="#DejaVuSans-72"/>
    <use x="616.962890625" xlink:href="#DejaVuSans-6b"/>
    <use x="671.248046875" xlink:href="#DejaVuSans-65"/>
    <use x="732.771484375" xlink:href="#DejaVuSans-72"/>
    <use x="773.884765625" xlink:href="#DejaVuSans-73"/>
   </g>
  </g>
 </g>
 <defs>
  <clipPath id="pe9bd9c4693">
   <rect height="79.6" width="355.82421875" x="46.1171875" y="167.0"/>
  </clipPath>
  <clipPath id="paafe9ad165">
   <rect height="79.6" width="355.82421875" x="46.1171875" y="32.0"/>
  </clipPath>
 </defs>
</svg>
