<?xml version="1.0" encoding="utf-8" standalone="no"?>
<!DOCTYPE svg PUBLIC "-//W3C//DTD SVG 1.1//EN"
  "http://www.w3.org/Graphics/SVG/1.1/DTD/svg11.dtd">
<!-- Created with matplotlib (http://matplotlib.sourceforge.net/) -->
<svg height="288pt" version="1.1" viewBox="0 0 432 288" width="432pt" xmlns="http://www.w3.org/2000/svg" xmlns:xlink="http://www.w3.org/1999/xlink">
 <defs>
  <style type="text/css">
*{stroke-linecap:square;stroke-linejoin:round;}
  </style>
 </defs>
 <g id="figure_1">
  <g id="patch_1">
   <path d="
M0 288
L432 288
L432 0
L0 0
z
" style="fill:#ffffff;"/>
  </g>
  <g id="axes_1">
   <g id="patch_2">
    <path d="
M46.1172 111.6
L401.941 111.6
L401.941 32
L46.1172 32
z
" style="fill:#ffffff;"/>
   </g>
   <g id="line2d_1">
    <path clip-path="url(#paafe9ad165)" d="
M56.7925 111.6
L56.7925 32" style="fill:none;stroke:#00ffff;stroke-dasharray:6.000000,6.000000;stroke-dashoffset:0.0;stroke-linecap:butt;"/>
   </g>
   <g id="line2d_2">
    <path clip-path="url(#paafe9ad165)" d="
M78.1424 111.6
L78.1424 32" style="fill:none;stroke:#00ffff;stroke-dasharray:6.000000,6.000000;stroke-dashoffset:0.0;stroke-linecap:butt;"/>
   </g>
   <g id="line2d_3">
    <path clip-path="url(#paafe9ad165)" d="
M99.4913 111.6
L99.4913 32" style="fill:none;stroke:#00ffff;stroke-dasharray:6.000000,6.000000;stroke-dashoffset:0.0;stroke-linecap:butt;"/>
   </g>
   <g id="line2d_4">
    <path clip-path="url(#paafe9ad165)" d="
M120.841 111.6
L120.841 32" style="fill:none;stroke:#00ffff;stroke-dasharray:6.000000,6.000000;stroke-dashoffset:0.0;stroke-linecap:butt;"/>
   </g>
   <g id="line2d_5">
    <path clip-path="url(#paafe9ad165)" d="
M142.19 111.6
L142.19 32" style="fill:none;stroke:#00ffff;stroke-dasharray:6.000000,6.000000;stroke-dashoffset:0.0;stroke-linecap:butt;"/>
   </g>
   <g id="line2d_6">
    <path clip-path="url(#paafe9ad165)" d="
M163.539 111.6
L163.539 32" style="fill:none;stroke:#00ffff;stroke-dasharray:6.000000,6.000000;stroke-dashoffset:0.0;stroke-linecap:butt;"/>
   </g>
   <g id="line2d_7">
    <path clip-path="url(#paafe9ad165)" d="
M163.54 111.6
L163.54 32" style="fill:none;stroke:#00ffff;stroke-dasharray:6.000000,6.000000;stroke-dashoffset:0.0;stroke-linecap:butt;"/>
   </g>
   <g id="line2d_8">
    <path clip-path="url(#paafe9ad165)" d="
M184.889 111.6
L184.889 32" style="fill:none;stroke:#00ffff;stroke-dasharray:6.000000,6.000000;stroke-dashoffset:0.0;stroke-linecap:butt;"/>
   </g>
   <g id="line2d_9">
    <path clip-path="url(#paafe9ad165)" d="
M206.238 111.6
L206.238 32" style="fill:none;stroke:#00ffff;stroke-dasharray:6.000000,6.000000;stroke-dashoffset:0.0;stroke-linecap:butt;"/>
   </g>
   <g id="line2d_10">
    <path clip-path="url(#paafe9ad165)" d="
M227.588 111.6
L227.588 32" style="fill:none;stroke:#00ffff;stroke-dasharray:6.000000,6.000000;stroke-dashoffset:0.0;stroke-linecap:butt;"/>
   </g>
   <g id="line2d_11">
    <path clip-path="url(#paafe9ad165)" d="
M227.588 111.6
L227.588 32" style="fill:none;stroke:#00ffff;stroke-dasharray:6.000000,6.000000;stroke-dashoffset:0.0;stroke-linecap:butt;"/>
   </g>
   <g id="line2d_12">
    <path clip-path="url(#paafe9ad165)" d="
M248.938 111.6
L248.938 32" style="fill:none;stroke:#00ffff;stroke-dasharray:6.000000,6.000000;stroke-dashoffset:0.0;stroke-linecap:butt;"/>
   </g>
   <g id="line2d_13">
    <path clip-path="url(#paafe9ad165)" d="
M248.938 111.6
L248.938 32" style="fill:none;stroke:#00ffff;stroke-dasharray:6.000000,6.000000;stroke-dashoffset:0.0;stroke-linecap:butt;"/>
   </g>
   <g id="line2d_14">
    <path clip-path="url(#paafe9ad165)" d="
M270.287 111.6
L270.287 32" style="fill:none;stroke:#00ffff;stroke-dasharray:6.000000,6.000000;stroke-dashoffset:0.0;stroke-linecap:butt;"/>
   </g>
   <g id="line2d_15">
    <path clip-path="url(#paafe9ad165)" d="
M291.637 111.6
L291.637 32" style="fill:none;stroke:#00ffff;stroke-dasharray:6.000000,6.000000;stroke-dashoffset:0.0;stroke-linecap:butt;"/>
   </g>
   <g id="line2d_16">
    <path clip-path="url(#paafe9ad165)" d="
M312.997 111.6
L312.997 32" style="fill:none;stroke:#00ffff;stroke-dasharray:6.000000,6.000000;stroke-dashoffset:0.0;stroke-linecap:butt;"/>
   </g>
   <g id="line2d_17">
    <path clip-path="url(#paafe9ad165)" d="
M334.335 111.6
L334.335 32" style="fill:none;stroke:#00ffff;stroke-dasharray:6.000000,6.000000;stroke-dashoffset:0.0;stroke-linecap:butt;"/>
   </g>
   <g id="line2d_18">
    <path clip-path="url(#paafe9ad165)" d="
M355.686 111.6
L355.686 32" style="fill:none;stroke:#00ffff;stroke-dasharray:6.000000,6.000000;stroke-dashoffset:0.0;stroke-linecap:butt;"/>
   </g>
   <g id="line2d_19">
    <path clip-path="url(#paafe9ad165)" d="
M377.034 111.6
L377.034 32" style="fill:none;stroke:#00ffff;stroke-dasharray:6.000000,6.000000;stroke-dashoffset:0.0;stroke-linecap:butt;"/>
   </g>
   <g id="line2d_20">
    <path clip-path="url(#paafe9ad165)" d="
M46.1172 96.8957
L46.1172 93.3064
L46.7043 93.3064
L46.7043 92.3995
L47.2914 92.3995
L47.2914 87.4209
L47.8785 87.4209
L47.8785 85.4429
L48.4656 85.4429
L48.4656 86.2823
L49.0527 86.2823
L49.0527 85.5201
L49.6398 85.5201
L49.6398 84.9798
L50.227 84.9798
L50.227 83.8895
L50.8141 83.8895
L50.8141 84.0149
L51.4012 84.0149
L51.4012 84.9701
L51.9883 84.9701
L51.9883 82.8475
L52.5754 82.8475
L52.5754 82.3457
L53.1625 82.3457
L53.1625 83.3878
L53.7496 83.3878
L53.7496 91.1645
L54.3367 91.1645
L54.3367 91.3478
L54.9238 91.3478
L54.9238 92.0039
L55.5109 92.0039
L55.5109 91.5311
L56.098 91.5311
L56.098 84.2947
L56.6852 84.2947
L56.6852 79.7117
L57.2723 79.7117
L57.2723 79.0267
L57.8594 79.0267
L57.8594 79.924
L58.4465 79.924
L58.4465 80.8792
L59.0336 80.8792
L59.0336 81.4581
L59.6207 81.4581
L59.6207 80.8888
L60.2078 80.8888
L60.2078 80.7441
L60.7949 80.7441
L60.7949 81.0143
L61.382 81.0143
L61.382 81.1397
L61.9691 81.1397
L61.9691 79.8854
L62.5562 79.8854
L62.5562 81.7668
L63.7305 81.873
L63.7305 82.0949
L64.3176 82.0949
L64.3176 77.2803
L64.9047 77.2803
L64.9047 78.2451
L65.4918 78.2451
L65.4918 77.6662
L66.0789 77.6662
L66.0789 77.9846
L66.666 77.9846
L66.666 78.4767
L67.8402 78.3802
L67.8402 77.4057
L68.4273 77.4057
L68.4273 79.1907
L69.0144 79.1907
L69.0144 78.0908
L69.6015 78.0908
L69.6015 77.7434
L70.1887 77.7434
L70.1887 78.5732
L70.7758 78.5732
L70.7758 76.5181
L71.3629 76.5181
L71.3629 77.9364
L71.95 77.9364
L71.95 78.3513
L72.5371 78.3513
L72.5371 75.2252
L73.1242 75.2252
L73.1242 76.383
L73.7113 76.383
L73.7113 74.7524
L74.2984 74.7524
L74.2984 75.0515
L74.8855 75.0515
L74.8855 75.4374
L75.4726 75.4374
L75.4726 75.148
L76.0597 75.148
L76.0597 78.1583
L76.6469 78.1583
L76.6469 74.9936
L77.234 74.9936
L77.234 85.4719
L77.8211 85.4719
L77.8211 79.5573
L78.4082 79.5573
L78.4082 78.1294
L78.9953 78.1294
L78.9953 78.6986
L79.5824 78.6986
L79.5824 77.8399
L80.1695 77.8399
L80.1695 76.3926
L80.7566 76.3926
L80.7566 75.1094
L81.3437 75.1094
L81.3437 74.8682
L81.9308 74.8682
L81.9308 76.8847
L82.5179 76.8847
L82.5179 77.232
L83.1051 77.232
L83.1051 77.6276
L83.6922 77.6276
L83.6922 79.0749
L84.2793 79.0749
L84.2793 78.6021
L84.8664 78.6021
L84.8664 79.6056
L85.4535 79.6056
L85.4535 79.2775
L86.0406 79.2775
L86.0406 80.0108
L86.6277 80.0108
L86.6277 80.1748
L87.2148 80.1748
L87.2148 78.8819
L87.8019 78.8819
L87.8019 78.0715
L88.389 78.0715
L88.389 77.9171
L88.9761 77.9171
L88.9761 75.6207
L89.5633 75.6207
L89.5633 76.2286
L90.1504 76.2286
L90.1504 96.1238
L90.7375 96.1238
L90.7375 90.8557
L91.3246 90.8557
L91.3246 91.6566
L91.9117 91.6566
L91.9117 92.3898
L92.4988 92.3898
L92.4988 92.8916
L93.0859 92.8916
L93.0859 92.4381
L93.673 92.4381
L93.673 92.8626
L94.2601 92.8626
L94.2601 91.3574
L94.8472 91.3574
L94.8472 91.7723
L95.4343 91.7723
L95.4343 92.5346
L96.0215 92.5346
L96.0215 81.1011
L96.6086 81.1011
L96.6086 80.1073
L97.1957 80.1073
L97.1957 79.017
L97.7828 79.017
L97.7828 79.5863
L98.3699 79.5863
L98.3699 80.0012
L98.957 80.0012
L98.957 87.006
L99.5441 87.006
L99.5441 76.6628
L100.131 76.6628
L100.131 77.1645
L100.718 77.1645
L100.718 78.303
L101.305 78.303
L101.305 76.5663
L101.893 76.5663
L101.893 91.7434
L102.48 91.7434
L102.48 78.9012
L103.067 78.9012
L103.067 78.5828
L103.654 78.5828
L103.654 77.6566
L104.241 77.6566
L104.241 78.853
L104.828 78.853
L104.828 77.7048
L105.415 77.7048
L105.415 79.0363
L106.002 79.0363
L106.002 76.3251
L106.589 76.3251
L106.589 74.7138
L107.177 74.7138
L107.177 77.3768
L107.764 77.3768
L107.764 76.875
L108.351 76.875
L108.351 78.8723
L108.938 78.8723
L108.938 78.1776
L109.525 78.1776
L109.525 78.6986
L110.112 78.6986
L110.112 78.2355
L110.699 78.2355
L110.699 75.6979
L111.286 75.6979
L111.286 82.3361
L111.873 82.3361
L111.873 78.2355
L112.461 78.2355
L112.461 77.7338
L113.048 77.7338
L113.048 77.1452
L113.635 77.1452
L113.635 77.8688
L114.222 77.8688
L114.222 78.7855
L114.809 78.7855
L114.809 76.1321
L115.983 76.2286
L115.983 76.6724
L117.157 76.7689
L117.157 76.875
L117.744 76.875
L117.744 76.6242
L118.332 76.6242
L118.332 79.1039
L118.919 79.1039
L118.919 76.5374
L119.506 76.5374
L119.506 78.332
L120.093 78.332
L120.093 85.0377
L120.68 85.0377
L120.68 77.3478
L121.267 77.3478
L121.267 77.8013
L122.441 77.8303
L122.441 78.7951
L123.028 78.7951
L123.028 79.1328
L123.616 79.1328
L123.616 78.8144
L124.203 78.8144
L124.203 78.6697
L124.79 78.6697
L124.79 77.782
L125.377 77.782
L125.377 76.8075
L125.964 76.8075
L125.964 77.3575
L126.551 77.3575
L126.551 78.0136
L127.138 78.0136
L127.138 76.5856
L127.725 76.5856
L127.725 79.2486
L128.312 79.2486
L128.312 79.046
L128.9 79.046
L128.9 77.7048
L129.487 77.7048
L129.487 77.8495
L130.074 77.8495
L130.074 77.1838
L130.661 77.1838
L130.661 79.76
L131.248 79.76
L131.248 76.0839
L131.835 76.0839
L131.835 77.7917
L132.422 77.7917
L132.422 81.2555
L133.009 81.2555
L133.009 79.0556
L133.596 79.0556
L133.596 75.312
L134.184 75.312
L134.184 77.2706
L134.771 77.2706
L134.771 79.2196
L135.358 79.2196
L135.358 78.0522
L135.945 78.0522
L135.945 76.7786
L136.532 76.7786
L136.532 76.547
L137.119 76.547
L137.119 79.7792
L137.706 79.7792
L137.706 78.7083
L138.293 78.7083
L138.293 79.0074
L138.88 79.0074
L138.88 78.7083
L139.468 78.7083
L139.468 93.2003
L140.055 93.2003
L140.055 84.9605
L140.642 84.9605
L140.642 77.8978
L141.229 77.8978
L141.229 82.8282
L141.816 82.8282
L141.816 85.6166
L142.403 85.6166
L142.403 84.2658
L142.99 84.2658
L142.99 81.4002
L143.577 81.4002
L143.577 82.4808
L144.164 82.4808
L144.164 83.793
L144.752 83.793
L144.752 85.5394
L145.339 85.5394
L145.339 83.5711
L145.926 83.5711
L145.926 81.5642
L146.513 81.5642
L146.513 81.13
L147.1 81.13
L147.1 85.6262
L147.687 85.6262
L147.687 80.4836
L148.274 80.4836
L148.274 82.7317
L148.861 82.7317
L148.861 85.2017
L149.448 85.2017
L149.448 83.3395
L150.035 83.3395
L150.035 82.1721
L150.623 82.1721
L150.623 82.3747
L151.21 82.3747
L151.21 81.4098
L151.797 81.4098
L151.797 80.9178
L152.384 80.9178
L152.384 78.2162
L152.971 78.2162
L152.971 81.159
L153.558 81.159
L153.558 85.771
L154.145 85.771
L154.145 84.9894
L154.732 84.9894
L154.732 81.7765
L155.319 81.7765
L155.319 87.0349
L155.907 87.0349
L155.907 85.2403
L157.081 85.1438
L157.081 86.9481
L157.668 86.9481
L157.668 87.2086
L158.255 87.2086
L158.255 84.3237
L158.842 84.3237
L158.842 78.8047
L159.429 78.8047
L159.429 82.0177
L160.016 82.0177
L160.016 82.5484
L160.603 82.5484
L160.603 83.1273
L161.191 83.1273
L161.191 83.9185
L161.778 83.9185
L161.778 102.183
L162.365 102.183
L162.365 80.2617
L162.952 80.2617
L162.952 89.4181
L163.539 89.4181
L163.539 86.0025
L164.126 86.0025
L164.126 85.6069
L164.713 85.6069
L164.713 86.292
L165.3 86.292
L165.3 83.0115
L165.887 83.0115
L165.887 80.3389
L166.475 80.3389
L166.475 81.2941
L167.062 81.2941
L167.062 80.5801
L167.649 80.5801
L167.649 81.1204
L168.236 81.1204
L168.236 80.6187
L168.823 80.6187
L168.823 86.5814
L169.41 86.5814
L169.41 84.671
L169.997 84.671
L169.997 84.2272
L170.584 84.2272
L170.584 81.9502
L171.171 81.9502
L171.171 85.3078
L171.759 85.3078
L171.759 82.9825
L172.346 82.9825
L172.346 85.6069
L172.933 85.6069
L172.933 84.2465
L173.52 84.2465
L173.52 85.9157
L174.107 85.9157
L174.107 86.4753
L174.694 86.4753
L174.694 84.2562
L175.281 84.2562
L175.281 86.9674
L175.868 86.9674
L175.868 84.179
L176.455 84.179
L176.455 82.8957
L177.043 82.8957
L177.043 84.3526
L177.63 84.3526
L177.63 83.2334
L178.217 83.2334
L178.217 85.4236
L178.804 85.4236
L178.804 82.7606
L179.391 82.7606
L179.391 85.4719
L179.978 85.4719
L179.978 85.3078
L180.565 85.3078
L180.565 87.7489
L181.152 87.7489
L181.152 83.2334
L181.739 83.2334
L181.739 84.3526
L182.326 84.3526
L182.326 86.6972
L182.914 86.6972
L182.914 85.9446
L183.501 85.9446
L183.501 85.057
L184.088 85.057
L184.088 87.1411
L184.675 87.1411
L184.675 88.241
L185.262 88.241
L185.262 86.3885
L185.849 86.3885
L185.849 87.0253
L186.436 87.0253
L186.436 84.7965
L187.61 84.8737
L187.61 84.3044
L188.198 84.3044
L188.198 87.5173
L188.785 87.5173
L188.785 85.4429
L189.372 85.4429
L189.372 84.3237
L189.959 84.3237
L189.959 87.0928
L190.546 87.0928
L190.546 109.439
L191.133 109.439
L191.133 85.1438
L191.72 85.1438
L191.72 83.9185
L192.307 83.9185
L192.307 84.6517
L192.894 84.6517
L192.894 87.1025
L193.482 87.1025
L193.482 84.4105
L194.069 84.4105
L194.069 83.272
L194.656 83.272
L194.656 84.8061
L195.243 84.8061
L195.243 84.5263
L195.83 84.5263
L195.83 79.76
L196.417 79.76
L196.417 84.5842
L197.004 84.5842
L197.004 84.9991
L197.591 84.9991
L197.591 83.5132
L198.178 83.5132
L198.178 83.0211
L198.766 83.0211
L198.766 87.1507
L199.353 87.1507
L199.353 83.5711
L199.94 83.5711
L199.94 86.9191
L200.527 86.9191
L200.527 84.0439
L201.114 84.0439
L201.114 83.0308
L201.701 83.0308
L201.701 85.1149
L202.288 85.1149
L202.288 85.3368
L202.875 85.3368
L202.875 85.1728
L203.462 85.1728
L203.462 86.6683
L204.05 86.6683
L204.05 85.9543
L204.637 85.9543
L204.637 86.62
L205.224 86.62
L205.224 90.2479
L205.811 90.2479
L205.811 89.0515
L206.398 89.0515
L206.398 85.8096
L206.985 85.8096
L206.985 91.6951
L207.572 91.6951
L207.572 90.7013
L208.159 90.7013
L208.159 91.0487
L208.746 91.0487
L208.746 92.6696
L209.334 92.6696
L209.334 93.4512
L209.921 93.4512
L209.921 89.1672
L210.508 89.1672
L210.508 88.762
L211.095 88.762
L211.095 90.6531
L211.682 90.6531
L211.682 90.4022
L212.269 90.4022
L212.269 88.5015
L212.856 88.5015
L212.856 85.5491
L213.443 85.5491
L213.443 84.6324
L214.03 84.6324
L214.03 83.6676
L214.617 83.6676
L214.617 87.4209
L215.205 87.4209
L215.205 86.813
L215.792 86.813
L215.792 89.283
L216.379 89.283
L216.379 89.0804
L216.966 89.0804
L216.966 92.4574
L217.553 92.4574
L217.553 93.017
L218.727 92.9784
L218.727 90.8847
L219.314 90.8847
L219.314 91.3671
L219.901 91.3671
L219.901 90.4408
L220.489 90.4408
L220.489 88.6655
L221.076 88.6655
L221.076 86.9674
L221.663 86.9674
L221.663 88.212
L222.25 88.212
L222.25 89.4567
L222.837 89.4567
L222.837 88.5787
L223.424 88.5787
L223.424 88.2989
L224.011 88.2989
L224.011 87.3437
L224.598 87.3437
L224.598 88.1638
L225.185 88.1638
L225.185 88.8392
L225.773 88.8392
L225.773 89.476
L226.36 89.476
L226.36 91.3574
L226.947 91.3574
L226.947 94.0108
L228.121 93.9529
L228.121 95.0142
L228.708 95.0142
L228.708 92.4284
L229.295 92.4284
L229.295 91.4346
L229.882 91.4346
L229.882 91.6855
L230.469 91.6855
L230.469 92.9109
L231.057 92.9109
L231.057 92.3126
L231.644 92.3126
L231.644 91.975
L232.231 91.975
L232.231 92.6696
L232.818 92.6696
L232.818 94.6572
L233.405 94.6572
L233.405 94.3774
L233.992 94.3774
L233.992 95.2651
L234.579 95.2651
L234.579 92.9109
L235.166 92.9109
L235.166 93.374
L235.753 93.374
L235.753 90.1128
L236.341 90.1128
L236.341 89.0804
L237.515 89.1672
L237.515 90.2961
L238.102 90.2961
L238.102 90.5663
L238.689 90.5663
L238.689 108.763
L239.276 108.763
L239.276 97.957
L239.863 97.957
L239.863 92.9495
L240.45 92.9495
L240.45 93.7406
L241.037 93.7406
L241.037 93.5959
L241.625 93.5959
L241.625 94.2231
L242.212 94.2231
L242.212 91.7627
L242.799 91.7627
L242.799 89.3699
L243.386 89.3699
L243.386 88.1252
L243.973 88.1252
L243.973 89.4856
L244.56 89.4856
L244.56 89.1383
L245.734 89.1286
L245.734 89.7944
L246.321 89.7944
L246.321 92.1486
L246.908 92.1486
L246.908 91.5215
L247.496 91.5215
L247.496 92.5635
L248.67 92.4767
L248.67 94.7537
L249.257 94.7537
L249.257 96.201
L249.844 96.201
L249.844 94.6669
L250.431 94.6669
L250.431 89.7847
L251.018 89.7847
L251.018 88.4436
L251.605 88.4436
L251.605 88.9357
L252.192 88.9357
L252.192 91.425
L252.78 91.425
L252.78 90.3058
L253.367 90.3058
L253.367 91.3671
L254.541 91.3189
L254.541 91.6373
L255.128 91.6373
L255.128 94.7441
L255.715 94.7441
L255.715 93.8757
L256.302 93.8757
L256.302 93.0749
L256.889 93.0749
L256.889 93.6731
L257.476 93.6731
L257.476 94.9949
L258.064 94.9949
L258.064 93.0942
L258.651 93.0942
L258.651 94.088
L259.238 94.088
L259.238 93.4126
L259.825 93.4126
L259.825 92.4188
L260.412 92.4188
L260.412 93.3643
L260.999 93.3643
L260.999 95.13
L261.586 95.13
L261.586 93.7503
L262.173 93.7503
L262.173 93.6152
L262.76 93.6152
L262.76 93.9432
L263.348 93.9432
L263.348 90.3444
L263.935 90.3444
L263.935 92.1197
L264.522 92.1197
L264.522 92.4574
L265.109 92.4574
L265.109 94.3678
L265.696 94.3678
L265.696 95.6993
L266.283 95.6993
L266.283 110.577
L266.87 110.577
L266.87 104.47
L267.457 104.47
L267.457 91.5987
L268.632 91.6662
L268.632 91.9942
L269.219 91.9942
L269.219 92.2451
L269.806 92.2451
L269.806 92.7661
L270.393 92.7661
L270.393 92.6021
L270.98 92.6021
L270.98 93.1328
L271.567 93.1328
L271.567 91.7434
L272.154 91.7434
L272.154 94.3485
L272.741 94.3485
L272.741 94.1555
L273.328 94.1555
L273.328 95.2651
L273.916 95.2651
L273.916 97.0211
L274.503 97.0211
L274.503 96.2685
L275.09 96.2685
L275.09 95.2651
L275.677 95.2651
L275.677 92.6889
L276.264 92.6889
L276.264 93.4029
L276.851 93.4029
L276.851 94.3774
L277.438 94.3774
L277.438 93.7117
L278.025 93.7117
L278.025 94.2906
L278.612 94.2906
L278.612 93.7213
L279.199 93.7213
L279.199 95.7186
L279.787 95.7186
L279.787 93.8178
L280.961 93.8854
L280.961 93.4319
L281.548 93.4319
L281.548 95.159
L282.722 95.1783
L282.722 91.4636
L283.309 91.4636
L283.309 93.2003
L283.896 93.2003
L283.896 95.8826
L284.483 95.8826
L284.483 94.252
L285.658 94.1555
L285.658 93.6827
L286.245 93.6827
L286.245 94.3099
L286.832 94.3099
L286.832 96.4615
L287.419 96.4615
L287.419 93.6441
L288.006 93.6441
L288.006 93.017
L288.593 93.017
L288.593 94.3195
L289.18 94.3195
L289.18 93.9625
L289.767 93.9625
L289.767 93.8275
L290.355 93.8275
L290.355 93.9722
L290.942 93.9722
L290.942 95.9212
L291.529 95.9212
L291.529 91.9171
L292.116 91.9171
L292.116 94.8309
L292.703 94.8309
L292.703 93.6634
L293.29 93.6634
L293.29 92.8144
L293.877 92.8144
L293.877 93.4898
L295.051 93.5766
L295.051 98.9508
L295.639 98.9508
L295.639 111.6
L296.226 111.6
L296.226 91.8688
L296.813 91.8688
L296.813 89.0804
L297.4 89.0804
L297.4 93.345
L297.987 93.345
L297.987 92.5346
L298.574 92.5346
L298.574 90.19
L299.161 90.19
L299.161 89.64
L299.748 89.64
L299.748 90.0549
L300.335 90.0549
L300.335 92.11
L300.923 92.11
L300.923 90.9522
L301.51 90.9522
L301.51 91.7337
L302.097 91.7337
L302.097 92.7372
L302.684 92.7372
L302.684 93.5863
L304.445 93.4898
L304.445 94.0687
L305.032 94.0687
L305.032 95.4581
L305.619 95.4581
L305.619 94.0204
L306.206 94.0204
L306.206 93.731
L306.794 93.731
L306.794 94.3871
L307.381 94.3871
L307.381 93.8564
L307.968 93.8564
L307.968 95.9887
L308.555 95.9887
L308.555 94.8116
L309.142 94.8116
L309.142 95.4484
L309.729 95.4484
L309.729 90.4119
L310.316 90.4119
L310.316 93.4512
L310.903 93.4512
L310.903 92.5925
L311.49 92.5925
L311.49 92.7854
L312.078 92.7854
L312.078 93.8275
L312.665 93.8275
L312.665 95.9501
L313.252 95.9501
L313.252 94.9949
L313.839 94.9949
L313.839 95.3037
L315.013 95.3519
L315.013 100.716
L315.6 100.716
L315.6 94.2327
L316.187 94.2327
L316.187 94.802
L316.774 94.802
L316.774 97.5807
L317.362 97.5807
L317.362 96.4422
L317.949 96.4422
L317.949 96.0756
L318.536 96.0756
L318.536 96.2975
L319.123 96.2975
L319.123 94.6669
L319.71 94.6669
L319.71 94.9756
L320.297 94.9756
L320.297 97.4842
L320.884 97.4842
L320.884 94.6958
L321.471 94.6958
L321.471 92.8047
L322.058 92.8047
L322.058 95.5352
L322.646 95.5352
L322.646 94.059
L323.233 94.059
L323.233 93.5959
L323.82 93.5959
L323.82 94.5318
L324.407 94.5318
L324.407 96.2782
L324.994 96.2782
L324.994 95.4484
L325.581 95.4484
L325.581 94.4353
L326.168 94.4353
L326.168 95.5545
L326.755 95.5545
L326.755 94.966
L327.342 94.966
L327.342 94.7537
L327.93 94.7537
L327.93 93.7696
L328.517 93.7696
L328.517 89.447
L329.104 89.447
L329.104 90.2575
L329.691 90.2575
L329.691 92.4381
L330.278 92.4381
L330.278 91.1741
L330.865 91.1741
L330.865 92.2355
L331.452 92.2355
L331.452 93.21
L332.039 93.21
L332.039 94.6572
L332.626 94.6572
L332.626 94.445
L333.214 94.445
L333.214 94.6862
L333.801 94.6862
L333.801 101.72
L334.388 101.72
L334.388 96.7992
L335.562 96.7124
L335.562 95.1493
L336.149 95.1493
L336.149 93.8757
L336.736 93.8757
L336.736 95.2361
L337.323 95.2361
L337.323 94.7151
L337.91 94.7151
L337.91 94.2327
L338.497 94.2327
L338.497 96.4036
L339.085 96.4036
L339.085 97.2913
L339.672 97.2913
L339.672 97.4649
L340.259 97.4649
L340.259 97.8219
L340.846 97.8219
L340.846 96.6255
L341.433 96.6255
L341.433 97.2237
L342.02 97.2237
L342.02 100.736
L342.607 100.736
L342.607 97.0308
L343.194 97.0308
L343.194 100.282
L343.781 100.282
L343.781 101.344
L344.369 101.344
L344.369 98.4201
L344.956 98.4201
L344.956 97.793
L345.543 97.793
L345.543 97.3009
L346.13 97.3009
L346.13 94.3292
L346.717 94.3292
L346.717 93.2293
L347.304 93.2293
L347.304 94.3967
L347.891 94.3967
L347.891 92.5539
L348.478 92.5539
L348.478 97.7351
L349.065 97.7351
L349.065 93.7599
L349.653 93.7599
L349.653 94.609
L350.24 94.609
L350.24 94.1845
L350.827 94.1845
L350.827 94.9467
L351.414 94.9467
L351.414 96.4133
L352.001 96.4133
L352.001 97.3106
L352.588 97.3106
L352.588 97.108
L353.175 97.108
L353.175 100.215
L353.762 100.215
L353.762 99.9832
L354.349 99.9832
L354.349 97.7158
L354.937 97.7158
L354.937 96.9729
L355.524 96.9729
L355.524 99.6745
L356.111 99.6745
L356.111 98.8543
L356.698 98.8543
L356.698 99.2499
L357.285 99.2499
L357.285 111.6
L357.872 111.6
L357.872 111.108
L358.459 111.108
L358.459 98.5842
L359.046 98.5842
L359.046 96.9632
L359.633 96.9632
L359.633 97.5614
L360.221 97.5614
L360.221 96.3457
L360.808 96.3457
L360.808 95.2458
L361.395 95.2458
L361.395 96.3168
L362.569 96.3843
L362.569 97.4746
L363.156 97.4746
L363.156 96.4036
L363.743 96.4036
L363.743 98.4877
L364.33 98.4877
L364.33 97.4746
L364.917 97.4746
L364.917 98.4491
L365.505 98.4491
L365.505 96.3264
L366.092 96.3264
L366.092 95.4388
L366.679 95.4388
L366.679 96.1045
L367.266 96.1045
L367.266 99.4429
L367.853 99.4429
L367.853 100.803
L368.44 100.803
L368.44 97.9763
L369.027 97.9763
L369.027 97.4457
L369.614 97.4457
L369.614 93.7213
L370.201 93.7213
L370.201 92.0618
L370.788 92.0618
L370.788 93.5959
L371.376 93.5959
L371.376 95.1011
L371.963 95.1011
L371.963 93.702
L372.55 93.702
L372.55 98.9315
L373.137 98.9315
L373.137 97.0597
L373.724 97.0597
L373.724 98.3526
L374.311 98.3526
L374.311 96.7992
L374.898 96.7992
L374.898 95.6028
L375.485 95.6028
L375.485 95.9019
L376.072 95.9019
L376.072 99.5973
L376.66 99.5973
L376.66 99.3464
L377.247 99.3464
L377.247 97.0983
L377.834 97.0983
L377.834 98.7193
L378.421 98.7193
L378.421 98.4587
L379.595 98.4491
L379.595 101.672
L380.182 101.672
L380.182 98.2561
L380.769 98.2561
L380.769 98.7964
L381.356 98.7964
L381.356 101.961
L381.944 101.961
L381.944 98.1596
L383.118 98.1886
L383.118 95.6317
L383.705 95.6317
L383.705 106.235
L384.292 106.235
L384.292 111.6
L384.879 111.6
L384.879 99.935
L385.466 99.935
L385.466 97.1562
L386.053 97.1562
L386.053 97.5807
L386.64 97.5807
L386.64 97.272
L387.228 97.272
L387.228 97.6579
L387.815 97.6579
L387.815 99.4043
L388.402 99.4043
L388.402 98.9315
L388.989 98.9315
L388.989 98.5552
L389.576 98.5552
L389.576 96.0852
L390.163 96.0852
L390.163 96.5483
L390.75 96.5483
L390.75 96.1142
L391.337 96.1142
L391.337 98.3816
L391.924 98.3816
L391.924 97.5035
L392.512 97.5035
L392.512 97.1176
L393.099 97.1176
L393.099 97.6965
L393.686 97.6965
L393.686 97.4649
L394.273 97.4649
L394.273 96.4229
L394.86 96.4229
L394.86 100.06
L395.447 100.06
L395.447 99.549
L396.034 99.549
L396.034 100.234
L396.621 100.234
L396.621 101.787
L397.208 101.787
L397.208 102.965
L397.796 102.965
L397.796 102.965" style="fill:none;stroke:#0000ff;"/>
   </g>
   <g id="matplotlib.axis_1">
    <g id="xtick_1">
     <g id="line2d_21">
      <defs>
       <path d="
M0 0
L0 -4" id="m0012dd4eef" style="stroke:#000000;stroke-linecap:butt;stroke-width:0.5;"/>
      </defs>
      <g>
       <use style="stroke:#000000;stroke-linecap:butt;stroke-width:0.5;" x="46.1171875" xlink:href="#m0012dd4eef" y="111.6"/>
      </g>
     </g>
     <g id="line2d_22">
      <defs>
       <path d="
M0 0
L0 4" id="m476344969c" style="stroke:#000000;stroke-linecap:butt;stroke-width:0.5;"/>
      </defs>
      <g>
       <use style="stroke:#000000;stroke-linecap:butt;stroke-width:0.5;" x="46.1171875" xlink:href="#m476344969c" y="32.0"/>
      </g>
     </g>
     <g id="text_1">
      <!-- 0 -->
      <defs>
       <path d="
M31.7812 66.4062
Q24.1719 66.4062 20.3281 58.9062
Q16.5 51.4219 16.5 36.375
Q16.5 21.3906 20.3281 13.8906
Q24.1719 6.39062 31.7812 6.39062
Q39.4531 6.39062 43.2812 13.8906
Q47.125 21.3906 47.125 36.375
Q47.125 51.4219 43.2812 58.9062
Q39.4531 66.4062 31.7812 66.4062
M31.7812 74.2188
Q44.0469 74.2188 50.5156 64.5156
Q56.9844 54.8281 56.9844 36.375
Q56.9844 17.9688 50.5156 8.26562
Q44.0469 -1.42188 31.7812 -1.42188
Q19.5312 -1.42188 13.0625 8.26562
Q6.59375 17.9688 6.59375 36.375
Q6.59375 54.8281 13.0625 64.5156
Q19.5312 74.2188 31.7812 74.2188" id="DejaVuSans-30"/>
      </defs>
      <g transform="translate(43.59765625 123.021875)scale(0.1 -0.1)">
       <use xlink:href="#DejaVuSans-30"/>
      </g>
     </g>
    </g>
    <g id="xtick_2">
     <g id="line2d_23">
      <g>
       <use style="stroke:#000000;stroke-linecap:butt;stroke-width:0.5;" x="135.073242188" xlink:href="#m0012dd4eef" y="111.6"/>
      </g>
     </g>
     <g id="line2d_24">
      <g>
       <use style="stroke:#000000;stroke-linecap:butt;stroke-width:0.5;" x="135.073242188" xlink:href="#m476344969c" y="32.0"/>
      </g>
     </g>
     <g id="text_2">
      <!-- 500 -->
      <defs>
       <path d="
M10.7969 72.9062
L49.5156 72.9062
L49.5156 64.5938
L19.8281 64.5938
L19.8281 46.7344
Q21.9688 47.4688 24.1094 47.8281
Q26.2656 48.1875 28.4219 48.1875
Q40.625 48.1875 47.75 41.5
Q54.8906 34.8125 54.8906 23.3906
Q54.8906 11.625 47.5625 5.09375
Q40.2344 -1.42188 26.9062 -1.42188
Q22.3125 -1.42188 17.5469 -0.640625
Q12.7969 0.140625 7.71875 1.70312
L7.71875 11.625
Q12.1094 9.23438 16.7969 8.0625
Q21.4844 6.89062 26.7031 6.89062
Q35.1562 6.89062 40.0781 11.3281
Q45.0156 15.7656 45.0156 23.3906
Q45.0156 31 40.0781 35.4375
Q35.1562 39.8906 26.7031 39.8906
Q22.75 39.8906 18.8125 39.0156
Q14.8906 38.1406 10.7969 36.2812
z
" id="DejaVuSans-35"/>
      </defs>
      <g transform="translate(126.247460938 123.021875)scale(0.1 -0.1)">
       <use xlink:href="#DejaVuSans-35"/>
       <use x="63.623046875" xlink:href="#DejaVuSans-30"/>
       <use x="127.24609375" xlink:href="#DejaVuSans-30"/>
      </g>
     </g>
    </g>
    <g id="xtick_3">
     <g id="line2d_25">
      <g>
       <use style="stroke:#000000;stroke-linecap:butt;stroke-width:0.5;" x="224.029296875" xlink:href="#m0012dd4eef" y="111.6"/>
      </g>
     </g>
     <g id="line2d_26">
      <g>
       <use style="stroke:#000000;stroke-linecap:butt;stroke-width:0.5;" x="224.029296875" xlink:href="#m476344969c" y="32.0"/>
      </g>
     </g>
     <g id="text_3">
      <!-- 1000 -->
      <defs>
       <path d="
M12.4062 8.29688
L28.5156 8.29688
L28.5156 63.9219
L10.9844 60.4062
L10.9844 69.3906
L28.4219 72.9062
L38.2812 72.9062
L38.2812 8.29688
L54.3906 8.29688
L54.3906 0
L12.4062 0
z
" id="DejaVuSans-31"/>
      </defs>
      <g transform="translate(212.185546875 123.021875)scale(0.1 -0.1)">
       <use xlink:href="#DejaVuSans-31"/>
       <use x="63.623046875" xlink:href="#DejaVuSans-30"/>
       <use x="127.24609375" xlink:href="#DejaVuSans-30"/>
       <use x="190.869140625" xlink:href="#DejaVuSans-30"/>
      </g>
     </g>
    </g>
    <g id="xtick_4">
     <g id="line2d_27">
      <g>
       <use style="stroke:#000000;stroke-linecap:butt;stroke-width:0.5;" x="312.985351563" xlink:href="#m0012dd4eef" y="111.6"/>
      </g>
     </g>
     <g id="line2d_28">
      <g>
       <use style="stroke:#000000;stroke-linecap:butt;stroke-width:0.5;" x="312.985351563" xlink:href="#m476344969c" y="32.0"/>
      </g>
     </g>
     <g id="text_4">
      <!-- 1500 -->
      <g transform="translate(301.141601563 123.021875)scale(0.1 -0.1)">
       <use xlink:href="#DejaVuSans-31"/>
       <use x="63.623046875" xlink:href="#DejaVuSans-35"/>
       <use x="127.24609375" xlink:href="#DejaVuSans-30"/>
       <use x="190.869140625" xlink:href="#DejaVuSans-30"/>
      </g>
     </g>
    </g>
    <g id="xtick_5">
     <g id="line2d_29">
      <g>
       <use style="stroke:#000000;stroke-linecap:butt;stroke-width:0.5;" x="401.94140625" xlink:href="#m0012dd4eef" y="111.6"/>
      </g>
     </g>
     <g id="line2d_30">
      <g>
       <use style="stroke:#000000;stroke-linecap:butt;stroke-width:0.5;" x="401.94140625" xlink:href="#m476344969c" y="32.0"/>
      </g>
     </g>
     <g id="text_5">
      <!-- 2000 -->
      <defs>
       <path d="
M19.1875 8.29688
L53.6094 8.29688
L53.6094 0
L7.32812 0
L7.32812 8.29688
Q12.9375 14.1094 22.625 23.8906
Q32.3281 33.6875 34.8125 36.5312
Q39.5469 41.8438 41.4219 45.5312
Q43.3125 49.2188 43.3125 52.7812
Q43.3125 58.5938 39.2344 62.25
Q35.1562 65.9219 28.6094 65.9219
Q23.9688 65.9219 18.8125 64.3125
Q13.6719 62.7031 7.8125 59.4219
L7.8125 69.3906
Q13.7656 71.7812 18.9375 73
Q24.125 74.2188 28.4219 74.2188
Q39.75 74.2188 46.4844 68.5469
Q53.2188 62.8906 53.2188 53.4219
Q53.2188 48.9219 51.5312 44.8906
Q49.8594 40.875 45.4062 35.4062
Q44.1875 33.9844 37.6406 27.2188
Q31.1094 20.4531 19.1875 8.29688" id="DejaVuSans-32"/>
      </defs>
      <g transform="translate(389.91484375 123.021875)scale(0.1 -0.1)">
       <use xlink:href="#DejaVuSans-32"/>
       <use x="63.623046875" xlink:href="#DejaVuSans-30"/>
       <use x="127.24609375" xlink:href="#DejaVuSans-30"/>
       <use x="190.869140625" xlink:href="#DejaVuSans-30"/>
      </g>
     </g>
    </g>
    <g id="text_6">
     <!-- Time -->
     <defs>
      <path d="
M52 44.1875
Q55.375 50.25 60.0625 53.125
Q64.75 56 71.0938 56
Q79.6406 56 84.2812 50.0156
Q88.9219 44.0469 88.9219 33.0156
L88.9219 0
L79.8906 0
L79.8906 32.7188
Q79.8906 40.5781 77.0938 44.375
Q74.3125 48.1875 68.6094 48.1875
Q61.625 48.1875 57.5625 43.5469
Q53.5156 38.9219 53.5156 30.9062
L53.5156 0
L44.4844 0
L44.4844 32.7188
Q44.4844 40.625 41.7031 44.4062
Q38.9219 48.1875 33.1094 48.1875
Q26.2188 48.1875 22.1562 43.5312
Q18.1094 38.875 18.1094 30.9062
L18.1094 0
L9.07812 0
L9.07812 54.6875
L18.1094 54.6875
L18.1094 46.1875
Q21.1875 51.2188 25.4844 53.6094
Q29.7812 56 35.6875 56
Q41.6562 56 45.8281 52.9688
Q50 49.9531 52 44.1875" id="DejaVuSans-6d"/>
      <path d="
M9.42188 54.6875
L18.4062 54.6875
L18.4062 0
L9.42188 0
z

M9.42188 75.9844
L18.4062 75.9844
L18.4062 64.5938
L9.42188 64.5938
z
" id="DejaVuSans-69"/>
      <path d="
M56.2031 29.5938
L56.2031 25.2031
L14.8906 25.2031
Q15.4844 15.9219 20.4844 11.0625
Q25.4844 6.20312 34.4219 6.20312
Q39.5938 6.20312 44.4531 7.46875
Q49.3125 8.73438 54.1094 11.2812
L54.1094 2.78125
Q49.2656 0.734375 44.1875 -0.34375
Q39.1094 -1.42188 33.8906 -1.42188
Q20.7969 -1.42188 13.1562 6.1875
Q5.51562 13.8125 5.51562 26.8125
Q5.51562 40.2344 12.7656 48.1094
Q20.0156 56 32.3281 56
Q43.3594 56 49.7812 48.8906
Q56.2031 41.7969 56.2031 29.5938
M47.2188 32.2344
Q47.125 39.5938 43.0938 43.9844
Q39.0625 48.3906 32.4219 48.3906
Q24.9062 48.3906 20.3906 44.1406
Q15.875 39.8906 15.1875 32.1719
z
" id="DejaVuSans-65"/>
      <path d="
M-0.296875 72.9062
L61.375 72.9062
L61.375 64.5938
L35.5 64.5938
L35.5 0
L25.5938 0
L25.5938 64.5938
L-0.296875 64.5938
z
" id="DejaVuSans-54"/>
     </defs>
     <g transform="translate(212.047265625 135.7625)scale(0.1 -0.1)">
      <use xlink:href="#DejaVuSans-54"/>
      <use x="57.958984375" xlink:href="#DejaVuSans-69"/>
      <use x="85.7421875" xlink:href="#DejaVuSans-6d"/>
      <use x="183.154296875" xlink:href="#DejaVuSans-65"/>
     </g>
    </g>
   </g>
   <g id="matplotlib.axis_2">
    <g id="ytick_1">
     <g id="line2d_31">
      <defs>
       <path d="
M0 0
L4 0" id="me8a85f7bf6" style="stroke:#000000;stroke-linecap:butt;stroke-width:0.5;"/>
      </defs>
      <g>
       <use style="stroke:#000000;stroke-linecap:butt;stroke-width:0.5;" x="46.1171875" xlink:href="#me8a85f7bf6" y="111.6"/>
      </g>
     </g>
     <g id="line2d_32">
      <defs>
       <path d="
M0 0
L-4 0" id="m1a32005dea" style="stroke:#000000;stroke-linecap:butt;stroke-width:0.5;"/>
      </defs>
      <g>
       <use style="stroke:#000000;stroke-linecap:butt;stroke-width:0.5;" x="401.94140625" xlink:href="#m1a32005dea" y="111.6"/>
      </g>
     </g>
     <g id="text_7">
      <!-- 0 -->
      <g transform="translate(37.078125 115.23984375)scale(0.1 -0.1)">
       <use xlink:href="#DejaVuSans-30"/>
      </g>
     </g>
    </g>
    <g id="ytick_2">
     <g id="line2d_33">
      <g>
       <use style="stroke:#000000;stroke-linecap:butt;stroke-width:0.5;" x="46.1171875" xlink:href="#me8a85f7bf6" y="95.68"/>
      </g>
     </g>
     <g id="line2d_34">
      <g>
       <use style="stroke:#000000;stroke-linecap:butt;stroke-width:0.5;" x="401.94140625" xlink:href="#m1a32005dea" y="95.68"/>
      </g>
     </g>
     <g id="text_8">
      <!-- 500 -->
      <g transform="translate(24.465625 99.31984375)scale(0.1 -0.1)">
       <use xlink:href="#DejaVuSans-35"/>
       <use x="63.623046875" xlink:href="#DejaVuSans-30"/>
       <use x="127.24609375" xlink:href="#DejaVuSans-30"/>
      </g>
     </g>
    </g>
    <g id="ytick_3">
     <g id="line2d_35">
      <g>
       <use style="stroke:#000000;stroke-linecap:butt;stroke-width:0.5;" x="46.1171875" xlink:href="#me8a85f7bf6" y="79.76"/>
      </g>
     </g>
     <g id="line2d_36">
      <g>
       <use style="stroke:#000000;stroke-linecap:butt;stroke-width:0.5;" x="401.94140625" xlink:href="#m1a32005dea" y="79.76"/>
      </g>
     </g>
     <g id="text_9">
      <!-- 1000 -->
      <g transform="translate(18.4296875 83.39984375)scale(0.1 -0.1)">
       <use xlink:href="#DejaVuSans-31"/>
       <use x="63.623046875" xlink:href="#DejaVuSans-30"/>
       <use x="127.24609375" xlink:href="#DejaVuSans-30"/>
       <use x="190.869140625" xlink:href="#DejaVuSans-30"/>
      </g>
     </g>
    </g>
    <g id="ytick_4">
     <g id="line2d_37">
      <g>
       <use style="stroke:#000000;stroke-linecap:butt;stroke-width:0.5;" x="46.1171875" xlink:href="#me8a85f7bf6" y="63.84"/>
      </g>
     </g>
     <g id="line2d_38">
      <g>
       <use style="stroke:#000000;stroke-linecap:butt;stroke-width:0.5;" x="401.94140625" xlink:href="#m1a32005dea" y="63.84"/>
      </g>
     </g>
     <g id="text_10">
      <!-- 1500 -->
      <g transform="translate(18.4296875 67.47984375)scale(0.1 -0.1)">
       <use xlink:href="#DejaVuSans-31"/>
       <use x="63.623046875" xlink:href="#DejaVuSans-35"/>
       <use x="127.24609375" xlink:href="#DejaVuSans-30"/>
       <use x="190.869140625" xlink:href="#DejaVuSans-30"/>
      </g>
     </g>
    </g>
    <g id="ytick_5">
     <g id="line2d_39">
      <g>
       <use style="stroke:#000000;stroke-linecap:butt;stroke-width:0.5;" x="46.1171875" xlink:href="#me8a85f7bf6" y="47.92"/>
      </g>
     </g>
     <g id="line2d_40">
      <g>
       <use style="stroke:#000000;stroke-linecap:butt;stroke-width:0.5;" x="401.94140625" xlink:href="#m1a32005dea" y="47.92"/>
      </g>
     </g>
     <g id="text_11">
      <!-- 2000 -->
      <g transform="translate(18.0640625 51.55984375)scale(0.1 -0.1)">
       <use xlink:href="#DejaVuSans-32"/>
       <use x="63.623046875" xlink:href="#DejaVuSans-30"/>
       <use x="127.24609375" xlink:href="#DejaVuSans-30"/>
       <use x="190.869140625" xlink:href="#DejaVuSans-30"/>
      </g>
     </g>
    </g>
    <g id="ytick_6">
     <g id="line2d_41">
      <g>
       <use style="stroke:#000000;stroke-linecap:butt;stroke-width:0.5;" x="46.1171875" xlink:href="#me8a85f7bf6" y="32.0"/>
      </g>
     </g>
     <g id="line2d_42">
      <g>
       <use style="stroke:#000000;stroke-linecap:butt;stroke-width:0.5;" x="401.94140625" xlink:href="#m1a32005dea" y="32.0"/>
      </g>
     </g>
     <g id="text_12">
      <!-- 2500 -->
      <g transform="translate(18.0640625 35.63984375)scale(0.1 -0.1)">
       <use xlink:href="#DejaVuSans-32"/>
       <use x="63.623046875" xlink:href="#DejaVuSans-35"/>
       <use x="127.24609375" xlink:href="#DejaVuSans-30"/>
       <use x="190.869140625" xlink:href="#DejaVuSans-30"/>
      </g>
     </g>
    </g>
   </g>
   <g id="patch_3">
    <path d="
M46.1172 32
L401.941 32" style="fill:none;stroke:#000000;"/>
   </g>
   <g id="patch_4">
    <path d="
M401.941 111.6
L401.941 32" style="fill:none;stroke:#000000;"/>
   </g>
   <g id="patch_5">
    <path d="
M46.1172 111.6
L401.941 111.6" style="fill:none;stroke:#000000;"/>
   </g>
   <g id="patch_6">
    <path d="
M46.1172 111.6
L46.1172 32" style="fill:none;stroke:#000000;"/>
   </g>
   <g id="text_13">
    <!-- OLTP -->
    <defs>
     <path d="
M39.4062 66.2188
Q28.6562 66.2188 22.3281 58.2031
Q16.0156 50.2031 16.0156 36.375
Q16.0156 22.6094 22.3281 14.5938
Q28.6562 6.59375 39.4062 6.59375
Q50.1406 6.59375 56.4219 14.5938
Q62.7031 22.6094 62.7031 36.375
Q62.7031 50.2031 56.4219 58.2031
Q50.1406 66.2188 39.4062 66.2188
M39.4062 74.2188
Q54.7344 74.2188 63.9062 63.9375
Q73.0938 53.6562 73.0938 36.375
Q73.0938 19.1406 63.9062 8.85938
Q54.7344 -1.42188 39.4062 -1.42188
Q24.0312 -1.42188 14.8125 8.82812
Q5.60938 19.0938 5.60938 36.375
Q5.60938 53.6562 14.8125 63.9375
Q24.0312 74.2188 39.4062 74.2188" id="DejaVuSans-4f"/>
     <path d="
M19.6719 64.7969
L19.6719 37.4062
L32.0781 37.4062
Q38.9688 37.4062 42.7188 40.9688
Q46.4844 44.5312 46.4844 51.125
Q46.4844 57.6719 42.7188 61.2344
Q38.9688 64.7969 32.0781 64.7969
z

M9.8125 72.9062
L32.0781 72.9062
Q44.3438 72.9062 50.6094 67.3594
Q56.8906 61.8125 56.8906 51.125
Q56.8906 40.3281 50.6094 34.8125
Q44.3438 29.2969 32.0781 29.2969
L19.6719 29.2969
L19.6719 0
L9.8125 0
z
" id="DejaVuSans-50"/>
     <path d="
M9.8125 72.9062
L19.6719 72.9062
L19.6719 8.29688
L55.1719 8.29688
L55.1719 0
L9.8125 0
z
" id="DejaVuSans-4c"/>
    </defs>
    <g transform="translate(210.046484375 27.0)scale(0.12 -0.12)">
     <use xlink:href="#DejaVuSans-4f"/>
     <use x="78.7109375" xlink:href="#DejaVuSans-4c"/>
     <use x="120.673828125" xlink:href="#DejaVuSans-54"/>
     <use x="181.7578125" xlink:href="#DejaVuSans-50"/>
    </g>
   </g>
  </g>
  <g id="axes_2">
   <g id="patch_7">
    <path d="
M46.1172 246.6
L401.941 246.6
L401.941 167
L46.1172 167
z
" style="fill:#ffffff;"/>
   </g>
   <g id="line2d_43">
    <path clip-path="url(#pe9bd9c4693)" d="
M56.7925 246.6
L56.7925 167" style="fill:none;stroke:#00ffff;stroke-dasharray:6.000000,6.000000;stroke-dashoffset:0.0;stroke-linecap:butt;"/>
   </g>
   <g id="line2d_44">
    <path clip-path="url(#pe9bd9c4693)" d="
M78.1424 246.6
L78.1424 167" style="fill:none;stroke:#00ffff;stroke-dasharray:6.000000,6.000000;stroke-dashoffset:0.0;stroke-linecap:butt;"/>
   </g>
   <g id="line2d_45">
    <path clip-path="url(#pe9bd9c4693)" d="
M99.4913 246.6
L99.4913 167" style="fill:none;stroke:#00ffff;stroke-dasharray:6.000000,6.000000;stroke-dashoffset:0.0;stroke-linecap:butt;"/>
   </g>
   <g id="line2d_46">
    <path clip-path="url(#pe9bd9c4693)" d="
M120.841 246.6
L120.841 167" style="fill:none;stroke:#00ffff;stroke-dasharray:6.000000,6.000000;stroke-dashoffset:0.0;stroke-linecap:butt;"/>
   </g>
   <g id="line2d_47">
    <path clip-path="url(#pe9bd9c4693)" d="
M142.19 246.6
L142.19 167" style="fill:none;stroke:#00ffff;stroke-dasharray:6.000000,6.000000;stroke-dashoffset:0.0;stroke-linecap:butt;"/>
   </g>
   <g id="line2d_48">
    <path clip-path="url(#pe9bd9c4693)" d="
M163.539 246.6
L163.539 167" style="fill:none;stroke:#00ffff;stroke-dasharray:6.000000,6.000000;stroke-dashoffset:0.0;stroke-linecap:butt;"/>
   </g>
   <g id="line2d_49">
    <path clip-path="url(#pe9bd9c4693)" d="
M163.54 246.6
L163.54 167" style="fill:none;stroke:#00ffff;stroke-dasharray:6.000000,6.000000;stroke-dashoffset:0.0;stroke-linecap:butt;"/>
   </g>
   <g id="line2d_50">
    <path clip-path="url(#pe9bd9c4693)" d="
M184.889 246.6
L184.889 167" style="fill:none;stroke:#00ffff;stroke-dasharray:6.000000,6.000000;stroke-dashoffset:0.0;stroke-linecap:butt;"/>
   </g>
   <g id="line2d_51">
    <path clip-path="url(#pe9bd9c4693)" d="
M206.238 246.6
L206.238 167" style="fill:none;stroke:#00ffff;stroke-dasharray:6.000000,6.000000;stroke-dashoffset:0.0;stroke-linecap:butt;"/>
   </g>
   <g id="line2d_52">
    <path clip-path="url(#pe9bd9c4693)" d="
M227.588 246.6
L227.588 167" style="fill:none;stroke:#00ffff;stroke-dasharray:6.000000,6.000000;stroke-dashoffset:0.0;stroke-linecap:butt;"/>
   </g>
   <g id="line2d_53">
    <path clip-path="url(#pe9bd9c4693)" d="
M227.588 246.6
L227.588 167" style="fill:none;stroke:#00ffff;stroke-dasharray:6.000000,6.000000;stroke-dashoffset:0.0;stroke-linecap:butt;"/>
   </g>
   <g id="line2d_54">
    <path clip-path="url(#pe9bd9c4693)" d="
M248.938 246.6
L248.938 167" style="fill:none;stroke:#00ffff;stroke-dasharray:6.000000,6.000000;stroke-dashoffset:0.0;stroke-linecap:butt;"/>
   </g>
   <g id="line2d_55">
    <path clip-path="url(#pe9bd9c4693)" d="
M248.938 246.6
L248.938 167" style="fill:none;stroke:#00ffff;stroke-dasharray:6.000000,6.000000;stroke-dashoffset:0.0;stroke-linecap:butt;"/>
   </g>
   <g id="line2d_56">
    <path clip-path="url(#pe9bd9c4693)" d="
M270.287 246.6
L270.287 167" style="fill:none;stroke:#00ffff;stroke-dasharray:6.000000,6.000000;stroke-dashoffset:0.0;stroke-linecap:butt;"/>
   </g>
   <g id="line2d_57">
    <path clip-path="url(#pe9bd9c4693)" d="
M291.637 246.6
L291.637 167" style="fill:none;stroke:#00ffff;stroke-dasharray:6.000000,6.000000;stroke-dashoffset:0.0;stroke-linecap:butt;"/>
   </g>
   <g id="line2d_58">
    <path clip-path="url(#pe9bd9c4693)" d="
M312.997 246.6
L312.997 167" style="fill:none;stroke:#00ffff;stroke-dasharray:6.000000,6.000000;stroke-dashoffset:0.0;stroke-linecap:butt;"/>
   </g>
   <g id="line2d_59">
    <path clip-path="url(#pe9bd9c4693)" d="
M334.335 246.6
L334.335 167" style="fill:none;stroke:#00ffff;stroke-dasharray:6.000000,6.000000;stroke-dashoffset:0.0;stroke-linecap:butt;"/>
   </g>
   <g id="line2d_60">
    <path clip-path="url(#pe9bd9c4693)" d="
M355.686 246.6
L355.686 167" style="fill:none;stroke:#00ffff;stroke-dasharray:6.000000,6.000000;stroke-dashoffset:0.0;stroke-linecap:butt;"/>
   </g>
   <g id="line2d_61">
    <path clip-path="url(#pe9bd9c4693)" d="
M377.034 246.6
L377.034 167" style="fill:none;stroke:#00ffff;stroke-dasharray:6.000000,6.000000;stroke-dashoffset:0.0;stroke-linecap:butt;"/>
   </g>
   <g id="line2d_62">
    <path clip-path="url(#pe9bd9c4693)" d="
M56.7922 219.879
L56.7922 204.849
L76.8761 204.849
L76.8761 201.323
L96.9599 201.323
L96.9599 205.591
L117.044 205.591
L117.044 202.436
L137.128 202.436
L137.128 202.065
L157.212 202.065
L157.212 202.436
L177.295 202.436
L177.295 208.931
L197.379 208.931
L197.379 213.013
L217.463 213.013
L217.463 208.189
L237.547 208.189
L237.547 217.652
L257.631 217.652
L257.631 218.58
L277.715 218.58
L277.715 214.312
L297.799 214.312
L297.799 215.982
L317.883 215.982
L317.883 221.364
L337.966 221.364
L337.966 222.848
L358.05 222.848
L358.05 222.663
L378.134 222.663" style="fill:none;stroke:#008000;"/>
   </g>
   <g id="matplotlib.axis_3">
    <g id="xtick_6">
     <g id="line2d_63">
      <g>
       <use style="stroke:#000000;stroke-linecap:butt;stroke-width:0.5;" x="46.1171875" xlink:href="#m0012dd4eef" y="246.6"/>
      </g>
     </g>
     <g id="line2d_64">
      <g>
       <use style="stroke:#000000;stroke-linecap:butt;stroke-width:0.5;" x="46.1171875" xlink:href="#m476344969c" y="167.0"/>
      </g>
     </g>
     <g id="text_14">
      <!-- 0 -->
      <g transform="translate(43.59765625 258.021875)scale(0.1 -0.1)">
       <use xlink:href="#DejaVuSans-30"/>
      </g>
     </g>
    </g>
    <g id="xtick_7">
     <g id="line2d_65">
      <g>
       <use style="stroke:#000000;stroke-linecap:butt;stroke-width:0.5;" x="135.073242188" xlink:href="#m0012dd4eef" y="246.6"/>
      </g>
     </g>
     <g id="line2d_66">
      <g>
       <use style="stroke:#000000;stroke-linecap:butt;stroke-width:0.5;" x="135.073242188" xlink:href="#m476344969c" y="167.0"/>
      </g>
     </g>
     <g id="text_15">
      <!-- 500 -->
      <g transform="translate(126.247460938 258.021875)scale(0.1 -0.1)">
       <use xlink:href="#DejaVuSans-35"/>
       <use x="63.623046875" xlink:href="#DejaVuSans-30"/>
       <use x="127.24609375" xlink:href="#DejaVuSans-30"/>
      </g>
     </g>
    </g>
    <g id="xtick_8">
     <g id="line2d_67">
      <g>
       <use style="stroke:#000000;stroke-linecap:butt;stroke-width:0.5;" x="224.029296875" xlink:href="#m0012dd4eef" y="246.6"/>
      </g>
     </g>
     <g id="line2d_68">
      <g>
       <use style="stroke:#000000;stroke-linecap:butt;stroke-width:0.5;" x="224.029296875" xlink:href="#m476344969c" y="167.0"/>
      </g>
     </g>
     <g id="text_16">
      <!-- 1000 -->
      <g transform="translate(212.185546875 258.021875)scale(0.1 -0.1)">
       <use xlink:href="#DejaVuSans-31"/>
       <use x="63.623046875" xlink:href="#DejaVuSans-30"/>
       <use x="127.24609375" xlink:href="#DejaVuSans-30"/>
       <use x="190.869140625" xlink:href="#DejaVuSans-30"/>
      </g>
     </g>
    </g>
    <g id="xtick_9">
     <g id="line2d_69">
      <g>
       <use style="stroke:#000000;stroke-linecap:butt;stroke-width:0.5;" x="312.985351563" xlink:href="#m0012dd4eef" y="246.6"/>
      </g>
     </g>
     <g id="line2d_70">
      <g>
       <use style="stroke:#000000;stroke-linecap:butt;stroke-width:0.5;" x="312.985351563" xlink:href="#m476344969c" y="167.0"/>
      </g>
     </g>
     <g id="text_17">
      <!-- 1500 -->
      <g transform="translate(301.141601563 258.021875)scale(0.1 -0.1)">
       <use xlink:href="#DejaVuSans-31"/>
       <use x="63.623046875" xlink:href="#DejaVuSans-35"/>
       <use x="127.24609375" xlink:href="#DejaVuSans-30"/>
       <use x="190.869140625" xlink:href="#DejaVuSans-30"/>
      </g>
     </g>
    </g>
    <g id="xtick_10">
     <g id="line2d_71">
      <g>
       <use style="stroke:#000000;stroke-linecap:butt;stroke-width:0.5;" x="401.94140625" xlink:href="#m0012dd4eef" y="246.6"/>
      </g>
     </g>
     <g id="line2d_72">
      <g>
       <use style="stroke:#000000;stroke-linecap:butt;stroke-width:0.5;" x="401.94140625" xlink:href="#m476344969c" y="167.0"/>
      </g>
     </g>
     <g id="text_18">
      <!-- 2000 -->
      <g transform="translate(389.91484375 258.021875)scale(0.1 -0.1)">
       <use xlink:href="#DejaVuSans-32"/>
       <use x="63.623046875" xlink:href="#DejaVuSans-30"/>
       <use x="127.24609375" xlink:href="#DejaVuSans-30"/>
       <use x="190.869140625" xlink:href="#DejaVuSans-30"/>
      </g>
     </g>
    </g>
    <g id="text_19">
     <!-- Time -->
     <g transform="translate(212.047265625 270.7625)scale(0.1 -0.1)">
      <use xlink:href="#DejaVuSans-54"/>
      <use x="57.958984375" xlink:href="#DejaVuSans-69"/>
      <use x="85.7421875" xlink:href="#DejaVuSans-6d"/>
      <use x="183.154296875" xlink:href="#DejaVuSans-65"/>
     </g>
    </g>
   </g>
   <g id="matplotlib.axis_4">
    <g id="ytick_7">
     <g id="line2d_73">
      <g>
       <use style="stroke:#000000;stroke-linecap:butt;stroke-width:0.5;" x="46.1171875" xlink:href="#me8a85f7bf6" y="246.6"/>
      </g>
     </g>
     <g id="line2d_74">
      <g>
       <use style="stroke:#000000;stroke-linecap:butt;stroke-width:0.5;" x="401.94140625" xlink:href="#m1a32005dea" y="246.6"/>
      </g>
     </g>
     <g id="text_20">
      <!-- 0.0 -->
      <defs>
       <path d="
M10.6875 12.4062
L21 12.4062
L21 0
L10.6875 0
z
" id="DejaVuSans-2e"/>
      </defs>
      <g transform="translate(27.5375 250.23984375)scale(0.1 -0.1)">
       <use xlink:href="#DejaVuSans-30"/>
       <use x="63.623046875" xlink:href="#DejaVuSans-2e"/>
       <use x="95.41015625" xlink:href="#DejaVuSans-30"/>
      </g>
     </g>
    </g>
    <g id="ytick_8">
     <g id="line2d_75">
      <g>
       <use style="stroke:#000000;stroke-linecap:butt;stroke-width:0.5;" x="46.1171875" xlink:href="#me8a85f7bf6" y="236.126315789"/>
      </g>
     </g>
     <g id="line2d_76">
      <g>
       <use style="stroke:#000000;stroke-linecap:butt;stroke-width:0.5;" x="401.94140625" xlink:href="#m1a32005dea" y="236.126315789"/>
      </g>
     </g>
     <g id="text_21">
      <!-- 0.5 -->
      <g transform="translate(27.746875 239.766159539)scale(0.1 -0.1)">
       <use xlink:href="#DejaVuSans-30"/>
       <use x="63.623046875" xlink:href="#DejaVuSans-2e"/>
       <use x="95.41015625" xlink:href="#DejaVuSans-35"/>
      </g>
     </g>
    </g>
    <g id="ytick_9">
     <g id="line2d_77">
      <g>
       <use style="stroke:#000000;stroke-linecap:butt;stroke-width:0.5;" x="46.1171875" xlink:href="#me8a85f7bf6" y="225.652631579"/>
      </g>
     </g>
     <g id="line2d_78">
      <g>
       <use style="stroke:#000000;stroke-linecap:butt;stroke-width:0.5;" x="401.94140625" xlink:href="#m1a32005dea" y="225.652631579"/>
      </g>
     </g>
     <g id="text_22">
      <!-- 1.0 -->
      <g transform="translate(27.9765625 229.292475329)scale(0.1 -0.1)">
       <use xlink:href="#DejaVuSans-31"/>
       <use x="63.623046875" xlink:href="#DejaVuSans-2e"/>
       <use x="95.41015625" xlink:href="#DejaVuSans-30"/>
      </g>
     </g>
    </g>
    <g id="ytick_10">
     <g id="line2d_79">
      <g>
       <use style="stroke:#000000;stroke-linecap:butt;stroke-width:0.5;" x="46.1171875" xlink:href="#me8a85f7bf6" y="215.178947368"/>
      </g>
     </g>
     <g id="line2d_80">
      <g>
       <use style="stroke:#000000;stroke-linecap:butt;stroke-width:0.5;" x="401.94140625" xlink:href="#m1a32005dea" y="215.178947368"/>
      </g>
     </g>
     <g id="text_23">
      <!-- 1.5 -->
      <g transform="translate(28.1859375 218.753166118)scale(0.1 -0.1)">
       <use xlink:href="#DejaVuSans-31"/>
       <use x="63.623046875" xlink:href="#DejaVuSans-2e"/>
       <use x="95.41015625" xlink:href="#DejaVuSans-35"/>
      </g>
     </g>
    </g>
    <g id="ytick_11">
     <g id="line2d_81">
      <g>
       <use style="stroke:#000000;stroke-linecap:butt;stroke-width:0.5;" x="46.1171875" xlink:href="#me8a85f7bf6" y="204.705263158"/>
      </g>
     </g>
     <g id="line2d_82">
      <g>
       <use style="stroke:#000000;stroke-linecap:butt;stroke-width:0.5;" x="401.94140625" xlink:href="#m1a32005dea" y="204.705263158"/>
      </g>
     </g>
     <g id="text_24">
      <!-- 2.0 -->
      <g transform="translate(27.6109375 208.345106908)scale(0.1 -0.1)">
       <use xlink:href="#DejaVuSans-32"/>
       <use x="63.623046875" xlink:href="#DejaVuSans-2e"/>
       <use x="95.41015625" xlink:href="#DejaVuSans-30"/>
      </g>
     </g>
    </g>
    <g id="ytick_12">
     <g id="line2d_83">
      <g>
       <use style="stroke:#000000;stroke-linecap:butt;stroke-width:0.5;" x="46.1171875" xlink:href="#me8a85f7bf6" y="194.231578947"/>
      </g>
     </g>
     <g id="line2d_84">
      <g>
       <use style="stroke:#000000;stroke-linecap:butt;stroke-width:0.5;" x="401.94140625" xlink:href="#m1a32005dea" y="194.231578947"/>
      </g>
     </g>
     <g id="text_25">
      <!-- 2.5 -->
      <g transform="translate(27.8203125 197.871422697)scale(0.1 -0.1)">
       <use xlink:href="#DejaVuSans-32"/>
       <use x="63.623046875" xlink:href="#DejaVuSans-2e"/>
       <use x="95.41015625" xlink:href="#DejaVuSans-35"/>
      </g>
     </g>
    </g>
    <g id="ytick_13">
     <g id="line2d_85">
      <g>
       <use style="stroke:#000000;stroke-linecap:butt;stroke-width:0.5;" x="46.1171875" xlink:href="#me8a85f7bf6" y="183.757894737"/>
      </g>
     </g>
     <g id="line2d_86">
      <g>
       <use style="stroke:#000000;stroke-linecap:butt;stroke-width:0.5;" x="401.94140625" xlink:href="#m1a32005dea" y="183.757894737"/>
      </g>
     </g>
     <g id="text_26">
      <!-- 3.0 -->
      <defs>
       <path d="
M40.5781 39.3125
Q47.6562 37.7969 51.625 33
Q55.6094 28.2188 55.6094 21.1875
Q55.6094 10.4062 48.1875 4.48438
Q40.7656 -1.42188 27.0938 -1.42188
Q22.5156 -1.42188 17.6562 -0.515625
Q12.7969 0.390625 7.625 2.20312
L7.625 11.7188
Q11.7188 9.32812 16.5938 8.10938
Q21.4844 6.89062 26.8125 6.89062
Q36.0781 6.89062 40.9375 10.5469
Q45.7969 14.2031 45.7969 21.1875
Q45.7969 27.6406 41.2812 31.2656
Q36.7656 34.9062 28.7188 34.9062
L20.2188 34.9062
L20.2188 43.0156
L29.1094 43.0156
Q36.375 43.0156 40.2344 45.9219
Q44.0938 48.8281 44.0938 54.2969
Q44.0938 59.9062 40.1094 62.9062
Q36.1406 65.9219 28.7188 65.9219
Q24.6562 65.9219 20.0156 65.0312
Q15.375 64.1562 9.8125 62.3125
L9.8125 71.0938
Q15.4375 72.6562 20.3438 73.4375
Q25.25 74.2188 29.5938 74.2188
Q40.8281 74.2188 47.3594 69.1094
Q53.9062 64.0156 53.9062 55.3281
Q53.9062 49.2656 50.4375 45.0938
Q46.9688 40.9219 40.5781 39.3125" id="DejaVuSans-33"/>
      </defs>
      <g transform="translate(27.640625 187.397738487)scale(0.1 -0.1)">
       <use xlink:href="#DejaVuSans-33"/>
       <use x="63.623046875" xlink:href="#DejaVuSans-2e"/>
       <use x="95.41015625" xlink:href="#DejaVuSans-30"/>
      </g>
     </g>
    </g>
    <g id="ytick_14">
     <g id="line2d_87">
      <g>
       <use style="stroke:#000000;stroke-linecap:butt;stroke-width:0.5;" x="46.1171875" xlink:href="#me8a85f7bf6" y="173.284210526"/>
      </g>
     </g>
     <g id="line2d_88">
      <g>
       <use style="stroke:#000000;stroke-linecap:butt;stroke-width:0.5;" x="401.94140625" xlink:href="#m1a32005dea" y="173.284210526"/>
      </g>
     </g>
     <g id="text_27">
      <!-- 3.5 -->
      <g transform="translate(27.85 176.924054276)scale(0.1 -0.1)">
       <use xlink:href="#DejaVuSans-33"/>
       <use x="63.623046875" xlink:href="#DejaVuSans-2e"/>
       <use x="95.41015625" xlink:href="#DejaVuSans-35"/>
      </g>
     </g>
    </g>
   </g>
   <g id="patch_8">
    <path d="
M46.1172 167
L401.941 167" style="fill:none;stroke:#000000;"/>
   </g>
   <g id="patch_9">
    <path d="
M401.941 246.6
L401.941 167" style="fill:none;stroke:#000000;"/>
   </g>
   <g id="patch_10">
    <path d="
M46.1172 246.6
L401.941 246.6" style="fill:none;stroke:#000000;"/>
   </g>
   <g id="patch_11">
    <path d="
M46.1172 246.6
L46.1172 167" style="fill:none;stroke:#000000;"/>
   </g>
   <g id="text_28">
    <!-- OLAP -->
    <defs>
     <path d="
M34.1875 63.1875
L20.7969 26.9062
L47.6094 26.9062
z

M28.6094 72.9062
L39.7969 72.9062
L67.5781 0
L57.3281 0
L50.6875 18.7031
L17.8281 18.7031
L11.1875 0
L0.78125 0
z
" id="DejaVuSans-41"/>
    </defs>
    <g transform="translate(208.646796875 162.0)scale(0.12 -0.12)">
     <use xlink:href="#DejaVuSans-4f"/>
     <use x="78.7109375" xlink:href="#DejaVuSans-4c"/>
     <use x="136.673828125" xlink:href="#DejaVuSans-41"/>
     <use x="205.08203125" xlink:href="#DejaVuSans-50"/>
    </g>
   </g>
  </g>
  <g id="text_29">
   <!-- 2 OLTP workers -->
   <defs>
    <path d="
M30.6094 48.3906
Q23.3906 48.3906 19.1875 42.75
Q14.9844 37.1094 14.9844 27.2969
Q14.9844 17.4844 19.1562 11.8438
Q23.3438 6.20312 30.6094 6.20312
Q37.7969 6.20312 41.9844 11.8594
Q46.1875 17.5312 46.1875 27.2969
Q46.1875 37.0156 41.9844 42.7031
Q37.7969 48.3906 30.6094 48.3906
M30.6094 56
Q42.3281 56 49.0156 48.375
Q55.7188 40.7656 55.7188 27.2969
Q55.7188 13.875 49.0156 6.21875
Q42.3281 -1.42188 30.6094 -1.42188
Q18.8438 -1.42188 12.1719 6.21875
Q5.51562 13.875 5.51562 27.2969
Q5.51562 40.7656 12.1719 48.375
Q18.8438 56 30.6094 56" id="DejaVuSans-6f"/>
    <path d="
M9.07812 75.9844
L18.1094 75.9844
L18.1094 31.1094
L44.9219 54.6875
L56.3906 54.6875
L27.3906 29.1094
L57.625 0
L45.9062 0
L18.1094 26.7031
L18.1094 0
L9.07812 0
z
" id="DejaVuSans-6b"/>
    <path id="DejaVuSans-20"/>
    <path d="
M4.20312 54.6875
L13.1875 54.6875
L24.4219 12.0156
L35.5938 54.6875
L46.1875 54.6875
L57.4219 12.0156
L68.6094 54.6875
L77.5938 54.6875
L63.2812 0
L52.6875 0
L40.9219 44.8281
L29.1094 0
L18.5 0
z
" id="DejaVuSans-77"/>
    <path d="
M44.2812 53.0781
L44.2812 44.5781
Q40.4844 46.5312 36.375 47.5
Q32.2812 48.4844 27.875 48.4844
Q21.1875 48.4844 17.8438 46.4375
Q14.5 44.3906 14.5 40.2812
Q14.5 37.1562 16.8906 35.375
Q19.2812 33.5938 26.5156 31.9844
L29.5938 31.2969
Q39.1562 29.25 43.1875 25.5156
Q47.2188 21.7812 47.2188 15.0938
Q47.2188 7.46875 41.1875 3.01562
Q35.1562 -1.42188 24.6094 -1.42188
Q20.2188 -1.42188 15.4531 -0.5625
Q10.6875 0.296875 5.42188 2
L5.42188 11.2812
Q10.4062 8.6875 15.2344 7.39062
Q20.0625 6.10938 24.8125 6.10938
Q31.1562 6.10938 34.5625 8.28125
Q37.9844 10.4531 37.9844 14.4062
Q37.9844 18.0625 35.5156 20.0156
Q33.0625 21.9688 24.7031 23.7812
L21.5781 24.5156
Q13.2344 26.2656 9.51562 29.9062
Q5.8125 33.5469 5.8125 39.8906
Q5.8125 47.6094 11.2812 51.7969
Q16.75 56 26.8125 56
Q31.7812 56 36.1719 55.2656
Q40.5781 54.5469 44.2812 53.0781" id="DejaVuSans-73"/>
    <path d="
M41.1094 46.2969
Q39.5938 47.1719 37.8125 47.5781
Q36.0312 48 33.8906 48
Q26.2656 48 22.1875 43.0469
Q18.1094 38.0938 18.1094 28.8125
L18.1094 0
L9.07812 0
L9.07812 54.6875
L18.1094 54.6875
L18.1094 46.1875
Q20.9531 51.1719 25.4844 53.5781
Q30.0312 56 36.5312 56
Q37.4531 56 38.5781 55.875
Q39.7031 55.7656 41.0625 55.5156
z
" id="DejaVuSans-72"/>
   </defs>
   <g transform="translate(178.1265625 13.3584375)scale(0.1 -0.1)">
    <use xlink:href="#DejaVuSans-32"/>
    <use x="63.623046875" xlink:href="#DejaVuSans-20"/>
    <use x="95.41015625" xlink:href="#DejaVuSans-4f"/>
    <use x="174.12109375" xlink:href="#DejaVuSans-4c"/>
    <use x="216.083984375" xlink:href="#DejaVuSans-54"/>
    <use x="277.16796875" xlink:href="#DejaVuSans-50"/>
    <use x="337.470703125" xlink:href="#DejaVuSans-20"/>
    <use x="369.2578125" xlink:href="#DejaVuSans-77"/>
    <use x="451.044921875" xlink:href="#DejaVuSans-6f"/>
    <use x="512.2265625" xlink:href="#DejaVuSans-72"/>
    <use x="553.33984375" xlink:href="#DejaVuSans-6b"/>
    <use x="607.625" xlink:href="#DejaVuSans-65"/>
    <use x="669.1484375" xlink:href="#DejaVuSans-72"/>
    <use x="710.26171875" xlink:href="#DejaVuSans-73"/>
   </g>
  </g>
 </g>
 <defs>
  <clipPath id="pe9bd9c4693">
   <rect height="79.6" width="355.82421875" x="46.1171875" y="167.0"/>
  </clipPath>
  <clipPath id="paafe9ad165">
   <rect height="79.6" width="355.82421875" x="46.1171875" y="32.0"/>
  </clipPath>
 </defs>
</svg>
