<?xml version="1.0" encoding="utf-8" standalone="no"?>
<!DOCTYPE svg PUBLIC "-//W3C//DTD SVG 1.1//EN"
  "http://www.w3.org/Graphics/SVG/1.1/DTD/svg11.dtd">
<!-- Created with matplotlib (http://matplotlib.sourceforge.net/) -->
<svg height="288pt" version="1.1" viewBox="0 0 432 288" width="432pt" xmlns="http://www.w3.org/2000/svg" xmlns:xlink="http://www.w3.org/1999/xlink">
 <defs>
  <style type="text/css">
*{stroke-linecap:square;stroke-linejoin:round;}
  </style>
 </defs>
 <g id="figure_1">
  <g id="patch_1">
   <path d="
M0 288
L432 288
L432 0
L0 0
z
" style="fill:#ffffff;"/>
  </g>
  <g id="axes_1">
   <g id="patch_2">
    <path d="
M46.1172 111.6
L401.941 111.6
L401.941 32
L46.1172 32
z
" style="fill:#ffffff;"/>
   </g>
   <g id="line2d_1">
    <path clip-path="url(#paafe9ad165)" d="
M56.7921 111.6
L56.7921 32" style="fill:none;stroke:#00ffff;stroke-dasharray:6.000000,6.000000;stroke-dashoffset:0.0;stroke-linecap:butt;"/>
   </g>
   <g id="line2d_2">
    <path clip-path="url(#paafe9ad165)" d="
M78.1418 111.6
L78.1418 32" style="fill:none;stroke:#00ffff;stroke-dasharray:6.000000,6.000000;stroke-dashoffset:0.0;stroke-linecap:butt;"/>
   </g>
   <g id="line2d_3">
    <path clip-path="url(#paafe9ad165)" d="
M78.1422 111.6
L78.1422 32" style="fill:none;stroke:#00ffff;stroke-dasharray:6.000000,6.000000;stroke-dashoffset:0.0;stroke-linecap:butt;"/>
   </g>
   <g id="line2d_4">
    <path clip-path="url(#paafe9ad165)" d="
M99.4911 111.6
L99.4911 32" style="fill:none;stroke:#00ffff;stroke-dasharray:6.000000,6.000000;stroke-dashoffset:0.0;stroke-linecap:butt;"/>
   </g>
   <g id="line2d_5">
    <path clip-path="url(#paafe9ad165)" d="
M99.4911 111.6
L99.4911 32" style="fill:none;stroke:#00ffff;stroke-dasharray:6.000000,6.000000;stroke-dashoffset:0.0;stroke-linecap:butt;"/>
   </g>
   <g id="line2d_6">
    <path clip-path="url(#paafe9ad165)" d="
M120.841 111.6
L120.841 32" style="fill:none;stroke:#00ffff;stroke-dasharray:6.000000,6.000000;stroke-dashoffset:0.0;stroke-linecap:butt;"/>
   </g>
   <g id="line2d_7">
    <path clip-path="url(#paafe9ad165)" d="
M120.841 111.6
L120.841 32" style="fill:none;stroke:#00ffff;stroke-dasharray:6.000000,6.000000;stroke-dashoffset:0.0;stroke-linecap:butt;"/>
   </g>
   <g id="line2d_8">
    <path clip-path="url(#paafe9ad165)" d="
M120.841 111.6
L120.841 32" style="fill:none;stroke:#00ffff;stroke-dasharray:6.000000,6.000000;stroke-dashoffset:0.0;stroke-linecap:butt;"/>
   </g>
   <g id="line2d_9">
    <path clip-path="url(#paafe9ad165)" d="
M142.191 111.6
L142.191 32" style="fill:none;stroke:#00ffff;stroke-dasharray:6.000000,6.000000;stroke-dashoffset:0.0;stroke-linecap:butt;"/>
   </g>
   <g id="line2d_10">
    <path clip-path="url(#paafe9ad165)" d="
M163.54 111.6
L163.54 32" style="fill:none;stroke:#00ffff;stroke-dasharray:6.000000,6.000000;stroke-dashoffset:0.0;stroke-linecap:butt;"/>
   </g>
   <g id="line2d_11">
    <path clip-path="url(#paafe9ad165)" d="
M163.54 111.6
L163.54 32" style="fill:none;stroke:#00ffff;stroke-dasharray:6.000000,6.000000;stroke-dashoffset:0.0;stroke-linecap:butt;"/>
   </g>
   <g id="line2d_12">
    <path clip-path="url(#paafe9ad165)" d="
M184.889 111.6
L184.889 32" style="fill:none;stroke:#00ffff;stroke-dasharray:6.000000,6.000000;stroke-dashoffset:0.0;stroke-linecap:butt;"/>
   </g>
   <g id="line2d_13">
    <path clip-path="url(#paafe9ad165)" d="
M206.238 111.6
L206.238 32" style="fill:none;stroke:#00ffff;stroke-dasharray:6.000000,6.000000;stroke-dashoffset:0.0;stroke-linecap:butt;"/>
   </g>
   <g id="line2d_14">
    <path clip-path="url(#paafe9ad165)" d="
M227.588 111.6
L227.588 32" style="fill:none;stroke:#00ffff;stroke-dasharray:6.000000,6.000000;stroke-dashoffset:0.0;stroke-linecap:butt;"/>
   </g>
   <g id="line2d_15">
    <path clip-path="url(#paafe9ad165)" d="
M248.937 111.6
L248.937 32" style="fill:none;stroke:#00ffff;stroke-dasharray:6.000000,6.000000;stroke-dashoffset:0.0;stroke-linecap:butt;"/>
   </g>
   <g id="line2d_16">
    <path clip-path="url(#paafe9ad165)" d="
M270.287 111.6
L270.287 32" style="fill:none;stroke:#00ffff;stroke-dasharray:6.000000,6.000000;stroke-dashoffset:0.0;stroke-linecap:butt;"/>
   </g>
   <g id="line2d_17">
    <path clip-path="url(#paafe9ad165)" d="
M291.636 111.6
L291.636 32" style="fill:none;stroke:#00ffff;stroke-dasharray:6.000000,6.000000;stroke-dashoffset:0.0;stroke-linecap:butt;"/>
   </g>
   <g id="line2d_18">
    <path clip-path="url(#paafe9ad165)" d="
M312.986 111.6
L312.986 32" style="fill:none;stroke:#00ffff;stroke-dasharray:6.000000,6.000000;stroke-dashoffset:0.0;stroke-linecap:butt;"/>
   </g>
   <g id="line2d_19">
    <path clip-path="url(#paafe9ad165)" d="
M334.335 111.6
L334.335 32" style="fill:none;stroke:#00ffff;stroke-dasharray:6.000000,6.000000;stroke-dashoffset:0.0;stroke-linecap:butt;"/>
   </g>
   <g id="line2d_20">
    <path clip-path="url(#paafe9ad165)" d="
M355.685 111.6
L355.685 32" style="fill:none;stroke:#00ffff;stroke-dasharray:6.000000,6.000000;stroke-dashoffset:0.0;stroke-linecap:butt;"/>
   </g>
   <g id="line2d_21">
    <path clip-path="url(#paafe9ad165)" d="
M377.034 111.6
L377.034 32" style="fill:none;stroke:#00ffff;stroke-dasharray:6.000000,6.000000;stroke-dashoffset:0.0;stroke-linecap:butt;"/>
   </g>
   <g id="line2d_22">
    <path clip-path="url(#paafe9ad165)" d="
M46.1172 81.4996
L46.1172 80.3512
L46.7042 80.3512
L46.7042 86.3443
L47.2911 86.3443
L47.2911 76.3269
L47.8781 76.3269
L47.8781 82.4744
L48.4651 82.4744
L48.4651 82.2138
L49.0521 82.2138
L49.0521 82.6674
L49.6391 82.6674
L49.6391 83.063
L50.226 83.063
L50.226 82.2331
L51.4 82.2524
L51.4 83.0727
L51.987 83.0727
L51.987 82.4937
L52.574 82.4937
L52.574 82.1945
L53.7479 82.098
L53.7479 81.4128
L54.3349 81.4128
L54.3349 82.4068
L55.5088 82.4454
L55.5088 82.6481
L56.0958 82.6481
L56.0958 83.4877
L56.6828 83.4877
L56.6828 73.1422
L57.2698 73.1422
L57.2698 70.4014
L57.8568 70.4014
L57.8568 79.9266
L58.4437 79.9266
L58.4437 81.4417
L59.6177 81.3549
L59.6177 78.4114
L60.2047 78.4114
L60.2047 81.6734
L60.7917 81.6734
L60.7917 79.6467
L61.3786 79.6467
L61.3786 80.0038
L61.9656 80.0038
L61.9656 82.5805
L63.1396 82.6288
L63.1396 83.7193
L63.7265 83.7193
L63.7265 83.3043
L64.3135 83.3043
L64.3135 83.7482
L64.9005 83.7482
L64.9005 84.2887
L65.4875 84.2887
L65.4875 82.3103
L66.0745 82.3103
L66.0745 82.0594
L66.6614 82.0594
L66.6614 81.7602
L67.2484 81.7602
L67.2484 82.5709
L67.8354 82.5709
L67.8354 81.3838
L68.4224 81.3838
L68.4224 82.098
L69.0094 82.098
L69.0094 83.6131
L70.1833 83.6131
L70.1833 83.7289
L70.7703 83.7289
L70.7703 83.6035
L71.3573 83.6035
L71.3573 83.1885
L71.9442 83.1885
L71.9442 82.677
L72.5312 82.677
L72.5312 61.8027
L73.1182 61.8027
L73.1182 61.0017
L73.7052 61.0017
L73.7052 59.9015
L74.2922 59.9015
L74.2922 63.1055
L74.8791 63.1055
L74.8791 62.3721
L75.4661 62.3721
L75.4661 61.1657
L76.0531 61.1657
L76.0531 65.3059
L76.6401 65.3059
L76.6401 77.7166
L77.2271 77.7166
L77.2271 88.506
L77.814 88.506
L77.814 72.1578
L78.401 72.1578
L78.401 64.2636
L78.988 64.2636
L78.988 60.7797
L79.575 60.7797
L79.575 64.0416
L80.1619 64.0416
L80.1619 61.9764
L80.7489 61.9764
L80.7489 63.1152
L81.3359 63.1152
L81.3359 63.9065
L81.9229 63.9065
L81.9229 63.4915
L82.5099 63.4915
L82.5099 62.6423
L83.0968 62.6423
L83.0968 59.6988
L83.6838 59.6988
L83.6838 57.8845
L84.2708 57.8845
L84.2708 61.1175
L85.4448 61.1368
L85.4448 60.9245
L86.0317 60.9245
L86.0317 63.8486
L86.6187 63.8486
L86.6187 62.8256
L87.2057 62.8256
L87.2057 62.9801
L87.7927 62.9801
L87.7927 61.7641
L88.3796 61.7641
L88.3796 61.185
L88.9666 61.185
L88.9666 80.8241
L89.5536 80.8241
L89.5536 63.3082
L90.1406 63.3082
L90.1406 72.5728
L90.7276 72.5728
L90.7276 63.8583
L91.3145 63.8583
L91.3145 62.6905
L91.9015 62.6905
L91.9015 63.7907
L92.4885 63.7907
L92.4885 64.3891
L93.0755 64.3891
L93.0755 63.6363
L93.6625 63.6363
L93.6625 62.0825
L94.2494 62.0825
L94.2494 60.799
L95.4234 60.7122
L95.4234 63.3661
L96.0104 63.3661
L96.0104 62.9994
L96.5973 62.9994
L96.5973 61.1464
L97.1843 61.1464
L97.1843 61.986
L97.7713 61.986
L97.7713 63.0766
L98.3583 63.0766
L98.3583 67.7764
L98.9453 67.7764
L98.9453 73.4414
L99.5322 73.4414
L99.5322 64.2346
L100.119 64.2346
L100.119 62.9125
L100.706 62.9125
L100.706 63.5108
L101.88 63.5398
L101.88 64.0995
L102.467 64.0995
L102.467 63.038
L103.054 63.038
L103.054 63.6073
L103.641 63.6073
L103.641 63.0959
L104.228 63.0959
L104.228 63.2792
L104.815 63.2792
L104.815 63.7521
L105.402 63.7521
L105.402 71.5305
L105.989 71.5305
L105.989 74.5415
L106.576 74.5415
L106.576 61.986
L107.163 61.986
L107.163 65.0067
L107.75 65.0067
L107.75 63.0573
L108.337 63.0573
L108.337 65.1418
L108.924 65.1418
L108.924 61.2622
L109.511 61.2622
L109.511 65.0453
L110.098 65.0453
L110.098 60.6929
L110.685 60.6929
L110.685 63.9934
L111.272 63.9934
L111.272 64.4084
L111.859 64.4084
L111.859 62.6616
L112.446 62.6616
L112.446 62.401
L113.033 62.401
L113.033 62.6423
L113.62 62.6423
L113.62 64.5724
L114.207 64.5724
L114.207 65.7691
L114.794 65.7691
L114.794 65.5182
L115.381 65.5182
L115.381 61.7641
L115.968 61.7641
L115.968 65.7305
L116.555 65.7305
L116.555 63.8776
L117.142 63.8776
L117.142 65.8849
L117.729 65.8849
L117.729 64.6882
L118.316 64.6882
L118.316 63.839
L118.903 63.839
L118.903 66.821
L119.49 66.821
L119.49 62.816
L120.076 62.816
L120.076 80.7758
L120.663 80.7758
L120.663 76.0181
L121.25 76.0181
L121.25 71.2314
L121.837 71.2314
L121.837 64.7654
L122.424 64.7654
L122.424 66.8114
L123.011 66.8114
L123.011 69.3977
L123.598 69.3977
L123.598 72.1771
L124.185 72.1771
L124.185 70.8357
L124.772 70.8357
L124.772 69.7838
L125.359 69.7838
L125.359 67.7378
L125.946 67.7378
L125.946 64.7944
L126.533 64.7944
L126.533 71.1445
L127.12 71.1445
L127.12 70.662
L127.707 70.662
L127.707 67.0044
L128.294 67.0044
L128.294 71.1735
L128.881 71.1735
L128.881 70.7585
L130.055 70.8067
L130.055 66.6763
L130.642 66.6763
L130.642 69.3302
L131.229 69.3302
L131.229 73.229
L131.816 73.229
L131.816 70.3918
L132.403 70.3918
L132.403 71.82
L132.99 71.82
L132.99 70.5076
L133.577 70.5076
L133.577 69.031
L134.164 69.031
L134.164 67.6317
L134.751 67.6317
L134.751 71.7621
L135.338 71.7621
L135.338 73.2966
L135.925 73.2966
L135.925 75.8154
L136.512 75.8154
L136.512 67.9791
L137.099 67.9791
L137.099 66.3192
L137.686 66.3192
L137.686 72.4666
L138.273 72.4666
L138.273 73.6247
L138.86 73.6247
L138.86 73.1422
L139.447 73.1422
L139.447 78.2377
L140.034 78.2377
L140.034 72.8816
L140.621 72.8816
L140.621 73.0746
L141.208 73.0746
L141.208 76.9735
L141.795 76.9735
L141.795 80.0713
L142.382 80.0713
L142.382 75.1399
L142.969 75.1399
L142.969 75.9698
L143.556 75.9698
L143.556 71.7139
L144.143 71.7139
L144.143 69.1661
L144.73 69.1661
L144.73 72.7465
L145.317 72.7465
L145.317 74.1555
L145.904 74.1555
L145.904 73.8853
L146.491 73.8853
L146.491 74.4933
L147.078 74.4933
L147.078 77.4078
L147.664 77.4078
L147.664 89.4228
L148.251 89.4228
L148.251 83.922
L148.838 83.922
L148.838 82.3006
L149.425 82.3006
L149.425 74.2424
L150.012 74.2424
L150.012 73.5282
L150.599 73.5282
L150.599 71.3182
L151.186 71.3182
L151.186 70.0057
L151.773 70.0057
L151.773 73.4221
L152.36 73.4221
L152.36 76.8577
L152.947 76.8577
L152.947 77.4271
L153.534 77.4271
L153.534 73.2773
L154.121 73.2773
L154.121 74.5608
L154.708 74.5608
L154.708 69.4653
L155.295 69.4653
L155.295 71.3858
L155.882 71.3858
L155.882 74.8696
L156.469 74.8696
L156.469 72.0613
L157.056 72.0613
L157.056 73.866
L157.643 73.866
L157.643 77.842
L158.23 77.842
L158.23 70.5848
L158.817 70.5848
L158.817 74.1072
L159.404 74.1072
L159.404 72.7369
L159.991 72.7369
L159.991 73.0553
L160.578 73.0553
L160.578 72.0227
L161.165 72.0227
L161.165 69.8417
L161.752 69.8417
L161.752 97.1626
L162.339 97.1626
L162.339 73.2483
L162.926 73.2483
L162.926 79.6081
L163.513 79.6081
L163.513 76.655
L164.1 76.655
L164.1 77.2534
L164.687 77.2534
L164.687 76.9542
L165.274 76.9542
L165.274 78.1316
L165.861 78.1316
L165.861 77.1086
L166.448 77.1086
L166.448 75.7575
L167.035 75.7575
L167.035 76.2497
L167.622 76.2497
L167.622 78.894
L168.209 78.894
L168.209 74.8407
L168.796 74.8407
L168.796 73.4607
L169.383 73.4607
L169.383 73.9528
L169.97 73.9528
L169.97 79.2028
L170.557 79.2028
L170.557 76.1146
L171.144 76.1146
L171.144 75.2267
L171.731 75.2267
L171.731 76.5971
L172.318 76.5971
L172.318 76.0663
L172.905 76.0663
L172.905 75.6707
L173.492 75.6707
L173.492 76.6936
L174.079 76.6936
L174.079 78.3053
L174.666 78.3053
L174.666 80.5442
L175.839 80.5056
L175.839 84.9642
L176.426 84.9642
L176.426 82.3682
L177.013 82.3682
L177.013 81.0075
L177.6 81.0075
L177.6 82.4358
L178.187 82.4358
L178.187 80.6407
L178.774 80.6407
L178.774 77.7069
L179.361 77.7069
L179.361 79.1352
L179.948 79.1352
L179.948 81.4514
L180.535 81.4514
L180.535 83.4008
L181.122 83.4008
L181.122 81.3549
L181.709 81.3549
L181.709 78.4404
L182.296 78.4404
L182.296 84.5685
L182.883 84.5685
L182.883 82.2427
L183.47 82.2427
L183.47 82.706
L184.057 82.706
L184.057 85.5529
L184.644 85.5529
L184.644 89.9633
L185.231 89.9633
L185.231 82.6481
L185.818 82.6481
L185.818 83.3333
L186.405 83.3333
L186.405 86.8171
L186.992 86.8171
L186.992 76.1918
L187.579 76.1918
L187.579 77.5525
L188.166 77.5525
L188.166 80.2644
L188.753 80.2644
L188.753 79.1835
L189.34 79.1835
L189.34 78.6817
L189.927 78.6817
L189.927 101.583
L190.514 101.583
L190.514 88.9113
L191.101 88.9113
L191.101 79.8783
L191.688 79.8783
L191.688 80.7372
L192.275 80.7372
L192.275 84.086
L192.862 84.086
L192.862 84.7519
L193.449 84.7519
L193.449 80.274
L194.036 80.274
L194.036 83.1499
L194.623 83.1499
L194.623 86.7978
L195.21 86.7978
L195.21 86.325
L195.797 86.325
L195.797 84.8098
L196.971 84.723
L196.971 77.2727
L197.558 77.2727
L197.558 79.7722
L198.145 79.7722
L198.145 78.8264
L198.732 78.8264
L198.732 80.689
L199.319 80.689
L199.319 81.8278
L199.906 81.8278
L199.906 84.3755
L200.493 84.3755
L200.493 85.0993
L201.08 85.0993
L201.08 86.3153
L201.667 86.3153
L201.667 88.535
L202.253 88.535
L202.253 84.5685
L202.84 84.5685
L202.84 75.6803
L203.427 75.6803
L203.427 81.0268
L204.014 81.0268
L204.014 78.3053
L204.601 78.3053
L204.601 79.4537
L205.188 79.4537
L205.188 85.0125
L205.775 85.0125
L205.775 88.1296
L206.362 88.1296
L206.362 87.7243
L206.949 87.7243
L206.949 88.535
L207.536 88.535
L207.536 85.7749
L208.123 85.7749
L208.123 86.2478
L208.71 86.2478
L208.71 86.6531
L209.297 86.6531
L209.297 86.7785
L209.884 86.7785
L209.884 87.7629
L210.471 87.7629
L210.471 88.2165
L211.058 88.2165
L211.058 86.682
L211.645 86.682
L211.645 90.2528
L212.232 90.2528
L212.232 85.8907
L212.819 85.8907
L212.819 84.5975
L213.406 84.5975
L213.406 81.7023
L213.993 81.7023
L213.993 80.3802
L214.58 80.3802
L214.58 83.1306
L215.167 83.1306
L215.167 83.7675
L215.754 83.7675
L215.754 86.6627
L216.341 86.6627
L216.341 84.1729
L216.928 84.1729
L216.928 84.0474
L217.515 84.0474
L217.515 86.8268
L218.102 86.8268
L218.102 86.5276
L218.689 86.5276
L218.689 86.9426
L219.276 86.9426
L219.276 89.0464
L219.863 89.0464
L219.863 84.2597
L220.45 84.2597
L220.45 81.6348
L221.037 81.6348
L221.037 87.2418
L221.624 87.2418
L221.624 84.4527
L222.211 84.4527
L222.211 83.9702
L222.798 83.9702
L222.798 85.2634
L223.385 85.2634
L223.385 110.5
L223.972 110.5
L223.972 93.0997
L224.559 93.0997
L224.559 87.2321
L225.146 87.2321
L225.146 83.2368
L225.733 83.2368
L225.733 77.7648
L226.32 77.7648
L226.32 84.5975
L226.907 84.5975
L226.907 88.7376
L227.494 88.7376
L227.494 83.3815
L228.081 83.3815
L228.081 85.4854
L228.668 85.4854
L228.668 85.0704
L229.255 85.0704
L229.255 88.892
L229.841 88.892
L229.841 85.8907
L230.428 85.8907
L230.428 88.2454
L231.015 88.2454
L231.015 91.4398
L231.602 91.4398
L231.602 90.5133
L232.189 90.5133
L232.189 88.8631
L232.776 88.8631
L232.776 82.4068
L233.363 82.4068
L233.363 83.7675
L233.95 83.7675
L233.95 85.9968
L234.537 85.9968
L234.537 86.4215
L235.124 86.4215
L235.124 87.3286
L235.711 87.3286
L235.711 88.0524
L236.298 88.0524
L236.298 89.6062
L236.885 89.6062
L236.885 89.2491
L237.472 89.2491
L237.472 89.6351
L238.059 89.6351
L238.059 87.8787
L238.646 87.8787
L238.646 89.4807
L239.233 89.4807
L239.233 92.54
L239.82 92.54
L239.82 96.1783
L240.407 96.1783
L240.407 96.3327
L240.994 96.3327
L240.994 93.5147
L241.581 93.5147
L241.581 87.7726
L242.168 87.7726
L242.168 88.9499
L242.755 88.9499
L242.755 87.7243
L243.342 87.7243
L243.342 89.1333
L243.929 89.1333
L243.929 83.8447
L244.516 83.8447
L244.516 83.4973
L245.103 83.4973
L245.103 85.6494
L245.69 85.6494
L245.69 85.3985
L246.277 85.3985
L246.277 87.126
L246.864 87.126
L246.864 87.4348
L247.451 87.4348
L247.451 79.4923
L248.038 79.4923
L248.038 85.1862
L248.625 85.1862
L248.625 85.7845
L249.212 85.7845
L249.212 87.1356
L249.799 87.1356
L249.799 90.0019
L250.386 90.0019
L250.386 90.1949
L250.973 90.1949
L250.973 88.7666
L251.56 88.7666
L251.56 88.1779
L252.147 88.1779
L252.147 89.5772
L252.734 89.5772
L252.734 88.535
L253.321 88.535
L253.321 88.9499
L253.908 88.9499
L253.908 90.523
L254.495 90.523
L254.495 90.909
L255.082 90.909
L255.082 92.926
L256.256 92.9839
L256.256 91.7004
L256.843 91.7004
L256.843 102.895
L257.429 102.895
L257.429 108.985
L258.016 108.985
L258.016 93.1576
L258.603 93.1576
L258.603 89.6737
L259.19 89.6737
L259.19 90.2431
L259.777 90.2431
L259.777 89.0368
L260.364 89.0368
L260.364 94.113
L260.951 94.113
L260.951 90.6871
L261.538 90.6871
L261.538 92.347
L262.125 92.347
L262.125 95.3773
L262.712 95.3773
L262.712 91.3529
L263.299 91.3529
L263.299 91.8258
L263.886 91.8258
L263.886 91.3047
L264.473 91.3047
L264.473 111.6
L265.06 111.6
L265.06 94.6921
L265.647 94.6921
L265.647 90.6678
L266.234 90.6678
L266.234 86.9909
L266.821 86.9909
L266.821 86.7689
L267.408 86.7689
L267.408 89.0561
L267.995 89.0561
L267.995 99.8745
L268.582 99.8745
L268.582 88.6315
L269.169 88.6315
L269.169 89.1719
L269.756 89.1719
L269.756 91.2371
L270.93 91.1503
L270.93 90.1466
L271.517 90.1466
L271.517 91.5074
L272.104 91.5074
L272.104 91.932
L272.691 91.932
L272.691 96.0914
L273.278 96.0914
L273.278 93.0515
L273.865 93.0515
L273.865 91.4398
L274.452 91.4398
L274.452 93.1673
L275.039 93.1673
L275.039 85.7749
L275.626 85.7749
L275.626 81.3645
L276.213 81.3645
L276.213 83.1982
L276.8 83.1982
L276.8 83.5166
L277.387 83.5166
L277.387 81.9532
L277.974 81.9532
L277.974 83.4008
L278.561 83.4008
L278.561 83.2271
L279.735 83.2754
L279.735 84.0281
L280.322 84.0281
L280.322 82.484
L282.083 82.484
L282.083 83.8737
L282.67 83.8737
L282.67 85.6301
L283.257 85.6301
L283.257 85.8135
L283.844 85.8135
L283.844 85.6977
L284.431 85.6977
L284.431 98.6874
L285.017 98.6874
L285.017 90.7546
L285.604 90.7546
L285.604 87.3286
L286.191 87.3286
L286.191 87.5409
L286.778 87.5409
L286.778 90.6388
L287.365 90.6388
L287.365 89.9247
L288.539 90.0308
L288.539 91.8644
L289.126 91.8644
L289.126 92.1636
L289.713 92.1636
L289.713 94.4991
L290.3 94.4991
L290.3 96.8635
L290.887 96.8635
L290.887 94.9623
L291.474 94.9623
L291.474 92.5882
L292.061 92.5882
L292.061 94.5473
L292.648 94.5473
L292.648 94.9333
L293.235 94.9333
L293.235 98.0891
L293.822 98.0891
L293.822 97.0082
L294.409 97.0082
L294.409 96.1107
L295.583 96.1976
L295.583 97.1723
L296.17 97.1723
L296.17 94.9816
L296.757 94.9816
L296.757 94.2771
L297.344 94.2771
L297.344 93.8332
L297.931 93.8332
L297.931 99.3726
L298.518 99.3726
L298.518 90.8029
L299.105 90.8029
L299.105 90.494
L299.692 90.494
L299.692 88.1103
L300.279 88.1103
L300.279 90.3686
L300.866 90.3686
L300.866 92.0478
L301.453 92.0478
L301.453 90.301
L302.04 90.301
L302.04 91.8451
L302.627 91.8451
L302.627 92.4821
L303.214 92.4821
L303.214 91.7293
L303.801 91.7293
L303.801 95.5799
L304.388 95.5799
L304.388 92.8874
L304.975 92.8874
L304.975 92.3084
L305.562 92.3084
L305.562 95.4738
L306.149 95.4738
L306.149 93.5726
L306.736 93.5726
L306.736 93.8428
L307.323 93.8428
L307.323 97.8961
L307.91 97.8961
L307.91 97.0565
L308.497 97.0565
L308.497 94.1227
L309.084 94.1227
L309.084 94.5184
L309.671 94.5184
L309.671 96.3713
L310.258 96.3713
L310.258 94.8465
L310.845 94.8465
L310.845 97.4811
L311.432 97.4811
L311.432 90.7932
L312.018 90.7932
L312.018 94.4122
L312.605 94.4122
L312.605 96.4678
L313.192 96.4678
L313.192 93.9104
L313.779 93.9104
L313.779 94.4508
L314.366 94.4508
L314.366 94.9044
L314.953 94.9044
L314.953 94.306
L315.54 94.306
L315.54 95.107
L316.127 95.107
L316.127 103.532
L316.714 103.532
L316.714 111.6
L317.888 111.6
L317.888 95.4159
L318.475 95.4159
L318.475 92.1057
L319.062 92.1057
L319.062 91.4398
L319.649 91.4398
L319.649 92.5014
L320.236 92.5014
L320.236 95.6475
L320.823 95.6475
L320.823 94.1227
L321.41 94.1227
L321.41 94.6149
L321.997 94.6149
L321.997 92.1347
L323.171 92.1829
L323.171 92.5882
L323.758 92.5882
L323.758 93.756
L324.345 93.756
L324.345 97.1723
L324.932 97.1723
L324.932 93.6981
L325.519 93.6981
L325.519 94.0262
L326.106 94.0262
L326.106 94.8368
L326.693 94.8368
L326.693 92.9067
L327.28 92.9067
L327.28 93.8139
L327.867 93.8139
L327.867 96.6512
L328.454 96.6512
L328.454 95.1457
L329.041 95.1457
L329.041 90.5133
L329.628 90.5133
L329.628 91.2275
L330.215 91.2275
L330.215 93.312
L330.802 93.312
L330.802 90.7064
L331.389 90.7064
L331.389 95.0588
L331.976 95.0588
L331.976 95.7054
L332.563 95.7054
L332.563 92.3084
L333.15 92.3084
L333.15 92.7137
L333.737 92.7137
L333.737 95.0298
L334.324 95.0298
L334.324 96.1397
L334.911 96.1397
L334.911 96.5932
L335.498 96.5932
L335.498 95.937
L336.085 95.937
L336.085 95.0781
L336.672 95.0781
L336.672 97.2012
L337.259 97.2012
L337.259 95.2036
L337.846 95.2036
L337.846 95.5027
L338.433 95.5027
L338.433 97.1144
L339.02 97.1144
L339.02 98.8032
L339.606 98.8032
L339.606 95.966
L340.193 95.966
L340.193 94.5377
L340.78 94.5377
L340.78 98.0891
L341.367 98.0891
L341.367 92.926
L341.954 92.926
L341.954 96.352
L342.541 96.352
L342.541 96.159
L343.128 96.159
L343.128 97.7513
L343.715 97.7513
L343.715 95.1746
L344.302 95.1746
L344.302 98.8805
L344.889 98.8805
L344.889 95.7054
L345.476 95.7054
L345.476 95.2615
L346.063 95.2615
L346.063 98.0312
L346.65 98.0312
L346.65 94.0551
L347.237 94.0551
L347.237 97.5776
L347.824 97.5776
L347.824 96.159
L348.411 96.159
L348.411 96.7863
L348.998 96.7863
L348.998 96.5257
L349.585 96.5257
L349.585 93.7656
L350.172 93.7656
L350.172 95.6089
L350.759 95.6089
L350.759 94.1806
L351.346 94.1806
L351.346 95.4352
L351.933 95.4352
L351.933 96.8249
L352.52 96.8249
L352.52 95.3194
L353.107 95.3194
L353.107 93.341
L353.694 93.341
L353.694 93.9297
L354.281 93.9297
L354.281 95.966
L354.868 95.966
L354.868 95.6378
L355.455 95.6378
L355.455 95.7536
L356.042 95.7536
L356.042 96.323
L356.629 96.323
L356.629 97.5101
L357.216 97.5101
L357.216 97.1144
L357.803 97.1144
L357.803 94.0551
L358.39 94.0551
L358.39 95.6861
L358.977 95.6861
L358.977 93.7656
L359.564 93.7656
L359.564 90.33
L360.151 90.33
L360.151 93.9586
L360.738 93.9586
L360.738 94.721
L361.325 94.721
L361.325 93.5243
L361.912 93.5243
L361.912 96.8442
L362.499 96.8442
L362.499 94.0262
L363.086 94.0262
L363.086 110.963
L363.673 110.963
L363.673 111.6
L364.26 111.6
L364.26 102.837
L364.847 102.837
L364.847 94.1323
L365.434 94.1323
L365.434 94.2578
L366.021 94.2578
L366.021 96.8152
L367.194 96.8056
L367.194 98.0215
L367.781 98.0215
L367.781 97.4232
L368.368 97.4232
L368.368 97.0468
L368.955 97.0468
L368.955 95.1939
L369.542 95.1939
L369.542 94.7403
L370.129 94.7403
L370.129 92.8681
L370.716 92.8681
L370.716 90.0308
L371.303 90.0308
L371.303 92.2601
L371.89 92.2601
L371.89 89.3263
L372.477 89.3263
L372.477 93.3313
L373.064 93.3313
L373.064 94.1323
L373.651 94.1323
L373.651 89.114
L374.238 89.114
L374.238 94.2095
L374.825 94.2095
L374.825 91.8934
L375.412 91.8934
L375.412 90.8704
L375.999 90.8704
L375.999 91.9899
L376.586 91.9899
L376.586 94.8368
L377.173 94.8368
L377.173 94.113
L377.76 94.113
L377.76 95.136
L378.347 95.136
L378.347 96.0239
L378.934 96.0239
L378.934 95.107
L379.521 95.107
L379.521 93.9876
L380.695 94.0551
L380.695 95.107
L381.282 95.107
L381.282 97.1337
L381.869 97.1337
L381.869 98.2049
L382.456 98.2049
L382.456 99.6236
L383.043 99.6236
L383.043 100.135
L383.63 100.135
L383.63 100.965
L384.217 100.965
L384.217 93.5919
L384.804 93.5919
L384.804 92.9646
L385.391 92.9646
L385.391 100.608
L385.978 100.608
L385.978 96.323
L386.565 96.323
L386.565 92.7233
L387.152 92.7233
L387.152 93.0708
L387.739 93.0708
L387.739 95.2422
L388.326 95.2422
L388.326 93.8332
L388.913 93.8332
L388.913 93.4471
L389.5 93.4471
L389.5 95.1167
L390.087 95.1167
L390.087 95.2422
L390.674 95.2422
L390.674 94.4701
L391.261 94.4701
L391.261 99.2375
L391.848 99.2375
L391.848 95.0877
L393.022 95.0298
L393.022 96.3809
L393.609 96.3809
L393.609 108.811
L394.196 108.811
L394.196 99.1796
L394.782 99.1796
L394.782 96.5257
L395.369 96.5257
L395.369 98.4751
L395.956 98.4751
L395.956 98.9287
L396.543 98.9287
L396.543 98.5909
L397.13 98.5909
L397.13 97.6066
L397.717 97.6066
L397.717 97.6066" style="fill:none;stroke:#0000ff;"/>
   </g>
   <g id="matplotlib.axis_1">
    <g id="xtick_1">
     <g id="line2d_23">
      <defs>
       <path d="
M0 0
L0 -4" id="m0012dd4eef" style="stroke:#000000;stroke-linecap:butt;stroke-width:0.5;"/>
      </defs>
      <g>
       <use style="stroke:#000000;stroke-linecap:butt;stroke-width:0.5;" x="46.1171875" xlink:href="#m0012dd4eef" y="111.6"/>
      </g>
     </g>
     <g id="line2d_24">
      <defs>
       <path d="
M0 0
L0 4" id="m476344969c" style="stroke:#000000;stroke-linecap:butt;stroke-width:0.5;"/>
      </defs>
      <g>
       <use style="stroke:#000000;stroke-linecap:butt;stroke-width:0.5;" x="46.1171875" xlink:href="#m476344969c" y="32.0"/>
      </g>
     </g>
     <g id="text_1">
      <!-- 0 -->
      <defs>
       <path d="
M31.7812 66.4062
Q24.1719 66.4062 20.3281 58.9062
Q16.5 51.4219 16.5 36.375
Q16.5 21.3906 20.3281 13.8906
Q24.1719 6.39062 31.7812 6.39062
Q39.4531 6.39062 43.2812 13.8906
Q47.125 21.3906 47.125 36.375
Q47.125 51.4219 43.2812 58.9062
Q39.4531 66.4062 31.7812 66.4062
M31.7812 74.2188
Q44.0469 74.2188 50.5156 64.5156
Q56.9844 54.8281 56.9844 36.375
Q56.9844 17.9688 50.5156 8.26562
Q44.0469 -1.42188 31.7812 -1.42188
Q19.5312 -1.42188 13.0625 8.26562
Q6.59375 17.9688 6.59375 36.375
Q6.59375 54.8281 13.0625 64.5156
Q19.5312 74.2188 31.7812 74.2188" id="DejaVuSans-30"/>
      </defs>
      <g transform="translate(43.59765625 123.021875)scale(0.1 -0.1)">
       <use xlink:href="#DejaVuSans-30"/>
      </g>
     </g>
    </g>
    <g id="xtick_2">
     <g id="line2d_25">
      <g>
       <use style="stroke:#000000;stroke-linecap:butt;stroke-width:0.5;" x="135.073242188" xlink:href="#m0012dd4eef" y="111.6"/>
      </g>
     </g>
     <g id="line2d_26">
      <g>
       <use style="stroke:#000000;stroke-linecap:butt;stroke-width:0.5;" x="135.073242188" xlink:href="#m476344969c" y="32.0"/>
      </g>
     </g>
     <g id="text_2">
      <!-- 500 -->
      <defs>
       <path d="
M10.7969 72.9062
L49.5156 72.9062
L49.5156 64.5938
L19.8281 64.5938
L19.8281 46.7344
Q21.9688 47.4688 24.1094 47.8281
Q26.2656 48.1875 28.4219 48.1875
Q40.625 48.1875 47.75 41.5
Q54.8906 34.8125 54.8906 23.3906
Q54.8906 11.625 47.5625 5.09375
Q40.2344 -1.42188 26.9062 -1.42188
Q22.3125 -1.42188 17.5469 -0.640625
Q12.7969 0.140625 7.71875 1.70312
L7.71875 11.625
Q12.1094 9.23438 16.7969 8.0625
Q21.4844 6.89062 26.7031 6.89062
Q35.1562 6.89062 40.0781 11.3281
Q45.0156 15.7656 45.0156 23.3906
Q45.0156 31 40.0781 35.4375
Q35.1562 39.8906 26.7031 39.8906
Q22.75 39.8906 18.8125 39.0156
Q14.8906 38.1406 10.7969 36.2812
z
" id="DejaVuSans-35"/>
      </defs>
      <g transform="translate(126.247460938 123.021875)scale(0.1 -0.1)">
       <use xlink:href="#DejaVuSans-35"/>
       <use x="63.623046875" xlink:href="#DejaVuSans-30"/>
       <use x="127.24609375" xlink:href="#DejaVuSans-30"/>
      </g>
     </g>
    </g>
    <g id="xtick_3">
     <g id="line2d_27">
      <g>
       <use style="stroke:#000000;stroke-linecap:butt;stroke-width:0.5;" x="224.029296875" xlink:href="#m0012dd4eef" y="111.6"/>
      </g>
     </g>
     <g id="line2d_28">
      <g>
       <use style="stroke:#000000;stroke-linecap:butt;stroke-width:0.5;" x="224.029296875" xlink:href="#m476344969c" y="32.0"/>
      </g>
     </g>
     <g id="text_3">
      <!-- 1000 -->
      <defs>
       <path d="
M12.4062 8.29688
L28.5156 8.29688
L28.5156 63.9219
L10.9844 60.4062
L10.9844 69.3906
L28.4219 72.9062
L38.2812 72.9062
L38.2812 8.29688
L54.3906 8.29688
L54.3906 0
L12.4062 0
z
" id="DejaVuSans-31"/>
      </defs>
      <g transform="translate(212.185546875 123.021875)scale(0.1 -0.1)">
       <use xlink:href="#DejaVuSans-31"/>
       <use x="63.623046875" xlink:href="#DejaVuSans-30"/>
       <use x="127.24609375" xlink:href="#DejaVuSans-30"/>
       <use x="190.869140625" xlink:href="#DejaVuSans-30"/>
      </g>
     </g>
    </g>
    <g id="xtick_4">
     <g id="line2d_29">
      <g>
       <use style="stroke:#000000;stroke-linecap:butt;stroke-width:0.5;" x="312.985351563" xlink:href="#m0012dd4eef" y="111.6"/>
      </g>
     </g>
     <g id="line2d_30">
      <g>
       <use style="stroke:#000000;stroke-linecap:butt;stroke-width:0.5;" x="312.985351563" xlink:href="#m476344969c" y="32.0"/>
      </g>
     </g>
     <g id="text_4">
      <!-- 1500 -->
      <g transform="translate(301.141601563 123.021875)scale(0.1 -0.1)">
       <use xlink:href="#DejaVuSans-31"/>
       <use x="63.623046875" xlink:href="#DejaVuSans-35"/>
       <use x="127.24609375" xlink:href="#DejaVuSans-30"/>
       <use x="190.869140625" xlink:href="#DejaVuSans-30"/>
      </g>
     </g>
    </g>
    <g id="xtick_5">
     <g id="line2d_31">
      <g>
       <use style="stroke:#000000;stroke-linecap:butt;stroke-width:0.5;" x="401.94140625" xlink:href="#m0012dd4eef" y="111.6"/>
      </g>
     </g>
     <g id="line2d_32">
      <g>
       <use style="stroke:#000000;stroke-linecap:butt;stroke-width:0.5;" x="401.94140625" xlink:href="#m476344969c" y="32.0"/>
      </g>
     </g>
     <g id="text_5">
      <!-- 2000 -->
      <defs>
       <path d="
M19.1875 8.29688
L53.6094 8.29688
L53.6094 0
L7.32812 0
L7.32812 8.29688
Q12.9375 14.1094 22.625 23.8906
Q32.3281 33.6875 34.8125 36.5312
Q39.5469 41.8438 41.4219 45.5312
Q43.3125 49.2188 43.3125 52.7812
Q43.3125 58.5938 39.2344 62.25
Q35.1562 65.9219 28.6094 65.9219
Q23.9688 65.9219 18.8125 64.3125
Q13.6719 62.7031 7.8125 59.4219
L7.8125 69.3906
Q13.7656 71.7812 18.9375 73
Q24.125 74.2188 28.4219 74.2188
Q39.75 74.2188 46.4844 68.5469
Q53.2188 62.8906 53.2188 53.4219
Q53.2188 48.9219 51.5312 44.8906
Q49.8594 40.875 45.4062 35.4062
Q44.1875 33.9844 37.6406 27.2188
Q31.1094 20.4531 19.1875 8.29688" id="DejaVuSans-32"/>
      </defs>
      <g transform="translate(389.91484375 123.021875)scale(0.1 -0.1)">
       <use xlink:href="#DejaVuSans-32"/>
       <use x="63.623046875" xlink:href="#DejaVuSans-30"/>
       <use x="127.24609375" xlink:href="#DejaVuSans-30"/>
       <use x="190.869140625" xlink:href="#DejaVuSans-30"/>
      </g>
     </g>
    </g>
    <g id="text_6">
     <!-- Time -->
     <defs>
      <path d="
M52 44.1875
Q55.375 50.25 60.0625 53.125
Q64.75 56 71.0938 56
Q79.6406 56 84.2812 50.0156
Q88.9219 44.0469 88.9219 33.0156
L88.9219 0
L79.8906 0
L79.8906 32.7188
Q79.8906 40.5781 77.0938 44.375
Q74.3125 48.1875 68.6094 48.1875
Q61.625 48.1875 57.5625 43.5469
Q53.5156 38.9219 53.5156 30.9062
L53.5156 0
L44.4844 0
L44.4844 32.7188
Q44.4844 40.625 41.7031 44.4062
Q38.9219 48.1875 33.1094 48.1875
Q26.2188 48.1875 22.1562 43.5312
Q18.1094 38.875 18.1094 30.9062
L18.1094 0
L9.07812 0
L9.07812 54.6875
L18.1094 54.6875
L18.1094 46.1875
Q21.1875 51.2188 25.4844 53.6094
Q29.7812 56 35.6875 56
Q41.6562 56 45.8281 52.9688
Q50 49.9531 52 44.1875" id="DejaVuSans-6d"/>
      <path d="
M9.42188 54.6875
L18.4062 54.6875
L18.4062 0
L9.42188 0
z

M9.42188 75.9844
L18.4062 75.9844
L18.4062 64.5938
L9.42188 64.5938
z
" id="DejaVuSans-69"/>
      <path d="
M56.2031 29.5938
L56.2031 25.2031
L14.8906 25.2031
Q15.4844 15.9219 20.4844 11.0625
Q25.4844 6.20312 34.4219 6.20312
Q39.5938 6.20312 44.4531 7.46875
Q49.3125 8.73438 54.1094 11.2812
L54.1094 2.78125
Q49.2656 0.734375 44.1875 -0.34375
Q39.1094 -1.42188 33.8906 -1.42188
Q20.7969 -1.42188 13.1562 6.1875
Q5.51562 13.8125 5.51562 26.8125
Q5.51562 40.2344 12.7656 48.1094
Q20.0156 56 32.3281 56
Q43.3594 56 49.7812 48.8906
Q56.2031 41.7969 56.2031 29.5938
M47.2188 32.2344
Q47.125 39.5938 43.0938 43.9844
Q39.0625 48.3906 32.4219 48.3906
Q24.9062 48.3906 20.3906 44.1406
Q15.875 39.8906 15.1875 32.1719
z
" id="DejaVuSans-65"/>
      <path d="
M-0.296875 72.9062
L61.375 72.9062
L61.375 64.5938
L35.5 64.5938
L35.5 0
L25.5938 0
L25.5938 64.5938
L-0.296875 64.5938
z
" id="DejaVuSans-54"/>
     </defs>
     <g transform="translate(212.047265625 135.7625)scale(0.1 -0.1)">
      <use xlink:href="#DejaVuSans-54"/>
      <use x="57.958984375" xlink:href="#DejaVuSans-69"/>
      <use x="85.7421875" xlink:href="#DejaVuSans-6d"/>
      <use x="183.154296875" xlink:href="#DejaVuSans-65"/>
     </g>
    </g>
   </g>
   <g id="matplotlib.axis_2">
    <g id="ytick_1">
     <g id="line2d_33">
      <defs>
       <path d="
M0 0
L4 0" id="me8a85f7bf6" style="stroke:#000000;stroke-linecap:butt;stroke-width:0.5;"/>
      </defs>
      <g>
       <use style="stroke:#000000;stroke-linecap:butt;stroke-width:0.5;" x="46.1171875" xlink:href="#me8a85f7bf6" y="111.6"/>
      </g>
     </g>
     <g id="line2d_34">
      <defs>
       <path d="
M0 0
L-4 0" id="m1a32005dea" style="stroke:#000000;stroke-linecap:butt;stroke-width:0.5;"/>
      </defs>
      <g>
       <use style="stroke:#000000;stroke-linecap:butt;stroke-width:0.5;" x="401.94140625" xlink:href="#m1a32005dea" y="111.6"/>
      </g>
     </g>
     <g id="text_7">
      <!-- 0 -->
      <g transform="translate(37.078125 115.23984375)scale(0.1 -0.1)">
       <use xlink:href="#DejaVuSans-30"/>
      </g>
     </g>
    </g>
    <g id="ytick_2">
     <g id="line2d_35">
      <g>
       <use style="stroke:#000000;stroke-linecap:butt;stroke-width:0.5;" x="46.1171875" xlink:href="#me8a85f7bf6" y="95.68"/>
      </g>
     </g>
     <g id="line2d_36">
      <g>
       <use style="stroke:#000000;stroke-linecap:butt;stroke-width:0.5;" x="401.94140625" xlink:href="#m1a32005dea" y="95.68"/>
      </g>
     </g>
     <g id="text_8">
      <!-- 500 -->
      <g transform="translate(24.465625 99.31984375)scale(0.1 -0.1)">
       <use xlink:href="#DejaVuSans-35"/>
       <use x="63.623046875" xlink:href="#DejaVuSans-30"/>
       <use x="127.24609375" xlink:href="#DejaVuSans-30"/>
      </g>
     </g>
    </g>
    <g id="ytick_3">
     <g id="line2d_37">
      <g>
       <use style="stroke:#000000;stroke-linecap:butt;stroke-width:0.5;" x="46.1171875" xlink:href="#me8a85f7bf6" y="79.76"/>
      </g>
     </g>
     <g id="line2d_38">
      <g>
       <use style="stroke:#000000;stroke-linecap:butt;stroke-width:0.5;" x="401.94140625" xlink:href="#m1a32005dea" y="79.76"/>
      </g>
     </g>
     <g id="text_9">
      <!-- 1000 -->
      <g transform="translate(18.4296875 83.39984375)scale(0.1 -0.1)">
       <use xlink:href="#DejaVuSans-31"/>
       <use x="63.623046875" xlink:href="#DejaVuSans-30"/>
       <use x="127.24609375" xlink:href="#DejaVuSans-30"/>
       <use x="190.869140625" xlink:href="#DejaVuSans-30"/>
      </g>
     </g>
    </g>
    <g id="ytick_4">
     <g id="line2d_39">
      <g>
       <use style="stroke:#000000;stroke-linecap:butt;stroke-width:0.5;" x="46.1171875" xlink:href="#me8a85f7bf6" y="63.84"/>
      </g>
     </g>
     <g id="line2d_40">
      <g>
       <use style="stroke:#000000;stroke-linecap:butt;stroke-width:0.5;" x="401.94140625" xlink:href="#m1a32005dea" y="63.84"/>
      </g>
     </g>
     <g id="text_10">
      <!-- 1500 -->
      <g transform="translate(18.4296875 67.47984375)scale(0.1 -0.1)">
       <use xlink:href="#DejaVuSans-31"/>
       <use x="63.623046875" xlink:href="#DejaVuSans-35"/>
       <use x="127.24609375" xlink:href="#DejaVuSans-30"/>
       <use x="190.869140625" xlink:href="#DejaVuSans-30"/>
      </g>
     </g>
    </g>
    <g id="ytick_5">
     <g id="line2d_41">
      <g>
       <use style="stroke:#000000;stroke-linecap:butt;stroke-width:0.5;" x="46.1171875" xlink:href="#me8a85f7bf6" y="47.92"/>
      </g>
     </g>
     <g id="line2d_42">
      <g>
       <use style="stroke:#000000;stroke-linecap:butt;stroke-width:0.5;" x="401.94140625" xlink:href="#m1a32005dea" y="47.92"/>
      </g>
     </g>
     <g id="text_11">
      <!-- 2000 -->
      <g transform="translate(18.0640625 51.55984375)scale(0.1 -0.1)">
       <use xlink:href="#DejaVuSans-32"/>
       <use x="63.623046875" xlink:href="#DejaVuSans-30"/>
       <use x="127.24609375" xlink:href="#DejaVuSans-30"/>
       <use x="190.869140625" xlink:href="#DejaVuSans-30"/>
      </g>
     </g>
    </g>
    <g id="ytick_6">
     <g id="line2d_43">
      <g>
       <use style="stroke:#000000;stroke-linecap:butt;stroke-width:0.5;" x="46.1171875" xlink:href="#me8a85f7bf6" y="32.0"/>
      </g>
     </g>
     <g id="line2d_44">
      <g>
       <use style="stroke:#000000;stroke-linecap:butt;stroke-width:0.5;" x="401.94140625" xlink:href="#m1a32005dea" y="32.0"/>
      </g>
     </g>
     <g id="text_12">
      <!-- 2500 -->
      <g transform="translate(18.0640625 35.63984375)scale(0.1 -0.1)">
       <use xlink:href="#DejaVuSans-32"/>
       <use x="63.623046875" xlink:href="#DejaVuSans-35"/>
       <use x="127.24609375" xlink:href="#DejaVuSans-30"/>
       <use x="190.869140625" xlink:href="#DejaVuSans-30"/>
      </g>
     </g>
    </g>
   </g>
   <g id="patch_3">
    <path d="
M46.1172 32
L401.941 32" style="fill:none;stroke:#000000;"/>
   </g>
   <g id="patch_4">
    <path d="
M401.941 111.6
L401.941 32" style="fill:none;stroke:#000000;"/>
   </g>
   <g id="patch_5">
    <path d="
M46.1172 111.6
L401.941 111.6" style="fill:none;stroke:#000000;"/>
   </g>
   <g id="patch_6">
    <path d="
M46.1172 111.6
L46.1172 32" style="fill:none;stroke:#000000;"/>
   </g>
   <g id="text_13">
    <!-- OLTP -->
    <defs>
     <path d="
M39.4062 66.2188
Q28.6562 66.2188 22.3281 58.2031
Q16.0156 50.2031 16.0156 36.375
Q16.0156 22.6094 22.3281 14.5938
Q28.6562 6.59375 39.4062 6.59375
Q50.1406 6.59375 56.4219 14.5938
Q62.7031 22.6094 62.7031 36.375
Q62.7031 50.2031 56.4219 58.2031
Q50.1406 66.2188 39.4062 66.2188
M39.4062 74.2188
Q54.7344 74.2188 63.9062 63.9375
Q73.0938 53.6562 73.0938 36.375
Q73.0938 19.1406 63.9062 8.85938
Q54.7344 -1.42188 39.4062 -1.42188
Q24.0312 -1.42188 14.8125 8.82812
Q5.60938 19.0938 5.60938 36.375
Q5.60938 53.6562 14.8125 63.9375
Q24.0312 74.2188 39.4062 74.2188" id="DejaVuSans-4f"/>
     <path d="
M19.6719 64.7969
L19.6719 37.4062
L32.0781 37.4062
Q38.9688 37.4062 42.7188 40.9688
Q46.4844 44.5312 46.4844 51.125
Q46.4844 57.6719 42.7188 61.2344
Q38.9688 64.7969 32.0781 64.7969
z

M9.8125 72.9062
L32.0781 72.9062
Q44.3438 72.9062 50.6094 67.3594
Q56.8906 61.8125 56.8906 51.125
Q56.8906 40.3281 50.6094 34.8125
Q44.3438 29.2969 32.0781 29.2969
L19.6719 29.2969
L19.6719 0
L9.8125 0
z
" id="DejaVuSans-50"/>
     <path d="
M9.8125 72.9062
L19.6719 72.9062
L19.6719 8.29688
L55.1719 8.29688
L55.1719 0
L9.8125 0
z
" id="DejaVuSans-4c"/>
    </defs>
    <g transform="translate(210.046484375 27.0)scale(0.12 -0.12)">
     <use xlink:href="#DejaVuSans-4f"/>
     <use x="78.7109375" xlink:href="#DejaVuSans-4c"/>
     <use x="120.673828125" xlink:href="#DejaVuSans-54"/>
     <use x="181.7578125" xlink:href="#DejaVuSans-50"/>
    </g>
   </g>
  </g>
  <g id="axes_2">
   <g id="patch_7">
    <path d="
M46.1172 246.6
L401.941 246.6
L401.941 167
L46.1172 167
z
" style="fill:#ffffff;"/>
   </g>
   <g id="line2d_45">
    <path clip-path="url(#pe9bd9c4693)" d="
M56.7921 246.6
L56.7921 167" style="fill:none;stroke:#00ffff;stroke-dasharray:6.000000,6.000000;stroke-dashoffset:0.0;stroke-linecap:butt;"/>
   </g>
   <g id="line2d_46">
    <path clip-path="url(#pe9bd9c4693)" d="
M78.1418 246.6
L78.1418 167" style="fill:none;stroke:#00ffff;stroke-dasharray:6.000000,6.000000;stroke-dashoffset:0.0;stroke-linecap:butt;"/>
   </g>
   <g id="line2d_47">
    <path clip-path="url(#pe9bd9c4693)" d="
M78.1422 246.6
L78.1422 167" style="fill:none;stroke:#00ffff;stroke-dasharray:6.000000,6.000000;stroke-dashoffset:0.0;stroke-linecap:butt;"/>
   </g>
   <g id="line2d_48">
    <path clip-path="url(#pe9bd9c4693)" d="
M99.4911 246.6
L99.4911 167" style="fill:none;stroke:#00ffff;stroke-dasharray:6.000000,6.000000;stroke-dashoffset:0.0;stroke-linecap:butt;"/>
   </g>
   <g id="line2d_49">
    <path clip-path="url(#pe9bd9c4693)" d="
M99.4911 246.6
L99.4911 167" style="fill:none;stroke:#00ffff;stroke-dasharray:6.000000,6.000000;stroke-dashoffset:0.0;stroke-linecap:butt;"/>
   </g>
   <g id="line2d_50">
    <path clip-path="url(#pe9bd9c4693)" d="
M120.841 246.6
L120.841 167" style="fill:none;stroke:#00ffff;stroke-dasharray:6.000000,6.000000;stroke-dashoffset:0.0;stroke-linecap:butt;"/>
   </g>
   <g id="line2d_51">
    <path clip-path="url(#pe9bd9c4693)" d="
M120.841 246.6
L120.841 167" style="fill:none;stroke:#00ffff;stroke-dasharray:6.000000,6.000000;stroke-dashoffset:0.0;stroke-linecap:butt;"/>
   </g>
   <g id="line2d_52">
    <path clip-path="url(#pe9bd9c4693)" d="
M120.841 246.6
L120.841 167" style="fill:none;stroke:#00ffff;stroke-dasharray:6.000000,6.000000;stroke-dashoffset:0.0;stroke-linecap:butt;"/>
   </g>
   <g id="line2d_53">
    <path clip-path="url(#pe9bd9c4693)" d="
M142.191 246.6
L142.191 167" style="fill:none;stroke:#00ffff;stroke-dasharray:6.000000,6.000000;stroke-dashoffset:0.0;stroke-linecap:butt;"/>
   </g>
   <g id="line2d_54">
    <path clip-path="url(#pe9bd9c4693)" d="
M163.54 246.6
L163.54 167" style="fill:none;stroke:#00ffff;stroke-dasharray:6.000000,6.000000;stroke-dashoffset:0.0;stroke-linecap:butt;"/>
   </g>
   <g id="line2d_55">
    <path clip-path="url(#pe9bd9c4693)" d="
M163.54 246.6
L163.54 167" style="fill:none;stroke:#00ffff;stroke-dasharray:6.000000,6.000000;stroke-dashoffset:0.0;stroke-linecap:butt;"/>
   </g>
   <g id="line2d_56">
    <path clip-path="url(#pe9bd9c4693)" d="
M184.889 246.6
L184.889 167" style="fill:none;stroke:#00ffff;stroke-dasharray:6.000000,6.000000;stroke-dashoffset:0.0;stroke-linecap:butt;"/>
   </g>
   <g id="line2d_57">
    <path clip-path="url(#pe9bd9c4693)" d="
M206.238 246.6
L206.238 167" style="fill:none;stroke:#00ffff;stroke-dasharray:6.000000,6.000000;stroke-dashoffset:0.0;stroke-linecap:butt;"/>
   </g>
   <g id="line2d_58">
    <path clip-path="url(#pe9bd9c4693)" d="
M227.588 246.6
L227.588 167" style="fill:none;stroke:#00ffff;stroke-dasharray:6.000000,6.000000;stroke-dashoffset:0.0;stroke-linecap:butt;"/>
   </g>
   <g id="line2d_59">
    <path clip-path="url(#pe9bd9c4693)" d="
M248.937 246.6
L248.937 167" style="fill:none;stroke:#00ffff;stroke-dasharray:6.000000,6.000000;stroke-dashoffset:0.0;stroke-linecap:butt;"/>
   </g>
   <g id="line2d_60">
    <path clip-path="url(#pe9bd9c4693)" d="
M270.287 246.6
L270.287 167" style="fill:none;stroke:#00ffff;stroke-dasharray:6.000000,6.000000;stroke-dashoffset:0.0;stroke-linecap:butt;"/>
   </g>
   <g id="line2d_61">
    <path clip-path="url(#pe9bd9c4693)" d="
M291.636 246.6
L291.636 167" style="fill:none;stroke:#00ffff;stroke-dasharray:6.000000,6.000000;stroke-dashoffset:0.0;stroke-linecap:butt;"/>
   </g>
   <g id="line2d_62">
    <path clip-path="url(#pe9bd9c4693)" d="
M312.986 246.6
L312.986 167" style="fill:none;stroke:#00ffff;stroke-dasharray:6.000000,6.000000;stroke-dashoffset:0.0;stroke-linecap:butt;"/>
   </g>
   <g id="line2d_63">
    <path clip-path="url(#pe9bd9c4693)" d="
M334.335 246.6
L334.335 167" style="fill:none;stroke:#00ffff;stroke-dasharray:6.000000,6.000000;stroke-dashoffset:0.0;stroke-linecap:butt;"/>
   </g>
   <g id="line2d_64">
    <path clip-path="url(#pe9bd9c4693)" d="
M355.685 246.6
L355.685 167" style="fill:none;stroke:#00ffff;stroke-dasharray:6.000000,6.000000;stroke-dashoffset:0.0;stroke-linecap:butt;"/>
   </g>
   <g id="line2d_65">
    <path clip-path="url(#pe9bd9c4693)" d="
M377.034 246.6
L377.034 167" style="fill:none;stroke:#00ffff;stroke-dasharray:6.000000,6.000000;stroke-dashoffset:0.0;stroke-linecap:butt;"/>
   </g>
   <g id="line2d_66">
    <path clip-path="url(#pe9bd9c4693)" d="
M56.792 218.582
L56.792 213.015
L76.8769 213.015
L76.8769 208.933
L96.9618 208.933
L96.9618 210.232
L117.047 210.232
L117.047 211.16
L137.131 211.16
L137.131 217.097
L157.216 217.097
L157.216 218.396
L177.301 218.396
L177.301 220.808
L197.386 220.808
L197.386 220.994
L217.471 220.994
L217.471 220.252
L237.556 220.252
L237.556 218.396
L257.641 218.396
L257.641 224.148
L277.726 224.148
L277.726 231.57
L297.81 231.57
L297.81 224.519
L317.895 224.519
L317.895 225.633
L337.98 225.633
L337.98 225.261
L358.065 225.261
L358.065 229.529
L378.15 229.529" style="fill:none;stroke:#008000;"/>
   </g>
   <g id="matplotlib.axis_3">
    <g id="xtick_6">
     <g id="line2d_67">
      <g>
       <use style="stroke:#000000;stroke-linecap:butt;stroke-width:0.5;" x="46.1171875" xlink:href="#m0012dd4eef" y="246.6"/>
      </g>
     </g>
     <g id="line2d_68">
      <g>
       <use style="stroke:#000000;stroke-linecap:butt;stroke-width:0.5;" x="46.1171875" xlink:href="#m476344969c" y="167.0"/>
      </g>
     </g>
     <g id="text_14">
      <!-- 0 -->
      <g transform="translate(43.59765625 258.021875)scale(0.1 -0.1)">
       <use xlink:href="#DejaVuSans-30"/>
      </g>
     </g>
    </g>
    <g id="xtick_7">
     <g id="line2d_69">
      <g>
       <use style="stroke:#000000;stroke-linecap:butt;stroke-width:0.5;" x="135.073242188" xlink:href="#m0012dd4eef" y="246.6"/>
      </g>
     </g>
     <g id="line2d_70">
      <g>
       <use style="stroke:#000000;stroke-linecap:butt;stroke-width:0.5;" x="135.073242188" xlink:href="#m476344969c" y="167.0"/>
      </g>
     </g>
     <g id="text_15">
      <!-- 500 -->
      <g transform="translate(126.247460938 258.021875)scale(0.1 -0.1)">
       <use xlink:href="#DejaVuSans-35"/>
       <use x="63.623046875" xlink:href="#DejaVuSans-30"/>
       <use x="127.24609375" xlink:href="#DejaVuSans-30"/>
      </g>
     </g>
    </g>
    <g id="xtick_8">
     <g id="line2d_71">
      <g>
       <use style="stroke:#000000;stroke-linecap:butt;stroke-width:0.5;" x="224.029296875" xlink:href="#m0012dd4eef" y="246.6"/>
      </g>
     </g>
     <g id="line2d_72">
      <g>
       <use style="stroke:#000000;stroke-linecap:butt;stroke-width:0.5;" x="224.029296875" xlink:href="#m476344969c" y="167.0"/>
      </g>
     </g>
     <g id="text_16">
      <!-- 1000 -->
      <g transform="translate(212.185546875 258.021875)scale(0.1 -0.1)">
       <use xlink:href="#DejaVuSans-31"/>
       <use x="63.623046875" xlink:href="#DejaVuSans-30"/>
       <use x="127.24609375" xlink:href="#DejaVuSans-30"/>
       <use x="190.869140625" xlink:href="#DejaVuSans-30"/>
      </g>
     </g>
    </g>
    <g id="xtick_9">
     <g id="line2d_73">
      <g>
       <use style="stroke:#000000;stroke-linecap:butt;stroke-width:0.5;" x="312.985351563" xlink:href="#m0012dd4eef" y="246.6"/>
      </g>
     </g>
     <g id="line2d_74">
      <g>
       <use style="stroke:#000000;stroke-linecap:butt;stroke-width:0.5;" x="312.985351563" xlink:href="#m476344969c" y="167.0"/>
      </g>
     </g>
     <g id="text_17">
      <!-- 1500 -->
      <g transform="translate(301.141601563 258.021875)scale(0.1 -0.1)">
       <use xlink:href="#DejaVuSans-31"/>
       <use x="63.623046875" xlink:href="#DejaVuSans-35"/>
       <use x="127.24609375" xlink:href="#DejaVuSans-30"/>
       <use x="190.869140625" xlink:href="#DejaVuSans-30"/>
      </g>
     </g>
    </g>
    <g id="xtick_10">
     <g id="line2d_75">
      <g>
       <use style="stroke:#000000;stroke-linecap:butt;stroke-width:0.5;" x="401.94140625" xlink:href="#m0012dd4eef" y="246.6"/>
      </g>
     </g>
     <g id="line2d_76">
      <g>
       <use style="stroke:#000000;stroke-linecap:butt;stroke-width:0.5;" x="401.94140625" xlink:href="#m476344969c" y="167.0"/>
      </g>
     </g>
     <g id="text_18">
      <!-- 2000 -->
      <g transform="translate(389.91484375 258.021875)scale(0.1 -0.1)">
       <use xlink:href="#DejaVuSans-32"/>
       <use x="63.623046875" xlink:href="#DejaVuSans-30"/>
       <use x="127.24609375" xlink:href="#DejaVuSans-30"/>
       <use x="190.869140625" xlink:href="#DejaVuSans-30"/>
      </g>
     </g>
    </g>
    <g id="text_19">
     <!-- Time -->
     <g transform="translate(212.047265625 270.7625)scale(0.1 -0.1)">
      <use xlink:href="#DejaVuSans-54"/>
      <use x="57.958984375" xlink:href="#DejaVuSans-69"/>
      <use x="85.7421875" xlink:href="#DejaVuSans-6d"/>
      <use x="183.154296875" xlink:href="#DejaVuSans-65"/>
     </g>
    </g>
   </g>
   <g id="matplotlib.axis_4">
    <g id="ytick_7">
     <g id="line2d_77">
      <g>
       <use style="stroke:#000000;stroke-linecap:butt;stroke-width:0.5;" x="46.1171875" xlink:href="#me8a85f7bf6" y="246.6"/>
      </g>
     </g>
     <g id="line2d_78">
      <g>
       <use style="stroke:#000000;stroke-linecap:butt;stroke-width:0.5;" x="401.94140625" xlink:href="#m1a32005dea" y="246.6"/>
      </g>
     </g>
     <g id="text_20">
      <!-- 0.0 -->
      <defs>
       <path d="
M10.6875 12.4062
L21 12.4062
L21 0
L10.6875 0
z
" id="DejaVuSans-2e"/>
      </defs>
      <g transform="translate(27.5375 250.23984375)scale(0.1 -0.1)">
       <use xlink:href="#DejaVuSans-30"/>
       <use x="63.623046875" xlink:href="#DejaVuSans-2e"/>
       <use x="95.41015625" xlink:href="#DejaVuSans-30"/>
      </g>
     </g>
    </g>
    <g id="ytick_8">
     <g id="line2d_79">
      <g>
       <use style="stroke:#000000;stroke-linecap:butt;stroke-width:0.5;" x="46.1171875" xlink:href="#me8a85f7bf6" y="236.126315789"/>
      </g>
     </g>
     <g id="line2d_80">
      <g>
       <use style="stroke:#000000;stroke-linecap:butt;stroke-width:0.5;" x="401.94140625" xlink:href="#m1a32005dea" y="236.126315789"/>
      </g>
     </g>
     <g id="text_21">
      <!-- 0.5 -->
      <g transform="translate(27.746875 239.766159539)scale(0.1 -0.1)">
       <use xlink:href="#DejaVuSans-30"/>
       <use x="63.623046875" xlink:href="#DejaVuSans-2e"/>
       <use x="95.41015625" xlink:href="#DejaVuSans-35"/>
      </g>
     </g>
    </g>
    <g id="ytick_9">
     <g id="line2d_81">
      <g>
       <use style="stroke:#000000;stroke-linecap:butt;stroke-width:0.5;" x="46.1171875" xlink:href="#me8a85f7bf6" y="225.652631579"/>
      </g>
     </g>
     <g id="line2d_82">
      <g>
       <use style="stroke:#000000;stroke-linecap:butt;stroke-width:0.5;" x="401.94140625" xlink:href="#m1a32005dea" y="225.652631579"/>
      </g>
     </g>
     <g id="text_22">
      <!-- 1.0 -->
      <g transform="translate(27.9765625 229.292475329)scale(0.1 -0.1)">
       <use xlink:href="#DejaVuSans-31"/>
       <use x="63.623046875" xlink:href="#DejaVuSans-2e"/>
       <use x="95.41015625" xlink:href="#DejaVuSans-30"/>
      </g>
     </g>
    </g>
    <g id="ytick_10">
     <g id="line2d_83">
      <g>
       <use style="stroke:#000000;stroke-linecap:butt;stroke-width:0.5;" x="46.1171875" xlink:href="#me8a85f7bf6" y="215.178947368"/>
      </g>
     </g>
     <g id="line2d_84">
      <g>
       <use style="stroke:#000000;stroke-linecap:butt;stroke-width:0.5;" x="401.94140625" xlink:href="#m1a32005dea" y="215.178947368"/>
      </g>
     </g>
     <g id="text_23">
      <!-- 1.5 -->
      <g transform="translate(28.1859375 218.753166118)scale(0.1 -0.1)">
       <use xlink:href="#DejaVuSans-31"/>
       <use x="63.623046875" xlink:href="#DejaVuSans-2e"/>
       <use x="95.41015625" xlink:href="#DejaVuSans-35"/>
      </g>
     </g>
    </g>
    <g id="ytick_11">
     <g id="line2d_85">
      <g>
       <use style="stroke:#000000;stroke-linecap:butt;stroke-width:0.5;" x="46.1171875" xlink:href="#me8a85f7bf6" y="204.705263158"/>
      </g>
     </g>
     <g id="line2d_86">
      <g>
       <use style="stroke:#000000;stroke-linecap:butt;stroke-width:0.5;" x="401.94140625" xlink:href="#m1a32005dea" y="204.705263158"/>
      </g>
     </g>
     <g id="text_24">
      <!-- 2.0 -->
      <g transform="translate(27.6109375 208.345106908)scale(0.1 -0.1)">
       <use xlink:href="#DejaVuSans-32"/>
       <use x="63.623046875" xlink:href="#DejaVuSans-2e"/>
       <use x="95.41015625" xlink:href="#DejaVuSans-30"/>
      </g>
     </g>
    </g>
    <g id="ytick_12">
     <g id="line2d_87">
      <g>
       <use style="stroke:#000000;stroke-linecap:butt;stroke-width:0.5;" x="46.1171875" xlink:href="#me8a85f7bf6" y="194.231578947"/>
      </g>
     </g>
     <g id="line2d_88">
      <g>
       <use style="stroke:#000000;stroke-linecap:butt;stroke-width:0.5;" x="401.94140625" xlink:href="#m1a32005dea" y="194.231578947"/>
      </g>
     </g>
     <g id="text_25">
      <!-- 2.5 -->
      <g transform="translate(27.8203125 197.871422697)scale(0.1 -0.1)">
       <use xlink:href="#DejaVuSans-32"/>
       <use x="63.623046875" xlink:href="#DejaVuSans-2e"/>
       <use x="95.41015625" xlink:href="#DejaVuSans-35"/>
      </g>
     </g>
    </g>
    <g id="ytick_13">
     <g id="line2d_89">
      <g>
       <use style="stroke:#000000;stroke-linecap:butt;stroke-width:0.5;" x="46.1171875" xlink:href="#me8a85f7bf6" y="183.757894737"/>
      </g>
     </g>
     <g id="line2d_90">
      <g>
       <use style="stroke:#000000;stroke-linecap:butt;stroke-width:0.5;" x="401.94140625" xlink:href="#m1a32005dea" y="183.757894737"/>
      </g>
     </g>
     <g id="text_26">
      <!-- 3.0 -->
      <defs>
       <path d="
M40.5781 39.3125
Q47.6562 37.7969 51.625 33
Q55.6094 28.2188 55.6094 21.1875
Q55.6094 10.4062 48.1875 4.48438
Q40.7656 -1.42188 27.0938 -1.42188
Q22.5156 -1.42188 17.6562 -0.515625
Q12.7969 0.390625 7.625 2.20312
L7.625 11.7188
Q11.7188 9.32812 16.5938 8.10938
Q21.4844 6.89062 26.8125 6.89062
Q36.0781 6.89062 40.9375 10.5469
Q45.7969 14.2031 45.7969 21.1875
Q45.7969 27.6406 41.2812 31.2656
Q36.7656 34.9062 28.7188 34.9062
L20.2188 34.9062
L20.2188 43.0156
L29.1094 43.0156
Q36.375 43.0156 40.2344 45.9219
Q44.0938 48.8281 44.0938 54.2969
Q44.0938 59.9062 40.1094 62.9062
Q36.1406 65.9219 28.7188 65.9219
Q24.6562 65.9219 20.0156 65.0312
Q15.375 64.1562 9.8125 62.3125
L9.8125 71.0938
Q15.4375 72.6562 20.3438 73.4375
Q25.25 74.2188 29.5938 74.2188
Q40.8281 74.2188 47.3594 69.1094
Q53.9062 64.0156 53.9062 55.3281
Q53.9062 49.2656 50.4375 45.0938
Q46.9688 40.9219 40.5781 39.3125" id="DejaVuSans-33"/>
      </defs>
      <g transform="translate(27.640625 187.397738487)scale(0.1 -0.1)">
       <use xlink:href="#DejaVuSans-33"/>
       <use x="63.623046875" xlink:href="#DejaVuSans-2e"/>
       <use x="95.41015625" xlink:href="#DejaVuSans-30"/>
      </g>
     </g>
    </g>
    <g id="ytick_14">
     <g id="line2d_91">
      <g>
       <use style="stroke:#000000;stroke-linecap:butt;stroke-width:0.5;" x="46.1171875" xlink:href="#me8a85f7bf6" y="173.284210526"/>
      </g>
     </g>
     <g id="line2d_92">
      <g>
       <use style="stroke:#000000;stroke-linecap:butt;stroke-width:0.5;" x="401.94140625" xlink:href="#m1a32005dea" y="173.284210526"/>
      </g>
     </g>
     <g id="text_27">
      <!-- 3.5 -->
      <g transform="translate(27.85 176.924054276)scale(0.1 -0.1)">
       <use xlink:href="#DejaVuSans-33"/>
       <use x="63.623046875" xlink:href="#DejaVuSans-2e"/>
       <use x="95.41015625" xlink:href="#DejaVuSans-35"/>
      </g>
     </g>
    </g>
   </g>
   <g id="patch_8">
    <path d="
M46.1172 167
L401.941 167" style="fill:none;stroke:#000000;"/>
   </g>
   <g id="patch_9">
    <path d="
M401.941 246.6
L401.941 167" style="fill:none;stroke:#000000;"/>
   </g>
   <g id="patch_10">
    <path d="
M46.1172 246.6
L401.941 246.6" style="fill:none;stroke:#000000;"/>
   </g>
   <g id="patch_11">
    <path d="
M46.1172 246.6
L46.1172 167" style="fill:none;stroke:#000000;"/>
   </g>
   <g id="text_28">
    <!-- OLAP -->
    <defs>
     <path d="
M34.1875 63.1875
L20.7969 26.9062
L47.6094 26.9062
z

M28.6094 72.9062
L39.7969 72.9062
L67.5781 0
L57.3281 0
L50.6875 18.7031
L17.8281 18.7031
L11.1875 0
L0.78125 0
z
" id="DejaVuSans-41"/>
    </defs>
    <g transform="translate(208.646796875 162.0)scale(0.12 -0.12)">
     <use xlink:href="#DejaVuSans-4f"/>
     <use x="78.7109375" xlink:href="#DejaVuSans-4c"/>
     <use x="136.673828125" xlink:href="#DejaVuSans-41"/>
     <use x="205.08203125" xlink:href="#DejaVuSans-50"/>
    </g>
   </g>
  </g>
  <g id="text_29">
   <!-- 3 OLTP workers -->
   <defs>
    <path d="
M30.6094 48.3906
Q23.3906 48.3906 19.1875 42.75
Q14.9844 37.1094 14.9844 27.2969
Q14.9844 17.4844 19.1562 11.8438
Q23.3438 6.20312 30.6094 6.20312
Q37.7969 6.20312 41.9844 11.8594
Q46.1875 17.5312 46.1875 27.2969
Q46.1875 37.0156 41.9844 42.7031
Q37.7969 48.3906 30.6094 48.3906
M30.6094 56
Q42.3281 56 49.0156 48.375
Q55.7188 40.7656 55.7188 27.2969
Q55.7188 13.875 49.0156 6.21875
Q42.3281 -1.42188 30.6094 -1.42188
Q18.8438 -1.42188 12.1719 6.21875
Q5.51562 13.875 5.51562 27.2969
Q5.51562 40.7656 12.1719 48.375
Q18.8438 56 30.6094 56" id="DejaVuSans-6f"/>
    <path d="
M9.07812 75.9844
L18.1094 75.9844
L18.1094 31.1094
L44.9219 54.6875
L56.3906 54.6875
L27.3906 29.1094
L57.625 0
L45.9062 0
L18.1094 26.7031
L18.1094 0
L9.07812 0
z
" id="DejaVuSans-6b"/>
    <path id="DejaVuSans-20"/>
    <path d="
M4.20312 54.6875
L13.1875 54.6875
L24.4219 12.0156
L35.5938 54.6875
L46.1875 54.6875
L57.4219 12.0156
L68.6094 54.6875
L77.5938 54.6875
L63.2812 0
L52.6875 0
L40.9219 44.8281
L29.1094 0
L18.5 0
z
" id="DejaVuSans-77"/>
    <path d="
M44.2812 53.0781
L44.2812 44.5781
Q40.4844 46.5312 36.375 47.5
Q32.2812 48.4844 27.875 48.4844
Q21.1875 48.4844 17.8438 46.4375
Q14.5 44.3906 14.5 40.2812
Q14.5 37.1562 16.8906 35.375
Q19.2812 33.5938 26.5156 31.9844
L29.5938 31.2969
Q39.1562 29.25 43.1875 25.5156
Q47.2188 21.7812 47.2188 15.0938
Q47.2188 7.46875 41.1875 3.01562
Q35.1562 -1.42188 24.6094 -1.42188
Q20.2188 -1.42188 15.4531 -0.5625
Q10.6875 0.296875 5.42188 2
L5.42188 11.2812
Q10.4062 8.6875 15.2344 7.39062
Q20.0625 6.10938 24.8125 6.10938
Q31.1562 6.10938 34.5625 8.28125
Q37.9844 10.4531 37.9844 14.4062
Q37.9844 18.0625 35.5156 20.0156
Q33.0625 21.9688 24.7031 23.7812
L21.5781 24.5156
Q13.2344 26.2656 9.51562 29.9062
Q5.8125 33.5469 5.8125 39.8906
Q5.8125 47.6094 11.2812 51.7969
Q16.75 56 26.8125 56
Q31.7812 56 36.1719 55.2656
Q40.5781 54.5469 44.2812 53.0781" id="DejaVuSans-73"/>
    <path d="
M41.1094 46.2969
Q39.5938 47.1719 37.8125 47.5781
Q36.0312 48 33.8906 48
Q26.2656 48 22.1875 43.0469
Q18.1094 38.0938 18.1094 28.8125
L18.1094 0
L9.07812 0
L9.07812 54.6875
L18.1094 54.6875
L18.1094 46.1875
Q20.9531 51.1719 25.4844 53.5781
Q30.0312 56 36.5312 56
Q37.4531 56 38.5781 55.875
Q39.7031 55.7656 41.0625 55.5156
z
" id="DejaVuSans-72"/>
   </defs>
   <g transform="translate(178.1265625 13.3584375)scale(0.1 -0.1)">
    <use xlink:href="#DejaVuSans-33"/>
    <use x="63.623046875" xlink:href="#DejaVuSans-20"/>
    <use x="95.41015625" xlink:href="#DejaVuSans-4f"/>
    <use x="174.12109375" xlink:href="#DejaVuSans-4c"/>
    <use x="216.083984375" xlink:href="#DejaVuSans-54"/>
    <use x="277.16796875" xlink:href="#DejaVuSans-50"/>
    <use x="337.470703125" xlink:href="#DejaVuSans-20"/>
    <use x="369.2578125" xlink:href="#DejaVuSans-77"/>
    <use x="451.044921875" xlink:href="#DejaVuSans-6f"/>
    <use x="512.2265625" xlink:href="#DejaVuSans-72"/>
    <use x="553.33984375" xlink:href="#DejaVuSans-6b"/>
    <use x="607.625" xlink:href="#DejaVuSans-65"/>
    <use x="669.1484375" xlink:href="#DejaVuSans-72"/>
    <use x="710.26171875" xlink:href="#DejaVuSans-73"/>
   </g>
  </g>
 </g>
 <defs>
  <clipPath id="pe9bd9c4693">
   <rect height="79.6" width="355.82421875" x="46.1171875" y="167.0"/>
  </clipPath>
  <clipPath id="paafe9ad165">
   <rect height="79.6" width="355.82421875" x="46.1171875" y="32.0"/>
  </clipPath>
 </defs>
</svg>
