<?xml version="1.0" encoding="utf-8" standalone="no"?>
<!DOCTYPE svg PUBLIC "-//W3C//DTD SVG 1.1//EN"
  "http://www.w3.org/Graphics/SVG/1.1/DTD/svg11.dtd">
<!-- Created with matplotlib (http://matplotlib.sourceforge.net/) -->
<svg height="288pt" version="1.1" viewBox="0 0 432 288" width="432pt" xmlns="http://www.w3.org/2000/svg" xmlns:xlink="http://www.w3.org/1999/xlink">
 <defs>
  <style type="text/css">
*{stroke-linecap:square;stroke-linejoin:round;}
  </style>
 </defs>
 <g id="figure_1">
  <g id="patch_1">
   <path d="
M0 288
L432 288
L432 0
L0 0
z
" style="fill:#ffffff;"/>
  </g>
  <g id="axes_1">
   <g id="patch_2">
    <path d="
M46.1172 111.6
L401.941 111.6
L401.941 32
L46.1172 32
z
" style="fill:#ffffff;"/>
   </g>
   <g id="line2d_1">
    <path clip-path="url(#paafe9ad165)" d="
M56.7923 111.6
L56.7923 32" style="fill:none;stroke:#00ffff;stroke-dasharray:6.000000,6.000000;stroke-dashoffset:0.0;stroke-linecap:butt;"/>
   </g>
   <g id="line2d_2">
    <path clip-path="url(#paafe9ad165)" d="
M78.1419 111.6
L78.1419 32" style="fill:none;stroke:#00ffff;stroke-dasharray:6.000000,6.000000;stroke-dashoffset:0.0;stroke-linecap:butt;"/>
   </g>
   <g id="line2d_3">
    <path clip-path="url(#paafe9ad165)" d="
M78.142 111.6
L78.142 32" style="fill:none;stroke:#00ffff;stroke-dasharray:6.000000,6.000000;stroke-dashoffset:0.0;stroke-linecap:butt;"/>
   </g>
   <g id="line2d_4">
    <path clip-path="url(#paafe9ad165)" d="
M78.1425 111.6
L78.1425 32" style="fill:none;stroke:#00ffff;stroke-dasharray:6.000000,6.000000;stroke-dashoffset:0.0;stroke-linecap:butt;"/>
   </g>
   <g id="line2d_5">
    <path clip-path="url(#paafe9ad165)" d="
M99.4911 111.6
L99.4911 32" style="fill:none;stroke:#00ffff;stroke-dasharray:6.000000,6.000000;stroke-dashoffset:0.0;stroke-linecap:butt;"/>
   </g>
   <g id="line2d_6">
    <path clip-path="url(#paafe9ad165)" d="
M99.4918 111.6
L99.4918 32" style="fill:none;stroke:#00ffff;stroke-dasharray:6.000000,6.000000;stroke-dashoffset:0.0;stroke-linecap:butt;"/>
   </g>
   <g id="line2d_7">
    <path clip-path="url(#paafe9ad165)" d="
M120.841 111.6
L120.841 32" style="fill:none;stroke:#00ffff;stroke-dasharray:6.000000,6.000000;stroke-dashoffset:0.0;stroke-linecap:butt;"/>
   </g>
   <g id="line2d_8">
    <path clip-path="url(#paafe9ad165)" d="
M120.841 111.6
L120.841 32" style="fill:none;stroke:#00ffff;stroke-dasharray:6.000000,6.000000;stroke-dashoffset:0.0;stroke-linecap:butt;"/>
   </g>
   <g id="line2d_9">
    <path clip-path="url(#paafe9ad165)" d="
M142.19 111.6
L142.19 32" style="fill:none;stroke:#00ffff;stroke-dasharray:6.000000,6.000000;stroke-dashoffset:0.0;stroke-linecap:butt;"/>
   </g>
   <g id="line2d_10">
    <path clip-path="url(#paafe9ad165)" d="
M163.54 111.6
L163.54 32" style="fill:none;stroke:#00ffff;stroke-dasharray:6.000000,6.000000;stroke-dashoffset:0.0;stroke-linecap:butt;"/>
   </g>
   <g id="line2d_11">
    <path clip-path="url(#paafe9ad165)" d="
M184.889 111.6
L184.889 32" style="fill:none;stroke:#00ffff;stroke-dasharray:6.000000,6.000000;stroke-dashoffset:0.0;stroke-linecap:butt;"/>
   </g>
   <g id="line2d_12">
    <path clip-path="url(#paafe9ad165)" d="
M184.889 111.6
L184.889 32" style="fill:none;stroke:#00ffff;stroke-dasharray:6.000000,6.000000;stroke-dashoffset:0.0;stroke-linecap:butt;"/>
   </g>
   <g id="line2d_13">
    <path clip-path="url(#paafe9ad165)" d="
M206.239 111.6
L206.239 32" style="fill:none;stroke:#00ffff;stroke-dasharray:6.000000,6.000000;stroke-dashoffset:0.0;stroke-linecap:butt;"/>
   </g>
   <g id="line2d_14">
    <path clip-path="url(#paafe9ad165)" d="
M227.588 111.6
L227.588 32" style="fill:none;stroke:#00ffff;stroke-dasharray:6.000000,6.000000;stroke-dashoffset:0.0;stroke-linecap:butt;"/>
   </g>
   <g id="line2d_15">
    <path clip-path="url(#paafe9ad165)" d="
M248.937 111.6
L248.937 32" style="fill:none;stroke:#00ffff;stroke-dasharray:6.000000,6.000000;stroke-dashoffset:0.0;stroke-linecap:butt;"/>
   </g>
   <g id="line2d_16">
    <path clip-path="url(#paafe9ad165)" d="
M270.287 111.6
L270.287 32" style="fill:none;stroke:#00ffff;stroke-dasharray:6.000000,6.000000;stroke-dashoffset:0.0;stroke-linecap:butt;"/>
   </g>
   <g id="line2d_17">
    <path clip-path="url(#paafe9ad165)" d="
M270.287 111.6
L270.287 32" style="fill:none;stroke:#00ffff;stroke-dasharray:6.000000,6.000000;stroke-dashoffset:0.0;stroke-linecap:butt;"/>
   </g>
   <g id="line2d_18">
    <path clip-path="url(#paafe9ad165)" d="
M291.654 111.6
L291.654 32" style="fill:none;stroke:#00ffff;stroke-dasharray:6.000000,6.000000;stroke-dashoffset:0.0;stroke-linecap:butt;"/>
   </g>
   <g id="line2d_19">
    <path clip-path="url(#paafe9ad165)" d="
M312.986 111.6
L312.986 32" style="fill:none;stroke:#00ffff;stroke-dasharray:6.000000,6.000000;stroke-dashoffset:0.0;stroke-linecap:butt;"/>
   </g>
   <g id="line2d_20">
    <path clip-path="url(#paafe9ad165)" d="
M334.355 111.6
L334.355 32" style="fill:none;stroke:#00ffff;stroke-dasharray:6.000000,6.000000;stroke-dashoffset:0.0;stroke-linecap:butt;"/>
   </g>
   <g id="line2d_21">
    <path clip-path="url(#paafe9ad165)" d="
M355.685 111.6
L355.685 32" style="fill:none;stroke:#00ffff;stroke-dasharray:6.000000,6.000000;stroke-dashoffset:0.0;stroke-linecap:butt;"/>
   </g>
   <g id="line2d_22">
    <path clip-path="url(#paafe9ad165)" d="
M377.035 111.6
L377.035 32" style="fill:none;stroke:#00ffff;stroke-dasharray:6.000000,6.000000;stroke-dashoffset:0.0;stroke-linecap:butt;"/>
   </g>
   <g id="line2d_23">
    <path clip-path="url(#paafe9ad165)" d="
M46.1172 70.4781
L46.1172 66.5222
L46.7043 66.5222
L46.7043 69.5422
L47.2914 69.5422
L47.2914 66.7056
L47.8785 66.7056
L47.8785 69.0309
L48.4656 69.0309
L48.4656 66.9371
L49.0527 66.9371
L49.0527 68.5388
L49.6398 68.5388
L49.6398 66.5415
L50.227 66.5415
L50.227 69.0019
L51.4012 68.8958
L51.4012 69.6966
L51.9883 69.6966
L51.9883 69.3203
L52.5754 69.3203
L52.5754 71.414
L53.1625 71.414
L53.1625 68.973
L53.7496 68.973
L53.7496 68.1625
L54.3367 68.1625
L54.3367 68.8668
L54.9238 68.8668
L54.9238 70.9027
L55.5109 70.9027
L55.5109 70.4009
L56.098 70.4009
L56.098 79.5284
L56.6852 79.5284
L56.6852 56.4782
L57.2723 56.4782
L57.2723 46.6367
L57.8594 46.6367
L57.8594 43.993
L58.4465 43.993
L58.4465 46.463
L59.6207 46.4437
L59.6207 43.2983
L60.2078 43.2983
L60.2078 44.9579
L60.7949 44.9579
L60.7949 43.1922
L61.382 43.1922
L61.382 43.5974
L61.9691 43.5974
L61.9691 45.2377
L62.5563 45.2377
L62.5563 45.7104
L63.1434 45.7104
L63.1434 46.5402
L63.7305 46.5402
L63.7305 45.0833
L64.3176 45.0833
L64.3176 46.4534
L64.9047 46.4534
L64.9047 45.6911
L65.4918 45.6911
L65.4918 45.1894
L66.0789 45.1894
L66.0789 43.8386
L66.666 43.8386
L66.666 44.6877
L67.2531 44.6877
L67.2531 44.8324
L67.8402 44.8324
L67.8402 61.3603
L68.4273 61.3603
L68.4273 46.7332
L69.0145 46.7332
L69.0145 47.6401
L69.6016 47.6401
L69.6016 47.1481
L70.1887 47.1481
L70.1887 46.9262
L70.7758 46.9262
L70.7758 46.5981
L71.95 46.5499
L71.95 46.0578
L72.5371 46.0578
L72.5371 47.5726
L73.1242 47.5726
L73.1242 47.0998
L73.7113 47.0998
L73.7113 47.341
L74.8856 47.2928
L74.8856 46.2701
L75.4727 46.2701
L75.4727 48.7497
L76.0598 48.7497
L76.0598 48.2866
L76.6469 48.2866
L76.6469 47.2253
L77.234 47.2253
L77.234 61.0901
L77.8211 61.0901
L77.8211 55.9957
L78.4082 55.9957
L78.4082 49.8207
L78.9953 49.8207
L78.9953 53.4389
L79.5824 53.4389
L79.5824 52.696
L80.1695 52.696
L80.1695 50.4864
L80.7566 50.4864
L80.7566 52.7924
L81.3438 52.7924
L81.3438 56.4396
L81.9309 56.4396
L81.9309 54.6064
L82.518 54.6064
L82.518 57.3272
L83.1051 57.3272
L83.1051 46.984
L83.6922 46.984
L83.6922 46.4051
L84.2793 46.4051
L84.2793 45.6911
L85.4535 45.7008
L85.4535 48.7208
L86.0406 48.7208
L86.0406 54.2687
L86.6277 54.2687
L86.6277 48.1998
L87.2149 48.1998
L87.2149 49.483
L87.802 49.483
L87.802 47.6787
L88.3891 47.6787
L88.3891 69.7834
L88.9762 69.7834
L88.9762 56.4782
L89.5633 56.4782
L89.5633 51.9723
L90.1504 51.9723
L90.1504 50.5926
L90.7375 50.5926
L90.7375 49.2128
L91.3246 49.2128
L91.3246 56.8448
L91.9117 56.8448
L91.9117 53.6029
L92.4988 53.6029
L92.4988 50.2356
L93.0859 50.2356
L93.0859 47.2928
L93.6731 47.2928
L93.6731 48.2576
L94.2602 48.2576
L94.2602 52.0206
L94.8473 52.0206
L94.8473 48.8751
L95.4344 48.8751
L95.4344 46.7814
L96.0215 46.7814
L96.0215 49.5602
L96.6086 49.5602
L96.6086 52.2425
L97.1957 52.2425
L97.1957 65.3162
L97.7828 65.3162
L97.7828 69.3203
L98.3699 69.3203
L98.3699 71.2982
L98.957 71.2982
L98.957 63.9557
L99.5442 63.9557
L99.5442 51.0364
L100.131 51.0364
L100.131 57.7325
L100.718 57.7325
L100.718 55.8028
L101.305 55.8028
L101.305 53.931
L101.893 53.931
L101.893 58.8903
L102.48 58.8903
L102.48 60.7428
L103.067 60.7428
L103.067 53.7187
L103.654 53.7187
L103.654 57.3079
L104.241 57.3079
L104.241 80.1556
L104.828 80.1556
L104.828 55.3975
L105.415 55.3975
L105.415 61.5726
L106.002 61.5726
L106.002 61.2831
L106.589 61.2831
L106.589 55.9668
L107.177 55.9668
L107.177 58.2149
L107.764 58.2149
L107.764 63.9268
L108.351 63.9268
L108.351 49.8786
L108.938 49.8786
L108.938 59.0157
L109.525 59.0157
L109.525 57.5009
L110.699 57.5298
L110.699 57.9544
L111.286 57.9544
L111.286 63.5312
L111.873 63.5312
L111.873 60.077
L112.461 60.077
L112.461 63.3093
L113.048 63.3093
L113.048 67.4485
L113.635 67.4485
L113.635 68.1721
L114.222 68.1721
L114.222 65.21
L114.809 65.21
L114.809 52.3583
L115.396 52.3583
L115.396 53.5064
L115.983 53.5064
L115.983 57.7421
L116.57 57.7421
L116.57 59.1604
L117.157 59.1604
L117.157 56.8834
L117.745 56.8834
L117.745 58.4175
L118.332 58.4175
L118.332 51.3934
L118.919 51.3934
L118.919 58.6877
L119.506 58.6877
L119.506 62.2094
L120.093 62.2094
L120.093 77.7434
L120.68 77.7434
L120.68 69.0984
L121.267 69.0984
L121.267 67.6029
L121.854 67.6029
L121.854 63.3093
L122.441 63.3093
L122.441 62.1515
L123.029 62.1515
L123.029 65.046
L123.616 65.046
L123.616 64.5154
L124.203 64.5154
L124.203 60.2893
L124.79 60.2893
L124.79 67.7765
L125.377 67.7765
L125.377 72.3017
L125.964 72.3017
L125.964 74.241
L126.551 74.241
L126.551 73.4113
L127.138 73.4113
L127.138 74.3954
L127.725 74.3954
L127.725 74.2217
L128.313 74.2217
L128.313 72.4271
L128.9 72.4271
L128.9 93.6442
L129.487 93.6442
L129.487 77.2417
L130.074 77.2417
L130.074 74.1156
L130.661 74.1156
L130.661 75.5532
L131.248 75.5532
L131.248 77.8206
L131.835 77.8206
L131.835 77.0295
L132.422 77.0295
L132.422 79.4995
L133.597 79.596
L133.597 75.3892
L134.184 75.3892
L134.184 71.0763
L134.771 71.0763
L134.771 57.607
L135.358 57.607
L135.358 64.8531
L135.945 64.8531
L135.945 67.4196
L136.532 67.4196
L136.532 70.1404
L137.119 70.1404
L137.119 73.7779
L137.706 73.7779
L137.706 68.6739
L138.293 68.6739
L138.293 70.9413
L138.88 70.9413
L138.88 70.7193
L139.468 70.7193
L139.468 65.2776
L140.055 65.2776
L140.055 67.545
L140.642 67.545
L140.642 72.0315
L141.229 72.0315
L141.229 80.1363
L141.816 80.1363
L141.816 79.0846
L142.403 79.0846
L142.403 66.4644
L142.99 66.4644
L142.99 69.1852
L143.577 69.1852
L143.577 70.6904
L144.164 70.6904
L144.164 71.4623
L144.752 71.4623
L144.752 73.1315
L145.339 73.1315
L145.339 75.0998
L145.926 75.0998
L145.926 76.7207
L146.513 76.7207
L146.513 77.9461
L147.1 77.9461
L147.1 74.2121
L147.687 74.2121
L147.687 76.1225
L148.274 76.1225
L148.274 65.239
L148.861 65.239
L148.861 68.587
L149.448 68.587
L149.448 70.729
L150.036 70.729
L150.036 84.1018
L150.623 84.1018
L150.623 88.5594
L151.21 88.5594
L151.21 73.7876
L151.797 73.7876
L151.797 76.1128
L152.384 76.1128
L152.384 73.7393
L152.971 73.7393
L152.971 78.9399
L153.558 78.9399
L153.558 72.5911
L154.145 72.5911
L154.145 78.9302
L154.732 78.9302
L154.732 72.9771
L155.32 72.9771
L155.32 64.9206
L155.907 64.9206
L155.907 63.9461
L156.494 63.9461
L156.494 64.5636
L157.081 64.5636
L157.081 69.4843
L158.255 69.5519
L158.255 71.1728
L158.842 71.1728
L158.842 73.8358
L159.429 73.8358
L159.429 75.3217
L160.016 75.3217
L160.016 76.4312
L160.604 76.4312
L160.604 75.4374
L161.191 75.4374
L161.191 74.5594
L161.778 74.5594
L161.778 66.5898
L162.365 66.5898
L162.365 62.6339
L162.952 62.6339
L162.952 80.5994
L163.539 80.5994
L163.539 77.782
L164.126 77.782
L164.126 74.9164
L165.3 74.8971
L165.3 77.3189
L165.888 77.3189
L165.888 78.8627
L167.062 78.9688
L167.062 79.5477
L167.649 79.5477
L167.649 73.3823
L168.236 73.3823
L168.236 74.7331
L168.823 74.7331
L168.823 79.7503
L169.41 79.7503
L169.41 73.6428
L169.997 73.6428
L169.997 71.3465
L170.584 71.3465
L170.584 71.4719
L171.172 71.4719
L171.172 76.3155
L171.759 76.3155
L171.759 71.5588
L172.346 71.5588
L172.346 72.9578
L172.933 72.9578
L172.933 76.1997
L173.52 76.1997
L173.52 77.1935
L174.107 77.1935
L174.107 80.0205
L174.694 80.0205
L174.694 80.1942
L175.281 80.1942
L175.281 77.3382
L175.868 77.3382
L175.868 67.902
L176.455 67.902
L176.455 69.2238
L177.043 69.2238
L177.043 82.9343
L177.63 82.9343
L177.63 95.2362
L178.217 95.2362
L178.217 72.1666
L178.804 72.1666
L178.804 74.7621
L179.391 74.7621
L179.391 80.3871
L179.978 80.3871
L179.978 77.4733
L180.565 77.4733
L180.565 79.5767
L181.152 79.5767
L181.152 81.1397
L181.739 81.1397
L181.739 73.2858
L182.327 73.2858
L182.327 71.771
L182.914 71.771
L182.914 71.0088
L183.501 71.0088
L183.501 73.9516
L184.088 73.9516
L184.088 83.4553
L184.675 83.4553
L184.675 86.1666
L185.262 86.1666
L185.262 80.3389
L185.849 80.3389
L185.849 81.9405
L187.023 81.9695
L187.023 81.5353
L187.611 81.5353
L187.611 76.3251
L188.198 76.3251
L188.198 79.0846
L189.372 78.9977
L189.372 79.4802
L189.959 79.4802
L189.959 78.5346
L190.546 78.5346
L190.546 75.7173
L191.133 75.7173
L191.133 77.5505
L191.72 77.5505
L191.72 81.5642
L192.307 81.5642
L192.307 79.2968
L192.895 79.2968
L192.895 80.4933
L193.482 80.4933
L193.482 76.8751
L194.069 76.8751
L194.069 72.8902
L194.656 72.8902
L194.656 73.4595
L195.243 73.4595
L195.243 71.4623
L195.83 71.4623
L195.83 72.678
L196.417 72.678
L196.417 76.5856
L197.004 76.5856
L197.004 77.2417
L197.591 77.2417
L197.591 77.5891
L198.179 77.5891
L198.179 97.3781
L198.766 97.3781
L198.766 80.474
L199.353 80.474
L199.353 83.3878
L199.94 83.3878
L199.94 80.5994
L200.527 80.5994
L200.527 78.9784
L201.114 78.9784
L201.114 81.5642
L201.701 81.5642
L201.701 81.2458
L202.288 81.2458
L202.288 84.343
L202.875 84.343
L202.875 85.2886
L203.463 85.2886
L203.463 83.9185
L204.05 83.9185
L204.05 84.9702
L204.637 84.9702
L204.637 87.8068
L205.224 87.8068
L205.224 88.4147
L205.811 88.4147
L205.811 90.5759
L206.398 90.5759
L206.398 88.8392
L206.985 88.8392
L206.985 90.5373
L207.572 90.5373
L207.572 95.5449
L208.159 95.5449
L208.159 87.2279
L208.747 87.2279
L208.747 81.9984
L209.334 81.9984
L209.334 81.1783
L209.921 81.1783
L209.921 85.6552
L210.508 85.6552
L210.508 91.2899
L211.095 91.2899
L211.095 92.9205
L211.682 92.9205
L211.682 92.2548
L212.269 92.2548
L212.269 90.1707
L212.856 90.1707
L212.856 93.3161
L213.443 93.3161
L213.443 94.1169
L214.618 94.1941
L214.618 96.6255
L215.205 96.6255
L215.205 105.888
L215.792 105.888
L215.792 73.6139
L216.379 73.6139
L216.379 80.3099
L216.966 80.3099
L216.966 79.7793
L217.553 79.7793
L217.553 86.6683
L218.14 86.6683
L218.14 85.935
L218.727 85.935
L218.727 81.7572
L219.902 81.8055
L219.902 82.1239
L220.489 82.1239
L220.489 82.4519
L221.076 82.4519
L221.076 84.4298
L221.663 84.4298
L221.663 84.3141
L222.25 84.3141
L222.25 85.25
L222.837 85.25
L222.837 81.5642
L223.424 81.5642
L223.424 75.3217
L224.011 75.3217
L224.011 76.383
L224.598 76.383
L224.598 75.8041
L225.186 75.8041
L225.186 79.5284
L225.773 79.5284
L225.773 79.2197
L226.36 79.2197
L226.36 77.1935
L226.947 77.1935
L226.947 88.3182
L227.534 88.3182
L227.534 88.791
L228.121 88.791
L228.121 79.4705
L228.708 79.4705
L228.708 83.4553
L229.295 83.4553
L229.295 80.9757
L229.882 80.9757
L229.882 81.9695
L230.47 81.9695
L230.47 84.7
L231.057 84.7
L231.057 83.0984
L231.644 83.0984
L231.644 85.3754
L232.231 85.3754
L232.231 87.9901
L232.818 87.9901
L232.818 91.7048
L233.405 91.7048
L233.405 93.8468
L233.992 93.8468
L233.992 92.4188
L234.579 92.4188
L234.579 88.2699
L235.166 88.2699
L235.166 91.8495
L235.754 91.8495
L235.754 92.8916
L236.341 92.8916
L236.341 93.5477
L236.928 93.5477
L236.928 94.5415
L237.515 94.5415
L237.515 92.6986
L238.102 92.6986
L238.102 95.6124
L238.689 95.6124
L238.689 92.139
L239.276 92.139
L239.276 91.3768
L239.863 91.3768
L239.863 89.8716
L240.45 89.8716
L240.45 91.1838
L241.038 91.1838
L241.038 91.9846
L241.625 91.9846
L241.625 90.7689
L242.212 90.7689
L242.212 91.0294
L242.799 91.0294
L242.799 89.9198
L243.386 89.9198
L243.386 85.5201
L243.973 85.5201
L243.973 87.6524
L244.56 87.6524
L244.56 92.5732
L245.147 92.5732
L245.147 86.813
L245.734 86.813
L245.734 87.4691
L246.909 87.5656
L246.909 87.2569
L247.496 87.2569
L247.496 91.0584
L248.083 91.0584
L248.083 89.1287
L249.257 89.0708
L249.257 92.7951
L249.844 92.7951
L249.844 87.8551
L250.431 87.8551
L250.431 89.119
L251.606 89.1962
L251.606 88.3761
L252.193 88.3761
L252.193 103.051
L252.78 103.051
L252.78 107.499
L253.367 107.499
L253.367 80.5512
L253.954 80.5512
L253.954 81.1397
L254.541 81.1397
L254.541 84.3044
L255.128 84.3044
L255.128 81.2555
L255.715 81.2555
L255.715 82.3072
L256.302 82.3072
L256.302 87.6621
L256.889 87.6621
L256.889 86.1955
L257.477 86.1955
L257.477 82.751
L258.064 82.751
L258.064 87.0639
L258.651 87.0639
L258.651 87.5463
L259.238 87.5463
L259.238 85.0956
L259.825 85.0956
L259.825 92.9591
L260.412 92.9591
L260.412 89.1383
L260.999 89.1383
L260.999 88.1349
L261.586 88.1349
L261.586 89.1287
L262.173 89.1287
L262.173 90.7303
L262.761 90.7303
L262.761 89.7462
L263.348 89.7462
L263.348 87.9515
L263.935 87.9515
L263.935 89.8426
L264.522 89.8426
L264.522 88.8199
L265.109 88.8199
L265.109 90.8364
L265.696 90.8364
L265.696 93.2775
L266.283 93.2775
L266.283 89.4953
L266.87 89.4953
L266.87 91.3864
L267.457 91.3864
L267.457 90.4602
L268.045 90.4602
L268.045 91.1645
L268.632 91.1645
L268.632 90.7786
L269.219 90.7786
L269.219 93.0749
L269.806 93.0749
L269.806 89.3699
L270.393 89.3699
L270.393 89.5628
L270.98 89.5628
L270.98 90.3637
L271.567 90.3637
L271.567 91.8592
L272.154 91.8592
L272.154 84.1983
L272.741 84.1983
L272.741 80.3582
L273.329 80.3582
L273.329 79.1328
L273.916 79.1328
L273.916 78.0522
L274.503 78.0522
L274.503 79.5091
L275.09 79.5091
L275.09 76.5084
L275.677 76.5084
L275.677 79.5574
L276.851 79.4609
L276.851 81.2169
L277.438 81.2169
L277.438 81.8151
L278.025 81.8151
L278.025 79.6442
L278.613 79.6442
L278.613 80.7634
L279.2 80.7634
L279.2 85.5201
L279.787 85.5201
L279.787 83.3685
L280.374 83.3685
L280.374 83.629
L280.961 83.629
L280.961 85.2789
L281.548 85.2789
L281.548 85.9736
L282.135 85.9736
L282.135 86.2148
L282.722 86.2148
L282.722 87.8647
L283.309 87.8647
L283.309 87.4595
L283.897 87.4595
L283.897 88.8971
L285.071 88.9164
L285.071 91.2899
L285.658 91.2899
L285.658 95.8247
L286.245 95.8247
L286.245 90.9619
L286.832 90.9619
L286.832 90.7303
L287.419 90.7303
L287.419 92.66
L288.006 92.66
L288.006 91.8109
L288.593 91.8109
L288.593 91.4539
L289.181 91.4539
L289.181 93.3547
L289.768 93.3547
L289.768 92.66
L290.355 92.66
L290.355 93.6056
L290.942 93.6056
L290.942 94.0397
L292.116 93.9529
L292.116 92.5442
L292.703 92.5442
L292.703 92.7758
L293.29 92.7758
L293.29 95.6124
L293.877 95.6124
L293.877 90.2479
L294.465 90.2479
L294.465 91.4154
L295.052 91.4154
L295.052 92.8144
L295.639 92.8144
L295.639 92.5828
L296.226 92.5828
L296.226 95.0142
L296.813 95.0142
L296.813 92.9784
L297.4 92.9784
L297.4 91.3768
L297.987 91.3768
L297.987 93.0267
L298.574 93.0267
L298.574 111.6
L299.161 111.6
L299.161 102.878
L299.748 102.878
L299.748 96.9053
L300.336 96.9053
L300.336 82.1142
L300.923 82.1142
L300.923 86.6972
L301.51 86.6972
L301.51 87.2183
L302.097 87.2183
L302.097 84.5167
L302.684 84.5167
L302.684 86.8902
L303.271 86.8902
L303.271 85.6649
L303.858 85.6649
L303.858 91.9171
L304.445 91.9171
L304.445 89.1866
L305.032 89.1866
L305.032 87.7972
L305.62 87.7972
L305.62 89.119
L306.207 89.119
L306.207 92.9012
L306.794 92.9012
L306.794 92.4381
L307.381 92.4381
L307.381 89.476
L307.968 89.476
L307.968 92.1004
L309.142 91.9943
L309.142 91.1934
L309.729 91.1934
L309.729 93.374
L310.316 93.374
L310.316 93.8564
L310.904 93.8564
L310.904 89.5821
L311.491 89.5821
L311.491 80.3389
L312.078 80.3389
L312.078 83.7255
L313.252 83.7352
L313.252 80.6959
L313.839 80.6959
L313.839 85.1052
L314.426 85.1052
L314.426 82.4037
L315.013 82.4037
L315.013 83.7834
L315.6 83.7834
L315.6 87.9033
L316.188 87.9033
L316.188 86.842
L316.775 86.842
L316.775 88.926
L317.362 88.926
L317.362 89.8234
L318.536 89.7655
L318.536 87.9708
L319.123 87.9708
L319.123 89.9391
L319.71 89.9391
L319.71 89.0032
L320.297 89.0032
L320.297 93.017
L320.884 93.017
L320.884 93.9529
L321.472 93.9529
L321.472 98.5456
L322.059 98.5456
L322.059 98.6807
L322.646 98.6807
L322.646 99.1534
L323.233 99.1534
L323.233 100.311
L323.82 100.311
L323.82 99.2982
L324.407 99.2982
L324.407 99.9446
L324.994 99.9446
L324.994 99.1341
L325.581 99.1341
L325.581 101.459
L326.168 101.459
L326.168 99.3368
L326.756 99.3368
L326.756 95.1783
L327.343 95.1783
L327.343 94.3195
L327.93 94.3195
L327.93 93.895
L328.517 93.895
L328.517 98.15
L329.104 98.15
L329.104 92.6311
L329.691 92.6311
L329.691 92.0232
L330.278 92.0232
L330.278 94.059
L330.865 94.059
L330.865 95.8633
L331.452 95.8633
L331.452 94.8695
L332.04 94.8695
L332.04 95.516
L332.627 95.516
L332.627 93.4029
L333.214 93.4029
L333.214 97.8027
L333.801 97.8027
L333.801 91.2127
L334.388 91.2127
L334.388 97.1176
L334.975 97.1176
L334.975 92.824
L335.562 92.824
L335.562 87.1604
L336.149 87.1604
L336.149 89.7655
L336.736 89.7655
L336.736 92.3609
L337.911 92.3127
L337.911 92.0039
L338.498 92.0039
L338.498 111.6
L339.085 111.6
L339.085 105.666
L339.672 105.666
L339.672 90.1128
L340.259 90.1128
L340.259 92.2548
L340.846 92.2548
L340.846 91.8302
L341.433 91.8302
L341.433 91.7048
L342.02 91.7048
L342.02 90.0935
L342.607 90.0935
L342.607 92.0329
L343.195 92.0329
L343.195 94.0687
L343.782 94.0687
L343.782 89.8812
L344.369 89.8812
L344.369 93.8371
L344.956 93.8371
L344.956 94.0783
L345.543 94.0783
L345.543 94.6476
L346.13 94.6476
L346.13 93.2293
L346.717 93.2293
L346.717 91.7241
L347.304 91.7241
L347.304 92.1486
L347.891 92.1486
L347.891 91.5311
L348.479 91.5311
L348.479 91.8495
L349.066 91.8495
L349.066 96.1238
L349.653 96.1238
L349.653 93.9529
L350.24 93.9529
L350.24 89.7365
L350.827 89.7365
L350.827 93.21
L351.414 93.21
L351.414 93.4608
L352.001 93.4608
L352.001 89.7365
L352.588 89.7365
L352.588 91.4443
L353.175 91.4443
L353.175 92.3127
L353.763 92.3127
L353.763 90.6338
L354.35 90.6338
L354.35 90.7979
L354.937 90.7979
L354.937 92.9784
L355.524 92.9784
L355.524 92.2741
L356.111 92.2741
L356.111 95.7379
L356.698 95.7379
L356.698 93.4512
L357.285 93.4512
L357.285 96.0563
L357.872 96.0563
L357.872 91.7241
L358.459 91.7241
L358.459 83.7641
L359.047 83.7641
L359.047 86.5815
L359.634 86.5815
L359.634 85.6263
L360.221 85.6263
L360.221 87.0349
L360.808 87.0349
L360.808 84.6518
L361.395 84.6518
L361.395 87.3244
L361.982 87.3244
L361.982 87.1893
L362.569 87.1893
L362.569 89.7848
L363.156 89.7848
L363.156 91.0101
L363.743 91.0101
L363.743 90.7207
L364.331 90.7207
L364.331 90.1225
L364.918 90.1225
L364.918 91.8013
L365.505 91.8013
L365.505 89.8812
L366.679 89.9777
L366.679 88.3471
L367.266 88.3471
L367.266 90.3637
L367.853 90.3637
L367.853 93.3836
L368.44 93.3836
L368.44 91.1741
L369.027 91.1741
L369.027 97.4071
L369.615 97.4071
L369.615 93.3065
L370.789 93.3451
L370.789 92.1486
L371.376 92.1486
L371.376 95.1686
L371.963 95.1686
L371.963 95.7572
L372.55 95.7572
L372.55 95.0721
L373.137 95.0721
L373.137 94.1073
L373.724 94.1073
L373.724 94.2713
L374.311 94.2713
L374.311 93.9626
L374.899 93.9626
L374.899 94.1748
L375.486 94.1748
L375.486 94.5029
L376.073 94.5029
L376.073 93.6056
L376.66 93.6056
L376.66 94.6765
L377.247 94.6765
L377.247 95.7861
L377.834 95.7861
L377.834 97.3009
L378.421 97.3009
L378.421 94.0397
L379.008 94.0397
L379.008 94.9853
L379.595 94.9853
L379.595 95.1397
L380.182 95.1397
L380.182 92.496
L380.77 92.496
L380.77 96.4422
L381.357 96.4422
L381.357 94.5125
L381.944 94.5125
L381.944 100.697
L382.531 100.697
L382.531 101.643
L383.118 101.643
L383.118 97.108
L383.705 97.108
L383.705 98.4202
L384.292 98.4202
L384.292 99.3464
L384.879 99.3464
L384.879 97.0694
L385.466 97.0694
L385.466 90.3154
L386.054 90.3154
L386.054 93.8468
L386.641 93.8468
L386.641 111.6
L387.815 111.6
L387.815 98.7675
L388.402 98.7675
L388.402 90.8943
L388.989 90.8943
L388.989 92.2065
L389.576 92.2065
L389.576 94.4932
L390.163 94.4932
L390.163 93.1328
L390.75 93.1328
L390.75 93.3643
L391.338 93.3643
L391.338 93.6538
L391.925 93.6538
L391.925 95.0528
L392.512 95.0528
L392.512 94.3678
L393.099 94.3678
L393.099 95.7475
L393.686 95.7475
L393.686 91.0005
L394.273 91.0005
L394.273 93.21
L394.86 93.21
L394.86 94.3871
L395.447 94.3871
L395.447 92.4091
L396.034 92.4091
L396.034 90.2865
L396.622 90.2865
L396.622 91.8109
L397.209 91.8109
L397.209 95.9694
L397.796 95.9694
L397.796 95.9694" style="fill:none;stroke:#0000ff;"/>
   </g>
   <g id="matplotlib.axis_1">
    <g id="xtick_1">
     <g id="line2d_24">
      <defs>
       <path d="
M0 0
L0 -4" id="m0012dd4eef" style="stroke:#000000;stroke-linecap:butt;stroke-width:0.5;"/>
      </defs>
      <g>
       <use style="stroke:#000000;stroke-linecap:butt;stroke-width:0.5;" x="46.1171875" xlink:href="#m0012dd4eef" y="111.6"/>
      </g>
     </g>
     <g id="line2d_25">
      <defs>
       <path d="
M0 0
L0 4" id="m476344969c" style="stroke:#000000;stroke-linecap:butt;stroke-width:0.5;"/>
      </defs>
      <g>
       <use style="stroke:#000000;stroke-linecap:butt;stroke-width:0.5;" x="46.1171875" xlink:href="#m476344969c" y="32.0"/>
      </g>
     </g>
     <g id="text_1">
      <!-- 0 -->
      <defs>
       <path d="
M31.7812 66.4062
Q24.1719 66.4062 20.3281 58.9062
Q16.5 51.4219 16.5 36.375
Q16.5 21.3906 20.3281 13.8906
Q24.1719 6.39062 31.7812 6.39062
Q39.4531 6.39062 43.2812 13.8906
Q47.125 21.3906 47.125 36.375
Q47.125 51.4219 43.2812 58.9062
Q39.4531 66.4062 31.7812 66.4062
M31.7812 74.2188
Q44.0469 74.2188 50.5156 64.5156
Q56.9844 54.8281 56.9844 36.375
Q56.9844 17.9688 50.5156 8.26562
Q44.0469 -1.42188 31.7812 -1.42188
Q19.5312 -1.42188 13.0625 8.26562
Q6.59375 17.9688 6.59375 36.375
Q6.59375 54.8281 13.0625 64.5156
Q19.5312 74.2188 31.7812 74.2188" id="DejaVuSans-30"/>
      </defs>
      <g transform="translate(43.59765625 123.021875)scale(0.1 -0.1)">
       <use xlink:href="#DejaVuSans-30"/>
      </g>
     </g>
    </g>
    <g id="xtick_2">
     <g id="line2d_26">
      <g>
       <use style="stroke:#000000;stroke-linecap:butt;stroke-width:0.5;" x="135.073242188" xlink:href="#m0012dd4eef" y="111.6"/>
      </g>
     </g>
     <g id="line2d_27">
      <g>
       <use style="stroke:#000000;stroke-linecap:butt;stroke-width:0.5;" x="135.073242188" xlink:href="#m476344969c" y="32.0"/>
      </g>
     </g>
     <g id="text_2">
      <!-- 500 -->
      <defs>
       <path d="
M10.7969 72.9062
L49.5156 72.9062
L49.5156 64.5938
L19.8281 64.5938
L19.8281 46.7344
Q21.9688 47.4688 24.1094 47.8281
Q26.2656 48.1875 28.4219 48.1875
Q40.625 48.1875 47.75 41.5
Q54.8906 34.8125 54.8906 23.3906
Q54.8906 11.625 47.5625 5.09375
Q40.2344 -1.42188 26.9062 -1.42188
Q22.3125 -1.42188 17.5469 -0.640625
Q12.7969 0.140625 7.71875 1.70312
L7.71875 11.625
Q12.1094 9.23438 16.7969 8.0625
Q21.4844 6.89062 26.7031 6.89062
Q35.1562 6.89062 40.0781 11.3281
Q45.0156 15.7656 45.0156 23.3906
Q45.0156 31 40.0781 35.4375
Q35.1562 39.8906 26.7031 39.8906
Q22.75 39.8906 18.8125 39.0156
Q14.8906 38.1406 10.7969 36.2812
z
" id="DejaVuSans-35"/>
      </defs>
      <g transform="translate(126.247460938 123.021875)scale(0.1 -0.1)">
       <use xlink:href="#DejaVuSans-35"/>
       <use x="63.623046875" xlink:href="#DejaVuSans-30"/>
       <use x="127.24609375" xlink:href="#DejaVuSans-30"/>
      </g>
     </g>
    </g>
    <g id="xtick_3">
     <g id="line2d_28">
      <g>
       <use style="stroke:#000000;stroke-linecap:butt;stroke-width:0.5;" x="224.029296875" xlink:href="#m0012dd4eef" y="111.6"/>
      </g>
     </g>
     <g id="line2d_29">
      <g>
       <use style="stroke:#000000;stroke-linecap:butt;stroke-width:0.5;" x="224.029296875" xlink:href="#m476344969c" y="32.0"/>
      </g>
     </g>
     <g id="text_3">
      <!-- 1000 -->
      <defs>
       <path d="
M12.4062 8.29688
L28.5156 8.29688
L28.5156 63.9219
L10.9844 60.4062
L10.9844 69.3906
L28.4219 72.9062
L38.2812 72.9062
L38.2812 8.29688
L54.3906 8.29688
L54.3906 0
L12.4062 0
z
" id="DejaVuSans-31"/>
      </defs>
      <g transform="translate(212.185546875 123.021875)scale(0.1 -0.1)">
       <use xlink:href="#DejaVuSans-31"/>
       <use x="63.623046875" xlink:href="#DejaVuSans-30"/>
       <use x="127.24609375" xlink:href="#DejaVuSans-30"/>
       <use x="190.869140625" xlink:href="#DejaVuSans-30"/>
      </g>
     </g>
    </g>
    <g id="xtick_4">
     <g id="line2d_30">
      <g>
       <use style="stroke:#000000;stroke-linecap:butt;stroke-width:0.5;" x="312.985351563" xlink:href="#m0012dd4eef" y="111.6"/>
      </g>
     </g>
     <g id="line2d_31">
      <g>
       <use style="stroke:#000000;stroke-linecap:butt;stroke-width:0.5;" x="312.985351563" xlink:href="#m476344969c" y="32.0"/>
      </g>
     </g>
     <g id="text_4">
      <!-- 1500 -->
      <g transform="translate(301.141601563 123.021875)scale(0.1 -0.1)">
       <use xlink:href="#DejaVuSans-31"/>
       <use x="63.623046875" xlink:href="#DejaVuSans-35"/>
       <use x="127.24609375" xlink:href="#DejaVuSans-30"/>
       <use x="190.869140625" xlink:href="#DejaVuSans-30"/>
      </g>
     </g>
    </g>
    <g id="xtick_5">
     <g id="line2d_32">
      <g>
       <use style="stroke:#000000;stroke-linecap:butt;stroke-width:0.5;" x="401.94140625" xlink:href="#m0012dd4eef" y="111.6"/>
      </g>
     </g>
     <g id="line2d_33">
      <g>
       <use style="stroke:#000000;stroke-linecap:butt;stroke-width:0.5;" x="401.94140625" xlink:href="#m476344969c" y="32.0"/>
      </g>
     </g>
     <g id="text_5">
      <!-- 2000 -->
      <defs>
       <path d="
M19.1875 8.29688
L53.6094 8.29688
L53.6094 0
L7.32812 0
L7.32812 8.29688
Q12.9375 14.1094 22.625 23.8906
Q32.3281 33.6875 34.8125 36.5312
Q39.5469 41.8438 41.4219 45.5312
Q43.3125 49.2188 43.3125 52.7812
Q43.3125 58.5938 39.2344 62.25
Q35.1562 65.9219 28.6094 65.9219
Q23.9688 65.9219 18.8125 64.3125
Q13.6719 62.7031 7.8125 59.4219
L7.8125 69.3906
Q13.7656 71.7812 18.9375 73
Q24.125 74.2188 28.4219 74.2188
Q39.75 74.2188 46.4844 68.5469
Q53.2188 62.8906 53.2188 53.4219
Q53.2188 48.9219 51.5312 44.8906
Q49.8594 40.875 45.4062 35.4062
Q44.1875 33.9844 37.6406 27.2188
Q31.1094 20.4531 19.1875 8.29688" id="DejaVuSans-32"/>
      </defs>
      <g transform="translate(389.91484375 123.021875)scale(0.1 -0.1)">
       <use xlink:href="#DejaVuSans-32"/>
       <use x="63.623046875" xlink:href="#DejaVuSans-30"/>
       <use x="127.24609375" xlink:href="#DejaVuSans-30"/>
       <use x="190.869140625" xlink:href="#DejaVuSans-30"/>
      </g>
     </g>
    </g>
    <g id="text_6">
     <!-- Time -->
     <defs>
      <path d="
M52 44.1875
Q55.375 50.25 60.0625 53.125
Q64.75 56 71.0938 56
Q79.6406 56 84.2812 50.0156
Q88.9219 44.0469 88.9219 33.0156
L88.9219 0
L79.8906 0
L79.8906 32.7188
Q79.8906 40.5781 77.0938 44.375
Q74.3125 48.1875 68.6094 48.1875
Q61.625 48.1875 57.5625 43.5469
Q53.5156 38.9219 53.5156 30.9062
L53.5156 0
L44.4844 0
L44.4844 32.7188
Q44.4844 40.625 41.7031 44.4062
Q38.9219 48.1875 33.1094 48.1875
Q26.2188 48.1875 22.1562 43.5312
Q18.1094 38.875 18.1094 30.9062
L18.1094 0
L9.07812 0
L9.07812 54.6875
L18.1094 54.6875
L18.1094 46.1875
Q21.1875 51.2188 25.4844 53.6094
Q29.7812 56 35.6875 56
Q41.6562 56 45.8281 52.9688
Q50 49.9531 52 44.1875" id="DejaVuSans-6d"/>
      <path d="
M9.42188 54.6875
L18.4062 54.6875
L18.4062 0
L9.42188 0
z

M9.42188 75.9844
L18.4062 75.9844
L18.4062 64.5938
L9.42188 64.5938
z
" id="DejaVuSans-69"/>
      <path d="
M56.2031 29.5938
L56.2031 25.2031
L14.8906 25.2031
Q15.4844 15.9219 20.4844 11.0625
Q25.4844 6.20312 34.4219 6.20312
Q39.5938 6.20312 44.4531 7.46875
Q49.3125 8.73438 54.1094 11.2812
L54.1094 2.78125
Q49.2656 0.734375 44.1875 -0.34375
Q39.1094 -1.42188 33.8906 -1.42188
Q20.7969 -1.42188 13.1562 6.1875
Q5.51562 13.8125 5.51562 26.8125
Q5.51562 40.2344 12.7656 48.1094
Q20.0156 56 32.3281 56
Q43.3594 56 49.7812 48.8906
Q56.2031 41.7969 56.2031 29.5938
M47.2188 32.2344
Q47.125 39.5938 43.0938 43.9844
Q39.0625 48.3906 32.4219 48.3906
Q24.9062 48.3906 20.3906 44.1406
Q15.875 39.8906 15.1875 32.1719
z
" id="DejaVuSans-65"/>
      <path d="
M-0.296875 72.9062
L61.375 72.9062
L61.375 64.5938
L35.5 64.5938
L35.5 0
L25.5938 0
L25.5938 64.5938
L-0.296875 64.5938
z
" id="DejaVuSans-54"/>
     </defs>
     <g transform="translate(212.047265625 135.7625)scale(0.1 -0.1)">
      <use xlink:href="#DejaVuSans-54"/>
      <use x="57.958984375" xlink:href="#DejaVuSans-69"/>
      <use x="85.7421875" xlink:href="#DejaVuSans-6d"/>
      <use x="183.154296875" xlink:href="#DejaVuSans-65"/>
     </g>
    </g>
   </g>
   <g id="matplotlib.axis_2">
    <g id="ytick_1">
     <g id="line2d_34">
      <defs>
       <path d="
M0 0
L4 0" id="me8a85f7bf6" style="stroke:#000000;stroke-linecap:butt;stroke-width:0.5;"/>
      </defs>
      <g>
       <use style="stroke:#000000;stroke-linecap:butt;stroke-width:0.5;" x="46.1171875" xlink:href="#me8a85f7bf6" y="111.6"/>
      </g>
     </g>
     <g id="line2d_35">
      <defs>
       <path d="
M0 0
L-4 0" id="m1a32005dea" style="stroke:#000000;stroke-linecap:butt;stroke-width:0.5;"/>
      </defs>
      <g>
       <use style="stroke:#000000;stroke-linecap:butt;stroke-width:0.5;" x="401.94140625" xlink:href="#m1a32005dea" y="111.6"/>
      </g>
     </g>
     <g id="text_7">
      <!-- 0 -->
      <g transform="translate(37.078125 115.23984375)scale(0.1 -0.1)">
       <use xlink:href="#DejaVuSans-30"/>
      </g>
     </g>
    </g>
    <g id="ytick_2">
     <g id="line2d_36">
      <g>
       <use style="stroke:#000000;stroke-linecap:butt;stroke-width:0.5;" x="46.1171875" xlink:href="#me8a85f7bf6" y="95.68"/>
      </g>
     </g>
     <g id="line2d_37">
      <g>
       <use style="stroke:#000000;stroke-linecap:butt;stroke-width:0.5;" x="401.94140625" xlink:href="#m1a32005dea" y="95.68"/>
      </g>
     </g>
     <g id="text_8">
      <!-- 500 -->
      <g transform="translate(24.465625 99.31984375)scale(0.1 -0.1)">
       <use xlink:href="#DejaVuSans-35"/>
       <use x="63.623046875" xlink:href="#DejaVuSans-30"/>
       <use x="127.24609375" xlink:href="#DejaVuSans-30"/>
      </g>
     </g>
    </g>
    <g id="ytick_3">
     <g id="line2d_38">
      <g>
       <use style="stroke:#000000;stroke-linecap:butt;stroke-width:0.5;" x="46.1171875" xlink:href="#me8a85f7bf6" y="79.76"/>
      </g>
     </g>
     <g id="line2d_39">
      <g>
       <use style="stroke:#000000;stroke-linecap:butt;stroke-width:0.5;" x="401.94140625" xlink:href="#m1a32005dea" y="79.76"/>
      </g>
     </g>
     <g id="text_9">
      <!-- 1000 -->
      <g transform="translate(18.4296875 83.39984375)scale(0.1 -0.1)">
       <use xlink:href="#DejaVuSans-31"/>
       <use x="63.623046875" xlink:href="#DejaVuSans-30"/>
       <use x="127.24609375" xlink:href="#DejaVuSans-30"/>
       <use x="190.869140625" xlink:href="#DejaVuSans-30"/>
      </g>
     </g>
    </g>
    <g id="ytick_4">
     <g id="line2d_40">
      <g>
       <use style="stroke:#000000;stroke-linecap:butt;stroke-width:0.5;" x="46.1171875" xlink:href="#me8a85f7bf6" y="63.84"/>
      </g>
     </g>
     <g id="line2d_41">
      <g>
       <use style="stroke:#000000;stroke-linecap:butt;stroke-width:0.5;" x="401.94140625" xlink:href="#m1a32005dea" y="63.84"/>
      </g>
     </g>
     <g id="text_10">
      <!-- 1500 -->
      <g transform="translate(18.4296875 67.47984375)scale(0.1 -0.1)">
       <use xlink:href="#DejaVuSans-31"/>
       <use x="63.623046875" xlink:href="#DejaVuSans-35"/>
       <use x="127.24609375" xlink:href="#DejaVuSans-30"/>
       <use x="190.869140625" xlink:href="#DejaVuSans-30"/>
      </g>
     </g>
    </g>
    <g id="ytick_5">
     <g id="line2d_42">
      <g>
       <use style="stroke:#000000;stroke-linecap:butt;stroke-width:0.5;" x="46.1171875" xlink:href="#me8a85f7bf6" y="47.92"/>
      </g>
     </g>
     <g id="line2d_43">
      <g>
       <use style="stroke:#000000;stroke-linecap:butt;stroke-width:0.5;" x="401.94140625" xlink:href="#m1a32005dea" y="47.92"/>
      </g>
     </g>
     <g id="text_11">
      <!-- 2000 -->
      <g transform="translate(18.0640625 51.55984375)scale(0.1 -0.1)">
       <use xlink:href="#DejaVuSans-32"/>
       <use x="63.623046875" xlink:href="#DejaVuSans-30"/>
       <use x="127.24609375" xlink:href="#DejaVuSans-30"/>
       <use x="190.869140625" xlink:href="#DejaVuSans-30"/>
      </g>
     </g>
    </g>
    <g id="ytick_6">
     <g id="line2d_44">
      <g>
       <use style="stroke:#000000;stroke-linecap:butt;stroke-width:0.5;" x="46.1171875" xlink:href="#me8a85f7bf6" y="32.0"/>
      </g>
     </g>
     <g id="line2d_45">
      <g>
       <use style="stroke:#000000;stroke-linecap:butt;stroke-width:0.5;" x="401.94140625" xlink:href="#m1a32005dea" y="32.0"/>
      </g>
     </g>
     <g id="text_12">
      <!-- 2500 -->
      <g transform="translate(18.0640625 35.63984375)scale(0.1 -0.1)">
       <use xlink:href="#DejaVuSans-32"/>
       <use x="63.623046875" xlink:href="#DejaVuSans-35"/>
       <use x="127.24609375" xlink:href="#DejaVuSans-30"/>
       <use x="190.869140625" xlink:href="#DejaVuSans-30"/>
      </g>
     </g>
    </g>
   </g>
   <g id="patch_3">
    <path d="
M46.1172 32
L401.941 32" style="fill:none;stroke:#000000;"/>
   </g>
   <g id="patch_4">
    <path d="
M401.941 111.6
L401.941 32" style="fill:none;stroke:#000000;"/>
   </g>
   <g id="patch_5">
    <path d="
M46.1172 111.6
L401.941 111.6" style="fill:none;stroke:#000000;"/>
   </g>
   <g id="patch_6">
    <path d="
M46.1172 111.6
L46.1172 32" style="fill:none;stroke:#000000;"/>
   </g>
   <g id="text_13">
    <!-- OLTP -->
    <defs>
     <path d="
M39.4062 66.2188
Q28.6562 66.2188 22.3281 58.2031
Q16.0156 50.2031 16.0156 36.375
Q16.0156 22.6094 22.3281 14.5938
Q28.6562 6.59375 39.4062 6.59375
Q50.1406 6.59375 56.4219 14.5938
Q62.7031 22.6094 62.7031 36.375
Q62.7031 50.2031 56.4219 58.2031
Q50.1406 66.2188 39.4062 66.2188
M39.4062 74.2188
Q54.7344 74.2188 63.9062 63.9375
Q73.0938 53.6562 73.0938 36.375
Q73.0938 19.1406 63.9062 8.85938
Q54.7344 -1.42188 39.4062 -1.42188
Q24.0312 -1.42188 14.8125 8.82812
Q5.60938 19.0938 5.60938 36.375
Q5.60938 53.6562 14.8125 63.9375
Q24.0312 74.2188 39.4062 74.2188" id="DejaVuSans-4f"/>
     <path d="
M19.6719 64.7969
L19.6719 37.4062
L32.0781 37.4062
Q38.9688 37.4062 42.7188 40.9688
Q46.4844 44.5312 46.4844 51.125
Q46.4844 57.6719 42.7188 61.2344
Q38.9688 64.7969 32.0781 64.7969
z

M9.8125 72.9062
L32.0781 72.9062
Q44.3438 72.9062 50.6094 67.3594
Q56.8906 61.8125 56.8906 51.125
Q56.8906 40.3281 50.6094 34.8125
Q44.3438 29.2969 32.0781 29.2969
L19.6719 29.2969
L19.6719 0
L9.8125 0
z
" id="DejaVuSans-50"/>
     <path d="
M9.8125 72.9062
L19.6719 72.9062
L19.6719 8.29688
L55.1719 8.29688
L55.1719 0
L9.8125 0
z
" id="DejaVuSans-4c"/>
    </defs>
    <g transform="translate(210.046484375 27.0)scale(0.12 -0.12)">
     <use xlink:href="#DejaVuSans-4f"/>
     <use x="78.7109375" xlink:href="#DejaVuSans-4c"/>
     <use x="120.673828125" xlink:href="#DejaVuSans-54"/>
     <use x="181.7578125" xlink:href="#DejaVuSans-50"/>
    </g>
   </g>
  </g>
  <g id="axes_2">
   <g id="patch_7">
    <path d="
M46.1172 246.6
L401.941 246.6
L401.941 167
L46.1172 167
z
" style="fill:#ffffff;"/>
   </g>
   <g id="line2d_46">
    <path clip-path="url(#pe9bd9c4693)" d="
M56.7923 246.6
L56.7923 167" style="fill:none;stroke:#00ffff;stroke-dasharray:6.000000,6.000000;stroke-dashoffset:0.0;stroke-linecap:butt;"/>
   </g>
   <g id="line2d_47">
    <path clip-path="url(#pe9bd9c4693)" d="
M78.1419 246.6
L78.1419 167" style="fill:none;stroke:#00ffff;stroke-dasharray:6.000000,6.000000;stroke-dashoffset:0.0;stroke-linecap:butt;"/>
   </g>
   <g id="line2d_48">
    <path clip-path="url(#pe9bd9c4693)" d="
M78.142 246.6
L78.142 167" style="fill:none;stroke:#00ffff;stroke-dasharray:6.000000,6.000000;stroke-dashoffset:0.0;stroke-linecap:butt;"/>
   </g>
   <g id="line2d_49">
    <path clip-path="url(#pe9bd9c4693)" d="
M78.1425 246.6
L78.1425 167" style="fill:none;stroke:#00ffff;stroke-dasharray:6.000000,6.000000;stroke-dashoffset:0.0;stroke-linecap:butt;"/>
   </g>
   <g id="line2d_50">
    <path clip-path="url(#pe9bd9c4693)" d="
M99.4911 246.6
L99.4911 167" style="fill:none;stroke:#00ffff;stroke-dasharray:6.000000,6.000000;stroke-dashoffset:0.0;stroke-linecap:butt;"/>
   </g>
   <g id="line2d_51">
    <path clip-path="url(#pe9bd9c4693)" d="
M99.4918 246.6
L99.4918 167" style="fill:none;stroke:#00ffff;stroke-dasharray:6.000000,6.000000;stroke-dashoffset:0.0;stroke-linecap:butt;"/>
   </g>
   <g id="line2d_52">
    <path clip-path="url(#pe9bd9c4693)" d="
M120.841 246.6
L120.841 167" style="fill:none;stroke:#00ffff;stroke-dasharray:6.000000,6.000000;stroke-dashoffset:0.0;stroke-linecap:butt;"/>
   </g>
   <g id="line2d_53">
    <path clip-path="url(#pe9bd9c4693)" d="
M120.841 246.6
L120.841 167" style="fill:none;stroke:#00ffff;stroke-dasharray:6.000000,6.000000;stroke-dashoffset:0.0;stroke-linecap:butt;"/>
   </g>
   <g id="line2d_54">
    <path clip-path="url(#pe9bd9c4693)" d="
M142.19 246.6
L142.19 167" style="fill:none;stroke:#00ffff;stroke-dasharray:6.000000,6.000000;stroke-dashoffset:0.0;stroke-linecap:butt;"/>
   </g>
   <g id="line2d_55">
    <path clip-path="url(#pe9bd9c4693)" d="
M163.54 246.6
L163.54 167" style="fill:none;stroke:#00ffff;stroke-dasharray:6.000000,6.000000;stroke-dashoffset:0.0;stroke-linecap:butt;"/>
   </g>
   <g id="line2d_56">
    <path clip-path="url(#pe9bd9c4693)" d="
M184.889 246.6
L184.889 167" style="fill:none;stroke:#00ffff;stroke-dasharray:6.000000,6.000000;stroke-dashoffset:0.0;stroke-linecap:butt;"/>
   </g>
   <g id="line2d_57">
    <path clip-path="url(#pe9bd9c4693)" d="
M184.889 246.6
L184.889 167" style="fill:none;stroke:#00ffff;stroke-dasharray:6.000000,6.000000;stroke-dashoffset:0.0;stroke-linecap:butt;"/>
   </g>
   <g id="line2d_58">
    <path clip-path="url(#pe9bd9c4693)" d="
M206.239 246.6
L206.239 167" style="fill:none;stroke:#00ffff;stroke-dasharray:6.000000,6.000000;stroke-dashoffset:0.0;stroke-linecap:butt;"/>
   </g>
   <g id="line2d_59">
    <path clip-path="url(#pe9bd9c4693)" d="
M227.588 246.6
L227.588 167" style="fill:none;stroke:#00ffff;stroke-dasharray:6.000000,6.000000;stroke-dashoffset:0.0;stroke-linecap:butt;"/>
   </g>
   <g id="line2d_60">
    <path clip-path="url(#pe9bd9c4693)" d="
M248.937 246.6
L248.937 167" style="fill:none;stroke:#00ffff;stroke-dasharray:6.000000,6.000000;stroke-dashoffset:0.0;stroke-linecap:butt;"/>
   </g>
   <g id="line2d_61">
    <path clip-path="url(#pe9bd9c4693)" d="
M270.287 246.6
L270.287 167" style="fill:none;stroke:#00ffff;stroke-dasharray:6.000000,6.000000;stroke-dashoffset:0.0;stroke-linecap:butt;"/>
   </g>
   <g id="line2d_62">
    <path clip-path="url(#pe9bd9c4693)" d="
M270.287 246.6
L270.287 167" style="fill:none;stroke:#00ffff;stroke-dasharray:6.000000,6.000000;stroke-dashoffset:0.0;stroke-linecap:butt;"/>
   </g>
   <g id="line2d_63">
    <path clip-path="url(#pe9bd9c4693)" d="
M291.654 246.6
L291.654 167" style="fill:none;stroke:#00ffff;stroke-dasharray:6.000000,6.000000;stroke-dashoffset:0.0;stroke-linecap:butt;"/>
   </g>
   <g id="line2d_64">
    <path clip-path="url(#pe9bd9c4693)" d="
M312.986 246.6
L312.986 167" style="fill:none;stroke:#00ffff;stroke-dasharray:6.000000,6.000000;stroke-dashoffset:0.0;stroke-linecap:butt;"/>
   </g>
   <g id="line2d_65">
    <path clip-path="url(#pe9bd9c4693)" d="
M334.355 246.6
L334.355 167" style="fill:none;stroke:#00ffff;stroke-dasharray:6.000000,6.000000;stroke-dashoffset:0.0;stroke-linecap:butt;"/>
   </g>
   <g id="line2d_66">
    <path clip-path="url(#pe9bd9c4693)" d="
M355.685 246.6
L355.685 167" style="fill:none;stroke:#00ffff;stroke-dasharray:6.000000,6.000000;stroke-dashoffset:0.0;stroke-linecap:butt;"/>
   </g>
   <g id="line2d_67">
    <path clip-path="url(#pe9bd9c4693)" d="
M377.035 246.6
L377.035 167" style="fill:none;stroke:#00ffff;stroke-dasharray:6.000000,6.000000;stroke-dashoffset:0.0;stroke-linecap:butt;"/>
   </g>
   <g id="line2d_68">
    <path clip-path="url(#pe9bd9c4693)" d="
M57.4856 225.591
L57.4856 220.199
L77.5303 220.199
L77.5303 218.34
L97.575 218.34
L97.575 223.917
L117.62 223.917
L117.62 222.988
L137.664 222.988
L137.664 226.706
L157.709 226.706
L157.709 224.103
L177.754 224.103
L177.754 224.661
L197.798 224.661
L197.798 225.591
L217.843 225.591
L217.843 227.078
L237.888 227.078
L237.888 225.962
L257.932 225.962
L257.932 227.078
L277.977 227.078
L277.977 228.194
L298.022 228.194
L298.022 235.445
L318.066 235.445
L318.066 230.982
L338.111 230.982
L338.111 231.354
L358.156 231.354
L358.156 230.053
L378.201 230.053" style="fill:none;stroke:#008000;"/>
   </g>
   <g id="matplotlib.axis_3">
    <g id="xtick_6">
     <g id="line2d_69">
      <g>
       <use style="stroke:#000000;stroke-linecap:butt;stroke-width:0.5;" x="46.1171875" xlink:href="#m0012dd4eef" y="246.6"/>
      </g>
     </g>
     <g id="line2d_70">
      <g>
       <use style="stroke:#000000;stroke-linecap:butt;stroke-width:0.5;" x="46.1171875" xlink:href="#m476344969c" y="167.0"/>
      </g>
     </g>
     <g id="text_14">
      <!-- 0 -->
      <g transform="translate(43.59765625 258.021875)scale(0.1 -0.1)">
       <use xlink:href="#DejaVuSans-30"/>
      </g>
     </g>
    </g>
    <g id="xtick_7">
     <g id="line2d_71">
      <g>
       <use style="stroke:#000000;stroke-linecap:butt;stroke-width:0.5;" x="135.073242188" xlink:href="#m0012dd4eef" y="246.6"/>
      </g>
     </g>
     <g id="line2d_72">
      <g>
       <use style="stroke:#000000;stroke-linecap:butt;stroke-width:0.5;" x="135.073242188" xlink:href="#m476344969c" y="167.0"/>
      </g>
     </g>
     <g id="text_15">
      <!-- 500 -->
      <g transform="translate(126.247460938 258.021875)scale(0.1 -0.1)">
       <use xlink:href="#DejaVuSans-35"/>
       <use x="63.623046875" xlink:href="#DejaVuSans-30"/>
       <use x="127.24609375" xlink:href="#DejaVuSans-30"/>
      </g>
     </g>
    </g>
    <g id="xtick_8">
     <g id="line2d_73">
      <g>
       <use style="stroke:#000000;stroke-linecap:butt;stroke-width:0.5;" x="224.029296875" xlink:href="#m0012dd4eef" y="246.6"/>
      </g>
     </g>
     <g id="line2d_74">
      <g>
       <use style="stroke:#000000;stroke-linecap:butt;stroke-width:0.5;" x="224.029296875" xlink:href="#m476344969c" y="167.0"/>
      </g>
     </g>
     <g id="text_16">
      <!-- 1000 -->
      <g transform="translate(212.185546875 258.021875)scale(0.1 -0.1)">
       <use xlink:href="#DejaVuSans-31"/>
       <use x="63.623046875" xlink:href="#DejaVuSans-30"/>
       <use x="127.24609375" xlink:href="#DejaVuSans-30"/>
       <use x="190.869140625" xlink:href="#DejaVuSans-30"/>
      </g>
     </g>
    </g>
    <g id="xtick_9">
     <g id="line2d_75">
      <g>
       <use style="stroke:#000000;stroke-linecap:butt;stroke-width:0.5;" x="312.985351563" xlink:href="#m0012dd4eef" y="246.6"/>
      </g>
     </g>
     <g id="line2d_76">
      <g>
       <use style="stroke:#000000;stroke-linecap:butt;stroke-width:0.5;" x="312.985351563" xlink:href="#m476344969c" y="167.0"/>
      </g>
     </g>
     <g id="text_17">
      <!-- 1500 -->
      <g transform="translate(301.141601563 258.021875)scale(0.1 -0.1)">
       <use xlink:href="#DejaVuSans-31"/>
       <use x="63.623046875" xlink:href="#DejaVuSans-35"/>
       <use x="127.24609375" xlink:href="#DejaVuSans-30"/>
       <use x="190.869140625" xlink:href="#DejaVuSans-30"/>
      </g>
     </g>
    </g>
    <g id="xtick_10">
     <g id="line2d_77">
      <g>
       <use style="stroke:#000000;stroke-linecap:butt;stroke-width:0.5;" x="401.94140625" xlink:href="#m0012dd4eef" y="246.6"/>
      </g>
     </g>
     <g id="line2d_78">
      <g>
       <use style="stroke:#000000;stroke-linecap:butt;stroke-width:0.5;" x="401.94140625" xlink:href="#m476344969c" y="167.0"/>
      </g>
     </g>
     <g id="text_18">
      <!-- 2000 -->
      <g transform="translate(389.91484375 258.021875)scale(0.1 -0.1)">
       <use xlink:href="#DejaVuSans-32"/>
       <use x="63.623046875" xlink:href="#DejaVuSans-30"/>
       <use x="127.24609375" xlink:href="#DejaVuSans-30"/>
       <use x="190.869140625" xlink:href="#DejaVuSans-30"/>
      </g>
     </g>
    </g>
    <g id="text_19">
     <!-- Time -->
     <g transform="translate(212.047265625 270.7625)scale(0.1 -0.1)">
      <use xlink:href="#DejaVuSans-54"/>
      <use x="57.958984375" xlink:href="#DejaVuSans-69"/>
      <use x="85.7421875" xlink:href="#DejaVuSans-6d"/>
      <use x="183.154296875" xlink:href="#DejaVuSans-65"/>
     </g>
    </g>
   </g>
   <g id="matplotlib.axis_4">
    <g id="ytick_7">
     <g id="line2d_79">
      <g>
       <use style="stroke:#000000;stroke-linecap:butt;stroke-width:0.5;" x="46.1171875" xlink:href="#me8a85f7bf6" y="246.6"/>
      </g>
     </g>
     <g id="line2d_80">
      <g>
       <use style="stroke:#000000;stroke-linecap:butt;stroke-width:0.5;" x="401.94140625" xlink:href="#m1a32005dea" y="246.6"/>
      </g>
     </g>
     <g id="text_20">
      <!-- 0.0 -->
      <defs>
       <path d="
M10.6875 12.4062
L21 12.4062
L21 0
L10.6875 0
z
" id="DejaVuSans-2e"/>
      </defs>
      <g transform="translate(27.5375 250.23984375)scale(0.1 -0.1)">
       <use xlink:href="#DejaVuSans-30"/>
       <use x="63.623046875" xlink:href="#DejaVuSans-2e"/>
       <use x="95.41015625" xlink:href="#DejaVuSans-30"/>
      </g>
     </g>
    </g>
    <g id="ytick_8">
     <g id="line2d_81">
      <g>
       <use style="stroke:#000000;stroke-linecap:butt;stroke-width:0.5;" x="46.1171875" xlink:href="#me8a85f7bf6" y="236.126315789"/>
      </g>
     </g>
     <g id="line2d_82">
      <g>
       <use style="stroke:#000000;stroke-linecap:butt;stroke-width:0.5;" x="401.94140625" xlink:href="#m1a32005dea" y="236.126315789"/>
      </g>
     </g>
     <g id="text_21">
      <!-- 0.5 -->
      <g transform="translate(27.746875 239.766159539)scale(0.1 -0.1)">
       <use xlink:href="#DejaVuSans-30"/>
       <use x="63.623046875" xlink:href="#DejaVuSans-2e"/>
       <use x="95.41015625" xlink:href="#DejaVuSans-35"/>
      </g>
     </g>
    </g>
    <g id="ytick_9">
     <g id="line2d_83">
      <g>
       <use style="stroke:#000000;stroke-linecap:butt;stroke-width:0.5;" x="46.1171875" xlink:href="#me8a85f7bf6" y="225.652631579"/>
      </g>
     </g>
     <g id="line2d_84">
      <g>
       <use style="stroke:#000000;stroke-linecap:butt;stroke-width:0.5;" x="401.94140625" xlink:href="#m1a32005dea" y="225.652631579"/>
      </g>
     </g>
     <g id="text_22">
      <!-- 1.0 -->
      <g transform="translate(27.9765625 229.292475329)scale(0.1 -0.1)">
       <use xlink:href="#DejaVuSans-31"/>
       <use x="63.623046875" xlink:href="#DejaVuSans-2e"/>
       <use x="95.41015625" xlink:href="#DejaVuSans-30"/>
      </g>
     </g>
    </g>
    <g id="ytick_10">
     <g id="line2d_85">
      <g>
       <use style="stroke:#000000;stroke-linecap:butt;stroke-width:0.5;" x="46.1171875" xlink:href="#me8a85f7bf6" y="215.178947368"/>
      </g>
     </g>
     <g id="line2d_86">
      <g>
       <use style="stroke:#000000;stroke-linecap:butt;stroke-width:0.5;" x="401.94140625" xlink:href="#m1a32005dea" y="215.178947368"/>
      </g>
     </g>
     <g id="text_23">
      <!-- 1.5 -->
      <g transform="translate(28.1859375 218.753166118)scale(0.1 -0.1)">
       <use xlink:href="#DejaVuSans-31"/>
       <use x="63.623046875" xlink:href="#DejaVuSans-2e"/>
       <use x="95.41015625" xlink:href="#DejaVuSans-35"/>
      </g>
     </g>
    </g>
    <g id="ytick_11">
     <g id="line2d_87">
      <g>
       <use style="stroke:#000000;stroke-linecap:butt;stroke-width:0.5;" x="46.1171875" xlink:href="#me8a85f7bf6" y="204.705263158"/>
      </g>
     </g>
     <g id="line2d_88">
      <g>
       <use style="stroke:#000000;stroke-linecap:butt;stroke-width:0.5;" x="401.94140625" xlink:href="#m1a32005dea" y="204.705263158"/>
      </g>
     </g>
     <g id="text_24">
      <!-- 2.0 -->
      <g transform="translate(27.6109375 208.345106908)scale(0.1 -0.1)">
       <use xlink:href="#DejaVuSans-32"/>
       <use x="63.623046875" xlink:href="#DejaVuSans-2e"/>
       <use x="95.41015625" xlink:href="#DejaVuSans-30"/>
      </g>
     </g>
    </g>
    <g id="ytick_12">
     <g id="line2d_89">
      <g>
       <use style="stroke:#000000;stroke-linecap:butt;stroke-width:0.5;" x="46.1171875" xlink:href="#me8a85f7bf6" y="194.231578947"/>
      </g>
     </g>
     <g id="line2d_90">
      <g>
       <use style="stroke:#000000;stroke-linecap:butt;stroke-width:0.5;" x="401.94140625" xlink:href="#m1a32005dea" y="194.231578947"/>
      </g>
     </g>
     <g id="text_25">
      <!-- 2.5 -->
      <g transform="translate(27.8203125 197.871422697)scale(0.1 -0.1)">
       <use xlink:href="#DejaVuSans-32"/>
       <use x="63.623046875" xlink:href="#DejaVuSans-2e"/>
       <use x="95.41015625" xlink:href="#DejaVuSans-35"/>
      </g>
     </g>
    </g>
    <g id="ytick_13">
     <g id="line2d_91">
      <g>
       <use style="stroke:#000000;stroke-linecap:butt;stroke-width:0.5;" x="46.1171875" xlink:href="#me8a85f7bf6" y="183.757894737"/>
      </g>
     </g>
     <g id="line2d_92">
      <g>
       <use style="stroke:#000000;stroke-linecap:butt;stroke-width:0.5;" x="401.94140625" xlink:href="#m1a32005dea" y="183.757894737"/>
      </g>
     </g>
     <g id="text_26">
      <!-- 3.0 -->
      <defs>
       <path d="
M40.5781 39.3125
Q47.6562 37.7969 51.625 33
Q55.6094 28.2188 55.6094 21.1875
Q55.6094 10.4062 48.1875 4.48438
Q40.7656 -1.42188 27.0938 -1.42188
Q22.5156 -1.42188 17.6562 -0.515625
Q12.7969 0.390625 7.625 2.20312
L7.625 11.7188
Q11.7188 9.32812 16.5938 8.10938
Q21.4844 6.89062 26.8125 6.89062
Q36.0781 6.89062 40.9375 10.5469
Q45.7969 14.2031 45.7969 21.1875
Q45.7969 27.6406 41.2812 31.2656
Q36.7656 34.9062 28.7188 34.9062
L20.2188 34.9062
L20.2188 43.0156
L29.1094 43.0156
Q36.375 43.0156 40.2344 45.9219
Q44.0938 48.8281 44.0938 54.2969
Q44.0938 59.9062 40.1094 62.9062
Q36.1406 65.9219 28.7188 65.9219
Q24.6562 65.9219 20.0156 65.0312
Q15.375 64.1562 9.8125 62.3125
L9.8125 71.0938
Q15.4375 72.6562 20.3438 73.4375
Q25.25 74.2188 29.5938 74.2188
Q40.8281 74.2188 47.3594 69.1094
Q53.9062 64.0156 53.9062 55.3281
Q53.9062 49.2656 50.4375 45.0938
Q46.9688 40.9219 40.5781 39.3125" id="DejaVuSans-33"/>
      </defs>
      <g transform="translate(27.640625 187.397738487)scale(0.1 -0.1)">
       <use xlink:href="#DejaVuSans-33"/>
       <use x="63.623046875" xlink:href="#DejaVuSans-2e"/>
       <use x="95.41015625" xlink:href="#DejaVuSans-30"/>
      </g>
     </g>
    </g>
    <g id="ytick_14">
     <g id="line2d_93">
      <g>
       <use style="stroke:#000000;stroke-linecap:butt;stroke-width:0.5;" x="46.1171875" xlink:href="#me8a85f7bf6" y="173.284210526"/>
      </g>
     </g>
     <g id="line2d_94">
      <g>
       <use style="stroke:#000000;stroke-linecap:butt;stroke-width:0.5;" x="401.94140625" xlink:href="#m1a32005dea" y="173.284210526"/>
      </g>
     </g>
     <g id="text_27">
      <!-- 3.5 -->
      <g transform="translate(27.85 176.924054276)scale(0.1 -0.1)">
       <use xlink:href="#DejaVuSans-33"/>
       <use x="63.623046875" xlink:href="#DejaVuSans-2e"/>
       <use x="95.41015625" xlink:href="#DejaVuSans-35"/>
      </g>
     </g>
    </g>
   </g>
   <g id="patch_8">
    <path d="
M46.1172 167
L401.941 167" style="fill:none;stroke:#000000;"/>
   </g>
   <g id="patch_9">
    <path d="
M401.941 246.6
L401.941 167" style="fill:none;stroke:#000000;"/>
   </g>
   <g id="patch_10">
    <path d="
M46.1172 246.6
L401.941 246.6" style="fill:none;stroke:#000000;"/>
   </g>
   <g id="patch_11">
    <path d="
M46.1172 246.6
L46.1172 167" style="fill:none;stroke:#000000;"/>
   </g>
   <g id="text_28">
    <!-- OLAP -->
    <defs>
     <path d="
M34.1875 63.1875
L20.7969 26.9062
L47.6094 26.9062
z

M28.6094 72.9062
L39.7969 72.9062
L67.5781 0
L57.3281 0
L50.6875 18.7031
L17.8281 18.7031
L11.1875 0
L0.78125 0
z
" id="DejaVuSans-41"/>
    </defs>
    <g transform="translate(208.646796875 162.0)scale(0.12 -0.12)">
     <use xlink:href="#DejaVuSans-4f"/>
     <use x="78.7109375" xlink:href="#DejaVuSans-4c"/>
     <use x="136.673828125" xlink:href="#DejaVuSans-41"/>
     <use x="205.08203125" xlink:href="#DejaVuSans-50"/>
    </g>
   </g>
  </g>
  <g id="text_29">
   <!-- 4 OLTP workers -->
   <defs>
    <path d="
M30.6094 48.3906
Q23.3906 48.3906 19.1875 42.75
Q14.9844 37.1094 14.9844 27.2969
Q14.9844 17.4844 19.1562 11.8438
Q23.3438 6.20312 30.6094 6.20312
Q37.7969 6.20312 41.9844 11.8594
Q46.1875 17.5312 46.1875 27.2969
Q46.1875 37.0156 41.9844 42.7031
Q37.7969 48.3906 30.6094 48.3906
M30.6094 56
Q42.3281 56 49.0156 48.375
Q55.7188 40.7656 55.7188 27.2969
Q55.7188 13.875 49.0156 6.21875
Q42.3281 -1.42188 30.6094 -1.42188
Q18.8438 -1.42188 12.1719 6.21875
Q5.51562 13.875 5.51562 27.2969
Q5.51562 40.7656 12.1719 48.375
Q18.8438 56 30.6094 56" id="DejaVuSans-6f"/>
    <path d="
M9.07812 75.9844
L18.1094 75.9844
L18.1094 31.1094
L44.9219 54.6875
L56.3906 54.6875
L27.3906 29.1094
L57.625 0
L45.9062 0
L18.1094 26.7031
L18.1094 0
L9.07812 0
z
" id="DejaVuSans-6b"/>
    <path id="DejaVuSans-20"/>
    <path d="
M37.7969 64.3125
L12.8906 25.3906
L37.7969 25.3906
z

M35.2031 72.9062
L47.6094 72.9062
L47.6094 25.3906
L58.0156 25.3906
L58.0156 17.1875
L47.6094 17.1875
L47.6094 0
L37.7969 0
L37.7969 17.1875
L4.89062 17.1875
L4.89062 26.7031
z
" id="DejaVuSans-34"/>
    <path d="
M4.20312 54.6875
L13.1875 54.6875
L24.4219 12.0156
L35.5938 54.6875
L46.1875 54.6875
L57.4219 12.0156
L68.6094 54.6875
L77.5938 54.6875
L63.2812 0
L52.6875 0
L40.9219 44.8281
L29.1094 0
L18.5 0
z
" id="DejaVuSans-77"/>
    <path d="
M44.2812 53.0781
L44.2812 44.5781
Q40.4844 46.5312 36.375 47.5
Q32.2812 48.4844 27.875 48.4844
Q21.1875 48.4844 17.8438 46.4375
Q14.5 44.3906 14.5 40.2812
Q14.5 37.1562 16.8906 35.375
Q19.2812 33.5938 26.5156 31.9844
L29.5938 31.2969
Q39.1562 29.25 43.1875 25.5156
Q47.2188 21.7812 47.2188 15.0938
Q47.2188 7.46875 41.1875 3.01562
Q35.1562 -1.42188 24.6094 -1.42188
Q20.2188 -1.42188 15.4531 -0.5625
Q10.6875 0.296875 5.42188 2
L5.42188 11.2812
Q10.4062 8.6875 15.2344 7.39062
Q20.0625 6.10938 24.8125 6.10938
Q31.1562 6.10938 34.5625 8.28125
Q37.9844 10.4531 37.9844 14.4062
Q37.9844 18.0625 35.5156 20.0156
Q33.0625 21.9688 24.7031 23.7812
L21.5781 24.5156
Q13.2344 26.2656 9.51562 29.9062
Q5.8125 33.5469 5.8125 39.8906
Q5.8125 47.6094 11.2812 51.7969
Q16.75 56 26.8125 56
Q31.7812 56 36.1719 55.2656
Q40.5781 54.5469 44.2812 53.0781" id="DejaVuSans-73"/>
    <path d="
M41.1094 46.2969
Q39.5938 47.1719 37.8125 47.5781
Q36.0312 48 33.8906 48
Q26.2656 48 22.1875 43.0469
Q18.1094 38.0938 18.1094 28.8125
L18.1094 0
L9.07812 0
L9.07812 54.6875
L18.1094 54.6875
L18.1094 46.1875
Q20.9531 51.1719 25.4844 53.5781
Q30.0312 56 36.5312 56
Q37.4531 56 38.5781 55.875
Q39.7031 55.7656 41.0625 55.5156
z
" id="DejaVuSans-72"/>
   </defs>
   <g transform="translate(178.1265625 13.3584375)scale(0.1 -0.1)">
    <use xlink:href="#DejaVuSans-34"/>
    <use x="63.623046875" xlink:href="#DejaVuSans-20"/>
    <use x="95.41015625" xlink:href="#DejaVuSans-4f"/>
    <use x="174.12109375" xlink:href="#DejaVuSans-4c"/>
    <use x="216.083984375" xlink:href="#DejaVuSans-54"/>
    <use x="277.16796875" xlink:href="#DejaVuSans-50"/>
    <use x="337.470703125" xlink:href="#DejaVuSans-20"/>
    <use x="369.2578125" xlink:href="#DejaVuSans-77"/>
    <use x="451.044921875" xlink:href="#DejaVuSans-6f"/>
    <use x="512.2265625" xlink:href="#DejaVuSans-72"/>
    <use x="553.33984375" xlink:href="#DejaVuSans-6b"/>
    <use x="607.625" xlink:href="#DejaVuSans-65"/>
    <use x="669.1484375" xlink:href="#DejaVuSans-72"/>
    <use x="710.26171875" xlink:href="#DejaVuSans-73"/>
   </g>
  </g>
 </g>
 <defs>
  <clipPath id="pe9bd9c4693">
   <rect height="79.6" width="355.82421875" x="46.1171875" y="167.0"/>
  </clipPath>
  <clipPath id="paafe9ad165">
   <rect height="79.6" width="355.82421875" x="46.1171875" y="32.0"/>
  </clipPath>
 </defs>
</svg>
