<?xml version="1.0" encoding="utf-8" standalone="no"?>
<!DOCTYPE svg PUBLIC "-//W3C//DTD SVG 1.1//EN"
  "http://www.w3.org/Graphics/SVG/1.1/DTD/svg11.dtd">
<!-- Created with matplotlib (http://matplotlib.sourceforge.net/) -->
<svg height="288pt" version="1.1" viewBox="0 0 432 288" width="432pt" xmlns="http://www.w3.org/2000/svg" xmlns:xlink="http://www.w3.org/1999/xlink">
 <defs>
  <style type="text/css">
*{stroke-linecap:square;stroke-linejoin:round;}
  </style>
 </defs>
 <g id="figure_1">
  <g id="patch_1">
   <path d="
M0 288
L432 288
L432 0
L0 0
z
" style="fill:#ffffff;"/>
  </g>
  <g id="axes_1">
   <g id="patch_2">
    <path d="
M46.1172 111.6
L401.941 111.6
L401.941 32
L46.1172 32
z
" style="fill:#ffffff;"/>
   </g>
   <g id="line2d_1">
    <path clip-path="url(#paafe9ad165)" d="
M56.7922 111.6
L56.7922 32" style="fill:none;stroke:#00ffff;stroke-dasharray:6.000000,6.000000;stroke-dashoffset:0.0;stroke-linecap:butt;"/>
   </g>
   <g id="line2d_2">
    <path clip-path="url(#paafe9ad165)" d="
M78.1419 111.6
L78.1419 32" style="fill:none;stroke:#00ffff;stroke-dasharray:6.000000,6.000000;stroke-dashoffset:0.0;stroke-linecap:butt;"/>
   </g>
   <g id="line2d_3">
    <path clip-path="url(#paafe9ad165)" d="
M78.1419 111.6
L78.1419 32" style="fill:none;stroke:#00ffff;stroke-dasharray:6.000000,6.000000;stroke-dashoffset:0.0;stroke-linecap:butt;"/>
   </g>
   <g id="line2d_4">
    <path clip-path="url(#paafe9ad165)" d="
M78.1423 111.6
L78.1423 32" style="fill:none;stroke:#00ffff;stroke-dasharray:6.000000,6.000000;stroke-dashoffset:0.0;stroke-linecap:butt;"/>
   </g>
   <g id="line2d_5">
    <path clip-path="url(#paafe9ad165)" d="
M99.4914 111.6
L99.4914 32" style="fill:none;stroke:#00ffff;stroke-dasharray:6.000000,6.000000;stroke-dashoffset:0.0;stroke-linecap:butt;"/>
   </g>
   <g id="line2d_6">
    <path clip-path="url(#paafe9ad165)" d="
M99.4917 111.6
L99.4917 32" style="fill:none;stroke:#00ffff;stroke-dasharray:6.000000,6.000000;stroke-dashoffset:0.0;stroke-linecap:butt;"/>
   </g>
   <g id="line2d_7">
    <path clip-path="url(#paafe9ad165)" d="
M120.84 111.6
L120.84 32" style="fill:none;stroke:#00ffff;stroke-dasharray:6.000000,6.000000;stroke-dashoffset:0.0;stroke-linecap:butt;"/>
   </g>
   <g id="line2d_8">
    <path clip-path="url(#paafe9ad165)" d="
M142.19 111.6
L142.19 32" style="fill:none;stroke:#00ffff;stroke-dasharray:6.000000,6.000000;stroke-dashoffset:0.0;stroke-linecap:butt;"/>
   </g>
   <g id="line2d_9">
    <path clip-path="url(#paafe9ad165)" d="
M163.54 111.6
L163.54 32" style="fill:none;stroke:#00ffff;stroke-dasharray:6.000000,6.000000;stroke-dashoffset:0.0;stroke-linecap:butt;"/>
   </g>
   <g id="line2d_10">
    <path clip-path="url(#paafe9ad165)" d="
M184.889 111.6
L184.889 32" style="fill:none;stroke:#00ffff;stroke-dasharray:6.000000,6.000000;stroke-dashoffset:0.0;stroke-linecap:butt;"/>
   </g>
   <g id="line2d_11">
    <path clip-path="url(#paafe9ad165)" d="
M206.238 111.6
L206.238 32" style="fill:none;stroke:#00ffff;stroke-dasharray:6.000000,6.000000;stroke-dashoffset:0.0;stroke-linecap:butt;"/>
   </g>
   <g id="line2d_12">
    <path clip-path="url(#paafe9ad165)" d="
M206.239 111.6
L206.239 32" style="fill:none;stroke:#00ffff;stroke-dasharray:6.000000,6.000000;stroke-dashoffset:0.0;stroke-linecap:butt;"/>
   </g>
   <g id="line2d_13">
    <path clip-path="url(#paafe9ad165)" d="
M227.588 111.6
L227.588 32" style="fill:none;stroke:#00ffff;stroke-dasharray:6.000000,6.000000;stroke-dashoffset:0.0;stroke-linecap:butt;"/>
   </g>
   <g id="line2d_14">
    <path clip-path="url(#paafe9ad165)" d="
M248.938 111.6
L248.938 32" style="fill:none;stroke:#00ffff;stroke-dasharray:6.000000,6.000000;stroke-dashoffset:0.0;stroke-linecap:butt;"/>
   </g>
   <g id="line2d_15">
    <path clip-path="url(#paafe9ad165)" d="
M270.287 111.6
L270.287 32" style="fill:none;stroke:#00ffff;stroke-dasharray:6.000000,6.000000;stroke-dashoffset:0.0;stroke-linecap:butt;"/>
   </g>
   <g id="line2d_16">
    <path clip-path="url(#paafe9ad165)" d="
M291.636 111.6
L291.636 32" style="fill:none;stroke:#00ffff;stroke-dasharray:6.000000,6.000000;stroke-dashoffset:0.0;stroke-linecap:butt;"/>
   </g>
   <g id="line2d_17">
    <path clip-path="url(#paafe9ad165)" d="
M313.521 111.6
L313.521 32" style="fill:none;stroke:#00ffff;stroke-dasharray:6.000000,6.000000;stroke-dashoffset:0.0;stroke-linecap:butt;"/>
   </g>
   <g id="line2d_18">
    <path clip-path="url(#paafe9ad165)" d="
M334.335 111.6
L334.335 32" style="fill:none;stroke:#00ffff;stroke-dasharray:6.000000,6.000000;stroke-dashoffset:0.0;stroke-linecap:butt;"/>
   </g>
   <g id="line2d_19">
    <path clip-path="url(#paafe9ad165)" d="
M355.69 111.6
L355.69 32" style="fill:none;stroke:#00ffff;stroke-dasharray:6.000000,6.000000;stroke-dashoffset:0.0;stroke-linecap:butt;"/>
   </g>
   <g id="line2d_20">
    <path clip-path="url(#paafe9ad165)" d="
M377.034 111.6
L377.034 32" style="fill:none;stroke:#00ffff;stroke-dasharray:6.000000,6.000000;stroke-dashoffset:0.0;stroke-linecap:butt;"/>
   </g>
   <g id="line2d_21">
    <path clip-path="url(#paafe9ad165)" d="
M46.1172 62.1612
L46.1172 48.9717
L46.7043 48.9717
L46.7043 46.8394
L47.2914 46.8394
L47.2914 45.9517
L47.8785 45.9517
L47.8785 46.5789
L48.4656 46.5789
L48.4656 45.9131
L49.0527 45.9131
L49.0527 46.1736
L49.6398 46.1736
L49.6398 46.3377
L50.227 46.3377
L50.227 46.0096
L50.8141 46.0096
L50.8141 44.6395
L51.4012 44.6395
L51.4012 44.9386
L51.9883 44.9386
L51.9883 47.7656
L52.5754 47.7656
L52.5754 46.4149
L53.1625 46.4149
L53.1625 45.0062
L53.7496 45.0062
L53.7496 46.4535
L54.3367 46.4535
L54.3367 45.9421
L54.9238 45.9421
L54.9238 48.0358
L55.511 48.0358
L55.511 47.7946
L56.0981 47.7946
L56.0981 69.9765
L56.6852 69.9765
L56.6852 42.7677
L57.2723 42.7677
L57.2723 39.4776
L57.8594 39.4776
L57.8594 36.4094
L58.4465 36.4094
L58.4465 34.0166
L59.0336 34.0166
L59.0336 33.8429
L59.6207 33.8429
L59.6207 35.4831
L60.2078 35.4831
L60.2078 33.3508
L60.7949 33.3508
L60.7949 33.9683
L61.3821 33.9683
L61.3821 33.1
L61.9692 33.1
L61.9692 36.6216
L62.5563 36.6216
L62.5563 36.7857
L63.1434 36.7857
L63.1434 39.0048
L63.7305 39.0048
L63.7305 32.5886
L64.3176 32.5886
L64.3176 32.9359
L64.9047 32.9359
L64.9047 31.672
L65.4918 31.672
L65.4918 34.3157
L66.0789 34.3157
L66.0789 36.6892
L66.666 36.6892
L66.666 38.2715
L67.2532 38.2715
L67.2532 36.6795
L67.8403 36.6795
L67.8403 38.4549
L68.4274 38.4549
L68.4274 38.1944
L69.0145 38.1944
L69.0145 35.1068
L69.6016 35.1068
L69.6016 39.3522
L70.1887 39.3522
L70.1887 36.5348
L70.7758 36.5348
L70.7758 37.6733
L71.3629 37.6733
L71.3629 36.2454
L71.95 36.2454
L71.95 49.6664
L72.5371 49.6664
L72.5371 35.9752
L73.1243 35.9752
L73.1243 36.1489
L73.7114 36.1489
L73.7114 41.1082
L74.2985 41.1082
L74.2985 34.7016
L74.8856 34.7016
L74.8856 37.7312
L75.4727 37.7312
L75.4727 34.9525
L76.0598 34.9525
L76.0598 33.9683
L76.6469 33.9683
L76.6469 34.8849
L77.234 34.8849
L77.234 55.4362
L77.8211 55.4362
L77.8211 49.3191
L78.4082 49.3191
L78.4082 34.7016
L78.9954 34.7016
L78.9954 47.563
L79.5825 47.563
L79.5825 59.9131
L80.1696 59.9131
L80.1696 63.0778
L80.7567 63.0778
L80.7567 61.6691
L81.3438 61.6691
L81.3438 61.5533
L81.9309 61.5533
L81.9309 58.7649
L82.518 58.7649
L82.518 60.463
L83.1051 60.463
L83.1051 60.0964
L83.6922 60.0964
L83.6922 60.9358
L84.2793 60.9358
L84.2793 60.3183
L84.8665 60.3183
L84.8665 64.0137
L85.4536 64.0137
L85.4536 62.5375
L86.0407 62.5375
L86.0407 47.9104
L86.6278 47.9104
L86.6278 42.3336
L87.802 42.3143
L87.802 44.2247
L88.3891 44.2247
L88.3891 47.3604
L88.9762 47.3604
L88.9762 44.8132
L89.5633 44.8132
L89.5633 45.5658
L90.7376 45.5079
L90.7376 45.7009
L91.3247 45.7009
L91.3247 44.9579
L91.9118 44.9579
L91.9118 48.5954
L92.4989 48.5954
L92.4989 54.6643
L93.086 54.6643
L93.086 56.9414
L93.6731 56.9414
L93.6731 37.6444
L94.2602 37.6444
L94.2602 41.6968
L94.8473 41.6968
L94.8473 40.1723
L95.4344 40.1723
L95.4344 39.1978
L96.0216 39.1978
L96.0216 43.5396
L96.6087 43.5396
L96.6087 39.7574
L97.1958 39.7574
L97.1958 41.9283
L97.7829 41.9283
L97.7829 42.6037
L98.37 42.6037
L98.37 48.8077
L98.9571 48.8077
L98.9571 72.0509
L99.5442 72.0509
L99.5442 52.6188
L100.131 52.6188
L100.131 51.8663
L100.718 51.8663
L100.718 45.7684
L101.306 45.7684
L101.306 50.0234
L101.893 50.0234
L101.893 62.4313
L102.48 62.4313
L102.48 54.5968
L103.067 54.5968
L103.067 49.2129
L103.654 49.2129
L103.654 49.3962
L104.241 49.3962
L104.241 49.7918
L104.828 49.7918
L104.828 47.5823
L105.415 47.5823
L105.415 47.3508
L106.002 47.3508
L106.002 54.4231
L106.59 54.4231
L106.59 66.8889
L107.177 66.8889
L107.177 65.5767
L107.764 65.5767
L107.764 68.095
L108.351 68.095
L108.351 69.7159
L108.938 69.7159
L108.938 73.749
L109.525 73.749
L109.525 69.5905
L110.112 69.5905
L110.112 49.5699
L110.699 49.5699
L110.699 50.1392
L111.286 50.1392
L111.286 67.0047
L111.874 67.0047
L111.874 55.8993
L112.461 55.8993
L112.461 53.9021
L113.048 53.9021
L113.048 52.1943
L113.635 52.1943
L113.635 51.847
L114.222 51.847
L114.222 48.5279
L114.809 48.5279
L114.809 44.8711
L115.396 44.8711
L115.396 72.6298
L115.983 72.6298
L115.983 48.4893
L116.57 48.4893
L116.57 54.0179
L117.158 54.0179
L117.158 52.86
L117.745 52.86
L117.745 47.5534
L118.332 47.5534
L118.332 51.3742
L118.919 51.3742
L118.919 56.1309
L119.506 56.1309
L119.506 53.9021
L120.093 53.9021
L120.093 74.4823
L120.68 74.4823
L120.68 69.7352
L121.267 69.7352
L121.267 68.288
L121.854 68.288
L121.854 64.8435
L122.442 64.8435
L122.442 63.3479
L123.029 63.3479
L123.029 69.3686
L123.616 69.3686
L123.616 79.4223
L124.203 79.4223
L124.203 67.4389
L124.79 67.4389
L124.79 68.2301
L125.377 68.2301
L125.377 51.4128
L125.964 51.4128
L125.964 56.6133
L126.551 56.6133
L126.551 57.4817
L127.138 57.4817
L127.138 61.9682
L127.725 61.9682
L127.725 65.596
L128.313 65.596
L128.313 67.6222
L128.9 67.6222
L128.9 68.809
L129.487 68.809
L129.487 65.6925
L130.074 65.6925
L130.074 59.3631
L130.661 59.3631
L130.661 58.4851
L131.248 58.4851
L131.248 82.973
L131.835 82.973
L131.835 61.1867
L132.422 61.1867
L132.422 65.9434
L133.009 65.9434
L133.009 65.8276
L133.597 65.8276
L133.597 68.2204
L134.184 68.2204
L134.184 65.5864
L134.771 65.5864
L134.771 65.2873
L135.358 65.2873
L135.358 68.1625
L135.945 68.1625
L135.945 55.4362
L136.532 55.4362
L136.532 53.3135
L137.119 53.3135
L137.119 56.5554
L137.706 56.5554
L137.706 57.3852
L138.293 57.3852
L138.293 58.6684
L138.881 58.6684
L138.881 64.747
L139.468 64.747
L139.468 56.4493
L140.055 56.4493
L140.055 51.7794
L140.642 51.7794
L140.642 51.49
L141.229 51.49
L141.229 64.9496
L141.816 64.9496
L141.816 60.3569
L142.403 60.3569
L142.403 55.6485
L142.99 55.6485
L142.99 57.9255
L143.577 57.9255
L143.577 58.2342
L144.165 58.2342
L144.165 60.3183
L144.752 60.3183
L144.752 63.4155
L145.339 63.4155
L145.339 68.4423
L145.926 68.4423
L145.926 63.4444
L146.513 63.4444
L146.513 69.0984
L147.1 69.0984
L147.1 69.6677
L147.687 69.6677
L147.687 66.8696
L148.274 66.8696
L148.274 74.3762
L148.861 74.3762
L148.861 76.8462
L149.449 76.8462
L149.449 77.3865
L150.036 77.3865
L150.036 69.7256
L150.623 69.7256
L150.623 62.0261
L151.21 62.0261
L151.21 61.6595
L151.797 61.6595
L151.797 53.7477
L152.384 53.7477
L152.384 59.6333
L152.971 59.6333
L152.971 60.5306
L153.558 60.5306
L153.558 62.3927
L154.145 62.3927
L154.145 67.0047
L154.733 67.0047
L154.733 65.9241
L155.32 65.9241
L155.32 62.1805
L155.907 62.1805
L155.907 69.7449
L156.494 69.7449
L156.494 76.3734
L157.081 76.3734
L157.081 69.8317
L157.668 69.8317
L157.668 70.0922
L158.255 70.0922
L158.255 72.3403
L158.842 72.3403
L158.842 75.1577
L159.429 75.1577
L159.429 75.2928
L160.017 75.2928
L160.017 60.5499
L160.604 60.5499
L160.604 54.3459
L161.191 54.3459
L161.191 57.8194
L161.778 57.8194
L161.778 61.9875
L162.365 61.9875
L162.365 65.3452
L162.952 65.3452
L162.952 76.7207
L163.539 76.7207
L163.539 72.5912
L164.126 72.5912
L164.126 70.1115
L164.713 70.1115
L164.713 73.6525
L165.301 73.6525
L165.301 75.0419
L165.888 75.0419
L165.888 75.7945
L166.475 75.7945
L166.475 78.1101
L167.062 78.1101
L167.062 78.9785
L167.649 78.9785
L167.649 72.35
L168.236 72.35
L168.236 63.9654
L168.823 63.9654
L168.823 67.1784
L169.41 67.1784
L169.41 70.6615
L169.997 70.6615
L169.997 73.9806
L170.585 73.9806
L170.585 74.9261
L171.172 74.9261
L171.172 69.9765
L171.759 69.9765
L171.759 70.3913
L172.346 70.3913
L172.346 74.434
L172.933 74.434
L172.933 76.3734
L173.52 76.3734
L173.52 81.2459
L174.107 81.2459
L174.107 79.5284
L174.694 79.5284
L174.694 80.4643
L175.281 80.4643
L175.281 84.6035
L175.869 84.6035
L175.869 84.0922
L176.456 84.0922
L176.456 82.3265
L177.043 82.3265
L177.043 86.3692
L177.63 86.3692
L177.63 88.3568
L178.217 88.3568
L178.217 83.4361
L178.804 83.4361
L178.804 84.5553
L179.391 84.5553
L179.391 81.1783
L179.978 81.1783
L179.978 79.8372
L180.565 79.8372
L180.565 83.5422
L181.153 83.5422
L181.153 81.0626
L181.74 81.0626
L181.74 79.2583
L182.327 79.2583
L182.327 78.1391
L182.914 78.1391
L182.914 80.4258
L183.501 80.4258
L183.501 78.9785
L184.088 78.9785
L184.088 88.6463
L184.675 88.6463
L184.675 79.3741
L185.262 79.3741
L185.262 85.0088
L185.849 85.0088
L185.849 83.1659
L186.437 83.1659
L186.437 95.0336
L187.024 95.0336
L187.024 97.1369
L187.611 97.1369
L187.611 83.6194
L188.198 83.6194
L188.198 85.443
L188.785 85.443
L188.785 89.6401
L189.372 89.6401
L189.372 80.2231
L189.959 80.2231
L189.959 84.8158
L190.546 84.8158
L190.546 82.1721
L191.133 82.1721
L191.133 85.3272
L191.721 85.3272
L191.721 87.0736
L192.308 87.0736
L192.308 85.935
L192.895 85.935
L192.895 86.1955
L193.482 86.1955
L193.482 80.7635
L194.069 80.7635
L194.069 83.8799
L194.656 83.8799
L194.656 88.1252
L195.243 88.1252
L195.243 84.3141
L195.83 84.3141
L195.83 81.7669
L196.417 81.7669
L196.417 83.5422
L197.004 83.5422
L197.004 84.2755
L197.592 84.2755
L197.592 89.1383
L198.179 89.1383
L198.179 85.9543
L198.766 85.9543
L198.766 79.7504
L199.353 79.7504
L199.353 68.3266
L199.94 68.3266
L199.94 65.8662
L200.527 65.8662
L200.527 72.8035
L201.114 72.8035
L201.114 65.5767
L201.701 65.5767
L201.701 98.9701
L202.288 98.9701
L202.288 71.9544
L202.876 71.9544
L202.876 77.2321
L203.463 77.2321
L203.463 75.6208
L204.05 75.6208
L204.05 75.8331
L204.637 75.8331
L204.637 73.7683
L205.224 73.7683
L205.224 85.1632
L205.811 85.1632
L205.811 88.1252
L206.398 88.1252
L206.398 81.5932
L206.985 81.5932
L206.985 85.1439
L207.572 85.1439
L207.572 89.1576
L208.16 89.1576
L208.16 92.0522
L208.747 92.0522
L208.747 90.8172
L209.334 90.8172
L209.334 93.7214
L209.921 93.7214
L209.921 90.6146
L210.508 90.6146
L210.508 88.4919
L211.095 88.4919
L211.095 90.7689
L211.682 90.7689
L211.682 85.1053
L212.269 85.1053
L212.269 89.2348
L212.856 89.2348
L212.856 87.3823
L213.444 87.3823
L213.444 91.6952
L214.031 91.6952
L214.031 90.5084
L214.618 90.5084
L214.618 90.7207
L215.205 90.7207
L215.205 85.5105
L215.792 85.5105
L215.792 87.6718
L216.379 87.6718
L216.379 88.4436
L216.966 88.4436
L216.966 88.077
L217.553 88.077
L217.553 89.3892
L218.14 89.3892
L218.14 91.7434
L218.728 91.7434
L218.728 92.0908
L219.315 92.0908
L219.315 91.7627
L219.902 91.7627
L219.902 93.3451
L220.489 93.3451
L220.489 89.3699
L221.076 89.3699
L221.076 86.6104
L221.663 86.6104
L221.663 93.3933
L222.25 93.3933
L222.25 85.6938
L222.837 85.6938
L222.837 83.1852
L223.424 83.1852
L223.424 85.5105
L224.012 85.5105
L224.012 87.2376
L224.599 87.2376
L224.599 84.372
L225.186 84.372
L225.186 83.8413
L225.773 83.8413
L225.773 82.2783
L226.36 82.2783
L226.36 85.4237
L226.947 85.4237
L226.947 87.3244
L227.534 87.3244
L227.534 86.9674
L228.121 86.9674
L228.121 85.7807
L228.708 85.7807
L228.708 85.443
L229.296 85.443
L229.296 85.8386
L229.883 85.8386
L229.883 87.9998
L230.47 87.9998
L230.47 84.9702
L231.057 84.9702
L231.057 82.6739
L231.644 82.6739
L231.644 85.2403
L232.231 85.2403
L232.231 83.3492
L233.405 83.3782
L233.405 84.6614
L233.992 84.6614
L233.992 86.8227
L234.58 86.8227
L234.58 89.2059
L235.167 89.2059
L235.167 91.068
L235.754 91.068
L235.754 88.9454
L236.341 88.9454
L236.341 88.7331
L236.928 88.7331
L236.928 69.9089
L237.515 69.9089
L237.515 71.9254
L238.102 71.9254
L238.102 69.8317
L238.689 69.8317
L238.689 69.5809
L239.276 69.5809
L239.276 74.9068
L239.864 74.9068
L239.864 73.9034
L240.451 73.9034
L240.451 76.412
L241.038 76.412
L241.038 105.078
L241.625 105.078
L241.625 84.4395
L242.212 84.4395
L242.212 80.5898
L242.799 80.5898
L242.799 79.1232
L243.386 79.1232
L243.386 84.4202
L243.973 84.4202
L243.973 84.7386
L244.56 84.7386
L244.56 86.0412
L245.148 86.0412
L245.148 84.0536
L245.735 84.0536
L245.735 84.372
L246.322 84.372
L246.322 84.1308
L246.909 84.1308
L246.909 89.0901
L247.496 89.0901
L247.496 85.9447
L248.083 85.9447
L248.083 87.7779
L248.67 87.7779
L248.67 90.6821
L249.257 90.6821
L249.257 93.0267
L249.844 93.0267
L249.844 91.0391
L250.432 91.0391
L250.432 89.4664
L251.019 89.4664
L251.019 91.261
L251.606 91.261
L251.606 91.7627
L252.193 91.7627
L252.193 91.9943
L252.78 91.9943
L252.78 90.3154
L253.367 90.3154
L253.367 90.6049
L253.954 90.6049
L253.954 88.27
L255.128 88.2893
L255.128 87.9998
L255.716 87.9998
L255.716 90.4119
L256.303 90.4119
L256.303 88.6752
L256.89 88.6752
L256.89 88.2796
L257.477 88.2796
L257.477 90.4698
L258.064 90.4698
L258.064 86.0026
L258.651 86.0026
L258.651 90.1707
L259.238 90.1707
L259.238 86.3306
L259.825 86.3306
L259.825 89.997
L260.412 89.997
L260.412 91.6373
L261 91.6373
L261 88.077
L261.587 88.077
L261.587 88.4533
L262.174 88.4533
L262.174 90.1032
L262.761 90.1032
L262.761 88.8585
L263.348 88.8585
L263.348 89.476
L263.935 89.476
L263.935 92.0232
L264.522 92.0232
L264.522 81.0529
L265.109 81.0529
L265.109 80.474
L265.696 80.474
L265.696 81.0529
L266.283 81.0529
L266.283 83.9764
L266.871 83.9764
L266.871 84.179
L267.458 84.179
L267.458 84.6807
L268.045 84.6807
L268.045 85.5684
L268.632 85.5684
L268.632 86.8999
L269.219 86.8999
L269.219 88.4051
L269.806 88.4051
L269.806 90.8654
L270.393 90.8654
L270.393 90.0935
L270.98 90.0935
L270.98 90.7593
L271.567 90.7593
L271.567 90.8751
L272.155 90.8751
L272.155 89.2831
L272.742 89.2831
L272.742 91.1163
L273.329 91.1163
L273.329 89.2155
L273.916 89.2155
L273.916 84.3913
L274.503 84.3913
L274.503 85.935
L275.09 85.935
L275.09 82.1142
L275.677 82.1142
L275.677 88.8199
L276.264 88.8199
L276.264 111.6
L276.851 111.6
L276.851 85.2596
L277.439 85.2596
L277.439 85.5877
L278.026 85.5877
L278.026 88.5015
L278.613 88.5015
L278.613 85.1921
L279.2 85.1921
L279.2 89.119
L279.787 89.119
L279.787 88.1059
L280.374 88.1059
L280.374 88.8682
L280.961 88.8682
L280.961 93.0074
L281.548 93.0074
L281.548 90.904
L282.135 90.904
L282.135 91.2803
L282.723 91.2803
L282.723 93.1618
L283.31 93.1618
L283.31 89.8523
L284.484 89.9585
L284.484 91.0777
L285.071 91.0777
L285.071 91.9653
L285.658 91.9653
L285.658 90.8558
L286.245 90.8558
L286.245 84.1501
L286.832 84.1501
L286.832 83.465
L287.419 83.465
L287.419 83.0115
L288.007 83.0115
L288.007 83.9475
L288.594 83.9475
L288.594 87.6428
L289.181 87.6428
L289.181 88.7427
L289.768 88.7427
L289.768 91.8013
L290.355 91.8013
L290.355 85.1342
L290.942 85.1342
L290.942 88.3375
L291.529 88.3375
L291.529 94.1362
L292.116 94.1362
L292.116 89.0033
L292.703 89.0033
L292.703 86.2148
L293.291 86.2148
L293.291 90.0356
L293.878 90.0356
L293.878 92.8144
L294.465 92.8144
L294.465 88.2507
L295.052 88.2507
L295.052 90.5277
L295.639 90.5277
L295.639 92.0039
L296.226 92.0039
L296.226 90.9715
L296.813 90.9715
L296.813 93.5187
L297.4 93.5187
L297.4 93.7696
L297.987 93.7696
L297.987 89.8041
L298.575 89.8041
L298.575 90.3154
L299.162 90.3154
L299.162 110.182
L299.749 110.182
L299.749 87.2376
L300.336 87.2376
L300.336 91.6469
L300.923 91.6469
L300.923 88.9454
L301.51 88.9454
L301.51 90.3444
L302.097 90.3444
L302.097 91.8785
L303.271 91.9074
L303.271 90.9715
L303.859 90.9715
L303.859 91.454
L304.446 91.454
L304.446 88.4629
L305.033 88.4629
L305.033 91.6759
L305.62 91.6759
L305.62 93.8082
L306.207 93.8082
L306.207 94.0012
L306.794 94.0012
L306.794 88.8103
L307.381 88.8103
L307.381 95.0529
L307.968 95.0529
L307.968 90.9812
L308.555 90.9812
L308.555 90.7593
L309.143 90.7593
L309.143 94.4643
L309.73 94.4643
L309.73 93.9433
L310.317 93.9433
L310.317 93.2968
L310.904 93.2968
L310.904 91.0294
L311.491 91.0294
L311.491 88.0288
L312.078 88.0288
L312.078 110.124
L312.665 110.124
L312.665 104.132
L313.252 104.132
L313.252 91.1742
L313.839 91.1742
L313.839 88.984
L314.427 88.984
L314.427 86.4368
L315.014 86.4368
L315.014 86.5718
L315.601 86.5718
L315.601 90.5663
L316.188 90.5663
L316.188 88.6366
L316.775 88.6366
L316.775 88.9357
L317.362 88.9357
L317.362 88.1156
L317.949 88.1156
L317.949 89.6208
L318.536 89.6208
L318.536 88.598
L319.123 88.598
L319.123 90.74
L319.711 90.74
L319.711 91.4154
L320.298 91.4154
L320.298 90.3154
L320.885 90.3154
L320.885 92.0811
L321.472 92.0811
L321.472 99.414
L322.059 99.414
L322.059 100.852
L322.646 100.852
L322.646 98.8447
L323.233 98.8447
L323.233 97.6483
L323.82 97.6483
L323.82 90.7496
L324.407 90.7496
L324.407 82.5098
L324.995 82.5098
L324.995 85.4719
L325.582 85.4719
L325.582 83.494
L326.169 83.494
L326.169 86.5043
L326.756 86.5043
L326.756 92.5635
L327.343 92.5635
L327.343 87.2086
L327.93 87.2086
L327.93 87.6139
L328.517 87.6139
L328.517 90.7496
L329.104 90.7496
L329.104 92.1873
L329.691 92.1873
L329.691 88.2217
L330.279 88.2217
L330.279 88.7524
L330.866 88.7524
L330.866 87.9709
L331.453 87.9709
L331.453 87.1797
L332.04 87.1797
L332.04 91.1356
L332.627 91.1356
L332.627 90.576
L333.214 90.576
L333.214 94.4354
L333.801 94.4354
L333.801 92.1776
L334.388 92.1776
L334.388 94.8406
L334.975 94.8406
L334.975 92.8434
L335.562 92.8434
L335.562 93.21
L336.15 93.21
L336.15 92.5057
L336.737 92.5057
L336.737 89.9392
L337.324 89.9392
L337.324 91.1066
L337.911 91.1066
L337.911 87.1507
L338.498 87.1507
L338.498 93.6056
L339.085 93.6056
L339.085 98.4298
L339.672 98.4298
L339.672 90.3058
L340.259 90.3058
L340.259 93.7986
L342.021 93.7407
L342.021 91.1645
L342.608 91.1645
L342.608 91.9557
L343.195 91.9557
L343.195 92.0908
L343.782 92.0908
L343.782 93.374
L344.369 93.374
L344.369 95.2651
L344.956 95.2651
L344.956 95.4581
L345.543 95.4581
L345.543 93.7793
L346.13 93.7793
L346.13 93.374
L346.718 93.374
L346.718 91.0487
L347.305 91.0487
L347.305 95.844
L347.892 95.844
L347.892 95.4291
L348.479 95.4291
L348.479 94.252
L349.066 94.252
L349.066 96.3265
L349.653 96.3265
L349.653 93.0363
L350.24 93.0363
L350.24 108.773
L350.827 108.773
L350.827 103.804
L351.414 103.804
L351.414 111.6
L352.002 111.6
L352.002 108.223
L352.589 108.223
L352.589 89.3602
L353.176 89.3602
L353.176 88.4243
L353.763 88.4243
L353.763 92.7565
L354.35 92.7565
L354.35 90.4602
L354.937 90.4602
L354.937 93.0653
L355.524 93.0653
L355.524 90.0935
L356.111 90.0935
L356.111 96.8282
L356.698 96.8282
L356.698 88.8778
L357.286 88.8778
L357.286 90.6435
L357.873 90.6435
L357.873 88.6077
L358.46 88.6077
L358.46 91.1259
L359.047 91.1259
L359.047 90.4988
L359.634 90.4988
L359.634 91.1452
L360.221 91.1452
L360.221 91.6276
L360.808 91.6276
L360.808 93.4126
L361.395 93.4126
L361.395 90.4119
L361.982 90.4119
L361.982 86.9192
L363.157 86.8613
L363.157 87.5367
L363.744 87.5367
L363.744 92.4381
L364.331 92.4381
L364.331 89.4664
L364.918 89.4664
L364.918 90.2769
L365.505 90.2769
L365.505 89.1769
L366.092 89.1769
L366.092 88.7138
L367.266 88.7813
L367.266 89.8041
L367.854 89.8041
L367.854 91.8785
L369.028 91.811
L369.028 92.3223
L369.615 92.3223
L369.615 88.5787
L370.202 88.5787
L370.202 90.8461
L370.789 90.8461
L370.789 92.496
L371.376 92.496
L371.376 93.4705
L371.963 93.4705
L371.963 94.0977
L372.55 94.0977
L372.55 94.8213
L373.138 94.8213
L373.138 95.2748
L373.725 95.2748
L373.725 93.8757
L374.899 93.9722
L374.899 95.7861
L375.486 95.7861
L375.486 85.1246
L376.073 85.1246
L376.073 86.3403
L376.66 86.3403
L376.66 83.8606
L377.247 83.8606
L377.247 108.3
L377.834 108.3
L377.834 104.007
L378.422 104.007
L378.422 84.6904
L379.009 84.6904
L379.009 85.8193
L379.596 85.8193
L379.596 84.6228
L380.183 84.6228
L380.183 83.5905
L381.357 83.6869
L381.357 86.6104
L381.944 86.6104
L381.944 91.1742
L382.531 91.1742
L382.531 91.8592
L383.118 91.8592
L383.118 92.8434
L383.706 92.8434
L383.706 88.8103
L384.293 88.8103
L384.293 87.4499
L384.88 87.4499
L384.88 91.811
L385.467 91.811
L385.467 92.525
L386.054 92.525
L386.054 91.6083
L386.641 91.6083
L386.641 93.5573
L387.228 93.5573
L387.228 94.0591
L387.815 94.0591
L387.815 93.8468
L388.402 93.8468
L388.402 92.9881
L388.99 92.9881
L388.99 92.6504
L389.577 92.6504
L389.577 105.743
L390.164 105.743
L390.164 95.0914
L390.751 95.0914
L390.751 93.7117
L391.338 93.7117
L391.338 93.5284
L391.925 93.5284
L391.925 92.8723
L392.512 92.8723
L392.512 93.2389
L393.099 93.2389
L393.099 95.1011
L393.686 95.1011
L393.686 95.8054
L394.274 95.8054
L394.274 96.0466
L394.861 96.0466
L394.861 94.9757
L395.448 94.9757
L395.448 96.3265
L396.035 96.3265
L396.035 96.5001
L396.622 96.5001
L396.622 96.0466
L397.209 96.0466
L397.209 95.1397
L397.796 95.1397
L397.796 95.1397" style="fill:none;stroke:#0000ff;"/>
   </g>
   <g id="matplotlib.axis_1">
    <g id="xtick_1">
     <g id="line2d_22">
      <defs>
       <path d="
M0 0
L0 -4" id="m0012dd4eef" style="stroke:#000000;stroke-linecap:butt;stroke-width:0.5;"/>
      </defs>
      <g>
       <use style="stroke:#000000;stroke-linecap:butt;stroke-width:0.5;" x="46.1171875" xlink:href="#m0012dd4eef" y="111.6"/>
      </g>
     </g>
     <g id="line2d_23">
      <defs>
       <path d="
M0 0
L0 4" id="m476344969c" style="stroke:#000000;stroke-linecap:butt;stroke-width:0.5;"/>
      </defs>
      <g>
       <use style="stroke:#000000;stroke-linecap:butt;stroke-width:0.5;" x="46.1171875" xlink:href="#m476344969c" y="32.0"/>
      </g>
     </g>
     <g id="text_1">
      <!-- 0 -->
      <defs>
       <path d="
M31.7812 66.4062
Q24.1719 66.4062 20.3281 58.9062
Q16.5 51.4219 16.5 36.375
Q16.5 21.3906 20.3281 13.8906
Q24.1719 6.39062 31.7812 6.39062
Q39.4531 6.39062 43.2812 13.8906
Q47.125 21.3906 47.125 36.375
Q47.125 51.4219 43.2812 58.9062
Q39.4531 66.4062 31.7812 66.4062
M31.7812 74.2188
Q44.0469 74.2188 50.5156 64.5156
Q56.9844 54.8281 56.9844 36.375
Q56.9844 17.9688 50.5156 8.26562
Q44.0469 -1.42188 31.7812 -1.42188
Q19.5312 -1.42188 13.0625 8.26562
Q6.59375 17.9688 6.59375 36.375
Q6.59375 54.8281 13.0625 64.5156
Q19.5312 74.2188 31.7812 74.2188" id="DejaVuSans-30"/>
      </defs>
      <g transform="translate(43.59765625 123.021875)scale(0.1 -0.1)">
       <use xlink:href="#DejaVuSans-30"/>
      </g>
     </g>
    </g>
    <g id="xtick_2">
     <g id="line2d_24">
      <g>
       <use style="stroke:#000000;stroke-linecap:butt;stroke-width:0.5;" x="135.073242188" xlink:href="#m0012dd4eef" y="111.6"/>
      </g>
     </g>
     <g id="line2d_25">
      <g>
       <use style="stroke:#000000;stroke-linecap:butt;stroke-width:0.5;" x="135.073242188" xlink:href="#m476344969c" y="32.0"/>
      </g>
     </g>
     <g id="text_2">
      <!-- 500 -->
      <defs>
       <path d="
M10.7969 72.9062
L49.5156 72.9062
L49.5156 64.5938
L19.8281 64.5938
L19.8281 46.7344
Q21.9688 47.4688 24.1094 47.8281
Q26.2656 48.1875 28.4219 48.1875
Q40.625 48.1875 47.75 41.5
Q54.8906 34.8125 54.8906 23.3906
Q54.8906 11.625 47.5625 5.09375
Q40.2344 -1.42188 26.9062 -1.42188
Q22.3125 -1.42188 17.5469 -0.640625
Q12.7969 0.140625 7.71875 1.70312
L7.71875 11.625
Q12.1094 9.23438 16.7969 8.0625
Q21.4844 6.89062 26.7031 6.89062
Q35.1562 6.89062 40.0781 11.3281
Q45.0156 15.7656 45.0156 23.3906
Q45.0156 31 40.0781 35.4375
Q35.1562 39.8906 26.7031 39.8906
Q22.75 39.8906 18.8125 39.0156
Q14.8906 38.1406 10.7969 36.2812
z
" id="DejaVuSans-35"/>
      </defs>
      <g transform="translate(126.247460938 123.021875)scale(0.1 -0.1)">
       <use xlink:href="#DejaVuSans-35"/>
       <use x="63.623046875" xlink:href="#DejaVuSans-30"/>
       <use x="127.24609375" xlink:href="#DejaVuSans-30"/>
      </g>
     </g>
    </g>
    <g id="xtick_3">
     <g id="line2d_26">
      <g>
       <use style="stroke:#000000;stroke-linecap:butt;stroke-width:0.5;" x="224.029296875" xlink:href="#m0012dd4eef" y="111.6"/>
      </g>
     </g>
     <g id="line2d_27">
      <g>
       <use style="stroke:#000000;stroke-linecap:butt;stroke-width:0.5;" x="224.029296875" xlink:href="#m476344969c" y="32.0"/>
      </g>
     </g>
     <g id="text_3">
      <!-- 1000 -->
      <defs>
       <path d="
M12.4062 8.29688
L28.5156 8.29688
L28.5156 63.9219
L10.9844 60.4062
L10.9844 69.3906
L28.4219 72.9062
L38.2812 72.9062
L38.2812 8.29688
L54.3906 8.29688
L54.3906 0
L12.4062 0
z
" id="DejaVuSans-31"/>
      </defs>
      <g transform="translate(212.185546875 123.021875)scale(0.1 -0.1)">
       <use xlink:href="#DejaVuSans-31"/>
       <use x="63.623046875" xlink:href="#DejaVuSans-30"/>
       <use x="127.24609375" xlink:href="#DejaVuSans-30"/>
       <use x="190.869140625" xlink:href="#DejaVuSans-30"/>
      </g>
     </g>
    </g>
    <g id="xtick_4">
     <g id="line2d_28">
      <g>
       <use style="stroke:#000000;stroke-linecap:butt;stroke-width:0.5;" x="312.985351563" xlink:href="#m0012dd4eef" y="111.6"/>
      </g>
     </g>
     <g id="line2d_29">
      <g>
       <use style="stroke:#000000;stroke-linecap:butt;stroke-width:0.5;" x="312.985351563" xlink:href="#m476344969c" y="32.0"/>
      </g>
     </g>
     <g id="text_4">
      <!-- 1500 -->
      <g transform="translate(301.141601563 123.021875)scale(0.1 -0.1)">
       <use xlink:href="#DejaVuSans-31"/>
       <use x="63.623046875" xlink:href="#DejaVuSans-35"/>
       <use x="127.24609375" xlink:href="#DejaVuSans-30"/>
       <use x="190.869140625" xlink:href="#DejaVuSans-30"/>
      </g>
     </g>
    </g>
    <g id="xtick_5">
     <g id="line2d_30">
      <g>
       <use style="stroke:#000000;stroke-linecap:butt;stroke-width:0.5;" x="401.94140625" xlink:href="#m0012dd4eef" y="111.6"/>
      </g>
     </g>
     <g id="line2d_31">
      <g>
       <use style="stroke:#000000;stroke-linecap:butt;stroke-width:0.5;" x="401.94140625" xlink:href="#m476344969c" y="32.0"/>
      </g>
     </g>
     <g id="text_5">
      <!-- 2000 -->
      <defs>
       <path d="
M19.1875 8.29688
L53.6094 8.29688
L53.6094 0
L7.32812 0
L7.32812 8.29688
Q12.9375 14.1094 22.625 23.8906
Q32.3281 33.6875 34.8125 36.5312
Q39.5469 41.8438 41.4219 45.5312
Q43.3125 49.2188 43.3125 52.7812
Q43.3125 58.5938 39.2344 62.25
Q35.1562 65.9219 28.6094 65.9219
Q23.9688 65.9219 18.8125 64.3125
Q13.6719 62.7031 7.8125 59.4219
L7.8125 69.3906
Q13.7656 71.7812 18.9375 73
Q24.125 74.2188 28.4219 74.2188
Q39.75 74.2188 46.4844 68.5469
Q53.2188 62.8906 53.2188 53.4219
Q53.2188 48.9219 51.5312 44.8906
Q49.8594 40.875 45.4062 35.4062
Q44.1875 33.9844 37.6406 27.2188
Q31.1094 20.4531 19.1875 8.29688" id="DejaVuSans-32"/>
      </defs>
      <g transform="translate(389.91484375 123.021875)scale(0.1 -0.1)">
       <use xlink:href="#DejaVuSans-32"/>
       <use x="63.623046875" xlink:href="#DejaVuSans-30"/>
       <use x="127.24609375" xlink:href="#DejaVuSans-30"/>
       <use x="190.869140625" xlink:href="#DejaVuSans-30"/>
      </g>
     </g>
    </g>
    <g id="text_6">
     <!-- Time -->
     <defs>
      <path d="
M52 44.1875
Q55.375 50.25 60.0625 53.125
Q64.75 56 71.0938 56
Q79.6406 56 84.2812 50.0156
Q88.9219 44.0469 88.9219 33.0156
L88.9219 0
L79.8906 0
L79.8906 32.7188
Q79.8906 40.5781 77.0938 44.375
Q74.3125 48.1875 68.6094 48.1875
Q61.625 48.1875 57.5625 43.5469
Q53.5156 38.9219 53.5156 30.9062
L53.5156 0
L44.4844 0
L44.4844 32.7188
Q44.4844 40.625 41.7031 44.4062
Q38.9219 48.1875 33.1094 48.1875
Q26.2188 48.1875 22.1562 43.5312
Q18.1094 38.875 18.1094 30.9062
L18.1094 0
L9.07812 0
L9.07812 54.6875
L18.1094 54.6875
L18.1094 46.1875
Q21.1875 51.2188 25.4844 53.6094
Q29.7812 56 35.6875 56
Q41.6562 56 45.8281 52.9688
Q50 49.9531 52 44.1875" id="DejaVuSans-6d"/>
      <path d="
M9.42188 54.6875
L18.4062 54.6875
L18.4062 0
L9.42188 0
z

M9.42188 75.9844
L18.4062 75.9844
L18.4062 64.5938
L9.42188 64.5938
z
" id="DejaVuSans-69"/>
      <path d="
M56.2031 29.5938
L56.2031 25.2031
L14.8906 25.2031
Q15.4844 15.9219 20.4844 11.0625
Q25.4844 6.20312 34.4219 6.20312
Q39.5938 6.20312 44.4531 7.46875
Q49.3125 8.73438 54.1094 11.2812
L54.1094 2.78125
Q49.2656 0.734375 44.1875 -0.34375
Q39.1094 -1.42188 33.8906 -1.42188
Q20.7969 -1.42188 13.1562 6.1875
Q5.51562 13.8125 5.51562 26.8125
Q5.51562 40.2344 12.7656 48.1094
Q20.0156 56 32.3281 56
Q43.3594 56 49.7812 48.8906
Q56.2031 41.7969 56.2031 29.5938
M47.2188 32.2344
Q47.125 39.5938 43.0938 43.9844
Q39.0625 48.3906 32.4219 48.3906
Q24.9062 48.3906 20.3906 44.1406
Q15.875 39.8906 15.1875 32.1719
z
" id="DejaVuSans-65"/>
      <path d="
M-0.296875 72.9062
L61.375 72.9062
L61.375 64.5938
L35.5 64.5938
L35.5 0
L25.5938 0
L25.5938 64.5938
L-0.296875 64.5938
z
" id="DejaVuSans-54"/>
     </defs>
     <g transform="translate(212.047265625 135.7625)scale(0.1 -0.1)">
      <use xlink:href="#DejaVuSans-54"/>
      <use x="57.958984375" xlink:href="#DejaVuSans-69"/>
      <use x="85.7421875" xlink:href="#DejaVuSans-6d"/>
      <use x="183.154296875" xlink:href="#DejaVuSans-65"/>
     </g>
    </g>
   </g>
   <g id="matplotlib.axis_2">
    <g id="ytick_1">
     <g id="line2d_32">
      <defs>
       <path d="
M0 0
L4 0" id="me8a85f7bf6" style="stroke:#000000;stroke-linecap:butt;stroke-width:0.5;"/>
      </defs>
      <g>
       <use style="stroke:#000000;stroke-linecap:butt;stroke-width:0.5;" x="46.1171875" xlink:href="#me8a85f7bf6" y="111.6"/>
      </g>
     </g>
     <g id="line2d_33">
      <defs>
       <path d="
M0 0
L-4 0" id="m1a32005dea" style="stroke:#000000;stroke-linecap:butt;stroke-width:0.5;"/>
      </defs>
      <g>
       <use style="stroke:#000000;stroke-linecap:butt;stroke-width:0.5;" x="401.94140625" xlink:href="#m1a32005dea" y="111.6"/>
      </g>
     </g>
     <g id="text_7">
      <!-- 0 -->
      <g transform="translate(37.078125 115.23984375)scale(0.1 -0.1)">
       <use xlink:href="#DejaVuSans-30"/>
      </g>
     </g>
    </g>
    <g id="ytick_2">
     <g id="line2d_34">
      <g>
       <use style="stroke:#000000;stroke-linecap:butt;stroke-width:0.5;" x="46.1171875" xlink:href="#me8a85f7bf6" y="95.68"/>
      </g>
     </g>
     <g id="line2d_35">
      <g>
       <use style="stroke:#000000;stroke-linecap:butt;stroke-width:0.5;" x="401.94140625" xlink:href="#m1a32005dea" y="95.68"/>
      </g>
     </g>
     <g id="text_8">
      <!-- 500 -->
      <g transform="translate(24.465625 99.31984375)scale(0.1 -0.1)">
       <use xlink:href="#DejaVuSans-35"/>
       <use x="63.623046875" xlink:href="#DejaVuSans-30"/>
       <use x="127.24609375" xlink:href="#DejaVuSans-30"/>
      </g>
     </g>
    </g>
    <g id="ytick_3">
     <g id="line2d_36">
      <g>
       <use style="stroke:#000000;stroke-linecap:butt;stroke-width:0.5;" x="46.1171875" xlink:href="#me8a85f7bf6" y="79.76"/>
      </g>
     </g>
     <g id="line2d_37">
      <g>
       <use style="stroke:#000000;stroke-linecap:butt;stroke-width:0.5;" x="401.94140625" xlink:href="#m1a32005dea" y="79.76"/>
      </g>
     </g>
     <g id="text_9">
      <!-- 1000 -->
      <g transform="translate(18.4296875 83.39984375)scale(0.1 -0.1)">
       <use xlink:href="#DejaVuSans-31"/>
       <use x="63.623046875" xlink:href="#DejaVuSans-30"/>
       <use x="127.24609375" xlink:href="#DejaVuSans-30"/>
       <use x="190.869140625" xlink:href="#DejaVuSans-30"/>
      </g>
     </g>
    </g>
    <g id="ytick_4">
     <g id="line2d_38">
      <g>
       <use style="stroke:#000000;stroke-linecap:butt;stroke-width:0.5;" x="46.1171875" xlink:href="#me8a85f7bf6" y="63.84"/>
      </g>
     </g>
     <g id="line2d_39">
      <g>
       <use style="stroke:#000000;stroke-linecap:butt;stroke-width:0.5;" x="401.94140625" xlink:href="#m1a32005dea" y="63.84"/>
      </g>
     </g>
     <g id="text_10">
      <!-- 1500 -->
      <g transform="translate(18.4296875 67.47984375)scale(0.1 -0.1)">
       <use xlink:href="#DejaVuSans-31"/>
       <use x="63.623046875" xlink:href="#DejaVuSans-35"/>
       <use x="127.24609375" xlink:href="#DejaVuSans-30"/>
       <use x="190.869140625" xlink:href="#DejaVuSans-30"/>
      </g>
     </g>
    </g>
    <g id="ytick_5">
     <g id="line2d_40">
      <g>
       <use style="stroke:#000000;stroke-linecap:butt;stroke-width:0.5;" x="46.1171875" xlink:href="#me8a85f7bf6" y="47.92"/>
      </g>
     </g>
     <g id="line2d_41">
      <g>
       <use style="stroke:#000000;stroke-linecap:butt;stroke-width:0.5;" x="401.94140625" xlink:href="#m1a32005dea" y="47.92"/>
      </g>
     </g>
     <g id="text_11">
      <!-- 2000 -->
      <g transform="translate(18.0640625 51.55984375)scale(0.1 -0.1)">
       <use xlink:href="#DejaVuSans-32"/>
       <use x="63.623046875" xlink:href="#DejaVuSans-30"/>
       <use x="127.24609375" xlink:href="#DejaVuSans-30"/>
       <use x="190.869140625" xlink:href="#DejaVuSans-30"/>
      </g>
     </g>
    </g>
    <g id="ytick_6">
     <g id="line2d_42">
      <g>
       <use style="stroke:#000000;stroke-linecap:butt;stroke-width:0.5;" x="46.1171875" xlink:href="#me8a85f7bf6" y="32.0"/>
      </g>
     </g>
     <g id="line2d_43">
      <g>
       <use style="stroke:#000000;stroke-linecap:butt;stroke-width:0.5;" x="401.94140625" xlink:href="#m1a32005dea" y="32.0"/>
      </g>
     </g>
     <g id="text_12">
      <!-- 2500 -->
      <g transform="translate(18.0640625 35.63984375)scale(0.1 -0.1)">
       <use xlink:href="#DejaVuSans-32"/>
       <use x="63.623046875" xlink:href="#DejaVuSans-35"/>
       <use x="127.24609375" xlink:href="#DejaVuSans-30"/>
       <use x="190.869140625" xlink:href="#DejaVuSans-30"/>
      </g>
     </g>
    </g>
   </g>
   <g id="patch_3">
    <path d="
M46.1172 32
L401.941 32" style="fill:none;stroke:#000000;"/>
   </g>
   <g id="patch_4">
    <path d="
M401.941 111.6
L401.941 32" style="fill:none;stroke:#000000;"/>
   </g>
   <g id="patch_5">
    <path d="
M46.1172 111.6
L401.941 111.6" style="fill:none;stroke:#000000;"/>
   </g>
   <g id="patch_6">
    <path d="
M46.1172 111.6
L46.1172 32" style="fill:none;stroke:#000000;"/>
   </g>
   <g id="text_13">
    <!-- OLTP -->
    <defs>
     <path d="
M39.4062 66.2188
Q28.6562 66.2188 22.3281 58.2031
Q16.0156 50.2031 16.0156 36.375
Q16.0156 22.6094 22.3281 14.5938
Q28.6562 6.59375 39.4062 6.59375
Q50.1406 6.59375 56.4219 14.5938
Q62.7031 22.6094 62.7031 36.375
Q62.7031 50.2031 56.4219 58.2031
Q50.1406 66.2188 39.4062 66.2188
M39.4062 74.2188
Q54.7344 74.2188 63.9062 63.9375
Q73.0938 53.6562 73.0938 36.375
Q73.0938 19.1406 63.9062 8.85938
Q54.7344 -1.42188 39.4062 -1.42188
Q24.0312 -1.42188 14.8125 8.82812
Q5.60938 19.0938 5.60938 36.375
Q5.60938 53.6562 14.8125 63.9375
Q24.0312 74.2188 39.4062 74.2188" id="DejaVuSans-4f"/>
     <path d="
M19.6719 64.7969
L19.6719 37.4062
L32.0781 37.4062
Q38.9688 37.4062 42.7188 40.9688
Q46.4844 44.5312 46.4844 51.125
Q46.4844 57.6719 42.7188 61.2344
Q38.9688 64.7969 32.0781 64.7969
z

M9.8125 72.9062
L32.0781 72.9062
Q44.3438 72.9062 50.6094 67.3594
Q56.8906 61.8125 56.8906 51.125
Q56.8906 40.3281 50.6094 34.8125
Q44.3438 29.2969 32.0781 29.2969
L19.6719 29.2969
L19.6719 0
L9.8125 0
z
" id="DejaVuSans-50"/>
     <path d="
M9.8125 72.9062
L19.6719 72.9062
L19.6719 8.29688
L55.1719 8.29688
L55.1719 0
L9.8125 0
z
" id="DejaVuSans-4c"/>
    </defs>
    <g transform="translate(210.046484375 27.0)scale(0.12 -0.12)">
     <use xlink:href="#DejaVuSans-4f"/>
     <use x="78.7109375" xlink:href="#DejaVuSans-4c"/>
     <use x="120.673828125" xlink:href="#DejaVuSans-54"/>
     <use x="181.7578125" xlink:href="#DejaVuSans-50"/>
    </g>
   </g>
  </g>
  <g id="axes_2">
   <g id="patch_7">
    <path d="
M46.1172 246.6
L401.941 246.6
L401.941 167
L46.1172 167
z
" style="fill:#ffffff;"/>
   </g>
   <g id="line2d_44">
    <path clip-path="url(#pe9bd9c4693)" d="
M56.7922 246.6
L56.7922 167" style="fill:none;stroke:#00ffff;stroke-dasharray:6.000000,6.000000;stroke-dashoffset:0.0;stroke-linecap:butt;"/>
   </g>
   <g id="line2d_45">
    <path clip-path="url(#pe9bd9c4693)" d="
M78.1419 246.6
L78.1419 167" style="fill:none;stroke:#00ffff;stroke-dasharray:6.000000,6.000000;stroke-dashoffset:0.0;stroke-linecap:butt;"/>
   </g>
   <g id="line2d_46">
    <path clip-path="url(#pe9bd9c4693)" d="
M78.1419 246.6
L78.1419 167" style="fill:none;stroke:#00ffff;stroke-dasharray:6.000000,6.000000;stroke-dashoffset:0.0;stroke-linecap:butt;"/>
   </g>
   <g id="line2d_47">
    <path clip-path="url(#pe9bd9c4693)" d="
M78.1423 246.6
L78.1423 167" style="fill:none;stroke:#00ffff;stroke-dasharray:6.000000,6.000000;stroke-dashoffset:0.0;stroke-linecap:butt;"/>
   </g>
   <g id="line2d_48">
    <path clip-path="url(#pe9bd9c4693)" d="
M99.4914 246.6
L99.4914 167" style="fill:none;stroke:#00ffff;stroke-dasharray:6.000000,6.000000;stroke-dashoffset:0.0;stroke-linecap:butt;"/>
   </g>
   <g id="line2d_49">
    <path clip-path="url(#pe9bd9c4693)" d="
M99.4917 246.6
L99.4917 167" style="fill:none;stroke:#00ffff;stroke-dasharray:6.000000,6.000000;stroke-dashoffset:0.0;stroke-linecap:butt;"/>
   </g>
   <g id="line2d_50">
    <path clip-path="url(#pe9bd9c4693)" d="
M120.84 246.6
L120.84 167" style="fill:none;stroke:#00ffff;stroke-dasharray:6.000000,6.000000;stroke-dashoffset:0.0;stroke-linecap:butt;"/>
   </g>
   <g id="line2d_51">
    <path clip-path="url(#pe9bd9c4693)" d="
M142.19 246.6
L142.19 167" style="fill:none;stroke:#00ffff;stroke-dasharray:6.000000,6.000000;stroke-dashoffset:0.0;stroke-linecap:butt;"/>
   </g>
   <g id="line2d_52">
    <path clip-path="url(#pe9bd9c4693)" d="
M163.54 246.6
L163.54 167" style="fill:none;stroke:#00ffff;stroke-dasharray:6.000000,6.000000;stroke-dashoffset:0.0;stroke-linecap:butt;"/>
   </g>
   <g id="line2d_53">
    <path clip-path="url(#pe9bd9c4693)" d="
M184.889 246.6
L184.889 167" style="fill:none;stroke:#00ffff;stroke-dasharray:6.000000,6.000000;stroke-dashoffset:0.0;stroke-linecap:butt;"/>
   </g>
   <g id="line2d_54">
    <path clip-path="url(#pe9bd9c4693)" d="
M206.238 246.6
L206.238 167" style="fill:none;stroke:#00ffff;stroke-dasharray:6.000000,6.000000;stroke-dashoffset:0.0;stroke-linecap:butt;"/>
   </g>
   <g id="line2d_55">
    <path clip-path="url(#pe9bd9c4693)" d="
M206.239 246.6
L206.239 167" style="fill:none;stroke:#00ffff;stroke-dasharray:6.000000,6.000000;stroke-dashoffset:0.0;stroke-linecap:butt;"/>
   </g>
   <g id="line2d_56">
    <path clip-path="url(#pe9bd9c4693)" d="
M227.588 246.6
L227.588 167" style="fill:none;stroke:#00ffff;stroke-dasharray:6.000000,6.000000;stroke-dashoffset:0.0;stroke-linecap:butt;"/>
   </g>
   <g id="line2d_57">
    <path clip-path="url(#pe9bd9c4693)" d="
M248.938 246.6
L248.938 167" style="fill:none;stroke:#00ffff;stroke-dasharray:6.000000,6.000000;stroke-dashoffset:0.0;stroke-linecap:butt;"/>
   </g>
   <g id="line2d_58">
    <path clip-path="url(#pe9bd9c4693)" d="
M270.287 246.6
L270.287 167" style="fill:none;stroke:#00ffff;stroke-dasharray:6.000000,6.000000;stroke-dashoffset:0.0;stroke-linecap:butt;"/>
   </g>
   <g id="line2d_59">
    <path clip-path="url(#pe9bd9c4693)" d="
M291.636 246.6
L291.636 167" style="fill:none;stroke:#00ffff;stroke-dasharray:6.000000,6.000000;stroke-dashoffset:0.0;stroke-linecap:butt;"/>
   </g>
   <g id="line2d_60">
    <path clip-path="url(#pe9bd9c4693)" d="
M313.521 246.6
L313.521 167" style="fill:none;stroke:#00ffff;stroke-dasharray:6.000000,6.000000;stroke-dashoffset:0.0;stroke-linecap:butt;"/>
   </g>
   <g id="line2d_61">
    <path clip-path="url(#pe9bd9c4693)" d="
M334.335 246.6
L334.335 167" style="fill:none;stroke:#00ffff;stroke-dasharray:6.000000,6.000000;stroke-dashoffset:0.0;stroke-linecap:butt;"/>
   </g>
   <g id="line2d_62">
    <path clip-path="url(#pe9bd9c4693)" d="
M355.69 246.6
L355.69 167" style="fill:none;stroke:#00ffff;stroke-dasharray:6.000000,6.000000;stroke-dashoffset:0.0;stroke-linecap:butt;"/>
   </g>
   <g id="line2d_63">
    <path clip-path="url(#pe9bd9c4693)" d="
M377.034 246.6
L377.034 167" style="fill:none;stroke:#00ffff;stroke-dasharray:6.000000,6.000000;stroke-dashoffset:0.0;stroke-linecap:butt;"/>
   </g>
   <g id="line2d_64">
    <path clip-path="url(#pe9bd9c4693)" d="
M56.7921 229.535
L56.7921 224.897
L76.8832 224.897
L76.8832 220.26
L96.9744 220.26
L96.9744 228.793
L117.066 228.793
L117.066 226.01
L137.157 226.01
L137.157 227.123
L157.248 227.123
L157.248 233.244
L177.339 233.244
L177.339 228.236
L197.43 228.236
L197.43 228.236
L217.521 228.236
L217.521 228.793
L237.612 228.793
L237.612 231.204
L257.703 231.204
L257.703 235.285
L277.795 235.285
L277.795 236.954
L297.886 236.954
L297.886 233.059
L317.977 233.059
L317.977 236.212
L338.068 236.212
L338.068 233.059
L358.159 233.059
L358.159 232.317
L378.25 232.317" style="fill:none;stroke:#008000;"/>
   </g>
   <g id="matplotlib.axis_3">
    <g id="xtick_6">
     <g id="line2d_65">
      <g>
       <use style="stroke:#000000;stroke-linecap:butt;stroke-width:0.5;" x="46.1171875" xlink:href="#m0012dd4eef" y="246.6"/>
      </g>
     </g>
     <g id="line2d_66">
      <g>
       <use style="stroke:#000000;stroke-linecap:butt;stroke-width:0.5;" x="46.1171875" xlink:href="#m476344969c" y="167.0"/>
      </g>
     </g>
     <g id="text_14">
      <!-- 0 -->
      <g transform="translate(43.59765625 258.021875)scale(0.1 -0.1)">
       <use xlink:href="#DejaVuSans-30"/>
      </g>
     </g>
    </g>
    <g id="xtick_7">
     <g id="line2d_67">
      <g>
       <use style="stroke:#000000;stroke-linecap:butt;stroke-width:0.5;" x="135.073242188" xlink:href="#m0012dd4eef" y="246.6"/>
      </g>
     </g>
     <g id="line2d_68">
      <g>
       <use style="stroke:#000000;stroke-linecap:butt;stroke-width:0.5;" x="135.073242188" xlink:href="#m476344969c" y="167.0"/>
      </g>
     </g>
     <g id="text_15">
      <!-- 500 -->
      <g transform="translate(126.247460938 258.021875)scale(0.1 -0.1)">
       <use xlink:href="#DejaVuSans-35"/>
       <use x="63.623046875" xlink:href="#DejaVuSans-30"/>
       <use x="127.24609375" xlink:href="#DejaVuSans-30"/>
      </g>
     </g>
    </g>
    <g id="xtick_8">
     <g id="line2d_69">
      <g>
       <use style="stroke:#000000;stroke-linecap:butt;stroke-width:0.5;" x="224.029296875" xlink:href="#m0012dd4eef" y="246.6"/>
      </g>
     </g>
     <g id="line2d_70">
      <g>
       <use style="stroke:#000000;stroke-linecap:butt;stroke-width:0.5;" x="224.029296875" xlink:href="#m476344969c" y="167.0"/>
      </g>
     </g>
     <g id="text_16">
      <!-- 1000 -->
      <g transform="translate(212.185546875 258.021875)scale(0.1 -0.1)">
       <use xlink:href="#DejaVuSans-31"/>
       <use x="63.623046875" xlink:href="#DejaVuSans-30"/>
       <use x="127.24609375" xlink:href="#DejaVuSans-30"/>
       <use x="190.869140625" xlink:href="#DejaVuSans-30"/>
      </g>
     </g>
    </g>
    <g id="xtick_9">
     <g id="line2d_71">
      <g>
       <use style="stroke:#000000;stroke-linecap:butt;stroke-width:0.5;" x="312.985351563" xlink:href="#m0012dd4eef" y="246.6"/>
      </g>
     </g>
     <g id="line2d_72">
      <g>
       <use style="stroke:#000000;stroke-linecap:butt;stroke-width:0.5;" x="312.985351563" xlink:href="#m476344969c" y="167.0"/>
      </g>
     </g>
     <g id="text_17">
      <!-- 1500 -->
      <g transform="translate(301.141601563 258.021875)scale(0.1 -0.1)">
       <use xlink:href="#DejaVuSans-31"/>
       <use x="63.623046875" xlink:href="#DejaVuSans-35"/>
       <use x="127.24609375" xlink:href="#DejaVuSans-30"/>
       <use x="190.869140625" xlink:href="#DejaVuSans-30"/>
      </g>
     </g>
    </g>
    <g id="xtick_10">
     <g id="line2d_73">
      <g>
       <use style="stroke:#000000;stroke-linecap:butt;stroke-width:0.5;" x="401.94140625" xlink:href="#m0012dd4eef" y="246.6"/>
      </g>
     </g>
     <g id="line2d_74">
      <g>
       <use style="stroke:#000000;stroke-linecap:butt;stroke-width:0.5;" x="401.94140625" xlink:href="#m476344969c" y="167.0"/>
      </g>
     </g>
     <g id="text_18">
      <!-- 2000 -->
      <g transform="translate(389.91484375 258.021875)scale(0.1 -0.1)">
       <use xlink:href="#DejaVuSans-32"/>
       <use x="63.623046875" xlink:href="#DejaVuSans-30"/>
       <use x="127.24609375" xlink:href="#DejaVuSans-30"/>
       <use x="190.869140625" xlink:href="#DejaVuSans-30"/>
      </g>
     </g>
    </g>
    <g id="text_19">
     <!-- Time -->
     <g transform="translate(212.047265625 270.7625)scale(0.1 -0.1)">
      <use xlink:href="#DejaVuSans-54"/>
      <use x="57.958984375" xlink:href="#DejaVuSans-69"/>
      <use x="85.7421875" xlink:href="#DejaVuSans-6d"/>
      <use x="183.154296875" xlink:href="#DejaVuSans-65"/>
     </g>
    </g>
   </g>
   <g id="matplotlib.axis_4">
    <g id="ytick_7">
     <g id="line2d_75">
      <g>
       <use style="stroke:#000000;stroke-linecap:butt;stroke-width:0.5;" x="46.1171875" xlink:href="#me8a85f7bf6" y="246.6"/>
      </g>
     </g>
     <g id="line2d_76">
      <g>
       <use style="stroke:#000000;stroke-linecap:butt;stroke-width:0.5;" x="401.94140625" xlink:href="#m1a32005dea" y="246.6"/>
      </g>
     </g>
     <g id="text_20">
      <!-- 0.0 -->
      <defs>
       <path d="
M10.6875 12.4062
L21 12.4062
L21 0
L10.6875 0
z
" id="DejaVuSans-2e"/>
      </defs>
      <g transform="translate(27.5375 250.23984375)scale(0.1 -0.1)">
       <use xlink:href="#DejaVuSans-30"/>
       <use x="63.623046875" xlink:href="#DejaVuSans-2e"/>
       <use x="95.41015625" xlink:href="#DejaVuSans-30"/>
      </g>
     </g>
    </g>
    <g id="ytick_8">
     <g id="line2d_77">
      <g>
       <use style="stroke:#000000;stroke-linecap:butt;stroke-width:0.5;" x="46.1171875" xlink:href="#me8a85f7bf6" y="236.126315789"/>
      </g>
     </g>
     <g id="line2d_78">
      <g>
       <use style="stroke:#000000;stroke-linecap:butt;stroke-width:0.5;" x="401.94140625" xlink:href="#m1a32005dea" y="236.126315789"/>
      </g>
     </g>
     <g id="text_21">
      <!-- 0.5 -->
      <g transform="translate(27.746875 239.766159539)scale(0.1 -0.1)">
       <use xlink:href="#DejaVuSans-30"/>
       <use x="63.623046875" xlink:href="#DejaVuSans-2e"/>
       <use x="95.41015625" xlink:href="#DejaVuSans-35"/>
      </g>
     </g>
    </g>
    <g id="ytick_9">
     <g id="line2d_79">
      <g>
       <use style="stroke:#000000;stroke-linecap:butt;stroke-width:0.5;" x="46.1171875" xlink:href="#me8a85f7bf6" y="225.652631579"/>
      </g>
     </g>
     <g id="line2d_80">
      <g>
       <use style="stroke:#000000;stroke-linecap:butt;stroke-width:0.5;" x="401.94140625" xlink:href="#m1a32005dea" y="225.652631579"/>
      </g>
     </g>
     <g id="text_22">
      <!-- 1.0 -->
      <g transform="translate(27.9765625 229.292475329)scale(0.1 -0.1)">
       <use xlink:href="#DejaVuSans-31"/>
       <use x="63.623046875" xlink:href="#DejaVuSans-2e"/>
       <use x="95.41015625" xlink:href="#DejaVuSans-30"/>
      </g>
     </g>
    </g>
    <g id="ytick_10">
     <g id="line2d_81">
      <g>
       <use style="stroke:#000000;stroke-linecap:butt;stroke-width:0.5;" x="46.1171875" xlink:href="#me8a85f7bf6" y="215.178947368"/>
      </g>
     </g>
     <g id="line2d_82">
      <g>
       <use style="stroke:#000000;stroke-linecap:butt;stroke-width:0.5;" x="401.94140625" xlink:href="#m1a32005dea" y="215.178947368"/>
      </g>
     </g>
     <g id="text_23">
      <!-- 1.5 -->
      <g transform="translate(28.1859375 218.753166118)scale(0.1 -0.1)">
       <use xlink:href="#DejaVuSans-31"/>
       <use x="63.623046875" xlink:href="#DejaVuSans-2e"/>
       <use x="95.41015625" xlink:href="#DejaVuSans-35"/>
      </g>
     </g>
    </g>
    <g id="ytick_11">
     <g id="line2d_83">
      <g>
       <use style="stroke:#000000;stroke-linecap:butt;stroke-width:0.5;" x="46.1171875" xlink:href="#me8a85f7bf6" y="204.705263158"/>
      </g>
     </g>
     <g id="line2d_84">
      <g>
       <use style="stroke:#000000;stroke-linecap:butt;stroke-width:0.5;" x="401.94140625" xlink:href="#m1a32005dea" y="204.705263158"/>
      </g>
     </g>
     <g id="text_24">
      <!-- 2.0 -->
      <g transform="translate(27.6109375 208.345106908)scale(0.1 -0.1)">
       <use xlink:href="#DejaVuSans-32"/>
       <use x="63.623046875" xlink:href="#DejaVuSans-2e"/>
       <use x="95.41015625" xlink:href="#DejaVuSans-30"/>
      </g>
     </g>
    </g>
    <g id="ytick_12">
     <g id="line2d_85">
      <g>
       <use style="stroke:#000000;stroke-linecap:butt;stroke-width:0.5;" x="46.1171875" xlink:href="#me8a85f7bf6" y="194.231578947"/>
      </g>
     </g>
     <g id="line2d_86">
      <g>
       <use style="stroke:#000000;stroke-linecap:butt;stroke-width:0.5;" x="401.94140625" xlink:href="#m1a32005dea" y="194.231578947"/>
      </g>
     </g>
     <g id="text_25">
      <!-- 2.5 -->
      <g transform="translate(27.8203125 197.871422697)scale(0.1 -0.1)">
       <use xlink:href="#DejaVuSans-32"/>
       <use x="63.623046875" xlink:href="#DejaVuSans-2e"/>
       <use x="95.41015625" xlink:href="#DejaVuSans-35"/>
      </g>
     </g>
    </g>
    <g id="ytick_13">
     <g id="line2d_87">
      <g>
       <use style="stroke:#000000;stroke-linecap:butt;stroke-width:0.5;" x="46.1171875" xlink:href="#me8a85f7bf6" y="183.757894737"/>
      </g>
     </g>
     <g id="line2d_88">
      <g>
       <use style="stroke:#000000;stroke-linecap:butt;stroke-width:0.5;" x="401.94140625" xlink:href="#m1a32005dea" y="183.757894737"/>
      </g>
     </g>
     <g id="text_26">
      <!-- 3.0 -->
      <defs>
       <path d="
M40.5781 39.3125
Q47.6562 37.7969 51.625 33
Q55.6094 28.2188 55.6094 21.1875
Q55.6094 10.4062 48.1875 4.48438
Q40.7656 -1.42188 27.0938 -1.42188
Q22.5156 -1.42188 17.6562 -0.515625
Q12.7969 0.390625 7.625 2.20312
L7.625 11.7188
Q11.7188 9.32812 16.5938 8.10938
Q21.4844 6.89062 26.8125 6.89062
Q36.0781 6.89062 40.9375 10.5469
Q45.7969 14.2031 45.7969 21.1875
Q45.7969 27.6406 41.2812 31.2656
Q36.7656 34.9062 28.7188 34.9062
L20.2188 34.9062
L20.2188 43.0156
L29.1094 43.0156
Q36.375 43.0156 40.2344 45.9219
Q44.0938 48.8281 44.0938 54.2969
Q44.0938 59.9062 40.1094 62.9062
Q36.1406 65.9219 28.7188 65.9219
Q24.6562 65.9219 20.0156 65.0312
Q15.375 64.1562 9.8125 62.3125
L9.8125 71.0938
Q15.4375 72.6562 20.3438 73.4375
Q25.25 74.2188 29.5938 74.2188
Q40.8281 74.2188 47.3594 69.1094
Q53.9062 64.0156 53.9062 55.3281
Q53.9062 49.2656 50.4375 45.0938
Q46.9688 40.9219 40.5781 39.3125" id="DejaVuSans-33"/>
      </defs>
      <g transform="translate(27.640625 187.397738487)scale(0.1 -0.1)">
       <use xlink:href="#DejaVuSans-33"/>
       <use x="63.623046875" xlink:href="#DejaVuSans-2e"/>
       <use x="95.41015625" xlink:href="#DejaVuSans-30"/>
      </g>
     </g>
    </g>
    <g id="ytick_14">
     <g id="line2d_89">
      <g>
       <use style="stroke:#000000;stroke-linecap:butt;stroke-width:0.5;" x="46.1171875" xlink:href="#me8a85f7bf6" y="173.284210526"/>
      </g>
     </g>
     <g id="line2d_90">
      <g>
       <use style="stroke:#000000;stroke-linecap:butt;stroke-width:0.5;" x="401.94140625" xlink:href="#m1a32005dea" y="173.284210526"/>
      </g>
     </g>
     <g id="text_27">
      <!-- 3.5 -->
      <g transform="translate(27.85 176.924054276)scale(0.1 -0.1)">
       <use xlink:href="#DejaVuSans-33"/>
       <use x="63.623046875" xlink:href="#DejaVuSans-2e"/>
       <use x="95.41015625" xlink:href="#DejaVuSans-35"/>
      </g>
     </g>
    </g>
   </g>
   <g id="patch_8">
    <path d="
M46.1172 167
L401.941 167" style="fill:none;stroke:#000000;"/>
   </g>
   <g id="patch_9">
    <path d="
M401.941 246.6
L401.941 167" style="fill:none;stroke:#000000;"/>
   </g>
   <g id="patch_10">
    <path d="
M46.1172 246.6
L401.941 246.6" style="fill:none;stroke:#000000;"/>
   </g>
   <g id="patch_11">
    <path d="
M46.1172 246.6
L46.1172 167" style="fill:none;stroke:#000000;"/>
   </g>
   <g id="text_28">
    <!-- OLAP -->
    <defs>
     <path d="
M34.1875 63.1875
L20.7969 26.9062
L47.6094 26.9062
z

M28.6094 72.9062
L39.7969 72.9062
L67.5781 0
L57.3281 0
L50.6875 18.7031
L17.8281 18.7031
L11.1875 0
L0.78125 0
z
" id="DejaVuSans-41"/>
    </defs>
    <g transform="translate(208.646796875 162.0)scale(0.12 -0.12)">
     <use xlink:href="#DejaVuSans-4f"/>
     <use x="78.7109375" xlink:href="#DejaVuSans-4c"/>
     <use x="136.673828125" xlink:href="#DejaVuSans-41"/>
     <use x="205.08203125" xlink:href="#DejaVuSans-50"/>
    </g>
   </g>
  </g>
  <g id="text_29">
   <!-- 5 OLTP workers -->
   <defs>
    <path d="
M30.6094 48.3906
Q23.3906 48.3906 19.1875 42.75
Q14.9844 37.1094 14.9844 27.2969
Q14.9844 17.4844 19.1562 11.8438
Q23.3438 6.20312 30.6094 6.20312
Q37.7969 6.20312 41.9844 11.8594
Q46.1875 17.5312 46.1875 27.2969
Q46.1875 37.0156 41.9844 42.7031
Q37.7969 48.3906 30.6094 48.3906
M30.6094 56
Q42.3281 56 49.0156 48.375
Q55.7188 40.7656 55.7188 27.2969
Q55.7188 13.875 49.0156 6.21875
Q42.3281 -1.42188 30.6094 -1.42188
Q18.8438 -1.42188 12.1719 6.21875
Q5.51562 13.875 5.51562 27.2969
Q5.51562 40.7656 12.1719 48.375
Q18.8438 56 30.6094 56" id="DejaVuSans-6f"/>
    <path d="
M9.07812 75.9844
L18.1094 75.9844
L18.1094 31.1094
L44.9219 54.6875
L56.3906 54.6875
L27.3906 29.1094
L57.625 0
L45.9062 0
L18.1094 26.7031
L18.1094 0
L9.07812 0
z
" id="DejaVuSans-6b"/>
    <path id="DejaVuSans-20"/>
    <path d="
M4.20312 54.6875
L13.1875 54.6875
L24.4219 12.0156
L35.5938 54.6875
L46.1875 54.6875
L57.4219 12.0156
L68.6094 54.6875
L77.5938 54.6875
L63.2812 0
L52.6875 0
L40.9219 44.8281
L29.1094 0
L18.5 0
z
" id="DejaVuSans-77"/>
    <path d="
M44.2812 53.0781
L44.2812 44.5781
Q40.4844 46.5312 36.375 47.5
Q32.2812 48.4844 27.875 48.4844
Q21.1875 48.4844 17.8438 46.4375
Q14.5 44.3906 14.5 40.2812
Q14.5 37.1562 16.8906 35.375
Q19.2812 33.5938 26.5156 31.9844
L29.5938 31.2969
Q39.1562 29.25 43.1875 25.5156
Q47.2188 21.7812 47.2188 15.0938
Q47.2188 7.46875 41.1875 3.01562
Q35.1562 -1.42188 24.6094 -1.42188
Q20.2188 -1.42188 15.4531 -0.5625
Q10.6875 0.296875 5.42188 2
L5.42188 11.2812
Q10.4062 8.6875 15.2344 7.39062
Q20.0625 6.10938 24.8125 6.10938
Q31.1562 6.10938 34.5625 8.28125
Q37.9844 10.4531 37.9844 14.4062
Q37.9844 18.0625 35.5156 20.0156
Q33.0625 21.9688 24.7031 23.7812
L21.5781 24.5156
Q13.2344 26.2656 9.51562 29.9062
Q5.8125 33.5469 5.8125 39.8906
Q5.8125 47.6094 11.2812 51.7969
Q16.75 56 26.8125 56
Q31.7812 56 36.1719 55.2656
Q40.5781 54.5469 44.2812 53.0781" id="DejaVuSans-73"/>
    <path d="
M41.1094 46.2969
Q39.5938 47.1719 37.8125 47.5781
Q36.0312 48 33.8906 48
Q26.2656 48 22.1875 43.0469
Q18.1094 38.0938 18.1094 28.8125
L18.1094 0
L9.07812 0
L9.07812 54.6875
L18.1094 54.6875
L18.1094 46.1875
Q20.9531 51.1719 25.4844 53.5781
Q30.0312 56 36.5312 56
Q37.4531 56 38.5781 55.875
Q39.7031 55.7656 41.0625 55.5156
z
" id="DejaVuSans-72"/>
   </defs>
   <g transform="translate(178.1265625 13.3584375)scale(0.1 -0.1)">
    <use xlink:href="#DejaVuSans-35"/>
    <use x="63.623046875" xlink:href="#DejaVuSans-20"/>
    <use x="95.41015625" xlink:href="#DejaVuSans-4f"/>
    <use x="174.12109375" xlink:href="#DejaVuSans-4c"/>
    <use x="216.083984375" xlink:href="#DejaVuSans-54"/>
    <use x="277.16796875" xlink:href="#DejaVuSans-50"/>
    <use x="337.470703125" xlink:href="#DejaVuSans-20"/>
    <use x="369.2578125" xlink:href="#DejaVuSans-77"/>
    <use x="451.044921875" xlink:href="#DejaVuSans-6f"/>
    <use x="512.2265625" xlink:href="#DejaVuSans-72"/>
    <use x="553.33984375" xlink:href="#DejaVuSans-6b"/>
    <use x="607.625" xlink:href="#DejaVuSans-65"/>
    <use x="669.1484375" xlink:href="#DejaVuSans-72"/>
    <use x="710.26171875" xlink:href="#DejaVuSans-73"/>
   </g>
  </g>
 </g>
 <defs>
  <clipPath id="pe9bd9c4693">
   <rect height="79.6" width="355.82421875" x="46.1171875" y="167.0"/>
  </clipPath>
  <clipPath id="paafe9ad165">
   <rect height="79.6" width="355.82421875" x="46.1171875" y="32.0"/>
  </clipPath>
 </defs>
</svg>
