<?xml version="1.0" encoding="utf-8" standalone="no"?>
<!DOCTYPE svg PUBLIC "-//W3C//DTD SVG 1.1//EN"
  "http://www.w3.org/Graphics/SVG/1.1/DTD/svg11.dtd">
<!-- Created with matplotlib (http://matplotlib.sourceforge.net/) -->
<svg height="288pt" version="1.1" viewBox="0 0 432 288" width="432pt" xmlns="http://www.w3.org/2000/svg" xmlns:xlink="http://www.w3.org/1999/xlink">
 <defs>
  <style type="text/css">
*{stroke-linecap:square;stroke-linejoin:round;}
  </style>
 </defs>
 <g id="figure_1">
  <g id="patch_1">
   <path d="
M0 288
L432 288
L432 0
L0 0
z
" style="fill:#ffffff;"/>
  </g>
  <g id="axes_1">
   <g id="patch_2">
    <path d="
M46.1172 111.6
L401.941 111.6
L401.941 32
L46.1172 32
z
" style="fill:#ffffff;"/>
   </g>
   <g id="line2d_1">
    <path clip-path="url(#paafe9ad165)" d="
M56.7922 111.6
L56.7922 32" style="fill:none;stroke:#00ffff;stroke-dasharray:6.000000,6.000000;stroke-dashoffset:0.0;stroke-linecap:butt;"/>
   </g>
   <g id="line2d_2">
    <path clip-path="url(#paafe9ad165)" d="
M78.1419 111.6
L78.1419 32" style="fill:none;stroke:#00ffff;stroke-dasharray:6.000000,6.000000;stroke-dashoffset:0.0;stroke-linecap:butt;"/>
   </g>
   <g id="line2d_3">
    <path clip-path="url(#paafe9ad165)" d="
M99.4913 111.6
L99.4913 32" style="fill:none;stroke:#00ffff;stroke-dasharray:6.000000,6.000000;stroke-dashoffset:0.0;stroke-linecap:butt;"/>
   </g>
   <g id="line2d_4">
    <path clip-path="url(#paafe9ad165)" d="
M99.4914 111.6
L99.4914 32" style="fill:none;stroke:#00ffff;stroke-dasharray:6.000000,6.000000;stroke-dashoffset:0.0;stroke-linecap:butt;"/>
   </g>
   <g id="line2d_5">
    <path clip-path="url(#paafe9ad165)" d="
M99.4917 111.6
L99.4917 32" style="fill:none;stroke:#00ffff;stroke-dasharray:6.000000,6.000000;stroke-dashoffset:0.0;stroke-linecap:butt;"/>
   </g>
   <g id="line2d_6">
    <path clip-path="url(#paafe9ad165)" d="
M120.841 111.6
L120.841 32" style="fill:none;stroke:#00ffff;stroke-dasharray:6.000000,6.000000;stroke-dashoffset:0.0;stroke-linecap:butt;"/>
   </g>
   <g id="line2d_7">
    <path clip-path="url(#paafe9ad165)" d="
M120.841 111.6
L120.841 32" style="fill:none;stroke:#00ffff;stroke-dasharray:6.000000,6.000000;stroke-dashoffset:0.0;stroke-linecap:butt;"/>
   </g>
   <g id="line2d_8">
    <path clip-path="url(#paafe9ad165)" d="
M120.841 111.6
L120.841 32" style="fill:none;stroke:#00ffff;stroke-dasharray:6.000000,6.000000;stroke-dashoffset:0.0;stroke-linecap:butt;"/>
   </g>
   <g id="line2d_9">
    <path clip-path="url(#paafe9ad165)" d="
M142.19 111.6
L142.19 32" style="fill:none;stroke:#00ffff;stroke-dasharray:6.000000,6.000000;stroke-dashoffset:0.0;stroke-linecap:butt;"/>
   </g>
   <g id="line2d_10">
    <path clip-path="url(#paafe9ad165)" d="
M142.19 111.6
L142.19 32" style="fill:none;stroke:#00ffff;stroke-dasharray:6.000000,6.000000;stroke-dashoffset:0.0;stroke-linecap:butt;"/>
   </g>
   <g id="line2d_11">
    <path clip-path="url(#paafe9ad165)" d="
M163.539 111.6
L163.539 32" style="fill:none;stroke:#00ffff;stroke-dasharray:6.000000,6.000000;stroke-dashoffset:0.0;stroke-linecap:butt;"/>
   </g>
   <g id="line2d_12">
    <path clip-path="url(#paafe9ad165)" d="
M163.54 111.6
L163.54 32" style="fill:none;stroke:#00ffff;stroke-dasharray:6.000000,6.000000;stroke-dashoffset:0.0;stroke-linecap:butt;"/>
   </g>
   <g id="line2d_13">
    <path clip-path="url(#paafe9ad165)" d="
M184.889 111.6
L184.889 32" style="fill:none;stroke:#00ffff;stroke-dasharray:6.000000,6.000000;stroke-dashoffset:0.0;stroke-linecap:butt;"/>
   </g>
   <g id="line2d_14">
    <path clip-path="url(#paafe9ad165)" d="
M206.238 111.6
L206.238 32" style="fill:none;stroke:#00ffff;stroke-dasharray:6.000000,6.000000;stroke-dashoffset:0.0;stroke-linecap:butt;"/>
   </g>
   <g id="line2d_15">
    <path clip-path="url(#paafe9ad165)" d="
M206.238 111.6
L206.238 32" style="fill:none;stroke:#00ffff;stroke-dasharray:6.000000,6.000000;stroke-dashoffset:0.0;stroke-linecap:butt;"/>
   </g>
   <g id="line2d_16">
    <path clip-path="url(#paafe9ad165)" d="
M227.588 111.6
L227.588 32" style="fill:none;stroke:#00ffff;stroke-dasharray:6.000000,6.000000;stroke-dashoffset:0.0;stroke-linecap:butt;"/>
   </g>
   <g id="line2d_17">
    <path clip-path="url(#paafe9ad165)" d="
M227.588 111.6
L227.588 32" style="fill:none;stroke:#00ffff;stroke-dasharray:6.000000,6.000000;stroke-dashoffset:0.0;stroke-linecap:butt;"/>
   </g>
   <g id="line2d_18">
    <path clip-path="url(#paafe9ad165)" d="
M248.937 111.6
L248.937 32" style="fill:none;stroke:#00ffff;stroke-dasharray:6.000000,6.000000;stroke-dashoffset:0.0;stroke-linecap:butt;"/>
   </g>
   <g id="line2d_19">
    <path clip-path="url(#paafe9ad165)" d="
M248.938 111.6
L248.938 32" style="fill:none;stroke:#00ffff;stroke-dasharray:6.000000,6.000000;stroke-dashoffset:0.0;stroke-linecap:butt;"/>
   </g>
   <g id="line2d_20">
    <path clip-path="url(#paafe9ad165)" d="
M270.287 111.6
L270.287 32" style="fill:none;stroke:#00ffff;stroke-dasharray:6.000000,6.000000;stroke-dashoffset:0.0;stroke-linecap:butt;"/>
   </g>
   <g id="line2d_21">
    <path clip-path="url(#paafe9ad165)" d="
M270.287 111.6
L270.287 32" style="fill:none;stroke:#00ffff;stroke-dasharray:6.000000,6.000000;stroke-dashoffset:0.0;stroke-linecap:butt;"/>
   </g>
   <g id="line2d_22">
    <path clip-path="url(#paafe9ad165)" d="
M291.637 111.6
L291.637 32" style="fill:none;stroke:#00ffff;stroke-dasharray:6.000000,6.000000;stroke-dashoffset:0.0;stroke-linecap:butt;"/>
   </g>
   <g id="line2d_23">
    <path clip-path="url(#paafe9ad165)" d="
M312.986 111.6
L312.986 32" style="fill:none;stroke:#00ffff;stroke-dasharray:6.000000,6.000000;stroke-dashoffset:0.0;stroke-linecap:butt;"/>
   </g>
   <g id="line2d_24">
    <path clip-path="url(#paafe9ad165)" d="
M334.335 111.6
L334.335 32" style="fill:none;stroke:#00ffff;stroke-dasharray:6.000000,6.000000;stroke-dashoffset:0.0;stroke-linecap:butt;"/>
   </g>
   <g id="line2d_25">
    <path clip-path="url(#paafe9ad165)" d="
M355.684 111.6
L355.684 32" style="fill:none;stroke:#00ffff;stroke-dasharray:6.000000,6.000000;stroke-dashoffset:0.0;stroke-linecap:butt;"/>
   </g>
   <g id="line2d_26">
    <path clip-path="url(#paafe9ad165)" d="
M377.061 111.6
L377.061 32" style="fill:none;stroke:#00ffff;stroke-dasharray:6.000000,6.000000;stroke-dashoffset:0.0;stroke-linecap:butt;"/>
   </g>
   <g id="line2d_27">
    <path clip-path="url(#paafe9ad165)" d="
M46.1172 59.4403
L46.1172 43.308
L46.7043 43.308
L46.7043 42.0152
L47.2914 42.0152
L47.2914 44.379
L47.8785 44.379
L47.8785 41.6003
L48.4656 41.6003
L48.4656 40.9731
L49.6398 40.9731
L49.6398 40.2784
L50.227 40.2784
L50.227 37.0172
L50.8141 37.0172
L50.8141 37.9628
L51.4012 37.9628
L51.4012 58.9096
L51.9883 58.9096
L51.9883 48.1902
L52.5754 48.1902
L52.5754 48.441
L53.1625 48.441
L53.1625 45.2088
L53.7496 45.2088
L53.7496 45.5176
L54.3367 45.5176
L54.3367 48.5375
L54.9238 48.5375
L54.9238 42.459
L55.511 42.459
L55.511 46.9262
L56.0981 46.9262
L56.0981 64.0716
L56.6852 64.0716
L56.6852 55.8028
L57.2723 55.8028
L57.2723 52.9662
L57.8594 52.9662
L57.8594 50.1681
L58.4465 50.1681
L58.4465 53.6898
L59.0336 53.6898
L59.0336 55.0792
L59.6207 55.0792
L59.6207 54.645
L60.2078 54.645
L60.2078 53.3135
L60.7949 53.3135
L60.7949 52.4162
L61.3821 52.4162
L61.3821 49.9752
L61.9692 49.9752
L61.9692 53.7091
L62.5563 53.7091
L62.5563 53.4293
L63.7305 53.5065
L63.7305 54.8862
L64.3176 54.8862
L64.3176 55.0888
L64.9047 55.0888
L64.9047 53.8152
L65.4918 53.8152
L65.4918 55.9379
L66.0789 55.9379
L66.0789 57.7325
L66.666 57.7325
L66.666 51.5575
L67.2532 51.5575
L67.2532 51.2102
L67.8403 51.2102
L67.8403 46.2122
L68.4274 46.2122
L68.4274 56.1502
L69.0145 56.1502
L69.0145 53.0627
L69.6016 53.0627
L69.6016 55.002
L70.1887 55.002
L70.1887 57.829
L70.7758 57.829
L70.7758 55.9379
L71.3629 55.9379
L71.3629 53.7091
L71.95 53.7091
L71.95 56.9317
L72.5371 56.9317
L72.5371 55.9186
L73.1243 55.9186
L73.1243 54.7897
L73.7114 54.7897
L73.7114 53.5933
L74.2985 53.5933
L74.2985 53.767
L74.8856 53.767
L74.8856 53.6416
L76.0598 53.6512
L76.0598 54.6836
L76.6469 54.6836
L76.6469 56.6037
L77.234 56.6037
L77.234 73.7104
L77.8211 73.7104
L77.8211 55.3494
L78.4082 55.3494
L78.4082 31.4887
L78.9954 31.4887
L78.9954 43.2888
L79.5825 43.2888
L79.5825 39.111
L80.1696 39.111
L80.1696 30.5624
L80.7567 30.5624
L80.7567 34.9428
L81.3438 34.9428
L81.3438 35.1165
L81.9309 35.1165
L81.9309 35.2419
L82.518 35.2419
L82.518 31.3343
L83.1051 31.3343
L83.1051 36.1875
L83.6922 36.1875
L83.6922 31.3246
L84.2793 31.3246
L84.2793 31.0448
L84.8665 31.0448
L84.8665 33.7754
L85.4536 33.7754
L85.4536 39.6416
L86.0407 39.6416
L86.0407 37.5769
L86.6278 37.5769
L86.6278 35.4928
L87.2149 35.4928
L87.2149 39.3136
L87.802 39.3136
L87.802 38.4935
L88.3891 38.4935
L88.3891 34.9718
L88.9762 34.9718
L88.9762 53.2363
L89.5633 53.2363
L89.5633 30.0993
L90.1505 30.0993
L90.1505 32.4825
L91.3247 32.4439
L91.3247 34.7788
L91.9118 34.7788
L91.9118 41.8222
L92.4989 41.8222
L92.4989 48.0937
L93.086 48.0937
L93.086 52.7732
L93.6731 52.7732
L93.6731 50.583
L94.2602 50.583
L94.2602 33.0903
L94.8473 33.0903
L94.8473 38.3391
L95.4344 38.3391
L95.4344 51.5768
L96.0216 51.5768
L96.0216 64.1005
L96.6087 64.1005
L96.6087 39.1689
L97.1958 39.1689
L97.1958 44.9097
L97.7829 44.9097
L97.7829 32.0097
L98.37 32.0097
L98.37 40.3749
L98.9571 40.3749
L98.9571 56.9607
L99.5442 56.9607
L99.5442 59.8166
L100.131 59.8166
L100.131 50.776
L100.718 50.776
L100.718 54.481
L101.306 54.481
L101.306 41.1178
L101.893 41.1178
L101.893 57.5878
L102.48 57.5878
L102.48 64.9303
L103.067 64.9303
L103.067 40.5872
L103.654 40.5872
L103.654 44.8711
L104.241 44.8711
L104.241 45.1895
L104.828 45.1895
L104.828 42.4204
L105.415 42.4204
L105.415 46.1158
L106.002 46.1158
L106.002 45.7588
L106.59 45.7588
L106.59 57.9255
L107.177 57.9255
L107.177 50.8339
L107.764 50.8339
L107.764 53.0723
L108.351 53.0723
L108.351 50.8242
L109.525 50.7374
L109.525 50.6216
L110.112 50.6216
L110.112 50.4286
L110.699 50.4286
L110.699 43.5203
L111.286 43.5203
L111.286 41.6485
L111.874 41.6485
L111.874 54.5292
L112.461 54.5292
L112.461 60.656
L113.048 60.656
L113.048 56.0537
L113.635 56.0537
L113.635 58.7746
L114.222 58.7746
L114.222 55.9572
L114.809 55.9572
L114.809 59.778
L115.396 59.778
L115.396 54.0275
L115.983 54.0275
L115.983 54.645
L116.57 54.645
L116.57 53.6802
L117.158 53.6802
L117.158 51.1137
L117.745 51.1137
L117.745 46.3377
L118.332 46.3377
L118.332 42.0827
L118.919 42.0827
L118.919 45.3825
L119.506 45.3825
L119.506 51.4128
L120.093 51.4128
L120.093 68.6836
L120.68 68.6836
L120.68 72.2342
L121.267 72.2342
L121.267 62.9717
L121.854 62.9717
L121.854 66.696
L122.442 66.696
L122.442 56.7194
L123.029 56.7194
L123.029 61.8235
L123.616 61.8235
L123.616 62.055
L124.203 62.055
L124.203 57.6167
L124.79 57.6167
L124.79 58.4851
L125.377 58.4851
L125.377 63.6085
L126.551 63.5506
L126.551 67.2749
L127.138 67.2749
L127.138 66.5416
L127.726 66.5416
L127.726 67.5257
L128.313 67.5257
L128.313 69.3204
L128.9 69.3204
L128.9 59.9517
L129.487 59.9517
L129.487 64.2838
L130.074 64.2838
L130.074 48.8945
L130.661 48.8945
L130.661 46.4342
L131.248 46.4342
L131.248 55.9958
L131.835 55.9958
L131.835 53.9986
L132.422 53.9986
L132.422 47.5534
L133.009 47.5534
L133.009 52.8311
L133.597 52.8311
L133.597 69.6098
L134.184 69.6098
L134.184 66.2232
L134.771 66.2232
L134.771 62.2094
L135.358 62.2094
L135.358 68.9248
L135.945 68.9248
L135.945 70.4878
L136.532 70.4878
L136.532 68.1046
L137.706 68.1143
L137.706 62.9813
L138.293 62.9813
L138.293 68.6739
L139.468 68.7318
L139.468 60.0868
L140.055 60.0868
L140.055 65.6346
L140.642 65.6346
L140.642 70.3045
L141.229 70.3045
L141.229 69.5809
L141.816 69.5809
L141.816 72.5044
L142.403 72.5044
L142.403 73.8455
L142.99 73.8455
L142.99 76.769
L143.577 76.769
L143.577 67.5354
L144.165 67.5354
L144.165 61.6209
L144.752 61.6209
L144.752 70.5264
L145.339 70.5264
L145.339 68.5581
L145.926 68.5581
L145.926 69.166
L146.513 69.166
L146.513 75.7752
L147.1 75.7752
L147.1 68.9441
L147.687 68.9441
L147.687 73.392
L148.274 73.392
L148.274 73.9902
L148.861 73.9902
L148.861 71.9447
L149.449 71.9447
L149.449 76.7497
L150.036 76.7497
L150.036 68.3941
L150.623 68.3941
L150.623 73.8744
L151.21 73.8744
L151.21 63.7242
L151.797 63.7242
L151.797 60.1157
L152.384 60.1157
L152.384 60.299
L152.971 60.299
L152.971 58.7746
L153.558 58.7746
L153.558 62.5278
L154.145 62.5278
L154.145 65.9434
L154.733 65.9434
L154.733 67.1398
L155.32 67.1398
L155.32 70.7001
L155.907 70.7001
L155.907 72.5815
L156.494 72.5815
L156.494 68.9248
L157.081 68.9248
L157.081 74.2604
L157.668 74.2604
L157.668 73.6525
L158.255 73.6525
L158.255 76.7593
L158.842 76.7593
L158.842 75.013
L159.429 75.013
L159.429 76.1804
L160.017 76.1804
L160.017 70.3431
L160.604 70.3431
L160.604 69.7738
L161.191 69.7738
L161.191 70.6808
L161.778 70.6808
L161.778 73.2859
L162.365 73.2859
L162.365 77.2321
L162.952 77.2321
L162.952 82.8475
L163.539 82.8475
L163.539 71.9737
L164.126 71.9737
L164.126 72.8999
L164.713 72.8999
L164.713 64.3128
L165.301 64.3128
L165.301 68.6546
L165.888 68.6546
L165.888 75.7269
L167.062 75.698
L167.062 77.8207
L167.649 77.8207
L167.649 76.5857
L168.236 76.5857
L168.236 77.3961
L168.823 77.3961
L168.823 80.4644
L169.41 80.4644
L169.41 79.2872
L169.997 79.2872
L169.997 81.0819
L170.585 81.0819
L170.585 75.2831
L171.172 75.2831
L171.172 80.4644
L171.759 80.4644
L171.759 80.3389
L172.346 80.3389
L172.346 80.8599
L172.933 80.8599
L172.933 81.9116
L173.52 81.9116
L173.52 76.4313
L174.107 76.4313
L174.107 81.6415
L174.694 81.6415
L174.694 82.423
L175.281 82.423
L175.281 85.5395
L175.869 85.5395
L175.869 89.3699
L176.456 89.3699
L176.456 82.5484
L177.043 82.5484
L177.043 79.6925
L177.63 79.6925
L177.63 73.421
L178.217 73.421
L178.217 72.3403
L178.804 72.3403
L178.804 76.3059
L179.391 76.3059
L179.391 70.7869
L179.978 70.7869
L179.978 66.1267
L180.565 66.1267
L180.565 69.0598
L181.153 69.0598
L181.153 74.7235
L181.74 74.7235
L181.74 83.7448
L182.327 83.7448
L182.327 81.6318
L182.914 81.6318
L182.914 78.3706
L183.501 78.3706
L183.501 74.0385
L184.088 74.0385
L184.088 85.4333
L184.675 85.4333
L184.675 77.3286
L185.262 77.3286
L185.262 78.2741
L185.849 78.2741
L185.849 87.7683
L186.437 87.7683
L186.437 83.8606
L187.024 83.8606
L187.024 90.7207
L187.611 90.7207
L187.611 88.6173
L188.198 88.6173
L188.198 90.576
L188.785 90.576
L188.785 89.3217
L189.372 89.3217
L189.372 95.3713
L189.959 95.3713
L189.959 93.21
L190.546 93.21
L190.546 90.4119
L191.133 90.4119
L191.133 87.7393
L191.721 87.7393
L191.721 85.3561
L192.308 85.3561
L192.308 93.6345
L192.895 93.6345
L192.895 66.6863
L193.482 66.6863
L193.482 72.7745
L194.069 72.7745
L194.069 86.0026
L194.656 86.0026
L194.656 59.7877
L195.243 59.7877
L195.243 69.7738
L195.83 69.7738
L195.83 75.8234
L196.417 75.8234
L196.417 76.7883
L197.005 76.7883
L197.005 73.1412
L197.592 73.1412
L197.592 76.0453
L198.179 76.0453
L198.179 80.0881
L198.766 80.0881
L198.766 72.0895
L199.353 72.0895
L199.353 80.1749
L199.94 80.1749
L199.94 77.2514
L200.527 77.2514
L200.527 83.8703
L201.114 83.8703
L201.114 84.4299
L201.701 84.4299
L201.701 85.1825
L202.288 85.1825
L202.288 85.5684
L202.876 85.5684
L202.876 87.006
L203.463 87.006
L203.463 88.1252
L204.05 88.1252
L204.05 81.8634
L204.637 81.8634
L204.637 79.8372
L205.224 79.8372
L205.224 86.6104
L205.811 86.6104
L205.811 82.4905
L206.398 82.4905
L206.398 79.5477
L206.985 79.5477
L206.985 79.8565
L207.572 79.8565
L207.572 81.4678
L208.16 81.4678
L208.16 89.3699
L208.747 89.3699
L208.747 91.8689
L209.334 91.8689
L209.334 92.7083
L209.921 92.7083
L209.921 91.2224
L210.508 91.2224
L210.508 90.547
L211.095 90.547
L211.095 91.0294
L211.682 91.0294
L211.682 93.181
L212.269 93.181
L212.269 90.0163
L212.856 90.0163
L212.856 89.5532
L214.618 89.5339
L214.618 92.0908
L215.205 92.0908
L215.205 92.8723
L215.792 92.8723
L215.792 93.3837
L216.379 93.3837
L216.379 94.773
L216.966 94.773
L216.966 87.7297
L217.553 87.7297
L217.553 87.1315
L218.14 87.1315
L218.14 88.7717
L218.728 88.7717
L218.728 79.4899
L219.902 79.4127
L219.902 80.5705
L220.489 80.5705
L220.489 82.4809
L221.076 82.4809
L221.076 86.9192
L221.663 86.9192
L221.663 87.7007
L222.25 87.7007
L222.25 85.578
L223.424 85.6842
L223.424 74.3665
L224.012 74.3665
L224.012 82.1528
L224.599 82.1528
L224.599 77.1163
L225.186 77.1163
L225.186 85.9061
L225.773 85.9061
L225.773 72.4851
L226.36 72.4851
L226.36 81.7765
L226.947 81.7765
L226.947 82.0756
L227.534 82.0756
L227.534 84.7869
L228.121 84.7869
L228.121 76.3252
L228.708 76.3252
L228.708 79.3162
L229.296 79.3162
L229.296 78.332
L229.883 78.332
L229.883 78.6022
L230.47 78.6022
L230.47 80.9564
L231.057 80.9564
L231.057 90.0067
L231.644 90.0067
L231.644 84.0246
L232.231 84.0246
L232.231 85.2403
L232.818 85.2403
L232.818 88.6945
L233.405 88.6945
L233.405 87.0253
L233.992 87.0253
L233.992 86.8131
L234.58 86.8131
L234.58 88.0191
L235.167 88.0191
L235.167 85.7421
L235.754 85.7421
L235.754 80.146
L236.341 80.146
L236.341 86.678
L236.928 86.678
L236.928 87.6042
L237.515 87.6042
L237.515 82.8765
L238.102 82.8765
L238.102 83.8124
L238.689 83.8124
L238.689 84.208
L239.276 84.208
L239.276 84.8158
L239.864 84.8158
L239.864 88.4822
L240.451 88.4822
L240.451 86.0991
L241.038 86.0991
L241.038 90.6435
L241.625 90.6435
L241.625 88.8875
L242.212 88.8875
L242.212 90.5663
L242.799 90.5663
L242.799 85.7807
L243.386 85.7807
L243.386 85.5877
L243.973 85.5877
L243.973 79.4609
L244.56 79.4609
L244.56 74.6463
L245.148 74.6463
L245.148 77.8496
L245.735 77.8496
L245.735 77.1356
L246.322 77.1356
L246.322 77.3189
L246.909 77.3189
L246.909 79.4609
L247.496 79.4609
L247.496 84.2562
L248.083 84.2562
L248.083 84.729
L248.67 84.729
L248.67 86.3017
L249.257 86.3017
L249.257 83.2721
L249.844 83.2721
L249.844 85.6456
L250.432 85.6456
L250.432 85.9736
L251.019 85.9736
L251.019 85.7614
L251.606 85.7614
L251.606 85.1342
L252.193 85.1342
L252.193 86.2245
L252.78 86.2245
L252.78 86.8902
L253.367 86.8902
L253.367 86.7069
L253.954 86.7069
L253.954 84.7579
L254.541 84.7579
L254.541 86.6297
L255.128 86.6297
L255.128 83.0694
L255.716 83.0694
L255.716 84.7386
L256.303 84.7386
L256.303 83.4554
L256.89 83.4554
L256.89 85.086
L258.064 85.0474
L258.064 87.1507
L258.651 87.1507
L258.651 87.9419
L259.238 87.9419
L259.238 88.4243
L259.825 88.4243
L259.825 89.5146
L260.412 89.5146
L260.412 89.9971
L261 89.9971
L261 88.9936
L261.587 88.9936
L261.587 83.6966
L262.174 83.6966
L262.174 88.3472
L262.761 88.3472
L262.761 87.7972
L263.348 87.7972
L263.348 84.2176
L263.935 84.2176
L263.935 86.0026
L264.522 86.0026
L264.522 88.4147
L265.109 88.4147
L265.109 89.7269
L265.696 89.7269
L265.696 90.8365
L266.284 90.8365
L266.284 88.8296
L266.871 88.8296
L266.871 82.1818
L267.458 82.1818
L267.458 75.8717
L268.045 75.8717
L268.045 79.5092
L268.632 79.5092
L268.632 80.8213
L269.219 80.8213
L269.219 81.8441
L269.806 81.8441
L269.806 85.0474
L270.393 85.0474
L270.393 82.0853
L270.98 82.0853
L270.98 84.6035
L271.567 84.6035
L271.567 84.7193
L272.155 84.7193
L272.155 85.4719
L272.742 85.4719
L272.742 87.4113
L273.329 87.4113
L273.329 90.8944
L273.916 90.8944
L273.916 86.9288
L274.503 86.9288
L274.503 88.1349
L275.09 88.1349
L275.09 90.3347
L275.677 90.3347
L275.677 86.3306
L276.264 86.3306
L276.264 93.6731
L276.851 93.6731
L276.851 90.1128
L277.439 90.1128
L277.439 91.8496
L278.026 91.8496
L278.026 89.6497
L278.613 89.6497
L278.613 86.4271
L279.787 86.3789
L279.787 93.1907
L280.374 93.1907
L280.374 91.5794
L280.961 91.5794
L280.961 88.434
L281.548 88.434
L281.548 90.0935
L282.135 90.0935
L282.135 90.711
L282.723 90.711
L282.723 96.394
L283.31 96.394
L283.31 93.1907
L283.897 93.1907
L283.897 87.0543
L284.484 87.0543
L284.484 86.6973
L285.071 86.6973
L285.071 89.3506
L286.245 89.312
L286.245 90.1997
L286.832 90.1997
L286.832 89.8523
L287.419 89.8523
L287.419 93.2872
L288.007 93.2872
L288.007 94.0012
L288.594 94.0012
L288.594 88.6366
L289.768 88.7138
L289.768 87.3051
L290.355 87.3051
L290.355 93.8275
L290.942 93.8275
L290.942 91.7627
L291.529 91.7627
L291.529 88.4147
L292.116 88.4147
L292.116 89.9778
L292.703 89.9778
L292.703 100.379
L293.291 100.379
L293.291 85.7131
L293.878 85.7131
L293.878 89.6401
L294.465 89.6401
L294.465 91.7627
L295.052 91.7627
L295.052 88.3665
L295.639 88.3665
L295.639 85.1439
L296.226 85.1439
L296.226 90.9619
L296.813 90.9619
L296.813 89.1094
L297.4 89.1094
L297.4 90.2672
L297.987 90.2672
L297.987 85.1921
L298.575 85.1921
L298.575 90.4023
L299.162 90.4023
L299.162 87.527
L299.749 87.527
L299.749 90.0935
L300.336 90.0935
L300.336 90.5277
L300.923 90.5277
L300.923 89.2059
L301.51 89.2059
L301.51 90.1707
L302.097 90.1707
L302.097 87.5946
L302.684 87.5946
L302.684 87.7779
L303.271 87.7779
L303.271 91.8689
L303.859 91.8689
L303.859 90.6531
L304.446 90.6531
L304.446 89.3892
L305.033 89.3892
L305.033 92.9109
L305.62 92.9109
L305.62 91.7627
L306.207 91.7627
L306.207 111.6
L306.794 111.6
L306.794 109.603
L307.381 109.603
L307.381 103.978
L307.968 103.978
L307.968 83.7352
L308.555 83.7352
L308.555 86.9385
L309.143 86.9385
L309.143 87.1411
L309.73 87.1411
L309.73 84.2176
L310.317 84.2176
L310.317 86.4368
L310.904 86.4368
L310.904 88.3182
L311.491 88.3182
L311.491 88.1156
L312.078 88.1156
L312.078 90.9523
L312.665 90.9523
L312.665 89.833
L313.839 89.833
L313.839 91.8592
L314.427 91.8592
L314.427 90.2479
L315.014 90.2479
L315.014 90.4312
L315.601 90.4312
L315.601 95.2748
L316.188 95.2748
L316.188 98.3044
L316.775 98.3044
L316.775 85.6938
L317.362 85.6938
L317.362 92.7179
L317.949 92.7179
L317.949 88.5208
L318.536 88.5208
L318.536 87.7007
L319.123 87.7007
L319.123 88.3375
L319.711 88.3375
L319.711 90.8751
L320.298 90.8751
L320.298 87.2762
L320.885 87.2762
L320.885 87.72
L321.472 87.72
L321.472 89.7558
L322.059 89.7558
L322.059 91.8303
L322.646 91.8303
L322.646 90.354
L323.233 90.354
L323.233 89.0226
L324.407 89.0611
L324.407 93.9722
L324.995 93.9722
L324.995 89.4085
L325.582 89.4085
L325.582 89.7172
L326.169 89.7172
L326.169 92.1294
L326.756 92.1294
L326.756 89.9102
L327.343 89.9102
L327.343 90.4119
L327.93 90.4119
L327.93 92.5153
L328.517 92.5153
L328.517 89.3988
L329.104 89.3988
L329.104 98.0825
L329.691 98.0825
L329.691 109.979
L330.279 109.979
L330.279 91.6083
L330.866 91.6083
L330.866 94.5897
L331.453 94.5897
L331.453 91.6566
L332.04 91.6566
L332.04 91.1452
L332.627 91.1452
L332.627 93.403
L333.214 93.403
L333.214 79.432
L333.801 79.432
L333.801 85.8771
L334.388 85.8771
L334.388 82.1528
L334.975 82.1528
L334.975 80.5415
L335.563 80.5415
L335.563 79.1522
L336.15 79.1522
L336.15 83.1659
L336.737 83.1659
L336.737 81.545
L337.324 81.545
L337.324 81.6801
L337.911 81.6801
L337.911 86.1666
L338.498 86.1666
L338.498 99.4622
L339.085 99.4622
L339.085 90.9233
L339.672 90.9233
L339.672 88.8489
L340.259 88.8489
L340.259 84.2273
L340.846 84.2273
L340.846 87.5656
L341.434 87.5656
L341.434 92.3609
L342.021 92.3609
L342.021 88.6849
L342.608 88.6849
L342.608 89.3795
L343.195 89.3795
L343.195 92.8434
L343.782 92.8434
L343.782 87.9805
L344.369 87.9805
L344.369 90.2286
L344.956 90.2286
L344.956 90.9619
L345.543 90.9619
L345.543 92.2548
L346.13 92.2548
L346.13 91.5505
L346.718 91.5505
L346.718 92.2644
L347.305 92.2644
L347.305 92.8337
L347.892 92.8337
L347.892 91.9267
L348.479 91.9267
L348.479 90.0549
L349.066 90.0549
L349.066 92.2548
L349.653 92.2548
L349.653 93.2389
L350.24 93.2389
L350.24 90.0067
L350.827 90.0067
L350.827 92.6407
L351.414 92.6407
L351.414 89.4374
L352.002 89.4374
L352.002 90.8172
L352.589 90.8172
L352.589 90.4988
L353.176 90.4988
L353.176 91.5215
L353.763 91.5215
L353.763 90.5567
L354.35 90.5567
L354.35 92.7855
L354.937 92.7855
L354.937 89.2927
L355.524 89.2927
L355.524 92.8916
L356.111 92.8916
L356.111 94.0301
L356.698 94.0301
L356.698 91.1452
L357.286 91.1452
L357.286 94.1941
L357.873 94.1941
L357.873 111.6
L358.46 111.6
L358.46 100.745
L359.047 100.745
L359.047 93.5284
L359.634 93.5284
L359.634 88.3375
L360.221 88.3375
L360.221 82.5388
L360.808 82.5388
L360.808 85.9254
L361.395 85.9254
L361.395 84.8834
L361.982 84.8834
L361.982 81.9213
L362.57 81.9213
L362.57 82.3748
L363.157 82.3748
L363.157 82.6546
L363.744 82.6546
L363.744 87.2183
L364.331 87.2183
L364.331 82.0274
L364.918 82.0274
L364.918 81.3713
L365.505 81.3713
L365.505 84.7869
L366.092 84.7869
L366.092 91.4443
L366.679 91.4443
L366.679 84.8062
L367.266 84.8062
L367.266 88.5208
L367.854 88.5208
L367.854 92.1197
L368.441 92.1197
L368.441 88.2314
L369.028 88.2314
L369.028 92.9784
L369.615 92.9784
L369.615 88.2796
L370.202 88.2796
L370.202 88.9936
L370.789 88.9936
L370.789 93.5284
L371.376 93.5284
L371.376 91.1838
L371.963 91.1838
L371.963 91.6952
L372.55 91.6952
L372.55 94.088
L373.138 94.088
L373.138 92.496
L373.725 92.496
L373.725 91.8206
L374.312 91.8206
L374.312 92.9784
L374.899 92.9784
L374.899 91.6759
L375.486 91.6759
L375.486 92.6214
L376.073 92.6214
L376.073 94.1652
L377.247 94.2424
L377.247 93.731
L377.834 93.731
L377.834 97.2141
L378.422 97.2141
L378.422 93.9722
L379.009 93.9722
L379.009 91.8399
L379.596 91.8399
L379.596 94.1362
L380.77 94.0591
L380.77 91.7241
L381.357 91.7241
L381.357 95.7765
L381.944 95.7765
L381.944 93.9047
L382.531 93.9047
L382.531 95.4388
L383.118 95.4388
L383.118 92.139
L383.706 92.139
L383.706 93.9529
L384.293 93.9529
L384.293 96.7703
L384.88 96.7703
L384.88 93.7889
L385.467 93.7889
L385.467 97.5904
L386.641 97.6579
L386.641 93.9433
L387.228 93.9433
L387.228 94.2906
L387.815 94.2906
L387.815 96.6931
L388.402 96.6931
L388.402 95.2844
L388.99 95.2844
L388.99 94.9757
L389.577 94.9757
L389.577 95.6414
L390.164 95.6414
L390.164 94.2038
L390.751 94.2038
L390.751 93.6731
L391.338 93.6731
L391.338 92.6793
L391.925 92.6793
L391.925 92.0908
L392.512 92.0908
L392.512 93.9626
L393.099 93.9626
L393.099 93.7117
L394.274 93.7214
L394.274 109.545
L394.861 109.545
L394.861 111.6
L395.448 111.6
L395.448 97.0694
L396.035 97.0694
L396.035 93.7117
L396.622 93.7117
L396.622 95.2458
L397.209 95.2458
L397.209 93.4802
L397.796 93.4802
L397.796 93.4802" style="fill:none;stroke:#0000ff;"/>
   </g>
   <g id="matplotlib.axis_1">
    <g id="xtick_1">
     <g id="line2d_28">
      <defs>
       <path d="
M0 0
L0 -4" id="m0012dd4eef" style="stroke:#000000;stroke-linecap:butt;stroke-width:0.5;"/>
      </defs>
      <g>
       <use style="stroke:#000000;stroke-linecap:butt;stroke-width:0.5;" x="46.1171875" xlink:href="#m0012dd4eef" y="111.6"/>
      </g>
     </g>
     <g id="line2d_29">
      <defs>
       <path d="
M0 0
L0 4" id="m476344969c" style="stroke:#000000;stroke-linecap:butt;stroke-width:0.5;"/>
      </defs>
      <g>
       <use style="stroke:#000000;stroke-linecap:butt;stroke-width:0.5;" x="46.1171875" xlink:href="#m476344969c" y="32.0"/>
      </g>
     </g>
     <g id="text_1">
      <!-- 0 -->
      <defs>
       <path d="
M31.7812 66.4062
Q24.1719 66.4062 20.3281 58.9062
Q16.5 51.4219 16.5 36.375
Q16.5 21.3906 20.3281 13.8906
Q24.1719 6.39062 31.7812 6.39062
Q39.4531 6.39062 43.2812 13.8906
Q47.125 21.3906 47.125 36.375
Q47.125 51.4219 43.2812 58.9062
Q39.4531 66.4062 31.7812 66.4062
M31.7812 74.2188
Q44.0469 74.2188 50.5156 64.5156
Q56.9844 54.8281 56.9844 36.375
Q56.9844 17.9688 50.5156 8.26562
Q44.0469 -1.42188 31.7812 -1.42188
Q19.5312 -1.42188 13.0625 8.26562
Q6.59375 17.9688 6.59375 36.375
Q6.59375 54.8281 13.0625 64.5156
Q19.5312 74.2188 31.7812 74.2188" id="DejaVuSans-30"/>
      </defs>
      <g transform="translate(43.59765625 123.021875)scale(0.1 -0.1)">
       <use xlink:href="#DejaVuSans-30"/>
      </g>
     </g>
    </g>
    <g id="xtick_2">
     <g id="line2d_30">
      <g>
       <use style="stroke:#000000;stroke-linecap:butt;stroke-width:0.5;" x="135.073242188" xlink:href="#m0012dd4eef" y="111.6"/>
      </g>
     </g>
     <g id="line2d_31">
      <g>
       <use style="stroke:#000000;stroke-linecap:butt;stroke-width:0.5;" x="135.073242188" xlink:href="#m476344969c" y="32.0"/>
      </g>
     </g>
     <g id="text_2">
      <!-- 500 -->
      <defs>
       <path d="
M10.7969 72.9062
L49.5156 72.9062
L49.5156 64.5938
L19.8281 64.5938
L19.8281 46.7344
Q21.9688 47.4688 24.1094 47.8281
Q26.2656 48.1875 28.4219 48.1875
Q40.625 48.1875 47.75 41.5
Q54.8906 34.8125 54.8906 23.3906
Q54.8906 11.625 47.5625 5.09375
Q40.2344 -1.42188 26.9062 -1.42188
Q22.3125 -1.42188 17.5469 -0.640625
Q12.7969 0.140625 7.71875 1.70312
L7.71875 11.625
Q12.1094 9.23438 16.7969 8.0625
Q21.4844 6.89062 26.7031 6.89062
Q35.1562 6.89062 40.0781 11.3281
Q45.0156 15.7656 45.0156 23.3906
Q45.0156 31 40.0781 35.4375
Q35.1562 39.8906 26.7031 39.8906
Q22.75 39.8906 18.8125 39.0156
Q14.8906 38.1406 10.7969 36.2812
z
" id="DejaVuSans-35"/>
      </defs>
      <g transform="translate(126.247460938 123.021875)scale(0.1 -0.1)">
       <use xlink:href="#DejaVuSans-35"/>
       <use x="63.623046875" xlink:href="#DejaVuSans-30"/>
       <use x="127.24609375" xlink:href="#DejaVuSans-30"/>
      </g>
     </g>
    </g>
    <g id="xtick_3">
     <g id="line2d_32">
      <g>
       <use style="stroke:#000000;stroke-linecap:butt;stroke-width:0.5;" x="224.029296875" xlink:href="#m0012dd4eef" y="111.6"/>
      </g>
     </g>
     <g id="line2d_33">
      <g>
       <use style="stroke:#000000;stroke-linecap:butt;stroke-width:0.5;" x="224.029296875" xlink:href="#m476344969c" y="32.0"/>
      </g>
     </g>
     <g id="text_3">
      <!-- 1000 -->
      <defs>
       <path d="
M12.4062 8.29688
L28.5156 8.29688
L28.5156 63.9219
L10.9844 60.4062
L10.9844 69.3906
L28.4219 72.9062
L38.2812 72.9062
L38.2812 8.29688
L54.3906 8.29688
L54.3906 0
L12.4062 0
z
" id="DejaVuSans-31"/>
      </defs>
      <g transform="translate(212.185546875 123.021875)scale(0.1 -0.1)">
       <use xlink:href="#DejaVuSans-31"/>
       <use x="63.623046875" xlink:href="#DejaVuSans-30"/>
       <use x="127.24609375" xlink:href="#DejaVuSans-30"/>
       <use x="190.869140625" xlink:href="#DejaVuSans-30"/>
      </g>
     </g>
    </g>
    <g id="xtick_4">
     <g id="line2d_34">
      <g>
       <use style="stroke:#000000;stroke-linecap:butt;stroke-width:0.5;" x="312.985351563" xlink:href="#m0012dd4eef" y="111.6"/>
      </g>
     </g>
     <g id="line2d_35">
      <g>
       <use style="stroke:#000000;stroke-linecap:butt;stroke-width:0.5;" x="312.985351563" xlink:href="#m476344969c" y="32.0"/>
      </g>
     </g>
     <g id="text_4">
      <!-- 1500 -->
      <g transform="translate(301.141601563 123.021875)scale(0.1 -0.1)">
       <use xlink:href="#DejaVuSans-31"/>
       <use x="63.623046875" xlink:href="#DejaVuSans-35"/>
       <use x="127.24609375" xlink:href="#DejaVuSans-30"/>
       <use x="190.869140625" xlink:href="#DejaVuSans-30"/>
      </g>
     </g>
    </g>
    <g id="xtick_5">
     <g id="line2d_36">
      <g>
       <use style="stroke:#000000;stroke-linecap:butt;stroke-width:0.5;" x="401.94140625" xlink:href="#m0012dd4eef" y="111.6"/>
      </g>
     </g>
     <g id="line2d_37">
      <g>
       <use style="stroke:#000000;stroke-linecap:butt;stroke-width:0.5;" x="401.94140625" xlink:href="#m476344969c" y="32.0"/>
      </g>
     </g>
     <g id="text_5">
      <!-- 2000 -->
      <defs>
       <path d="
M19.1875 8.29688
L53.6094 8.29688
L53.6094 0
L7.32812 0
L7.32812 8.29688
Q12.9375 14.1094 22.625 23.8906
Q32.3281 33.6875 34.8125 36.5312
Q39.5469 41.8438 41.4219 45.5312
Q43.3125 49.2188 43.3125 52.7812
Q43.3125 58.5938 39.2344 62.25
Q35.1562 65.9219 28.6094 65.9219
Q23.9688 65.9219 18.8125 64.3125
Q13.6719 62.7031 7.8125 59.4219
L7.8125 69.3906
Q13.7656 71.7812 18.9375 73
Q24.125 74.2188 28.4219 74.2188
Q39.75 74.2188 46.4844 68.5469
Q53.2188 62.8906 53.2188 53.4219
Q53.2188 48.9219 51.5312 44.8906
Q49.8594 40.875 45.4062 35.4062
Q44.1875 33.9844 37.6406 27.2188
Q31.1094 20.4531 19.1875 8.29688" id="DejaVuSans-32"/>
      </defs>
      <g transform="translate(389.91484375 123.021875)scale(0.1 -0.1)">
       <use xlink:href="#DejaVuSans-32"/>
       <use x="63.623046875" xlink:href="#DejaVuSans-30"/>
       <use x="127.24609375" xlink:href="#DejaVuSans-30"/>
       <use x="190.869140625" xlink:href="#DejaVuSans-30"/>
      </g>
     </g>
    </g>
    <g id="text_6">
     <!-- Time -->
     <defs>
      <path d="
M52 44.1875
Q55.375 50.25 60.0625 53.125
Q64.75 56 71.0938 56
Q79.6406 56 84.2812 50.0156
Q88.9219 44.0469 88.9219 33.0156
L88.9219 0
L79.8906 0
L79.8906 32.7188
Q79.8906 40.5781 77.0938 44.375
Q74.3125 48.1875 68.6094 48.1875
Q61.625 48.1875 57.5625 43.5469
Q53.5156 38.9219 53.5156 30.9062
L53.5156 0
L44.4844 0
L44.4844 32.7188
Q44.4844 40.625 41.7031 44.4062
Q38.9219 48.1875 33.1094 48.1875
Q26.2188 48.1875 22.1562 43.5312
Q18.1094 38.875 18.1094 30.9062
L18.1094 0
L9.07812 0
L9.07812 54.6875
L18.1094 54.6875
L18.1094 46.1875
Q21.1875 51.2188 25.4844 53.6094
Q29.7812 56 35.6875 56
Q41.6562 56 45.8281 52.9688
Q50 49.9531 52 44.1875" id="DejaVuSans-6d"/>
      <path d="
M9.42188 54.6875
L18.4062 54.6875
L18.4062 0
L9.42188 0
z

M9.42188 75.9844
L18.4062 75.9844
L18.4062 64.5938
L9.42188 64.5938
z
" id="DejaVuSans-69"/>
      <path d="
M56.2031 29.5938
L56.2031 25.2031
L14.8906 25.2031
Q15.4844 15.9219 20.4844 11.0625
Q25.4844 6.20312 34.4219 6.20312
Q39.5938 6.20312 44.4531 7.46875
Q49.3125 8.73438 54.1094 11.2812
L54.1094 2.78125
Q49.2656 0.734375 44.1875 -0.34375
Q39.1094 -1.42188 33.8906 -1.42188
Q20.7969 -1.42188 13.1562 6.1875
Q5.51562 13.8125 5.51562 26.8125
Q5.51562 40.2344 12.7656 48.1094
Q20.0156 56 32.3281 56
Q43.3594 56 49.7812 48.8906
Q56.2031 41.7969 56.2031 29.5938
M47.2188 32.2344
Q47.125 39.5938 43.0938 43.9844
Q39.0625 48.3906 32.4219 48.3906
Q24.9062 48.3906 20.3906 44.1406
Q15.875 39.8906 15.1875 32.1719
z
" id="DejaVuSans-65"/>
      <path d="
M-0.296875 72.9062
L61.375 72.9062
L61.375 64.5938
L35.5 64.5938
L35.5 0
L25.5938 0
L25.5938 64.5938
L-0.296875 64.5938
z
" id="DejaVuSans-54"/>
     </defs>
     <g transform="translate(212.047265625 135.7625)scale(0.1 -0.1)">
      <use xlink:href="#DejaVuSans-54"/>
      <use x="57.958984375" xlink:href="#DejaVuSans-69"/>
      <use x="85.7421875" xlink:href="#DejaVuSans-6d"/>
      <use x="183.154296875" xlink:href="#DejaVuSans-65"/>
     </g>
    </g>
   </g>
   <g id="matplotlib.axis_2">
    <g id="ytick_1">
     <g id="line2d_38">
      <defs>
       <path d="
M0 0
L4 0" id="me8a85f7bf6" style="stroke:#000000;stroke-linecap:butt;stroke-width:0.5;"/>
      </defs>
      <g>
       <use style="stroke:#000000;stroke-linecap:butt;stroke-width:0.5;" x="46.1171875" xlink:href="#me8a85f7bf6" y="111.6"/>
      </g>
     </g>
     <g id="line2d_39">
      <defs>
       <path d="
M0 0
L-4 0" id="m1a32005dea" style="stroke:#000000;stroke-linecap:butt;stroke-width:0.5;"/>
      </defs>
      <g>
       <use style="stroke:#000000;stroke-linecap:butt;stroke-width:0.5;" x="401.94140625" xlink:href="#m1a32005dea" y="111.6"/>
      </g>
     </g>
     <g id="text_7">
      <!-- 0 -->
      <g transform="translate(37.078125 115.23984375)scale(0.1 -0.1)">
       <use xlink:href="#DejaVuSans-30"/>
      </g>
     </g>
    </g>
    <g id="ytick_2">
     <g id="line2d_40">
      <g>
       <use style="stroke:#000000;stroke-linecap:butt;stroke-width:0.5;" x="46.1171875" xlink:href="#me8a85f7bf6" y="95.68"/>
      </g>
     </g>
     <g id="line2d_41">
      <g>
       <use style="stroke:#000000;stroke-linecap:butt;stroke-width:0.5;" x="401.94140625" xlink:href="#m1a32005dea" y="95.68"/>
      </g>
     </g>
     <g id="text_8">
      <!-- 500 -->
      <g transform="translate(24.465625 99.31984375)scale(0.1 -0.1)">
       <use xlink:href="#DejaVuSans-35"/>
       <use x="63.623046875" xlink:href="#DejaVuSans-30"/>
       <use x="127.24609375" xlink:href="#DejaVuSans-30"/>
      </g>
     </g>
    </g>
    <g id="ytick_3">
     <g id="line2d_42">
      <g>
       <use style="stroke:#000000;stroke-linecap:butt;stroke-width:0.5;" x="46.1171875" xlink:href="#me8a85f7bf6" y="79.76"/>
      </g>
     </g>
     <g id="line2d_43">
      <g>
       <use style="stroke:#000000;stroke-linecap:butt;stroke-width:0.5;" x="401.94140625" xlink:href="#m1a32005dea" y="79.76"/>
      </g>
     </g>
     <g id="text_9">
      <!-- 1000 -->
      <g transform="translate(18.4296875 83.39984375)scale(0.1 -0.1)">
       <use xlink:href="#DejaVuSans-31"/>
       <use x="63.623046875" xlink:href="#DejaVuSans-30"/>
       <use x="127.24609375" xlink:href="#DejaVuSans-30"/>
       <use x="190.869140625" xlink:href="#DejaVuSans-30"/>
      </g>
     </g>
    </g>
    <g id="ytick_4">
     <g id="line2d_44">
      <g>
       <use style="stroke:#000000;stroke-linecap:butt;stroke-width:0.5;" x="46.1171875" xlink:href="#me8a85f7bf6" y="63.84"/>
      </g>
     </g>
     <g id="line2d_45">
      <g>
       <use style="stroke:#000000;stroke-linecap:butt;stroke-width:0.5;" x="401.94140625" xlink:href="#m1a32005dea" y="63.84"/>
      </g>
     </g>
     <g id="text_10">
      <!-- 1500 -->
      <g transform="translate(18.4296875 67.47984375)scale(0.1 -0.1)">
       <use xlink:href="#DejaVuSans-31"/>
       <use x="63.623046875" xlink:href="#DejaVuSans-35"/>
       <use x="127.24609375" xlink:href="#DejaVuSans-30"/>
       <use x="190.869140625" xlink:href="#DejaVuSans-30"/>
      </g>
     </g>
    </g>
    <g id="ytick_5">
     <g id="line2d_46">
      <g>
       <use style="stroke:#000000;stroke-linecap:butt;stroke-width:0.5;" x="46.1171875" xlink:href="#me8a85f7bf6" y="47.92"/>
      </g>
     </g>
     <g id="line2d_47">
      <g>
       <use style="stroke:#000000;stroke-linecap:butt;stroke-width:0.5;" x="401.94140625" xlink:href="#m1a32005dea" y="47.92"/>
      </g>
     </g>
     <g id="text_11">
      <!-- 2000 -->
      <g transform="translate(18.0640625 51.55984375)scale(0.1 -0.1)">
       <use xlink:href="#DejaVuSans-32"/>
       <use x="63.623046875" xlink:href="#DejaVuSans-30"/>
       <use x="127.24609375" xlink:href="#DejaVuSans-30"/>
       <use x="190.869140625" xlink:href="#DejaVuSans-30"/>
      </g>
     </g>
    </g>
    <g id="ytick_6">
     <g id="line2d_48">
      <g>
       <use style="stroke:#000000;stroke-linecap:butt;stroke-width:0.5;" x="46.1171875" xlink:href="#me8a85f7bf6" y="32.0"/>
      </g>
     </g>
     <g id="line2d_49">
      <g>
       <use style="stroke:#000000;stroke-linecap:butt;stroke-width:0.5;" x="401.94140625" xlink:href="#m1a32005dea" y="32.0"/>
      </g>
     </g>
     <g id="text_12">
      <!-- 2500 -->
      <g transform="translate(18.0640625 35.63984375)scale(0.1 -0.1)">
       <use xlink:href="#DejaVuSans-32"/>
       <use x="63.623046875" xlink:href="#DejaVuSans-35"/>
       <use x="127.24609375" xlink:href="#DejaVuSans-30"/>
       <use x="190.869140625" xlink:href="#DejaVuSans-30"/>
      </g>
     </g>
    </g>
   </g>
   <g id="patch_3">
    <path d="
M46.1172 32
L401.941 32" style="fill:none;stroke:#000000;"/>
   </g>
   <g id="patch_4">
    <path d="
M401.941 111.6
L401.941 32" style="fill:none;stroke:#000000;"/>
   </g>
   <g id="patch_5">
    <path d="
M46.1172 111.6
L401.941 111.6" style="fill:none;stroke:#000000;"/>
   </g>
   <g id="patch_6">
    <path d="
M46.1172 111.6
L46.1172 32" style="fill:none;stroke:#000000;"/>
   </g>
   <g id="text_13">
    <!-- OLTP -->
    <defs>
     <path d="
M39.4062 66.2188
Q28.6562 66.2188 22.3281 58.2031
Q16.0156 50.2031 16.0156 36.375
Q16.0156 22.6094 22.3281 14.5938
Q28.6562 6.59375 39.4062 6.59375
Q50.1406 6.59375 56.4219 14.5938
Q62.7031 22.6094 62.7031 36.375
Q62.7031 50.2031 56.4219 58.2031
Q50.1406 66.2188 39.4062 66.2188
M39.4062 74.2188
Q54.7344 74.2188 63.9062 63.9375
Q73.0938 53.6562 73.0938 36.375
Q73.0938 19.1406 63.9062 8.85938
Q54.7344 -1.42188 39.4062 -1.42188
Q24.0312 -1.42188 14.8125 8.82812
Q5.60938 19.0938 5.60938 36.375
Q5.60938 53.6562 14.8125 63.9375
Q24.0312 74.2188 39.4062 74.2188" id="DejaVuSans-4f"/>
     <path d="
M19.6719 64.7969
L19.6719 37.4062
L32.0781 37.4062
Q38.9688 37.4062 42.7188 40.9688
Q46.4844 44.5312 46.4844 51.125
Q46.4844 57.6719 42.7188 61.2344
Q38.9688 64.7969 32.0781 64.7969
z

M9.8125 72.9062
L32.0781 72.9062
Q44.3438 72.9062 50.6094 67.3594
Q56.8906 61.8125 56.8906 51.125
Q56.8906 40.3281 50.6094 34.8125
Q44.3438 29.2969 32.0781 29.2969
L19.6719 29.2969
L19.6719 0
L9.8125 0
z
" id="DejaVuSans-50"/>
     <path d="
M9.8125 72.9062
L19.6719 72.9062
L19.6719 8.29688
L55.1719 8.29688
L55.1719 0
L9.8125 0
z
" id="DejaVuSans-4c"/>
    </defs>
    <g transform="translate(210.046484375 27.0)scale(0.12 -0.12)">
     <use xlink:href="#DejaVuSans-4f"/>
     <use x="78.7109375" xlink:href="#DejaVuSans-4c"/>
     <use x="120.673828125" xlink:href="#DejaVuSans-54"/>
     <use x="181.7578125" xlink:href="#DejaVuSans-50"/>
    </g>
   </g>
  </g>
  <g id="axes_2">
   <g id="patch_7">
    <path d="
M46.1172 246.6
L401.941 246.6
L401.941 167
L46.1172 167
z
" style="fill:#ffffff;"/>
   </g>
   <g id="line2d_50">
    <path clip-path="url(#pe9bd9c4693)" d="
M56.7922 246.6
L56.7922 167" style="fill:none;stroke:#00ffff;stroke-dasharray:6.000000,6.000000;stroke-dashoffset:0.0;stroke-linecap:butt;"/>
   </g>
   <g id="line2d_51">
    <path clip-path="url(#pe9bd9c4693)" d="
M78.1419 246.6
L78.1419 167" style="fill:none;stroke:#00ffff;stroke-dasharray:6.000000,6.000000;stroke-dashoffset:0.0;stroke-linecap:butt;"/>
   </g>
   <g id="line2d_52">
    <path clip-path="url(#pe9bd9c4693)" d="
M99.4913 246.6
L99.4913 167" style="fill:none;stroke:#00ffff;stroke-dasharray:6.000000,6.000000;stroke-dashoffset:0.0;stroke-linecap:butt;"/>
   </g>
   <g id="line2d_53">
    <path clip-path="url(#pe9bd9c4693)" d="
M99.4914 246.6
L99.4914 167" style="fill:none;stroke:#00ffff;stroke-dasharray:6.000000,6.000000;stroke-dashoffset:0.0;stroke-linecap:butt;"/>
   </g>
   <g id="line2d_54">
    <path clip-path="url(#pe9bd9c4693)" d="
M99.4917 246.6
L99.4917 167" style="fill:none;stroke:#00ffff;stroke-dasharray:6.000000,6.000000;stroke-dashoffset:0.0;stroke-linecap:butt;"/>
   </g>
   <g id="line2d_55">
    <path clip-path="url(#pe9bd9c4693)" d="
M120.841 246.6
L120.841 167" style="fill:none;stroke:#00ffff;stroke-dasharray:6.000000,6.000000;stroke-dashoffset:0.0;stroke-linecap:butt;"/>
   </g>
   <g id="line2d_56">
    <path clip-path="url(#pe9bd9c4693)" d="
M120.841 246.6
L120.841 167" style="fill:none;stroke:#00ffff;stroke-dasharray:6.000000,6.000000;stroke-dashoffset:0.0;stroke-linecap:butt;"/>
   </g>
   <g id="line2d_57">
    <path clip-path="url(#pe9bd9c4693)" d="
M120.841 246.6
L120.841 167" style="fill:none;stroke:#00ffff;stroke-dasharray:6.000000,6.000000;stroke-dashoffset:0.0;stroke-linecap:butt;"/>
   </g>
   <g id="line2d_58">
    <path clip-path="url(#pe9bd9c4693)" d="
M142.19 246.6
L142.19 167" style="fill:none;stroke:#00ffff;stroke-dasharray:6.000000,6.000000;stroke-dashoffset:0.0;stroke-linecap:butt;"/>
   </g>
   <g id="line2d_59">
    <path clip-path="url(#pe9bd9c4693)" d="
M142.19 246.6
L142.19 167" style="fill:none;stroke:#00ffff;stroke-dasharray:6.000000,6.000000;stroke-dashoffset:0.0;stroke-linecap:butt;"/>
   </g>
   <g id="line2d_60">
    <path clip-path="url(#pe9bd9c4693)" d="
M163.539 246.6
L163.539 167" style="fill:none;stroke:#00ffff;stroke-dasharray:6.000000,6.000000;stroke-dashoffset:0.0;stroke-linecap:butt;"/>
   </g>
   <g id="line2d_61">
    <path clip-path="url(#pe9bd9c4693)" d="
M163.54 246.6
L163.54 167" style="fill:none;stroke:#00ffff;stroke-dasharray:6.000000,6.000000;stroke-dashoffset:0.0;stroke-linecap:butt;"/>
   </g>
   <g id="line2d_62">
    <path clip-path="url(#pe9bd9c4693)" d="
M184.889 246.6
L184.889 167" style="fill:none;stroke:#00ffff;stroke-dasharray:6.000000,6.000000;stroke-dashoffset:0.0;stroke-linecap:butt;"/>
   </g>
   <g id="line2d_63">
    <path clip-path="url(#pe9bd9c4693)" d="
M206.238 246.6
L206.238 167" style="fill:none;stroke:#00ffff;stroke-dasharray:6.000000,6.000000;stroke-dashoffset:0.0;stroke-linecap:butt;"/>
   </g>
   <g id="line2d_64">
    <path clip-path="url(#pe9bd9c4693)" d="
M206.238 246.6
L206.238 167" style="fill:none;stroke:#00ffff;stroke-dasharray:6.000000,6.000000;stroke-dashoffset:0.0;stroke-linecap:butt;"/>
   </g>
   <g id="line2d_65">
    <path clip-path="url(#pe9bd9c4693)" d="
M227.588 246.6
L227.588 167" style="fill:none;stroke:#00ffff;stroke-dasharray:6.000000,6.000000;stroke-dashoffset:0.0;stroke-linecap:butt;"/>
   </g>
   <g id="line2d_66">
    <path clip-path="url(#pe9bd9c4693)" d="
M227.588 246.6
L227.588 167" style="fill:none;stroke:#00ffff;stroke-dasharray:6.000000,6.000000;stroke-dashoffset:0.0;stroke-linecap:butt;"/>
   </g>
   <g id="line2d_67">
    <path clip-path="url(#pe9bd9c4693)" d="
M248.937 246.6
L248.937 167" style="fill:none;stroke:#00ffff;stroke-dasharray:6.000000,6.000000;stroke-dashoffset:0.0;stroke-linecap:butt;"/>
   </g>
   <g id="line2d_68">
    <path clip-path="url(#pe9bd9c4693)" d="
M248.938 246.6
L248.938 167" style="fill:none;stroke:#00ffff;stroke-dasharray:6.000000,6.000000;stroke-dashoffset:0.0;stroke-linecap:butt;"/>
   </g>
   <g id="line2d_69">
    <path clip-path="url(#pe9bd9c4693)" d="
M270.287 246.6
L270.287 167" style="fill:none;stroke:#00ffff;stroke-dasharray:6.000000,6.000000;stroke-dashoffset:0.0;stroke-linecap:butt;"/>
   </g>
   <g id="line2d_70">
    <path clip-path="url(#pe9bd9c4693)" d="
M270.287 246.6
L270.287 167" style="fill:none;stroke:#00ffff;stroke-dasharray:6.000000,6.000000;stroke-dashoffset:0.0;stroke-linecap:butt;"/>
   </g>
   <g id="line2d_71">
    <path clip-path="url(#pe9bd9c4693)" d="
M291.637 246.6
L291.637 167" style="fill:none;stroke:#00ffff;stroke-dasharray:6.000000,6.000000;stroke-dashoffset:0.0;stroke-linecap:butt;"/>
   </g>
   <g id="line2d_72">
    <path clip-path="url(#pe9bd9c4693)" d="
M312.986 246.6
L312.986 167" style="fill:none;stroke:#00ffff;stroke-dasharray:6.000000,6.000000;stroke-dashoffset:0.0;stroke-linecap:butt;"/>
   </g>
   <g id="line2d_73">
    <path clip-path="url(#pe9bd9c4693)" d="
M334.335 246.6
L334.335 167" style="fill:none;stroke:#00ffff;stroke-dasharray:6.000000,6.000000;stroke-dashoffset:0.0;stroke-linecap:butt;"/>
   </g>
   <g id="line2d_74">
    <path clip-path="url(#pe9bd9c4693)" d="
M355.684 246.6
L355.684 167" style="fill:none;stroke:#00ffff;stroke-dasharray:6.000000,6.000000;stroke-dashoffset:0.0;stroke-linecap:butt;"/>
   </g>
   <g id="line2d_75">
    <path clip-path="url(#pe9bd9c4693)" d="
M377.061 246.6
L377.061 167" style="fill:none;stroke:#00ffff;stroke-dasharray:6.000000,6.000000;stroke-dashoffset:0.0;stroke-linecap:butt;"/>
   </g>
   <g id="line2d_76">
    <path clip-path="url(#pe9bd9c4693)" d="
M57.25 227.601
L57.25 222.758
L77.2578 222.758
L77.2578 226.669
L97.2656 226.669
L97.2656 230.581
L117.273 230.581
L117.273 230.209
L137.281 230.209
L137.281 234.12
L157.289 234.12
L157.289 229.091
L177.297 229.091
L177.297 236.169
L197.305 236.169
L197.305 231.885
L217.312 231.885
L217.312 227.973
L237.32 227.973
L237.32 232.816
L257.328 232.816
L257.328 237.845
L277.336 237.845
L277.336 235.238
L297.344 235.238
L297.344 234.12
L317.351 234.12
L317.351 231.326
L337.359 231.326
L337.359 236.169
L357.367 236.169
L357.367 231.885
L377.375 231.885" style="fill:none;stroke:#008000;"/>
   </g>
   <g id="matplotlib.axis_3">
    <g id="xtick_6">
     <g id="line2d_77">
      <g>
       <use style="stroke:#000000;stroke-linecap:butt;stroke-width:0.5;" x="46.1171875" xlink:href="#m0012dd4eef" y="246.6"/>
      </g>
     </g>
     <g id="line2d_78">
      <g>
       <use style="stroke:#000000;stroke-linecap:butt;stroke-width:0.5;" x="46.1171875" xlink:href="#m476344969c" y="167.0"/>
      </g>
     </g>
     <g id="text_14">
      <!-- 0 -->
      <g transform="translate(43.59765625 258.021875)scale(0.1 -0.1)">
       <use xlink:href="#DejaVuSans-30"/>
      </g>
     </g>
    </g>
    <g id="xtick_7">
     <g id="line2d_79">
      <g>
       <use style="stroke:#000000;stroke-linecap:butt;stroke-width:0.5;" x="135.073242188" xlink:href="#m0012dd4eef" y="246.6"/>
      </g>
     </g>
     <g id="line2d_80">
      <g>
       <use style="stroke:#000000;stroke-linecap:butt;stroke-width:0.5;" x="135.073242188" xlink:href="#m476344969c" y="167.0"/>
      </g>
     </g>
     <g id="text_15">
      <!-- 500 -->
      <g transform="translate(126.247460938 258.021875)scale(0.1 -0.1)">
       <use xlink:href="#DejaVuSans-35"/>
       <use x="63.623046875" xlink:href="#DejaVuSans-30"/>
       <use x="127.24609375" xlink:href="#DejaVuSans-30"/>
      </g>
     </g>
    </g>
    <g id="xtick_8">
     <g id="line2d_81">
      <g>
       <use style="stroke:#000000;stroke-linecap:butt;stroke-width:0.5;" x="224.029296875" xlink:href="#m0012dd4eef" y="246.6"/>
      </g>
     </g>
     <g id="line2d_82">
      <g>
       <use style="stroke:#000000;stroke-linecap:butt;stroke-width:0.5;" x="224.029296875" xlink:href="#m476344969c" y="167.0"/>
      </g>
     </g>
     <g id="text_16">
      <!-- 1000 -->
      <g transform="translate(212.185546875 258.021875)scale(0.1 -0.1)">
       <use xlink:href="#DejaVuSans-31"/>
       <use x="63.623046875" xlink:href="#DejaVuSans-30"/>
       <use x="127.24609375" xlink:href="#DejaVuSans-30"/>
       <use x="190.869140625" xlink:href="#DejaVuSans-30"/>
      </g>
     </g>
    </g>
    <g id="xtick_9">
     <g id="line2d_83">
      <g>
       <use style="stroke:#000000;stroke-linecap:butt;stroke-width:0.5;" x="312.985351563" xlink:href="#m0012dd4eef" y="246.6"/>
      </g>
     </g>
     <g id="line2d_84">
      <g>
       <use style="stroke:#000000;stroke-linecap:butt;stroke-width:0.5;" x="312.985351563" xlink:href="#m476344969c" y="167.0"/>
      </g>
     </g>
     <g id="text_17">
      <!-- 1500 -->
      <g transform="translate(301.141601563 258.021875)scale(0.1 -0.1)">
       <use xlink:href="#DejaVuSans-31"/>
       <use x="63.623046875" xlink:href="#DejaVuSans-35"/>
       <use x="127.24609375" xlink:href="#DejaVuSans-30"/>
       <use x="190.869140625" xlink:href="#DejaVuSans-30"/>
      </g>
     </g>
    </g>
    <g id="xtick_10">
     <g id="line2d_85">
      <g>
       <use style="stroke:#000000;stroke-linecap:butt;stroke-width:0.5;" x="401.94140625" xlink:href="#m0012dd4eef" y="246.6"/>
      </g>
     </g>
     <g id="line2d_86">
      <g>
       <use style="stroke:#000000;stroke-linecap:butt;stroke-width:0.5;" x="401.94140625" xlink:href="#m476344969c" y="167.0"/>
      </g>
     </g>
     <g id="text_18">
      <!-- 2000 -->
      <g transform="translate(389.91484375 258.021875)scale(0.1 -0.1)">
       <use xlink:href="#DejaVuSans-32"/>
       <use x="63.623046875" xlink:href="#DejaVuSans-30"/>
       <use x="127.24609375" xlink:href="#DejaVuSans-30"/>
       <use x="190.869140625" xlink:href="#DejaVuSans-30"/>
      </g>
     </g>
    </g>
    <g id="text_19">
     <!-- Time -->
     <g transform="translate(212.047265625 270.7625)scale(0.1 -0.1)">
      <use xlink:href="#DejaVuSans-54"/>
      <use x="57.958984375" xlink:href="#DejaVuSans-69"/>
      <use x="85.7421875" xlink:href="#DejaVuSans-6d"/>
      <use x="183.154296875" xlink:href="#DejaVuSans-65"/>
     </g>
    </g>
   </g>
   <g id="matplotlib.axis_4">
    <g id="ytick_7">
     <g id="line2d_87">
      <g>
       <use style="stroke:#000000;stroke-linecap:butt;stroke-width:0.5;" x="46.1171875" xlink:href="#me8a85f7bf6" y="246.6"/>
      </g>
     </g>
     <g id="line2d_88">
      <g>
       <use style="stroke:#000000;stroke-linecap:butt;stroke-width:0.5;" x="401.94140625" xlink:href="#m1a32005dea" y="246.6"/>
      </g>
     </g>
     <g id="text_20">
      <!-- 0.0 -->
      <defs>
       <path d="
M10.6875 12.4062
L21 12.4062
L21 0
L10.6875 0
z
" id="DejaVuSans-2e"/>
      </defs>
      <g transform="translate(27.5375 250.23984375)scale(0.1 -0.1)">
       <use xlink:href="#DejaVuSans-30"/>
       <use x="63.623046875" xlink:href="#DejaVuSans-2e"/>
       <use x="95.41015625" xlink:href="#DejaVuSans-30"/>
      </g>
     </g>
    </g>
    <g id="ytick_8">
     <g id="line2d_89">
      <g>
       <use style="stroke:#000000;stroke-linecap:butt;stroke-width:0.5;" x="46.1171875" xlink:href="#me8a85f7bf6" y="236.126315789"/>
      </g>
     </g>
     <g id="line2d_90">
      <g>
       <use style="stroke:#000000;stroke-linecap:butt;stroke-width:0.5;" x="401.94140625" xlink:href="#m1a32005dea" y="236.126315789"/>
      </g>
     </g>
     <g id="text_21">
      <!-- 0.5 -->
      <g transform="translate(27.746875 239.766159539)scale(0.1 -0.1)">
       <use xlink:href="#DejaVuSans-30"/>
       <use x="63.623046875" xlink:href="#DejaVuSans-2e"/>
       <use x="95.41015625" xlink:href="#DejaVuSans-35"/>
      </g>
     </g>
    </g>
    <g id="ytick_9">
     <g id="line2d_91">
      <g>
       <use style="stroke:#000000;stroke-linecap:butt;stroke-width:0.5;" x="46.1171875" xlink:href="#me8a85f7bf6" y="225.652631579"/>
      </g>
     </g>
     <g id="line2d_92">
      <g>
       <use style="stroke:#000000;stroke-linecap:butt;stroke-width:0.5;" x="401.94140625" xlink:href="#m1a32005dea" y="225.652631579"/>
      </g>
     </g>
     <g id="text_22">
      <!-- 1.0 -->
      <g transform="translate(27.9765625 229.292475329)scale(0.1 -0.1)">
       <use xlink:href="#DejaVuSans-31"/>
       <use x="63.623046875" xlink:href="#DejaVuSans-2e"/>
       <use x="95.41015625" xlink:href="#DejaVuSans-30"/>
      </g>
     </g>
    </g>
    <g id="ytick_10">
     <g id="line2d_93">
      <g>
       <use style="stroke:#000000;stroke-linecap:butt;stroke-width:0.5;" x="46.1171875" xlink:href="#me8a85f7bf6" y="215.178947368"/>
      </g>
     </g>
     <g id="line2d_94">
      <g>
       <use style="stroke:#000000;stroke-linecap:butt;stroke-width:0.5;" x="401.94140625" xlink:href="#m1a32005dea" y="215.178947368"/>
      </g>
     </g>
     <g id="text_23">
      <!-- 1.5 -->
      <g transform="translate(28.1859375 218.753166118)scale(0.1 -0.1)">
       <use xlink:href="#DejaVuSans-31"/>
       <use x="63.623046875" xlink:href="#DejaVuSans-2e"/>
       <use x="95.41015625" xlink:href="#DejaVuSans-35"/>
      </g>
     </g>
    </g>
    <g id="ytick_11">
     <g id="line2d_95">
      <g>
       <use style="stroke:#000000;stroke-linecap:butt;stroke-width:0.5;" x="46.1171875" xlink:href="#me8a85f7bf6" y="204.705263158"/>
      </g>
     </g>
     <g id="line2d_96">
      <g>
       <use style="stroke:#000000;stroke-linecap:butt;stroke-width:0.5;" x="401.94140625" xlink:href="#m1a32005dea" y="204.705263158"/>
      </g>
     </g>
     <g id="text_24">
      <!-- 2.0 -->
      <g transform="translate(27.6109375 208.345106908)scale(0.1 -0.1)">
       <use xlink:href="#DejaVuSans-32"/>
       <use x="63.623046875" xlink:href="#DejaVuSans-2e"/>
       <use x="95.41015625" xlink:href="#DejaVuSans-30"/>
      </g>
     </g>
    </g>
    <g id="ytick_12">
     <g id="line2d_97">
      <g>
       <use style="stroke:#000000;stroke-linecap:butt;stroke-width:0.5;" x="46.1171875" xlink:href="#me8a85f7bf6" y="194.231578947"/>
      </g>
     </g>
     <g id="line2d_98">
      <g>
       <use style="stroke:#000000;stroke-linecap:butt;stroke-width:0.5;" x="401.94140625" xlink:href="#m1a32005dea" y="194.231578947"/>
      </g>
     </g>
     <g id="text_25">
      <!-- 2.5 -->
      <g transform="translate(27.8203125 197.871422697)scale(0.1 -0.1)">
       <use xlink:href="#DejaVuSans-32"/>
       <use x="63.623046875" xlink:href="#DejaVuSans-2e"/>
       <use x="95.41015625" xlink:href="#DejaVuSans-35"/>
      </g>
     </g>
    </g>
    <g id="ytick_13">
     <g id="line2d_99">
      <g>
       <use style="stroke:#000000;stroke-linecap:butt;stroke-width:0.5;" x="46.1171875" xlink:href="#me8a85f7bf6" y="183.757894737"/>
      </g>
     </g>
     <g id="line2d_100">
      <g>
       <use style="stroke:#000000;stroke-linecap:butt;stroke-width:0.5;" x="401.94140625" xlink:href="#m1a32005dea" y="183.757894737"/>
      </g>
     </g>
     <g id="text_26">
      <!-- 3.0 -->
      <defs>
       <path d="
M40.5781 39.3125
Q47.6562 37.7969 51.625 33
Q55.6094 28.2188 55.6094 21.1875
Q55.6094 10.4062 48.1875 4.48438
Q40.7656 -1.42188 27.0938 -1.42188
Q22.5156 -1.42188 17.6562 -0.515625
Q12.7969 0.390625 7.625 2.20312
L7.625 11.7188
Q11.7188 9.32812 16.5938 8.10938
Q21.4844 6.89062 26.8125 6.89062
Q36.0781 6.89062 40.9375 10.5469
Q45.7969 14.2031 45.7969 21.1875
Q45.7969 27.6406 41.2812 31.2656
Q36.7656 34.9062 28.7188 34.9062
L20.2188 34.9062
L20.2188 43.0156
L29.1094 43.0156
Q36.375 43.0156 40.2344 45.9219
Q44.0938 48.8281 44.0938 54.2969
Q44.0938 59.9062 40.1094 62.9062
Q36.1406 65.9219 28.7188 65.9219
Q24.6562 65.9219 20.0156 65.0312
Q15.375 64.1562 9.8125 62.3125
L9.8125 71.0938
Q15.4375 72.6562 20.3438 73.4375
Q25.25 74.2188 29.5938 74.2188
Q40.8281 74.2188 47.3594 69.1094
Q53.9062 64.0156 53.9062 55.3281
Q53.9062 49.2656 50.4375 45.0938
Q46.9688 40.9219 40.5781 39.3125" id="DejaVuSans-33"/>
      </defs>
      <g transform="translate(27.640625 187.397738487)scale(0.1 -0.1)">
       <use xlink:href="#DejaVuSans-33"/>
       <use x="63.623046875" xlink:href="#DejaVuSans-2e"/>
       <use x="95.41015625" xlink:href="#DejaVuSans-30"/>
      </g>
     </g>
    </g>
    <g id="ytick_14">
     <g id="line2d_101">
      <g>
       <use style="stroke:#000000;stroke-linecap:butt;stroke-width:0.5;" x="46.1171875" xlink:href="#me8a85f7bf6" y="173.284210526"/>
      </g>
     </g>
     <g id="line2d_102">
      <g>
       <use style="stroke:#000000;stroke-linecap:butt;stroke-width:0.5;" x="401.94140625" xlink:href="#m1a32005dea" y="173.284210526"/>
      </g>
     </g>
     <g id="text_27">
      <!-- 3.5 -->
      <g transform="translate(27.85 176.924054276)scale(0.1 -0.1)">
       <use xlink:href="#DejaVuSans-33"/>
       <use x="63.623046875" xlink:href="#DejaVuSans-2e"/>
       <use x="95.41015625" xlink:href="#DejaVuSans-35"/>
      </g>
     </g>
    </g>
   </g>
   <g id="patch_8">
    <path d="
M46.1172 167
L401.941 167" style="fill:none;stroke:#000000;"/>
   </g>
   <g id="patch_9">
    <path d="
M401.941 246.6
L401.941 167" style="fill:none;stroke:#000000;"/>
   </g>
   <g id="patch_10">
    <path d="
M46.1172 246.6
L401.941 246.6" style="fill:none;stroke:#000000;"/>
   </g>
   <g id="patch_11">
    <path d="
M46.1172 246.6
L46.1172 167" style="fill:none;stroke:#000000;"/>
   </g>
   <g id="text_28">
    <!-- OLAP -->
    <defs>
     <path d="
M34.1875 63.1875
L20.7969 26.9062
L47.6094 26.9062
z

M28.6094 72.9062
L39.7969 72.9062
L67.5781 0
L57.3281 0
L50.6875 18.7031
L17.8281 18.7031
L11.1875 0
L0.78125 0
z
" id="DejaVuSans-41"/>
    </defs>
    <g transform="translate(208.646796875 162.0)scale(0.12 -0.12)">
     <use xlink:href="#DejaVuSans-4f"/>
     <use x="78.7109375" xlink:href="#DejaVuSans-4c"/>
     <use x="136.673828125" xlink:href="#DejaVuSans-41"/>
     <use x="205.08203125" xlink:href="#DejaVuSans-50"/>
    </g>
   </g>
  </g>
  <g id="text_29">
   <!-- 6 OLTP workers -->
   <defs>
    <path d="
M30.6094 48.3906
Q23.3906 48.3906 19.1875 42.75
Q14.9844 37.1094 14.9844 27.2969
Q14.9844 17.4844 19.1562 11.8438
Q23.3438 6.20312 30.6094 6.20312
Q37.7969 6.20312 41.9844 11.8594
Q46.1875 17.5312 46.1875 27.2969
Q46.1875 37.0156 41.9844 42.7031
Q37.7969 48.3906 30.6094 48.3906
M30.6094 56
Q42.3281 56 49.0156 48.375
Q55.7188 40.7656 55.7188 27.2969
Q55.7188 13.875 49.0156 6.21875
Q42.3281 -1.42188 30.6094 -1.42188
Q18.8438 -1.42188 12.1719 6.21875
Q5.51562 13.875 5.51562 27.2969
Q5.51562 40.7656 12.1719 48.375
Q18.8438 56 30.6094 56" id="DejaVuSans-6f"/>
    <path d="
M9.07812 75.9844
L18.1094 75.9844
L18.1094 31.1094
L44.9219 54.6875
L56.3906 54.6875
L27.3906 29.1094
L57.625 0
L45.9062 0
L18.1094 26.7031
L18.1094 0
L9.07812 0
z
" id="DejaVuSans-6b"/>
    <path id="DejaVuSans-20"/>
    <path d="
M33.0156 40.375
Q26.375 40.375 22.4844 35.8281
Q18.6094 31.2969 18.6094 23.3906
Q18.6094 15.5312 22.4844 10.9531
Q26.375 6.39062 33.0156 6.39062
Q39.6562 6.39062 43.5312 10.9531
Q47.4062 15.5312 47.4062 23.3906
Q47.4062 31.2969 43.5312 35.8281
Q39.6562 40.375 33.0156 40.375
M52.5938 71.2969
L52.5938 62.3125
Q48.875 64.0625 45.0938 64.9844
Q41.3125 65.9219 37.5938 65.9219
Q27.8281 65.9219 22.6719 59.3281
Q17.5312 52.7344 16.7969 39.4062
Q19.6719 43.6562 24.0156 45.9219
Q28.375 48.1875 33.5938 48.1875
Q44.5781 48.1875 50.9531 41.5156
Q57.3281 34.8594 57.3281 23.3906
Q57.3281 12.1562 50.6875 5.35938
Q44.0469 -1.42188 33.0156 -1.42188
Q20.3594 -1.42188 13.6719 8.26562
Q6.98438 17.9688 6.98438 36.375
Q6.98438 53.6562 15.1875 63.9375
Q23.3906 74.2188 37.2031 74.2188
Q40.9219 74.2188 44.7031 73.4844
Q48.4844 72.75 52.5938 71.2969" id="DejaVuSans-36"/>
    <path d="
M4.20312 54.6875
L13.1875 54.6875
L24.4219 12.0156
L35.5938 54.6875
L46.1875 54.6875
L57.4219 12.0156
L68.6094 54.6875
L77.5938 54.6875
L63.2812 0
L52.6875 0
L40.9219 44.8281
L29.1094 0
L18.5 0
z
" id="DejaVuSans-77"/>
    <path d="
M44.2812 53.0781
L44.2812 44.5781
Q40.4844 46.5312 36.375 47.5
Q32.2812 48.4844 27.875 48.4844
Q21.1875 48.4844 17.8438 46.4375
Q14.5 44.3906 14.5 40.2812
Q14.5 37.1562 16.8906 35.375
Q19.2812 33.5938 26.5156 31.9844
L29.5938 31.2969
Q39.1562 29.25 43.1875 25.5156
Q47.2188 21.7812 47.2188 15.0938
Q47.2188 7.46875 41.1875 3.01562
Q35.1562 -1.42188 24.6094 -1.42188
Q20.2188 -1.42188 15.4531 -0.5625
Q10.6875 0.296875 5.42188 2
L5.42188 11.2812
Q10.4062 8.6875 15.2344 7.39062
Q20.0625 6.10938 24.8125 6.10938
Q31.1562 6.10938 34.5625 8.28125
Q37.9844 10.4531 37.9844 14.4062
Q37.9844 18.0625 35.5156 20.0156
Q33.0625 21.9688 24.7031 23.7812
L21.5781 24.5156
Q13.2344 26.2656 9.51562 29.9062
Q5.8125 33.5469 5.8125 39.8906
Q5.8125 47.6094 11.2812 51.7969
Q16.75 56 26.8125 56
Q31.7812 56 36.1719 55.2656
Q40.5781 54.5469 44.2812 53.0781" id="DejaVuSans-73"/>
    <path d="
M41.1094 46.2969
Q39.5938 47.1719 37.8125 47.5781
Q36.0312 48 33.8906 48
Q26.2656 48 22.1875 43.0469
Q18.1094 38.0938 18.1094 28.8125
L18.1094 0
L9.07812 0
L9.07812 54.6875
L18.1094 54.6875
L18.1094 46.1875
Q20.9531 51.1719 25.4844 53.5781
Q30.0312 56 36.5312 56
Q37.4531 56 38.5781 55.875
Q39.7031 55.7656 41.0625 55.5156
z
" id="DejaVuSans-72"/>
   </defs>
   <g transform="translate(178.1265625 13.3584375)scale(0.1 -0.1)">
    <use xlink:href="#DejaVuSans-36"/>
    <use x="63.623046875" xlink:href="#DejaVuSans-20"/>
    <use x="95.41015625" xlink:href="#DejaVuSans-4f"/>
    <use x="174.12109375" xlink:href="#DejaVuSans-4c"/>
    <use x="216.083984375" xlink:href="#DejaVuSans-54"/>
    <use x="277.16796875" xlink:href="#DejaVuSans-50"/>
    <use x="337.470703125" xlink:href="#DejaVuSans-20"/>
    <use x="369.2578125" xlink:href="#DejaVuSans-77"/>
    <use x="451.044921875" xlink:href="#DejaVuSans-6f"/>
    <use x="512.2265625" xlink:href="#DejaVuSans-72"/>
    <use x="553.33984375" xlink:href="#DejaVuSans-6b"/>
    <use x="607.625" xlink:href="#DejaVuSans-65"/>
    <use x="669.1484375" xlink:href="#DejaVuSans-72"/>
    <use x="710.26171875" xlink:href="#DejaVuSans-73"/>
   </g>
  </g>
 </g>
 <defs>
  <clipPath id="pe9bd9c4693">
   <rect height="79.6" width="355.82421875" x="46.1171875" y="167.0"/>
  </clipPath>
  <clipPath id="paafe9ad165">
   <rect height="79.6" width="355.82421875" x="46.1171875" y="32.0"/>
  </clipPath>
 </defs>
</svg>
