<?xml version="1.0" encoding="utf-8" standalone="no"?>
<!DOCTYPE svg PUBLIC "-//W3C//DTD SVG 1.1//EN"
  "http://www.w3.org/Graphics/SVG/1.1/DTD/svg11.dtd">
<!-- Created with matplotlib (http://matplotlib.sourceforge.net/) -->
<svg height="288pt" version="1.1" viewBox="0 0 432 288" width="432pt" xmlns="http://www.w3.org/2000/svg" xmlns:xlink="http://www.w3.org/1999/xlink">
 <defs>
  <style type="text/css">
*{stroke-linecap:square;stroke-linejoin:round;}
  </style>
 </defs>
 <g id="figure_1">
  <g id="patch_1">
   <path d="
M0 288
L432 288
L432 0
L0 0
z
" style="fill:#ffffff;"/>
  </g>
  <g id="axes_1">
   <g id="patch_2">
    <path d="
M46.1172 111.6
L401.941 111.6
L401.941 32
L46.1172 32
z
" style="fill:#ffffff;"/>
   </g>
   <g id="line2d_1">
    <path clip-path="url(#paafe9ad165)" d="
M56.7922 111.6
L56.7922 32" style="fill:none;stroke:#00ffff;stroke-dasharray:6.000000,6.000000;stroke-dashoffset:0.0;stroke-linecap:butt;"/>
   </g>
   <g id="line2d_2">
    <path clip-path="url(#paafe9ad165)" d="
M56.7924 111.6
L56.7924 32" style="fill:none;stroke:#00ffff;stroke-dasharray:6.000000,6.000000;stroke-dashoffset:0.0;stroke-linecap:butt;"/>
   </g>
   <g id="line2d_3">
    <path clip-path="url(#paafe9ad165)" d="
M78.1417 111.6
L78.1417 32" style="fill:none;stroke:#00ffff;stroke-dasharray:6.000000,6.000000;stroke-dashoffset:0.0;stroke-linecap:butt;"/>
   </g>
   <g id="line2d_4">
    <path clip-path="url(#paafe9ad165)" d="
M78.1418 111.6
L78.1418 32" style="fill:none;stroke:#00ffff;stroke-dasharray:6.000000,6.000000;stroke-dashoffset:0.0;stroke-linecap:butt;"/>
   </g>
   <g id="line2d_5">
    <path clip-path="url(#paafe9ad165)" d="
M78.1422 111.6
L78.1422 32" style="fill:none;stroke:#00ffff;stroke-dasharray:6.000000,6.000000;stroke-dashoffset:0.0;stroke-linecap:butt;"/>
   </g>
   <g id="line2d_6">
    <path clip-path="url(#paafe9ad165)" d="
M99.4911 111.6
L99.4911 32" style="fill:none;stroke:#00ffff;stroke-dasharray:6.000000,6.000000;stroke-dashoffset:0.0;stroke-linecap:butt;"/>
   </g>
   <g id="line2d_7">
    <path clip-path="url(#paafe9ad165)" d="
M99.4911 111.6
L99.4911 32" style="fill:none;stroke:#00ffff;stroke-dasharray:6.000000,6.000000;stroke-dashoffset:0.0;stroke-linecap:butt;"/>
   </g>
   <g id="line2d_8">
    <path clip-path="url(#paafe9ad165)" d="
M120.84 111.6
L120.84 32" style="fill:none;stroke:#00ffff;stroke-dasharray:6.000000,6.000000;stroke-dashoffset:0.0;stroke-linecap:butt;"/>
   </g>
   <g id="line2d_9">
    <path clip-path="url(#paafe9ad165)" d="
M120.841 111.6
L120.841 32" style="fill:none;stroke:#00ffff;stroke-dasharray:6.000000,6.000000;stroke-dashoffset:0.0;stroke-linecap:butt;"/>
   </g>
   <g id="line2d_10">
    <path clip-path="url(#paafe9ad165)" d="
M142.19 111.6
L142.19 32" style="fill:none;stroke:#00ffff;stroke-dasharray:6.000000,6.000000;stroke-dashoffset:0.0;stroke-linecap:butt;"/>
   </g>
   <g id="line2d_11">
    <path clip-path="url(#paafe9ad165)" d="
M142.19 111.6
L142.19 32" style="fill:none;stroke:#00ffff;stroke-dasharray:6.000000,6.000000;stroke-dashoffset:0.0;stroke-linecap:butt;"/>
   </g>
   <g id="line2d_12">
    <path clip-path="url(#paafe9ad165)" d="
M142.19 111.6
L142.19 32" style="fill:none;stroke:#00ffff;stroke-dasharray:6.000000,6.000000;stroke-dashoffset:0.0;stroke-linecap:butt;"/>
   </g>
   <g id="line2d_13">
    <path clip-path="url(#paafe9ad165)" d="
M163.549 111.6
L163.549 32" style="fill:none;stroke:#00ffff;stroke-dasharray:6.000000,6.000000;stroke-dashoffset:0.0;stroke-linecap:butt;"/>
   </g>
   <g id="line2d_14">
    <path clip-path="url(#paafe9ad165)" d="
M163.549 111.6
L163.549 32" style="fill:none;stroke:#00ffff;stroke-dasharray:6.000000,6.000000;stroke-dashoffset:0.0;stroke-linecap:butt;"/>
   </g>
   <g id="line2d_15">
    <path clip-path="url(#paafe9ad165)" d="
M163.549 111.6
L163.549 32" style="fill:none;stroke:#00ffff;stroke-dasharray:6.000000,6.000000;stroke-dashoffset:0.0;stroke-linecap:butt;"/>
   </g>
   <g id="line2d_16">
    <path clip-path="url(#paafe9ad165)" d="
M184.889 111.6
L184.889 32" style="fill:none;stroke:#00ffff;stroke-dasharray:6.000000,6.000000;stroke-dashoffset:0.0;stroke-linecap:butt;"/>
   </g>
   <g id="line2d_17">
    <path clip-path="url(#paafe9ad165)" d="
M206.239 111.6
L206.239 32" style="fill:none;stroke:#00ffff;stroke-dasharray:6.000000,6.000000;stroke-dashoffset:0.0;stroke-linecap:butt;"/>
   </g>
   <g id="line2d_18">
    <path clip-path="url(#paafe9ad165)" d="
M227.588 111.6
L227.588 32" style="fill:none;stroke:#00ffff;stroke-dasharray:6.000000,6.000000;stroke-dashoffset:0.0;stroke-linecap:butt;"/>
   </g>
   <g id="line2d_19">
    <path clip-path="url(#paafe9ad165)" d="
M248.937 111.6
L248.937 32" style="fill:none;stroke:#00ffff;stroke-dasharray:6.000000,6.000000;stroke-dashoffset:0.0;stroke-linecap:butt;"/>
   </g>
   <g id="line2d_20">
    <path clip-path="url(#paafe9ad165)" d="
M270.287 111.6
L270.287 32" style="fill:none;stroke:#00ffff;stroke-dasharray:6.000000,6.000000;stroke-dashoffset:0.0;stroke-linecap:butt;"/>
   </g>
   <g id="line2d_21">
    <path clip-path="url(#paafe9ad165)" d="
M291.636 111.6
L291.636 32" style="fill:none;stroke:#00ffff;stroke-dasharray:6.000000,6.000000;stroke-dashoffset:0.0;stroke-linecap:butt;"/>
   </g>
   <g id="line2d_22">
    <path clip-path="url(#paafe9ad165)" d="
M291.637 111.6
L291.637 32" style="fill:none;stroke:#00ffff;stroke-dasharray:6.000000,6.000000;stroke-dashoffset:0.0;stroke-linecap:butt;"/>
   </g>
   <g id="line2d_23">
    <path clip-path="url(#paafe9ad165)" d="
M312.986 111.6
L312.986 32" style="fill:none;stroke:#00ffff;stroke-dasharray:6.000000,6.000000;stroke-dashoffset:0.0;stroke-linecap:butt;"/>
   </g>
   <g id="line2d_24">
    <path clip-path="url(#paafe9ad165)" d="
M334.335 111.6
L334.335 32" style="fill:none;stroke:#00ffff;stroke-dasharray:6.000000,6.000000;stroke-dashoffset:0.0;stroke-linecap:butt;"/>
   </g>
   <g id="line2d_25">
    <path clip-path="url(#paafe9ad165)" d="
M355.684 111.6
L355.684 32" style="fill:none;stroke:#00ffff;stroke-dasharray:6.000000,6.000000;stroke-dashoffset:0.0;stroke-linecap:butt;"/>
   </g>
   <g id="line2d_26">
    <path clip-path="url(#paafe9ad165)" d="
M377.034 111.6
L377.034 32" style="fill:none;stroke:#00ffff;stroke-dasharray:6.000000,6.000000;stroke-dashoffset:0.0;stroke-linecap:butt;"/>
   </g>
   <g id="line2d_27">
    <path clip-path="url(#paafe9ad165)" d="
M46.1172 56.5746
L46.1172 44.9771
L46.7043 44.9771
L46.7043 42.9702
L47.2914 42.9702
L47.2914 38.9854
L47.8785 38.9854
L47.8785 41.1563
L48.4656 41.1563
L48.4656 39.0626
L49.0527 39.0626
L49.0527 40.2301
L49.6398 40.2301
L49.6398 42.8737
L50.227 42.8737
L50.227 41.8414
L50.8141 41.8414
L50.8141 39.2556
L51.4012 39.2556
L51.4012 40.1722
L51.9883 40.1722
L51.9883 40.7125
L52.5754 40.7125
L52.5754 38.4354
L53.1625 38.4354
L53.1625 34.2576
L53.7496 34.2576
L53.7496 41.3589
L54.3367 41.3589
L54.3367 36.9978
L54.9238 36.9978
L54.9238 39.5933
L55.5109 39.5933
L55.5109 44.5236
L56.098 44.5236
L56.098 55.9764
L56.6852 55.9764
L56.6852 39.1687
L57.2723 39.1687
L57.2723 42.401
L57.8594 42.401
L57.8594 41.6773
L58.4465 41.6773
L58.4465 43.0571
L59.0336 43.0571
L59.0336 39.8248
L59.6207 39.8248
L59.6207 42.1308
L60.2078 42.1308
L60.2078 41.6001
L60.7949 41.6001
L60.7949 22.718
L61.382 22.718
L61.382 16.35
L61.9691 16.35
L61.9691 26.7801
L62.5562 26.7801
L62.5562 40.7704
L63.1434 40.7704
L63.1434 43.2307
L63.7305 43.2307
L63.7305 44.2149
L64.3176 44.2149
L64.3176 41.4844
L64.9047 41.4844
L64.9047 40.5967
L65.4918 40.5967
L65.4918 43.2886
L66.0789 43.2886
L66.0789 38.3679
L66.666 38.3679
L66.666 39.8345
L67.2531 39.8345
L67.2531 40.5388
L67.8402 40.5388
L67.8402 39.4678
L68.4273 39.4678
L68.4273 38.8889
L69.0144 38.8889
L69.0144 49.6856
L69.6016 49.6856
L69.6016 46.2507
L70.1887 46.2507
L70.1887 46.3858
L70.7758 46.3858
L70.7758 45.0543
L71.3629 45.0543
L71.3629 41.3686
L71.95 41.3686
L71.95 50.7662
L72.5371 50.7662
L72.5371 41.137
L73.1242 41.137
L73.1242 40.1722
L73.7113 40.1722
L73.7113 40.5002
L74.2984 40.5002
L74.2984 41.6291
L74.8855 41.6291
L74.8855 54.5195
L75.4726 54.5195
L75.4726 48.8365
L76.0598 48.8365
L76.0598 45.6236
L76.6469 45.6236
L76.6469 46.1735
L77.234 46.1735
L77.234 67.9309
L77.8211 67.9309
L77.8211 57.1825
L78.4082 57.1825
L78.4082 53.3038
L78.9953 53.3038
L78.9953 44.5043
L79.5824 44.5043
L79.5824 30.9772
L80.1695 30.9772
L80.1695 25.2266
L80.7566 25.2266
L80.7566 23.9434
L81.3437 23.9434
L81.3437 38.4354
L81.9308 38.4354
L81.9308 45.8841
L82.518 45.8841
L82.518 43.8675
L83.1051 43.8675
L83.1051 31.0061
L83.6922 31.0061
L83.6922 30.3114
L84.2793 30.3114
L84.2793 27.166
L84.8664 27.166
L84.8664 28.044
L85.4535 28.044
L85.4535 35.3479
L86.0406 35.3479
L86.0406 45.0929
L86.6277 45.0929
L86.6277 39.4196
L87.2148 39.4196
L87.2148 33.4279
L87.8019 33.4279
L87.8019 34.3252
L88.389 34.3252
L88.389 39.545
L88.9762 39.545
L88.9762 29.9158
L89.5633 29.9158
L89.5633 30.9964
L90.1504 30.9964
L90.1504 34.3445
L90.7375 34.3445
L90.7375 32.2218
L91.3246 32.2218
L91.3246 33.5051
L91.9117 33.5051
L91.9117 42.8255
L92.4988 42.8255
L92.4988 65.7889
L93.0859 65.7889
L93.0859 40.2204
L93.673 40.2204
L93.673 33.5533
L94.2601 33.5533
L94.2601 37.9144
L94.8472 37.9144
L94.8472 45.4499
L95.4344 45.4499
L95.4344 47.8234
L96.0215 47.8234
L96.0215 40.066
L96.6086 40.066
L96.6086 35.5023
L97.1957 35.5023
L97.1957 41.8221
L97.7828 41.8221
L97.7828 39.1301
L98.3699 39.1301
L98.3699 39.8827
L98.957 39.8827
L98.957 69.2624
L99.5441 69.2624
L99.5441 56.6807
L100.131 56.6807
L100.131 57.6745
L100.718 57.6745
L100.718 46.7235
L101.305 46.7235
L101.305 56.3527
L101.893 56.3527
L101.893 50.9109
L102.48 50.9109
L102.48 53.6608
L103.067 53.6608
L103.067 49.2996
L103.654 49.2996
L103.654 55.9089
L104.241 55.9089
L104.241 68.3168
L104.828 68.3168
L104.828 37.268
L105.415 37.268
L105.415 47.3699
L106.002 47.3699
L106.002 39.1108
L106.589 39.1108
L106.589 46.5112
L107.177 46.5112
L107.177 52.6573
L107.764 52.6573
L107.764 40.3748
L108.351 40.3748
L108.351 46.7042
L108.938 46.7042
L108.938 38.7442
L109.525 38.7442
L109.525 49.0584
L110.112 49.0584
L110.112 51.1811
L110.699 51.1811
L110.699 54.0853
L111.286 54.0853
L111.286 52.5126
L111.873 52.5126
L111.873 43.4527
L112.461 43.4527
L112.461 36.8241
L113.048 36.8241
L113.048 45.0736
L113.635 45.0736
L113.635 49.6663
L114.222 49.6663
L114.222 51.9819
L114.809 51.9819
L114.809 56.1887
L115.396 56.1887
L115.396 52.0591
L115.983 52.0591
L115.983 59.4595
L116.57 59.4595
L116.57 63.0777
L117.157 63.0777
L117.157 63.4347
L117.745 63.4347
L117.745 60.0577
L118.332 60.0577
L118.332 52.3389
L118.919 52.3389
L118.919 45.6139
L119.506 45.6139
L119.506 64.9495
L120.093 64.9495
L120.093 72.4271
L120.68 72.4271
L120.68 67.873
L121.267 67.873
L121.267 68.0081
L121.854 68.0081
L121.854 75.1287
L122.441 75.1287
L122.441 68.6159
L123.028 68.6159
L123.028 66.6573
L123.616 66.6573
L123.616 62.3348
L124.203 62.3348
L124.203 65.2872
L124.79 65.2872
L124.79 62.1225
L125.377 62.1225
L125.377 67.8344
L125.964 67.8344
L125.964 68.8475
L126.551 68.8475
L126.551 48.2673
L127.138 48.2673
L127.138 54.0467
L127.725 54.0467
L127.725 53.1012
L128.312 53.1012
L128.312 56.3913
L128.9 56.3913
L128.9 54.4134
L129.487 54.4134
L129.487 62.5374
L130.074 62.5374
L130.074 55.0598
L130.661 55.0598
L130.661 61.2445
L131.248 61.2445
L131.248 58.9964
L131.835 58.9964
L131.835 56.6229
L132.422 56.6229
L132.422 59.4016
L133.009 59.4016
L133.009 58.1184
L133.596 58.1184
L133.596 66.0398
L134.184 66.0398
L134.184 63.8496
L134.771 63.8496
L134.771 65.8565
L135.358 65.8565
L135.358 63.9654
L135.945 63.9654
L135.945 70.4492
L136.532 70.4492
L136.532 67.3134
L137.119 67.3134
L137.119 62.9909
L137.706 62.9909
L137.706 75.3506
L138.293 75.3506
L138.293 64.1583
L138.88 64.1583
L138.88 65.0942
L139.468 65.0942
L139.468 63.5215
L140.055 63.5215
L140.055 66.1459
L140.642 66.1459
L140.642 64.2548
L141.229 64.2548
L141.229 77.8978
L141.816 77.8978
L141.816 80.7634
L142.403 80.7634
L142.403 68.4037
L142.99 68.4037
L142.99 78.5057
L143.577 78.5057
L143.577 72.7744
L144.164 72.7744
L144.164 75.1962
L144.752 75.1962
L144.752 80.1652
L145.339 80.1652
L145.339 83.629
L145.926 83.629
L145.926 75.7848
L146.513 75.7848
L146.513 81.0818
L147.1 81.0818
L147.1 64.8916
L147.687 64.8916
L147.687 63.4347
L148.274 63.4347
L148.274 64.525
L148.861 64.525
L148.861 67.4581
L149.448 67.4581
L149.448 68.6256
L150.036 68.6256
L150.036 69.3106
L150.623 69.3106
L150.623 69.0115
L151.21 69.0115
L151.21 72.3403
L151.797 72.3403
L151.797 76.7689
L152.384 76.7689
L152.384 74.8199
L152.971 74.8199
L152.971 73.6911
L153.558 73.6911
L153.558 83.1369
L154.145 83.1369
L154.145 78.8819
L154.732 78.8819
L154.732 85.5491
L155.319 85.5491
L155.319 77.0005
L155.907 77.0005
L155.907 70.0922
L156.494 70.0922
L156.494 68.3168
L157.081 68.3168
L157.081 76.4312
L157.668 76.4312
L157.668 69.465
L158.255 69.465
L158.255 68.9633
L158.842 68.9633
L158.842 73.6718
L159.429 73.6718
L159.429 70.2851
L160.016 70.2851
L160.016 73.7103
L160.603 73.7103
L160.603 77.3671
L161.191 77.3671
L161.191 76.1707
L161.778 76.1707
L161.778 78.2451
L162.365 78.2451
L162.365 81.7668
L162.952 81.7668
L162.952 64.0233
L163.539 64.0233
L163.539 55.5133
L164.126 55.5133
L164.126 56.208
L164.713 56.208
L164.713 69.6194
L165.3 69.6194
L165.3 79.2968
L165.887 79.2968
L165.887 80.7538
L166.475 80.7538
L166.475 82.1238
L167.062 82.1238
L167.062 78.3127
L167.649 78.3127
L167.649 72.5043
L168.236 72.5043
L168.236 73.3727
L168.823 73.3727
L168.823 76.904
L169.41 76.904
L169.41 76.0935
L169.997 76.0935
L169.997 66.4064
L170.584 66.4064
L170.584 73.035
L171.171 73.035
L171.171 72.0798
L171.759 72.0798
L171.759 77.1935
L172.346 77.1935
L172.346 74.9743
L172.933 74.9743
L172.933 81.9791
L173.52 81.9791
L173.52 80.5801
L174.107 80.5801
L174.107 80.281
L174.694 80.281
L174.694 76.6628
L175.281 76.6628
L175.281 80.0301
L175.868 80.0301
L175.868 78.7951
L176.455 78.7951
L176.455 80.4354
L177.043 80.4354
L177.043 78.9784
L177.63 78.9784
L177.63 80.1362
L178.804 80.1362
L178.804 84.5167
L179.391 84.5167
L179.391 87.7682
L179.978 87.7682
L179.978 85.6938
L180.565 85.6938
L180.565 88.5401
L181.152 88.5401
L181.152 90.1803
L181.739 90.1803
L181.739 88.2603
L182.327 88.2603
L182.327 87.7296
L182.914 87.7296
L182.914 88.8585
L183.501 88.8585
L183.501 84.6903
L184.088 84.6903
L184.088 91.2513
L184.675 91.2513
L184.675 88.5883
L185.262 88.5883
L185.262 88.2506
L185.849 88.2506
L185.849 88.8006
L186.436 88.8006
L186.436 82.5484
L187.023 82.5484
L187.023 79.8178
L187.61 79.8178
L187.61 76.4312
L188.198 76.4312
L188.198 90.6628
L188.785 90.6628
L188.785 79.1039
L189.372 79.1039
L189.372 84.2369
L189.959 84.2369
L189.959 86.1666
L190.546 86.1666
L190.546 88.4436
L191.133 88.4436
L191.133 90.4505
L191.72 90.4505
L191.72 92.2065
L192.307 92.2065
L192.307 91.5504
L192.894 91.5504
L192.894 91.0776
L193.482 91.0776
L193.482 81.0529
L194.069 81.0529
L194.069 83.822
L194.656 83.822
L194.656 89.2637
L195.243 89.2637
L195.243 78.9302
L195.83 78.9302
L195.83 82.0081
L196.417 82.0081
L196.417 87.1893
L197.004 87.1893
L197.004 87.9612
L197.591 87.9612
L197.591 90.354
L198.178 90.354
L198.178 89.7654
L198.766 89.7654
L198.766 90.9619
L199.353 90.9619
L199.353 90.7689
L199.94 90.7689
L199.94 93.5284
L200.527 93.5284
L200.527 91.9943
L201.114 91.9943
L201.114 90.383
L201.701 90.383
L201.701 92.853
L202.288 92.853
L202.288 91.2899
L202.875 91.2899
L202.875 91.8206
L203.462 91.8206
L203.462 86.9963
L204.05 86.9963
L204.05 83.6387
L204.637 83.6387
L204.637 85.935
L205.224 85.935
L205.224 93.8275
L205.811 93.8275
L205.811 88.569
L206.398 88.569
L206.398 86.3113
L206.985 86.3113
L206.985 91.1548
L207.572 91.1548
L207.572 93.8757
L208.159 93.8757
L208.159 94.9563
L208.746 94.9563
L208.746 85.7131
L209.334 85.7131
L209.334 72.6394
L209.921 72.6394
L209.921 75.5146
L210.508 75.5146
L210.508 77.5601
L211.095 77.5601
L211.095 64.8144
L211.682 64.8144
L211.682 65.7214
L212.269 65.7214
L212.269 69.4457
L212.856 69.4457
L212.856 71.2693
L213.443 71.2693
L213.443 73.0253
L214.03 73.0253
L214.03 80.1941
L214.618 80.1941
L214.618 80.5125
L215.205 80.5125
L215.205 78.9205
L215.792 78.9205
L215.792 81.1107
L216.379 81.1107
L216.379 79.2293
L216.966 79.2293
L216.966 80.5415
L217.553 80.5415
L217.553 89.4278
L218.14 89.4278
L218.14 89.0708
L218.727 89.0708
L218.727 84.9026
L219.314 84.9026
L219.314 90.0067
L219.901 90.0067
L219.901 90.7689
L220.489 90.7689
L220.489 91.7241
L221.076 91.7241
L221.076 92.8047
L221.663 92.8047
L221.663 93.9625
L222.25 93.9625
L222.25 93.2486
L222.837 93.2486
L222.837 93.4801
L223.424 93.4801
L223.424 94.5897
L224.011 94.5897
L224.011 96.037
L224.598 96.037
L224.598 94.1941
L225.185 94.1941
L225.185 90.7399
L226.36 90.711
L226.36 91.6951
L226.947 91.6951
L226.947 92.6793
L227.534 92.6793
L227.534 94.0687
L228.121 94.0687
L228.121 88.434
L228.708 88.434
L228.708 85.2017
L229.295 85.2017
L229.295 87.6331
L229.882 87.6331
L229.882 91.5215
L230.469 91.5215
L230.469 86.0218
L231.057 86.0218
L231.057 78.3223
L231.644 78.3223
L231.644 84.0535
L232.231 84.0535
L232.231 80.2038
L232.818 80.2038
L232.818 79.3065
L233.405 79.3065
L233.405 83.465
L233.992 83.465
L233.992 83.2334
L234.579 83.2334
L234.579 83.5808
L235.166 83.5808
L235.166 85.4719
L235.753 85.4719
L235.753 86.2245
L236.341 86.2245
L236.341 87.1507
L236.928 87.1507
L236.928 73.4305
L237.515 73.4305
L237.515 71.9543
L238.102 71.9543
L238.102 73.5174
L238.689 73.5174
L238.689 76.219
L239.276 76.219
L239.276 76.4602
L239.863 76.4602
L239.863 76.8944
L241.037 76.9329
L241.037 78.3127
L241.625 78.3127
L241.625 81.9309
L242.212 81.9309
L242.212 81.516
L242.799 81.516
L242.799 83.1273
L243.386 83.1273
L243.386 84.8254
L243.973 84.8254
L243.973 85.0087
L244.56 85.0087
L244.56 82.4229
L245.147 82.4229
L245.147 86.5718
L245.734 86.5718
L245.734 85.935
L246.321 85.935
L246.321 86.9674
L246.909 86.9674
L246.909 87.9998
L247.496 87.9998
L247.496 88.2024
L248.083 88.2024
L248.083 92.1583
L248.67 92.1583
L248.67 90.2575
L249.257 90.2575
L249.257 86.5236
L249.844 86.5236
L249.844 74.0577
L250.431 74.0577
L250.431 77.6566
L251.018 77.6566
L251.018 81.5256
L251.605 81.5256
L251.605 79.7503
L252.193 79.7503
L252.193 79.2003
L252.78 79.2003
L252.78 82.1431
L253.367 82.1431
L253.367 82.6545
L253.954 82.6545
L253.954 83.1755
L254.541 83.1755
L254.541 85.8771
L255.128 85.8771
L255.128 86.9384
L255.715 86.9384
L255.715 85.2596
L256.302 85.2596
L256.302 85.0377
L256.889 85.0377
L256.889 85.8482
L257.476 85.8482
L257.476 89.3023
L258.064 89.3023
L258.064 87.9322
L258.651 87.9322
L258.651 88.4533
L259.238 88.4533
L259.238 88.926
L259.825 88.926
L259.825 94.5415
L260.412 94.5415
L260.412 102.849
L260.999 102.849
L260.999 88.4726
L261.586 88.4726
L261.586 76.0839
L262.173 76.0839
L262.173 68.6931
L262.76 68.6931
L262.76 73.0543
L263.348 73.0543
L263.348 90.7303
L263.935 90.7303
L263.935 80.8502
L264.522 80.8502
L264.522 73.5753
L265.109 73.5753
L265.109 72.9288
L265.696 72.9288
L265.696 78.2258
L266.283 78.2258
L266.283 81.1783
L266.87 81.1783
L266.87 80.8406
L267.457 80.8406
L267.457 88.0094
L268.044 88.0094
L268.044 81.4388
L268.632 81.4388
L268.632 82.4808
L269.219 82.4808
L269.219 86.977
L269.806 86.977
L269.806 84.6903
L270.393 84.6903
L270.393 108.657
L270.98 108.657
L270.98 97.079
L271.567 97.079
L271.567 86.485
L272.154 86.485
L272.154 84.7579
L272.741 84.7579
L272.741 90.1031
L273.328 90.1031
L273.328 87.4209
L273.916 87.4209
L273.916 87.7103
L274.503 87.7103
L274.503 92.7758
L275.09 92.7758
L275.09 89.4085
L275.677 89.4085
L275.677 90.875
L276.264 90.875
L276.264 92.7854
L276.851 92.7854
L276.851 88.926
L277.438 88.926
L277.438 87.4016
L278.025 87.4016
L278.025 88.9357
L278.612 88.9357
L278.612 89.6497
L279.2 89.6497
L279.2 93.017
L279.787 93.017
L279.787 98.2175
L280.374 98.2175
L280.374 111.6
L280.961 111.6
L280.961 88.569
L281.548 88.569
L281.548 87.2086
L282.135 87.2086
L282.135 86.7262
L282.722 86.7262
L282.722 86.8902
L283.309 86.8902
L283.309 88.2313
L283.896 88.2313
L283.896 89.3506
L284.484 89.3506
L284.484 87.0349
L285.071 87.0349
L285.071 104.354
L285.658 104.354
L285.658 87.9322
L286.245 87.9322
L286.245 88.8102
L286.832 88.8102
L286.832 90.8171
L287.419 90.8171
L287.419 88.1059
L288.006 88.1059
L288.006 87.5366
L288.593 87.5366
L288.593 89.7365
L289.18 89.7365
L289.18 89.0129
L289.767 89.0129
L289.767 93.2486
L290.355 93.2486
L290.355 88.6752
L290.942 88.6752
L290.942 92.2837
L291.529 92.2837
L291.529 89.3313
L292.116 89.3313
L292.116 87.9515
L292.703 87.9515
L292.703 86.5814
L293.29 86.5814
L293.29 89.4181
L293.877 89.4181
L293.877 85.8868
L294.464 85.8868
L294.464 86.3113
L295.051 86.3113
L295.051 87.8068
L295.639 87.8068
L295.639 90.0935
L296.226 90.0935
L296.226 89.1094
L296.813 89.1094
L296.813 86.7648
L297.4 86.7648
L297.4 90.4408
L297.987 90.4408
L297.987 89.7751
L298.574 89.7751
L298.574 100.852
L299.161 100.852
L299.161 89.2155
L299.748 89.2155
L299.748 89.8909
L300.335 89.8909
L300.335 105.763
L300.923 105.763
L300.923 86.3402
L301.51 86.3402
L301.51 89.6207
L302.097 89.6207
L302.097 88.3568
L302.684 88.3568
L302.684 84.4395
L303.271 84.4395
L303.271 84.9219
L303.858 84.9219
L303.858 85.7903
L304.445 85.7903
L304.445 87.6138
L305.032 87.6138
L305.032 90.3926
L305.619 90.3926
L305.619 84.7482
L306.207 84.7482
L306.207 86.7744
L306.794 86.7744
L306.794 97.0694
L307.381 97.0694
L307.381 89.4278
L307.968 89.4278
L307.968 110.114
L308.555 110.114
L308.555 97.957
L309.142 97.957
L309.142 88.5401
L309.729 88.5401
L309.729 89.4663
L310.316 89.4663
L310.316 93.4608
L310.903 93.4608
L310.903 88.4629
L311.491 88.4629
L311.491 89.0901
L312.078 89.0901
L312.078 89.5918
L312.665 89.5918
L312.665 93.1714
L313.252 93.1714
L313.252 85.4333
L313.839 85.4333
L313.839 88.7234
L314.426 88.7234
L314.426 84.8254
L315.013 84.8254
L315.013 81.4291
L315.6 81.4291
L315.6 82.1721
L316.187 82.1721
L316.187 84.4974
L316.775 84.4974
L316.775 98.2561
L317.362 98.2561
L317.362 101.064
L317.949 101.064
L317.949 88.3471
L318.536 88.3471
L318.536 86.6876
L319.123 86.6876
L319.123 88.2796
L319.71 88.2796
L319.71 85.2885
L320.297 85.2885
L320.297 89.1576
L320.884 89.1576
L320.884 89.3988
L321.471 89.3988
L321.471 88.7234
L322.058 88.7234
L322.058 91.5794
L322.646 91.5794
L322.646 96.3071
L323.233 96.3071
L323.233 91.946
L323.82 91.946
L323.82 90.7978
L324.407 90.7978
L324.407 87.9226
L324.994 87.9226
L324.994 88.8199
L325.581 88.8199
L325.581 93.2486
L326.168 93.2486
L326.168 89.9874
L326.755 89.9874
L326.755 108.937
L327.342 108.937
L327.342 94.8792
L327.93 94.8792
L327.93 90.4891
L329.104 90.5277
L329.104 91.0005
L329.691 91.0005
L329.691 92.7275
L330.278 92.7275
L330.278 91.0391
L330.865 91.0391
L330.865 93.4126
L331.452 93.4126
L331.452 83.7448
L332.039 83.7448
L332.039 87.17
L332.626 87.17
L332.626 91.5408
L333.214 91.5408
L333.214 89.6979
L333.801 89.6979
L333.801 88.4629
L334.388 88.4629
L334.388 102.772
L334.975 102.772
L334.975 106.699
L335.562 106.699
L335.562 89.2734
L336.149 89.2734
L336.149 91.1355
L336.736 91.1355
L336.736 90.2961
L337.323 90.2961
L337.323 88.598
L337.91 88.598
L337.91 91.6469
L338.498 91.6469
L338.498 91.4925
L339.085 91.4925
L339.085 90.5952
L339.672 90.5952
L339.672 82.0177
L340.259 82.0177
L340.259 80.1652
L340.846 80.1652
L340.846 79.7889
L341.433 79.7889
L341.433 80.1941
L342.02 80.1941
L342.02 83.8702
L342.607 83.8702
L342.607 88.6269
L343.194 88.6269
L343.194 84.15
L343.782 84.15
L343.782 89.3216
L344.369 89.3216
L344.369 86.4464
L344.956 86.4464
L344.956 98.9508
L345.543 98.9508
L345.543 85.2885
L346.13 85.2885
L346.13 85.6648
L346.717 85.6648
L346.717 87.6042
L347.304 87.6042
L347.304 89.5918
L347.891 89.5918
L347.891 90.4119
L348.478 90.4119
L348.478 89.2927
L349.066 89.2927
L349.066 90.875
L349.653 90.875
L349.653 93.4608
L350.827 93.4898
L350.827 93.1521
L351.414 93.1521
L351.414 96.3168
L352.001 96.3168
L352.001 95.0046
L352.588 95.0046
L352.588 91.1645
L353.175 91.1645
L353.175 94.6476
L353.762 94.6476
L353.762 94.3485
L354.349 94.3485
L354.349 93.4801
L355.524 93.5573
L355.524 93.8468
L356.111 93.8468
L356.111 92.7275
L357.285 92.7661
L357.285 94.4353
L357.872 94.4353
L357.872 92.7661
L358.459 92.7661
L358.459 93.9818
L359.046 93.9818
L359.046 88.2506
L359.633 88.2506
L359.633 89.9198
L360.221 89.9198
L360.221 93.1424
L360.808 93.1424
L360.808 93.4415
L361.395 93.4415
L361.395 94.5125
L362.569 94.58
L362.569 111.6
L363.156 111.6
L363.156 101.479
L363.743 101.479
L363.743 92.2162
L364.33 92.2162
L364.33 86.9095
L364.917 86.9095
L364.917 83.1562
L365.505 83.1562
L365.505 85.3368
L366.092 85.3368
L366.092 86.0894
L366.679 86.0894
L366.679 83.6483
L367.266 83.6483
L367.266 87.3437
L367.853 87.3437
L367.853 87.9998
L368.44 87.9998
L368.44 86.0508
L369.027 86.0508
L369.027 88.8199
L369.614 88.8199
L369.614 87.9805
L370.201 87.9805
L370.201 86.0894
L370.789 86.0894
L370.789 89.283
L371.376 89.283
L371.376 92.4381
L371.963 92.4381
L371.963 92.7854
L372.55 92.7854
L372.55 90.4312
L373.137 90.4312
L373.137 92.66
L373.724 92.66
L373.724 91.4443
L374.311 91.4443
L374.311 90.8557
L374.898 90.8557
L374.898 90.2865
L375.485 90.2865
L375.485 93.1231
L376.073 93.1231
L376.073 92.6021
L376.66 92.6021
L376.66 90.8943
L377.247 90.8943
L377.247 88.3375
L377.834 88.3375
L377.834 89.6979
L378.421 89.6979
L378.421 91.2513
L379.008 91.2513
L379.008 89.2058
L379.595 89.2058
L379.595 96.7606
L380.182 96.7606
L380.182 91.5118
L380.769 91.5118
L380.769 95.323
L381.357 95.323
L381.357 94.3002
L381.944 94.3002
L381.944 92.1197
L382.531 92.1197
L382.531 95.3519
L383.118 95.3519
L383.118 94.0011
L383.705 94.0011
L383.705 94.937
L384.292 94.937
L384.292 95.7861
L384.879 95.7861
L384.879 95.0625
L385.466 95.0625
L385.466 91.8592
L386.053 91.8592
L386.053 91.2127
L386.64 91.2127
L386.64 94.773
L387.228 94.773
L387.228 92.7661
L387.815 92.7661
L387.815 93.21
L388.402 93.21
L388.402 91.8881
L388.989 91.8881
L388.989 91.0969
L389.576 91.0969
L389.576 95.7765
L390.163 95.7765
L390.163 91.8302
L390.75 91.8302
L390.75 93.9818
L391.337 93.9818
L391.337 91.7337
L391.924 91.7337
L391.924 93.4608
L392.512 93.4608
L392.512 92.0714
L393.686 92.1679
L393.686 93.6152
L394.273 93.6152
L394.273 92.7758
L394.86 92.7758
L394.86 93.3257
L395.447 93.3257
L395.447 92.0425
L396.034 92.0425
L396.034 90.711
L396.621 90.711
L396.621 90.1321
L397.208 90.1321
L397.208 91.1355
L397.796 91.1355
L397.796 91.1355" style="fill:none;stroke:#0000ff;"/>
   </g>
   <g id="matplotlib.axis_1">
    <g id="xtick_1">
     <g id="line2d_28">
      <defs>
       <path d="
M0 0
L0 -4" id="m0012dd4eef" style="stroke:#000000;stroke-linecap:butt;stroke-width:0.5;"/>
      </defs>
      <g>
       <use style="stroke:#000000;stroke-linecap:butt;stroke-width:0.5;" x="46.1171875" xlink:href="#m0012dd4eef" y="111.6"/>
      </g>
     </g>
     <g id="line2d_29">
      <defs>
       <path d="
M0 0
L0 4" id="m476344969c" style="stroke:#000000;stroke-linecap:butt;stroke-width:0.5;"/>
      </defs>
      <g>
       <use style="stroke:#000000;stroke-linecap:butt;stroke-width:0.5;" x="46.1171875" xlink:href="#m476344969c" y="32.0"/>
      </g>
     </g>
     <g id="text_1">
      <!-- 0 -->
      <defs>
       <path d="
M31.7812 66.4062
Q24.1719 66.4062 20.3281 58.9062
Q16.5 51.4219 16.5 36.375
Q16.5 21.3906 20.3281 13.8906
Q24.1719 6.39062 31.7812 6.39062
Q39.4531 6.39062 43.2812 13.8906
Q47.125 21.3906 47.125 36.375
Q47.125 51.4219 43.2812 58.9062
Q39.4531 66.4062 31.7812 66.4062
M31.7812 74.2188
Q44.0469 74.2188 50.5156 64.5156
Q56.9844 54.8281 56.9844 36.375
Q56.9844 17.9688 50.5156 8.26562
Q44.0469 -1.42188 31.7812 -1.42188
Q19.5312 -1.42188 13.0625 8.26562
Q6.59375 17.9688 6.59375 36.375
Q6.59375 54.8281 13.0625 64.5156
Q19.5312 74.2188 31.7812 74.2188" id="DejaVuSans-30"/>
      </defs>
      <g transform="translate(43.59765625 123.021875)scale(0.1 -0.1)">
       <use xlink:href="#DejaVuSans-30"/>
      </g>
     </g>
    </g>
    <g id="xtick_2">
     <g id="line2d_30">
      <g>
       <use style="stroke:#000000;stroke-linecap:butt;stroke-width:0.5;" x="135.073242188" xlink:href="#m0012dd4eef" y="111.6"/>
      </g>
     </g>
     <g id="line2d_31">
      <g>
       <use style="stroke:#000000;stroke-linecap:butt;stroke-width:0.5;" x="135.073242188" xlink:href="#m476344969c" y="32.0"/>
      </g>
     </g>
     <g id="text_2">
      <!-- 500 -->
      <defs>
       <path d="
M10.7969 72.9062
L49.5156 72.9062
L49.5156 64.5938
L19.8281 64.5938
L19.8281 46.7344
Q21.9688 47.4688 24.1094 47.8281
Q26.2656 48.1875 28.4219 48.1875
Q40.625 48.1875 47.75 41.5
Q54.8906 34.8125 54.8906 23.3906
Q54.8906 11.625 47.5625 5.09375
Q40.2344 -1.42188 26.9062 -1.42188
Q22.3125 -1.42188 17.5469 -0.640625
Q12.7969 0.140625 7.71875 1.70312
L7.71875 11.625
Q12.1094 9.23438 16.7969 8.0625
Q21.4844 6.89062 26.7031 6.89062
Q35.1562 6.89062 40.0781 11.3281
Q45.0156 15.7656 45.0156 23.3906
Q45.0156 31 40.0781 35.4375
Q35.1562 39.8906 26.7031 39.8906
Q22.75 39.8906 18.8125 39.0156
Q14.8906 38.1406 10.7969 36.2812
z
" id="DejaVuSans-35"/>
      </defs>
      <g transform="translate(126.247460938 123.021875)scale(0.1 -0.1)">
       <use xlink:href="#DejaVuSans-35"/>
       <use x="63.623046875" xlink:href="#DejaVuSans-30"/>
       <use x="127.24609375" xlink:href="#DejaVuSans-30"/>
      </g>
     </g>
    </g>
    <g id="xtick_3">
     <g id="line2d_32">
      <g>
       <use style="stroke:#000000;stroke-linecap:butt;stroke-width:0.5;" x="224.029296875" xlink:href="#m0012dd4eef" y="111.6"/>
      </g>
     </g>
     <g id="line2d_33">
      <g>
       <use style="stroke:#000000;stroke-linecap:butt;stroke-width:0.5;" x="224.029296875" xlink:href="#m476344969c" y="32.0"/>
      </g>
     </g>
     <g id="text_3">
      <!-- 1000 -->
      <defs>
       <path d="
M12.4062 8.29688
L28.5156 8.29688
L28.5156 63.9219
L10.9844 60.4062
L10.9844 69.3906
L28.4219 72.9062
L38.2812 72.9062
L38.2812 8.29688
L54.3906 8.29688
L54.3906 0
L12.4062 0
z
" id="DejaVuSans-31"/>
      </defs>
      <g transform="translate(212.185546875 123.021875)scale(0.1 -0.1)">
       <use xlink:href="#DejaVuSans-31"/>
       <use x="63.623046875" xlink:href="#DejaVuSans-30"/>
       <use x="127.24609375" xlink:href="#DejaVuSans-30"/>
       <use x="190.869140625" xlink:href="#DejaVuSans-30"/>
      </g>
     </g>
    </g>
    <g id="xtick_4">
     <g id="line2d_34">
      <g>
       <use style="stroke:#000000;stroke-linecap:butt;stroke-width:0.5;" x="312.985351563" xlink:href="#m0012dd4eef" y="111.6"/>
      </g>
     </g>
     <g id="line2d_35">
      <g>
       <use style="stroke:#000000;stroke-linecap:butt;stroke-width:0.5;" x="312.985351563" xlink:href="#m476344969c" y="32.0"/>
      </g>
     </g>
     <g id="text_4">
      <!-- 1500 -->
      <g transform="translate(301.141601563 123.021875)scale(0.1 -0.1)">
       <use xlink:href="#DejaVuSans-31"/>
       <use x="63.623046875" xlink:href="#DejaVuSans-35"/>
       <use x="127.24609375" xlink:href="#DejaVuSans-30"/>
       <use x="190.869140625" xlink:href="#DejaVuSans-30"/>
      </g>
     </g>
    </g>
    <g id="xtick_5">
     <g id="line2d_36">
      <g>
       <use style="stroke:#000000;stroke-linecap:butt;stroke-width:0.5;" x="401.94140625" xlink:href="#m0012dd4eef" y="111.6"/>
      </g>
     </g>
     <g id="line2d_37">
      <g>
       <use style="stroke:#000000;stroke-linecap:butt;stroke-width:0.5;" x="401.94140625" xlink:href="#m476344969c" y="32.0"/>
      </g>
     </g>
     <g id="text_5">
      <!-- 2000 -->
      <defs>
       <path d="
M19.1875 8.29688
L53.6094 8.29688
L53.6094 0
L7.32812 0
L7.32812 8.29688
Q12.9375 14.1094 22.625 23.8906
Q32.3281 33.6875 34.8125 36.5312
Q39.5469 41.8438 41.4219 45.5312
Q43.3125 49.2188 43.3125 52.7812
Q43.3125 58.5938 39.2344 62.25
Q35.1562 65.9219 28.6094 65.9219
Q23.9688 65.9219 18.8125 64.3125
Q13.6719 62.7031 7.8125 59.4219
L7.8125 69.3906
Q13.7656 71.7812 18.9375 73
Q24.125 74.2188 28.4219 74.2188
Q39.75 74.2188 46.4844 68.5469
Q53.2188 62.8906 53.2188 53.4219
Q53.2188 48.9219 51.5312 44.8906
Q49.8594 40.875 45.4062 35.4062
Q44.1875 33.9844 37.6406 27.2188
Q31.1094 20.4531 19.1875 8.29688" id="DejaVuSans-32"/>
      </defs>
      <g transform="translate(389.91484375 123.021875)scale(0.1 -0.1)">
       <use xlink:href="#DejaVuSans-32"/>
       <use x="63.623046875" xlink:href="#DejaVuSans-30"/>
       <use x="127.24609375" xlink:href="#DejaVuSans-30"/>
       <use x="190.869140625" xlink:href="#DejaVuSans-30"/>
      </g>
     </g>
    </g>
    <g id="text_6">
     <!-- Time -->
     <defs>
      <path d="
M52 44.1875
Q55.375 50.25 60.0625 53.125
Q64.75 56 71.0938 56
Q79.6406 56 84.2812 50.0156
Q88.9219 44.0469 88.9219 33.0156
L88.9219 0
L79.8906 0
L79.8906 32.7188
Q79.8906 40.5781 77.0938 44.375
Q74.3125 48.1875 68.6094 48.1875
Q61.625 48.1875 57.5625 43.5469
Q53.5156 38.9219 53.5156 30.9062
L53.5156 0
L44.4844 0
L44.4844 32.7188
Q44.4844 40.625 41.7031 44.4062
Q38.9219 48.1875 33.1094 48.1875
Q26.2188 48.1875 22.1562 43.5312
Q18.1094 38.875 18.1094 30.9062
L18.1094 0
L9.07812 0
L9.07812 54.6875
L18.1094 54.6875
L18.1094 46.1875
Q21.1875 51.2188 25.4844 53.6094
Q29.7812 56 35.6875 56
Q41.6562 56 45.8281 52.9688
Q50 49.9531 52 44.1875" id="DejaVuSans-6d"/>
      <path d="
M9.42188 54.6875
L18.4062 54.6875
L18.4062 0
L9.42188 0
z

M9.42188 75.9844
L18.4062 75.9844
L18.4062 64.5938
L9.42188 64.5938
z
" id="DejaVuSans-69"/>
      <path d="
M56.2031 29.5938
L56.2031 25.2031
L14.8906 25.2031
Q15.4844 15.9219 20.4844 11.0625
Q25.4844 6.20312 34.4219 6.20312
Q39.5938 6.20312 44.4531 7.46875
Q49.3125 8.73438 54.1094 11.2812
L54.1094 2.78125
Q49.2656 0.734375 44.1875 -0.34375
Q39.1094 -1.42188 33.8906 -1.42188
Q20.7969 -1.42188 13.1562 6.1875
Q5.51562 13.8125 5.51562 26.8125
Q5.51562 40.2344 12.7656 48.1094
Q20.0156 56 32.3281 56
Q43.3594 56 49.7812 48.8906
Q56.2031 41.7969 56.2031 29.5938
M47.2188 32.2344
Q47.125 39.5938 43.0938 43.9844
Q39.0625 48.3906 32.4219 48.3906
Q24.9062 48.3906 20.3906 44.1406
Q15.875 39.8906 15.1875 32.1719
z
" id="DejaVuSans-65"/>
      <path d="
M-0.296875 72.9062
L61.375 72.9062
L61.375 64.5938
L35.5 64.5938
L35.5 0
L25.5938 0
L25.5938 64.5938
L-0.296875 64.5938
z
" id="DejaVuSans-54"/>
     </defs>
     <g transform="translate(212.047265625 135.7625)scale(0.1 -0.1)">
      <use xlink:href="#DejaVuSans-54"/>
      <use x="57.958984375" xlink:href="#DejaVuSans-69"/>
      <use x="85.7421875" xlink:href="#DejaVuSans-6d"/>
      <use x="183.154296875" xlink:href="#DejaVuSans-65"/>
     </g>
    </g>
   </g>
   <g id="matplotlib.axis_2">
    <g id="ytick_1">
     <g id="line2d_38">
      <defs>
       <path d="
M0 0
L4 0" id="me8a85f7bf6" style="stroke:#000000;stroke-linecap:butt;stroke-width:0.5;"/>
      </defs>
      <g>
       <use style="stroke:#000000;stroke-linecap:butt;stroke-width:0.5;" x="46.1171875" xlink:href="#me8a85f7bf6" y="111.6"/>
      </g>
     </g>
     <g id="line2d_39">
      <defs>
       <path d="
M0 0
L-4 0" id="m1a32005dea" style="stroke:#000000;stroke-linecap:butt;stroke-width:0.5;"/>
      </defs>
      <g>
       <use style="stroke:#000000;stroke-linecap:butt;stroke-width:0.5;" x="401.94140625" xlink:href="#m1a32005dea" y="111.6"/>
      </g>
     </g>
     <g id="text_7">
      <!-- 0 -->
      <g transform="translate(37.078125 115.23984375)scale(0.1 -0.1)">
       <use xlink:href="#DejaVuSans-30"/>
      </g>
     </g>
    </g>
    <g id="ytick_2">
     <g id="line2d_40">
      <g>
       <use style="stroke:#000000;stroke-linecap:butt;stroke-width:0.5;" x="46.1171875" xlink:href="#me8a85f7bf6" y="95.68"/>
      </g>
     </g>
     <g id="line2d_41">
      <g>
       <use style="stroke:#000000;stroke-linecap:butt;stroke-width:0.5;" x="401.94140625" xlink:href="#m1a32005dea" y="95.68"/>
      </g>
     </g>
     <g id="text_8">
      <!-- 500 -->
      <g transform="translate(24.465625 99.31984375)scale(0.1 -0.1)">
       <use xlink:href="#DejaVuSans-35"/>
       <use x="63.623046875" xlink:href="#DejaVuSans-30"/>
       <use x="127.24609375" xlink:href="#DejaVuSans-30"/>
      </g>
     </g>
    </g>
    <g id="ytick_3">
     <g id="line2d_42">
      <g>
       <use style="stroke:#000000;stroke-linecap:butt;stroke-width:0.5;" x="46.1171875" xlink:href="#me8a85f7bf6" y="79.76"/>
      </g>
     </g>
     <g id="line2d_43">
      <g>
       <use style="stroke:#000000;stroke-linecap:butt;stroke-width:0.5;" x="401.94140625" xlink:href="#m1a32005dea" y="79.76"/>
      </g>
     </g>
     <g id="text_9">
      <!-- 1000 -->
      <g transform="translate(18.4296875 83.39984375)scale(0.1 -0.1)">
       <use xlink:href="#DejaVuSans-31"/>
       <use x="63.623046875" xlink:href="#DejaVuSans-30"/>
       <use x="127.24609375" xlink:href="#DejaVuSans-30"/>
       <use x="190.869140625" xlink:href="#DejaVuSans-30"/>
      </g>
     </g>
    </g>
    <g id="ytick_4">
     <g id="line2d_44">
      <g>
       <use style="stroke:#000000;stroke-linecap:butt;stroke-width:0.5;" x="46.1171875" xlink:href="#me8a85f7bf6" y="63.84"/>
      </g>
     </g>
     <g id="line2d_45">
      <g>
       <use style="stroke:#000000;stroke-linecap:butt;stroke-width:0.5;" x="401.94140625" xlink:href="#m1a32005dea" y="63.84"/>
      </g>
     </g>
     <g id="text_10">
      <!-- 1500 -->
      <g transform="translate(18.4296875 67.47984375)scale(0.1 -0.1)">
       <use xlink:href="#DejaVuSans-31"/>
       <use x="63.623046875" xlink:href="#DejaVuSans-35"/>
       <use x="127.24609375" xlink:href="#DejaVuSans-30"/>
       <use x="190.869140625" xlink:href="#DejaVuSans-30"/>
      </g>
     </g>
    </g>
    <g id="ytick_5">
     <g id="line2d_46">
      <g>
       <use style="stroke:#000000;stroke-linecap:butt;stroke-width:0.5;" x="46.1171875" xlink:href="#me8a85f7bf6" y="47.92"/>
      </g>
     </g>
     <g id="line2d_47">
      <g>
       <use style="stroke:#000000;stroke-linecap:butt;stroke-width:0.5;" x="401.94140625" xlink:href="#m1a32005dea" y="47.92"/>
      </g>
     </g>
     <g id="text_11">
      <!-- 2000 -->
      <g transform="translate(18.0640625 51.55984375)scale(0.1 -0.1)">
       <use xlink:href="#DejaVuSans-32"/>
       <use x="63.623046875" xlink:href="#DejaVuSans-30"/>
       <use x="127.24609375" xlink:href="#DejaVuSans-30"/>
       <use x="190.869140625" xlink:href="#DejaVuSans-30"/>
      </g>
     </g>
    </g>
    <g id="ytick_6">
     <g id="line2d_48">
      <g>
       <use style="stroke:#000000;stroke-linecap:butt;stroke-width:0.5;" x="46.1171875" xlink:href="#me8a85f7bf6" y="32.0"/>
      </g>
     </g>
     <g id="line2d_49">
      <g>
       <use style="stroke:#000000;stroke-linecap:butt;stroke-width:0.5;" x="401.94140625" xlink:href="#m1a32005dea" y="32.0"/>
      </g>
     </g>
     <g id="text_12">
      <!-- 2500 -->
      <g transform="translate(18.0640625 35.63984375)scale(0.1 -0.1)">
       <use xlink:href="#DejaVuSans-32"/>
       <use x="63.623046875" xlink:href="#DejaVuSans-35"/>
       <use x="127.24609375" xlink:href="#DejaVuSans-30"/>
       <use x="190.869140625" xlink:href="#DejaVuSans-30"/>
      </g>
     </g>
    </g>
   </g>
   <g id="patch_3">
    <path d="
M46.1172 32
L401.941 32" style="fill:none;stroke:#000000;"/>
   </g>
   <g id="patch_4">
    <path d="
M401.941 111.6
L401.941 32" style="fill:none;stroke:#000000;"/>
   </g>
   <g id="patch_5">
    <path d="
M46.1172 111.6
L401.941 111.6" style="fill:none;stroke:#000000;"/>
   </g>
   <g id="patch_6">
    <path d="
M46.1172 111.6
L46.1172 32" style="fill:none;stroke:#000000;"/>
   </g>
   <g id="text_13">
    <!-- OLTP -->
    <defs>
     <path d="
M39.4062 66.2188
Q28.6562 66.2188 22.3281 58.2031
Q16.0156 50.2031 16.0156 36.375
Q16.0156 22.6094 22.3281 14.5938
Q28.6562 6.59375 39.4062 6.59375
Q50.1406 6.59375 56.4219 14.5938
Q62.7031 22.6094 62.7031 36.375
Q62.7031 50.2031 56.4219 58.2031
Q50.1406 66.2188 39.4062 66.2188
M39.4062 74.2188
Q54.7344 74.2188 63.9062 63.9375
Q73.0938 53.6562 73.0938 36.375
Q73.0938 19.1406 63.9062 8.85938
Q54.7344 -1.42188 39.4062 -1.42188
Q24.0312 -1.42188 14.8125 8.82812
Q5.60938 19.0938 5.60938 36.375
Q5.60938 53.6562 14.8125 63.9375
Q24.0312 74.2188 39.4062 74.2188" id="DejaVuSans-4f"/>
     <path d="
M19.6719 64.7969
L19.6719 37.4062
L32.0781 37.4062
Q38.9688 37.4062 42.7188 40.9688
Q46.4844 44.5312 46.4844 51.125
Q46.4844 57.6719 42.7188 61.2344
Q38.9688 64.7969 32.0781 64.7969
z

M9.8125 72.9062
L32.0781 72.9062
Q44.3438 72.9062 50.6094 67.3594
Q56.8906 61.8125 56.8906 51.125
Q56.8906 40.3281 50.6094 34.8125
Q44.3438 29.2969 32.0781 29.2969
L19.6719 29.2969
L19.6719 0
L9.8125 0
z
" id="DejaVuSans-50"/>
     <path d="
M9.8125 72.9062
L19.6719 72.9062
L19.6719 8.29688
L55.1719 8.29688
L55.1719 0
L9.8125 0
z
" id="DejaVuSans-4c"/>
    </defs>
    <g transform="translate(210.046484375 27.0)scale(0.12 -0.12)">
     <use xlink:href="#DejaVuSans-4f"/>
     <use x="78.7109375" xlink:href="#DejaVuSans-4c"/>
     <use x="120.673828125" xlink:href="#DejaVuSans-54"/>
     <use x="181.7578125" xlink:href="#DejaVuSans-50"/>
    </g>
   </g>
  </g>
  <g id="axes_2">
   <g id="patch_7">
    <path d="
M46.1172 246.6
L401.941 246.6
L401.941 167
L46.1172 167
z
" style="fill:#ffffff;"/>
   </g>
   <g id="line2d_50">
    <path clip-path="url(#pe9bd9c4693)" d="
M56.7922 246.6
L56.7922 167" style="fill:none;stroke:#00ffff;stroke-dasharray:6.000000,6.000000;stroke-dashoffset:0.0;stroke-linecap:butt;"/>
   </g>
   <g id="line2d_51">
    <path clip-path="url(#pe9bd9c4693)" d="
M56.7924 246.6
L56.7924 167" style="fill:none;stroke:#00ffff;stroke-dasharray:6.000000,6.000000;stroke-dashoffset:0.0;stroke-linecap:butt;"/>
   </g>
   <g id="line2d_52">
    <path clip-path="url(#pe9bd9c4693)" d="
M78.1417 246.6
L78.1417 167" style="fill:none;stroke:#00ffff;stroke-dasharray:6.000000,6.000000;stroke-dashoffset:0.0;stroke-linecap:butt;"/>
   </g>
   <g id="line2d_53">
    <path clip-path="url(#pe9bd9c4693)" d="
M78.1418 246.6
L78.1418 167" style="fill:none;stroke:#00ffff;stroke-dasharray:6.000000,6.000000;stroke-dashoffset:0.0;stroke-linecap:butt;"/>
   </g>
   <g id="line2d_54">
    <path clip-path="url(#pe9bd9c4693)" d="
M78.1422 246.6
L78.1422 167" style="fill:none;stroke:#00ffff;stroke-dasharray:6.000000,6.000000;stroke-dashoffset:0.0;stroke-linecap:butt;"/>
   </g>
   <g id="line2d_55">
    <path clip-path="url(#pe9bd9c4693)" d="
M99.4911 246.6
L99.4911 167" style="fill:none;stroke:#00ffff;stroke-dasharray:6.000000,6.000000;stroke-dashoffset:0.0;stroke-linecap:butt;"/>
   </g>
   <g id="line2d_56">
    <path clip-path="url(#pe9bd9c4693)" d="
M99.4911 246.6
L99.4911 167" style="fill:none;stroke:#00ffff;stroke-dasharray:6.000000,6.000000;stroke-dashoffset:0.0;stroke-linecap:butt;"/>
   </g>
   <g id="line2d_57">
    <path clip-path="url(#pe9bd9c4693)" d="
M120.84 246.6
L120.84 167" style="fill:none;stroke:#00ffff;stroke-dasharray:6.000000,6.000000;stroke-dashoffset:0.0;stroke-linecap:butt;"/>
   </g>
   <g id="line2d_58">
    <path clip-path="url(#pe9bd9c4693)" d="
M120.841 246.6
L120.841 167" style="fill:none;stroke:#00ffff;stroke-dasharray:6.000000,6.000000;stroke-dashoffset:0.0;stroke-linecap:butt;"/>
   </g>
   <g id="line2d_59">
    <path clip-path="url(#pe9bd9c4693)" d="
M142.19 246.6
L142.19 167" style="fill:none;stroke:#00ffff;stroke-dasharray:6.000000,6.000000;stroke-dashoffset:0.0;stroke-linecap:butt;"/>
   </g>
   <g id="line2d_60">
    <path clip-path="url(#pe9bd9c4693)" d="
M142.19 246.6
L142.19 167" style="fill:none;stroke:#00ffff;stroke-dasharray:6.000000,6.000000;stroke-dashoffset:0.0;stroke-linecap:butt;"/>
   </g>
   <g id="line2d_61">
    <path clip-path="url(#pe9bd9c4693)" d="
M142.19 246.6
L142.19 167" style="fill:none;stroke:#00ffff;stroke-dasharray:6.000000,6.000000;stroke-dashoffset:0.0;stroke-linecap:butt;"/>
   </g>
   <g id="line2d_62">
    <path clip-path="url(#pe9bd9c4693)" d="
M163.549 246.6
L163.549 167" style="fill:none;stroke:#00ffff;stroke-dasharray:6.000000,6.000000;stroke-dashoffset:0.0;stroke-linecap:butt;"/>
   </g>
   <g id="line2d_63">
    <path clip-path="url(#pe9bd9c4693)" d="
M163.549 246.6
L163.549 167" style="fill:none;stroke:#00ffff;stroke-dasharray:6.000000,6.000000;stroke-dashoffset:0.0;stroke-linecap:butt;"/>
   </g>
   <g id="line2d_64">
    <path clip-path="url(#pe9bd9c4693)" d="
M163.549 246.6
L163.549 167" style="fill:none;stroke:#00ffff;stroke-dasharray:6.000000,6.000000;stroke-dashoffset:0.0;stroke-linecap:butt;"/>
   </g>
   <g id="line2d_65">
    <path clip-path="url(#pe9bd9c4693)" d="
M184.889 246.6
L184.889 167" style="fill:none;stroke:#00ffff;stroke-dasharray:6.000000,6.000000;stroke-dashoffset:0.0;stroke-linecap:butt;"/>
   </g>
   <g id="line2d_66">
    <path clip-path="url(#pe9bd9c4693)" d="
M206.239 246.6
L206.239 167" style="fill:none;stroke:#00ffff;stroke-dasharray:6.000000,6.000000;stroke-dashoffset:0.0;stroke-linecap:butt;"/>
   </g>
   <g id="line2d_67">
    <path clip-path="url(#pe9bd9c4693)" d="
M227.588 246.6
L227.588 167" style="fill:none;stroke:#00ffff;stroke-dasharray:6.000000,6.000000;stroke-dashoffset:0.0;stroke-linecap:butt;"/>
   </g>
   <g id="line2d_68">
    <path clip-path="url(#pe9bd9c4693)" d="
M248.937 246.6
L248.937 167" style="fill:none;stroke:#00ffff;stroke-dasharray:6.000000,6.000000;stroke-dashoffset:0.0;stroke-linecap:butt;"/>
   </g>
   <g id="line2d_69">
    <path clip-path="url(#pe9bd9c4693)" d="
M270.287 246.6
L270.287 167" style="fill:none;stroke:#00ffff;stroke-dasharray:6.000000,6.000000;stroke-dashoffset:0.0;stroke-linecap:butt;"/>
   </g>
   <g id="line2d_70">
    <path clip-path="url(#pe9bd9c4693)" d="
M291.636 246.6
L291.636 167" style="fill:none;stroke:#00ffff;stroke-dasharray:6.000000,6.000000;stroke-dashoffset:0.0;stroke-linecap:butt;"/>
   </g>
   <g id="line2d_71">
    <path clip-path="url(#pe9bd9c4693)" d="
M291.637 246.6
L291.637 167" style="fill:none;stroke:#00ffff;stroke-dasharray:6.000000,6.000000;stroke-dashoffset:0.0;stroke-linecap:butt;"/>
   </g>
   <g id="line2d_72">
    <path clip-path="url(#pe9bd9c4693)" d="
M312.986 246.6
L312.986 167" style="fill:none;stroke:#00ffff;stroke-dasharray:6.000000,6.000000;stroke-dashoffset:0.0;stroke-linecap:butt;"/>
   </g>
   <g id="line2d_73">
    <path clip-path="url(#pe9bd9c4693)" d="
M334.335 246.6
L334.335 167" style="fill:none;stroke:#00ffff;stroke-dasharray:6.000000,6.000000;stroke-dashoffset:0.0;stroke-linecap:butt;"/>
   </g>
   <g id="line2d_74">
    <path clip-path="url(#pe9bd9c4693)" d="
M355.684 246.6
L355.684 167" style="fill:none;stroke:#00ffff;stroke-dasharray:6.000000,6.000000;stroke-dashoffset:0.0;stroke-linecap:butt;"/>
   </g>
   <g id="line2d_75">
    <path clip-path="url(#pe9bd9c4693)" d="
M377.034 246.6
L377.034 167" style="fill:none;stroke:#00ffff;stroke-dasharray:6.000000,6.000000;stroke-dashoffset:0.0;stroke-linecap:butt;"/>
   </g>
   <g id="line2d_76">
    <path clip-path="url(#pe9bd9c4693)" d="
M56.7924 231.76
L56.7924 224.712
L76.8835 224.712
L76.8835 227.865
L96.9746 227.865
L96.9746 226.567
L117.066 226.567
L117.066 232.131
L137.157 232.131
L137.157 228.793
L157.248 228.793
L157.248 237.325
L177.339 237.325
L177.339 231.389
L197.43 231.389
L197.43 232.131
L217.521 232.131
L217.521 228.422
L237.612 228.422
L237.612 233.244
L257.703 233.244
L257.703 231.204
L277.795 231.204
L277.795 230.091
L297.886 230.091
L297.886 236.583
L317.977 236.583
L317.977 232.502
L338.068 232.502
L338.068 231.575
L358.159 231.575
L358.159 234.728
L378.25 234.728" style="fill:none;stroke:#008000;"/>
   </g>
   <g id="matplotlib.axis_3">
    <g id="xtick_6">
     <g id="line2d_77">
      <g>
       <use style="stroke:#000000;stroke-linecap:butt;stroke-width:0.5;" x="46.1171875" xlink:href="#m0012dd4eef" y="246.6"/>
      </g>
     </g>
     <g id="line2d_78">
      <g>
       <use style="stroke:#000000;stroke-linecap:butt;stroke-width:0.5;" x="46.1171875" xlink:href="#m476344969c" y="167.0"/>
      </g>
     </g>
     <g id="text_14">
      <!-- 0 -->
      <g transform="translate(43.59765625 258.021875)scale(0.1 -0.1)">
       <use xlink:href="#DejaVuSans-30"/>
      </g>
     </g>
    </g>
    <g id="xtick_7">
     <g id="line2d_79">
      <g>
       <use style="stroke:#000000;stroke-linecap:butt;stroke-width:0.5;" x="135.073242188" xlink:href="#m0012dd4eef" y="246.6"/>
      </g>
     </g>
     <g id="line2d_80">
      <g>
       <use style="stroke:#000000;stroke-linecap:butt;stroke-width:0.5;" x="135.073242188" xlink:href="#m476344969c" y="167.0"/>
      </g>
     </g>
     <g id="text_15">
      <!-- 500 -->
      <g transform="translate(126.247460938 258.021875)scale(0.1 -0.1)">
       <use xlink:href="#DejaVuSans-35"/>
       <use x="63.623046875" xlink:href="#DejaVuSans-30"/>
       <use x="127.24609375" xlink:href="#DejaVuSans-30"/>
      </g>
     </g>
    </g>
    <g id="xtick_8">
     <g id="line2d_81">
      <g>
       <use style="stroke:#000000;stroke-linecap:butt;stroke-width:0.5;" x="224.029296875" xlink:href="#m0012dd4eef" y="246.6"/>
      </g>
     </g>
     <g id="line2d_82">
      <g>
       <use style="stroke:#000000;stroke-linecap:butt;stroke-width:0.5;" x="224.029296875" xlink:href="#m476344969c" y="167.0"/>
      </g>
     </g>
     <g id="text_16">
      <!-- 1000 -->
      <g transform="translate(212.185546875 258.021875)scale(0.1 -0.1)">
       <use xlink:href="#DejaVuSans-31"/>
       <use x="63.623046875" xlink:href="#DejaVuSans-30"/>
       <use x="127.24609375" xlink:href="#DejaVuSans-30"/>
       <use x="190.869140625" xlink:href="#DejaVuSans-30"/>
      </g>
     </g>
    </g>
    <g id="xtick_9">
     <g id="line2d_83">
      <g>
       <use style="stroke:#000000;stroke-linecap:butt;stroke-width:0.5;" x="312.985351563" xlink:href="#m0012dd4eef" y="246.6"/>
      </g>
     </g>
     <g id="line2d_84">
      <g>
       <use style="stroke:#000000;stroke-linecap:butt;stroke-width:0.5;" x="312.985351563" xlink:href="#m476344969c" y="167.0"/>
      </g>
     </g>
     <g id="text_17">
      <!-- 1500 -->
      <g transform="translate(301.141601563 258.021875)scale(0.1 -0.1)">
       <use xlink:href="#DejaVuSans-31"/>
       <use x="63.623046875" xlink:href="#DejaVuSans-35"/>
       <use x="127.24609375" xlink:href="#DejaVuSans-30"/>
       <use x="190.869140625" xlink:href="#DejaVuSans-30"/>
      </g>
     </g>
    </g>
    <g id="xtick_10">
     <g id="line2d_85">
      <g>
       <use style="stroke:#000000;stroke-linecap:butt;stroke-width:0.5;" x="401.94140625" xlink:href="#m0012dd4eef" y="246.6"/>
      </g>
     </g>
     <g id="line2d_86">
      <g>
       <use style="stroke:#000000;stroke-linecap:butt;stroke-width:0.5;" x="401.94140625" xlink:href="#m476344969c" y="167.0"/>
      </g>
     </g>
     <g id="text_18">
      <!-- 2000 -->
      <g transform="translate(389.91484375 258.021875)scale(0.1 -0.1)">
       <use xlink:href="#DejaVuSans-32"/>
       <use x="63.623046875" xlink:href="#DejaVuSans-30"/>
       <use x="127.24609375" xlink:href="#DejaVuSans-30"/>
       <use x="190.869140625" xlink:href="#DejaVuSans-30"/>
      </g>
     </g>
    </g>
    <g id="text_19">
     <!-- Time -->
     <g transform="translate(212.047265625 270.7625)scale(0.1 -0.1)">
      <use xlink:href="#DejaVuSans-54"/>
      <use x="57.958984375" xlink:href="#DejaVuSans-69"/>
      <use x="85.7421875" xlink:href="#DejaVuSans-6d"/>
      <use x="183.154296875" xlink:href="#DejaVuSans-65"/>
     </g>
    </g>
   </g>
   <g id="matplotlib.axis_4">
    <g id="ytick_7">
     <g id="line2d_87">
      <g>
       <use style="stroke:#000000;stroke-linecap:butt;stroke-width:0.5;" x="46.1171875" xlink:href="#me8a85f7bf6" y="246.6"/>
      </g>
     </g>
     <g id="line2d_88">
      <g>
       <use style="stroke:#000000;stroke-linecap:butt;stroke-width:0.5;" x="401.94140625" xlink:href="#m1a32005dea" y="246.6"/>
      </g>
     </g>
     <g id="text_20">
      <!-- 0.0 -->
      <defs>
       <path d="
M10.6875 12.4062
L21 12.4062
L21 0
L10.6875 0
z
" id="DejaVuSans-2e"/>
      </defs>
      <g transform="translate(27.5375 250.23984375)scale(0.1 -0.1)">
       <use xlink:href="#DejaVuSans-30"/>
       <use x="63.623046875" xlink:href="#DejaVuSans-2e"/>
       <use x="95.41015625" xlink:href="#DejaVuSans-30"/>
      </g>
     </g>
    </g>
    <g id="ytick_8">
     <g id="line2d_89">
      <g>
       <use style="stroke:#000000;stroke-linecap:butt;stroke-width:0.5;" x="46.1171875" xlink:href="#me8a85f7bf6" y="236.126315789"/>
      </g>
     </g>
     <g id="line2d_90">
      <g>
       <use style="stroke:#000000;stroke-linecap:butt;stroke-width:0.5;" x="401.94140625" xlink:href="#m1a32005dea" y="236.126315789"/>
      </g>
     </g>
     <g id="text_21">
      <!-- 0.5 -->
      <g transform="translate(27.746875 239.766159539)scale(0.1 -0.1)">
       <use xlink:href="#DejaVuSans-30"/>
       <use x="63.623046875" xlink:href="#DejaVuSans-2e"/>
       <use x="95.41015625" xlink:href="#DejaVuSans-35"/>
      </g>
     </g>
    </g>
    <g id="ytick_9">
     <g id="line2d_91">
      <g>
       <use style="stroke:#000000;stroke-linecap:butt;stroke-width:0.5;" x="46.1171875" xlink:href="#me8a85f7bf6" y="225.652631579"/>
      </g>
     </g>
     <g id="line2d_92">
      <g>
       <use style="stroke:#000000;stroke-linecap:butt;stroke-width:0.5;" x="401.94140625" xlink:href="#m1a32005dea" y="225.652631579"/>
      </g>
     </g>
     <g id="text_22">
      <!-- 1.0 -->
      <g transform="translate(27.9765625 229.292475329)scale(0.1 -0.1)">
       <use xlink:href="#DejaVuSans-31"/>
       <use x="63.623046875" xlink:href="#DejaVuSans-2e"/>
       <use x="95.41015625" xlink:href="#DejaVuSans-30"/>
      </g>
     </g>
    </g>
    <g id="ytick_10">
     <g id="line2d_93">
      <g>
       <use style="stroke:#000000;stroke-linecap:butt;stroke-width:0.5;" x="46.1171875" xlink:href="#me8a85f7bf6" y="215.178947368"/>
      </g>
     </g>
     <g id="line2d_94">
      <g>
       <use style="stroke:#000000;stroke-linecap:butt;stroke-width:0.5;" x="401.94140625" xlink:href="#m1a32005dea" y="215.178947368"/>
      </g>
     </g>
     <g id="text_23">
      <!-- 1.5 -->
      <g transform="translate(28.1859375 218.753166118)scale(0.1 -0.1)">
       <use xlink:href="#DejaVuSans-31"/>
       <use x="63.623046875" xlink:href="#DejaVuSans-2e"/>
       <use x="95.41015625" xlink:href="#DejaVuSans-35"/>
      </g>
     </g>
    </g>
    <g id="ytick_11">
     <g id="line2d_95">
      <g>
       <use style="stroke:#000000;stroke-linecap:butt;stroke-width:0.5;" x="46.1171875" xlink:href="#me8a85f7bf6" y="204.705263158"/>
      </g>
     </g>
     <g id="line2d_96">
      <g>
       <use style="stroke:#000000;stroke-linecap:butt;stroke-width:0.5;" x="401.94140625" xlink:href="#m1a32005dea" y="204.705263158"/>
      </g>
     </g>
     <g id="text_24">
      <!-- 2.0 -->
      <g transform="translate(27.6109375 208.345106908)scale(0.1 -0.1)">
       <use xlink:href="#DejaVuSans-32"/>
       <use x="63.623046875" xlink:href="#DejaVuSans-2e"/>
       <use x="95.41015625" xlink:href="#DejaVuSans-30"/>
      </g>
     </g>
    </g>
    <g id="ytick_12">
     <g id="line2d_97">
      <g>
       <use style="stroke:#000000;stroke-linecap:butt;stroke-width:0.5;" x="46.1171875" xlink:href="#me8a85f7bf6" y="194.231578947"/>
      </g>
     </g>
     <g id="line2d_98">
      <g>
       <use style="stroke:#000000;stroke-linecap:butt;stroke-width:0.5;" x="401.94140625" xlink:href="#m1a32005dea" y="194.231578947"/>
      </g>
     </g>
     <g id="text_25">
      <!-- 2.5 -->
      <g transform="translate(27.8203125 197.871422697)scale(0.1 -0.1)">
       <use xlink:href="#DejaVuSans-32"/>
       <use x="63.623046875" xlink:href="#DejaVuSans-2e"/>
       <use x="95.41015625" xlink:href="#DejaVuSans-35"/>
      </g>
     </g>
    </g>
    <g id="ytick_13">
     <g id="line2d_99">
      <g>
       <use style="stroke:#000000;stroke-linecap:butt;stroke-width:0.5;" x="46.1171875" xlink:href="#me8a85f7bf6" y="183.757894737"/>
      </g>
     </g>
     <g id="line2d_100">
      <g>
       <use style="stroke:#000000;stroke-linecap:butt;stroke-width:0.5;" x="401.94140625" xlink:href="#m1a32005dea" y="183.757894737"/>
      </g>
     </g>
     <g id="text_26">
      <!-- 3.0 -->
      <defs>
       <path d="
M40.5781 39.3125
Q47.6562 37.7969 51.625 33
Q55.6094 28.2188 55.6094 21.1875
Q55.6094 10.4062 48.1875 4.48438
Q40.7656 -1.42188 27.0938 -1.42188
Q22.5156 -1.42188 17.6562 -0.515625
Q12.7969 0.390625 7.625 2.20312
L7.625 11.7188
Q11.7188 9.32812 16.5938 8.10938
Q21.4844 6.89062 26.8125 6.89062
Q36.0781 6.89062 40.9375 10.5469
Q45.7969 14.2031 45.7969 21.1875
Q45.7969 27.6406 41.2812 31.2656
Q36.7656 34.9062 28.7188 34.9062
L20.2188 34.9062
L20.2188 43.0156
L29.1094 43.0156
Q36.375 43.0156 40.2344 45.9219
Q44.0938 48.8281 44.0938 54.2969
Q44.0938 59.9062 40.1094 62.9062
Q36.1406 65.9219 28.7188 65.9219
Q24.6562 65.9219 20.0156 65.0312
Q15.375 64.1562 9.8125 62.3125
L9.8125 71.0938
Q15.4375 72.6562 20.3438 73.4375
Q25.25 74.2188 29.5938 74.2188
Q40.8281 74.2188 47.3594 69.1094
Q53.9062 64.0156 53.9062 55.3281
Q53.9062 49.2656 50.4375 45.0938
Q46.9688 40.9219 40.5781 39.3125" id="DejaVuSans-33"/>
      </defs>
      <g transform="translate(27.640625 187.397738487)scale(0.1 -0.1)">
       <use xlink:href="#DejaVuSans-33"/>
       <use x="63.623046875" xlink:href="#DejaVuSans-2e"/>
       <use x="95.41015625" xlink:href="#DejaVuSans-30"/>
      </g>
     </g>
    </g>
    <g id="ytick_14">
     <g id="line2d_101">
      <g>
       <use style="stroke:#000000;stroke-linecap:butt;stroke-width:0.5;" x="46.1171875" xlink:href="#me8a85f7bf6" y="173.284210526"/>
      </g>
     </g>
     <g id="line2d_102">
      <g>
       <use style="stroke:#000000;stroke-linecap:butt;stroke-width:0.5;" x="401.94140625" xlink:href="#m1a32005dea" y="173.284210526"/>
      </g>
     </g>
     <g id="text_27">
      <!-- 3.5 -->
      <g transform="translate(27.85 176.924054276)scale(0.1 -0.1)">
       <use xlink:href="#DejaVuSans-33"/>
       <use x="63.623046875" xlink:href="#DejaVuSans-2e"/>
       <use x="95.41015625" xlink:href="#DejaVuSans-35"/>
      </g>
     </g>
    </g>
   </g>
   <g id="patch_8">
    <path d="
M46.1172 167
L401.941 167" style="fill:none;stroke:#000000;"/>
   </g>
   <g id="patch_9">
    <path d="
M401.941 246.6
L401.941 167" style="fill:none;stroke:#000000;"/>
   </g>
   <g id="patch_10">
    <path d="
M46.1172 246.6
L401.941 246.6" style="fill:none;stroke:#000000;"/>
   </g>
   <g id="patch_11">
    <path d="
M46.1172 246.6
L46.1172 167" style="fill:none;stroke:#000000;"/>
   </g>
   <g id="text_28">
    <!-- OLAP -->
    <defs>
     <path d="
M34.1875 63.1875
L20.7969 26.9062
L47.6094 26.9062
z

M28.6094 72.9062
L39.7969 72.9062
L67.5781 0
L57.3281 0
L50.6875 18.7031
L17.8281 18.7031
L11.1875 0
L0.78125 0
z
" id="DejaVuSans-41"/>
    </defs>
    <g transform="translate(208.646796875 162.0)scale(0.12 -0.12)">
     <use xlink:href="#DejaVuSans-4f"/>
     <use x="78.7109375" xlink:href="#DejaVuSans-4c"/>
     <use x="136.673828125" xlink:href="#DejaVuSans-41"/>
     <use x="205.08203125" xlink:href="#DejaVuSans-50"/>
    </g>
   </g>
  </g>
  <g id="text_29">
   <!-- 7 OLTP workers -->
   <defs>
    <path d="
M30.6094 48.3906
Q23.3906 48.3906 19.1875 42.75
Q14.9844 37.1094 14.9844 27.2969
Q14.9844 17.4844 19.1562 11.8438
Q23.3438 6.20312 30.6094 6.20312
Q37.7969 6.20312 41.9844 11.8594
Q46.1875 17.5312 46.1875 27.2969
Q46.1875 37.0156 41.9844 42.7031
Q37.7969 48.3906 30.6094 48.3906
M30.6094 56
Q42.3281 56 49.0156 48.375
Q55.7188 40.7656 55.7188 27.2969
Q55.7188 13.875 49.0156 6.21875
Q42.3281 -1.42188 30.6094 -1.42188
Q18.8438 -1.42188 12.1719 6.21875
Q5.51562 13.875 5.51562 27.2969
Q5.51562 40.7656 12.1719 48.375
Q18.8438 56 30.6094 56" id="DejaVuSans-6f"/>
    <path d="
M9.07812 75.9844
L18.1094 75.9844
L18.1094 31.1094
L44.9219 54.6875
L56.3906 54.6875
L27.3906 29.1094
L57.625 0
L45.9062 0
L18.1094 26.7031
L18.1094 0
L9.07812 0
z
" id="DejaVuSans-6b"/>
    <path id="DejaVuSans-20"/>
    <path d="
M8.20312 72.9062
L55.0781 72.9062
L55.0781 68.7031
L28.6094 0
L18.3125 0
L43.2188 64.5938
L8.20312 64.5938
z
" id="DejaVuSans-37"/>
    <path d="
M4.20312 54.6875
L13.1875 54.6875
L24.4219 12.0156
L35.5938 54.6875
L46.1875 54.6875
L57.4219 12.0156
L68.6094 54.6875
L77.5938 54.6875
L63.2812 0
L52.6875 0
L40.9219 44.8281
L29.1094 0
L18.5 0
z
" id="DejaVuSans-77"/>
    <path d="
M44.2812 53.0781
L44.2812 44.5781
Q40.4844 46.5312 36.375 47.5
Q32.2812 48.4844 27.875 48.4844
Q21.1875 48.4844 17.8438 46.4375
Q14.5 44.3906 14.5 40.2812
Q14.5 37.1562 16.8906 35.375
Q19.2812 33.5938 26.5156 31.9844
L29.5938 31.2969
Q39.1562 29.25 43.1875 25.5156
Q47.2188 21.7812 47.2188 15.0938
Q47.2188 7.46875 41.1875 3.01562
Q35.1562 -1.42188 24.6094 -1.42188
Q20.2188 -1.42188 15.4531 -0.5625
Q10.6875 0.296875 5.42188 2
L5.42188 11.2812
Q10.4062 8.6875 15.2344 7.39062
Q20.0625 6.10938 24.8125 6.10938
Q31.1562 6.10938 34.5625 8.28125
Q37.9844 10.4531 37.9844 14.4062
Q37.9844 18.0625 35.5156 20.0156
Q33.0625 21.9688 24.7031 23.7812
L21.5781 24.5156
Q13.2344 26.2656 9.51562 29.9062
Q5.8125 33.5469 5.8125 39.8906
Q5.8125 47.6094 11.2812 51.7969
Q16.75 56 26.8125 56
Q31.7812 56 36.1719 55.2656
Q40.5781 54.5469 44.2812 53.0781" id="DejaVuSans-73"/>
    <path d="
M41.1094 46.2969
Q39.5938 47.1719 37.8125 47.5781
Q36.0312 48 33.8906 48
Q26.2656 48 22.1875 43.0469
Q18.1094 38.0938 18.1094 28.8125
L18.1094 0
L9.07812 0
L9.07812 54.6875
L18.1094 54.6875
L18.1094 46.1875
Q20.9531 51.1719 25.4844 53.5781
Q30.0312 56 36.5312 56
Q37.4531 56 38.5781 55.875
Q39.7031 55.7656 41.0625 55.5156
z
" id="DejaVuSans-72"/>
   </defs>
   <g transform="translate(178.1265625 13.3584375)scale(0.1 -0.1)">
    <use xlink:href="#DejaVuSans-37"/>
    <use x="63.623046875" xlink:href="#DejaVuSans-20"/>
    <use x="95.41015625" xlink:href="#DejaVuSans-4f"/>
    <use x="174.12109375" xlink:href="#DejaVuSans-4c"/>
    <use x="216.083984375" xlink:href="#DejaVuSans-54"/>
    <use x="277.16796875" xlink:href="#DejaVuSans-50"/>
    <use x="337.470703125" xlink:href="#DejaVuSans-20"/>
    <use x="369.2578125" xlink:href="#DejaVuSans-77"/>
    <use x="451.044921875" xlink:href="#DejaVuSans-6f"/>
    <use x="512.2265625" xlink:href="#DejaVuSans-72"/>
    <use x="553.33984375" xlink:href="#DejaVuSans-6b"/>
    <use x="607.625" xlink:href="#DejaVuSans-65"/>
    <use x="669.1484375" xlink:href="#DejaVuSans-72"/>
    <use x="710.26171875" xlink:href="#DejaVuSans-73"/>
   </g>
  </g>
 </g>
 <defs>
  <clipPath id="pe9bd9c4693">
   <rect height="79.6" width="355.82421875" x="46.1171875" y="167.0"/>
  </clipPath>
  <clipPath id="paafe9ad165">
   <rect height="79.6" width="355.82421875" x="46.1171875" y="32.0"/>
  </clipPath>
 </defs>
</svg>
