<?xml version="1.0" encoding="utf-8" standalone="no"?>
<!DOCTYPE svg PUBLIC "-//W3C//DTD SVG 1.1//EN"
  "http://www.w3.org/Graphics/SVG/1.1/DTD/svg11.dtd">
<!-- Created with matplotlib (http://matplotlib.sourceforge.net/) -->
<svg height="288pt" version="1.1" viewBox="0 0 432 288" width="432pt" xmlns="http://www.w3.org/2000/svg" xmlns:xlink="http://www.w3.org/1999/xlink">
 <defs>
  <style type="text/css">
*{stroke-linecap:square;stroke-linejoin:round;}
  </style>
 </defs>
 <g id="figure_1">
  <g id="patch_1">
   <path d="
M0 288
L432 288
L432 0
L0 0
z
" style="fill:#ffffff;"/>
  </g>
  <g id="axes_1">
   <g id="patch_2">
    <path d="
M46.1172 111.6
L401.941 111.6
L401.941 32
L46.1172 32
z
" style="fill:#ffffff;"/>
   </g>
   <g id="line2d_1">
    <path clip-path="url(#paafe9ad165)" d="
M56.7926 111.6
L56.7926 32" style="fill:none;stroke:#00ffff;stroke-dasharray:6.000000,6.000000;stroke-dashoffset:0.0;stroke-linecap:butt;"/>
   </g>
   <g id="line2d_2">
    <path clip-path="url(#paafe9ad165)" d="
M78.1416 111.6
L78.1416 32" style="fill:none;stroke:#00ffff;stroke-dasharray:6.000000,6.000000;stroke-dashoffset:0.0;stroke-linecap:butt;"/>
   </g>
   <g id="line2d_3">
    <path clip-path="url(#paafe9ad165)" d="
M78.1417 111.6
L78.1417 32" style="fill:none;stroke:#00ffff;stroke-dasharray:6.000000,6.000000;stroke-dashoffset:0.0;stroke-linecap:butt;"/>
   </g>
   <g id="line2d_4">
    <path clip-path="url(#paafe9ad165)" d="
M78.142 111.6
L78.142 32" style="fill:none;stroke:#00ffff;stroke-dasharray:6.000000,6.000000;stroke-dashoffset:0.0;stroke-linecap:butt;"/>
   </g>
   <g id="line2d_5">
    <path clip-path="url(#paafe9ad165)" d="
M99.4912 111.6
L99.4912 32" style="fill:none;stroke:#00ffff;stroke-dasharray:6.000000,6.000000;stroke-dashoffset:0.0;stroke-linecap:butt;"/>
   </g>
   <g id="line2d_6">
    <path clip-path="url(#paafe9ad165)" d="
M99.4912 111.6
L99.4912 32" style="fill:none;stroke:#00ffff;stroke-dasharray:6.000000,6.000000;stroke-dashoffset:0.0;stroke-linecap:butt;"/>
   </g>
   <g id="line2d_7">
    <path clip-path="url(#paafe9ad165)" d="
M99.4914 111.6
L99.4914 32" style="fill:none;stroke:#00ffff;stroke-dasharray:6.000000,6.000000;stroke-dashoffset:0.0;stroke-linecap:butt;"/>
   </g>
   <g id="line2d_8">
    <path clip-path="url(#paafe9ad165)" d="
M120.841 111.6
L120.841 32" style="fill:none;stroke:#00ffff;stroke-dasharray:6.000000,6.000000;stroke-dashoffset:0.0;stroke-linecap:butt;"/>
   </g>
   <g id="line2d_9">
    <path clip-path="url(#paafe9ad165)" d="
M120.841 111.6
L120.841 32" style="fill:none;stroke:#00ffff;stroke-dasharray:6.000000,6.000000;stroke-dashoffset:0.0;stroke-linecap:butt;"/>
   </g>
   <g id="line2d_10">
    <path clip-path="url(#paafe9ad165)" d="
M142.19 111.6
L142.19 32" style="fill:none;stroke:#00ffff;stroke-dasharray:6.000000,6.000000;stroke-dashoffset:0.0;stroke-linecap:butt;"/>
   </g>
   <g id="line2d_11">
    <path clip-path="url(#paafe9ad165)" d="
M142.192 111.6
L142.192 32" style="fill:none;stroke:#00ffff;stroke-dasharray:6.000000,6.000000;stroke-dashoffset:0.0;stroke-linecap:butt;"/>
   </g>
   <g id="line2d_12">
    <path clip-path="url(#paafe9ad165)" d="
M142.194 111.6
L142.194 32" style="fill:none;stroke:#00ffff;stroke-dasharray:6.000000,6.000000;stroke-dashoffset:0.0;stroke-linecap:butt;"/>
   </g>
   <g id="line2d_13">
    <path clip-path="url(#paafe9ad165)" d="
M163.54 111.6
L163.54 32" style="fill:none;stroke:#00ffff;stroke-dasharray:6.000000,6.000000;stroke-dashoffset:0.0;stroke-linecap:butt;"/>
   </g>
   <g id="line2d_14">
    <path clip-path="url(#paafe9ad165)" d="
M163.54 111.6
L163.54 32" style="fill:none;stroke:#00ffff;stroke-dasharray:6.000000,6.000000;stroke-dashoffset:0.0;stroke-linecap:butt;"/>
   </g>
   <g id="line2d_15">
    <path clip-path="url(#paafe9ad165)" d="
M184.889 111.6
L184.889 32" style="fill:none;stroke:#00ffff;stroke-dasharray:6.000000,6.000000;stroke-dashoffset:0.0;stroke-linecap:butt;"/>
   </g>
   <g id="line2d_16">
    <path clip-path="url(#paafe9ad165)" d="
M184.889 111.6
L184.889 32" style="fill:none;stroke:#00ffff;stroke-dasharray:6.000000,6.000000;stroke-dashoffset:0.0;stroke-linecap:butt;"/>
   </g>
   <g id="line2d_17">
    <path clip-path="url(#paafe9ad165)" d="
M206.239 111.6
L206.239 32" style="fill:none;stroke:#00ffff;stroke-dasharray:6.000000,6.000000;stroke-dashoffset:0.0;stroke-linecap:butt;"/>
   </g>
   <g id="line2d_18">
    <path clip-path="url(#paafe9ad165)" d="
M206.239 111.6
L206.239 32" style="fill:none;stroke:#00ffff;stroke-dasharray:6.000000,6.000000;stroke-dashoffset:0.0;stroke-linecap:butt;"/>
   </g>
   <g id="line2d_19">
    <path clip-path="url(#paafe9ad165)" d="
M227.588 111.6
L227.588 32" style="fill:none;stroke:#00ffff;stroke-dasharray:6.000000,6.000000;stroke-dashoffset:0.0;stroke-linecap:butt;"/>
   </g>
   <g id="line2d_20">
    <path clip-path="url(#paafe9ad165)" d="
M248.938 111.6
L248.938 32" style="fill:none;stroke:#00ffff;stroke-dasharray:6.000000,6.000000;stroke-dashoffset:0.0;stroke-linecap:butt;"/>
   </g>
   <g id="line2d_21">
    <path clip-path="url(#paafe9ad165)" d="
M270.287 111.6
L270.287 32" style="fill:none;stroke:#00ffff;stroke-dasharray:6.000000,6.000000;stroke-dashoffset:0.0;stroke-linecap:butt;"/>
   </g>
   <g id="line2d_22">
    <path clip-path="url(#paafe9ad165)" d="
M291.636 111.6
L291.636 32" style="fill:none;stroke:#00ffff;stroke-dasharray:6.000000,6.000000;stroke-dashoffset:0.0;stroke-linecap:butt;"/>
   </g>
   <g id="line2d_23">
    <path clip-path="url(#paafe9ad165)" d="
M291.636 111.6
L291.636 32" style="fill:none;stroke:#00ffff;stroke-dasharray:6.000000,6.000000;stroke-dashoffset:0.0;stroke-linecap:butt;"/>
   </g>
   <g id="line2d_24">
    <path clip-path="url(#paafe9ad165)" d="
M312.986 111.6
L312.986 32" style="fill:none;stroke:#00ffff;stroke-dasharray:6.000000,6.000000;stroke-dashoffset:0.0;stroke-linecap:butt;"/>
   </g>
   <g id="line2d_25">
    <path clip-path="url(#paafe9ad165)" d="
M334.335 111.6
L334.335 32" style="fill:none;stroke:#00ffff;stroke-dasharray:6.000000,6.000000;stroke-dashoffset:0.0;stroke-linecap:butt;"/>
   </g>
   <g id="line2d_26">
    <path clip-path="url(#paafe9ad165)" d="
M355.685 111.6
L355.685 32" style="fill:none;stroke:#00ffff;stroke-dasharray:6.000000,6.000000;stroke-dashoffset:0.0;stroke-linecap:butt;"/>
   </g>
   <g id="line2d_27">
    <path clip-path="url(#paafe9ad165)" d="
M377.034 111.6
L377.034 32" style="fill:none;stroke:#00ffff;stroke-dasharray:6.000000,6.000000;stroke-dashoffset:0.0;stroke-linecap:butt;"/>
   </g>
   <g id="line2d_28">
    <path clip-path="url(#paafe9ad165)" d="
M46.1172 62.8366
L46.1172 42.0441
L46.7043 42.0441
L46.7043 38.368
L47.2914 38.368
L47.2914 39.7478
L47.8785 39.7478
L47.8785 45.1606
L48.4656 45.1606
L48.4656 31.3343
L49.0527 31.3343
L49.0527 34.0166
L49.6398 34.0166
L49.6398 41.7064
L50.227 41.7064
L50.227 30.5431
L50.8141 30.5431
L50.8141 29.9835
L51.4012 29.9835
L51.4012 34.8849
L51.9883 34.8849
L51.9883 30.3502
L52.5754 30.3502
L52.5754 35.4446
L53.1625 35.4446
L53.1625 30.4177
L53.7496 30.4177
L53.7496 52.5513
L54.3367 52.5513
L54.3367 40.6547
L54.9238 40.6547
L54.9238 33.7078
L55.511 33.7078
L55.511 32.8298
L56.0981 32.8298
L56.0981 58.9097
L56.6852 58.9097
L56.6852 46.521
L57.2723 46.521
L57.2723 23.0077
L57.8594 23.0077
L57.8594 19.843
L58.4465 19.843
L58.4465 25.7285
L59.0336 25.7285
L59.0336 30.1379
L59.6207 30.1379
L59.6207 13.6294
L60.2078 13.6294
L60.2078 28.3433
L60.7949 28.3433
L60.7949 12.375
L61.3821 12.375
L61.3821 28.5555
L61.9692 28.5555
L61.9692 21.7534
L62.5563 21.7534
L62.5563 20.7017
L63.1434 20.7017
L63.1434 20.1131
L63.7305 20.1131
L63.7305 34.7981
L64.3176 34.7981
L64.3176 23.9918
L64.9047 23.9918
L64.9047 20.6534
L65.4918 20.6534
L65.4918 23.9146
L66.0789 23.9146
L66.0789 33.785
L66.666 33.785
L66.666 12.2014
L67.2532 12.2014
L67.2532 18.251
L67.8403 18.251
L67.8403 23.0945
L69.0145 23.1138
L69.0145 15.4336
L69.6016 15.4336
L69.6016 25.4198
L70.1887 25.4198
L70.1887 24.262
L70.7758 24.262
L70.7758 19.322
L71.3629 19.322
L71.3629 27.967
L71.95 27.967
L71.95 26.1338
L72.5372 26.1338
L72.5372 41.9862
L73.1243 41.9862
L73.1243 25.3619
L73.7114 25.3619
L73.7114 19.0132
L74.2985 19.0132
L74.2985 23.384
L74.8856 23.384
L74.8856 24.7058
L75.4727 24.7058
L75.4727 24.1269
L76.0598 24.1269
L76.0598 13.2338
L76.6469 13.2338
L76.6469 23.5769
L77.234 23.5769
L77.234 45.8167
L77.8211 45.8167
L77.8211 39.6224
L78.4083 39.6224
L78.4083 49.7243
L78.9954 49.7243
L78.9954 50.5734
L79.5825 50.5734
L79.5825 42.6327
L80.1696 42.6327
L80.1696 47.7367
L80.7567 47.7367
L80.7567 44.4948
L81.3438 44.4948
L81.3438 37.9918
L81.9309 37.9918
L81.9309 43.7615
L82.518 43.7615
L82.518 40.6451
L83.1051 40.6451
L83.1051 46.0193
L84.2794 45.9711
L84.2794 45.8939
L84.8665 45.8939
L84.8665 41.909
L85.4536 41.909
L85.4536 46.0579
L86.0407 46.0579
L86.0407 50.6795
L86.6278 50.6795
L86.6278 39.304
L87.2149 39.304
L87.2149 44.8229
L87.802 44.8229
L87.802 47.4666
L88.3891 47.4666
L88.3891 43.8098
L88.9762 43.8098
L88.9762 37.8567
L89.5634 37.8567
L89.5634 39.2461
L90.1505 39.2461
L90.1505 39.6609
L90.7376 39.6609
L90.7376 42.1213
L91.3247 42.1213
L91.3247 38.4742
L91.9118 38.4742
L91.9118 46.2509
L92.4989 46.2509
L92.4989 56.3335
L93.086 56.3335
L93.086 43.1344
L93.6731 43.1344
L93.6731 47.1385
L94.2602 47.1385
L94.2602 45.8456
L94.8473 45.8456
L94.8473 32.5597
L95.4345 32.5597
L95.4345 32.029
L96.0216 32.029
L96.0216 36.8436
L96.6087 36.8436
L96.6087 32.4728
L97.1958 32.4728
L97.1958 41.2047
L97.7829 41.2047
L97.7829 48.9524
L98.37 48.9524
L98.37 43.1344
L98.9571 43.1344
L98.9571 72.0991
L99.5442 72.0991
L99.5442 52.8794
L100.131 52.8794
L100.131 47.2639
L100.718 47.2639
L100.718 74.984
L101.306 74.984
L101.306 49.184
L101.893 49.184
L101.893 46.4535
L102.48 46.4535
L102.48 54.4714
L103.067 54.4714
L103.067 65.2198
L103.654 65.2198
L103.654 48.5375
L104.241 48.5375
L104.241 55.2915
L104.828 55.2915
L104.828 53.6416
L106.002 53.7381
L106.002 56.7195
L106.59 56.7195
L106.59 51.8952
L107.177 51.8952
L107.177 48.5279
L107.764 48.5279
L107.764 42.7099
L108.351 42.7099
L108.351 50.5541
L108.938 50.5541
L108.938 45.9035
L109.525 45.9035
L109.525 45.7588
L110.112 45.7588
L110.112 50.3322
L110.699 50.3322
L110.699 49.3577
L111.286 49.3577
L111.286 56.1598
L111.874 56.1598
L111.874 52.2522
L112.461 52.2522
L112.461 47.6306
L113.048 47.6306
L113.048 59.45
L113.635 59.45
L113.635 45.4983
L114.222 45.4983
L114.222 56.1695
L114.809 56.1695
L114.809 46.6561
L115.396 46.6561
L115.396 55.388
L115.983 55.388
L115.983 48.9524
L116.57 48.9524
L116.57 54.1337
L117.158 54.1337
L117.158 53.9793
L117.745 53.9793
L117.745 56.6905
L118.332 56.6905
L118.332 51.7312
L118.919 51.7312
L118.919 54.0082
L119.506 54.0082
L119.506 55.1853
L120.093 55.1853
L120.093 66.667
L120.68 66.667
L120.68 58.8035
L121.267 58.8035
L121.267 63.7821
L121.854 63.7821
L121.854 67.8634
L122.442 67.8634
L122.442 65.6636
L123.029 65.6636
L123.029 71.2115
L123.616 71.2115
L123.616 72.9289
L124.203 72.9289
L124.203 75.8331
L124.79 75.8331
L124.79 75.5533
L125.377 75.5533
L125.377 74.6174
L125.964 74.6174
L125.964 68.5002
L126.551 68.5002
L126.551 78.4864
L127.138 78.4864
L127.138 69.7931
L127.726 69.7931
L127.726 66.5127
L128.313 66.5127
L128.313 69.6774
L128.9 69.6774
L128.9 64.3803
L129.487 64.3803
L129.487 58.8807
L130.074 58.8807
L130.074 57.6264
L130.661 57.6264
L130.661 57.3659
L131.248 57.3659
L131.248 64.39
L131.835 64.39
L131.835 59.1509
L132.422 59.1509
L132.422 67.2363
L133.01 67.2363
L133.01 68.1626
L133.597 68.1626
L133.597 60.2219
L134.184 60.2219
L134.184 61.8428
L134.771 61.8428
L134.771 62.6822
L135.358 62.6822
L135.358 69.9765
L135.945 69.9765
L135.945 67.5836
L136.532 67.5836
L136.532 73.5753
L137.119 73.5753
L137.119 74.0867
L137.706 74.0867
L137.706 74.5498
L138.881 74.5498
L138.881 82.2686
L139.468 82.2686
L139.468 69.2142
L140.055 69.2142
L140.055 50.0717
L140.642 50.0717
L140.642 60.9744
L141.229 60.9744
L141.229 64.4479
L141.816 64.4479
L141.816 75.7077
L142.403 75.7077
L142.403 66.6284
L142.99 66.6284
L142.99 54.1723
L143.578 54.1723
L143.578 56.7773
L144.165 56.7773
L144.165 71.3273
L144.752 71.3273
L144.752 74.106
L145.339 74.106
L145.339 75.9778
L145.926 75.9778
L145.926 74.7911
L146.513 74.7911
L146.513 80.6187
L147.1 80.6187
L147.1 81.3038
L147.687 81.3038
L147.687 75.2928
L148.274 75.2928
L148.274 63.2129
L148.861 63.2129
L148.861 76.2287
L149.449 76.2287
L149.449 79.3162
L150.036 79.3162
L150.036 80.5319
L150.623 80.5319
L150.623 77.3479
L151.21 77.3479
L151.21 79.4223
L151.797 79.4223
L151.797 81.3327
L152.384 81.3327
L152.384 84.1404
L152.971 84.1404
L152.971 84.0054
L153.558 84.0054
L153.558 83.0791
L154.145 83.0791
L154.145 81.2362
L154.733 81.2362
L154.733 84.3527
L155.32 84.3527
L155.32 84.9123
L155.907 84.9123
L155.907 86.3403
L156.494 86.3403
L156.494 72.3693
L157.081 72.3693
L157.081 59.1412
L157.668 59.1412
L157.668 66.4934
L158.255 66.4934
L158.255 71.7421
L158.842 71.7421
L158.842 74.0288
L159.429 74.0288
L159.429 74.8875
L160.017 74.8875
L160.017 86.8227
L160.604 86.8227
L160.604 75.177
L161.191 75.177
L161.191 62.6243
L161.778 62.6243
L161.778 68.7511
L162.365 68.7511
L162.365 71.9351
L162.952 71.9351
L162.952 71.7711
L163.539 71.7711
L163.539 53.6995
L164.126 53.6995
L164.126 58.4369
L164.713 58.4369
L164.713 65.075
L165.301 65.075
L165.301 71.1825
L165.888 71.1825
L165.888 78.9495
L166.475 78.9495
L166.475 81.5257
L167.062 81.5257
L167.062 82.2879
L167.649 82.2879
L167.649 83.4361
L168.236 83.4361
L168.236 83.7255
L168.823 83.7255
L168.823 83.9378
L169.41 83.9378
L169.41 85.0667
L169.997 85.0667
L169.997 85.8289
L170.585 85.8289
L170.585 86.6104
L171.172 86.6104
L171.172 87.1025
L171.759 87.1025
L171.759 86.3692
L172.346 86.3692
L172.346 88.6656
L172.933 88.6656
L172.933 87.1411
L173.52 87.1411
L173.52 83.0887
L174.107 83.0887
L174.107 87.3341
L174.694 87.3341
L174.694 101.865
L175.281 101.865
L175.281 86.3982
L175.869 86.3982
L175.869 90.3251
L176.456 90.3251
L176.456 86.9964
L177.043 86.9964
L177.043 92.0329
L177.63 92.0329
L177.63 92.7565
L178.217 92.7565
L178.217 93.76
L178.804 93.76
L178.804 93.9143
L179.391 93.9143
L179.391 92.9977
L180.565 93.046
L180.565 92.2066
L181.153 92.2066
L181.153 90.7207
L182.327 90.8075
L182.327 91.0391
L182.914 91.0391
L182.914 91.7434
L184.088 91.8206
L184.088 91.8592
L184.675 91.8592
L184.675 86.3596
L185.262 86.3596
L185.262 83.8413
L185.849 83.8413
L185.849 84.4685
L186.437 84.4685
L186.437 91.2514
L187.024 91.2514
L187.024 82.8765
L187.611 82.8765
L187.611 71.4913
L188.198 71.4913
L188.198 67.4389
L188.785 67.4389
L188.785 67.902
L189.372 67.902
L189.372 66.2425
L189.959 66.2425
L189.959 76.0743
L190.546 76.0743
L190.546 92.2355
L191.133 92.2355
L191.133 61.8621
L191.721 61.8621
L191.721 64.2742
L192.308 64.2742
L192.308 66.5513
L192.895 66.5513
L192.895 66.9372
L193.482 66.9372
L193.482 75.0033
L194.069 75.0033
L194.069 77.3961
L194.656 77.3961
L194.656 80.5994
L195.243 80.5994
L195.243 70.3913
L195.83 70.3913
L195.83 71.4237
L196.417 71.4237
L196.417 72.1088
L197.005 72.1088
L197.005 73.4692
L197.592 73.4692
L197.592 78.6022
L198.179 78.6022
L198.179 77.5119
L198.766 77.5119
L198.766 79.2583
L199.353 79.2583
L199.353 80.9854
L199.94 80.9854
L199.94 82.5677
L200.527 82.5677
L200.527 84.4492
L201.114 84.4492
L201.114 87.7876
L201.701 87.7876
L201.701 91.0584
L202.289 91.0584
L202.289 90.7496
L202.876 90.7496
L202.876 92.5443
L203.463 92.5443
L203.463 91.2996
L204.637 91.2128
L204.637 91.811
L205.224 91.811
L205.224 90.7882
L205.811 90.7882
L205.811 85.6938
L206.398 85.6938
L206.398 87.7683
L206.985 87.7683
L206.985 84.3238
L207.573 84.3238
L207.573 87.8454
L208.16 87.8454
L208.16 89.9778
L208.747 89.9778
L208.747 91.5505
L209.334 91.5505
L209.334 91.9557
L209.921 91.9557
L209.921 95.1879
L210.508 95.1879
L210.508 94.9178
L211.095 94.9178
L211.095 95.5932
L211.682 95.5932
L211.682 94.4064
L212.269 94.4064
L212.269 91.5601
L212.857 91.5601
L212.857 91.3768
L213.444 91.3768
L213.444 93.1618
L214.031 93.1618
L214.031 93.3065
L214.618 93.3065
L214.618 92.7276
L215.205 92.7276
L215.205 91.7241
L216.379 91.618
L216.379 94.117
L216.966 94.117
L216.966 95.1879
L218.728 95.0818
L218.728 95.6221
L219.315 95.6221
L219.315 89.2059
L219.902 89.2059
L219.902 87.1604
L220.489 87.1604
L220.489 88.4726
L221.076 88.4726
L221.076 87.5174
L221.663 87.5174
L221.663 88.984
L222.25 88.984
L222.25 87.0832
L222.837 87.0832
L222.837 86.7455
L223.425 86.7455
L223.425 87.8647
L224.012 87.8647
L224.012 88.9164
L224.599 88.9164
L224.599 89.0997
L225.186 89.0997
L225.186 87.9419
L225.773 87.9419
L225.773 90.904
L226.36 90.904
L226.36 92.6214
L226.947 92.6214
L226.947 93.403
L227.534 93.403
L227.534 91.0487
L228.121 91.0487
L228.121 89.0515
L228.709 89.0515
L228.709 87.8937
L229.296 87.8937
L229.296 84.4395
L229.883 84.4395
L229.883 82.6256
L230.47 82.6256
L230.47 83.0212
L231.057 83.0212
L231.057 84.4878
L231.644 84.4878
L231.644 87.1701
L232.231 87.1701
L232.231 87.5463
L232.818 87.5463
L232.818 87.8165
L233.405 87.8165
L233.405 86.1184
L233.993 86.1184
L233.993 86.4078
L234.58 86.4078
L234.58 75.9489
L235.167 75.9489
L235.167 79.2197
L235.754 79.2197
L235.754 77.4926
L236.341 77.4926
L236.341 77.7145
L236.928 77.7145
L236.928 87.4306
L237.515 87.4306
L237.515 83.4168
L238.102 83.4168
L238.102 84.536
L238.689 84.536
L238.689 89.833
L239.276 89.833
L239.276 86.5815
L239.864 86.5815
L239.864 84.9991
L240.451 84.9991
L240.451 89.2734
L241.038 89.2734
L241.038 90.2383
L241.625 90.2383
L241.625 88.1831
L242.212 88.1831
L242.212 93.21
L242.799 93.21
L242.799 89.2927
L243.386 89.2927
L243.386 88.6656
L243.973 88.6656
L243.973 89.2638
L244.56 89.2638
L244.56 91.6276
L245.148 91.6276
L245.148 89.0612
L245.735 89.0612
L245.735 89.8137
L246.322 89.8137
L246.322 86.2631
L246.909 86.2631
L246.909 106.11
L247.496 106.11
L247.496 99.7227
L248.083 99.7227
L248.083 83.4843
L248.67 83.4843
L248.67 84.7579
L249.257 84.7579
L249.257 89.9681
L249.844 89.9681
L249.844 86.8517
L250.432 86.8517
L250.432 86.6008
L251.019 86.6008
L251.019 80.3582
L251.606 80.3582
L251.606 78.7566
L252.193 78.7566
L252.193 82.0757
L252.78 82.0757
L252.78 83.0887
L253.367 83.0887
L253.367 82.7896
L253.954 82.7896
L253.954 87.1797
L255.128 87.1025
L255.128 83.1273
L255.716 83.1273
L255.716 83.5229
L256.303 83.5229
L256.303 89.5629
L256.89 89.5629
L256.89 88.5884
L257.477 88.5884
L257.477 88.7524
L258.064 88.7524
L258.064 88.5787
L258.651 88.5787
L258.651 84.6518
L259.238 84.6518
L259.238 79.9626
L259.825 79.9626
L259.825 80.9275
L260.412 80.9275
L260.412 84.2852
L261 84.2852
L261 83.9668
L261.587 83.9668
L261.587 89.4857
L262.174 89.4857
L262.174 111.6
L262.761 111.6
L262.761 92.1101
L263.348 92.1101
L263.348 84.0343
L263.935 84.0343
L263.935 84.9027
L264.522 84.9027
L264.522 82.8282
L265.109 82.8282
L265.109 83.5519
L265.696 83.5519
L265.696 86.0605
L266.284 86.0605
L266.284 87.6428
L266.871 87.6428
L266.871 73.9516
L267.458 73.9516
L267.458 70.729
L268.045 70.729
L268.045 82.1528
L268.632 82.1528
L268.632 78.7952
L269.219 78.7952
L269.219 78.2066
L269.806 78.2066
L269.806 83.8413
L270.393 83.8413
L270.393 82.8089
L270.98 82.8089
L270.98 82.9923
L271.568 82.9923
L271.568 82.2204
L272.155 82.2204
L272.155 83.5133
L272.742 83.5133
L272.742 86.3789
L273.329 86.3789
L273.329 85.25
L273.916 85.25
L273.916 85.935
L274.503 85.935
L274.503 87.1797
L275.09 87.1797
L275.09 83.5229
L275.677 83.5229
L275.677 87.5849
L276.264 87.5849
L276.264 86.9385
L276.852 86.9385
L276.852 106.93
L277.439 106.93
L277.439 97.6965
L278.026 97.6965
L278.026 85.9158
L278.613 85.9158
L278.613 88.2121
L279.2 88.2121
L279.2 90.2383
L279.787 90.2383
L279.787 88.1831
L280.374 88.1831
L280.374 96.3747
L280.961 96.3747
L280.961 111.6
L281.548 111.6
L281.548 91.6276
L282.136 91.6276
L282.136 77.4637
L282.723 77.4637
L282.723 78.0233
L283.31 78.0233
L283.31 83.8703
L283.897 83.8703
L283.897 82.7125
L284.484 82.7125
L284.484 79.7697
L285.071 79.7697
L285.071 82.4037
L285.658 82.4037
L285.658 85.6359
L286.245 85.6359
L286.245 83.5229
L287.42 83.4554
L287.42 85.8
L288.007 85.8
L288.007 83.7738
L288.594 83.7738
L288.594 87.913
L289.181 87.913
L289.181 91.7917
L289.768 91.7917
L289.768 87.9419
L290.355 87.9419
L290.355 87.8069
L290.942 87.8069
L290.942 88.598
L292.116 88.5498
L292.116 90.3444
L292.704 90.3444
L292.704 89.5629
L293.291 89.5629
L293.291 89.0708
L293.878 89.0708
L293.878 93.0074
L294.465 93.0074
L294.465 88.1831
L295.052 88.1831
L295.052 86.3885
L295.639 86.3885
L295.639 89.3699
L296.226 89.3699
L296.226 86.5236
L296.813 86.5236
L296.813 90.576
L297.4 90.576
L297.4 88.9164
L297.988 88.9164
L297.988 93.1328
L298.575 93.1328
L298.575 86.2342
L299.162 86.2342
L299.162 87.8744
L300.336 87.9516
L300.336 88.4244
L300.923 88.4244
L300.923 91.9364
L301.51 91.9364
L301.51 90.1804
L302.097 90.1804
L302.097 92.303
L302.684 92.303
L302.684 89.7848
L303.272 89.7848
L303.272 87.0543
L303.859 87.0543
L303.859 91.9268
L304.446 91.9268
L304.446 86.8324
L305.033 86.8324
L305.033 88.3954
L305.62 88.3954
L305.62 89.7751
L306.794 89.6883
L306.794 87.0736
L307.381 87.0736
L307.381 84.9606
L307.968 84.9606
L307.968 85.1921
L308.556 85.1921
L308.556 83.3589
L309.143 83.3589
L309.143 91.8882
L309.73 91.8882
L309.73 86.485
L310.317 86.485
L310.317 87.72
L310.904 87.72
L310.904 86.8709
L312.078 86.8902
L312.078 87.6139
L312.665 87.6139
L312.665 89.148
L313.252 89.148
L313.252 88.8585
L313.84 88.8585
L313.84 90.3926
L314.427 90.3926
L314.427 88.0577
L315.014 88.0577
L315.014 88.2507
L315.601 88.2507
L315.601 82.8186
L316.188 82.8186
L316.188 81.5836
L316.775 81.5836
L316.775 96.8089
L317.362 96.8089
L317.362 107.75
L317.949 107.75
L317.949 82.8958
L318.536 82.8958
L318.536 87.4209
L319.124 87.4209
L319.124 84.9123
L319.711 84.9123
L319.711 87.7779
L320.298 87.7779
L320.298 96.722
L320.885 96.722
L320.885 86.6587
L321.472 86.6587
L321.472 87.3534
L322.059 87.3534
L322.059 90.6146
L322.646 90.6146
L322.646 88.2603
L323.233 88.2603
L323.233 86.128
L323.82 86.128
L323.82 91.0584
L324.407 91.0584
L324.407 89.7076
L324.995 89.7076
L324.995 89.9006
L325.582 89.9006
L325.582 93.9143
L326.169 93.9143
L326.169 91.4733
L326.756 91.4733
L326.756 90.4505
L328.517 90.4119
L328.517 91.5215
L329.104 91.5215
L329.104 92.3513
L329.691 92.3513
L329.691 90.8751
L330.279 90.8751
L330.279 92.7179
L330.866 92.7179
L330.866 90.2672
L331.453 90.2672
L331.453 89.9392
L332.04 89.9392
L332.04 93.6442
L332.627 93.6442
L332.627 91.1163
L333.214 91.1163
L333.214 92.6504
L333.801 92.6504
L333.801 91.6662
L334.388 91.6662
L334.388 88.5498
L334.975 88.5498
L334.975 91.1356
L336.15 91.1452
L336.15 88.2507
L336.737 88.2507
L336.737 90.0549
L337.324 90.0549
L337.324 90.4119
L337.911 90.4119
L337.911 91.2128
L338.498 91.2128
L338.498 91.3768
L339.085 91.3768
L339.085 91.5408
L339.672 91.5408
L339.672 89.9585
L340.259 89.9585
L340.259 81.6318
L340.847 81.6318
L340.847 79.7021
L341.434 79.7021
L341.434 79.1329
L342.021 79.1329
L342.021 83.2624
L342.608 83.2624
L342.608 90.1707
L343.195 90.1707
L343.195 83.5326
L343.782 83.5326
L343.782 81.0433
L344.369 81.0433
L344.369 85.4044
L344.956 85.4044
L344.956 82.944
L345.543 82.944
L345.543 87.9226
L346.131 87.9226
L346.131 89.3603
L346.718 89.3603
L346.718 108.416
L347.305 108.416
L347.305 96.0467
L347.892 96.0467
L347.892 88.9068
L348.479 88.9068
L348.479 90.7979
L349.066 90.7979
L349.066 93.1425
L349.653 93.1425
L349.653 88.3568
L350.24 88.3568
L350.24 90.0935
L350.827 90.0935
L350.827 87.6525
L351.415 87.6525
L351.415 86.8034
L352.002 86.8034
L352.002 91.2996
L352.589 91.2996
L352.589 92.6986
L353.176 92.6986
L353.176 89.1962
L353.763 89.1962
L353.763 90.2286
L354.35 90.2286
L354.35 92.6118
L354.937 92.6118
L354.937 88.1542
L355.524 88.1542
L355.524 90.6049
L356.111 90.6049
L356.111 92.5346
L356.699 92.5346
L356.699 86.1087
L357.286 86.1087
L357.286 90.8558
L357.873 90.8558
L357.873 111.6
L358.46 111.6
L358.46 110.278
L359.047 110.278
L359.047 87.2376
L359.634 87.2376
L359.634 89.3796
L360.221 89.3796
L360.221 90.7207
L360.808 90.7207
L360.808 87.3534
L361.395 87.3534
L361.395 90.19
L361.983 90.19
L361.983 90.0549
L362.57 90.0549
L362.57 90.2479
L363.157 90.2479
L363.157 93.1039
L363.744 93.1039
L363.744 86.2245
L364.331 86.2245
L364.331 87.0832
L364.918 87.0832
L364.918 85.6552
L365.505 85.6552
L365.505 83.5519
L366.092 83.5519
L366.092 87.8165
L366.679 87.8165
L366.679 86.128
L367.267 86.128
L367.267 86.7166
L367.854 86.7166
L367.854 88.6173
L368.441 88.6173
L368.441 89.6111
L369.028 89.6111
L369.028 87.6621
L369.615 87.6621
L369.615 89.6111
L370.202 89.6111
L370.202 88.791
L370.789 88.791
L370.789 88.6366
L371.376 88.6366
L371.376 92.2644
L371.963 92.2644
L371.963 89.1576
L372.551 89.1576
L372.551 91.3093
L373.138 91.3093
L373.138 89.5339
L373.725 89.5339
L373.725 91.7917
L374.312 91.7917
L374.312 90.6628
L374.899 90.6628
L374.899 94.0205
L375.486 94.0205
L375.486 88.5691
L376.073 88.5691
L376.073 91.097
L376.66 91.097
L376.66 92.9302
L377.247 92.9302
L377.247 96.9729
L377.835 96.9729
L377.835 92.4671
L378.422 92.4671
L378.422 93.5863
L379.009 93.5863
L379.009 90.1997
L379.596 90.1997
L379.596 91.3864
L380.183 91.3864
L380.183 93.5284
L380.77 93.5284
L380.77 92.0811
L381.357 92.0811
L381.357 93.4609
L381.944 93.4609
L381.944 94.117
L382.531 94.117
L382.531 92.7469
L383.119 92.7469
L383.119 93.9433
L383.706 93.9433
L383.706 93.6442
L384.293 93.6442
L384.293 92.2837
L384.88 92.2837
L384.88 91.0198
L385.467 91.0198
L385.467 91.5891
L386.054 91.5891
L386.054 86.0508
L386.641 86.0508
L386.641 80.0109
L387.228 80.0109
L387.228 84.0439
L387.815 84.0439
L387.815 111.6
L388.403 111.6
L388.403 101.797
L388.99 101.797
L388.99 85.443
L389.577 85.443
L389.577 83.4747
L390.164 83.4747
L390.164 88.7235
L390.751 88.7235
L390.751 84.0825
L391.338 84.0825
L391.338 84.4009
L391.925 84.4009
L391.925 81.381
L392.512 81.381
L392.512 87.5077
L393.099 87.5077
L393.099 80.3389
L393.687 80.3389
L393.687 83.4843
L394.274 83.4843
L394.274 87.3148
L394.861 87.3148
L394.861 83.6001
L395.448 83.6001
L395.448 86.3789
L396.035 86.3789
L396.035 86.9674
L396.622 86.9674
L396.622 85.8096
L397.209 85.8096
L397.209 89.1769
L397.796 89.1769
L397.796 89.1769" style="fill:none;stroke:#0000ff;"/>
   </g>
   <g id="matplotlib.axis_1">
    <g id="xtick_1">
     <g id="line2d_29">
      <defs>
       <path d="
M0 0
L0 -4" id="m0012dd4eef" style="stroke:#000000;stroke-linecap:butt;stroke-width:0.5;"/>
      </defs>
      <g>
       <use style="stroke:#000000;stroke-linecap:butt;stroke-width:0.5;" x="46.1171875" xlink:href="#m0012dd4eef" y="111.6"/>
      </g>
     </g>
     <g id="line2d_30">
      <defs>
       <path d="
M0 0
L0 4" id="m476344969c" style="stroke:#000000;stroke-linecap:butt;stroke-width:0.5;"/>
      </defs>
      <g>
       <use style="stroke:#000000;stroke-linecap:butt;stroke-width:0.5;" x="46.1171875" xlink:href="#m476344969c" y="32.0"/>
      </g>
     </g>
     <g id="text_1">
      <!-- 0 -->
      <defs>
       <path d="
M31.7812 66.4062
Q24.1719 66.4062 20.3281 58.9062
Q16.5 51.4219 16.5 36.375
Q16.5 21.3906 20.3281 13.8906
Q24.1719 6.39062 31.7812 6.39062
Q39.4531 6.39062 43.2812 13.8906
Q47.125 21.3906 47.125 36.375
Q47.125 51.4219 43.2812 58.9062
Q39.4531 66.4062 31.7812 66.4062
M31.7812 74.2188
Q44.0469 74.2188 50.5156 64.5156
Q56.9844 54.8281 56.9844 36.375
Q56.9844 17.9688 50.5156 8.26562
Q44.0469 -1.42188 31.7812 -1.42188
Q19.5312 -1.42188 13.0625 8.26562
Q6.59375 17.9688 6.59375 36.375
Q6.59375 54.8281 13.0625 64.5156
Q19.5312 74.2188 31.7812 74.2188" id="DejaVuSans-30"/>
      </defs>
      <g transform="translate(43.59765625 123.021875)scale(0.1 -0.1)">
       <use xlink:href="#DejaVuSans-30"/>
      </g>
     </g>
    </g>
    <g id="xtick_2">
     <g id="line2d_31">
      <g>
       <use style="stroke:#000000;stroke-linecap:butt;stroke-width:0.5;" x="135.073242188" xlink:href="#m0012dd4eef" y="111.6"/>
      </g>
     </g>
     <g id="line2d_32">
      <g>
       <use style="stroke:#000000;stroke-linecap:butt;stroke-width:0.5;" x="135.073242188" xlink:href="#m476344969c" y="32.0"/>
      </g>
     </g>
     <g id="text_2">
      <!-- 500 -->
      <defs>
       <path d="
M10.7969 72.9062
L49.5156 72.9062
L49.5156 64.5938
L19.8281 64.5938
L19.8281 46.7344
Q21.9688 47.4688 24.1094 47.8281
Q26.2656 48.1875 28.4219 48.1875
Q40.625 48.1875 47.75 41.5
Q54.8906 34.8125 54.8906 23.3906
Q54.8906 11.625 47.5625 5.09375
Q40.2344 -1.42188 26.9062 -1.42188
Q22.3125 -1.42188 17.5469 -0.640625
Q12.7969 0.140625 7.71875 1.70312
L7.71875 11.625
Q12.1094 9.23438 16.7969 8.0625
Q21.4844 6.89062 26.7031 6.89062
Q35.1562 6.89062 40.0781 11.3281
Q45.0156 15.7656 45.0156 23.3906
Q45.0156 31 40.0781 35.4375
Q35.1562 39.8906 26.7031 39.8906
Q22.75 39.8906 18.8125 39.0156
Q14.8906 38.1406 10.7969 36.2812
z
" id="DejaVuSans-35"/>
      </defs>
      <g transform="translate(126.247460938 123.021875)scale(0.1 -0.1)">
       <use xlink:href="#DejaVuSans-35"/>
       <use x="63.623046875" xlink:href="#DejaVuSans-30"/>
       <use x="127.24609375" xlink:href="#DejaVuSans-30"/>
      </g>
     </g>
    </g>
    <g id="xtick_3">
     <g id="line2d_33">
      <g>
       <use style="stroke:#000000;stroke-linecap:butt;stroke-width:0.5;" x="224.029296875" xlink:href="#m0012dd4eef" y="111.6"/>
      </g>
     </g>
     <g id="line2d_34">
      <g>
       <use style="stroke:#000000;stroke-linecap:butt;stroke-width:0.5;" x="224.029296875" xlink:href="#m476344969c" y="32.0"/>
      </g>
     </g>
     <g id="text_3">
      <!-- 1000 -->
      <defs>
       <path d="
M12.4062 8.29688
L28.5156 8.29688
L28.5156 63.9219
L10.9844 60.4062
L10.9844 69.3906
L28.4219 72.9062
L38.2812 72.9062
L38.2812 8.29688
L54.3906 8.29688
L54.3906 0
L12.4062 0
z
" id="DejaVuSans-31"/>
      </defs>
      <g transform="translate(212.185546875 123.021875)scale(0.1 -0.1)">
       <use xlink:href="#DejaVuSans-31"/>
       <use x="63.623046875" xlink:href="#DejaVuSans-30"/>
       <use x="127.24609375" xlink:href="#DejaVuSans-30"/>
       <use x="190.869140625" xlink:href="#DejaVuSans-30"/>
      </g>
     </g>
    </g>
    <g id="xtick_4">
     <g id="line2d_35">
      <g>
       <use style="stroke:#000000;stroke-linecap:butt;stroke-width:0.5;" x="312.985351563" xlink:href="#m0012dd4eef" y="111.6"/>
      </g>
     </g>
     <g id="line2d_36">
      <g>
       <use style="stroke:#000000;stroke-linecap:butt;stroke-width:0.5;" x="312.985351563" xlink:href="#m476344969c" y="32.0"/>
      </g>
     </g>
     <g id="text_4">
      <!-- 1500 -->
      <g transform="translate(301.141601563 123.021875)scale(0.1 -0.1)">
       <use xlink:href="#DejaVuSans-31"/>
       <use x="63.623046875" xlink:href="#DejaVuSans-35"/>
       <use x="127.24609375" xlink:href="#DejaVuSans-30"/>
       <use x="190.869140625" xlink:href="#DejaVuSans-30"/>
      </g>
     </g>
    </g>
    <g id="xtick_5">
     <g id="line2d_37">
      <g>
       <use style="stroke:#000000;stroke-linecap:butt;stroke-width:0.5;" x="401.94140625" xlink:href="#m0012dd4eef" y="111.6"/>
      </g>
     </g>
     <g id="line2d_38">
      <g>
       <use style="stroke:#000000;stroke-linecap:butt;stroke-width:0.5;" x="401.94140625" xlink:href="#m476344969c" y="32.0"/>
      </g>
     </g>
     <g id="text_5">
      <!-- 2000 -->
      <defs>
       <path d="
M19.1875 8.29688
L53.6094 8.29688
L53.6094 0
L7.32812 0
L7.32812 8.29688
Q12.9375 14.1094 22.625 23.8906
Q32.3281 33.6875 34.8125 36.5312
Q39.5469 41.8438 41.4219 45.5312
Q43.3125 49.2188 43.3125 52.7812
Q43.3125 58.5938 39.2344 62.25
Q35.1562 65.9219 28.6094 65.9219
Q23.9688 65.9219 18.8125 64.3125
Q13.6719 62.7031 7.8125 59.4219
L7.8125 69.3906
Q13.7656 71.7812 18.9375 73
Q24.125 74.2188 28.4219 74.2188
Q39.75 74.2188 46.4844 68.5469
Q53.2188 62.8906 53.2188 53.4219
Q53.2188 48.9219 51.5312 44.8906
Q49.8594 40.875 45.4062 35.4062
Q44.1875 33.9844 37.6406 27.2188
Q31.1094 20.4531 19.1875 8.29688" id="DejaVuSans-32"/>
      </defs>
      <g transform="translate(389.91484375 123.021875)scale(0.1 -0.1)">
       <use xlink:href="#DejaVuSans-32"/>
       <use x="63.623046875" xlink:href="#DejaVuSans-30"/>
       <use x="127.24609375" xlink:href="#DejaVuSans-30"/>
       <use x="190.869140625" xlink:href="#DejaVuSans-30"/>
      </g>
     </g>
    </g>
    <g id="text_6">
     <!-- Time -->
     <defs>
      <path d="
M52 44.1875
Q55.375 50.25 60.0625 53.125
Q64.75 56 71.0938 56
Q79.6406 56 84.2812 50.0156
Q88.9219 44.0469 88.9219 33.0156
L88.9219 0
L79.8906 0
L79.8906 32.7188
Q79.8906 40.5781 77.0938 44.375
Q74.3125 48.1875 68.6094 48.1875
Q61.625 48.1875 57.5625 43.5469
Q53.5156 38.9219 53.5156 30.9062
L53.5156 0
L44.4844 0
L44.4844 32.7188
Q44.4844 40.625 41.7031 44.4062
Q38.9219 48.1875 33.1094 48.1875
Q26.2188 48.1875 22.1562 43.5312
Q18.1094 38.875 18.1094 30.9062
L18.1094 0
L9.07812 0
L9.07812 54.6875
L18.1094 54.6875
L18.1094 46.1875
Q21.1875 51.2188 25.4844 53.6094
Q29.7812 56 35.6875 56
Q41.6562 56 45.8281 52.9688
Q50 49.9531 52 44.1875" id="DejaVuSans-6d"/>
      <path d="
M9.42188 54.6875
L18.4062 54.6875
L18.4062 0
L9.42188 0
z

M9.42188 75.9844
L18.4062 75.9844
L18.4062 64.5938
L9.42188 64.5938
z
" id="DejaVuSans-69"/>
      <path d="
M56.2031 29.5938
L56.2031 25.2031
L14.8906 25.2031
Q15.4844 15.9219 20.4844 11.0625
Q25.4844 6.20312 34.4219 6.20312
Q39.5938 6.20312 44.4531 7.46875
Q49.3125 8.73438 54.1094 11.2812
L54.1094 2.78125
Q49.2656 0.734375 44.1875 -0.34375
Q39.1094 -1.42188 33.8906 -1.42188
Q20.7969 -1.42188 13.1562 6.1875
Q5.51562 13.8125 5.51562 26.8125
Q5.51562 40.2344 12.7656 48.1094
Q20.0156 56 32.3281 56
Q43.3594 56 49.7812 48.8906
Q56.2031 41.7969 56.2031 29.5938
M47.2188 32.2344
Q47.125 39.5938 43.0938 43.9844
Q39.0625 48.3906 32.4219 48.3906
Q24.9062 48.3906 20.3906 44.1406
Q15.875 39.8906 15.1875 32.1719
z
" id="DejaVuSans-65"/>
      <path d="
M-0.296875 72.9062
L61.375 72.9062
L61.375 64.5938
L35.5 64.5938
L35.5 0
L25.5938 0
L25.5938 64.5938
L-0.296875 64.5938
z
" id="DejaVuSans-54"/>
     </defs>
     <g transform="translate(212.047265625 135.7625)scale(0.1 -0.1)">
      <use xlink:href="#DejaVuSans-54"/>
      <use x="57.958984375" xlink:href="#DejaVuSans-69"/>
      <use x="85.7421875" xlink:href="#DejaVuSans-6d"/>
      <use x="183.154296875" xlink:href="#DejaVuSans-65"/>
     </g>
    </g>
   </g>
   <g id="matplotlib.axis_2">
    <g id="ytick_1">
     <g id="line2d_39">
      <defs>
       <path d="
M0 0
L4 0" id="me8a85f7bf6" style="stroke:#000000;stroke-linecap:butt;stroke-width:0.5;"/>
      </defs>
      <g>
       <use style="stroke:#000000;stroke-linecap:butt;stroke-width:0.5;" x="46.1171875" xlink:href="#me8a85f7bf6" y="111.6"/>
      </g>
     </g>
     <g id="line2d_40">
      <defs>
       <path d="
M0 0
L-4 0" id="m1a32005dea" style="stroke:#000000;stroke-linecap:butt;stroke-width:0.5;"/>
      </defs>
      <g>
       <use style="stroke:#000000;stroke-linecap:butt;stroke-width:0.5;" x="401.94140625" xlink:href="#m1a32005dea" y="111.6"/>
      </g>
     </g>
     <g id="text_7">
      <!-- 0 -->
      <g transform="translate(37.078125 115.23984375)scale(0.1 -0.1)">
       <use xlink:href="#DejaVuSans-30"/>
      </g>
     </g>
    </g>
    <g id="ytick_2">
     <g id="line2d_41">
      <g>
       <use style="stroke:#000000;stroke-linecap:butt;stroke-width:0.5;" x="46.1171875" xlink:href="#me8a85f7bf6" y="95.68"/>
      </g>
     </g>
     <g id="line2d_42">
      <g>
       <use style="stroke:#000000;stroke-linecap:butt;stroke-width:0.5;" x="401.94140625" xlink:href="#m1a32005dea" y="95.68"/>
      </g>
     </g>
     <g id="text_8">
      <!-- 500 -->
      <g transform="translate(24.465625 99.31984375)scale(0.1 -0.1)">
       <use xlink:href="#DejaVuSans-35"/>
       <use x="63.623046875" xlink:href="#DejaVuSans-30"/>
       <use x="127.24609375" xlink:href="#DejaVuSans-30"/>
      </g>
     </g>
    </g>
    <g id="ytick_3">
     <g id="line2d_43">
      <g>
       <use style="stroke:#000000;stroke-linecap:butt;stroke-width:0.5;" x="46.1171875" xlink:href="#me8a85f7bf6" y="79.76"/>
      </g>
     </g>
     <g id="line2d_44">
      <g>
       <use style="stroke:#000000;stroke-linecap:butt;stroke-width:0.5;" x="401.94140625" xlink:href="#m1a32005dea" y="79.76"/>
      </g>
     </g>
     <g id="text_9">
      <!-- 1000 -->
      <g transform="translate(18.4296875 83.39984375)scale(0.1 -0.1)">
       <use xlink:href="#DejaVuSans-31"/>
       <use x="63.623046875" xlink:href="#DejaVuSans-30"/>
       <use x="127.24609375" xlink:href="#DejaVuSans-30"/>
       <use x="190.869140625" xlink:href="#DejaVuSans-30"/>
      </g>
     </g>
    </g>
    <g id="ytick_4">
     <g id="line2d_45">
      <g>
       <use style="stroke:#000000;stroke-linecap:butt;stroke-width:0.5;" x="46.1171875" xlink:href="#me8a85f7bf6" y="63.84"/>
      </g>
     </g>
     <g id="line2d_46">
      <g>
       <use style="stroke:#000000;stroke-linecap:butt;stroke-width:0.5;" x="401.94140625" xlink:href="#m1a32005dea" y="63.84"/>
      </g>
     </g>
     <g id="text_10">
      <!-- 1500 -->
      <g transform="translate(18.4296875 67.47984375)scale(0.1 -0.1)">
       <use xlink:href="#DejaVuSans-31"/>
       <use x="63.623046875" xlink:href="#DejaVuSans-35"/>
       <use x="127.24609375" xlink:href="#DejaVuSans-30"/>
       <use x="190.869140625" xlink:href="#DejaVuSans-30"/>
      </g>
     </g>
    </g>
    <g id="ytick_5">
     <g id="line2d_47">
      <g>
       <use style="stroke:#000000;stroke-linecap:butt;stroke-width:0.5;" x="46.1171875" xlink:href="#me8a85f7bf6" y="47.92"/>
      </g>
     </g>
     <g id="line2d_48">
      <g>
       <use style="stroke:#000000;stroke-linecap:butt;stroke-width:0.5;" x="401.94140625" xlink:href="#m1a32005dea" y="47.92"/>
      </g>
     </g>
     <g id="text_11">
      <!-- 2000 -->
      <g transform="translate(18.0640625 51.55984375)scale(0.1 -0.1)">
       <use xlink:href="#DejaVuSans-32"/>
       <use x="63.623046875" xlink:href="#DejaVuSans-30"/>
       <use x="127.24609375" xlink:href="#DejaVuSans-30"/>
       <use x="190.869140625" xlink:href="#DejaVuSans-30"/>
      </g>
     </g>
    </g>
    <g id="ytick_6">
     <g id="line2d_49">
      <g>
       <use style="stroke:#000000;stroke-linecap:butt;stroke-width:0.5;" x="46.1171875" xlink:href="#me8a85f7bf6" y="32.0"/>
      </g>
     </g>
     <g id="line2d_50">
      <g>
       <use style="stroke:#000000;stroke-linecap:butt;stroke-width:0.5;" x="401.94140625" xlink:href="#m1a32005dea" y="32.0"/>
      </g>
     </g>
     <g id="text_12">
      <!-- 2500 -->
      <g transform="translate(18.0640625 35.63984375)scale(0.1 -0.1)">
       <use xlink:href="#DejaVuSans-32"/>
       <use x="63.623046875" xlink:href="#DejaVuSans-35"/>
       <use x="127.24609375" xlink:href="#DejaVuSans-30"/>
       <use x="190.869140625" xlink:href="#DejaVuSans-30"/>
      </g>
     </g>
    </g>
   </g>
   <g id="patch_3">
    <path d="
M46.1172 32
L401.941 32" style="fill:none;stroke:#000000;"/>
   </g>
   <g id="patch_4">
    <path d="
M401.941 111.6
L401.941 32" style="fill:none;stroke:#000000;"/>
   </g>
   <g id="patch_5">
    <path d="
M46.1172 111.6
L401.941 111.6" style="fill:none;stroke:#000000;"/>
   </g>
   <g id="patch_6">
    <path d="
M46.1172 111.6
L46.1172 32" style="fill:none;stroke:#000000;"/>
   </g>
   <g id="text_13">
    <!-- OLTP -->
    <defs>
     <path d="
M39.4062 66.2188
Q28.6562 66.2188 22.3281 58.2031
Q16.0156 50.2031 16.0156 36.375
Q16.0156 22.6094 22.3281 14.5938
Q28.6562 6.59375 39.4062 6.59375
Q50.1406 6.59375 56.4219 14.5938
Q62.7031 22.6094 62.7031 36.375
Q62.7031 50.2031 56.4219 58.2031
Q50.1406 66.2188 39.4062 66.2188
M39.4062 74.2188
Q54.7344 74.2188 63.9062 63.9375
Q73.0938 53.6562 73.0938 36.375
Q73.0938 19.1406 63.9062 8.85938
Q54.7344 -1.42188 39.4062 -1.42188
Q24.0312 -1.42188 14.8125 8.82812
Q5.60938 19.0938 5.60938 36.375
Q5.60938 53.6562 14.8125 63.9375
Q24.0312 74.2188 39.4062 74.2188" id="DejaVuSans-4f"/>
     <path d="
M19.6719 64.7969
L19.6719 37.4062
L32.0781 37.4062
Q38.9688 37.4062 42.7188 40.9688
Q46.4844 44.5312 46.4844 51.125
Q46.4844 57.6719 42.7188 61.2344
Q38.9688 64.7969 32.0781 64.7969
z

M9.8125 72.9062
L32.0781 72.9062
Q44.3438 72.9062 50.6094 67.3594
Q56.8906 61.8125 56.8906 51.125
Q56.8906 40.3281 50.6094 34.8125
Q44.3438 29.2969 32.0781 29.2969
L19.6719 29.2969
L19.6719 0
L9.8125 0
z
" id="DejaVuSans-50"/>
     <path d="
M9.8125 72.9062
L19.6719 72.9062
L19.6719 8.29688
L55.1719 8.29688
L55.1719 0
L9.8125 0
z
" id="DejaVuSans-4c"/>
    </defs>
    <g transform="translate(210.046484375 27.0)scale(0.12 -0.12)">
     <use xlink:href="#DejaVuSans-4f"/>
     <use x="78.7109375" xlink:href="#DejaVuSans-4c"/>
     <use x="120.673828125" xlink:href="#DejaVuSans-54"/>
     <use x="181.7578125" xlink:href="#DejaVuSans-50"/>
    </g>
   </g>
  </g>
  <g id="axes_2">
   <g id="patch_7">
    <path d="
M46.1172 246.6
L401.941 246.6
L401.941 167
L46.1172 167
z
" style="fill:#ffffff;"/>
   </g>
   <g id="line2d_51">
    <path clip-path="url(#pe9bd9c4693)" d="
M56.7926 246.6
L56.7926 167" style="fill:none;stroke:#00ffff;stroke-dasharray:6.000000,6.000000;stroke-dashoffset:0.0;stroke-linecap:butt;"/>
   </g>
   <g id="line2d_52">
    <path clip-path="url(#pe9bd9c4693)" d="
M78.1416 246.6
L78.1416 167" style="fill:none;stroke:#00ffff;stroke-dasharray:6.000000,6.000000;stroke-dashoffset:0.0;stroke-linecap:butt;"/>
   </g>
   <g id="line2d_53">
    <path clip-path="url(#pe9bd9c4693)" d="
M78.1417 246.6
L78.1417 167" style="fill:none;stroke:#00ffff;stroke-dasharray:6.000000,6.000000;stroke-dashoffset:0.0;stroke-linecap:butt;"/>
   </g>
   <g id="line2d_54">
    <path clip-path="url(#pe9bd9c4693)" d="
M78.142 246.6
L78.142 167" style="fill:none;stroke:#00ffff;stroke-dasharray:6.000000,6.000000;stroke-dashoffset:0.0;stroke-linecap:butt;"/>
   </g>
   <g id="line2d_55">
    <path clip-path="url(#pe9bd9c4693)" d="
M99.4912 246.6
L99.4912 167" style="fill:none;stroke:#00ffff;stroke-dasharray:6.000000,6.000000;stroke-dashoffset:0.0;stroke-linecap:butt;"/>
   </g>
   <g id="line2d_56">
    <path clip-path="url(#pe9bd9c4693)" d="
M99.4912 246.6
L99.4912 167" style="fill:none;stroke:#00ffff;stroke-dasharray:6.000000,6.000000;stroke-dashoffset:0.0;stroke-linecap:butt;"/>
   </g>
   <g id="line2d_57">
    <path clip-path="url(#pe9bd9c4693)" d="
M99.4914 246.6
L99.4914 167" style="fill:none;stroke:#00ffff;stroke-dasharray:6.000000,6.000000;stroke-dashoffset:0.0;stroke-linecap:butt;"/>
   </g>
   <g id="line2d_58">
    <path clip-path="url(#pe9bd9c4693)" d="
M120.841 246.6
L120.841 167" style="fill:none;stroke:#00ffff;stroke-dasharray:6.000000,6.000000;stroke-dashoffset:0.0;stroke-linecap:butt;"/>
   </g>
   <g id="line2d_59">
    <path clip-path="url(#pe9bd9c4693)" d="
M120.841 246.6
L120.841 167" style="fill:none;stroke:#00ffff;stroke-dasharray:6.000000,6.000000;stroke-dashoffset:0.0;stroke-linecap:butt;"/>
   </g>
   <g id="line2d_60">
    <path clip-path="url(#pe9bd9c4693)" d="
M142.19 246.6
L142.19 167" style="fill:none;stroke:#00ffff;stroke-dasharray:6.000000,6.000000;stroke-dashoffset:0.0;stroke-linecap:butt;"/>
   </g>
   <g id="line2d_61">
    <path clip-path="url(#pe9bd9c4693)" d="
M142.192 246.6
L142.192 167" style="fill:none;stroke:#00ffff;stroke-dasharray:6.000000,6.000000;stroke-dashoffset:0.0;stroke-linecap:butt;"/>
   </g>
   <g id="line2d_62">
    <path clip-path="url(#pe9bd9c4693)" d="
M142.194 246.6
L142.194 167" style="fill:none;stroke:#00ffff;stroke-dasharray:6.000000,6.000000;stroke-dashoffset:0.0;stroke-linecap:butt;"/>
   </g>
   <g id="line2d_63">
    <path clip-path="url(#pe9bd9c4693)" d="
M163.54 246.6
L163.54 167" style="fill:none;stroke:#00ffff;stroke-dasharray:6.000000,6.000000;stroke-dashoffset:0.0;stroke-linecap:butt;"/>
   </g>
   <g id="line2d_64">
    <path clip-path="url(#pe9bd9c4693)" d="
M163.54 246.6
L163.54 167" style="fill:none;stroke:#00ffff;stroke-dasharray:6.000000,6.000000;stroke-dashoffset:0.0;stroke-linecap:butt;"/>
   </g>
   <g id="line2d_65">
    <path clip-path="url(#pe9bd9c4693)" d="
M184.889 246.6
L184.889 167" style="fill:none;stroke:#00ffff;stroke-dasharray:6.000000,6.000000;stroke-dashoffset:0.0;stroke-linecap:butt;"/>
   </g>
   <g id="line2d_66">
    <path clip-path="url(#pe9bd9c4693)" d="
M184.889 246.6
L184.889 167" style="fill:none;stroke:#00ffff;stroke-dasharray:6.000000,6.000000;stroke-dashoffset:0.0;stroke-linecap:butt;"/>
   </g>
   <g id="line2d_67">
    <path clip-path="url(#pe9bd9c4693)" d="
M206.239 246.6
L206.239 167" style="fill:none;stroke:#00ffff;stroke-dasharray:6.000000,6.000000;stroke-dashoffset:0.0;stroke-linecap:butt;"/>
   </g>
   <g id="line2d_68">
    <path clip-path="url(#pe9bd9c4693)" d="
M206.239 246.6
L206.239 167" style="fill:none;stroke:#00ffff;stroke-dasharray:6.000000,6.000000;stroke-dashoffset:0.0;stroke-linecap:butt;"/>
   </g>
   <g id="line2d_69">
    <path clip-path="url(#pe9bd9c4693)" d="
M227.588 246.6
L227.588 167" style="fill:none;stroke:#00ffff;stroke-dasharray:6.000000,6.000000;stroke-dashoffset:0.0;stroke-linecap:butt;"/>
   </g>
   <g id="line2d_70">
    <path clip-path="url(#pe9bd9c4693)" d="
M248.938 246.6
L248.938 167" style="fill:none;stroke:#00ffff;stroke-dasharray:6.000000,6.000000;stroke-dashoffset:0.0;stroke-linecap:butt;"/>
   </g>
   <g id="line2d_71">
    <path clip-path="url(#pe9bd9c4693)" d="
M270.287 246.6
L270.287 167" style="fill:none;stroke:#00ffff;stroke-dasharray:6.000000,6.000000;stroke-dashoffset:0.0;stroke-linecap:butt;"/>
   </g>
   <g id="line2d_72">
    <path clip-path="url(#pe9bd9c4693)" d="
M291.636 246.6
L291.636 167" style="fill:none;stroke:#00ffff;stroke-dasharray:6.000000,6.000000;stroke-dashoffset:0.0;stroke-linecap:butt;"/>
   </g>
   <g id="line2d_73">
    <path clip-path="url(#pe9bd9c4693)" d="
M291.636 246.6
L291.636 167" style="fill:none;stroke:#00ffff;stroke-dasharray:6.000000,6.000000;stroke-dashoffset:0.0;stroke-linecap:butt;"/>
   </g>
   <g id="line2d_74">
    <path clip-path="url(#pe9bd9c4693)" d="
M312.986 246.6
L312.986 167" style="fill:none;stroke:#00ffff;stroke-dasharray:6.000000,6.000000;stroke-dashoffset:0.0;stroke-linecap:butt;"/>
   </g>
   <g id="line2d_75">
    <path clip-path="url(#pe9bd9c4693)" d="
M334.335 246.6
L334.335 167" style="fill:none;stroke:#00ffff;stroke-dasharray:6.000000,6.000000;stroke-dashoffset:0.0;stroke-linecap:butt;"/>
   </g>
   <g id="line2d_76">
    <path clip-path="url(#pe9bd9c4693)" d="
M355.685 246.6
L355.685 167" style="fill:none;stroke:#00ffff;stroke-dasharray:6.000000,6.000000;stroke-dashoffset:0.0;stroke-linecap:butt;"/>
   </g>
   <g id="line2d_77">
    <path clip-path="url(#pe9bd9c4693)" d="
M377.034 246.6
L377.034 167" style="fill:none;stroke:#00ffff;stroke-dasharray:6.000000,6.000000;stroke-dashoffset:0.0;stroke-linecap:butt;"/>
   </g>
   <g id="line2d_78">
    <path clip-path="url(#pe9bd9c4693)" d="
M57.6717 234.322
L57.6717 228.927
L77.7045 228.927
L77.7045 230.229
L97.7374 230.229
L97.7374 233.02
L117.77 233.02
L117.77 235.438
L137.803 235.438
L137.803 236.368
L157.836 236.368
L157.836 232.833
L177.869 232.833
L177.869 235.624
L197.902 235.624
L197.902 235.624
L217.934 235.624
L217.934 233.02
L237.967 233.02
L237.967 235.066
L258 235.066
L258 232.089
L278.033 232.089
L278.033 232.089
L298.066 232.089
L298.066 233.392
L318.098 233.392
L318.098 233.95
L338.131 233.95
L338.131 232.833
L358.164 232.833
L358.164 229.299
L378.197 229.299" style="fill:none;stroke:#008000;"/>
   </g>
   <g id="matplotlib.axis_3">
    <g id="xtick_6">
     <g id="line2d_79">
      <g>
       <use style="stroke:#000000;stroke-linecap:butt;stroke-width:0.5;" x="46.1171875" xlink:href="#m0012dd4eef" y="246.6"/>
      </g>
     </g>
     <g id="line2d_80">
      <g>
       <use style="stroke:#000000;stroke-linecap:butt;stroke-width:0.5;" x="46.1171875" xlink:href="#m476344969c" y="167.0"/>
      </g>
     </g>
     <g id="text_14">
      <!-- 0 -->
      <g transform="translate(43.59765625 258.021875)scale(0.1 -0.1)">
       <use xlink:href="#DejaVuSans-30"/>
      </g>
     </g>
    </g>
    <g id="xtick_7">
     <g id="line2d_81">
      <g>
       <use style="stroke:#000000;stroke-linecap:butt;stroke-width:0.5;" x="135.073242188" xlink:href="#m0012dd4eef" y="246.6"/>
      </g>
     </g>
     <g id="line2d_82">
      <g>
       <use style="stroke:#000000;stroke-linecap:butt;stroke-width:0.5;" x="135.073242188" xlink:href="#m476344969c" y="167.0"/>
      </g>
     </g>
     <g id="text_15">
      <!-- 500 -->
      <g transform="translate(126.247460938 258.021875)scale(0.1 -0.1)">
       <use xlink:href="#DejaVuSans-35"/>
       <use x="63.623046875" xlink:href="#DejaVuSans-30"/>
       <use x="127.24609375" xlink:href="#DejaVuSans-30"/>
      </g>
     </g>
    </g>
    <g id="xtick_8">
     <g id="line2d_83">
      <g>
       <use style="stroke:#000000;stroke-linecap:butt;stroke-width:0.5;" x="224.029296875" xlink:href="#m0012dd4eef" y="246.6"/>
      </g>
     </g>
     <g id="line2d_84">
      <g>
       <use style="stroke:#000000;stroke-linecap:butt;stroke-width:0.5;" x="224.029296875" xlink:href="#m476344969c" y="167.0"/>
      </g>
     </g>
     <g id="text_16">
      <!-- 1000 -->
      <g transform="translate(212.185546875 258.021875)scale(0.1 -0.1)">
       <use xlink:href="#DejaVuSans-31"/>
       <use x="63.623046875" xlink:href="#DejaVuSans-30"/>
       <use x="127.24609375" xlink:href="#DejaVuSans-30"/>
       <use x="190.869140625" xlink:href="#DejaVuSans-30"/>
      </g>
     </g>
    </g>
    <g id="xtick_9">
     <g id="line2d_85">
      <g>
       <use style="stroke:#000000;stroke-linecap:butt;stroke-width:0.5;" x="312.985351563" xlink:href="#m0012dd4eef" y="246.6"/>
      </g>
     </g>
     <g id="line2d_86">
      <g>
       <use style="stroke:#000000;stroke-linecap:butt;stroke-width:0.5;" x="312.985351563" xlink:href="#m476344969c" y="167.0"/>
      </g>
     </g>
     <g id="text_17">
      <!-- 1500 -->
      <g transform="translate(301.141601563 258.021875)scale(0.1 -0.1)">
       <use xlink:href="#DejaVuSans-31"/>
       <use x="63.623046875" xlink:href="#DejaVuSans-35"/>
       <use x="127.24609375" xlink:href="#DejaVuSans-30"/>
       <use x="190.869140625" xlink:href="#DejaVuSans-30"/>
      </g>
     </g>
    </g>
    <g id="xtick_10">
     <g id="line2d_87">
      <g>
       <use style="stroke:#000000;stroke-linecap:butt;stroke-width:0.5;" x="401.94140625" xlink:href="#m0012dd4eef" y="246.6"/>
      </g>
     </g>
     <g id="line2d_88">
      <g>
       <use style="stroke:#000000;stroke-linecap:butt;stroke-width:0.5;" x="401.94140625" xlink:href="#m476344969c" y="167.0"/>
      </g>
     </g>
     <g id="text_18">
      <!-- 2000 -->
      <g transform="translate(389.91484375 258.021875)scale(0.1 -0.1)">
       <use xlink:href="#DejaVuSans-32"/>
       <use x="63.623046875" xlink:href="#DejaVuSans-30"/>
       <use x="127.24609375" xlink:href="#DejaVuSans-30"/>
       <use x="190.869140625" xlink:href="#DejaVuSans-30"/>
      </g>
     </g>
    </g>
    <g id="text_19">
     <!-- Time -->
     <g transform="translate(212.047265625 270.7625)scale(0.1 -0.1)">
      <use xlink:href="#DejaVuSans-54"/>
      <use x="57.958984375" xlink:href="#DejaVuSans-69"/>
      <use x="85.7421875" xlink:href="#DejaVuSans-6d"/>
      <use x="183.154296875" xlink:href="#DejaVuSans-65"/>
     </g>
    </g>
   </g>
   <g id="matplotlib.axis_4">
    <g id="ytick_7">
     <g id="line2d_89">
      <g>
       <use style="stroke:#000000;stroke-linecap:butt;stroke-width:0.5;" x="46.1171875" xlink:href="#me8a85f7bf6" y="246.6"/>
      </g>
     </g>
     <g id="line2d_90">
      <g>
       <use style="stroke:#000000;stroke-linecap:butt;stroke-width:0.5;" x="401.94140625" xlink:href="#m1a32005dea" y="246.6"/>
      </g>
     </g>
     <g id="text_20">
      <!-- 0.0 -->
      <defs>
       <path d="
M10.6875 12.4062
L21 12.4062
L21 0
L10.6875 0
z
" id="DejaVuSans-2e"/>
      </defs>
      <g transform="translate(27.5375 250.23984375)scale(0.1 -0.1)">
       <use xlink:href="#DejaVuSans-30"/>
       <use x="63.623046875" xlink:href="#DejaVuSans-2e"/>
       <use x="95.41015625" xlink:href="#DejaVuSans-30"/>
      </g>
     </g>
    </g>
    <g id="ytick_8">
     <g id="line2d_91">
      <g>
       <use style="stroke:#000000;stroke-linecap:butt;stroke-width:0.5;" x="46.1171875" xlink:href="#me8a85f7bf6" y="236.126315789"/>
      </g>
     </g>
     <g id="line2d_92">
      <g>
       <use style="stroke:#000000;stroke-linecap:butt;stroke-width:0.5;" x="401.94140625" xlink:href="#m1a32005dea" y="236.126315789"/>
      </g>
     </g>
     <g id="text_21">
      <!-- 0.5 -->
      <g transform="translate(27.746875 239.766159539)scale(0.1 -0.1)">
       <use xlink:href="#DejaVuSans-30"/>
       <use x="63.623046875" xlink:href="#DejaVuSans-2e"/>
       <use x="95.41015625" xlink:href="#DejaVuSans-35"/>
      </g>
     </g>
    </g>
    <g id="ytick_9">
     <g id="line2d_93">
      <g>
       <use style="stroke:#000000;stroke-linecap:butt;stroke-width:0.5;" x="46.1171875" xlink:href="#me8a85f7bf6" y="225.652631579"/>
      </g>
     </g>
     <g id="line2d_94">
      <g>
       <use style="stroke:#000000;stroke-linecap:butt;stroke-width:0.5;" x="401.94140625" xlink:href="#m1a32005dea" y="225.652631579"/>
      </g>
     </g>
     <g id="text_22">
      <!-- 1.0 -->
      <g transform="translate(27.9765625 229.292475329)scale(0.1 -0.1)">
       <use xlink:href="#DejaVuSans-31"/>
       <use x="63.623046875" xlink:href="#DejaVuSans-2e"/>
       <use x="95.41015625" xlink:href="#DejaVuSans-30"/>
      </g>
     </g>
    </g>
    <g id="ytick_10">
     <g id="line2d_95">
      <g>
       <use style="stroke:#000000;stroke-linecap:butt;stroke-width:0.5;" x="46.1171875" xlink:href="#me8a85f7bf6" y="215.178947368"/>
      </g>
     </g>
     <g id="line2d_96">
      <g>
       <use style="stroke:#000000;stroke-linecap:butt;stroke-width:0.5;" x="401.94140625" xlink:href="#m1a32005dea" y="215.178947368"/>
      </g>
     </g>
     <g id="text_23">
      <!-- 1.5 -->
      <g transform="translate(28.1859375 218.753166118)scale(0.1 -0.1)">
       <use xlink:href="#DejaVuSans-31"/>
       <use x="63.623046875" xlink:href="#DejaVuSans-2e"/>
       <use x="95.41015625" xlink:href="#DejaVuSans-35"/>
      </g>
     </g>
    </g>
    <g id="ytick_11">
     <g id="line2d_97">
      <g>
       <use style="stroke:#000000;stroke-linecap:butt;stroke-width:0.5;" x="46.1171875" xlink:href="#me8a85f7bf6" y="204.705263158"/>
      </g>
     </g>
     <g id="line2d_98">
      <g>
       <use style="stroke:#000000;stroke-linecap:butt;stroke-width:0.5;" x="401.94140625" xlink:href="#m1a32005dea" y="204.705263158"/>
      </g>
     </g>
     <g id="text_24">
      <!-- 2.0 -->
      <g transform="translate(27.6109375 208.345106908)scale(0.1 -0.1)">
       <use xlink:href="#DejaVuSans-32"/>
       <use x="63.623046875" xlink:href="#DejaVuSans-2e"/>
       <use x="95.41015625" xlink:href="#DejaVuSans-30"/>
      </g>
     </g>
    </g>
    <g id="ytick_12">
     <g id="line2d_99">
      <g>
       <use style="stroke:#000000;stroke-linecap:butt;stroke-width:0.5;" x="46.1171875" xlink:href="#me8a85f7bf6" y="194.231578947"/>
      </g>
     </g>
     <g id="line2d_100">
      <g>
       <use style="stroke:#000000;stroke-linecap:butt;stroke-width:0.5;" x="401.94140625" xlink:href="#m1a32005dea" y="194.231578947"/>
      </g>
     </g>
     <g id="text_25">
      <!-- 2.5 -->
      <g transform="translate(27.8203125 197.871422697)scale(0.1 -0.1)">
       <use xlink:href="#DejaVuSans-32"/>
       <use x="63.623046875" xlink:href="#DejaVuSans-2e"/>
       <use x="95.41015625" xlink:href="#DejaVuSans-35"/>
      </g>
     </g>
    </g>
    <g id="ytick_13">
     <g id="line2d_101">
      <g>
       <use style="stroke:#000000;stroke-linecap:butt;stroke-width:0.5;" x="46.1171875" xlink:href="#me8a85f7bf6" y="183.757894737"/>
      </g>
     </g>
     <g id="line2d_102">
      <g>
       <use style="stroke:#000000;stroke-linecap:butt;stroke-width:0.5;" x="401.94140625" xlink:href="#m1a32005dea" y="183.757894737"/>
      </g>
     </g>
     <g id="text_26">
      <!-- 3.0 -->
      <defs>
       <path d="
M40.5781 39.3125
Q47.6562 37.7969 51.625 33
Q55.6094 28.2188 55.6094 21.1875
Q55.6094 10.4062 48.1875 4.48438
Q40.7656 -1.42188 27.0938 -1.42188
Q22.5156 -1.42188 17.6562 -0.515625
Q12.7969 0.390625 7.625 2.20312
L7.625 11.7188
Q11.7188 9.32812 16.5938 8.10938
Q21.4844 6.89062 26.8125 6.89062
Q36.0781 6.89062 40.9375 10.5469
Q45.7969 14.2031 45.7969 21.1875
Q45.7969 27.6406 41.2812 31.2656
Q36.7656 34.9062 28.7188 34.9062
L20.2188 34.9062
L20.2188 43.0156
L29.1094 43.0156
Q36.375 43.0156 40.2344 45.9219
Q44.0938 48.8281 44.0938 54.2969
Q44.0938 59.9062 40.1094 62.9062
Q36.1406 65.9219 28.7188 65.9219
Q24.6562 65.9219 20.0156 65.0312
Q15.375 64.1562 9.8125 62.3125
L9.8125 71.0938
Q15.4375 72.6562 20.3438 73.4375
Q25.25 74.2188 29.5938 74.2188
Q40.8281 74.2188 47.3594 69.1094
Q53.9062 64.0156 53.9062 55.3281
Q53.9062 49.2656 50.4375 45.0938
Q46.9688 40.9219 40.5781 39.3125" id="DejaVuSans-33"/>
      </defs>
      <g transform="translate(27.640625 187.397738487)scale(0.1 -0.1)">
       <use xlink:href="#DejaVuSans-33"/>
       <use x="63.623046875" xlink:href="#DejaVuSans-2e"/>
       <use x="95.41015625" xlink:href="#DejaVuSans-30"/>
      </g>
     </g>
    </g>
    <g id="ytick_14">
     <g id="line2d_103">
      <g>
       <use style="stroke:#000000;stroke-linecap:butt;stroke-width:0.5;" x="46.1171875" xlink:href="#me8a85f7bf6" y="173.284210526"/>
      </g>
     </g>
     <g id="line2d_104">
      <g>
       <use style="stroke:#000000;stroke-linecap:butt;stroke-width:0.5;" x="401.94140625" xlink:href="#m1a32005dea" y="173.284210526"/>
      </g>
     </g>
     <g id="text_27">
      <!-- 3.5 -->
      <g transform="translate(27.85 176.924054276)scale(0.1 -0.1)">
       <use xlink:href="#DejaVuSans-33"/>
       <use x="63.623046875" xlink:href="#DejaVuSans-2e"/>
       <use x="95.41015625" xlink:href="#DejaVuSans-35"/>
      </g>
     </g>
    </g>
   </g>
   <g id="patch_8">
    <path d="
M46.1172 167
L401.941 167" style="fill:none;stroke:#000000;"/>
   </g>
   <g id="patch_9">
    <path d="
M401.941 246.6
L401.941 167" style="fill:none;stroke:#000000;"/>
   </g>
   <g id="patch_10">
    <path d="
M46.1172 246.6
L401.941 246.6" style="fill:none;stroke:#000000;"/>
   </g>
   <g id="patch_11">
    <path d="
M46.1172 246.6
L46.1172 167" style="fill:none;stroke:#000000;"/>
   </g>
   <g id="text_28">
    <!-- OLAP -->
    <defs>
     <path d="
M34.1875 63.1875
L20.7969 26.9062
L47.6094 26.9062
z

M28.6094 72.9062
L39.7969 72.9062
L67.5781 0
L57.3281 0
L50.6875 18.7031
L17.8281 18.7031
L11.1875 0
L0.78125 0
z
" id="DejaVuSans-41"/>
    </defs>
    <g transform="translate(208.646796875 162.0)scale(0.12 -0.12)">
     <use xlink:href="#DejaVuSans-4f"/>
     <use x="78.7109375" xlink:href="#DejaVuSans-4c"/>
     <use x="136.673828125" xlink:href="#DejaVuSans-41"/>
     <use x="205.08203125" xlink:href="#DejaVuSans-50"/>
    </g>
   </g>
  </g>
  <g id="text_29">
   <!-- 8 OLTP workers -->
   <defs>
    <path d="
M30.6094 48.3906
Q23.3906 48.3906 19.1875 42.75
Q14.9844 37.1094 14.9844 27.2969
Q14.9844 17.4844 19.1562 11.8438
Q23.3438 6.20312 30.6094 6.20312
Q37.7969 6.20312 41.9844 11.8594
Q46.1875 17.5312 46.1875 27.2969
Q46.1875 37.0156 41.9844 42.7031
Q37.7969 48.3906 30.6094 48.3906
M30.6094 56
Q42.3281 56 49.0156 48.375
Q55.7188 40.7656 55.7188 27.2969
Q55.7188 13.875 49.0156 6.21875
Q42.3281 -1.42188 30.6094 -1.42188
Q18.8438 -1.42188 12.1719 6.21875
Q5.51562 13.875 5.51562 27.2969
Q5.51562 40.7656 12.1719 48.375
Q18.8438 56 30.6094 56" id="DejaVuSans-6f"/>
    <path d="
M9.07812 75.9844
L18.1094 75.9844
L18.1094 31.1094
L44.9219 54.6875
L56.3906 54.6875
L27.3906 29.1094
L57.625 0
L45.9062 0
L18.1094 26.7031
L18.1094 0
L9.07812 0
z
" id="DejaVuSans-6b"/>
    <path id="DejaVuSans-20"/>
    <path d="
M31.7812 34.625
Q24.75 34.625 20.7188 30.8594
Q16.7031 27.0938 16.7031 20.5156
Q16.7031 13.9219 20.7188 10.1562
Q24.75 6.39062 31.7812 6.39062
Q38.8125 6.39062 42.8594 10.1719
Q46.9219 13.9688 46.9219 20.5156
Q46.9219 27.0938 42.8906 30.8594
Q38.875 34.625 31.7812 34.625
M21.9219 38.8125
Q15.5781 40.375 12.0312 44.7188
Q8.5 49.0781 8.5 55.3281
Q8.5 64.0625 14.7188 69.1406
Q20.9531 74.2188 31.7812 74.2188
Q42.6719 74.2188 48.875 69.1406
Q55.0781 64.0625 55.0781 55.3281
Q55.0781 49.0781 51.5312 44.7188
Q48 40.375 41.7031 38.8125
Q48.8281 37.1562 52.7969 32.3125
Q56.7812 27.4844 56.7812 20.5156
Q56.7812 9.90625 50.3125 4.23438
Q43.8438 -1.42188 31.7812 -1.42188
Q19.7344 -1.42188 13.25 4.23438
Q6.78125 9.90625 6.78125 20.5156
Q6.78125 27.4844 10.7812 32.3125
Q14.7969 37.1562 21.9219 38.8125
M18.3125 54.3906
Q18.3125 48.7344 21.8438 45.5625
Q25.3906 42.3906 31.7812 42.3906
Q38.1406 42.3906 41.7188 45.5625
Q45.3125 48.7344 45.3125 54.3906
Q45.3125 60.0625 41.7188 63.2344
Q38.1406 66.4062 31.7812 66.4062
Q25.3906 66.4062 21.8438 63.2344
Q18.3125 60.0625 18.3125 54.3906" id="DejaVuSans-38"/>
    <path d="
M4.20312 54.6875
L13.1875 54.6875
L24.4219 12.0156
L35.5938 54.6875
L46.1875 54.6875
L57.4219 12.0156
L68.6094 54.6875
L77.5938 54.6875
L63.2812 0
L52.6875 0
L40.9219 44.8281
L29.1094 0
L18.5 0
z
" id="DejaVuSans-77"/>
    <path d="
M44.2812 53.0781
L44.2812 44.5781
Q40.4844 46.5312 36.375 47.5
Q32.2812 48.4844 27.875 48.4844
Q21.1875 48.4844 17.8438 46.4375
Q14.5 44.3906 14.5 40.2812
Q14.5 37.1562 16.8906 35.375
Q19.2812 33.5938 26.5156 31.9844
L29.5938 31.2969
Q39.1562 29.25 43.1875 25.5156
Q47.2188 21.7812 47.2188 15.0938
Q47.2188 7.46875 41.1875 3.01562
Q35.1562 -1.42188 24.6094 -1.42188
Q20.2188 -1.42188 15.4531 -0.5625
Q10.6875 0.296875 5.42188 2
L5.42188 11.2812
Q10.4062 8.6875 15.2344 7.39062
Q20.0625 6.10938 24.8125 6.10938
Q31.1562 6.10938 34.5625 8.28125
Q37.9844 10.4531 37.9844 14.4062
Q37.9844 18.0625 35.5156 20.0156
Q33.0625 21.9688 24.7031 23.7812
L21.5781 24.5156
Q13.2344 26.2656 9.51562 29.9062
Q5.8125 33.5469 5.8125 39.8906
Q5.8125 47.6094 11.2812 51.7969
Q16.75 56 26.8125 56
Q31.7812 56 36.1719 55.2656
Q40.5781 54.5469 44.2812 53.0781" id="DejaVuSans-73"/>
    <path d="
M41.1094 46.2969
Q39.5938 47.1719 37.8125 47.5781
Q36.0312 48 33.8906 48
Q26.2656 48 22.1875 43.0469
Q18.1094 38.0938 18.1094 28.8125
L18.1094 0
L9.07812 0
L9.07812 54.6875
L18.1094 54.6875
L18.1094 46.1875
Q20.9531 51.1719 25.4844 53.5781
Q30.0312 56 36.5312 56
Q37.4531 56 38.5781 55.875
Q39.7031 55.7656 41.0625 55.5156
z
" id="DejaVuSans-72"/>
   </defs>
   <g transform="translate(178.1265625 13.3584375)scale(0.1 -0.1)">
    <use xlink:href="#DejaVuSans-38"/>
    <use x="63.623046875" xlink:href="#DejaVuSans-20"/>
    <use x="95.41015625" xlink:href="#DejaVuSans-4f"/>
    <use x="174.12109375" xlink:href="#DejaVuSans-4c"/>
    <use x="216.083984375" xlink:href="#DejaVuSans-54"/>
    <use x="277.16796875" xlink:href="#DejaVuSans-50"/>
    <use x="337.470703125" xlink:href="#DejaVuSans-20"/>
    <use x="369.2578125" xlink:href="#DejaVuSans-77"/>
    <use x="451.044921875" xlink:href="#DejaVuSans-6f"/>
    <use x="512.2265625" xlink:href="#DejaVuSans-72"/>
    <use x="553.33984375" xlink:href="#DejaVuSans-6b"/>
    <use x="607.625" xlink:href="#DejaVuSans-65"/>
    <use x="669.1484375" xlink:href="#DejaVuSans-72"/>
    <use x="710.26171875" xlink:href="#DejaVuSans-73"/>
   </g>
  </g>
 </g>
 <defs>
  <clipPath id="pe9bd9c4693">
   <rect height="79.6" width="355.82421875" x="46.1171875" y="167.0"/>
  </clipPath>
  <clipPath id="paafe9ad165">
   <rect height="79.6" width="355.82421875" x="46.1171875" y="32.0"/>
  </clipPath>
 </defs>
</svg>
