<?xml version="1.0" encoding="utf-8" standalone="no"?>
<!DOCTYPE svg PUBLIC "-//W3C//DTD SVG 1.1//EN"
  "http://www.w3.org/Graphics/SVG/1.1/DTD/svg11.dtd">
<!-- Created with matplotlib (http://matplotlib.sourceforge.net/) -->
<svg height="288pt" version="1.1" viewBox="0 0 432 288" width="432pt" xmlns="http://www.w3.org/2000/svg" xmlns:xlink="http://www.w3.org/1999/xlink">
 <defs>
  <style type="text/css">
*{stroke-linecap:square;stroke-linejoin:round;}
  </style>
 </defs>
 <g id="figure_1">
  <g id="patch_1">
   <path d="
M0 288
L432 288
L432 0
L0 0
z
" style="fill:#ffffff;"/>
  </g>
  <g id="axes_1">
   <g id="patch_2">
    <path d="
M46.1172 111.6
L401.941 111.6
L401.941 32
L46.1172 32
z
" style="fill:#ffffff;"/>
   </g>
   <g id="line2d_1">
    <path clip-path="url(#paafe9ad165)" d="
M56.7921 111.6
L56.7921 32" style="fill:none;stroke:#00ffff;stroke-dasharray:6.000000,6.000000;stroke-dashoffset:0.0;stroke-linecap:butt;"/>
   </g>
   <g id="line2d_2">
    <path clip-path="url(#paafe9ad165)" d="
M78.1419 111.6
L78.1419 32" style="fill:none;stroke:#00ffff;stroke-dasharray:6.000000,6.000000;stroke-dashoffset:0.0;stroke-linecap:butt;"/>
   </g>
   <g id="line2d_3">
    <path clip-path="url(#paafe9ad165)" d="
M78.142 111.6
L78.142 32" style="fill:none;stroke:#00ffff;stroke-dasharray:6.000000,6.000000;stroke-dashoffset:0.0;stroke-linecap:butt;"/>
   </g>
   <g id="line2d_4">
    <path clip-path="url(#paafe9ad165)" d="
M99.4912 111.6
L99.4912 32" style="fill:none;stroke:#00ffff;stroke-dasharray:6.000000,6.000000;stroke-dashoffset:0.0;stroke-linecap:butt;"/>
   </g>
   <g id="line2d_5">
    <path clip-path="url(#paafe9ad165)" d="
M99.4915 111.6
L99.4915 32" style="fill:none;stroke:#00ffff;stroke-dasharray:6.000000,6.000000;stroke-dashoffset:0.0;stroke-linecap:butt;"/>
   </g>
   <g id="line2d_6">
    <path clip-path="url(#paafe9ad165)" d="
M120.841 111.6
L120.841 32" style="fill:none;stroke:#00ffff;stroke-dasharray:6.000000,6.000000;stroke-dashoffset:0.0;stroke-linecap:butt;"/>
   </g>
   <g id="line2d_7">
    <path clip-path="url(#paafe9ad165)" d="
M142.19 111.6
L142.19 32" style="fill:none;stroke:#00ffff;stroke-dasharray:6.000000,6.000000;stroke-dashoffset:0.0;stroke-linecap:butt;"/>
   </g>
   <g id="line2d_8">
    <path clip-path="url(#paafe9ad165)" d="
M142.19 111.6
L142.19 32" style="fill:none;stroke:#00ffff;stroke-dasharray:6.000000,6.000000;stroke-dashoffset:0.0;stroke-linecap:butt;"/>
   </g>
   <g id="line2d_9">
    <path clip-path="url(#paafe9ad165)" d="
M163.54 111.6
L163.54 32" style="fill:none;stroke:#00ffff;stroke-dasharray:6.000000,6.000000;stroke-dashoffset:0.0;stroke-linecap:butt;"/>
   </g>
   <g id="line2d_10">
    <path clip-path="url(#paafe9ad165)" d="
M184.889 111.6
L184.889 32" style="fill:none;stroke:#00ffff;stroke-dasharray:6.000000,6.000000;stroke-dashoffset:0.0;stroke-linecap:butt;"/>
   </g>
   <g id="line2d_11">
    <path clip-path="url(#paafe9ad165)" d="
M206.239 111.6
L206.239 32" style="fill:none;stroke:#00ffff;stroke-dasharray:6.000000,6.000000;stroke-dashoffset:0.0;stroke-linecap:butt;"/>
   </g>
   <g id="line2d_12">
    <path clip-path="url(#paafe9ad165)" d="
M227.588 111.6
L227.588 32" style="fill:none;stroke:#00ffff;stroke-dasharray:6.000000,6.000000;stroke-dashoffset:0.0;stroke-linecap:butt;"/>
   </g>
   <g id="line2d_13">
    <path clip-path="url(#paafe9ad165)" d="
M248.938 111.6
L248.938 32" style="fill:none;stroke:#00ffff;stroke-dasharray:6.000000,6.000000;stroke-dashoffset:0.0;stroke-linecap:butt;"/>
   </g>
   <g id="line2d_14">
    <path clip-path="url(#paafe9ad165)" d="
M270.287 111.6
L270.287 32" style="fill:none;stroke:#00ffff;stroke-dasharray:6.000000,6.000000;stroke-dashoffset:0.0;stroke-linecap:butt;"/>
   </g>
   <g id="line2d_15">
    <path clip-path="url(#paafe9ad165)" d="
M291.653 111.6
L291.653 32" style="fill:none;stroke:#00ffff;stroke-dasharray:6.000000,6.000000;stroke-dashoffset:0.0;stroke-linecap:butt;"/>
   </g>
   <g id="line2d_16">
    <path clip-path="url(#paafe9ad165)" d="
M291.653 111.6
L291.653 32" style="fill:none;stroke:#00ffff;stroke-dasharray:6.000000,6.000000;stroke-dashoffset:0.0;stroke-linecap:butt;"/>
   </g>
   <g id="line2d_17">
    <path clip-path="url(#paafe9ad165)" d="
M312.986 111.6
L312.986 32" style="fill:none;stroke:#00ffff;stroke-dasharray:6.000000,6.000000;stroke-dashoffset:0.0;stroke-linecap:butt;"/>
   </g>
   <g id="line2d_18">
    <path clip-path="url(#paafe9ad165)" d="
M334.335 111.6
L334.335 32" style="fill:none;stroke:#00ffff;stroke-dasharray:6.000000,6.000000;stroke-dashoffset:0.0;stroke-linecap:butt;"/>
   </g>
   <g id="line2d_19">
    <path clip-path="url(#paafe9ad165)" d="
M356.525 111.6
L356.525 32" style="fill:none;stroke:#00ffff;stroke-dasharray:6.000000,6.000000;stroke-dashoffset:0.0;stroke-linecap:butt;"/>
   </g>
   <g id="line2d_20">
    <path clip-path="url(#paafe9ad165)" d="
M356.525 111.6
L356.525 32" style="fill:none;stroke:#00ffff;stroke-dasharray:6.000000,6.000000;stroke-dashoffset:0.0;stroke-linecap:butt;"/>
   </g>
   <g id="line2d_21">
    <path clip-path="url(#paafe9ad165)" d="
M377.034 111.6
L377.034 32" style="fill:none;stroke:#00ffff;stroke-dasharray:6.000000,6.000000;stroke-dashoffset:0.0;stroke-linecap:butt;"/>
   </g>
   <g id="line2d_22">
    <path clip-path="url(#paafe9ad165)" d="
M46.1172 53.827
L46.1172 36.5908
L46.7028 36.5908
L46.7028 30.4199
L47.2885 30.4199
L47.2885 35.3334
L47.8742 35.3334
L47.8742 29.443
L48.4598 29.443
L48.4598 32.6252
L49.6312 32.5478
L49.6312 28.3693
L50.2168 28.3693
L50.2168 29.3849
L50.8025 29.3849
L50.8025 35.0723
L51.3881 35.0723
L51.3881 25.487
L51.9738 25.487
L51.9738 38.2641
L52.5595 38.2641
L52.5595 30.4102
L53.1451 30.4102
L53.1451 26.2801
L53.7308 26.2801
L53.7308 26.4832
L54.3164 26.4832
L54.3164 27.4795
L54.9021 27.4795
L54.9021 38.3512
L55.4878 38.3512
L55.4878 46.7662
L56.0734 46.7662
L56.0734 58.7792
L56.6591 58.7792
L56.6591 49.4164
L57.2447 49.4164
L57.2447 45.6442
L57.8304 45.6442
L57.8304 32.5768
L58.4161 32.5768
L58.4161 30.8068
L59.0017 30.8068
L59.0017 32.2963
L59.5874 32.2963
L59.5874 34.4145
L60.173 34.4145
L60.173 35.9234
L60.7587 35.9234
L60.7587 38.0707
L61.3444 38.0707
L61.3444 23.833
L61.93 23.833
L61.93 31.5709
L62.5157 31.5709
L62.5157 36.32
L63.1013 36.32
L63.1013 30.1007
L63.687 30.1007
L63.687 23.5718
L64.2727 23.5718
L64.2727 35.0723
L64.8583 35.0723
L64.8583 37.6935
L65.444 37.6935
L65.444 37.529
L66.0296 37.529
L66.0296 34.9659
L66.6153 34.9659
L66.6153 31.832
L67.201 31.832
L67.201 36.6198
L67.7866 36.6198
L67.7866 38.1384
L68.3723 38.1384
L68.3723 34.695
L68.958 34.695
L68.958 26.2317
L69.5436 26.2317
L69.5436 37.1422
L70.1293 37.1422
L70.1293 39.7827
L70.7149 39.7827
L70.7149 31.3
L71.3006 31.3
L71.3006 26.8024
L71.8863 26.8024
L71.8863 34.9078
L72.4719 34.9078
L72.4719 41.398
L73.0576 41.398
L73.0576 39.4442
L73.6432 39.4442
L73.6432 32.3156
L74.2289 32.3156
L74.2289 36.6005
L74.8146 36.6005
L74.8146 37.4323
L75.4002 37.4323
L75.4002 31.1453
L76.5715 31.242
L76.5715 36.0395
L77.1572 36.0395
L77.1572 46.563
L77.7429 46.563
L77.7429 39.5699
L78.3285 39.5699
L78.3285 55.9936
L78.9142 55.9936
L78.9142 59.0501
L79.4998 59.0501
L79.4998 52.7437
L80.0855 52.7437
L80.0855 54.417
L80.6712 54.417
L80.6712 47.9559
L81.2568 47.9559
L81.2568 59.1178
L81.8425 59.1178
L81.8425 43.9418
L82.4281 43.9418
L82.4281 49.6002
L83.0138 49.6002
L83.0138 45.6248
L83.5995 45.6248
L83.5995 51.2348
L84.1851 51.2348
L84.1851 36.6876
L84.7708 36.6876
L84.7708 43.1487
L85.3564 43.1487
L85.3564 52.0182
L85.9421 52.0182
L85.9421 41.1659
L86.5278 41.1659
L86.5278 35.4495
L87.1134 35.4495
L87.1134 41.5044
L87.6991 41.5044
L87.6991 43.0907
L88.2847 43.0907
L88.2847 46.9209
L88.8704 46.9209
L88.8704 52.5696
L89.4561 52.5696
L89.4561 43.8548
L90.0417 43.8548
L90.0417 47.1047
L90.6274 47.1047
L90.6274 53.1886
L91.2131 53.1886
L91.2131 51.1864
L91.7987 51.1864
L91.7987 57.2703
L92.3844 57.2703
L92.3844 50.1128
L92.97 50.1128
L92.97 56.5352
L93.5557 56.5352
L93.5557 49.4454
L94.1414 49.4454
L94.1414 49.7066
L94.727 49.7066
L94.727 49.8516
L95.3127 49.8516
L95.3127 43.9708
L95.8983 43.9708
L95.8983 42.5877
L96.484 42.5877
L96.484 43.3228
L97.0697 43.3228
L97.0697 49.4841
L97.6553 49.4841
L97.6553 54.3493
L98.241 54.3493
L98.241 54.8426
L98.8266 54.8426
L98.8266 76.47
L99.4123 76.47
L99.4123 61.9518
L99.998 61.9518
L99.998 56.2934
L100.584 56.2934
L100.584 53.6529
L101.169 53.6529
L101.169 60.4719
L101.755 60.4719
L101.755 56.8931
L102.341 56.8931
L102.341 49.1552
L102.926 49.1552
L102.926 61.1006
L103.512 61.1006
L103.512 64.8051
L104.098 64.8051
L104.098 53.5755
L104.683 53.5755
L104.683 51.2541
L105.269 51.2541
L105.269 56.4288
L105.855 56.4288
L105.855 54.2719
L106.44 54.2719
L106.44 59.9206
L107.026 59.9206
L107.026 61.3811
L107.612 61.3811
L107.612 60.4525
L108.197 60.4525
L108.197 55.1618
L108.783 55.1618
L108.783 59.4369
L109.369 59.4369
L109.369 49.0392
L109.954 49.0392
L109.954 56.9608
L110.54 56.9608
L110.54 59.3306
L111.126 59.3306
L111.126 69.0223
L111.711 69.0223
L111.711 65.8884
L112.297 65.8884
L112.297 62.5514
L112.882 62.5514
L112.882 59.6014
L113.468 59.6014
L113.468 58.9146
L114.054 58.9146
L114.054 64.8438
L114.639 64.8438
L114.639 61.5745
L115.225 61.5745
L115.225 59.0984
L115.811 59.0984
L115.811 66.7783
L116.396 66.7783
L116.396 63.9153
L116.982 63.9153
L116.982 59.8819
L117.568 59.8819
L117.568 52.4922
L118.153 52.4922
L118.153 45.886
L118.739 45.886
L118.739 47.8398
L119.325 47.8398
L119.325 54.4654
L119.91 54.4654
L119.91 68.7708
L120.496 68.7708
L120.496 75.4931
L121.082 75.4931
L121.082 66.8557
L121.667 66.8557
L121.667 69.8057
L122.253 69.8057
L122.253 70.5698
L122.839 70.5698
L122.839 78.1433
L123.424 78.1433
L123.424 81.0644
L124.01 81.0644
L124.01 79.4781
L124.596 79.4781
L124.596 73.7811
L125.181 73.7811
L125.181 78.0369
L125.767 78.0369
L125.767 82.0219
L126.353 82.0219
L126.353 82.5152
L126.938 82.5152
L126.938 92.9807
L127.524 92.9807
L127.524 62.977
L128.11 62.977
L128.11 65.9368
L128.695 65.9368
L128.695 67.3586
L129.281 67.3586
L129.281 67.9003
L129.867 67.9003
L129.867 66.7009
L130.452 66.7009
L130.452 64.544
L131.038 64.544
L131.038 67.3393
L131.624 67.3393
L131.624 70.9277
L132.209 70.9277
L132.209 72.9589
L132.795 72.9589
L132.795 74.1389
L133.381 74.1389
L133.381 64.099
L133.966 64.099
L133.966 72.4946
L134.552 72.4946
L134.552 70.918
L135.138 70.918
L135.138 75.8219
L135.723 75.8219
L135.723 76.7795
L136.309 76.7795
L136.309 77.7854
L136.895 77.7854
L136.895 76.6441
L137.48 76.6441
L137.48 75.7155
L138.066 75.7155
L138.066 79.0332
L138.652 79.0332
L138.652 76.0154
L139.237 76.0154
L139.237 83.908
L139.823 83.908
L139.823 81.8962
L140.409 81.8962
L140.409 54.9877
L140.994 54.9877
L140.994 67.4844
L142.166 67.436
L142.166 64.9599
L142.751 64.9599
L142.751 62.2226
L143.337 62.2226
L143.337 61.5359
L143.923 61.5359
L143.923 71.7692
L144.508 71.7692
L144.508 78.6269
L145.094 78.6269
L145.094 80.7258
L145.679 80.7258
L145.679 80.3002
L146.265 80.3002
L146.265 82.2734
L146.851 82.2734
L146.851 81.635
L147.436 81.635
L147.436 78.8784
L148.022 78.8784
L148.022 81.1804
L148.608 81.1804
L148.608 82.1477
L149.193 82.1477
L149.193 81.8381
L149.779 81.8381
L149.779 83.376
L150.365 83.376
L150.365 84.4884
L150.95 84.4884
L150.95 85.3686
L151.536 85.3686
L151.536 85.8425
L152.122 85.8425
L152.122 86.2971
L152.707 86.2971
L152.707 85.7748
L153.293 85.7748
L153.293 73.0556
L153.879 73.0556
L153.879 75.6188
L154.464 75.6188
L154.464 76.0444
L155.05 76.0444
L155.05 77.0697
L155.636 77.0697
L155.636 78.1143
L156.221 78.1143
L156.221 72.1561
L156.807 72.1561
L156.807 68.8675
L157.393 68.8675
L157.393 72.2625
L157.978 72.2625
L157.978 74.255
L158.564 74.255
L158.564 75.6382
L159.15 75.6382
L159.15 77.65
L159.735 77.65
L159.735 78.4431
L160.321 78.4431
L160.321 80.7645
L161.492 80.8419
L161.492 76.2862
L162.078 76.2862
L162.078 78.1336
L163.249 78.1917
L163.249 76.5764
L163.835 76.5764
L163.835 65.0566
L164.421 65.0566
L164.421 57.3864
L165.006 57.3864
L165.006 62.0582
L165.592 62.0582
L165.592 67.9873
L166.178 67.9873
L166.178 72.6204
L166.763 72.6204
L166.763 77.4566
L167.349 77.4566
L167.349 81.7995
L167.935 81.7995
L167.935 82.8634
L168.52 82.8634
L168.52 84.3046
L169.106 84.3046
L169.106 83.9177
L169.692 83.9177
L169.692 85.7845
L170.277 85.7845
L170.277 85.4943
L170.863 85.4943
L170.863 85.7458
L171.449 85.7458
L171.449 86.5776
L172.034 86.5776
L172.034 87.3127
L172.62 87.3127
L172.62 87.6029
L173.206 87.6029
L173.206 89.5664
L173.791 89.5664
L173.791 85.562
L174.377 85.562
L174.377 87.5739
L174.963 87.5739
L174.963 88.9183
L175.548 88.9183
L175.548 85.7941
L176.134 85.7941
L176.134 101.744
L176.719 101.744
L176.719 75.348
L177.305 75.348
L177.305 85.059
L177.891 85.059
L177.891 86.7517
L178.476 86.7517
L178.476 87.2547
L179.062 87.2547
L179.062 86.9451
L179.648 86.9451
L179.648 79.1299
L180.233 79.1299
L180.233 80.1358
L180.819 80.1358
L180.819 81.4512
L181.405 81.4512
L181.405 83.347
L181.99 83.347
L181.99 83.0955
L182.576 83.0955
L182.576 83.9564
L183.162 83.9564
L183.162 84.5754
L183.747 84.5754
L183.747 86.6937
L184.333 86.6937
L184.333 84.3723
L184.919 84.3723
L184.919 83.1536
L185.504 83.1536
L185.504 62.0678
L186.09 62.0678
L186.09 69.2737
L186.676 69.2737
L186.676 70.1346
L187.261 70.1346
L187.261 76.3539
L187.847 76.3539
L187.847 80.3389
L188.433 80.3389
L188.433 76.7021
L189.018 76.7021
L189.018 78.5012
L189.604 78.5012
L189.604 79.2846
L190.19 79.2846
L190.19 81.4222
L190.775 81.4222
L190.775 80.2132
L191.361 80.2132
L191.361 83.2116
L191.947 83.2116
L191.947 85.1751
L192.532 85.1751
L192.532 88.2993
L193.118 88.2993
L193.118 87.0032
L193.704 87.0032
L193.704 88.2703
L194.289 88.2703
L194.289 87.893
L194.875 87.893
L194.875 88.5991
L195.461 88.5991
L195.461 90.3111
L196.046 90.3111
L196.046 89.9919
L196.632 89.9919
L196.632 90.2434
L197.218 90.2434
L197.218 91.2977
L197.803 91.2977
L197.803 92.1586
L198.389 92.1586
L198.389 91.7136
L198.975 91.7136
L198.975 92.7486
L199.56 92.7486
L199.56 92.1682
L200.732 92.1682
L200.732 93.0678
L201.317 93.0678
L201.317 93.7932
L202.489 93.7932
L202.489 93.1645
L203.074 93.1645
L203.074 87.2353
L203.66 87.2353
L203.66 79.952
L204.246 79.952
L204.246 81.6447
L204.831 81.6447
L204.831 81.9445
L205.417 81.9445
L205.417 83.0569
L206.003 83.0569
L206.003 77.3695
L206.588 77.3695
L206.588 79.1202
L207.174 79.1202
L207.174 74.4485
L207.76 74.4485
L207.76 76.2088
L208.345 76.2088
L208.345 83.1149
L208.931 83.1149
L208.931 81.9349
L209.516 81.9349
L209.516 82.4668
L210.102 82.4668
L210.102 82.6023
L210.688 82.6023
L210.688 89.8662
L211.273 89.8662
L211.273 83.937
L211.859 83.937
L211.859 88.0962
L212.445 88.0962
L212.445 84.8849
L213.03 84.8849
L213.03 85.2041
L213.616 85.2041
L213.616 86.3745
L214.787 86.3164
L214.787 90.7077
L215.373 90.7077
L215.373 81.6157
L215.959 81.6157
L215.959 82.2057
L216.544 82.2057
L216.544 80.7161
L217.13 80.7161
L217.13 80.5711
L217.716 80.5711
L217.716 84.1111
L218.301 84.1111
L218.301 90.4852
L218.887 90.4852
L218.887 89.4213
L219.473 89.4213
L219.473 87.5158
L220.058 87.5158
L220.058 89.7598
L220.644 89.7598
L220.644 91.7233
L221.23 91.7233
L221.23 92.4971
L221.815 92.4971
L221.815 92.352
L222.401 92.352
L222.401 103.388
L222.987 103.388
L222.987 85.1171
L223.572 85.1171
L223.572 88.9183
L224.158 88.9183
L224.158 90.727
L224.744 90.727
L224.744 85.8909
L225.329 85.8909
L225.329 90.5046
L225.915 90.5046
L225.915 91.5395
L226.501 91.5395
L226.501 91.172
L227.086 91.172
L227.086 80.1938
L228.258 80.1842
L228.258 83.2213
L228.843 83.2213
L228.843 85.6104
L229.429 85.6104
L229.429 82.8441
L230.015 82.8441
L230.015 85.2138
L230.6 85.2138
L230.6 84.7302
L231.186 84.7302
L231.186 86.3164
L231.772 86.3164
L231.772 83.9757
L232.357 83.9757
L232.357 82.138
L232.943 82.138
L232.943 77.9305
L234.114 77.9208
L234.114 78.9074
L234.7 78.9074
L234.7 81.7801
L235.286 81.7801
L235.286 83.0085
L235.871 83.0085
L235.871 81.4416
L236.457 81.4416
L236.457 83.4341
L237.043 83.4341
L237.043 86.9548
L237.628 86.9548
L237.628 85.9295
L238.214 85.9295
L238.214 86.771
L238.8 86.771
L238.8 88.1252
L239.971 88.1735
L239.971 83.3954
L240.557 83.3954
L240.557 82.9988
L241.142 82.9988
L241.142 85.504
L241.728 85.504
L241.728 84.8172
L242.313 84.8172
L242.313 84.4787
L242.899 84.4787
L242.899 85.9973
L243.485 85.9973
L243.485 88.4444
L244.07 88.4444
L244.07 109.163
L244.656 109.163
L244.656 83.9467
L245.242 83.9467
L245.242 81.6931
L245.827 81.6931
L245.827 82.3895
L246.413 82.3895
L246.413 85.3105
L246.999 85.3105
L246.999 81.0257
L247.584 81.0257
L247.584 83.908
L248.17 83.908
L248.17 86.3842
L248.756 86.3842
L248.756 85.4943
L249.341 85.4943
L249.341 85.9489
L250.513 86.0166
L250.513 82.3218
L251.098 82.3218
L251.098 77.3115
L251.684 77.3115
L251.684 80.1938
L252.27 80.1938
L252.27 80.958
L252.855 80.958
L252.855 80.0971
L253.441 80.0971
L253.441 77.8531
L254.027 77.8531
L254.027 79.5651
L254.612 79.5651
L254.612 82.7764
L255.198 82.7764
L255.198 91.0366
L255.784 91.0366
L255.784 82.5926
L256.369 82.5926
L256.369 85.7264
L256.955 85.7264
L256.955 84.4884
L257.541 84.4884
L257.541 86.2391
L258.126 86.2391
L258.126 92.0328
L258.712 92.0328
L258.712 88.0768
L259.298 88.0768
L259.298 86.0359
L259.883 86.0359
L259.883 87.6029
L260.469 87.6029
L260.469 89.3923
L261.055 89.3923
L261.055 85.9199
L261.64 85.9199
L261.64 88.6862
L262.226 88.6862
L262.226 86.3842
L262.812 86.3842
L262.812 85.3686
L263.397 85.3686
L263.397 86.3358
L264.569 86.3358
L264.569 89.1118
L265.154 89.1118
L265.154 86.1617
L265.74 86.1617
L265.74 85.0397
L266.326 85.0397
L266.326 84.6238
L266.911 84.6238
L266.911 87.5352
L267.497 87.5352
L267.497 85.4846
L268.083 85.4846
L268.083 89.6921
L268.668 89.6921
L268.668 96.869
L269.254 96.869
L269.254 102.247
L269.84 102.247
L269.84 87.3417
L270.425 87.3417
L270.425 84.4207
L271.011 84.4207
L271.011 83.3664
L271.597 83.3664
L271.597 86.4132
L272.182 86.4132
L272.182 78.9751
L273.353 79.0525
L273.353 75.3577
L273.939 75.3577
L273.939 79.0332
L274.525 79.0332
L274.525 79.894
L275.11 79.894
L275.11 81.1224
L275.696 81.1224
L275.696 84.3336
L276.282 84.3336
L276.282 80.2809
L276.867 80.2809
L276.867 83.8984
L277.453 83.8984
L277.453 86.9161
L278.039 86.9161
L278.039 84.4497
L278.624 84.4497
L278.624 82.6313
L279.21 82.6313
L279.21 88.8893
L279.796 88.8893
L279.796 85.0397
L280.381 85.0397
L280.381 84.7302
L280.967 84.7302
L280.967 88.5701
L281.553 88.5701
L281.553 94.625
L282.138 94.625
L282.138 97.9426
L282.724 97.9426
L282.724 85.4556
L283.31 85.4556
L283.31 85.9295
L283.895 85.9295
L283.895 86.0456
L284.481 86.0456
L284.481 86.2391
L285.067 86.2391
L285.067 83.9661
L285.652 83.9661
L285.652 91.5202
L286.238 91.5202
L286.238 86.5389
L286.824 86.5389
L286.824 87.2256
L287.409 87.2256
L287.409 88.7636
L288.581 88.8603
L288.581 88.0575
L289.166 88.0575
L289.166 90.7851
L289.752 90.7851
L289.752 89.1504
L290.338 89.1504
L290.338 83.6856
L290.923 83.6856
L290.923 79.2653
L291.509 79.2653
L291.509 81.2385
L292.095 81.2385
L292.095 79.7005
L292.68 79.7005
L292.68 103.63
L293.266 103.63
L293.266 99.3645
L293.852 99.3645
L293.852 73.8971
L294.437 73.8971
L294.437 78.6463
L295.023 78.6463
L295.023 78.5108
L295.609 78.5108
L295.609 79.333
L296.194 79.333
L296.194 81.9252
L296.78 81.9252
L296.78 80.6484
L297.366 80.6484
L297.366 90.669
L297.951 90.669
L297.951 82.6506
L298.537 82.6506
L298.537 87.1193
L299.123 87.1193
L299.123 86.9161
L299.708 86.9161
L299.708 85.5717
L300.294 85.5717
L300.294 88.5798
L300.88 88.5798
L300.88 87.5835
L301.465 87.5835
L301.465 88.5314
L302.051 88.5314
L302.051 87.2643
L303.222 87.2643
L303.222 89.4019
L303.808 89.4019
L303.808 88.6475
L304.394 88.6475
L304.394 90.64
L304.979 90.64
L304.979 80.8709
L305.565 80.8709
L305.565 86.3842
L306.15 86.3842
L306.15 79.952
L306.736 79.952
L306.736 81.074
L307.322 81.074
L307.322 87.4868
L307.907 87.4868
L307.907 83.0085
L308.493 83.0085
L308.493 85.1267
L309.079 85.1267
L309.079 84.6625
L309.664 84.6625
L309.664 87.1773
L310.25 87.1773
L310.25 89.8082
L310.836 89.8082
L310.836 86.5389
L311.421 86.5389
L311.421 85.6974
L312.007 85.6974
L312.007 89.1311
L312.593 89.1311
L312.593 88.6281
L313.178 88.6281
L313.178 87.4481
L313.764 87.4481
L313.764 88.1639
L314.35 88.1639
L314.35 90.4756
L314.935 90.4756
L314.935 88.5604
L315.521 88.5604
L315.521 90.7367
L316.107 90.7367
L316.107 93.1064
L316.692 93.1064
L316.692 79.2846
L317.278 79.2846
L317.278 75.7155
L317.864 75.7155
L317.864 78.7913
L318.449 78.7913
L318.449 69.5446
L319.035 69.5446
L319.035 67.7649
L319.621 67.7649
L319.621 71.5951
L320.206 71.5951
L320.206 69.4092
L320.792 69.4092
L320.792 73.752
L321.378 73.752
L321.378 77.7854
L321.963 77.7854
L321.963 76.2378
L322.549 76.2378
L322.549 81.4803
L323.135 81.4803
L323.135 77.8628
L323.72 77.8628
L323.72 82.5055
L324.306 82.5055
L324.306 79.6232
L325.477 79.5555
L325.477 88.8216
L326.063 88.8216
L326.063 82.757
L326.649 82.757
L326.649 85.7941
L327.234 85.7941
L327.234 84.2272
L327.82 84.2272
L327.82 82.9118
L328.406 82.9118
L328.406 83.4341
L328.991 83.4341
L328.991 89.1891
L329.577 89.1891
L329.577 88.1252
L330.163 88.1252
L330.163 86.3164
L330.748 86.3164
L330.748 87.893
L331.92 87.9124
L331.92 88.3186
L332.505 88.3186
L332.505 93.0968
L333.091 93.0968
L333.091 89.7211
L333.677 89.7211
L333.677 88.7829
L334.262 88.7829
L334.262 101.86
L334.848 101.86
L334.848 105.12
L335.434 105.12
L335.434 88.6572
L336.605 88.6088
L336.605 94.4316
L337.19 94.4316
L337.19 93.5417
L337.776 93.5417
L337.776 93.2902
L338.362 93.2902
L338.362 92.6228
L338.947 92.6228
L338.947 93.0581
L339.533 93.0581
L339.533 94.5766
L340.119 94.5766
L340.119 90.4852
L340.704 90.4852
L340.704 90.7174
L341.29 90.7174
L341.29 93.2805
L341.876 93.2805
L341.876 90.5626
L342.461 90.5626
L342.461 90.1757
L343.047 90.1757
L343.047 93.7545
L343.633 93.7545
L343.633 93.2419
L344.218 93.2419
L344.218 91.5492
L344.804 91.5492
L344.804 93.7932
L345.39 93.7932
L345.39 94.0737
L345.975 94.0737
L345.975 93.4256
L346.561 93.4256
L346.561 95.4278
L347.147 95.4278
L347.147 97.2656
L347.732 97.2656
L347.732 93.4353
L348.318 93.4353
L348.318 87.7383
L348.904 87.7383
L348.904 87.5739
L349.489 87.5739
L349.489 91.762
L350.075 91.762
L350.075 89.4696
L350.661 89.4696
L350.661 87.1193
L351.246 87.1193
L351.246 91.4331
L351.832 91.4331
L351.832 90.5626
L352.418 90.5626
L352.418 92.6132
L353.003 92.6132
L353.003 91.7426
L353.589 91.7426
L353.589 90.3982
L354.175 90.3982
L354.175 89.8759
L354.76 89.8759
L354.76 105.719
L355.346 105.719
L355.346 111.6
L355.932 111.6
L355.932 94.9248
L356.517 94.9248
L356.517 99.142
L357.103 99.142
L357.103 79.4781
L357.689 79.4781
L357.689 89.7114
L358.274 89.7114
L358.274 83.8306
L358.86 83.8306
L358.86 85.4459
L359.446 85.4459
L359.446 85.1654
L360.031 85.1654
L360.031 81.1901
L360.617 81.1901
L360.617 85.1558
L361.203 85.1558
L361.203 86.7033
L361.788 86.7033
L361.788 88.1735
L362.374 88.1735
L362.374 85.6974
L362.96 85.6974
L362.96 85.5136
L363.545 85.5136
L363.545 87.2643
L364.131 87.2643
L364.131 99.9738
L364.717 99.9738
L364.717 92.6035
L365.302 92.6035
L365.302 84.8656
L365.888 84.8656
L365.888 89.7405
L366.474 89.7405
L366.474 95.0989
L367.059 95.0989
L367.059 87.864
L367.645 87.864
L367.645 89.2762
L368.231 89.2762
L368.231 90.4949
L368.816 90.4949
L368.816 89.3923
L369.402 89.3923
L369.402 87.7286
L369.987 87.7286
L369.987 93.7738
L370.573 93.7738
L370.573 92.6905
L371.159 92.6905
L371.159 83.26
L371.744 83.26
L371.744 87.4384
L372.33 87.4384
L372.33 92.5261
L372.916 92.5261
L372.916 89.0924
L373.501 89.0924
L373.501 88.8796
L374.087 88.8796
L374.087 87.9607
L374.673 87.9607
L374.673 91.3171
L375.258 91.3171
L375.258 92.2166
L375.844 92.2166
L375.844 94.5283
L376.43 94.5283
L376.43 92.4294
L377.015 92.4294
L377.015 90.727
L377.601 90.727
L377.601 90.1564
L378.187 90.1564
L378.187 90.8625
L378.772 90.8625
L378.772 89.2955
L379.358 89.2955
L379.358 91.8877
L379.944 91.8877
L379.944 90.9882
L380.529 90.9882
L380.529 87.5545
L381.115 87.5545
L381.115 87.7189
L381.701 87.7189
L381.701 91.4331
L382.286 91.4331
L382.286 85.4749
L382.872 85.4749
L382.872 88.5314
L383.458 88.5314
L383.458 98.8518
L384.043 98.8518
L384.043 93.6771
L384.629 93.6771
L384.629 90.5433
L385.8 90.5723
L385.8 91.8877
L386.386 91.8877
L386.386 93.7642
L386.972 93.7642
L386.972 92.5938
L387.557 92.5938
L387.557 91.7813
L388.143 91.7813
L388.143 88.0188
L388.729 88.0188
L388.729 90.3788
L389.314 90.3788
L389.314 87.1386
L389.9 87.1386
L389.9 87.9317
L390.486 87.9317
L390.486 88.2026
L391.071 88.2026
L391.071 87.274
L391.657 87.274
L391.657 88.1832
L392.243 88.1832
L392.243 88.3573
L392.828 88.3573
L392.828 92.2746
L393.414 92.2746
L393.414 90.1274
L394 90.1274
L394 93.2999
L394.585 93.2999
L394.585 89.7695
L395.171 89.7695
L395.171 87.4675
L395.757 87.4675
L395.757 88.0188
L396.342 88.0188
L396.342 87.1289
L396.928 87.1289
L396.928 87.1289" style="fill:none;stroke:#0000ff;"/>
   </g>
   <g id="matplotlib.axis_1">
    <g id="xtick_1">
     <g id="line2d_23">
      <defs>
       <path d="
M0 0
L0 -4" id="m0012dd4eef" style="stroke:#000000;stroke-linecap:butt;stroke-width:0.5;"/>
      </defs>
      <g>
       <use style="stroke:#000000;stroke-linecap:butt;stroke-width:0.5;" x="46.1171875" xlink:href="#m0012dd4eef" y="111.6"/>
      </g>
     </g>
     <g id="line2d_24">
      <defs>
       <path d="
M0 0
L0 4" id="m476344969c" style="stroke:#000000;stroke-linecap:butt;stroke-width:0.5;"/>
      </defs>
      <g>
       <use style="stroke:#000000;stroke-linecap:butt;stroke-width:0.5;" x="46.1171875" xlink:href="#m476344969c" y="32.0"/>
      </g>
     </g>
     <g id="text_1">
      <!-- 0 -->
      <defs>
       <path d="
M31.7812 66.4062
Q24.1719 66.4062 20.3281 58.9062
Q16.5 51.4219 16.5 36.375
Q16.5 21.3906 20.3281 13.8906
Q24.1719 6.39062 31.7812 6.39062
Q39.4531 6.39062 43.2812 13.8906
Q47.125 21.3906 47.125 36.375
Q47.125 51.4219 43.2812 58.9062
Q39.4531 66.4062 31.7812 66.4062
M31.7812 74.2188
Q44.0469 74.2188 50.5156 64.5156
Q56.9844 54.8281 56.9844 36.375
Q56.9844 17.9688 50.5156 8.26562
Q44.0469 -1.42188 31.7812 -1.42188
Q19.5312 -1.42188 13.0625 8.26562
Q6.59375 17.9688 6.59375 36.375
Q6.59375 54.8281 13.0625 64.5156
Q19.5312 74.2188 31.7812 74.2188" id="DejaVuSans-30"/>
      </defs>
      <g transform="translate(43.59765625 123.021875)scale(0.1 -0.1)">
       <use xlink:href="#DejaVuSans-30"/>
      </g>
     </g>
    </g>
    <g id="xtick_2">
     <g id="line2d_25">
      <g>
       <use style="stroke:#000000;stroke-linecap:butt;stroke-width:0.5;" x="135.073242188" xlink:href="#m0012dd4eef" y="111.6"/>
      </g>
     </g>
     <g id="line2d_26">
      <g>
       <use style="stroke:#000000;stroke-linecap:butt;stroke-width:0.5;" x="135.073242188" xlink:href="#m476344969c" y="32.0"/>
      </g>
     </g>
     <g id="text_2">
      <!-- 500 -->
      <defs>
       <path d="
M10.7969 72.9062
L49.5156 72.9062
L49.5156 64.5938
L19.8281 64.5938
L19.8281 46.7344
Q21.9688 47.4688 24.1094 47.8281
Q26.2656 48.1875 28.4219 48.1875
Q40.625 48.1875 47.75 41.5
Q54.8906 34.8125 54.8906 23.3906
Q54.8906 11.625 47.5625 5.09375
Q40.2344 -1.42188 26.9062 -1.42188
Q22.3125 -1.42188 17.5469 -0.640625
Q12.7969 0.140625 7.71875 1.70312
L7.71875 11.625
Q12.1094 9.23438 16.7969 8.0625
Q21.4844 6.89062 26.7031 6.89062
Q35.1562 6.89062 40.0781 11.3281
Q45.0156 15.7656 45.0156 23.3906
Q45.0156 31 40.0781 35.4375
Q35.1562 39.8906 26.7031 39.8906
Q22.75 39.8906 18.8125 39.0156
Q14.8906 38.1406 10.7969 36.2812
z
" id="DejaVuSans-35"/>
      </defs>
      <g transform="translate(126.247460938 123.021875)scale(0.1 -0.1)">
       <use xlink:href="#DejaVuSans-35"/>
       <use x="63.623046875" xlink:href="#DejaVuSans-30"/>
       <use x="127.24609375" xlink:href="#DejaVuSans-30"/>
      </g>
     </g>
    </g>
    <g id="xtick_3">
     <g id="line2d_27">
      <g>
       <use style="stroke:#000000;stroke-linecap:butt;stroke-width:0.5;" x="224.029296875" xlink:href="#m0012dd4eef" y="111.6"/>
      </g>
     </g>
     <g id="line2d_28">
      <g>
       <use style="stroke:#000000;stroke-linecap:butt;stroke-width:0.5;" x="224.029296875" xlink:href="#m476344969c" y="32.0"/>
      </g>
     </g>
     <g id="text_3">
      <!-- 1000 -->
      <defs>
       <path d="
M12.4062 8.29688
L28.5156 8.29688
L28.5156 63.9219
L10.9844 60.4062
L10.9844 69.3906
L28.4219 72.9062
L38.2812 72.9062
L38.2812 8.29688
L54.3906 8.29688
L54.3906 0
L12.4062 0
z
" id="DejaVuSans-31"/>
      </defs>
      <g transform="translate(212.185546875 123.021875)scale(0.1 -0.1)">
       <use xlink:href="#DejaVuSans-31"/>
       <use x="63.623046875" xlink:href="#DejaVuSans-30"/>
       <use x="127.24609375" xlink:href="#DejaVuSans-30"/>
       <use x="190.869140625" xlink:href="#DejaVuSans-30"/>
      </g>
     </g>
    </g>
    <g id="xtick_4">
     <g id="line2d_29">
      <g>
       <use style="stroke:#000000;stroke-linecap:butt;stroke-width:0.5;" x="312.985351563" xlink:href="#m0012dd4eef" y="111.6"/>
      </g>
     </g>
     <g id="line2d_30">
      <g>
       <use style="stroke:#000000;stroke-linecap:butt;stroke-width:0.5;" x="312.985351563" xlink:href="#m476344969c" y="32.0"/>
      </g>
     </g>
     <g id="text_4">
      <!-- 1500 -->
      <g transform="translate(301.141601563 123.021875)scale(0.1 -0.1)">
       <use xlink:href="#DejaVuSans-31"/>
       <use x="63.623046875" xlink:href="#DejaVuSans-35"/>
       <use x="127.24609375" xlink:href="#DejaVuSans-30"/>
       <use x="190.869140625" xlink:href="#DejaVuSans-30"/>
      </g>
     </g>
    </g>
    <g id="xtick_5">
     <g id="line2d_31">
      <g>
       <use style="stroke:#000000;stroke-linecap:butt;stroke-width:0.5;" x="401.94140625" xlink:href="#m0012dd4eef" y="111.6"/>
      </g>
     </g>
     <g id="line2d_32">
      <g>
       <use style="stroke:#000000;stroke-linecap:butt;stroke-width:0.5;" x="401.94140625" xlink:href="#m476344969c" y="32.0"/>
      </g>
     </g>
     <g id="text_5">
      <!-- 2000 -->
      <defs>
       <path d="
M19.1875 8.29688
L53.6094 8.29688
L53.6094 0
L7.32812 0
L7.32812 8.29688
Q12.9375 14.1094 22.625 23.8906
Q32.3281 33.6875 34.8125 36.5312
Q39.5469 41.8438 41.4219 45.5312
Q43.3125 49.2188 43.3125 52.7812
Q43.3125 58.5938 39.2344 62.25
Q35.1562 65.9219 28.6094 65.9219
Q23.9688 65.9219 18.8125 64.3125
Q13.6719 62.7031 7.8125 59.4219
L7.8125 69.3906
Q13.7656 71.7812 18.9375 73
Q24.125 74.2188 28.4219 74.2188
Q39.75 74.2188 46.4844 68.5469
Q53.2188 62.8906 53.2188 53.4219
Q53.2188 48.9219 51.5312 44.8906
Q49.8594 40.875 45.4062 35.4062
Q44.1875 33.9844 37.6406 27.2188
Q31.1094 20.4531 19.1875 8.29688" id="DejaVuSans-32"/>
      </defs>
      <g transform="translate(389.91484375 123.021875)scale(0.1 -0.1)">
       <use xlink:href="#DejaVuSans-32"/>
       <use x="63.623046875" xlink:href="#DejaVuSans-30"/>
       <use x="127.24609375" xlink:href="#DejaVuSans-30"/>
       <use x="190.869140625" xlink:href="#DejaVuSans-30"/>
      </g>
     </g>
    </g>
    <g id="text_6">
     <!-- Time -->
     <defs>
      <path d="
M52 44.1875
Q55.375 50.25 60.0625 53.125
Q64.75 56 71.0938 56
Q79.6406 56 84.2812 50.0156
Q88.9219 44.0469 88.9219 33.0156
L88.9219 0
L79.8906 0
L79.8906 32.7188
Q79.8906 40.5781 77.0938 44.375
Q74.3125 48.1875 68.6094 48.1875
Q61.625 48.1875 57.5625 43.5469
Q53.5156 38.9219 53.5156 30.9062
L53.5156 0
L44.4844 0
L44.4844 32.7188
Q44.4844 40.625 41.7031 44.4062
Q38.9219 48.1875 33.1094 48.1875
Q26.2188 48.1875 22.1562 43.5312
Q18.1094 38.875 18.1094 30.9062
L18.1094 0
L9.07812 0
L9.07812 54.6875
L18.1094 54.6875
L18.1094 46.1875
Q21.1875 51.2188 25.4844 53.6094
Q29.7812 56 35.6875 56
Q41.6562 56 45.8281 52.9688
Q50 49.9531 52 44.1875" id="DejaVuSans-6d"/>
      <path d="
M9.42188 54.6875
L18.4062 54.6875
L18.4062 0
L9.42188 0
z

M9.42188 75.9844
L18.4062 75.9844
L18.4062 64.5938
L9.42188 64.5938
z
" id="DejaVuSans-69"/>
      <path d="
M56.2031 29.5938
L56.2031 25.2031
L14.8906 25.2031
Q15.4844 15.9219 20.4844 11.0625
Q25.4844 6.20312 34.4219 6.20312
Q39.5938 6.20312 44.4531 7.46875
Q49.3125 8.73438 54.1094 11.2812
L54.1094 2.78125
Q49.2656 0.734375 44.1875 -0.34375
Q39.1094 -1.42188 33.8906 -1.42188
Q20.7969 -1.42188 13.1562 6.1875
Q5.51562 13.8125 5.51562 26.8125
Q5.51562 40.2344 12.7656 48.1094
Q20.0156 56 32.3281 56
Q43.3594 56 49.7812 48.8906
Q56.2031 41.7969 56.2031 29.5938
M47.2188 32.2344
Q47.125 39.5938 43.0938 43.9844
Q39.0625 48.3906 32.4219 48.3906
Q24.9062 48.3906 20.3906 44.1406
Q15.875 39.8906 15.1875 32.1719
z
" id="DejaVuSans-65"/>
      <path d="
M-0.296875 72.9062
L61.375 72.9062
L61.375 64.5938
L35.5 64.5938
L35.5 0
L25.5938 0
L25.5938 64.5938
L-0.296875 64.5938
z
" id="DejaVuSans-54"/>
     </defs>
     <g transform="translate(212.047265625 135.7625)scale(0.1 -0.1)">
      <use xlink:href="#DejaVuSans-54"/>
      <use x="57.958984375" xlink:href="#DejaVuSans-69"/>
      <use x="85.7421875" xlink:href="#DejaVuSans-6d"/>
      <use x="183.154296875" xlink:href="#DejaVuSans-65"/>
     </g>
    </g>
   </g>
   <g id="matplotlib.axis_2">
    <g id="ytick_1">
     <g id="line2d_33">
      <defs>
       <path d="
M0 0
L4 0" id="me8a85f7bf6" style="stroke:#000000;stroke-linecap:butt;stroke-width:0.5;"/>
      </defs>
      <g>
       <use style="stroke:#000000;stroke-linecap:butt;stroke-width:0.5;" x="46.1171875" xlink:href="#me8a85f7bf6" y="111.6"/>
      </g>
     </g>
     <g id="line2d_34">
      <defs>
       <path d="
M0 0
L-4 0" id="m1a32005dea" style="stroke:#000000;stroke-linecap:butt;stroke-width:0.5;"/>
      </defs>
      <g>
       <use style="stroke:#000000;stroke-linecap:butt;stroke-width:0.5;" x="401.94140625" xlink:href="#m1a32005dea" y="111.6"/>
      </g>
     </g>
     <g id="text_7">
      <!-- 0 -->
      <g transform="translate(37.078125 115.23984375)scale(0.1 -0.1)">
       <use xlink:href="#DejaVuSans-30"/>
      </g>
     </g>
    </g>
    <g id="ytick_2">
     <g id="line2d_35">
      <g>
       <use style="stroke:#000000;stroke-linecap:butt;stroke-width:0.5;" x="46.1171875" xlink:href="#me8a85f7bf6" y="95.68"/>
      </g>
     </g>
     <g id="line2d_36">
      <g>
       <use style="stroke:#000000;stroke-linecap:butt;stroke-width:0.5;" x="401.94140625" xlink:href="#m1a32005dea" y="95.68"/>
      </g>
     </g>
     <g id="text_8">
      <!-- 500 -->
      <g transform="translate(24.465625 99.31984375)scale(0.1 -0.1)">
       <use xlink:href="#DejaVuSans-35"/>
       <use x="63.623046875" xlink:href="#DejaVuSans-30"/>
       <use x="127.24609375" xlink:href="#DejaVuSans-30"/>
      </g>
     </g>
    </g>
    <g id="ytick_3">
     <g id="line2d_37">
      <g>
       <use style="stroke:#000000;stroke-linecap:butt;stroke-width:0.5;" x="46.1171875" xlink:href="#me8a85f7bf6" y="79.76"/>
      </g>
     </g>
     <g id="line2d_38">
      <g>
       <use style="stroke:#000000;stroke-linecap:butt;stroke-width:0.5;" x="401.94140625" xlink:href="#m1a32005dea" y="79.76"/>
      </g>
     </g>
     <g id="text_9">
      <!-- 1000 -->
      <g transform="translate(18.4296875 83.39984375)scale(0.1 -0.1)">
       <use xlink:href="#DejaVuSans-31"/>
       <use x="63.623046875" xlink:href="#DejaVuSans-30"/>
       <use x="127.24609375" xlink:href="#DejaVuSans-30"/>
       <use x="190.869140625" xlink:href="#DejaVuSans-30"/>
      </g>
     </g>
    </g>
    <g id="ytick_4">
     <g id="line2d_39">
      <g>
       <use style="stroke:#000000;stroke-linecap:butt;stroke-width:0.5;" x="46.1171875" xlink:href="#me8a85f7bf6" y="63.84"/>
      </g>
     </g>
     <g id="line2d_40">
      <g>
       <use style="stroke:#000000;stroke-linecap:butt;stroke-width:0.5;" x="401.94140625" xlink:href="#m1a32005dea" y="63.84"/>
      </g>
     </g>
     <g id="text_10">
      <!-- 1500 -->
      <g transform="translate(18.4296875 67.47984375)scale(0.1 -0.1)">
       <use xlink:href="#DejaVuSans-31"/>
       <use x="63.623046875" xlink:href="#DejaVuSans-35"/>
       <use x="127.24609375" xlink:href="#DejaVuSans-30"/>
       <use x="190.869140625" xlink:href="#DejaVuSans-30"/>
      </g>
     </g>
    </g>
    <g id="ytick_5">
     <g id="line2d_41">
      <g>
       <use style="stroke:#000000;stroke-linecap:butt;stroke-width:0.5;" x="46.1171875" xlink:href="#me8a85f7bf6" y="47.92"/>
      </g>
     </g>
     <g id="line2d_42">
      <g>
       <use style="stroke:#000000;stroke-linecap:butt;stroke-width:0.5;" x="401.94140625" xlink:href="#m1a32005dea" y="47.92"/>
      </g>
     </g>
     <g id="text_11">
      <!-- 2000 -->
      <g transform="translate(18.0640625 51.55984375)scale(0.1 -0.1)">
       <use xlink:href="#DejaVuSans-32"/>
       <use x="63.623046875" xlink:href="#DejaVuSans-30"/>
       <use x="127.24609375" xlink:href="#DejaVuSans-30"/>
       <use x="190.869140625" xlink:href="#DejaVuSans-30"/>
      </g>
     </g>
    </g>
    <g id="ytick_6">
     <g id="line2d_43">
      <g>
       <use style="stroke:#000000;stroke-linecap:butt;stroke-width:0.5;" x="46.1171875" xlink:href="#me8a85f7bf6" y="32.0"/>
      </g>
     </g>
     <g id="line2d_44">
      <g>
       <use style="stroke:#000000;stroke-linecap:butt;stroke-width:0.5;" x="401.94140625" xlink:href="#m1a32005dea" y="32.0"/>
      </g>
     </g>
     <g id="text_12">
      <!-- 2500 -->
      <g transform="translate(18.0640625 35.63984375)scale(0.1 -0.1)">
       <use xlink:href="#DejaVuSans-32"/>
       <use x="63.623046875" xlink:href="#DejaVuSans-35"/>
       <use x="127.24609375" xlink:href="#DejaVuSans-30"/>
       <use x="190.869140625" xlink:href="#DejaVuSans-30"/>
      </g>
     </g>
    </g>
   </g>
   <g id="patch_3">
    <path d="
M46.1172 32
L401.941 32" style="fill:none;stroke:#000000;"/>
   </g>
   <g id="patch_4">
    <path d="
M401.941 111.6
L401.941 32" style="fill:none;stroke:#000000;"/>
   </g>
   <g id="patch_5">
    <path d="
M46.1172 111.6
L401.941 111.6" style="fill:none;stroke:#000000;"/>
   </g>
   <g id="patch_6">
    <path d="
M46.1172 111.6
L46.1172 32" style="fill:none;stroke:#000000;"/>
   </g>
   <g id="text_13">
    <!-- OLTP -->
    <defs>
     <path d="
M39.4062 66.2188
Q28.6562 66.2188 22.3281 58.2031
Q16.0156 50.2031 16.0156 36.375
Q16.0156 22.6094 22.3281 14.5938
Q28.6562 6.59375 39.4062 6.59375
Q50.1406 6.59375 56.4219 14.5938
Q62.7031 22.6094 62.7031 36.375
Q62.7031 50.2031 56.4219 58.2031
Q50.1406 66.2188 39.4062 66.2188
M39.4062 74.2188
Q54.7344 74.2188 63.9062 63.9375
Q73.0938 53.6562 73.0938 36.375
Q73.0938 19.1406 63.9062 8.85938
Q54.7344 -1.42188 39.4062 -1.42188
Q24.0312 -1.42188 14.8125 8.82812
Q5.60938 19.0938 5.60938 36.375
Q5.60938 53.6562 14.8125 63.9375
Q24.0312 74.2188 39.4062 74.2188" id="DejaVuSans-4f"/>
     <path d="
M19.6719 64.7969
L19.6719 37.4062
L32.0781 37.4062
Q38.9688 37.4062 42.7188 40.9688
Q46.4844 44.5312 46.4844 51.125
Q46.4844 57.6719 42.7188 61.2344
Q38.9688 64.7969 32.0781 64.7969
z

M9.8125 72.9062
L32.0781 72.9062
Q44.3438 72.9062 50.6094 67.3594
Q56.8906 61.8125 56.8906 51.125
Q56.8906 40.3281 50.6094 34.8125
Q44.3438 29.2969 32.0781 29.2969
L19.6719 29.2969
L19.6719 0
L9.8125 0
z
" id="DejaVuSans-50"/>
     <path d="
M9.8125 72.9062
L19.6719 72.9062
L19.6719 8.29688
L55.1719 8.29688
L55.1719 0
L9.8125 0
z
" id="DejaVuSans-4c"/>
    </defs>
    <g transform="translate(210.046484375 27.0)scale(0.12 -0.12)">
     <use xlink:href="#DejaVuSans-4f"/>
     <use x="78.7109375" xlink:href="#DejaVuSans-4c"/>
     <use x="120.673828125" xlink:href="#DejaVuSans-54"/>
     <use x="181.7578125" xlink:href="#DejaVuSans-50"/>
    </g>
   </g>
  </g>
  <g id="axes_2">
   <g id="patch_7">
    <path d="
M46.1172 246.6
L401.941 246.6
L401.941 167
L46.1172 167
z
" style="fill:#ffffff;"/>
   </g>
   <g id="line2d_45">
    <path clip-path="url(#pe9bd9c4693)" d="
M56.7921 246.6
L56.7921 167" style="fill:none;stroke:#00ffff;stroke-dasharray:6.000000,6.000000;stroke-dashoffset:0.0;stroke-linecap:butt;"/>
   </g>
   <g id="line2d_46">
    <path clip-path="url(#pe9bd9c4693)" d="
M78.1419 246.6
L78.1419 167" style="fill:none;stroke:#00ffff;stroke-dasharray:6.000000,6.000000;stroke-dashoffset:0.0;stroke-linecap:butt;"/>
   </g>
   <g id="line2d_47">
    <path clip-path="url(#pe9bd9c4693)" d="
M78.142 246.6
L78.142 167" style="fill:none;stroke:#00ffff;stroke-dasharray:6.000000,6.000000;stroke-dashoffset:0.0;stroke-linecap:butt;"/>
   </g>
   <g id="line2d_48">
    <path clip-path="url(#pe9bd9c4693)" d="
M99.4912 246.6
L99.4912 167" style="fill:none;stroke:#00ffff;stroke-dasharray:6.000000,6.000000;stroke-dashoffset:0.0;stroke-linecap:butt;"/>
   </g>
   <g id="line2d_49">
    <path clip-path="url(#pe9bd9c4693)" d="
M99.4915 246.6
L99.4915 167" style="fill:none;stroke:#00ffff;stroke-dasharray:6.000000,6.000000;stroke-dashoffset:0.0;stroke-linecap:butt;"/>
   </g>
   <g id="line2d_50">
    <path clip-path="url(#pe9bd9c4693)" d="
M120.841 246.6
L120.841 167" style="fill:none;stroke:#00ffff;stroke-dasharray:6.000000,6.000000;stroke-dashoffset:0.0;stroke-linecap:butt;"/>
   </g>
   <g id="line2d_51">
    <path clip-path="url(#pe9bd9c4693)" d="
M142.19 246.6
L142.19 167" style="fill:none;stroke:#00ffff;stroke-dasharray:6.000000,6.000000;stroke-dashoffset:0.0;stroke-linecap:butt;"/>
   </g>
   <g id="line2d_52">
    <path clip-path="url(#pe9bd9c4693)" d="
M142.19 246.6
L142.19 167" style="fill:none;stroke:#00ffff;stroke-dasharray:6.000000,6.000000;stroke-dashoffset:0.0;stroke-linecap:butt;"/>
   </g>
   <g id="line2d_53">
    <path clip-path="url(#pe9bd9c4693)" d="
M163.54 246.6
L163.54 167" style="fill:none;stroke:#00ffff;stroke-dasharray:6.000000,6.000000;stroke-dashoffset:0.0;stroke-linecap:butt;"/>
   </g>
   <g id="line2d_54">
    <path clip-path="url(#pe9bd9c4693)" d="
M184.889 246.6
L184.889 167" style="fill:none;stroke:#00ffff;stroke-dasharray:6.000000,6.000000;stroke-dashoffset:0.0;stroke-linecap:butt;"/>
   </g>
   <g id="line2d_55">
    <path clip-path="url(#pe9bd9c4693)" d="
M206.239 246.6
L206.239 167" style="fill:none;stroke:#00ffff;stroke-dasharray:6.000000,6.000000;stroke-dashoffset:0.0;stroke-linecap:butt;"/>
   </g>
   <g id="line2d_56">
    <path clip-path="url(#pe9bd9c4693)" d="
M227.588 246.6
L227.588 167" style="fill:none;stroke:#00ffff;stroke-dasharray:6.000000,6.000000;stroke-dashoffset:0.0;stroke-linecap:butt;"/>
   </g>
   <g id="line2d_57">
    <path clip-path="url(#pe9bd9c4693)" d="
M248.938 246.6
L248.938 167" style="fill:none;stroke:#00ffff;stroke-dasharray:6.000000,6.000000;stroke-dashoffset:0.0;stroke-linecap:butt;"/>
   </g>
   <g id="line2d_58">
    <path clip-path="url(#pe9bd9c4693)" d="
M270.287 246.6
L270.287 167" style="fill:none;stroke:#00ffff;stroke-dasharray:6.000000,6.000000;stroke-dashoffset:0.0;stroke-linecap:butt;"/>
   </g>
   <g id="line2d_59">
    <path clip-path="url(#pe9bd9c4693)" d="
M291.653 246.6
L291.653 167" style="fill:none;stroke:#00ffff;stroke-dasharray:6.000000,6.000000;stroke-dashoffset:0.0;stroke-linecap:butt;"/>
   </g>
   <g id="line2d_60">
    <path clip-path="url(#pe9bd9c4693)" d="
M291.653 246.6
L291.653 167" style="fill:none;stroke:#00ffff;stroke-dasharray:6.000000,6.000000;stroke-dashoffset:0.0;stroke-linecap:butt;"/>
   </g>
   <g id="line2d_61">
    <path clip-path="url(#pe9bd9c4693)" d="
M312.986 246.6
L312.986 167" style="fill:none;stroke:#00ffff;stroke-dasharray:6.000000,6.000000;stroke-dashoffset:0.0;stroke-linecap:butt;"/>
   </g>
   <g id="line2d_62">
    <path clip-path="url(#pe9bd9c4693)" d="
M334.335 246.6
L334.335 167" style="fill:none;stroke:#00ffff;stroke-dasharray:6.000000,6.000000;stroke-dashoffset:0.0;stroke-linecap:butt;"/>
   </g>
   <g id="line2d_63">
    <path clip-path="url(#pe9bd9c4693)" d="
M356.525 246.6
L356.525 167" style="fill:none;stroke:#00ffff;stroke-dasharray:6.000000,6.000000;stroke-dashoffset:0.0;stroke-linecap:butt;"/>
   </g>
   <g id="line2d_64">
    <path clip-path="url(#pe9bd9c4693)" d="
M356.525 246.6
L356.525 167" style="fill:none;stroke:#00ffff;stroke-dasharray:6.000000,6.000000;stroke-dashoffset:0.0;stroke-linecap:butt;"/>
   </g>
   <g id="line2d_65">
    <path clip-path="url(#pe9bd9c4693)" d="
M377.034 246.6
L377.034 167" style="fill:none;stroke:#00ffff;stroke-dasharray:6.000000,6.000000;stroke-dashoffset:0.0;stroke-linecap:butt;"/>
   </g>
   <g id="line2d_66">
    <path clip-path="url(#pe9bd9c4693)" d="
M58.0216 237.079
L58.0216 230.545
L77.9842 230.545
L77.9842 235.959
L97.9468 235.959
L97.9468 237.452
L117.909 237.452
L117.909 237.266
L137.872 237.266
L137.872 237.639
L157.835 237.639
L157.835 234.839
L177.797 234.839
L177.797 238.199
L197.76 238.199
L197.76 230.545
L217.722 230.545
L217.722 233.532
L237.685 233.532
L237.685 232.785
L257.648 232.785
L257.648 233.532
L277.61 233.532
L277.61 231.665
L297.573 231.665
L297.573 235.585
L317.536 235.585
L317.536 231.105
L337.498 231.105
L337.498 235.585
L357.461 235.585
L357.461 234.839
L377.423 234.839" style="fill:none;stroke:#008000;"/>
   </g>
   <g id="matplotlib.axis_3">
    <g id="xtick_6">
     <g id="line2d_67">
      <g>
       <use style="stroke:#000000;stroke-linecap:butt;stroke-width:0.5;" x="46.1171875" xlink:href="#m0012dd4eef" y="246.6"/>
      </g>
     </g>
     <g id="line2d_68">
      <g>
       <use style="stroke:#000000;stroke-linecap:butt;stroke-width:0.5;" x="46.1171875" xlink:href="#m476344969c" y="167.0"/>
      </g>
     </g>
     <g id="text_14">
      <!-- 0 -->
      <g transform="translate(43.59765625 258.021875)scale(0.1 -0.1)">
       <use xlink:href="#DejaVuSans-30"/>
      </g>
     </g>
    </g>
    <g id="xtick_7">
     <g id="line2d_69">
      <g>
       <use style="stroke:#000000;stroke-linecap:butt;stroke-width:0.5;" x="135.073242188" xlink:href="#m0012dd4eef" y="246.6"/>
      </g>
     </g>
     <g id="line2d_70">
      <g>
       <use style="stroke:#000000;stroke-linecap:butt;stroke-width:0.5;" x="135.073242188" xlink:href="#m476344969c" y="167.0"/>
      </g>
     </g>
     <g id="text_15">
      <!-- 500 -->
      <g transform="translate(126.247460938 258.021875)scale(0.1 -0.1)">
       <use xlink:href="#DejaVuSans-35"/>
       <use x="63.623046875" xlink:href="#DejaVuSans-30"/>
       <use x="127.24609375" xlink:href="#DejaVuSans-30"/>
      </g>
     </g>
    </g>
    <g id="xtick_8">
     <g id="line2d_71">
      <g>
       <use style="stroke:#000000;stroke-linecap:butt;stroke-width:0.5;" x="224.029296875" xlink:href="#m0012dd4eef" y="246.6"/>
      </g>
     </g>
     <g id="line2d_72">
      <g>
       <use style="stroke:#000000;stroke-linecap:butt;stroke-width:0.5;" x="224.029296875" xlink:href="#m476344969c" y="167.0"/>
      </g>
     </g>
     <g id="text_16">
      <!-- 1000 -->
      <g transform="translate(212.185546875 258.021875)scale(0.1 -0.1)">
       <use xlink:href="#DejaVuSans-31"/>
       <use x="63.623046875" xlink:href="#DejaVuSans-30"/>
       <use x="127.24609375" xlink:href="#DejaVuSans-30"/>
       <use x="190.869140625" xlink:href="#DejaVuSans-30"/>
      </g>
     </g>
    </g>
    <g id="xtick_9">
     <g id="line2d_73">
      <g>
       <use style="stroke:#000000;stroke-linecap:butt;stroke-width:0.5;" x="312.985351563" xlink:href="#m0012dd4eef" y="246.6"/>
      </g>
     </g>
     <g id="line2d_74">
      <g>
       <use style="stroke:#000000;stroke-linecap:butt;stroke-width:0.5;" x="312.985351563" xlink:href="#m476344969c" y="167.0"/>
      </g>
     </g>
     <g id="text_17">
      <!-- 1500 -->
      <g transform="translate(301.141601563 258.021875)scale(0.1 -0.1)">
       <use xlink:href="#DejaVuSans-31"/>
       <use x="63.623046875" xlink:href="#DejaVuSans-35"/>
       <use x="127.24609375" xlink:href="#DejaVuSans-30"/>
       <use x="190.869140625" xlink:href="#DejaVuSans-30"/>
      </g>
     </g>
    </g>
    <g id="xtick_10">
     <g id="line2d_75">
      <g>
       <use style="stroke:#000000;stroke-linecap:butt;stroke-width:0.5;" x="401.94140625" xlink:href="#m0012dd4eef" y="246.6"/>
      </g>
     </g>
     <g id="line2d_76">
      <g>
       <use style="stroke:#000000;stroke-linecap:butt;stroke-width:0.5;" x="401.94140625" xlink:href="#m476344969c" y="167.0"/>
      </g>
     </g>
     <g id="text_18">
      <!-- 2000 -->
      <g transform="translate(389.91484375 258.021875)scale(0.1 -0.1)">
       <use xlink:href="#DejaVuSans-32"/>
       <use x="63.623046875" xlink:href="#DejaVuSans-30"/>
       <use x="127.24609375" xlink:href="#DejaVuSans-30"/>
       <use x="190.869140625" xlink:href="#DejaVuSans-30"/>
      </g>
     </g>
    </g>
    <g id="text_19">
     <!-- Time -->
     <g transform="translate(212.047265625 270.7625)scale(0.1 -0.1)">
      <use xlink:href="#DejaVuSans-54"/>
      <use x="57.958984375" xlink:href="#DejaVuSans-69"/>
      <use x="85.7421875" xlink:href="#DejaVuSans-6d"/>
      <use x="183.154296875" xlink:href="#DejaVuSans-65"/>
     </g>
    </g>
   </g>
   <g id="matplotlib.axis_4">
    <g id="ytick_7">
     <g id="line2d_77">
      <g>
       <use style="stroke:#000000;stroke-linecap:butt;stroke-width:0.5;" x="46.1171875" xlink:href="#me8a85f7bf6" y="246.6"/>
      </g>
     </g>
     <g id="line2d_78">
      <g>
       <use style="stroke:#000000;stroke-linecap:butt;stroke-width:0.5;" x="401.94140625" xlink:href="#m1a32005dea" y="246.6"/>
      </g>
     </g>
     <g id="text_20">
      <!-- 0.0 -->
      <defs>
       <path d="
M10.6875 12.4062
L21 12.4062
L21 0
L10.6875 0
z
" id="DejaVuSans-2e"/>
      </defs>
      <g transform="translate(27.5375 250.23984375)scale(0.1 -0.1)">
       <use xlink:href="#DejaVuSans-30"/>
       <use x="63.623046875" xlink:href="#DejaVuSans-2e"/>
       <use x="95.41015625" xlink:href="#DejaVuSans-30"/>
      </g>
     </g>
    </g>
    <g id="ytick_8">
     <g id="line2d_79">
      <g>
       <use style="stroke:#000000;stroke-linecap:butt;stroke-width:0.5;" x="46.1171875" xlink:href="#me8a85f7bf6" y="236.126315789"/>
      </g>
     </g>
     <g id="line2d_80">
      <g>
       <use style="stroke:#000000;stroke-linecap:butt;stroke-width:0.5;" x="401.94140625" xlink:href="#m1a32005dea" y="236.126315789"/>
      </g>
     </g>
     <g id="text_21">
      <!-- 0.5 -->
      <g transform="translate(27.746875 239.766159539)scale(0.1 -0.1)">
       <use xlink:href="#DejaVuSans-30"/>
       <use x="63.623046875" xlink:href="#DejaVuSans-2e"/>
       <use x="95.41015625" xlink:href="#DejaVuSans-35"/>
      </g>
     </g>
    </g>
    <g id="ytick_9">
     <g id="line2d_81">
      <g>
       <use style="stroke:#000000;stroke-linecap:butt;stroke-width:0.5;" x="46.1171875" xlink:href="#me8a85f7bf6" y="225.652631579"/>
      </g>
     </g>
     <g id="line2d_82">
      <g>
       <use style="stroke:#000000;stroke-linecap:butt;stroke-width:0.5;" x="401.94140625" xlink:href="#m1a32005dea" y="225.652631579"/>
      </g>
     </g>
     <g id="text_22">
      <!-- 1.0 -->
      <g transform="translate(27.9765625 229.292475329)scale(0.1 -0.1)">
       <use xlink:href="#DejaVuSans-31"/>
       <use x="63.623046875" xlink:href="#DejaVuSans-2e"/>
       <use x="95.41015625" xlink:href="#DejaVuSans-30"/>
      </g>
     </g>
    </g>
    <g id="ytick_10">
     <g id="line2d_83">
      <g>
       <use style="stroke:#000000;stroke-linecap:butt;stroke-width:0.5;" x="46.1171875" xlink:href="#me8a85f7bf6" y="215.178947368"/>
      </g>
     </g>
     <g id="line2d_84">
      <g>
       <use style="stroke:#000000;stroke-linecap:butt;stroke-width:0.5;" x="401.94140625" xlink:href="#m1a32005dea" y="215.178947368"/>
      </g>
     </g>
     <g id="text_23">
      <!-- 1.5 -->
      <g transform="translate(28.1859375 218.753166118)scale(0.1 -0.1)">
       <use xlink:href="#DejaVuSans-31"/>
       <use x="63.623046875" xlink:href="#DejaVuSans-2e"/>
       <use x="95.41015625" xlink:href="#DejaVuSans-35"/>
      </g>
     </g>
    </g>
    <g id="ytick_11">
     <g id="line2d_85">
      <g>
       <use style="stroke:#000000;stroke-linecap:butt;stroke-width:0.5;" x="46.1171875" xlink:href="#me8a85f7bf6" y="204.705263158"/>
      </g>
     </g>
     <g id="line2d_86">
      <g>
       <use style="stroke:#000000;stroke-linecap:butt;stroke-width:0.5;" x="401.94140625" xlink:href="#m1a32005dea" y="204.705263158"/>
      </g>
     </g>
     <g id="text_24">
      <!-- 2.0 -->
      <g transform="translate(27.6109375 208.345106908)scale(0.1 -0.1)">
       <use xlink:href="#DejaVuSans-32"/>
       <use x="63.623046875" xlink:href="#DejaVuSans-2e"/>
       <use x="95.41015625" xlink:href="#DejaVuSans-30"/>
      </g>
     </g>
    </g>
    <g id="ytick_12">
     <g id="line2d_87">
      <g>
       <use style="stroke:#000000;stroke-linecap:butt;stroke-width:0.5;" x="46.1171875" xlink:href="#me8a85f7bf6" y="194.231578947"/>
      </g>
     </g>
     <g id="line2d_88">
      <g>
       <use style="stroke:#000000;stroke-linecap:butt;stroke-width:0.5;" x="401.94140625" xlink:href="#m1a32005dea" y="194.231578947"/>
      </g>
     </g>
     <g id="text_25">
      <!-- 2.5 -->
      <g transform="translate(27.8203125 197.871422697)scale(0.1 -0.1)">
       <use xlink:href="#DejaVuSans-32"/>
       <use x="63.623046875" xlink:href="#DejaVuSans-2e"/>
       <use x="95.41015625" xlink:href="#DejaVuSans-35"/>
      </g>
     </g>
    </g>
    <g id="ytick_13">
     <g id="line2d_89">
      <g>
       <use style="stroke:#000000;stroke-linecap:butt;stroke-width:0.5;" x="46.1171875" xlink:href="#me8a85f7bf6" y="183.757894737"/>
      </g>
     </g>
     <g id="line2d_90">
      <g>
       <use style="stroke:#000000;stroke-linecap:butt;stroke-width:0.5;" x="401.94140625" xlink:href="#m1a32005dea" y="183.757894737"/>
      </g>
     </g>
     <g id="text_26">
      <!-- 3.0 -->
      <defs>
       <path d="
M40.5781 39.3125
Q47.6562 37.7969 51.625 33
Q55.6094 28.2188 55.6094 21.1875
Q55.6094 10.4062 48.1875 4.48438
Q40.7656 -1.42188 27.0938 -1.42188
Q22.5156 -1.42188 17.6562 -0.515625
Q12.7969 0.390625 7.625 2.20312
L7.625 11.7188
Q11.7188 9.32812 16.5938 8.10938
Q21.4844 6.89062 26.8125 6.89062
Q36.0781 6.89062 40.9375 10.5469
Q45.7969 14.2031 45.7969 21.1875
Q45.7969 27.6406 41.2812 31.2656
Q36.7656 34.9062 28.7188 34.9062
L20.2188 34.9062
L20.2188 43.0156
L29.1094 43.0156
Q36.375 43.0156 40.2344 45.9219
Q44.0938 48.8281 44.0938 54.2969
Q44.0938 59.9062 40.1094 62.9062
Q36.1406 65.9219 28.7188 65.9219
Q24.6562 65.9219 20.0156 65.0312
Q15.375 64.1562 9.8125 62.3125
L9.8125 71.0938
Q15.4375 72.6562 20.3438 73.4375
Q25.25 74.2188 29.5938 74.2188
Q40.8281 74.2188 47.3594 69.1094
Q53.9062 64.0156 53.9062 55.3281
Q53.9062 49.2656 50.4375 45.0938
Q46.9688 40.9219 40.5781 39.3125" id="DejaVuSans-33"/>
      </defs>
      <g transform="translate(27.640625 187.397738487)scale(0.1 -0.1)">
       <use xlink:href="#DejaVuSans-33"/>
       <use x="63.623046875" xlink:href="#DejaVuSans-2e"/>
       <use x="95.41015625" xlink:href="#DejaVuSans-30"/>
      </g>
     </g>
    </g>
    <g id="ytick_14">
     <g id="line2d_91">
      <g>
       <use style="stroke:#000000;stroke-linecap:butt;stroke-width:0.5;" x="46.1171875" xlink:href="#me8a85f7bf6" y="173.284210526"/>
      </g>
     </g>
     <g id="line2d_92">
      <g>
       <use style="stroke:#000000;stroke-linecap:butt;stroke-width:0.5;" x="401.94140625" xlink:href="#m1a32005dea" y="173.284210526"/>
      </g>
     </g>
     <g id="text_27">
      <!-- 3.5 -->
      <g transform="translate(27.85 176.924054276)scale(0.1 -0.1)">
       <use xlink:href="#DejaVuSans-33"/>
       <use x="63.623046875" xlink:href="#DejaVuSans-2e"/>
       <use x="95.41015625" xlink:href="#DejaVuSans-35"/>
      </g>
     </g>
    </g>
   </g>
   <g id="patch_8">
    <path d="
M46.1172 167
L401.941 167" style="fill:none;stroke:#000000;"/>
   </g>
   <g id="patch_9">
    <path d="
M401.941 246.6
L401.941 167" style="fill:none;stroke:#000000;"/>
   </g>
   <g id="patch_10">
    <path d="
M46.1172 246.6
L401.941 246.6" style="fill:none;stroke:#000000;"/>
   </g>
   <g id="patch_11">
    <path d="
M46.1172 246.6
L46.1172 167" style="fill:none;stroke:#000000;"/>
   </g>
   <g id="text_28">
    <!-- OLAP -->
    <defs>
     <path d="
M34.1875 63.1875
L20.7969 26.9062
L47.6094 26.9062
z

M28.6094 72.9062
L39.7969 72.9062
L67.5781 0
L57.3281 0
L50.6875 18.7031
L17.8281 18.7031
L11.1875 0
L0.78125 0
z
" id="DejaVuSans-41"/>
    </defs>
    <g transform="translate(208.646796875 162.0)scale(0.12 -0.12)">
     <use xlink:href="#DejaVuSans-4f"/>
     <use x="78.7109375" xlink:href="#DejaVuSans-4c"/>
     <use x="136.673828125" xlink:href="#DejaVuSans-41"/>
     <use x="205.08203125" xlink:href="#DejaVuSans-50"/>
    </g>
   </g>
  </g>
  <g id="text_29">
   <!-- 9 OLTP workers -->
   <defs>
    <path d="
M30.6094 48.3906
Q23.3906 48.3906 19.1875 42.75
Q14.9844 37.1094 14.9844 27.2969
Q14.9844 17.4844 19.1562 11.8438
Q23.3438 6.20312 30.6094 6.20312
Q37.7969 6.20312 41.9844 11.8594
Q46.1875 17.5312 46.1875 27.2969
Q46.1875 37.0156 41.9844 42.7031
Q37.7969 48.3906 30.6094 48.3906
M30.6094 56
Q42.3281 56 49.0156 48.375
Q55.7188 40.7656 55.7188 27.2969
Q55.7188 13.875 49.0156 6.21875
Q42.3281 -1.42188 30.6094 -1.42188
Q18.8438 -1.42188 12.1719 6.21875
Q5.51562 13.875 5.51562 27.2969
Q5.51562 40.7656 12.1719 48.375
Q18.8438 56 30.6094 56" id="DejaVuSans-6f"/>
    <path d="
M9.07812 75.9844
L18.1094 75.9844
L18.1094 31.1094
L44.9219 54.6875
L56.3906 54.6875
L27.3906 29.1094
L57.625 0
L45.9062 0
L18.1094 26.7031
L18.1094 0
L9.07812 0
z
" id="DejaVuSans-6b"/>
    <path id="DejaVuSans-20"/>
    <path d="
M10.9844 1.51562
L10.9844 10.5
Q14.7031 8.73438 18.5 7.8125
Q22.3125 6.89062 25.9844 6.89062
Q35.75 6.89062 40.8906 13.4531
Q46.0469 20.0156 46.7812 33.4062
Q43.9531 29.2031 39.5938 26.9531
Q35.25 24.7031 29.9844 24.7031
Q19.0469 24.7031 12.6719 31.3125
Q6.29688 37.9375 6.29688 49.4219
Q6.29688 60.6406 12.9375 67.4219
Q19.5781 74.2188 30.6094 74.2188
Q43.2656 74.2188 49.9219 64.5156
Q56.5938 54.8281 56.5938 36.375
Q56.5938 19.1406 48.4062 8.85938
Q40.2344 -1.42188 26.4219 -1.42188
Q22.7031 -1.42188 18.8906 -0.6875
Q15.0938 0.046875 10.9844 1.51562
M30.6094 32.4219
Q37.25 32.4219 41.125 36.9531
Q45.0156 41.5 45.0156 49.4219
Q45.0156 57.2812 41.125 61.8438
Q37.25 66.4062 30.6094 66.4062
Q23.9688 66.4062 20.0938 61.8438
Q16.2188 57.2812 16.2188 49.4219
Q16.2188 41.5 20.0938 36.9531
Q23.9688 32.4219 30.6094 32.4219" id="DejaVuSans-39"/>
    <path d="
M4.20312 54.6875
L13.1875 54.6875
L24.4219 12.0156
L35.5938 54.6875
L46.1875 54.6875
L57.4219 12.0156
L68.6094 54.6875
L77.5938 54.6875
L63.2812 0
L52.6875 0
L40.9219 44.8281
L29.1094 0
L18.5 0
z
" id="DejaVuSans-77"/>
    <path d="
M44.2812 53.0781
L44.2812 44.5781
Q40.4844 46.5312 36.375 47.5
Q32.2812 48.4844 27.875 48.4844
Q21.1875 48.4844 17.8438 46.4375
Q14.5 44.3906 14.5 40.2812
Q14.5 37.1562 16.8906 35.375
Q19.2812 33.5938 26.5156 31.9844
L29.5938 31.2969
Q39.1562 29.25 43.1875 25.5156
Q47.2188 21.7812 47.2188 15.0938
Q47.2188 7.46875 41.1875 3.01562
Q35.1562 -1.42188 24.6094 -1.42188
Q20.2188 -1.42188 15.4531 -0.5625
Q10.6875 0.296875 5.42188 2
L5.42188 11.2812
Q10.4062 8.6875 15.2344 7.39062
Q20.0625 6.10938 24.8125 6.10938
Q31.1562 6.10938 34.5625 8.28125
Q37.9844 10.4531 37.9844 14.4062
Q37.9844 18.0625 35.5156 20.0156
Q33.0625 21.9688 24.7031 23.7812
L21.5781 24.5156
Q13.2344 26.2656 9.51562 29.9062
Q5.8125 33.5469 5.8125 39.8906
Q5.8125 47.6094 11.2812 51.7969
Q16.75 56 26.8125 56
Q31.7812 56 36.1719 55.2656
Q40.5781 54.5469 44.2812 53.0781" id="DejaVuSans-73"/>
    <path d="
M41.1094 46.2969
Q39.5938 47.1719 37.8125 47.5781
Q36.0312 48 33.8906 48
Q26.2656 48 22.1875 43.0469
Q18.1094 38.0938 18.1094 28.8125
L18.1094 0
L9.07812 0
L9.07812 54.6875
L18.1094 54.6875
L18.1094 46.1875
Q20.9531 51.1719 25.4844 53.5781
Q30.0312 56 36.5312 56
Q37.4531 56 38.5781 55.875
Q39.7031 55.7656 41.0625 55.5156
z
" id="DejaVuSans-72"/>
   </defs>
   <g transform="translate(178.1265625 13.3584375)scale(0.1 -0.1)">
    <use xlink:href="#DejaVuSans-39"/>
    <use x="63.623046875" xlink:href="#DejaVuSans-20"/>
    <use x="95.41015625" xlink:href="#DejaVuSans-4f"/>
    <use x="174.12109375" xlink:href="#DejaVuSans-4c"/>
    <use x="216.083984375" xlink:href="#DejaVuSans-54"/>
    <use x="277.16796875" xlink:href="#DejaVuSans-50"/>
    <use x="337.470703125" xlink:href="#DejaVuSans-20"/>
    <use x="369.2578125" xlink:href="#DejaVuSans-77"/>
    <use x="451.044921875" xlink:href="#DejaVuSans-6f"/>
    <use x="512.2265625" xlink:href="#DejaVuSans-72"/>
    <use x="553.33984375" xlink:href="#DejaVuSans-6b"/>
    <use x="607.625" xlink:href="#DejaVuSans-65"/>
    <use x="669.1484375" xlink:href="#DejaVuSans-72"/>
    <use x="710.26171875" xlink:href="#DejaVuSans-73"/>
   </g>
  </g>
 </g>
 <defs>
  <clipPath id="pe9bd9c4693">
   <rect height="79.6" width="355.82421875" x="46.1171875" y="167.0"/>
  </clipPath>
  <clipPath id="paafe9ad165">
   <rect height="79.6" width="355.82421875" x="46.1171875" y="32.0"/>
  </clipPath>
 </defs>
</svg>
