<?xml version="1.0" encoding="utf-8" standalone="no"?>
<!DOCTYPE svg PUBLIC "-//W3C//DTD SVG 1.1//EN"
  "http://www.w3.org/Graphics/SVG/1.1/DTD/svg11.dtd">
<!-- Created with matplotlib (http://matplotlib.sourceforge.net/) -->
<svg height="288pt" version="1.1" viewBox="0 0 432 288" width="432pt" xmlns="http://www.w3.org/2000/svg" xmlns:xlink="http://www.w3.org/1999/xlink">
 <defs>
  <style type="text/css">
*{stroke-linecap:square;stroke-linejoin:round;}
  </style>
 </defs>
 <g id="figure_1">
  <g id="patch_1">
   <path d="
M0 288
L432 288
L432 0
L0 0
z
" style="fill:#ffffff;"/>
  </g>
  <g id="axes_1">
   <g id="patch_2">
    <path d="
M54 252
L388.8 252
L388.8 28.8
L54 28.8
z
" style="fill:#ffffff;"/>
   </g>
   <g id="line2d_1">
    <path clip-path="url(#p124b8dd147)" d="
M54 172.747
L55.3392 155.478
L55.674 155.086
L56.0088 155.016
L56.3436 154.613
L56.6784 154.605
L57.0132 153.719
L57.6828 153.689
L58.6872 153.628
L59.022 153.226
L60.3612 153.159
L60.696 153.421
L61.0308 153.456
L61.3656 152.204
L61.7004 152.322
L62.7048 152.303
L63.0396 151.449
L63.3744 151.53
L64.3788 151.446
L64.7136 149.923
L65.0484 149.581
L65.3832 149.72
L65.718 148.158
L66.0528 148.149
L66.3879 150.077
L66.7227 149.99
L67.0575 151.237
L67.7271 151.23
L68.0616 151.817
L69.4008 151.769
L70.0704 151.694
L70.4052 152.729
L71.0748 152.783
L71.4096 152.934
L72.0792 152.926
L72.414 153.447
L73.0836 153.458
L73.4184 153.91
L74.088 153.886
L74.4228 154.327
L74.7576 154.267
L75.4272 154.302
L75.762 154.708
L76.4316 154.722
L76.7664 155.099
L77.7708 155.078
L78.1056 155.463
L78.7752 155.459
L79.11 155.891
L79.7796 155.826
L80.1144 156.201
L80.784 156.218
L81.1188 156.548
L81.4536 156.53
L81.7884 156.924
L82.458 156.928
L82.7931 157.19
L83.4627 157.174
L83.7975 157.461
L84.1323 157.434
L84.4671 157.795
L84.8019 156.349
L85.1367 156.186
L85.4715 156.15
L85.806 154.799
L86.1408 155.096
L86.4756 157
L86.8104 157.253
L87.1452 157.137
L87.48 158.899
L87.8148 158.936
L88.1496 159.148
L89.4888 159.448
L89.8236 159.632
L90.828 159.69
L91.1628 159.922
L91.8324 160.005
L92.1672 160.206
L92.502 160.215
L92.8368 160.451
L93.5064 160.458
L93.8412 160.663
L94.176 160.628
L94.5108 160.777
L94.8456 160.746
L95.1804 160.918
L95.85 160.933
L96.1848 161.159
L96.8544 161.22
L97.1892 161.292
L97.524 161.538
L98.5284 161.573
L98.8632 161.787
L103.55 162.485
L103.886 162.613
L104.555 162.579
L104.89 161.236
L105.224 160.771
L105.559 160.718
L105.894 159.47
L106.229 159.409
L106.564 161.333
L106.898 161.375
L107.568 161.111
L108.238 161.235
L109.577 161.362
L109.912 162.989
L110.916 163.018
L111.586 163.099
L112.59 163.133
L117.947 163.332
L119.286 163.374
L119.956 163.478
L120.625 163.46
L120.96 163.56
L122.299 163.55
L124.643 163.525
L124.978 162.101
L125.312 161.653
L125.647 161.616
L125.982 162.572
L126.317 162.415
L126.652 160.338
L126.986 160.321
L127.321 161.239
L127.991 161.221
L128.66 161.242
L128.995 163.587
L130.669 163.665
L131.339 163.678
L132.008 163.543
L134.017 163.726
L134.352 162.803
L135.356 161.722
L135.691 161.88
L136.026 156.406
L136.361 161.692
L136.696 161.979
L137.031 161.992
L137.366 161.765
L137.7 161.9
L138.035 161.604
L138.37 161.967
L138.704 160.875
L139.039 153.834
L139.374 158.747
L139.709 154.355
L140.044 161.734
L140.378 161.922
L140.713 161.067
L141.383 160.921
L141.718 162.149
L142.052 160.882
L142.387 162.143
L143.057 162.277
L143.392 161.482
L143.726 161.593
L144.061 158.33
L144.396 158.212
L144.731 157.345
L145.066 156.022
L145.4 161.239
L145.735 160.346
L146.07 159.973
L147.074 156.518
L148.079 155.37
L148.414 154.448
L148.748 153.955
L149.083 154.785
L149.418 157.475
L150.757 157.736
L151.092 158.482
L151.427 158.616
L151.762 147.889
L152.096 155.184
L152.432 157.282
L152.766 156.978
L153.101 156.947
L153.436 157.412
L153.771 155.985
L154.106 145.27
L154.44 155.833
L156.114 155.783
L157.118 156.118
L157.453 155.933
L157.788 155.317
L158.123 155.111
L158.458 154.723
L158.792 152.137
L159.127 151.456
L159.462 154.613
L159.797 150.946
L160.132 151.96
L160.466 151.676
L160.801 151.737
L161.136 145.893
L161.471 150.449
L161.806 149.741
L162.14 146.877
L162.81 145.509
L163.145 144.583
L163.48 152.403
L163.814 149.795
L164.149 149.357
L164.819 149.01
L165.154 146.271
L165.488 145.769
L165.823 146.872
L166.158 146.817
L166.493 146.891
L166.828 139.937
L167.162 141.71
L167.832 139.65
L168.167 136.523
L168.502 144.818
L169.171 144.675
L169.506 143.759
L171.18 143.709
L171.515 143.853
L171.85 133.635
L172.185 144.274
L172.52 144.276
L172.854 144.416
L173.189 144.287
L173.524 143.453
L173.858 140.2
L174.193 140.385
L174.528 136.932
L174.863 136.262
L175.198 135.214
L175.532 136.085
L175.867 132.436
L176.202 141.934
L176.537 141.866
L176.872 141.93
L177.206 141.75
L177.541 139.794
L177.876 128.442
L178.211 141.61
L179.215 140.833
L179.885 139.944
L180.22 139.871
L181.559 140.368
L182.228 140.547
L182.563 140.665
L182.898 140.377
L183.568 140.546
L183.902 138.585
L184.237 135.42
L184.572 134.862
L185.242 132.613
L185.576 128.897
L185.912 138.536
L186.246 136.777
L186.581 130.258
L186.916 129.58
L187.251 128.527
L187.586 126.271
L187.92 127.334
L188.255 123.887
L188.59 125.873
L188.925 118.042
L189.26 132.07
L189.594 132.679
L189.929 131.977
L190.264 131.834
L191.603 131.811
L191.938 131.633
L192.272 131.757
L192.607 131.026
L194.281 131.134
L196.29 131.975
L196.96 132.028
L197.294 132.103
L197.629 132.32
L197.964 130.178
L198.299 128.939
L198.634 131.234
L198.968 130.966
L199.638 130.925
L199.973 125.849
L200.642 124.893
L201.647 122.417
L201.982 119.128
L202.316 122.783
L202.986 121.131
L203.321 120.092
L203.656 118.573
L203.99 117.57
L204.325 113.921
L204.66 124.912
L204.995 123.892
L205.33 122.307
L205.665 107.735
L206 121.005
L206.334 119.872
L206.669 121.442
L207.004 119.138
L207.339 118.604
L207.674 119.962
L208.008 119.847
L208.343 117
L208.678 116.363
L209.347 119.207
L209.682 118.599
L210.017 118.509
L210.352 118.572
L210.686 118.506
L211.356 118.723
L211.691 119.912
L212.026 119.937
L212.36 116.206
L212.695 118.868
L213.03 118.038
L213.7 118.068
L214.034 119.184
L215.374 118.598
L215.708 118.637
L216.043 119.987
L216.378 119.59
L216.713 118.971
L217.717 119.125
L219.391 119.791
L222.405 120.616
L223.074 120.716
L225.083 121.088
L225.752 120.708
L226.422 120.697
L226.757 120.717
L227.092 119.663
L227.426 119.357
L227.761 118.432
L228.096 118.071
L228.431 118.129
L229.1 118.018
L229.435 118.044
L229.77 117.951
L230.44 118.012
L230.774 121.699
L231.444 121.783
L232.114 121.877
L232.448 121.7
L233.788 121.844
L234.457 121.908
L235.796 121.884
L236.466 121.942
L237.47 121.963
L237.805 121.914
L238.14 121.983
L238.81 121.996
L240.149 121.985
L240.819 122.061
L241.488 122.043
L241.823 122.138
L242.492 122.11
L243.162 122.267
L244.166 122.282
L244.836 122.382
L245.171 122.374
L245.506 120.852
L245.84 120.565
L246.175 121.494
L246.51 119.084
L246.845 121.238
L247.18 121.007
L248.519 120.89
L249.523 120.711
L250.528 120.651
L252.536 120.848
L253.206 120.82
L253.876 120.971
L254.545 120.988
L254.88 122.628
L255.884 122.744
L256.889 122.763
L261.241 123.172
L261.911 123.198
L265.259 123.44
L265.594 121.9
L265.928 121.559
L266.263 122.305
L266.598 120.103
L266.933 122.187
L267.268 123.455
L268.272 123.446
L268.607 123.501
L268.942 123.426
L269.946 123.497
L270.95 123.507
L271.285 123.551
L271.955 123.359
L273.629 123.394
L274.299 123.227
L275.303 123.218
L275.973 123.173
L284.008 123.158
L284.677 123.207
L285.347 123.195
L285.682 121.667
L286.016 121.184
L286.351 121.466
L286.686 119.871
L287.021 121.912
L288.025 121.488
L288.36 121.436
L288.695 123.031
L289.699 122.999
L291.374 123.006
L291.708 122.905
L294.721 123.032
L296.73 122.018
L297.065 121.903
L297.4 121.012
L297.734 121.633
L298.069 119.846
L298.404 119.715
L299.408 119.68
L299.743 117.099
L300.078 112.396
L300.413 97.2923
L300.748 116.099
L301.082 110.593
L301.417 110.609
L301.752 110.447
L303.426 105.669
L304.096 95.8378
L304.43 95.8473
L304.765 106.382
L305.1 103.569
L305.435 103.485
L305.77 102.461
L306.439 100
L306.774 98.6719
L307.444 93.7963
L307.778 88.7081
L308.113 100.704
L308.448 99.7809
L308.783 98.1977
L309.118 100.2
L309.453 100.055
L309.788 99.3923
L310.122 99.3277
L310.457 100.547
L311.462 100.498
L311.796 98.7432
L312.131 94.6521
L312.466 76.9864
L312.8 100.129
L315.144 99.8875
L315.479 99.6684
L315.814 99.6407
L316.148 99.7336
L316.483 99.6648
L317.153 99.8022
L317.488 99.7918
L317.822 99.488
L319.496 98.7649
L319.831 98.7499
L320.166 98.9093
L320.836 98.9069
L321.17 98.1255
L321.505 98.1014
L321.84 79.4887
L322.175 98.8228
L322.51 93.1451
L322.844 93.4657
L324.184 44.0925
L324.518 44.354
L324.853 44.3245
L325.188 44.5347
L326.528 44.1858
L326.862 44.44
L327.197 43.2585
L327.532 43.3971
L327.867 42.9869
L328.202 41.6836
L328.872 37.1682
L329.206 92.7776
L329.541 94.6993
L329.876 93.4703
L330.88 93.2594
L331.214 93.6833
L331.549 74.6527
L331.884 70.8562
L332.219 94.8827
L333.893 94.8267
L334.228 92.0605
L334.562 90.9528
L334.897 94.4351
L335.232 93.4745
L335.567 93.5324
L335.902 87.8712
L336.236 87.796
L336.571 79.5408
L337.576 40.0172
L337.91 36.197
L339.25 36.6937
L339.584 36.9412
L339.919 36.9299
L340.924 37.3977
L341.593 37.6156
L342.263 33.8054
L342.598 30.448
L342.932 91.8207
L343.267 90.6151
L343.937 90.4984
L344.607 90.5045
L344.942 81.9038
L345.276 65.1414
L345.611 89.3669
L346.28 88.6882
L346.615 88.3966
L347.285 88.3853
L347.62 70.0389
L347.954 62.7096
L348.289 88.5161
L348.624 86.1808
L348.959 86.0519
L349.294 89.5156
L349.628 89.1353
L349.963 89.1591
L350.968 88.8583
L351.302 88.8501
L351.637 88.9637
L351.972 88.9589
L352.307 79.6484
L352.642 64.3594
L352.976 86.8656
L353.311 86.4737
L353.646 89.5427
L353.981 89.042
L355.655 89.1743
L356.324 89.3892
L356.994 89.5851
L359.672 90.489
L360.007 87.6204
L360.342 87.0563
L360.677 86.2189
L361.012 103.543
L362.016 103.562
L362.351 103.179
L363.355 103.13
L363.69 101.733
L364.025 97.0028
L364.36 96.9501
L365.029 72.3449
L365.699 45.8296
L366.034 39.8411
L366.368 39.8042
L366.703 39.5132
L367.038 39.4029
L367.373 38.2503
L367.708 38.303
L368.377 38.0919
L368.712 38.1613
L369.047 38.0681
L369.382 37.2057
L370.051 37.2706
L370.386 36.2598
L370.721 33.9574
L371.056 32.8043
L371.39 32.8189
L371.725 102.321
L372.395 100.081
L372.73 99.6974
L373.064 98.6177
L373.399 91.9377
L373.734 91.729
L374.069 86.3344
L375.073 46.5421
L375.073 46.5421" style="fill:none;stroke:#ff0000;"/>
   </g>
   <g id="line2d_2">
    <path clip-path="url(#p124b8dd147)" d="
M134.352 252
L134.352 28.8" style="fill:none;stroke:#00ffff;stroke-dasharray:6.000000,6.000000;stroke-dashoffset:0.0;stroke-linecap:butt;"/>
   </g>
   <g id="line2d_3">
    <path clip-path="url(#p124b8dd147)" d="
M214.704 252
L214.704 28.8" style="fill:none;stroke:#00ffff;stroke-dasharray:6.000000,6.000000;stroke-dashoffset:0.0;stroke-linecap:butt;"/>
   </g>
   <g id="line2d_4">
    <path clip-path="url(#p124b8dd147)" d="
M295.056 252
L295.056 28.8" style="fill:none;stroke:#00ffff;stroke-dasharray:6.000000,6.000000;stroke-dashoffset:0.0;stroke-linecap:butt;"/>
   </g>
   <g id="line2d_5">
    <path clip-path="url(#p124b8dd147)" d="
M375.408 252
L375.408 28.8" style="fill:none;stroke:#00ffff;stroke-dasharray:6.000000,6.000000;stroke-dashoffset:0.0;stroke-linecap:butt;"/>
   </g>
   <g id="matplotlib.axis_1">
    <g id="xtick_1">
     <g id="line2d_6">
      <path clip-path="url(#p124b8dd147)" d="
M54 252
L54 28.8" style="fill:none;stroke:#000000;stroke-dasharray:1.000000,3.000000;stroke-dashoffset:0.0;stroke-linecap:butt;stroke-width:0.5;"/>
     </g>
     <g id="line2d_7">
      <defs>
       <path d="
M0 0
L0 -4" id="m0012dd4eef" style="stroke:#000000;stroke-linecap:butt;stroke-width:0.5;"/>
      </defs>
      <g>
       <use style="stroke:#000000;stroke-linecap:butt;stroke-width:0.5;" x="54.0" xlink:href="#m0012dd4eef" y="252.0"/>
      </g>
     </g>
     <g id="line2d_8">
      <defs>
       <path d="
M0 0
L0 4" id="m476344969c" style="stroke:#000000;stroke-linecap:butt;stroke-width:0.5;"/>
      </defs>
      <g>
       <use style="stroke:#000000;stroke-linecap:butt;stroke-width:0.5;" x="54.0" xlink:href="#m476344969c" y="28.8"/>
      </g>
     </g>
     <g id="text_1">
      <!-- 0 -->
      <defs>
       <path d="
M31.7812 66.4062
Q24.1719 66.4062 20.3281 58.9062
Q16.5 51.4219 16.5 36.375
Q16.5 21.3906 20.3281 13.8906
Q24.1719 6.39062 31.7812 6.39062
Q39.4531 6.39062 43.2812 13.8906
Q47.125 21.3906 47.125 36.375
Q47.125 51.4219 43.2812 58.9062
Q39.4531 66.4062 31.7812 66.4062
M31.7812 74.2188
Q44.0469 74.2188 50.5156 64.5156
Q56.9844 54.8281 56.9844 36.375
Q56.9844 17.9688 50.5156 8.26562
Q44.0469 -1.42188 31.7812 -1.42188
Q19.5312 -1.42188 13.0625 8.26562
Q6.59375 17.9688 6.59375 36.375
Q6.59375 54.8281 13.0625 64.5156
Q19.5312 74.2188 31.7812 74.2188" id="DejaVuSans-30"/>
      </defs>
      <g transform="translate(51.48046875 263.421875)scale(0.1 -0.1)">
       <use xlink:href="#DejaVuSans-30"/>
      </g>
     </g>
    </g>
    <g id="xtick_2">
     <g id="line2d_9">
      <path clip-path="url(#p124b8dd147)" d="
M120.96 252
L120.96 28.8" style="fill:none;stroke:#000000;stroke-dasharray:1.000000,3.000000;stroke-dashoffset:0.0;stroke-linecap:butt;stroke-width:0.5;"/>
     </g>
     <g id="line2d_10">
      <g>
       <use style="stroke:#000000;stroke-linecap:butt;stroke-width:0.5;" x="120.96" xlink:href="#m0012dd4eef" y="252.0"/>
      </g>
     </g>
     <g id="line2d_11">
      <g>
       <use style="stroke:#000000;stroke-linecap:butt;stroke-width:0.5;" x="120.96" xlink:href="#m476344969c" y="28.8"/>
      </g>
     </g>
     <g id="text_2">
      <!-- 200 -->
      <defs>
       <path d="
M19.1875 8.29688
L53.6094 8.29688
L53.6094 0
L7.32812 0
L7.32812 8.29688
Q12.9375 14.1094 22.625 23.8906
Q32.3281 33.6875 34.8125 36.5312
Q39.5469 41.8438 41.4219 45.5312
Q43.3125 49.2188 43.3125 52.7812
Q43.3125 58.5938 39.2344 62.25
Q35.1562 65.9219 28.6094 65.9219
Q23.9688 65.9219 18.8125 64.3125
Q13.6719 62.7031 7.8125 59.4219
L7.8125 69.3906
Q13.7656 71.7812 18.9375 73
Q24.125 74.2188 28.4219 74.2188
Q39.75 74.2188 46.4844 68.5469
Q53.2188 62.8906 53.2188 53.4219
Q53.2188 48.9219 51.5312 44.8906
Q49.8594 40.875 45.4062 35.4062
Q44.1875 33.9844 37.6406 27.2188
Q31.1094 20.4531 19.1875 8.29688" id="DejaVuSans-32"/>
      </defs>
      <g transform="translate(112.1146875 263.421875)scale(0.1 -0.1)">
       <use xlink:href="#DejaVuSans-32"/>
       <use x="63.623046875" xlink:href="#DejaVuSans-30"/>
       <use x="127.24609375" xlink:href="#DejaVuSans-30"/>
      </g>
     </g>
    </g>
    <g id="xtick_3">
     <g id="line2d_12">
      <path clip-path="url(#p124b8dd147)" d="
M187.92 252
L187.92 28.8" style="fill:none;stroke:#000000;stroke-dasharray:1.000000,3.000000;stroke-dashoffset:0.0;stroke-linecap:butt;stroke-width:0.5;"/>
     </g>
     <g id="line2d_13">
      <g>
       <use style="stroke:#000000;stroke-linecap:butt;stroke-width:0.5;" x="187.92" xlink:href="#m0012dd4eef" y="252.0"/>
      </g>
     </g>
     <g id="line2d_14">
      <g>
       <use style="stroke:#000000;stroke-linecap:butt;stroke-width:0.5;" x="187.92" xlink:href="#m476344969c" y="28.8"/>
      </g>
     </g>
     <g id="text_3">
      <!-- 400 -->
      <defs>
       <path d="
M37.7969 64.3125
L12.8906 25.3906
L37.7969 25.3906
z

M35.2031 72.9062
L47.6094 72.9062
L47.6094 25.3906
L58.0156 25.3906
L58.0156 17.1875
L47.6094 17.1875
L47.6094 0
L37.7969 0
L37.7969 17.1875
L4.89062 17.1875
L4.89062 26.7031
z
" id="DejaVuSans-34"/>
      </defs>
      <g transform="translate(178.9528125 263.421875)scale(0.1 -0.1)">
       <use xlink:href="#DejaVuSans-34"/>
       <use x="63.623046875" xlink:href="#DejaVuSans-30"/>
       <use x="127.24609375" xlink:href="#DejaVuSans-30"/>
      </g>
     </g>
    </g>
    <g id="xtick_4">
     <g id="line2d_15">
      <path clip-path="url(#p124b8dd147)" d="
M254.88 252
L254.88 28.8" style="fill:none;stroke:#000000;stroke-dasharray:1.000000,3.000000;stroke-dashoffset:0.0;stroke-linecap:butt;stroke-width:0.5;"/>
     </g>
     <g id="line2d_16">
      <g>
       <use style="stroke:#000000;stroke-linecap:butt;stroke-width:0.5;" x="254.88" xlink:href="#m0012dd4eef" y="252.0"/>
      </g>
     </g>
     <g id="line2d_17">
      <g>
       <use style="stroke:#000000;stroke-linecap:butt;stroke-width:0.5;" x="254.88" xlink:href="#m476344969c" y="28.8"/>
      </g>
     </g>
     <g id="text_4">
      <!-- 600 -->
      <defs>
       <path d="
M33.0156 40.375
Q26.375 40.375 22.4844 35.8281
Q18.6094 31.2969 18.6094 23.3906
Q18.6094 15.5312 22.4844 10.9531
Q26.375 6.39062 33.0156 6.39062
Q39.6562 6.39062 43.5312 10.9531
Q47.4062 15.5312 47.4062 23.3906
Q47.4062 31.2969 43.5312 35.8281
Q39.6562 40.375 33.0156 40.375
M52.5938 71.2969
L52.5938 62.3125
Q48.875 64.0625 45.0938 64.9844
Q41.3125 65.9219 37.5938 65.9219
Q27.8281 65.9219 22.6719 59.3281
Q17.5312 52.7344 16.7969 39.4062
Q19.6719 43.6562 24.0156 45.9219
Q28.375 48.1875 33.5938 48.1875
Q44.5781 48.1875 50.9531 41.5156
Q57.3281 34.8594 57.3281 23.3906
Q57.3281 12.1562 50.6875 5.35938
Q44.0469 -1.42188 33.0156 -1.42188
Q20.3594 -1.42188 13.6719 8.26562
Q6.98438 17.9688 6.98438 36.375
Q6.98438 53.6562 15.1875 63.9375
Q23.3906 74.2188 37.2031 74.2188
Q40.9219 74.2188 44.7031 73.4844
Q48.4844 72.75 52.5938 71.2969" id="DejaVuSans-36"/>
      </defs>
      <g transform="translate(246.0175 263.421875)scale(0.1 -0.1)">
       <use xlink:href="#DejaVuSans-36"/>
       <use x="63.623046875" xlink:href="#DejaVuSans-30"/>
       <use x="127.24609375" xlink:href="#DejaVuSans-30"/>
      </g>
     </g>
    </g>
    <g id="xtick_5">
     <g id="line2d_18">
      <path clip-path="url(#p124b8dd147)" d="
M321.84 252
L321.84 28.8" style="fill:none;stroke:#000000;stroke-dasharray:1.000000,3.000000;stroke-dashoffset:0.0;stroke-linecap:butt;stroke-width:0.5;"/>
     </g>
     <g id="line2d_19">
      <g>
       <use style="stroke:#000000;stroke-linecap:butt;stroke-width:0.5;" x="321.84" xlink:href="#m0012dd4eef" y="252.0"/>
      </g>
     </g>
     <g id="line2d_20">
      <g>
       <use style="stroke:#000000;stroke-linecap:butt;stroke-width:0.5;" x="321.84" xlink:href="#m476344969c" y="28.8"/>
      </g>
     </g>
     <g id="text_5">
      <!-- 800 -->
      <defs>
       <path d="
M31.7812 34.625
Q24.75 34.625 20.7188 30.8594
Q16.7031 27.0938 16.7031 20.5156
Q16.7031 13.9219 20.7188 10.1562
Q24.75 6.39062 31.7812 6.39062
Q38.8125 6.39062 42.8594 10.1719
Q46.9219 13.9688 46.9219 20.5156
Q46.9219 27.0938 42.8906 30.8594
Q38.875 34.625 31.7812 34.625
M21.9219 38.8125
Q15.5781 40.375 12.0312 44.7188
Q8.5 49.0781 8.5 55.3281
Q8.5 64.0625 14.7188 69.1406
Q20.9531 74.2188 31.7812 74.2188
Q42.6719 74.2188 48.875 69.1406
Q55.0781 64.0625 55.0781 55.3281
Q55.0781 49.0781 51.5312 44.7188
Q48 40.375 41.7031 38.8125
Q48.8281 37.1562 52.7969 32.3125
Q56.7812 27.4844 56.7812 20.5156
Q56.7812 9.90625 50.3125 4.23438
Q43.8438 -1.42188 31.7812 -1.42188
Q19.7344 -1.42188 13.25 4.23438
Q6.78125 9.90625 6.78125 20.5156
Q6.78125 27.4844 10.7812 32.3125
Q14.7969 37.1562 21.9219 38.8125
M18.3125 54.3906
Q18.3125 48.7344 21.8438 45.5625
Q25.3906 42.3906 31.7812 42.3906
Q38.1406 42.3906 41.7188 45.5625
Q45.3125 48.7344 45.3125 54.3906
Q45.3125 60.0625 41.7188 63.2344
Q38.1406 66.4062 31.7812 66.4062
Q25.3906 66.4062 21.8438 63.2344
Q18.3125 60.0625 18.3125 54.3906" id="DejaVuSans-38"/>
      </defs>
      <g transform="translate(312.96734375 263.421875)scale(0.1 -0.1)">
       <use xlink:href="#DejaVuSans-38"/>
       <use x="63.623046875" xlink:href="#DejaVuSans-30"/>
       <use x="127.24609375" xlink:href="#DejaVuSans-30"/>
      </g>
     </g>
    </g>
    <g id="xtick_6">
     <g id="line2d_21">
      <path clip-path="url(#p124b8dd147)" d="
M388.8 252
L388.8 28.8" style="fill:none;stroke:#000000;stroke-dasharray:1.000000,3.000000;stroke-dashoffset:0.0;stroke-linecap:butt;stroke-width:0.5;"/>
     </g>
     <g id="line2d_22">
      <g>
       <use style="stroke:#000000;stroke-linecap:butt;stroke-width:0.5;" x="388.8" xlink:href="#m0012dd4eef" y="252.0"/>
      </g>
     </g>
     <g id="line2d_23">
      <g>
       <use style="stroke:#000000;stroke-linecap:butt;stroke-width:0.5;" x="388.8" xlink:href="#m476344969c" y="28.8"/>
      </g>
     </g>
     <g id="text_6">
      <!-- 1000 -->
      <defs>
       <path d="
M12.4062 8.29688
L28.5156 8.29688
L28.5156 63.9219
L10.9844 60.4062
L10.9844 69.3906
L28.4219 72.9062
L38.2812 72.9062
L38.2812 8.29688
L54.3906 8.29688
L54.3906 0
L12.4062 0
z
" id="DejaVuSans-31"/>
      </defs>
      <g transform="translate(376.95625 263.421875)scale(0.1 -0.1)">
       <use xlink:href="#DejaVuSans-31"/>
       <use x="63.623046875" xlink:href="#DejaVuSans-30"/>
       <use x="127.24609375" xlink:href="#DejaVuSans-30"/>
       <use x="190.869140625" xlink:href="#DejaVuSans-30"/>
      </g>
     </g>
    </g>
    <g id="text_7">
     <!-- Time (s) -->
     <defs>
      <path d="
M8.01562 75.875
L15.8281 75.875
Q23.1406 64.3594 26.7812 53.3125
Q30.4219 42.2812 30.4219 31.3906
Q30.4219 20.4531 26.7812 9.375
Q23.1406 -1.70312 15.8281 -13.1875
L8.01562 -13.1875
Q14.5 -2 17.7031 9.0625
Q20.9062 20.125 20.9062 31.3906
Q20.9062 42.6719 17.7031 53.6562
Q14.5 64.6562 8.01562 75.875" id="DejaVuSans-29"/>
      <path d="
M52 44.1875
Q55.375 50.25 60.0625 53.125
Q64.75 56 71.0938 56
Q79.6406 56 84.2812 50.0156
Q88.9219 44.0469 88.9219 33.0156
L88.9219 0
L79.8906 0
L79.8906 32.7188
Q79.8906 40.5781 77.0938 44.375
Q74.3125 48.1875 68.6094 48.1875
Q61.625 48.1875 57.5625 43.5469
Q53.5156 38.9219 53.5156 30.9062
L53.5156 0
L44.4844 0
L44.4844 32.7188
Q44.4844 40.625 41.7031 44.4062
Q38.9219 48.1875 33.1094 48.1875
Q26.2188 48.1875 22.1562 43.5312
Q18.1094 38.875 18.1094 30.9062
L18.1094 0
L9.07812 0
L9.07812 54.6875
L18.1094 54.6875
L18.1094 46.1875
Q21.1875 51.2188 25.4844 53.6094
Q29.7812 56 35.6875 56
Q41.6562 56 45.8281 52.9688
Q50 49.9531 52 44.1875" id="DejaVuSans-6d"/>
      <path id="DejaVuSans-20"/>
      <path d="
M9.42188 54.6875
L18.4062 54.6875
L18.4062 0
L9.42188 0
z

M9.42188 75.9844
L18.4062 75.9844
L18.4062 64.5938
L9.42188 64.5938
z
" id="DejaVuSans-69"/>
      <path d="
M31 75.875
Q24.4688 64.6562 21.2812 53.6562
Q18.1094 42.6719 18.1094 31.3906
Q18.1094 20.125 21.3125 9.0625
Q24.5156 -2 31 -13.1875
L23.1875 -13.1875
Q15.875 -1.70312 12.2344 9.375
Q8.59375 20.4531 8.59375 31.3906
Q8.59375 42.2812 12.2031 53.3125
Q15.8281 64.3594 23.1875 75.875
z
" id="DejaVuSans-28"/>
      <path d="
M56.2031 29.5938
L56.2031 25.2031
L14.8906 25.2031
Q15.4844 15.9219 20.4844 11.0625
Q25.4844 6.20312 34.4219 6.20312
Q39.5938 6.20312 44.4531 7.46875
Q49.3125 8.73438 54.1094 11.2812
L54.1094 2.78125
Q49.2656 0.734375 44.1875 -0.34375
Q39.1094 -1.42188 33.8906 -1.42188
Q20.7969 -1.42188 13.1562 6.1875
Q5.51562 13.8125 5.51562 26.8125
Q5.51562 40.2344 12.7656 48.1094
Q20.0156 56 32.3281 56
Q43.3594 56 49.7812 48.8906
Q56.2031 41.7969 56.2031 29.5938
M47.2188 32.2344
Q47.125 39.5938 43.0938 43.9844
Q39.0625 48.3906 32.4219 48.3906
Q24.9062 48.3906 20.3906 44.1406
Q15.875 39.8906 15.1875 32.1719
z
" id="DejaVuSans-65"/>
      <path d="
M44.2812 53.0781
L44.2812 44.5781
Q40.4844 46.5312 36.375 47.5
Q32.2812 48.4844 27.875 48.4844
Q21.1875 48.4844 17.8438 46.4375
Q14.5 44.3906 14.5 40.2812
Q14.5 37.1562 16.8906 35.375
Q19.2812 33.5938 26.5156 31.9844
L29.5938 31.2969
Q39.1562 29.25 43.1875 25.5156
Q47.2188 21.7812 47.2188 15.0938
Q47.2188 7.46875 41.1875 3.01562
Q35.1562 -1.42188 24.6094 -1.42188
Q20.2188 -1.42188 15.4531 -0.5625
Q10.6875 0.296875 5.42188 2
L5.42188 11.2812
Q10.4062 8.6875 15.2344 7.39062
Q20.0625 6.10938 24.8125 6.10938
Q31.1562 6.10938 34.5625 8.28125
Q37.9844 10.4531 37.9844 14.4062
Q37.9844 18.0625 35.5156 20.0156
Q33.0625 21.9688 24.7031 23.7812
L21.5781 24.5156
Q13.2344 26.2656 9.51562 29.9062
Q5.8125 33.5469 5.8125 39.8906
Q5.8125 47.6094 11.2812 51.7969
Q16.75 56 26.8125 56
Q31.7812 56 36.1719 55.2656
Q40.5781 54.5469 44.2812 53.0781" id="DejaVuSans-73"/>
      <path d="
M-0.296875 72.9062
L61.375 72.9062
L61.375 64.5938
L35.5 64.5938
L35.5 0
L25.5938 0
L25.5938 64.5938
L-0.296875 64.5938
z
" id="DejaVuSans-54"/>
     </defs>
     <g transform="translate(201.4859375 276.1625)scale(0.1 -0.1)">
      <use xlink:href="#DejaVuSans-54"/>
      <use x="57.958984375" xlink:href="#DejaVuSans-69"/>
      <use x="85.7421875" xlink:href="#DejaVuSans-6d"/>
      <use x="183.154296875" xlink:href="#DejaVuSans-65"/>
      <use x="244.677734375" xlink:href="#DejaVuSans-20"/>
      <use x="276.46484375" xlink:href="#DejaVuSans-28"/>
      <use x="315.478515625" xlink:href="#DejaVuSans-73"/>
      <use x="367.578125" xlink:href="#DejaVuSans-29"/>
     </g>
    </g>
   </g>
   <g id="matplotlib.axis_2">
    <g id="ytick_1">
     <g id="line2d_24">
      <path clip-path="url(#p124b8dd147)" d="
M54 252
L388.8 252" style="fill:none;stroke:#000000;stroke-dasharray:1.000000,3.000000;stroke-dashoffset:0.0;stroke-linecap:butt;stroke-width:0.5;"/>
     </g>
     <g id="line2d_25">
      <defs>
       <path d="
M0 0
L4 0" id="me8a85f7bf6" style="stroke:#000000;stroke-linecap:butt;stroke-width:0.5;"/>
      </defs>
      <g>
       <use style="stroke:#000000;stroke-linecap:butt;stroke-width:0.5;" x="54.0" xlink:href="#me8a85f7bf6" y="252.0"/>
      </g>
     </g>
     <g id="text_8">
      <!-- 2.40 -->
      <defs>
       <path d="
M10.6875 12.4062
L21 12.4062
L21 0
L10.6875 0
z
" id="DejaVuSans-2e"/>
      </defs>
      <g transform="translate(29.13125 255.63984375)scale(0.1 -0.1)">
       <use xlink:href="#DejaVuSans-32"/>
       <use x="63.623046875" xlink:href="#DejaVuSans-2e"/>
       <use x="95.41015625" xlink:href="#DejaVuSans-34"/>
       <use x="159.033203125" xlink:href="#DejaVuSans-30"/>
      </g>
     </g>
    </g>
    <g id="ytick_2">
     <g id="line2d_26">
      <path clip-path="url(#p124b8dd147)" d="
M54 214.8
L388.8 214.8" style="fill:none;stroke:#000000;stroke-dasharray:1.000000,3.000000;stroke-dashoffset:0.0;stroke-linecap:butt;stroke-width:0.5;"/>
     </g>
     <g id="line2d_27">
      <g>
       <use style="stroke:#000000;stroke-linecap:butt;stroke-width:0.5;" x="54.0" xlink:href="#me8a85f7bf6" y="214.8"/>
      </g>
     </g>
     <g id="text_9">
      <!-- 2.45 -->
      <defs>
       <path d="
M10.7969 72.9062
L49.5156 72.9062
L49.5156 64.5938
L19.8281 64.5938
L19.8281 46.7344
Q21.9688 47.4688 24.1094 47.8281
Q26.2656 48.1875 28.4219 48.1875
Q40.625 48.1875 47.75 41.5
Q54.8906 34.8125 54.8906 23.3906
Q54.8906 11.625 47.5625 5.09375
Q40.2344 -1.42188 26.9062 -1.42188
Q22.3125 -1.42188 17.5469 -0.640625
Q12.7969 0.140625 7.71875 1.70312
L7.71875 11.625
Q12.1094 9.23438 16.7969 8.0625
Q21.4844 6.89062 26.7031 6.89062
Q35.1562 6.89062 40.0781 11.3281
Q45.0156 15.7656 45.0156 23.3906
Q45.0156 31 40.0781 35.4375
Q35.1562 39.8906 26.7031 39.8906
Q22.75 39.8906 18.8125 39.0156
Q14.8906 38.1406 10.7969 36.2812
z
" id="DejaVuSans-35"/>
      </defs>
      <g transform="translate(29.340625 218.43984375)scale(0.1 -0.1)">
       <use xlink:href="#DejaVuSans-32"/>
       <use x="63.623046875" xlink:href="#DejaVuSans-2e"/>
       <use x="95.41015625" xlink:href="#DejaVuSans-34"/>
       <use x="159.033203125" xlink:href="#DejaVuSans-35"/>
      </g>
     </g>
    </g>
    <g id="ytick_3">
     <g id="line2d_28">
      <path clip-path="url(#p124b8dd147)" d="
M54 177.6
L388.8 177.6" style="fill:none;stroke:#000000;stroke-dasharray:1.000000,3.000000;stroke-dashoffset:0.0;stroke-linecap:butt;stroke-width:0.5;"/>
     </g>
     <g id="line2d_29">
      <g>
       <use style="stroke:#000000;stroke-linecap:butt;stroke-width:0.5;" x="54.0" xlink:href="#me8a85f7bf6" y="177.6"/>
      </g>
     </g>
     <g id="text_10">
      <!-- 2.50 -->
      <g transform="translate(29.13125 181.23984375)scale(0.1 -0.1)">
       <use xlink:href="#DejaVuSans-32"/>
       <use x="63.623046875" xlink:href="#DejaVuSans-2e"/>
       <use x="95.41015625" xlink:href="#DejaVuSans-35"/>
       <use x="159.033203125" xlink:href="#DejaVuSans-30"/>
      </g>
     </g>
    </g>
    <g id="ytick_4">
     <g id="line2d_30">
      <path clip-path="url(#p124b8dd147)" d="
M54 140.4
L388.8 140.4" style="fill:none;stroke:#000000;stroke-dasharray:1.000000,3.000000;stroke-dashoffset:0.0;stroke-linecap:butt;stroke-width:0.5;"/>
     </g>
     <g id="line2d_31">
      <g>
       <use style="stroke:#000000;stroke-linecap:butt;stroke-width:0.5;" x="54.0" xlink:href="#me8a85f7bf6" y="140.4"/>
      </g>
     </g>
     <g id="text_11">
      <!-- 2.55 -->
      <g transform="translate(29.340625 144.03984375)scale(0.1 -0.1)">
       <use xlink:href="#DejaVuSans-32"/>
       <use x="63.623046875" xlink:href="#DejaVuSans-2e"/>
       <use x="95.41015625" xlink:href="#DejaVuSans-35"/>
       <use x="159.033203125" xlink:href="#DejaVuSans-35"/>
      </g>
     </g>
    </g>
    <g id="ytick_5">
     <g id="line2d_32">
      <path clip-path="url(#p124b8dd147)" d="
M54 103.2
L388.8 103.2" style="fill:none;stroke:#000000;stroke-dasharray:1.000000,3.000000;stroke-dashoffset:0.0;stroke-linecap:butt;stroke-width:0.5;"/>
     </g>
     <g id="line2d_33">
      <g>
       <use style="stroke:#000000;stroke-linecap:butt;stroke-width:0.5;" x="54.0" xlink:href="#me8a85f7bf6" y="103.2"/>
      </g>
     </g>
     <g id="text_12">
      <!-- 2.60 -->
      <g transform="translate(29.13125 106.83984375)scale(0.1 -0.1)">
       <use xlink:href="#DejaVuSans-32"/>
       <use x="63.623046875" xlink:href="#DejaVuSans-2e"/>
       <use x="95.41015625" xlink:href="#DejaVuSans-36"/>
       <use x="159.033203125" xlink:href="#DejaVuSans-30"/>
      </g>
     </g>
    </g>
    <g id="ytick_6">
     <g id="line2d_34">
      <path clip-path="url(#p124b8dd147)" d="
M54 66
L388.8 66" style="fill:none;stroke:#000000;stroke-dasharray:1.000000,3.000000;stroke-dashoffset:0.0;stroke-linecap:butt;stroke-width:0.5;"/>
     </g>
     <g id="line2d_35">
      <g>
       <use style="stroke:#000000;stroke-linecap:butt;stroke-width:0.5;" x="54.0" xlink:href="#me8a85f7bf6" y="66.0"/>
      </g>
     </g>
     <g id="text_13">
      <!-- 2.65 -->
      <g transform="translate(29.340625 69.63984375)scale(0.1 -0.1)">
       <use xlink:href="#DejaVuSans-32"/>
       <use x="63.623046875" xlink:href="#DejaVuSans-2e"/>
       <use x="95.41015625" xlink:href="#DejaVuSans-36"/>
       <use x="159.033203125" xlink:href="#DejaVuSans-35"/>
      </g>
     </g>
    </g>
    <g id="ytick_7">
     <g id="line2d_36">
      <path clip-path="url(#p124b8dd147)" d="
M54 28.8
L388.8 28.8" style="fill:none;stroke:#000000;stroke-dasharray:1.000000,3.000000;stroke-dashoffset:0.0;stroke-linecap:butt;stroke-width:0.5;"/>
     </g>
     <g id="line2d_37">
      <g>
       <use style="stroke:#000000;stroke-linecap:butt;stroke-width:0.5;" x="54.0" xlink:href="#me8a85f7bf6" y="28.8"/>
      </g>
     </g>
     <g id="text_14">
      <!-- 2.70 -->
      <defs>
       <path d="
M8.20312 72.9062
L55.0781 72.9062
L55.0781 68.7031
L28.6094 0
L18.3125 0
L43.2188 64.5938
L8.20312 64.5938
z
" id="DejaVuSans-37"/>
      </defs>
      <g transform="translate(29.13125 32.43984375)scale(0.1 -0.1)">
       <use xlink:href="#DejaVuSans-32"/>
       <use x="63.623046875" xlink:href="#DejaVuSans-2e"/>
       <use x="95.41015625" xlink:href="#DejaVuSans-37"/>
       <use x="159.033203125" xlink:href="#DejaVuSans-30"/>
      </g>
     </g>
    </g>
    <g id="text_15">
     <!-- Memory usage (GB) -->
     <defs>
      <path d="
M9.8125 72.9062
L24.5156 72.9062
L43.1094 23.2969
L61.8125 72.9062
L76.5156 72.9062
L76.5156 0
L66.8906 0
L66.8906 64.0156
L48.0938 14.0156
L38.1875 14.0156
L19.3906 64.0156
L19.3906 0
L9.8125 0
z
" id="DejaVuSans-4d"/>
      <path d="
M30.6094 48.3906
Q23.3906 48.3906 19.1875 42.75
Q14.9844 37.1094 14.9844 27.2969
Q14.9844 17.4844 19.1562 11.8438
Q23.3438 6.20312 30.6094 6.20312
Q37.7969 6.20312 41.9844 11.8594
Q46.1875 17.5312 46.1875 27.2969
Q46.1875 37.0156 41.9844 42.7031
Q37.7969 48.3906 30.6094 48.3906
M30.6094 56
Q42.3281 56 49.0156 48.375
Q55.7188 40.7656 55.7188 27.2969
Q55.7188 13.875 49.0156 6.21875
Q42.3281 -1.42188 30.6094 -1.42188
Q18.8438 -1.42188 12.1719 6.21875
Q5.51562 13.875 5.51562 27.2969
Q5.51562 40.7656 12.1719 48.375
Q18.8438 56 30.6094 56" id="DejaVuSans-6f"/>
      <path d="
M59.5156 10.4062
L59.5156 29.9844
L43.4062 29.9844
L43.4062 38.0938
L69.2812 38.0938
L69.2812 6.78125
Q63.5781 2.73438 56.6875 0.65625
Q49.8125 -1.42188 42 -1.42188
Q24.9062 -1.42188 15.25 8.5625
Q5.60938 18.5625 5.60938 36.375
Q5.60938 54.25 15.25 64.2344
Q24.9062 74.2188 42 74.2188
Q49.125 74.2188 55.5469 72.4531
Q61.9688 70.7031 67.3906 67.2812
L67.3906 56.7812
Q61.9219 61.4219 55.7656 63.7656
Q49.6094 66.1094 42.8281 66.1094
Q29.4375 66.1094 22.7188 58.6406
Q16.0156 51.1719 16.0156 36.375
Q16.0156 21.625 22.7188 14.1562
Q29.4375 6.6875 42.8281 6.6875
Q48.0469 6.6875 52.1406 7.59375
Q56.25 8.5 59.5156 10.4062" id="DejaVuSans-47"/>
      <path d="
M32.1719 -5.07812
Q28.375 -14.8438 24.75 -17.8125
Q21.1406 -20.7969 15.0938 -20.7969
L7.90625 -20.7969
L7.90625 -13.2812
L13.1875 -13.2812
Q16.8906 -13.2812 18.9375 -11.5156
Q21 -9.76562 23.4844 -3.21875
L25.0938 0.875
L2.98438 54.6875
L12.5 54.6875
L29.5938 11.9219
L46.6875 54.6875
L56.2031 54.6875
z
" id="DejaVuSans-79"/>
      <path d="
M19.6719 34.8125
L19.6719 8.10938
L35.5 8.10938
Q43.4531 8.10938 47.2812 11.4062
Q51.125 14.7031 51.125 21.4844
Q51.125 28.3281 47.2812 31.5625
Q43.4531 34.8125 35.5 34.8125
z

M19.6719 64.7969
L19.6719 42.8281
L34.2812 42.8281
Q41.5 42.8281 45.0312 45.5312
Q48.5781 48.25 48.5781 53.8125
Q48.5781 59.3281 45.0312 62.0625
Q41.5 64.7969 34.2812 64.7969
z

M9.8125 72.9062
L35.0156 72.9062
Q46.2969 72.9062 52.3906 68.2188
Q58.5 63.5312 58.5 54.8906
Q58.5 48.1875 55.375 44.2344
Q52.25 40.2812 46.1875 39.3125
Q53.4688 37.75 57.5 32.7812
Q61.5312 27.8281 61.5312 20.4062
Q61.5312 10.6406 54.8906 5.3125
Q48.25 0 35.9844 0
L9.8125 0
z
" id="DejaVuSans-42"/>
      <path d="
M8.5 21.5781
L8.5 54.6875
L17.4844 54.6875
L17.4844 21.9219
Q17.4844 14.1562 20.5 10.2656
Q23.5312 6.39062 29.5938 6.39062
Q36.8594 6.39062 41.0781 11.0312
Q45.3125 15.6719 45.3125 23.6875
L45.3125 54.6875
L54.2969 54.6875
L54.2969 0
L45.3125 0
L45.3125 8.40625
Q42.0469 3.42188 37.7188 1
Q33.4062 -1.42188 27.6875 -1.42188
Q18.2656 -1.42188 13.375 4.4375
Q8.5 10.2969 8.5 21.5781
M31.1094 56
z
" id="DejaVuSans-75"/>
      <path d="
M45.4062 27.9844
Q45.4062 37.75 41.375 43.1094
Q37.3594 48.4844 30.0781 48.4844
Q22.8594 48.4844 18.8281 43.1094
Q14.7969 37.75 14.7969 27.9844
Q14.7969 18.2656 18.8281 12.8906
Q22.8594 7.51562 30.0781 7.51562
Q37.3594 7.51562 41.375 12.8906
Q45.4062 18.2656 45.4062 27.9844
M54.3906 6.78125
Q54.3906 -7.17188 48.1875 -13.9844
Q42 -20.7969 29.2031 -20.7969
Q24.4688 -20.7969 20.2656 -20.0938
Q16.0625 -19.3906 12.1094 -17.9219
L12.1094 -9.1875
Q16.0625 -11.3281 19.9219 -12.3438
Q23.7812 -13.375 27.7812 -13.375
Q36.625 -13.375 41.0156 -8.76562
Q45.4062 -4.15625 45.4062 5.17188
L45.4062 9.625
Q42.625 4.78125 38.2812 2.39062
Q33.9375 0 27.875 0
Q17.8281 0 11.6719 7.65625
Q5.51562 15.3281 5.51562 27.9844
Q5.51562 40.6719 11.6719 48.3281
Q17.8281 56 27.875 56
Q33.9375 56 38.2812 53.6094
Q42.625 51.2188 45.4062 46.3906
L45.4062 54.6875
L54.3906 54.6875
z
" id="DejaVuSans-67"/>
      <path d="
M41.1094 46.2969
Q39.5938 47.1719 37.8125 47.5781
Q36.0312 48 33.8906 48
Q26.2656 48 22.1875 43.0469
Q18.1094 38.0938 18.1094 28.8125
L18.1094 0
L9.07812 0
L9.07812 54.6875
L18.1094 54.6875
L18.1094 46.1875
Q20.9531 51.1719 25.4844 53.5781
Q30.0312 56 36.5312 56
Q37.4531 56 38.5781 55.875
Q39.7031 55.7656 41.0625 55.5156
z
" id="DejaVuSans-72"/>
      <path d="
M34.2812 27.4844
Q23.3906 27.4844 19.1875 25
Q14.9844 22.5156 14.9844 16.5
Q14.9844 11.7188 18.1406 8.90625
Q21.2969 6.10938 26.7031 6.10938
Q34.1875 6.10938 38.7031 11.4062
Q43.2188 16.7031 43.2188 25.4844
L43.2188 27.4844
z

M52.2031 31.2031
L52.2031 0
L43.2188 0
L43.2188 8.29688
Q40.1406 3.32812 35.5469 0.953125
Q30.9531 -1.42188 24.3125 -1.42188
Q15.9219 -1.42188 10.9531 3.29688
Q6 8.01562 6 15.9219
Q6 25.1406 12.1719 29.8281
Q18.3594 34.5156 30.6094 34.5156
L43.2188 34.5156
L43.2188 35.4062
Q43.2188 41.6094 39.1406 45
Q35.0625 48.3906 27.6875 48.3906
Q23 48.3906 18.5469 47.2656
Q14.1094 46.1406 10.0156 43.8906
L10.0156 52.2031
Q14.9375 54.1094 19.5781 55.0469
Q24.2188 56 28.6094 56
Q40.4844 56 46.3438 49.8438
Q52.2031 43.7031 52.2031 31.2031" id="DejaVuSans-61"/>
     </defs>
     <g transform="translate(24.13125 187.6984375)rotate(-90.0)scale(0.1 -0.1)">
      <use xlink:href="#DejaVuSans-4d"/>
      <use x="86.279296875" xlink:href="#DejaVuSans-65"/>
      <use x="147.802734375" xlink:href="#DejaVuSans-6d"/>
      <use x="245.21484375" xlink:href="#DejaVuSans-6f"/>
      <use x="306.396484375" xlink:href="#DejaVuSans-72"/>
      <use x="347.509765625" xlink:href="#DejaVuSans-79"/>
      <use x="406.689453125" xlink:href="#DejaVuSans-20"/>
      <use x="438.4765625" xlink:href="#DejaVuSans-75"/>
      <use x="501.85546875" xlink:href="#DejaVuSans-73"/>
      <use x="553.955078125" xlink:href="#DejaVuSans-61"/>
      <use x="615.234375" xlink:href="#DejaVuSans-67"/>
      <use x="678.7109375" xlink:href="#DejaVuSans-65"/>
      <use x="740.234375" xlink:href="#DejaVuSans-20"/>
      <use x="772.021484375" xlink:href="#DejaVuSans-28"/>
      <use x="811.03515625" xlink:href="#DejaVuSans-47"/>
      <use x="888.525390625" xlink:href="#DejaVuSans-42"/>
      <use x="957.12890625" xlink:href="#DejaVuSans-29"/>
     </g>
    </g>
    <g id="text_16">
     <!-- 1e10 -->
     <g transform="translate(54.0 25.8)scale(0.1 -0.1)">
      <use xlink:href="#DejaVuSans-31"/>
      <use x="63.623046875" xlink:href="#DejaVuSans-65"/>
      <use x="125.146484375" xlink:href="#DejaVuSans-31"/>
      <use x="188.76953125" xlink:href="#DejaVuSans-30"/>
     </g>
    </g>
   </g>
   <g id="patch_3">
    <path d="
M54 28.8
L388.8 28.8" style="fill:none;stroke:#000000;"/>
   </g>
   <g id="patch_4">
    <path d="
M388.8 252
L388.8 28.8" style="fill:none;stroke:#000000;"/>
   </g>
   <g id="patch_5">
    <path d="
M54 252
L388.8 252" style="fill:none;stroke:#000000;"/>
   </g>
   <g id="patch_6">
    <path d="
M54 252
L54 28.8" style="fill:none;stroke:#000000;"/>
   </g>
   <g id="text_17">
    <!-- Memory usage -->
    <g transform="translate(177.3046875 23.8)scale(0.12 -0.12)">
     <use xlink:href="#DejaVuSans-4d"/>
     <use x="86.279296875" xlink:href="#DejaVuSans-65"/>
     <use x="147.802734375" xlink:href="#DejaVuSans-6d"/>
     <use x="245.21484375" xlink:href="#DejaVuSans-6f"/>
     <use x="306.396484375" xlink:href="#DejaVuSans-72"/>
     <use x="347.509765625" xlink:href="#DejaVuSans-79"/>
     <use x="406.689453125" xlink:href="#DejaVuSans-20"/>
     <use x="438.4765625" xlink:href="#DejaVuSans-75"/>
     <use x="501.85546875" xlink:href="#DejaVuSans-73"/>
     <use x="553.955078125" xlink:href="#DejaVuSans-61"/>
     <use x="615.234375" xlink:href="#DejaVuSans-67"/>
     <use x="678.7109375" xlink:href="#DejaVuSans-65"/>
    </g>
   </g>
   <g id="legend_1">
    <g id="patch_7">
     <path d="
M60 246
L192.726 246
L192.726 207.173
L60 207.173
L60 246
z
" style="fill:#ffffff;stroke:#000000;"/>
    </g>
    <g id="line2d_38">
     <path d="
M68.4 216.891
L85.2 216.891" style="fill:none;stroke:#ff0000;"/>
    </g>
    <g id="line2d_39"/>
    <g id="text_18">
     <!-- memory usage -->
     <g transform="translate(98.4 221.090625)scale(0.12 -0.12)">
      <use xlink:href="#DejaVuSans-6d"/>
      <use x="97.412109375" xlink:href="#DejaVuSans-65"/>
      <use x="158.935546875" xlink:href="#DejaVuSans-6d"/>
      <use x="256.34765625" xlink:href="#DejaVuSans-6f"/>
      <use x="317.529296875" xlink:href="#DejaVuSans-72"/>
      <use x="358.642578125" xlink:href="#DejaVuSans-79"/>
      <use x="417.822265625" xlink:href="#DejaVuSans-20"/>
      <use x="449.609375" xlink:href="#DejaVuSans-75"/>
      <use x="512.98828125" xlink:href="#DejaVuSans-73"/>
      <use x="565.087890625" xlink:href="#DejaVuSans-61"/>
      <use x="626.3671875" xlink:href="#DejaVuSans-67"/>
      <use x="689.84375" xlink:href="#DejaVuSans-65"/>
     </g>
    </g>
    <g id="line2d_40">
     <path d="
M68.4 234.504
L85.2 234.504" style="fill:none;stroke:#0000ff;"/>
    </g>
    <g id="line2d_41"/>
    <g id="text_19">
     <!-- throughput -->
     <defs>
      <path d="
M18.3125 70.2188
L18.3125 54.6875
L36.8125 54.6875
L36.8125 47.7031
L18.3125 47.7031
L18.3125 18.0156
Q18.3125 11.3281 20.1406 9.42188
Q21.9688 7.51562 27.5938 7.51562
L36.8125 7.51562
L36.8125 0
L27.5938 0
Q17.1875 0 13.2344 3.875
Q9.28125 7.76562 9.28125 18.0156
L9.28125 47.7031
L2.6875 47.7031
L2.6875 54.6875
L9.28125 54.6875
L9.28125 70.2188
z
" id="DejaVuSans-74"/>
      <path d="
M18.1094 8.20312
L18.1094 -20.7969
L9.07812 -20.7969
L9.07812 54.6875
L18.1094 54.6875
L18.1094 46.3906
Q20.9531 51.2656 25.2656 53.625
Q29.5938 56 35.5938 56
Q45.5625 56 51.7812 48.0938
Q58.0156 40.1875 58.0156 27.2969
Q58.0156 14.4062 51.7812 6.48438
Q45.5625 -1.42188 35.5938 -1.42188
Q29.5938 -1.42188 25.2656 0.953125
Q20.9531 3.32812 18.1094 8.20312
M48.6875 27.2969
Q48.6875 37.2031 44.6094 42.8438
Q40.5312 48.4844 33.4062 48.4844
Q26.2656 48.4844 22.1875 42.8438
Q18.1094 37.2031 18.1094 27.2969
Q18.1094 17.3906 22.1875 11.75
Q26.2656 6.10938 33.4062 6.10938
Q40.5312 6.10938 44.6094 11.75
Q48.6875 17.3906 48.6875 27.2969" id="DejaVuSans-70"/>
      <path d="
M54.8906 33.0156
L54.8906 0
L45.9062 0
L45.9062 32.7188
Q45.9062 40.4844 42.875 44.3281
Q39.8438 48.1875 33.7969 48.1875
Q26.5156 48.1875 22.3125 43.5469
Q18.1094 38.9219 18.1094 30.9062
L18.1094 0
L9.07812 0
L9.07812 75.9844
L18.1094 75.9844
L18.1094 46.1875
Q21.3438 51.125 25.7031 53.5625
Q30.0781 56 35.7969 56
Q45.2188 56 50.0469 50.1719
Q54.8906 44.3438 54.8906 33.0156" id="DejaVuSans-68"/>
     </defs>
     <g transform="translate(98.4 238.704375)scale(0.12 -0.12)">
      <use xlink:href="#DejaVuSans-74"/>
      <use x="39.208984375" xlink:href="#DejaVuSans-68"/>
      <use x="102.587890625" xlink:href="#DejaVuSans-72"/>
      <use x="141.451171875" xlink:href="#DejaVuSans-6f"/>
      <use x="202.6328125" xlink:href="#DejaVuSans-75"/>
      <use x="266.01171875" xlink:href="#DejaVuSans-67"/>
      <use x="329.48828125" xlink:href="#DejaVuSans-68"/>
      <use x="392.8671875" xlink:href="#DejaVuSans-70"/>
      <use x="456.34375" xlink:href="#DejaVuSans-75"/>
      <use x="519.72265625" xlink:href="#DejaVuSans-74"/>
     </g>
    </g>
   </g>
  </g>
  <g id="axes_2">
   <g id="line2d_42">
    <path clip-path="url(#p124b8dd147)" d="
M54 200.955
L55.6653 160.196
L57.3307 147.332
L58.996 165.431
L60.6613 171.937
L62.3266 148.529
L63.992 128.86
L65.6573 94.9811
L67.3226 141.574
L68.988 116.744
L70.6533 113.005
L72.3186 110.986
L73.984 148.23
L75.6493 172.012
L77.3146 160.944
L78.9799 160.794
L80.6453 115.323
L82.3106 108.218
L83.9759 111.808
L85.6413 88.7737
L87.3066 105.676
L88.9719 134.02
L90.6373 171.189
L92.3026 175.527
L93.9679 115.398
L95.6332 108.218
L97.2986 110.462
L98.9639 109.639
L100.629 114.426
L102.295 111.958
L103.96 113.603
L105.625 100.665
L107.291 117.941
L108.956 118.838
L110.621 118.165
L112.287 113.229
L113.952 106.124
L115.617 113.379
L117.283 123.625
L118.948 123.4
L120.613 115.473
L122.279 122.428
L123.944 114.65
L125.609 110.238
L127.275 129.832
L128.94 126.915
L130.605 123.101
L132.27 125.494
L133.936 107.695
L135.601 73.1432
L137.266 77.0321
L138.932 60.1302
L140.597 60.5789
L142.262 57.8118
L143.928 62.6729
L145.593 57.2135
L147.258 65.8888
L148.924 47.7903
L150.589 52.8758
L152.254 54.6707
L153.92 51.1557
L155.585 67.1602
L157.25 64.767
L158.916 46.2197
L160.581 55.1942
L162.246 61.4763
L163.912 60.4293
L165.577 55.8673
L167.242 63.2712
L168.908 51.5296
L170.573 65.6644
L173.904 68.5064
L175.569 82.9403
L177.234 62.2242
L178.9 63.9443
L180.565 72.6945
L182.23 67.9081
L183.896 84.5109
L185.561 77.1069
L187.226 93.7097
L188.892 85.4831
L190.557 82.2672
L192.222 79.3505
L193.888 75.6112
L195.553 85.6327
L197.218 82.7907
L198.884 80.9958
L200.549 91.7652
L202.214 62.2242
L203.88 74.7885
L205.545 83.9126
L207.21 85.4831
L208.876 46.8928
L210.541 45.3223
L212.206 60.4293
L213.872 84.1369
L215.537 133.123
L217.202 142.247
L218.868 145.089
L220.533 153.016
L222.198 163.262
L223.864 166.927
L225.529 159.298
L227.194 114.575
L228.86 165.805
L230.525 154.886
L232.19 118.689
L233.856 143.967
L235.521 172.835
L237.186 158.027
L238.852 150.847
L240.517 155.334
L242.182 187.568
L243.848 173.283
L245.513 179.042
L247.178 185.474
L248.844 139.554
L250.509 154.961
L252.174 162.888
L253.84 179.341
L255.505 171.788
L257.17 167.674
L258.836 165.58
L260.501 146.136
L262.166 205.666
L263.832 229
L265.497 224.737
L267.162 221.297
L268.828 239.47
L270.493 168.721
L272.158 181.435
L273.824 224.962
L275.489 240.517
L277.154 225.709
L278.82 167.001
L280.485 193.252
L282.15 207.835
L283.815 225.261
L285.481 243.957
L287.146 184.053
L288.811 176.2
L290.477 202.226
L292.142 198.412
L293.807 209.78
L295.473 101.488
L297.138 95.2802
L298.803 84.0621
L300.469 74.265
L302.134 101.114
L303.799 224.438
L305.465 98.3465
L307.13 120.633
L308.795 107.396
L310.461 100.964
L312.126 80.6967
L313.791 86.4553
L315.457 96.5516
L317.122 89.8208
L318.787 94.6819
L320.453 84.8848
L322.118 93.4853
L325.449 138.657
L327.114 151.296
L328.779 105.302
L330.445 92.9618
L332.11 89.2972
L333.775 113.902
L335.441 92.5131
L338.771 131.552
L340.437 148.005
L342.102 122.353
L343.767 82.4916
L345.433 73.2927
L347.098 92.2887
L348.763 83.6134
L350.429 82.4168
L352.094 82.716
L353.759 83.389
L355.425 92.2887
L357.09 86.0814
L358.755 105.975
L360.421 149.725
L362.086 66.3375
L363.751 71.7222
L365.417 95.4298
L367.082 112.407
L368.747 122.727
L370.413 148.604
L372.078 85.0344
L373.743 88.9981
L373.743 88.9981" style="fill:none;stroke:#0000ff;"/>
   </g>
   <g id="matplotlib.axis_3">
    <g id="ytick_8">
     <g id="line2d_43">
      <defs>
       <path d="
M0 0
L-4 0" id="m1a32005dea" style="stroke:#000000;stroke-linecap:butt;stroke-width:0.5;"/>
      </defs>
      <g>
       <use style="stroke:#000000;stroke-linecap:butt;stroke-width:0.5;" x="388.8" xlink:href="#m1a32005dea" y="252.0"/>
      </g>
     </g>
     <g id="text_20">
      <!-- 600 -->
      <g transform="translate(392.8 255.63984375)scale(0.1 -0.1)">
       <use xlink:href="#DejaVuSans-36"/>
       <use x="63.623046875" xlink:href="#DejaVuSans-30"/>
       <use x="127.24609375" xlink:href="#DejaVuSans-30"/>
      </g>
     </g>
    </g>
    <g id="ytick_9">
     <g id="line2d_44">
      <g>
       <use style="stroke:#000000;stroke-linecap:butt;stroke-width:0.5;" x="388.8" xlink:href="#m1a32005dea" y="214.8"/>
      </g>
     </g>
     <g id="text_21">
      <!-- 700 -->
      <g transform="translate(392.8 218.43984375)scale(0.1 -0.1)">
       <use xlink:href="#DejaVuSans-37"/>
       <use x="63.623046875" xlink:href="#DejaVuSans-30"/>
       <use x="127.24609375" xlink:href="#DejaVuSans-30"/>
      </g>
     </g>
    </g>
    <g id="ytick_10">
     <g id="line2d_45">
      <g>
       <use style="stroke:#000000;stroke-linecap:butt;stroke-width:0.5;" x="388.8" xlink:href="#m1a32005dea" y="177.6"/>
      </g>
     </g>
     <g id="text_22">
      <!-- 800 -->
      <g transform="translate(392.8 181.23984375)scale(0.1 -0.1)">
       <use xlink:href="#DejaVuSans-38"/>
       <use x="63.623046875" xlink:href="#DejaVuSans-30"/>
       <use x="127.24609375" xlink:href="#DejaVuSans-30"/>
      </g>
     </g>
    </g>
    <g id="ytick_11">
     <g id="line2d_46">
      <g>
       <use style="stroke:#000000;stroke-linecap:butt;stroke-width:0.5;" x="388.8" xlink:href="#m1a32005dea" y="140.4"/>
      </g>
     </g>
     <g id="text_23">
      <!-- 900 -->
      <defs>
       <path d="
M10.9844 1.51562
L10.9844 10.5
Q14.7031 8.73438 18.5 7.8125
Q22.3125 6.89062 25.9844 6.89062
Q35.75 6.89062 40.8906 13.4531
Q46.0469 20.0156 46.7812 33.4062
Q43.9531 29.2031 39.5938 26.9531
Q35.25 24.7031 29.9844 24.7031
Q19.0469 24.7031 12.6719 31.3125
Q6.29688 37.9375 6.29688 49.4219
Q6.29688 60.6406 12.9375 67.4219
Q19.5781 74.2188 30.6094 74.2188
Q43.2656 74.2188 49.9219 64.5156
Q56.5938 54.8281 56.5938 36.375
Q56.5938 19.1406 48.4062 8.85938
Q40.2344 -1.42188 26.4219 -1.42188
Q22.7031 -1.42188 18.8906 -0.6875
Q15.0938 0.046875 10.9844 1.51562
M30.6094 32.4219
Q37.25 32.4219 41.125 36.9531
Q45.0156 41.5 45.0156 49.4219
Q45.0156 57.2812 41.125 61.8438
Q37.25 66.4062 30.6094 66.4062
Q23.9688 66.4062 20.0938 61.8438
Q16.2188 57.2812 16.2188 49.4219
Q16.2188 41.5 20.0938 36.9531
Q23.9688 32.4219 30.6094 32.4219" id="DejaVuSans-39"/>
      </defs>
      <g transform="translate(392.8 144.03984375)scale(0.1 -0.1)">
       <use xlink:href="#DejaVuSans-39"/>
       <use x="63.623046875" xlink:href="#DejaVuSans-30"/>
       <use x="127.24609375" xlink:href="#DejaVuSans-30"/>
      </g>
     </g>
    </g>
    <g id="ytick_12">
     <g id="line2d_47">
      <g>
       <use style="stroke:#000000;stroke-linecap:butt;stroke-width:0.5;" x="388.8" xlink:href="#m1a32005dea" y="103.2"/>
      </g>
     </g>
     <g id="text_24">
      <!-- 1000 -->
      <g transform="translate(392.8 106.83984375)scale(0.1 -0.1)">
       <use xlink:href="#DejaVuSans-31"/>
       <use x="63.623046875" xlink:href="#DejaVuSans-30"/>
       <use x="127.24609375" xlink:href="#DejaVuSans-30"/>
       <use x="190.869140625" xlink:href="#DejaVuSans-30"/>
      </g>
     </g>
    </g>
    <g id="ytick_13">
     <g id="line2d_48">
      <g>
       <use style="stroke:#000000;stroke-linecap:butt;stroke-width:0.5;" x="388.8" xlink:href="#m1a32005dea" y="66.0"/>
      </g>
     </g>
     <g id="text_25">
      <!-- 1100 -->
      <g transform="translate(392.8 69.63984375)scale(0.1 -0.1)">
       <use xlink:href="#DejaVuSans-31"/>
       <use x="63.623046875" xlink:href="#DejaVuSans-31"/>
       <use x="127.24609375" xlink:href="#DejaVuSans-30"/>
       <use x="190.869140625" xlink:href="#DejaVuSans-30"/>
      </g>
     </g>
    </g>
    <g id="ytick_14">
     <g id="line2d_49">
      <g>
       <use style="stroke:#000000;stroke-linecap:butt;stroke-width:0.5;" x="388.8" xlink:href="#m1a32005dea" y="28.8"/>
      </g>
     </g>
     <g id="text_26">
      <!-- 1200 -->
      <g transform="translate(392.8 32.43984375)scale(0.1 -0.1)">
       <use xlink:href="#DejaVuSans-31"/>
       <use x="63.623046875" xlink:href="#DejaVuSans-32"/>
       <use x="127.24609375" xlink:href="#DejaVuSans-30"/>
       <use x="190.869140625" xlink:href="#DejaVuSans-30"/>
      </g>
     </g>
    </g>
    <g id="text_27">
     <!-- Throughput T/s -->
     <defs>
      <path d="
M25.3906 72.9062
L33.6875 72.9062
L8.29688 -9.28125
L0 -9.28125
z
" id="DejaVuSans-2f"/>
     </defs>
     <g transform="translate(431.165625 176.06328125)rotate(-90.0)scale(0.1 -0.1)">
      <use xlink:href="#DejaVuSans-54"/>
      <use x="61.083984375" xlink:href="#DejaVuSans-68"/>
      <use x="124.462890625" xlink:href="#DejaVuSans-72"/>
      <use x="163.326171875" xlink:href="#DejaVuSans-6f"/>
      <use x="224.5078125" xlink:href="#DejaVuSans-75"/>
      <use x="287.88671875" xlink:href="#DejaVuSans-67"/>
      <use x="351.36328125" xlink:href="#DejaVuSans-68"/>
      <use x="414.7421875" xlink:href="#DejaVuSans-70"/>
      <use x="478.21875" xlink:href="#DejaVuSans-75"/>
      <use x="541.59765625" xlink:href="#DejaVuSans-74"/>
      <use x="580.806640625" xlink:href="#DejaVuSans-20"/>
      <use x="612.59375" xlink:href="#DejaVuSans-54"/>
      <use x="673.677734375" xlink:href="#DejaVuSans-2f"/>
      <use x="707.369140625" xlink:href="#DejaVuSans-73"/>
     </g>
    </g>
   </g>
  </g>
 </g>
 <defs>
  <clipPath id="p124b8dd147">
   <rect height="223.2" width="334.8" x="54.0" y="28.8"/>
  </clipPath>
 </defs>
</svg>
