<?xml version="1.0" encoding="utf-8" standalone="no"?>
<!DOCTYPE svg PUBLIC "-//W3C//DTD SVG 1.1//EN"
  "http://www.w3.org/Graphics/SVG/1.1/DTD/svg11.dtd">
<!-- Created with matplotlib (http://matplotlib.sourceforge.net/) -->
<svg height="288pt" version="1.1" viewBox="0 0 432 288" width="432pt" xmlns="http://www.w3.org/2000/svg" xmlns:xlink="http://www.w3.org/1999/xlink">
 <defs>
  <style type="text/css">
*{stroke-linecap:square;stroke-linejoin:round;}
  </style>
 </defs>
 <g id="figure_1">
  <g id="patch_1">
   <path d="
M0 288
L432 288
L432 0
L0 0
z
" style="fill:#ffffff;"/>
  </g>
  <g id="patch_2">
   <path d="
M54 252
L388.8 252
L388.8 28.8
L54 28.8
z
" style="fill:#ffffff;"/>
  </g>
  <g id="pane3d_1">
   <g id="patch_3">
    <path d="
M96.0084 190.422
L225.924 146.547
L225.924 42.1272
L89.061 81.5096" style="fill:#f2f2f2;opacity:0.5;stroke:#f2f2f2;"/>
   </g>
  </g>
  <g id="pane3d_2">
   <g id="patch_4">
    <path d="
M225.924 146.547
L355.84 190.422
L362.788 81.5096
L225.924 42.1272" style="fill:#e6e6e6;opacity:0.5;stroke:#e6e6e6;"/>
   </g>
  </g>
  <g id="pane3d_3">
   <g id="patch_5">
    <path d="
M96.0084 190.422
L225.924 240.114
L355.84 190.422
L225.924 146.547" style="fill:#ececec;opacity:0.5;stroke:#ececec;"/>
   </g>
  </g>
  <g id="axis3d_1">
   <g id="line2d_1">
    <path d="
M96.0084 190.422
L225.924 240.114" style="fill:none;stroke:#000000;stroke-width:0.75;"/>
   </g>
   <g id="text_1">
    <!-- Analytical workers -->
    <defs>
     <path d="
M56.2031 29.5938
L56.2031 25.2031
L14.8906 25.2031
Q15.4844 15.9219 20.4844 11.0625
Q25.4844 6.20312 34.4219 6.20312
Q39.5938 6.20312 44.4531 7.46875
Q49.3125 8.73438 54.1094 11.2812
L54.1094 2.78125
Q49.2656 0.734375 44.1875 -0.34375
Q39.1094 -1.42188 33.8906 -1.42188
Q20.7969 -1.42188 13.1562 6.1875
Q5.51562 13.8125 5.51562 26.8125
Q5.51562 40.2344 12.7656 48.1094
Q20.0156 56 32.3281 56
Q43.3594 56 49.7812 48.8906
Q56.2031 41.7969 56.2031 29.5938
M47.2188 32.2344
Q47.125 39.5938 43.0938 43.9844
Q39.0625 48.3906 32.4219 48.3906
Q24.9062 48.3906 20.3906 44.1406
Q15.875 39.8906 15.1875 32.1719
z
" id="DejaVuSans-65"/>
     <path d="
M30.6094 48.3906
Q23.3906 48.3906 19.1875 42.75
Q14.9844 37.1094 14.9844 27.2969
Q14.9844 17.4844 19.1562 11.8438
Q23.3438 6.20312 30.6094 6.20312
Q37.7969 6.20312 41.9844 11.8594
Q46.1875 17.5312 46.1875 27.2969
Q46.1875 37.0156 41.9844 42.7031
Q37.7969 48.3906 30.6094 48.3906
M30.6094 56
Q42.3281 56 49.0156 48.375
Q55.7188 40.7656 55.7188 27.2969
Q55.7188 13.875 49.0156 6.21875
Q42.3281 -1.42188 30.6094 -1.42188
Q18.8438 -1.42188 12.1719 6.21875
Q5.51562 13.875 5.51562 27.2969
Q5.51562 40.7656 12.1719 48.375
Q18.8438 56 30.6094 56" id="DejaVuSans-6f"/>
     <path d="
M54.8906 33.0156
L54.8906 0
L45.9062 0
L45.9062 32.7188
Q45.9062 40.4844 42.875 44.3281
Q39.8438 48.1875 33.7969 48.1875
Q26.5156 48.1875 22.3125 43.5469
Q18.1094 38.9219 18.1094 30.9062
L18.1094 0
L9.07812 0
L9.07812 54.6875
L18.1094 54.6875
L18.1094 46.1875
Q21.3438 51.125 25.7031 53.5625
Q30.0781 56 35.7969 56
Q45.2188 56 50.0469 50.1719
Q54.8906 44.3438 54.8906 33.0156" id="DejaVuSans-6e"/>
     <path d="
M9.07812 75.9844
L18.1094 75.9844
L18.1094 31.1094
L44.9219 54.6875
L56.3906 54.6875
L27.3906 29.1094
L57.625 0
L45.9062 0
L18.1094 26.7031
L18.1094 0
L9.07812 0
z
" id="DejaVuSans-6b"/>
     <path d="
M9.42188 75.9844
L18.4062 75.9844
L18.4062 0
L9.42188 0
z
" id="DejaVuSans-6c"/>
     <path id="DejaVuSans-20"/>
     <path d="
M32.1719 -5.07812
Q28.375 -14.8438 24.75 -17.8125
Q21.1406 -20.7969 15.0938 -20.7969
L7.90625 -20.7969
L7.90625 -13.2812
L13.1875 -13.2812
Q16.8906 -13.2812 18.9375 -11.5156
Q21 -9.76562 23.4844 -3.21875
L25.0938 0.875
L2.98438 54.6875
L12.5 54.6875
L29.5938 11.9219
L46.6875 54.6875
L56.2031 54.6875
z
" id="DejaVuSans-79"/>
     <path d="
M34.1875 63.1875
L20.7969 26.9062
L47.6094 26.9062
z

M28.6094 72.9062
L39.7969 72.9062
L67.5781 0
L57.3281 0
L50.6875 18.7031
L17.8281 18.7031
L11.1875 0
L0.78125 0
z
" id="DejaVuSans-41"/>
     <path d="
M9.42188 54.6875
L18.4062 54.6875
L18.4062 0
L9.42188 0
z

M9.42188 75.9844
L18.4062 75.9844
L18.4062 64.5938
L9.42188 64.5938
z
" id="DejaVuSans-69"/>
     <path d="
M18.3125 70.2188
L18.3125 54.6875
L36.8125 54.6875
L36.8125 47.7031
L18.3125 47.7031
L18.3125 18.0156
Q18.3125 11.3281 20.1406 9.42188
Q21.9688 7.51562 27.5938 7.51562
L36.8125 7.51562
L36.8125 0
L27.5938 0
Q17.1875 0 13.2344 3.875
Q9.28125 7.76562 9.28125 18.0156
L9.28125 47.7031
L2.6875 47.7031
L2.6875 54.6875
L9.28125 54.6875
L9.28125 70.2188
z
" id="DejaVuSans-74"/>
     <path d="
M4.20312 54.6875
L13.1875 54.6875
L24.4219 12.0156
L35.5938 54.6875
L46.1875 54.6875
L57.4219 12.0156
L68.6094 54.6875
L77.5938 54.6875
L63.2812 0
L52.6875 0
L40.9219 44.8281
L29.1094 0
L18.5 0
z
" id="DejaVuSans-77"/>
     <path d="
M41.1094 46.2969
Q39.5938 47.1719 37.8125 47.5781
Q36.0312 48 33.8906 48
Q26.2656 48 22.1875 43.0469
Q18.1094 38.0938 18.1094 28.8125
L18.1094 0
L9.07812 0
L9.07812 54.6875
L18.1094 54.6875
L18.1094 46.1875
Q20.9531 51.1719 25.4844 53.5781
Q30.0312 56 36.5312 56
Q37.4531 56 38.5781 55.875
Q39.7031 55.7656 41.0625 55.5156
z
" id="DejaVuSans-72"/>
     <path d="
M48.7812 52.5938
L48.7812 44.1875
Q44.9688 46.2969 41.1406 47.3438
Q37.3125 48.3906 33.4062 48.3906
Q24.6562 48.3906 19.8125 42.8438
Q14.9844 37.3125 14.9844 27.2969
Q14.9844 17.2812 19.8125 11.7344
Q24.6562 6.20312 33.4062 6.20312
Q37.3125 6.20312 41.1406 7.25
Q44.9688 8.29688 48.7812 10.4062
L48.7812 2.09375
Q45.0156 0.34375 40.9844 -0.53125
Q36.9688 -1.42188 32.4219 -1.42188
Q20.0625 -1.42188 12.7812 6.34375
Q5.51562 14.1094 5.51562 27.2969
Q5.51562 40.6719 12.8594 48.3281
Q20.2188 56 33.0156 56
Q37.1562 56 41.1094 55.1406
Q45.0625 54.2969 48.7812 52.5938" id="DejaVuSans-63"/>
     <path d="
M44.2812 53.0781
L44.2812 44.5781
Q40.4844 46.5312 36.375 47.5
Q32.2812 48.4844 27.875 48.4844
Q21.1875 48.4844 17.8438 46.4375
Q14.5 44.3906 14.5 40.2812
Q14.5 37.1562 16.8906 35.375
Q19.2812 33.5938 26.5156 31.9844
L29.5938 31.2969
Q39.1562 29.25 43.1875 25.5156
Q47.2188 21.7812 47.2188 15.0938
Q47.2188 7.46875 41.1875 3.01562
Q35.1562 -1.42188 24.6094 -1.42188
Q20.2188 -1.42188 15.4531 -0.5625
Q10.6875 0.296875 5.42188 2
L5.42188 11.2812
Q10.4062 8.6875 15.2344 7.39062
Q20.0625 6.10938 24.8125 6.10938
Q31.1562 6.10938 34.5625 8.28125
Q37.9844 10.4531 37.9844 14.4062
Q37.9844 18.0625 35.5156 20.0156
Q33.0625 21.9688 24.7031 23.7812
L21.5781 24.5156
Q13.2344 26.2656 9.51562 29.9062
Q5.8125 33.5469 5.8125 39.8906
Q5.8125 47.6094 11.2812 51.7969
Q16.75 56 26.8125 56
Q31.7812 56 36.1719 55.2656
Q40.5781 54.5469 44.2812 53.0781" id="DejaVuSans-73"/>
     <path d="
M34.2812 27.4844
Q23.3906 27.4844 19.1875 25
Q14.9844 22.5156 14.9844 16.5
Q14.9844 11.7188 18.1406 8.90625
Q21.2969 6.10938 26.7031 6.10938
Q34.1875 6.10938 38.7031 11.4062
Q43.2188 16.7031 43.2188 25.4844
L43.2188 27.4844
z

M52.2031 31.2031
L52.2031 0
L43.2188 0
L43.2188 8.29688
Q40.1406 3.32812 35.5469 0.953125
Q30.9531 -1.42188 24.3125 -1.42188
Q15.9219 -1.42188 10.9531 3.29688
Q6 8.01562 6 15.9219
Q6 25.1406 12.1719 29.8281
Q18.3594 34.5156 30.6094 34.5156
L43.2188 34.5156
L43.2188 35.4062
Q43.2188 41.6094 39.1406 45
Q35.0625 48.3906 27.6875 48.3906
Q23 48.3906 18.5469 47.2656
Q14.1094 46.1406 10.0156 43.8906
L10.0156 52.2031
Q14.9375 54.1094 19.5781 55.0469
Q24.2188 56 28.6094 56
Q40.4844 56 46.3438 49.8438
Q52.2031 43.7031 52.2031 31.2031" id="DejaVuSans-61"/>
    </defs>
    <g transform="translate(97.3167626741 220.517112371)rotate(-339.068467833)scale(0.1 -0.1)">
     <use xlink:href="#DejaVuSans-41"/>
     <use x="68.408203125" xlink:href="#DejaVuSans-6e"/>
     <use x="131.787109375" xlink:href="#DejaVuSans-61"/>
     <use x="193.06640625" xlink:href="#DejaVuSans-6c"/>
     <use x="220.849609375" xlink:href="#DejaVuSans-79"/>
     <use x="280.029296875" xlink:href="#DejaVuSans-74"/>
     <use x="319.23828125" xlink:href="#DejaVuSans-69"/>
     <use x="347.021484375" xlink:href="#DejaVuSans-63"/>
     <use x="402.001953125" xlink:href="#DejaVuSans-61"/>
     <use x="463.28125" xlink:href="#DejaVuSans-6c"/>
     <use x="491.064453125" xlink:href="#DejaVuSans-20"/>
     <use x="522.8515625" xlink:href="#DejaVuSans-77"/>
     <use x="604.638671875" xlink:href="#DejaVuSans-6f"/>
     <use x="665.8203125" xlink:href="#DejaVuSans-72"/>
     <use x="706.93359375" xlink:href="#DejaVuSans-6b"/>
     <use x="761.21875" xlink:href="#DejaVuSans-65"/>
     <use x="822.7421875" xlink:href="#DejaVuSans-72"/>
     <use x="863.85546875" xlink:href="#DejaVuSans-73"/>
    </g>
   </g>
   <g id="Line3DCollection_1">
    <defs>
     <path d="
M98.4482 -96.645
L228.373 -140.626
L228.496 -245.133" id="C0_0_66bc95a046"/>
     <path d="
M115.343 -90.1827
L245.323 -134.902
L246.306 -240.008" id="C0_1_c3524f3fa5"/>
     <path d="
M132.532 -83.6082
L262.55 -129.084
L264.422 -234.795" id="C0_2_1dcf84b60e"/>
     <path d="
M150.022 -76.9184
L280.06 -123.171
L282.851 -229.492" id="C0_3_4a71006728"/>
     <path d="
M167.821 -70.1104
L297.861 -117.159
L301.603 -224.096" id="C0_4_a7f47e5d93"/>
     <path d="
M185.938 -63.1809
L315.961 -111.046
L320.684 -218.606" id="C0_5_d9e6709ea6"/>
     <path d="
M204.38 -56.1268
L334.365 -104.831
L340.105 -213.017" id="C0_6_3f14612133"/>
     <path d="
M223.157 -48.9445
L353.084 -98.5091
L359.875 -207.329" id="C0_7_36dc1cd2e7"/>
    </defs>
    <use style="fill:none;stroke:#e6e6e6;stroke-linecap:butt;" x="0" xlink:href="#C0_0_66bc95a046" y="288.0"/>
    <use style="fill:none;stroke:#e6e6e6;stroke-linecap:butt;" x="0" xlink:href="#C0_1_c3524f3fa5" y="288.0"/>
    <use style="fill:none;stroke:#e6e6e6;stroke-linecap:butt;" x="0" xlink:href="#C0_2_1dcf84b60e" y="288.0"/>
    <use style="fill:none;stroke:#e6e6e6;stroke-linecap:butt;" x="0" xlink:href="#C0_3_4a71006728" y="288.0"/>
    <use style="fill:none;stroke:#e6e6e6;stroke-linecap:butt;" x="0" xlink:href="#C0_4_a7f47e5d93" y="288.0"/>
    <use style="fill:none;stroke:#e6e6e6;stroke-linecap:butt;" x="0" xlink:href="#C0_5_d9e6709ea6" y="288.0"/>
    <use style="fill:none;stroke:#e6e6e6;stroke-linecap:butt;" x="0" xlink:href="#C0_6_3f14612133" y="288.0"/>
    <use style="fill:none;stroke:#e6e6e6;stroke-linecap:butt;" x="0" xlink:href="#C0_7_36dc1cd2e7" y="288.0"/>
   </g>
   <g id="xtick_1">
    <g id="line2d_2">
     <path d="
M99.5517 190.981
L96.2378 192.103" style="fill:none;stroke:#000000;"/>
    </g>
    <g id="text_2">
     <!-- 1 -->
     <defs>
      <path d="
M12.4062 8.29688
L28.5156 8.29688
L28.5156 63.9219
L10.9844 60.4062
L10.9844 69.3906
L28.4219 72.9062
L38.2812 72.9062
L38.2812 8.29688
L54.3906 8.29688
L54.3906 0
L12.4062 0
z
" id="DejaVuSans-31"/>
     </defs>
     <g transform="translate(88.9072644384 207.06126067)scale(0.1 -0.1)">
      <use xlink:href="#DejaVuSans-31"/>
     </g>
    </g>
   </g>
   <g id="xtick_2">
    <g id="line2d_3">
     <path d="
M116.448 197.437
L113.131 198.578" style="fill:none;stroke:#000000;"/>
    </g>
    <g id="text_3">
     <!-- 2 -->
     <defs>
      <path d="
M19.1875 8.29688
L53.6094 8.29688
L53.6094 0
L7.32812 0
L7.32812 8.29688
Q12.9375 14.1094 22.625 23.8906
Q32.3281 33.6875 34.8125 36.5312
Q39.5469 41.8438 41.4219 45.5312
Q43.3125 49.2188 43.3125 52.7812
Q43.3125 58.5938 39.2344 62.25
Q35.1562 65.9219 28.6094 65.9219
Q23.9688 65.9219 18.8125 64.3125
Q13.6719 62.7031 7.8125 59.4219
L7.8125 69.3906
Q13.7656 71.7812 18.9375 73
Q24.125 74.2188 28.4219 74.2188
Q39.75 74.2188 46.4844 68.5469
Q53.2188 62.8906 53.2188 53.4219
Q53.2188 48.9219 51.5312 44.8906
Q49.8594 40.875 45.4062 35.4062
Q44.1875 33.9844 37.6406 27.2188
Q31.1094 20.4531 19.1875 8.29688" id="DejaVuSans-32"/>
     </defs>
     <g transform="translate(105.606142114 213.731505511)scale(0.1 -0.1)">
      <use xlink:href="#DejaVuSans-32"/>
     </g>
    </g>
   </g>
   <g id="xtick_3">
    <g id="line2d_4">
     <path d="
M133.638 204.005
L130.318 205.166" style="fill:none;stroke:#000000;"/>
    </g>
    <g id="text_4">
     <!-- 3 -->
     <defs>
      <path d="
M40.5781 39.3125
Q47.6562 37.7969 51.625 33
Q55.6094 28.2188 55.6094 21.1875
Q55.6094 10.4062 48.1875 4.48438
Q40.7656 -1.42188 27.0938 -1.42188
Q22.5156 -1.42188 17.6562 -0.515625
Q12.7969 0.390625 7.625 2.20312
L7.625 11.7188
Q11.7188 9.32812 16.5938 8.10938
Q21.4844 6.89062 26.8125 6.89062
Q36.0781 6.89062 40.9375 10.5469
Q45.7969 14.2031 45.7969 21.1875
Q45.7969 27.6406 41.2812 31.2656
Q36.7656 34.9062 28.7188 34.9062
L20.2188 34.9062
L20.2188 43.0156
L29.1094 43.0156
Q36.375 43.0156 40.2344 45.9219
Q44.0938 48.8281 44.0938 54.2969
Q44.0938 59.9062 40.1094 62.9062
Q36.1406 65.9219 28.7188 65.9219
Q24.6562 65.9219 20.0156 65.0312
Q15.375 64.1562 9.8125 62.3125
L9.8125 71.0938
Q15.4375 72.6562 20.3438 73.4375
Q25.25 74.2188 29.5938 74.2188
Q40.8281 74.2188 47.3594 69.1094
Q53.9062 64.0156 53.9062 55.3281
Q53.9062 49.2656 50.4375 45.0938
Q46.9688 40.9219 40.5781 39.3125" id="DejaVuSans-33"/>
     </defs>
     <g transform="translate(122.656361892 220.384157199)scale(0.1 -0.1)">
      <use xlink:href="#DejaVuSans-33"/>
     </g>
    </g>
   </g>
   <g id="xtick_4">
    <g id="line2d_5">
     <path d="
M151.128 210.688
L147.806 211.87" style="fill:none;stroke:#000000;"/>
    </g>
    <g id="text_5">
     <!-- 4 -->
     <defs>
      <path d="
M37.7969 64.3125
L12.8906 25.3906
L37.7969 25.3906
z

M35.2031 72.9062
L47.6094 72.9062
L47.6094 25.3906
L58.0156 25.3906
L58.0156 17.1875
L47.6094 17.1875
L47.6094 0
L37.7969 0
L37.7969 17.1875
L4.89062 17.1875
L4.89062 26.7031
z
" id="DejaVuSans-34"/>
     </defs>
     <g transform="translate(139.835154497 227.022204986)scale(0.1 -0.1)">
      <use xlink:href="#DejaVuSans-34"/>
     </g>
    </g>
   </g>
   <g id="xtick_5">
    <g id="line2d_6">
     <path d="
M168.928 217.489
L165.604 218.692" style="fill:none;stroke:#000000;"/>
    </g>
    <g id="text_6">
     <!-- 5 -->
     <defs>
      <path d="
M10.7969 72.9062
L49.5156 72.9062
L49.5156 64.5938
L19.8281 64.5938
L19.8281 46.7344
Q21.9688 47.4688 24.1094 47.8281
Q26.2656 48.1875 28.4219 48.1875
Q40.625 48.1875 47.75 41.5
Q54.8906 34.8125 54.8906 23.3906
Q54.8906 11.625 47.5625 5.09375
Q40.2344 -1.42188 26.9062 -1.42188
Q22.3125 -1.42188 17.5469 -0.640625
Q12.7969 0.140625 7.71875 1.70312
L7.71875 11.625
Q12.1094 9.23438 16.7969 8.0625
Q21.4844 6.89062 26.7031 6.89062
Q35.1562 6.89062 40.0781 11.3281
Q45.0156 15.7656 45.0156 23.3906
Q45.0156 31 40.0781 35.4375
Q35.1562 39.8906 26.7031 39.8906
Q22.75 39.8906 18.8125 39.0156
Q14.8906 38.1406 10.7969 36.2812
z
" id="DejaVuSans-35"/>
     </defs>
     <g transform="translate(157.877054294 233.911243873)scale(0.1 -0.1)">
      <use xlink:href="#DejaVuSans-35"/>
     </g>
    </g>
   </g>
   <g id="xtick_6">
    <g id="line2d_7">
     <path d="
M187.045 224.411
L183.72 225.636" style="fill:none;stroke:#000000;"/>
    </g>
    <g id="text_7">
     <!-- 6 -->
     <defs>
      <path d="
M33.0156 40.375
Q26.375 40.375 22.4844 35.8281
Q18.6094 31.2969 18.6094 23.3906
Q18.6094 15.5312 22.4844 10.9531
Q26.375 6.39062 33.0156 6.39062
Q39.6562 6.39062 43.5312 10.9531
Q47.4062 15.5312 47.4062 23.3906
Q47.4062 31.2969 43.5312 35.8281
Q39.6562 40.375 33.0156 40.375
M52.5938 71.2969
L52.5938 62.3125
Q48.875 64.0625 45.0938 64.9844
Q41.3125 65.9219 37.5938 65.9219
Q27.8281 65.9219 22.6719 59.3281
Q17.5312 52.7344 16.7969 39.4062
Q19.6719 43.6562 24.0156 45.9219
Q28.375 48.1875 33.5938 48.1875
Q44.5781 48.1875 50.9531 41.5156
Q57.3281 34.8594 57.3281 23.3906
Q57.3281 12.1562 50.6875 5.35938
Q44.0469 -1.42188 33.0156 -1.42188
Q20.3594 -1.42188 13.6719 8.26562
Q6.98438 17.9688 6.98438 36.375
Q6.98438 53.6562 15.1875 63.9375
Q23.3906 74.2188 37.2031 74.2188
Q40.9219 74.2188 44.7031 73.4844
Q48.4844 72.75 52.5938 71.2969" id="DejaVuSans-36"/>
     </defs>
     <g transform="translate(175.779380193 241.054479335)scale(0.1 -0.1)">
      <use xlink:href="#DejaVuSans-36"/>
     </g>
    </g>
   </g>
   <g id="xtick_7">
    <g id="line2d_8">
     <path d="
M205.488 231.458
L202.161 232.704" style="fill:none;stroke:#000000;"/>
    </g>
    <g id="text_8">
     <!-- 7 -->
     <defs>
      <path d="
M8.20312 72.9062
L55.0781 72.9062
L55.0781 68.7031
L28.6094 0
L18.3125 0
L43.2188 64.5938
L8.20312 64.5938
z
" id="DejaVuSans-37"/>
     </defs>
     <g transform="translate(194.338967204 248.061482291)scale(0.1 -0.1)">
      <use xlink:href="#DejaVuSans-37"/>
     </g>
    </g>
   </g>
   <g id="xtick_8">
    <g id="line2d_9">
     <path d="
M224.265 238.633
L220.939 239.902" style="fill:none;stroke:#000000;"/>
    </g>
    <g id="text_9">
     <!-- 8 -->
     <defs>
      <path d="
M31.7812 34.625
Q24.75 34.625 20.7188 30.8594
Q16.7031 27.0938 16.7031 20.5156
Q16.7031 13.9219 20.7188 10.1562
Q24.75 6.39062 31.7812 6.39062
Q38.8125 6.39062 42.8594 10.1719
Q46.9219 13.9688 46.9219 20.5156
Q46.9219 27.0938 42.8906 30.8594
Q38.875 34.625 31.7812 34.625
M21.9219 38.8125
Q15.5781 40.375 12.0312 44.7188
Q8.5 49.0781 8.5 55.3281
Q8.5 64.0625 14.7188 69.1406
Q20.9531 74.2188 31.7812 74.2188
Q42.6719 74.2188 48.875 69.1406
Q55.0781 64.0625 55.0781 55.3281
Q55.0781 49.0781 51.5312 44.7188
Q48 40.375 41.7031 38.8125
Q48.8281 37.1562 52.7969 32.3125
Q56.7812 27.4844 56.7812 20.5156
Q56.7812 9.90625 50.3125 4.23438
Q43.8438 -1.42188 31.7812 -1.42188
Q19.7344 -1.42188 13.25 4.23438
Q6.78125 9.90625 6.78125 20.5156
Q6.78125 27.4844 10.7812 32.3125
Q14.7969 37.1562 21.9219 38.8125
M18.3125 54.3906
Q18.3125 48.7344 21.8438 45.5625
Q25.3906 42.3906 31.7812 42.3906
Q38.1406 42.3906 41.7188 45.5625
Q45.3125 48.7344 45.3125 54.3906
Q45.3125 60.0625 41.7188 63.2344
Q38.1406 66.4062 31.7812 66.4062
Q25.3906 66.4062 21.8438 63.2344
Q18.3125 60.0625 18.3125 54.3906" id="DejaVuSans-38"/>
     </defs>
     <g transform="translate(212.902961197 255.460694349)scale(0.1 -0.1)">
      <use xlink:href="#DejaVuSans-38"/>
     </g>
    </g>
   </g>
  </g>
  <g id="axis3d_2">
   <g id="line2d_10">
    <path d="
M355.84 190.422
L225.924 240.114" style="fill:none;stroke:#000000;stroke-width:0.75;"/>
   </g>
   <g id="text_10">
    <!-- Trans workers -->
    <defs>
     <path d="
M-0.296875 72.9062
L61.375 72.9062
L61.375 64.5938
L35.5 64.5938
L35.5 0
L25.5938 0
L25.5938 64.5938
L-0.296875 64.5938
z
" id="DejaVuSans-54"/>
    </defs>
    <g transform="translate(279.673120297 250.050413747)rotate(-20.9315321666)scale(0.1 -0.1)">
     <use xlink:href="#DejaVuSans-54"/>
     <use x="46.333984375" xlink:href="#DejaVuSans-72"/>
     <use x="87.447265625" xlink:href="#DejaVuSans-61"/>
     <use x="148.7265625" xlink:href="#DejaVuSans-6e"/>
     <use x="212.10546875" xlink:href="#DejaVuSans-73"/>
     <use x="264.205078125" xlink:href="#DejaVuSans-20"/>
     <use x="295.9921875" xlink:href="#DejaVuSans-77"/>
     <use x="377.779296875" xlink:href="#DejaVuSans-6f"/>
     <use x="438.9609375" xlink:href="#DejaVuSans-72"/>
     <use x="480.07421875" xlink:href="#DejaVuSans-6b"/>
     <use x="534.359375" xlink:href="#DejaVuSans-65"/>
     <use x="595.8828125" xlink:href="#DejaVuSans-72"/>
     <use x="636.99609375" xlink:href="#DejaVuSans-73"/>
    </g>
   </g>
   <g id="Line3DCollection_2">
    <defs>
     <path d="
M101.243 -209.996
L107.54 -101.473
L237.496 -52.3124" id="C1_0_510e4df959"/>
     <path d="
M119.553 -215.264
L124.882 -107.329
L254.885 -58.9636" id="C1_1_34871c9a23"/>
     <path d="
M137.562 -220.447
L141.955 -113.095
L271.986 -65.5044" id="C1_2_d47d68a976"/>
     <path d="
M155.278 -225.544
L158.763 -118.772
L288.805 -71.9376" id="C1_3_48e4ac0435"/>
     <path d="
M172.709 -230.56
L175.314 -124.361
L305.349 -78.2657" id="C1_4_28335354d2"/>
     <path d="
M189.86 -235.495
L191.612 -129.865
L321.626 -84.4914" id="C1_5_3373716be3"/>
     <path d="
M206.739 -240.352
L207.664 -135.286
L337.641 -90.617" id="C1_6_19e70216a6"/>
     <path d="
M223.352 -245.133
L223.475 -140.626
L353.4 -96.645" id="C1_7_438b43d871"/>
    </defs>
    <use style="fill:none;stroke:#e6e6e6;stroke-linecap:butt;" x="0" xlink:href="#C1_0_510e4df959" y="288.0"/>
    <use style="fill:none;stroke:#e6e6e6;stroke-linecap:butt;" x="0" xlink:href="#C1_1_34871c9a23" y="288.0"/>
    <use style="fill:none;stroke:#e6e6e6;stroke-linecap:butt;" x="0" xlink:href="#C1_2_d47d68a976" y="288.0"/>
    <use style="fill:none;stroke:#e6e6e6;stroke-linecap:butt;" x="0" xlink:href="#C1_3_48e4ac0435" y="288.0"/>
    <use style="fill:none;stroke:#e6e6e6;stroke-linecap:butt;" x="0" xlink:href="#C1_4_28335354d2" y="288.0"/>
    <use style="fill:none;stroke:#e6e6e6;stroke-linecap:butt;" x="0" xlink:href="#C1_5_3373716be3" y="288.0"/>
    <use style="fill:none;stroke:#e6e6e6;stroke-linecap:butt;" x="0" xlink:href="#C1_6_19e70216a6" y="288.0"/>
    <use style="fill:none;stroke:#e6e6e6;stroke-linecap:butt;" x="0" xlink:href="#C1_7_438b43d871" y="288.0"/>
   </g>
   <g id="xtick_9">
    <g id="line2d_11">
     <path d="
M236.389 235.269
L239.715 236.527" style="fill:none;stroke:#000000;"/>
    </g>
    <g id="text_11">
     <!-- 2 -->
     <g transform="translate(242.909891774 252.052613225)scale(0.1 -0.1)">
      <use xlink:href="#DejaVuSans-32"/>
     </g>
    </g>
   </g>
   <g id="xtick_10">
    <g id="line2d_12">
     <path d="
M253.778 228.624
L257.104 229.862" style="fill:none;stroke:#000000;"/>
    </g>
    <g id="text_12">
     <!-- 4 -->
     <g transform="translate(259.903729043 245.190811513)scale(0.1 -0.1)">
      <use xlink:href="#DejaVuSans-34"/>
     </g>
    </g>
   </g>
   <g id="xtick_11">
    <g id="line2d_13">
     <path d="
M270.879 222.09
L274.203 223.307" style="fill:none;stroke:#000000;"/>
    </g>
    <g id="text_13">
     <!-- 6 -->
     <g transform="translate(277.090907985 238.703287554)scale(0.1 -0.1)">
      <use xlink:href="#DejaVuSans-36"/>
     </g>
    </g>
   </g>
   <g id="xtick_12">
    <g id="line2d_14">
     <path d="
M287.698 215.664
L291.021 216.861" style="fill:none;stroke:#000000;"/>
    </g>
    <g id="text_14">
     <!-- 8 -->
     <g transform="translate(293.875416699 232.193529752)scale(0.1 -0.1)">
      <use xlink:href="#DejaVuSans-38"/>
     </g>
    </g>
   </g>
   <g id="xtick_13">
    <g id="line2d_15">
     <path d="
M304.243 209.342
L307.565 210.52" style="fill:none;stroke:#000000;"/>
    </g>
    <g id="text_15">
     <!-- 10 -->
     <defs>
      <path d="
M31.7812 66.4062
Q24.1719 66.4062 20.3281 58.9062
Q16.5 51.4219 16.5 36.375
Q16.5 21.3906 20.3281 13.8906
Q24.1719 6.39062 31.7812 6.39062
Q39.4531 6.39062 43.2812 13.8906
Q47.125 21.3906 47.125 36.375
Q47.125 51.4219 43.2812 58.9062
Q39.4531 66.4062 31.7812 66.4062
M31.7812 74.2188
Q44.0469 74.2188 50.5156 64.5156
Q56.9844 54.8281 56.9844 36.375
Q56.9844 17.9688 50.5156 8.26562
Q44.0469 -1.42188 31.7812 -1.42188
Q19.5312 -1.42188 13.0625 8.26562
Q6.59375 17.9688 6.59375 36.375
Q6.59375 54.8281 13.0625 64.5156
Q19.5312 74.2188 31.7812 74.2188" id="DejaVuSans-30"/>
     </defs>
     <g transform="translate(307.38757338 225.790116741)scale(0.1 -0.1)">
      <use xlink:href="#DejaVuSans-31"/>
      <use x="63.623046875" xlink:href="#DejaVuSans-30"/>
     </g>
    </g>
   </g>
   <g id="xtick_14">
    <g id="line2d_16">
     <path d="
M320.52 203.123
L323.84 204.281" style="fill:none;stroke:#000000;"/>
    </g>
    <g id="text_16">
     <!-- 12 -->
     <g transform="translate(323.782473238 219.490463726)scale(0.1 -0.1)">
      <use xlink:href="#DejaVuSans-31"/>
      <use x="63.623046875" xlink:href="#DejaVuSans-32"/>
     </g>
    </g>
   </g>
   <g id="xtick_15">
    <g id="line2d_17">
     <path d="
M336.536 197.003
L339.853 198.143" style="fill:none;stroke:#000000;"/>
    </g>
    <g id="text_17">
     <!-- 14 -->
     <g transform="translate(339.527497452 213.160819009)scale(0.1 -0.1)">
      <use xlink:href="#DejaVuSans-31"/>
      <use x="63.623046875" xlink:href="#DejaVuSans-34"/>
     </g>
    </g>
   </g>
   <g id="xtick_16">
    <g id="line2d_18">
     <path d="
M352.297 190.981
L355.611 192.103" style="fill:none;stroke:#000000;"/>
    </g>
    <g id="text_18">
     <!-- 16 -->
     <g transform="translate(355.27263421 207.19251067)scale(0.1 -0.1)">
      <use xlink:href="#DejaVuSans-31"/>
      <use x="63.623046875" xlink:href="#DejaVuSans-36"/>
     </g>
    </g>
   </g>
  </g>
  <g id="axis3d_3">
   <g id="line2d_19">
    <path d="
M355.84 190.422
L362.788 81.5096" style="fill:none;stroke:#000000;stroke-width:0.75;"/>
   </g>
   <g id="text_19">
    <!-- Effective queries/hour -->
    <defs>
     <path d="
M25.3906 72.9062
L33.6875 72.9062
L8.29688 -9.28125
L0 -9.28125
z
" id="DejaVuSans-2f"/>
     <path d="
M8.5 21.5781
L8.5 54.6875
L17.4844 54.6875
L17.4844 21.9219
Q17.4844 14.1562 20.5 10.2656
Q23.5312 6.39062 29.5938 6.39062
Q36.8594 6.39062 41.0781 11.0312
Q45.3125 15.6719 45.3125 23.6875
L45.3125 54.6875
L54.2969 54.6875
L54.2969 0
L45.3125 0
L45.3125 8.40625
Q42.0469 3.42188 37.7188 1
Q33.4062 -1.42188 27.6875 -1.42188
Q18.2656 -1.42188 13.375 4.4375
Q8.5 10.2969 8.5 21.5781
M31.1094 56
z
" id="DejaVuSans-75"/>
     <path d="
M9.8125 72.9062
L55.9062 72.9062
L55.9062 64.5938
L19.6719 64.5938
L19.6719 43.0156
L54.3906 43.0156
L54.3906 34.7188
L19.6719 34.7188
L19.6719 8.29688
L56.7812 8.29688
L56.7812 0
L9.8125 0
z
" id="DejaVuSans-45"/>
     <path d="
M54.8906 33.0156
L54.8906 0
L45.9062 0
L45.9062 32.7188
Q45.9062 40.4844 42.875 44.3281
Q39.8438 48.1875 33.7969 48.1875
Q26.5156 48.1875 22.3125 43.5469
Q18.1094 38.9219 18.1094 30.9062
L18.1094 0
L9.07812 0
L9.07812 75.9844
L18.1094 75.9844
L18.1094 46.1875
Q21.3438 51.125 25.7031 53.5625
Q30.0781 56 35.7969 56
Q45.2188 56 50.0469 50.1719
Q54.8906 44.3438 54.8906 33.0156" id="DejaVuSans-68"/>
     <path d="
M37.1094 75.9844
L37.1094 68.5
L28.5156 68.5
Q23.6875 68.5 21.7969 66.5469
Q19.9219 64.5938 19.9219 59.5156
L19.9219 54.6875
L34.7188 54.6875
L34.7188 47.7031
L19.9219 47.7031
L19.9219 0
L10.8906 0
L10.8906 47.7031
L2.29688 47.7031
L2.29688 54.6875
L10.8906 54.6875
L10.8906 58.5
Q10.8906 67.625 15.1406 71.7969
Q19.3906 75.9844 28.6094 75.9844
z
" id="DejaVuSans-66"/>
     <path d="
M2.98438 54.6875
L12.5 54.6875
L29.5938 8.79688
L46.6875 54.6875
L56.2031 54.6875
L35.6875 0
L23.4844 0
z
" id="DejaVuSans-76"/>
     <path d="
M14.7969 27.2969
Q14.7969 17.3906 18.875 11.75
Q22.9531 6.10938 30.0781 6.10938
Q37.2031 6.10938 41.2969 11.75
Q45.4062 17.3906 45.4062 27.2969
Q45.4062 37.2031 41.2969 42.8438
Q37.2031 48.4844 30.0781 48.4844
Q22.9531 48.4844 18.875 42.8438
Q14.7969 37.2031 14.7969 27.2969
M45.4062 8.20312
Q42.5781 3.32812 38.25 0.953125
Q33.9375 -1.42188 27.875 -1.42188
Q17.9688 -1.42188 11.7344 6.48438
Q5.51562 14.4062 5.51562 27.2969
Q5.51562 40.1875 11.7344 48.0938
Q17.9688 56 27.875 56
Q33.9375 56 38.25 53.625
Q42.5781 51.2656 45.4062 46.3906
L45.4062 54.6875
L54.3906 54.6875
L54.3906 -20.7969
L45.4062 -20.7969
z
" id="DejaVuSans-71"/>
    </defs>
    <g transform="translate(394.66578391 190.661981432)rotate(-86.3501163556)scale(0.1 -0.1)">
     <use xlink:href="#DejaVuSans-45"/>
     <use x="63.18359375" xlink:href="#DejaVuSans-66"/>
     <use x="98.388671875" xlink:href="#DejaVuSans-66"/>
     <use x="133.59375" xlink:href="#DejaVuSans-65"/>
     <use x="195.1171875" xlink:href="#DejaVuSans-63"/>
     <use x="250.09765625" xlink:href="#DejaVuSans-74"/>
     <use x="289.306640625" xlink:href="#DejaVuSans-69"/>
     <use x="317.08984375" xlink:href="#DejaVuSans-76"/>
     <use x="376.26953125" xlink:href="#DejaVuSans-65"/>
     <use x="437.79296875" xlink:href="#DejaVuSans-20"/>
     <use x="469.580078125" xlink:href="#DejaVuSans-71"/>
     <use x="533.056640625" xlink:href="#DejaVuSans-75"/>
     <use x="596.435546875" xlink:href="#DejaVuSans-65"/>
     <use x="657.958984375" xlink:href="#DejaVuSans-72"/>
     <use x="699.072265625" xlink:href="#DejaVuSans-69"/>
     <use x="726.85546875" xlink:href="#DejaVuSans-65"/>
     <use x="788.37890625" xlink:href="#DejaVuSans-73"/>
     <use x="840.478515625" xlink:href="#DejaVuSans-2f"/>
     <use x="874.169921875" xlink:href="#DejaVuSans-68"/>
     <use x="937.548828125" xlink:href="#DejaVuSans-6f"/>
     <use x="998.73046875" xlink:href="#DejaVuSans-75"/>
     <use x="1062.109375" xlink:href="#DejaVuSans-72"/>
    </g>
   </g>
   <g id="Line3DCollection_3">
    <defs>
     <path d="
M356.442 -107.014
L225.924 -150.526
L95.4065 -107.014" id="C2_0_fbfeaa901a"/>
     <path d="
M357.926 -130.281
L225.924 -172.876
L93.9223 -130.281" id="C2_1_fcb29290f4"/>
     <path d="
M359.445 -154.084
L225.924 -195.709
L92.404 -154.084" id="C2_2_4e4309df2d"/>
     <path d="
M360.998 -178.44
L225.924 -219.042
L90.8503 -178.44" id="C2_3_c99702e7df"/>
     <path d="
M362.589 -203.37
L225.924 -242.89
L89.2601 -203.37" id="C2_4_bf72af011f"/>
    </defs>
    <use style="fill:none;stroke:#e6e6e6;stroke-linecap:butt;" x="0" xlink:href="#C2_0_fbfeaa901a" y="288.0"/>
    <use style="fill:none;stroke:#e6e6e6;stroke-linecap:butt;" x="0" xlink:href="#C2_1_fcb29290f4" y="288.0"/>
    <use style="fill:none;stroke:#e6e6e6;stroke-linecap:butt;" x="0" xlink:href="#C2_2_4e4309df2d" y="288.0"/>
    <use style="fill:none;stroke:#e6e6e6;stroke-linecap:butt;" x="0" xlink:href="#C2_3_c99702e7df" y="288.0"/>
    <use style="fill:none;stroke:#e6e6e6;stroke-linecap:butt;" x="0" xlink:href="#C2_4_bf72af011f" y="288.0"/>
   </g>
   <g id="xtick_17">
    <g id="line2d_20">
     <path d="
M355.333 180.616
L358.663 181.726" style="fill:none;stroke:#000000;"/>
    </g>
    <g id="text_20">
     <!-- 5 -->
     <g transform="translate(368.701596304 188.276406118)scale(0.1 -0.1)">
      <use xlink:href="#DejaVuSans-35"/>
     </g>
    </g>
   </g>
   <g id="xtick_18">
    <g id="line2d_21">
     <path d="
M356.804 157.357
L360.174 158.444" style="fill:none;stroke:#000000;"/>
    </g>
    <g id="text_21">
     <!-- 10 -->
     <g transform="translate(367.229348124 165.140561784)scale(0.1 -0.1)">
      <use xlink:href="#DejaVuSans-31"/>
      <use x="63.623046875" xlink:href="#DejaVuSans-30"/>
     </g>
    </g>
   </g>
   <g id="xtick_19">
    <g id="line2d_22">
     <path d="
M358.309 133.562
L361.72 134.626" style="fill:none;stroke:#000000;"/>
    </g>
    <g id="text_22">
     <!-- 15 -->
     <g transform="translate(369.022410564 141.206968778)scale(0.1 -0.1)">
      <use xlink:href="#DejaVuSans-31"/>
      <use x="63.623046875" xlink:href="#DejaVuSans-35"/>
     </g>
    </g>
   </g>
   <g id="xtick_20">
    <g id="line2d_23">
     <path d="
M359.849 109.214
L363.302 110.252" style="fill:none;stroke:#000000;"/>
    </g>
    <g id="text_23">
     <!-- 20 -->
     <g transform="translate(370.462577733 116.981942466)scale(0.1 -0.1)">
      <use xlink:href="#DejaVuSans-32"/>
      <use x="63.623046875" xlink:href="#DejaVuSans-30"/>
     </g>
    </g>
   </g>
   <g id="xtick_21">
    <g id="line2d_24">
     <path d="
M361.424 84.2936
L364.921 85.3047" style="fill:none;stroke:#000000;"/>
    </g>
    <g id="text_24">
     <!-- 25 -->
     <g transform="translate(372.335612405 92.0521683083)scale(0.1 -0.1)">
      <use xlink:href="#DejaVuSans-32"/>
      <use x="63.623046875" xlink:href="#DejaVuSans-35"/>
     </g>
    </g>
   </g>
  </g>
  <g id="axes_1">
   <g id="Line3DCollection_4">
    <defs>
     <path d="
M101.073 -99.7392
L117.939 -94.2114
L135.168 -87.3749
L152.681 -80.7795
L170.49 -74.5932
L188.621 -68.6157
L207.107 -61.35
L225.924 -55.4014" id="C3_0_44f00140a8"/>
     <path d="
M109.864 -102.614
L126.707 -97.8333
L143.947 -91.027
L161.479 -84.2396
L179.302 -77.9316
L197.439 -72.1772
L215.926 -65.5169
L234.763 -60.8645" id="C3_1_4423177498"/>
     <path d="
M118.542 -106.273
L135.469 -100.112
L152.696 -93.672
L170.215 -87.4302
L188.036 -81.6204
L206.193 -75.1055
L224.679 -70.1222
L243.528 -64.3257" id="C3_2_2456e977ee"/>
     <path d="
M127.175 -109.555
L144.113 -103.404
L161.349 -97.0183
L178.701 -98.3635
L196.685 -86.494
L214.863 -79.868
L233.381 -77.5138
L252.264 -71.1056" id="C3_3_5da942b9bf"/>
     <path d="
M135.777 -112.027
L152.712 -106.127
L169.943 -100.042
L187.466 -94.3945
L205.298 -89.5273
L223.474 -85.2634
L242.025 -82.0989
L260.997 -80.0939" id="C3_4_82fd0c8f28"/>
     <path d="
M144.302 -114.665
L161.221 -109.452
L178.456 -103.62
L195.969 -99.4255
L213.823 -95.5461
L232.038 -92.2379
L251.187 -134.136
L269.742 -90.6801" id="C3_5_327db6d9d5"/>
     <path d="
M152.721 -118.33
L169.651 -113.324
L186.886 -108.248
L204.413 -105.243
L222.298 -104.256
L240.588 -102.431
L259.298 -101.243
L278.199 -90.4807" id="C3_6_b044688948"/>
     <path d="
M161.076 -122.151
L177.992 -118.463
L195.23 -115.05
L212.804 -112.396
L230.877 -165.849
L249.128 -112.573
L267.796 -105.23
L286.546 -89.8755" id="C3_7_929e16f477"/>
     <path d="
M169.349 -126.856
L186.286 -123.656
L203.518 -123.81
L221.157 -121.823
L239.184 -121.299
L257.591 -118.384
L276.069 -102.565
L294.9 -92.3849" id="C3_8_47fa117696"/>
     <path d="
M177.588 -130.918
L194.493 -131.486
L211.797 -131.366
L229.495 -130.257
L247.56 -126.736
L265.882 -117.692
L284.601 -112.954
L303.374 -99.9952" id="C3_9_a924085c1e"/>
     <path d="
M185.678 -139.915
L202.677 -139.236
L220.047 -139.281
L237.78 -133.253
L255.834 -128.251
L274.287 -125.978
L292.953 -118.071
L311.861 -108.637" id="C3_a_0512f36cb9"/>
     <path d="
M193.776 -147.448
L210.848 -145.333
L228.265 -141.369
L246.008 -137.043
L264.052 -130.928
L282.482 -127.463
L301.246 -122.921
L320.012 -110.463" id="C3_b_894473164b"/>
     <path d="
M201.883 -152.081
L218.993 -147.907
L236.419 -144.279
L254.183 -141.02
L272.268 -136.446
L290.657 -130.754
L309.384 -125.196
L328.55 -121.551" id="C3_c_87e0a42488"/>
     <path d="
M209.945 -156.505
L227.077 -153.675
L244.521 -148.394
L262.268 -143.044
L280.382 -139.746
L298.783 -134.382
L317.519 -129.004
L336.428 -120.387" id="C3_d_a58ff6036c"/>
     <path d="
M217.961 -160.129
L235.104 -155.336
L252.543 -150.246
L270.325 -146.926
L288.434 -142.967
L306.847 -137.902
L325.631 -133.503
L344.534 -124.859" id="C3_e_daafe11de1"/>
     <path d="
M225.924 -162.431
L243.073 -158.4
L260.507 -152.766
L278.266 -148.37
L296.429 -146.256
L314.863 -141.672
L333.533 -134.948
L357.173 -204.198" id="C3_f_7c57b7f9eb"/>
     <path d="
M101.073 -99.7392
L109.864 -102.614
L118.542 -106.273
L127.175 -109.555
L135.777 -112.027
L144.302 -114.665
L152.721 -118.33
L161.076 -122.151
L169.349 -126.856
L177.588 -130.918
L185.678 -139.915
L193.776 -147.448
L201.883 -152.081
L209.945 -156.505
L217.961 -160.129
L225.924 -162.431" id="C3_10_ba7fb5df83"/>
     <path d="
M117.939 -94.2114
L126.707 -97.8333
L135.469 -100.112
L144.113 -103.404
L152.712 -106.127
L161.221 -109.452
L169.651 -113.324
L177.992 -118.463
L186.286 -123.656
L194.493 -131.486
L202.677 -139.236
L210.848 -145.333
L218.993 -147.907
L227.077 -153.675
L235.104 -155.336
L243.073 -158.4" id="C3_11_509c73cd8b"/>
     <path d="
M135.168 -87.3749
L143.947 -91.027
L152.696 -93.672
L161.349 -97.0183
L169.943 -100.042
L178.456 -103.62
L186.886 -108.248
L195.23 -115.05
L203.518 -123.81
L211.797 -131.366
L220.047 -139.281
L228.265 -141.369
L236.419 -144.279
L244.521 -148.394
L252.543 -150.246
L260.507 -152.766" id="C3_12_2a09d20de5"/>
     <path d="
M152.681 -80.7795
L161.479 -84.2396
L170.215 -87.4302
L178.701 -98.3635
L187.466 -94.3945
L195.969 -99.4255
L204.413 -105.243
L212.804 -112.396
L221.157 -121.823
L229.495 -130.257
L237.78 -133.253
L246.008 -137.043
L254.183 -141.02
L262.268 -143.044
L270.325 -146.926
L278.266 -148.37" id="C3_13_2cdcd41b9e"/>
     <path d="
M170.49 -74.5932
L179.302 -77.9316
L188.036 -81.6204
L196.685 -86.494
L205.298 -89.5273
L213.823 -95.5461
L222.298 -104.256
L230.877 -165.849
L239.184 -121.299
L247.56 -126.736
L255.834 -128.251
L264.052 -130.928
L272.268 -136.446
L280.382 -139.746
L288.434 -142.967
L296.429 -146.256" id="C3_14_21e60a19da"/>
     <path d="
M188.621 -68.6157
L197.439 -72.1772
L206.193 -75.1055
L214.863 -79.868
L223.474 -85.2634
L232.038 -92.2379
L240.588 -102.431
L249.128 -112.573
L257.591 -118.384
L265.882 -117.692
L274.287 -125.978
L282.482 -127.463
L290.657 -130.754
L298.783 -134.382
L306.847 -137.902
L314.863 -141.672" id="C3_15_af1f8d57c0"/>
     <path d="
M207.107 -61.35
L215.926 -65.5169
L224.679 -70.1222
L233.381 -77.5138
L242.025 -82.0989
L251.187 -134.136
L259.298 -101.243
L267.796 -105.23
L276.069 -102.565
L284.601 -112.954
L292.953 -118.071
L301.246 -122.921
L309.384 -125.196
L317.519 -129.004
L325.631 -133.503
L333.533 -134.948" id="C3_16_77ca177a76"/>
     <path d="
M225.924 -55.4014
L234.763 -60.8645
L243.528 -64.3257
L252.264 -71.1056
L260.997 -80.0939
L269.742 -90.6801
L278.199 -90.4807
L286.546 -89.8755
L294.9 -92.3849
L303.374 -99.9952
L311.861 -108.637
L320.012 -110.463
L328.55 -121.551
L336.428 -120.387
L344.534 -124.859
L357.173 -204.198" id="C3_17_d224d75826"/>
    </defs>
    <g clip-path="url(#p124b8dd147)">
     <use style="fill:none;stroke:#008000;stroke-linecap:butt;" x="0" xlink:href="#C3_0_44f00140a8" y="288.0"/>
    </g>
    <g clip-path="url(#p124b8dd147)">
     <use style="fill:none;stroke:#008000;stroke-linecap:butt;" x="0" xlink:href="#C3_1_4423177498" y="288.0"/>
    </g>
    <g clip-path="url(#p124b8dd147)">
     <use style="fill:none;stroke:#008000;stroke-linecap:butt;" x="0" xlink:href="#C3_2_2456e977ee" y="288.0"/>
    </g>
    <g clip-path="url(#p124b8dd147)">
     <use style="fill:none;stroke:#008000;stroke-linecap:butt;" x="0" xlink:href="#C3_3_5da942b9bf" y="288.0"/>
    </g>
    <g clip-path="url(#p124b8dd147)">
     <use style="fill:none;stroke:#008000;stroke-linecap:butt;" x="0" xlink:href="#C3_4_82fd0c8f28" y="288.0"/>
    </g>
    <g clip-path="url(#p124b8dd147)">
     <use style="fill:none;stroke:#008000;stroke-linecap:butt;" x="0" xlink:href="#C3_5_327db6d9d5" y="288.0"/>
    </g>
    <g clip-path="url(#p124b8dd147)">
     <use style="fill:none;stroke:#008000;stroke-linecap:butt;" x="0" xlink:href="#C3_6_b044688948" y="288.0"/>
    </g>
    <g clip-path="url(#p124b8dd147)">
     <use style="fill:none;stroke:#008000;stroke-linecap:butt;" x="0" xlink:href="#C3_7_929e16f477" y="288.0"/>
    </g>
    <g clip-path="url(#p124b8dd147)">
     <use style="fill:none;stroke:#008000;stroke-linecap:butt;" x="0" xlink:href="#C3_8_47fa117696" y="288.0"/>
    </g>
    <g clip-path="url(#p124b8dd147)">
     <use style="fill:none;stroke:#008000;stroke-linecap:butt;" x="0" xlink:href="#C3_9_a924085c1e" y="288.0"/>
    </g>
    <g clip-path="url(#p124b8dd147)">
     <use style="fill:none;stroke:#008000;stroke-linecap:butt;" x="0" xlink:href="#C3_a_0512f36cb9" y="288.0"/>
    </g>
    <g clip-path="url(#p124b8dd147)">
     <use style="fill:none;stroke:#008000;stroke-linecap:butt;" x="0" xlink:href="#C3_b_894473164b" y="288.0"/>
    </g>
    <g clip-path="url(#p124b8dd147)">
     <use style="fill:none;stroke:#008000;stroke-linecap:butt;" x="0" xlink:href="#C3_c_87e0a42488" y="288.0"/>
    </g>
    <g clip-path="url(#p124b8dd147)">
     <use style="fill:none;stroke:#008000;stroke-linecap:butt;" x="0" xlink:href="#C3_d_a58ff6036c" y="288.0"/>
    </g>
    <g clip-path="url(#p124b8dd147)">
     <use style="fill:none;stroke:#008000;stroke-linecap:butt;" x="0" xlink:href="#C3_e_daafe11de1" y="288.0"/>
    </g>
    <g clip-path="url(#p124b8dd147)">
     <use style="fill:none;stroke:#008000;stroke-linecap:butt;" x="0" xlink:href="#C3_f_7c57b7f9eb" y="288.0"/>
    </g>
    <g clip-path="url(#p124b8dd147)">
     <use style="fill:none;stroke:#008000;stroke-linecap:butt;" x="0" xlink:href="#C3_10_ba7fb5df83" y="288.0"/>
    </g>
    <g clip-path="url(#p124b8dd147)">
     <use style="fill:none;stroke:#008000;stroke-linecap:butt;" x="0" xlink:href="#C3_11_509c73cd8b" y="288.0"/>
    </g>
    <g clip-path="url(#p124b8dd147)">
     <use style="fill:none;stroke:#008000;stroke-linecap:butt;" x="0" xlink:href="#C3_12_2a09d20de5" y="288.0"/>
    </g>
    <g clip-path="url(#p124b8dd147)">
     <use style="fill:none;stroke:#008000;stroke-linecap:butt;" x="0" xlink:href="#C3_13_2cdcd41b9e" y="288.0"/>
    </g>
    <g clip-path="url(#p124b8dd147)">
     <use style="fill:none;stroke:#008000;stroke-linecap:butt;" x="0" xlink:href="#C3_14_21e60a19da" y="288.0"/>
    </g>
    <g clip-path="url(#p124b8dd147)">
     <use style="fill:none;stroke:#008000;stroke-linecap:butt;" x="0" xlink:href="#C3_15_af1f8d57c0" y="288.0"/>
    </g>
    <g clip-path="url(#p124b8dd147)">
     <use style="fill:none;stroke:#008000;stroke-linecap:butt;" x="0" xlink:href="#C3_16_77ca177a76" y="288.0"/>
    </g>
    <g clip-path="url(#p124b8dd147)">
     <use style="fill:none;stroke:#008000;stroke-linecap:butt;" x="0" xlink:href="#C3_17_d224d75826" y="288.0"/>
    </g>
   </g>
  </g>
 </g>
 <defs>
  <clipPath id="p124b8dd147">
   <rect height="223.2" width="334.8" x="54.0" y="28.8"/>
  </clipPath>
 </defs>
</svg>
