<?xml version="1.0" encoding="utf-8" standalone="no"?>
<!DOCTYPE svg PUBLIC "-//W3C//DTD SVG 1.1//EN"
  "http://www.w3.org/Graphics/SVG/1.1/DTD/svg11.dtd">
<!-- Created with matplotlib (http://matplotlib.sourceforge.net/) -->
<svg height="288pt" version="1.1" viewBox="0 0 432 288" width="432pt" xmlns="http://www.w3.org/2000/svg" xmlns:xlink="http://www.w3.org/1999/xlink">
 <defs>
  <style type="text/css">
*{stroke-linecap:square;stroke-linejoin:round;}
  </style>
 </defs>
 <g id="figure_1">
  <g id="patch_1">
   <path d="
M0 288
L432 288
L432 0
L0 0
z
" style="fill:#ffffff;"/>
  </g>
  <g id="patch_2">
   <path d="
M54 252
L388.8 252
L388.8 28.8
L54 28.8
z
" style="fill:#ffffff;"/>
  </g>
  <g id="pane3d_1">
   <g id="patch_3">
    <path d="
M173.948 150.438
L105.003 210.648
L98.353 99.7482
L171.324 45.6103" style="fill:#f2f2f2;opacity:0.5;stroke:#f2f2f2;"/>
   </g>
  </g>
  <g id="pane3d_2">
   <g id="patch_4">
    <path d="
M340.654 171.231
L173.948 150.438
L171.324 45.6103
L346.624 64.2534" style="fill:#e6e6e6;opacity:0.5;stroke:#e6e6e6;"/>
   </g>
  </g>
  <g id="pane3d_3">
   <g id="patch_5">
    <path d="
M340.654 171.231
L173.948 150.438
L105.003 210.648
L284.108 235.18" style="fill:#ececec;opacity:0.5;stroke:#ececec;"/>
   </g>
  </g>
  <g id="axis3d_1">
   <g id="line2d_1">
    <path d="
M105.003 210.648
L284.108 235.18" style="fill:none;stroke:#000000;stroke-width:0.75;"/>
   </g>
   <g id="text_1">
    <!-- Analytical terminals -->
    <defs>
     <path d="
M52 44.1875
Q55.375 50.25 60.0625 53.125
Q64.75 56 71.0938 56
Q79.6406 56 84.2812 50.0156
Q88.9219 44.0469 88.9219 33.0156
L88.9219 0
L79.8906 0
L79.8906 32.7188
Q79.8906 40.5781 77.0938 44.375
Q74.3125 48.1875 68.6094 48.1875
Q61.625 48.1875 57.5625 43.5469
Q53.5156 38.9219 53.5156 30.9062
L53.5156 0
L44.4844 0
L44.4844 32.7188
Q44.4844 40.625 41.7031 44.4062
Q38.9219 48.1875 33.1094 48.1875
Q26.2188 48.1875 22.1562 43.5312
Q18.1094 38.875 18.1094 30.9062
L18.1094 0
L9.07812 0
L9.07812 54.6875
L18.1094 54.6875
L18.1094 46.1875
Q21.1875 51.2188 25.4844 53.6094
Q29.7812 56 35.6875 56
Q41.6562 56 45.8281 52.9688
Q50 49.9531 52 44.1875" id="DejaVuSans-6d"/>
     <path d="
M54.8906 33.0156
L54.8906 0
L45.9062 0
L45.9062 32.7188
Q45.9062 40.4844 42.875 44.3281
Q39.8438 48.1875 33.7969 48.1875
Q26.5156 48.1875 22.3125 43.5469
Q18.1094 38.9219 18.1094 30.9062
L18.1094 0
L9.07812 0
L9.07812 54.6875
L18.1094 54.6875
L18.1094 46.1875
Q21.3438 51.125 25.7031 53.5625
Q30.0781 56 35.7969 56
Q45.2188 56 50.0469 50.1719
Q54.8906 44.3438 54.8906 33.0156" id="DejaVuSans-6e"/>
     <path d="
M9.42188 75.9844
L18.4062 75.9844
L18.4062 0
L9.42188 0
z
" id="DejaVuSans-6c"/>
     <path id="DejaVuSans-20"/>
     <path d="
M32.1719 -5.07812
Q28.375 -14.8438 24.75 -17.8125
Q21.1406 -20.7969 15.0938 -20.7969
L7.90625 -20.7969
L7.90625 -13.2812
L13.1875 -13.2812
Q16.8906 -13.2812 18.9375 -11.5156
Q21 -9.76562 23.4844 -3.21875
L25.0938 0.875
L2.98438 54.6875
L12.5 54.6875
L29.5938 11.9219
L46.6875 54.6875
L56.2031 54.6875
z
" id="DejaVuSans-79"/>
     <path d="
M34.1875 63.1875
L20.7969 26.9062
L47.6094 26.9062
z

M28.6094 72.9062
L39.7969 72.9062
L67.5781 0
L57.3281 0
L50.6875 18.7031
L17.8281 18.7031
L11.1875 0
L0.78125 0
z
" id="DejaVuSans-41"/>
     <path d="
M9.42188 54.6875
L18.4062 54.6875
L18.4062 0
L9.42188 0
z

M9.42188 75.9844
L18.4062 75.9844
L18.4062 64.5938
L9.42188 64.5938
z
" id="DejaVuSans-69"/>
     <path d="
M18.3125 70.2188
L18.3125 54.6875
L36.8125 54.6875
L36.8125 47.7031
L18.3125 47.7031
L18.3125 18.0156
Q18.3125 11.3281 20.1406 9.42188
Q21.9688 7.51562 27.5938 7.51562
L36.8125 7.51562
L36.8125 0
L27.5938 0
Q17.1875 0 13.2344 3.875
Q9.28125 7.76562 9.28125 18.0156
L9.28125 47.7031
L2.6875 47.7031
L2.6875 54.6875
L9.28125 54.6875
L9.28125 70.2188
z
" id="DejaVuSans-74"/>
     <path d="
M56.2031 29.5938
L56.2031 25.2031
L14.8906 25.2031
Q15.4844 15.9219 20.4844 11.0625
Q25.4844 6.20312 34.4219 6.20312
Q39.5938 6.20312 44.4531 7.46875
Q49.3125 8.73438 54.1094 11.2812
L54.1094 2.78125
Q49.2656 0.734375 44.1875 -0.34375
Q39.1094 -1.42188 33.8906 -1.42188
Q20.7969 -1.42188 13.1562 6.1875
Q5.51562 13.8125 5.51562 26.8125
Q5.51562 40.2344 12.7656 48.1094
Q20.0156 56 32.3281 56
Q43.3594 56 49.7812 48.8906
Q56.2031 41.7969 56.2031 29.5938
M47.2188 32.2344
Q47.125 39.5938 43.0938 43.9844
Q39.0625 48.3906 32.4219 48.3906
Q24.9062 48.3906 20.3906 44.1406
Q15.875 39.8906 15.1875 32.1719
z
" id="DejaVuSans-65"/>
     <path d="
M41.1094 46.2969
Q39.5938 47.1719 37.8125 47.5781
Q36.0312 48 33.8906 48
Q26.2656 48 22.1875 43.0469
Q18.1094 38.0938 18.1094 28.8125
L18.1094 0
L9.07812 0
L9.07812 54.6875
L18.1094 54.6875
L18.1094 46.1875
Q20.9531 51.1719 25.4844 53.5781
Q30.0312 56 36.5312 56
Q37.4531 56 38.5781 55.875
Q39.7031 55.7656 41.0625 55.5156
z
" id="DejaVuSans-72"/>
     <path d="
M48.7812 52.5938
L48.7812 44.1875
Q44.9688 46.2969 41.1406 47.3438
Q37.3125 48.3906 33.4062 48.3906
Q24.6562 48.3906 19.8125 42.8438
Q14.9844 37.3125 14.9844 27.2969
Q14.9844 17.2812 19.8125 11.7344
Q24.6562 6.20312 33.4062 6.20312
Q37.3125 6.20312 41.1406 7.25
Q44.9688 8.29688 48.7812 10.4062
L48.7812 2.09375
Q45.0156 0.34375 40.9844 -0.53125
Q36.9688 -1.42188 32.4219 -1.42188
Q20.0625 -1.42188 12.7812 6.34375
Q5.51562 14.1094 5.51562 27.2969
Q5.51562 40.6719 12.8594 48.3281
Q20.2188 56 33.0156 56
Q37.1562 56 41.1094 55.1406
Q45.0625 54.2969 48.7812 52.5938" id="DejaVuSans-63"/>
     <path d="
M44.2812 53.0781
L44.2812 44.5781
Q40.4844 46.5312 36.375 47.5
Q32.2812 48.4844 27.875 48.4844
Q21.1875 48.4844 17.8438 46.4375
Q14.5 44.3906 14.5 40.2812
Q14.5 37.1562 16.8906 35.375
Q19.2812 33.5938 26.5156 31.9844
L29.5938 31.2969
Q39.1562 29.25 43.1875 25.5156
Q47.2188 21.7812 47.2188 15.0938
Q47.2188 7.46875 41.1875 3.01562
Q35.1562 -1.42188 24.6094 -1.42188
Q20.2188 -1.42188 15.4531 -0.5625
Q10.6875 0.296875 5.42188 2
L5.42188 11.2812
Q10.4062 8.6875 15.2344 7.39062
Q20.0625 6.10938 24.8125 6.10938
Q31.1562 6.10938 34.5625 8.28125
Q37.9844 10.4531 37.9844 14.4062
Q37.9844 18.0625 35.5156 20.0156
Q33.0625 21.9688 24.7031 23.7812
L21.5781 24.5156
Q13.2344 26.2656 9.51562 29.9062
Q5.8125 33.5469 5.8125 39.8906
Q5.8125 47.6094 11.2812 51.7969
Q16.75 56 26.8125 56
Q31.7812 56 36.1719 55.2656
Q40.5781 54.5469 44.2812 53.0781" id="DejaVuSans-73"/>
     <path d="
M34.2812 27.4844
Q23.3906 27.4844 19.1875 25
Q14.9844 22.5156 14.9844 16.5
Q14.9844 11.7188 18.1406 8.90625
Q21.2969 6.10938 26.7031 6.10938
Q34.1875 6.10938 38.7031 11.4062
Q43.2188 16.7031 43.2188 25.4844
L43.2188 27.4844
z

M52.2031 31.2031
L52.2031 0
L43.2188 0
L43.2188 8.29688
Q40.1406 3.32812 35.5469 0.953125
Q30.9531 -1.42188 24.3125 -1.42188
Q15.9219 -1.42188 10.9531 3.29688
Q6 8.01562 6 15.9219
Q6 25.1406 12.1719 29.8281
Q18.3594 34.5156 30.6094 34.5156
L43.2188 34.5156
L43.2188 35.4062
Q43.2188 41.6094 39.1406 45
Q35.0625 48.3906 27.6875 48.3906
Q23 48.3906 18.5469 47.2656
Q14.1094 46.1406 10.0156 43.8906
L10.0156 52.2031
Q14.9375 54.1094 19.5781 55.0469
Q24.2188 56 28.6094 56
Q40.4844 56 46.3438 49.8438
Q52.2031 43.7031 52.2031 31.2031" id="DejaVuSans-61"/>
    </defs>
    <g transform="translate(134.996298178 241.038618608)rotate(-352.20079014)scale(0.1 -0.1)">
     <use xlink:href="#DejaVuSans-41"/>
     <use x="68.408203125" xlink:href="#DejaVuSans-6e"/>
     <use x="131.787109375" xlink:href="#DejaVuSans-61"/>
     <use x="193.06640625" xlink:href="#DejaVuSans-6c"/>
     <use x="220.849609375" xlink:href="#DejaVuSans-79"/>
     <use x="280.029296875" xlink:href="#DejaVuSans-74"/>
     <use x="319.23828125" xlink:href="#DejaVuSans-69"/>
     <use x="347.021484375" xlink:href="#DejaVuSans-63"/>
     <use x="402.001953125" xlink:href="#DejaVuSans-61"/>
     <use x="463.28125" xlink:href="#DejaVuSans-6c"/>
     <use x="491.064453125" xlink:href="#DejaVuSans-20"/>
     <use x="522.8515625" xlink:href="#DejaVuSans-74"/>
     <use x="562.060546875" xlink:href="#DejaVuSans-65"/>
     <use x="623.583984375" xlink:href="#DejaVuSans-72"/>
     <use x="662.947265625" xlink:href="#DejaVuSans-6d"/>
     <use x="760.359375" xlink:href="#DejaVuSans-69"/>
     <use x="788.142578125" xlink:href="#DejaVuSans-6e"/>
     <use x="851.521484375" xlink:href="#DejaVuSans-61"/>
     <use x="912.80078125" xlink:href="#DejaVuSans-6c"/>
     <use x="940.583984375" xlink:href="#DejaVuSans-73"/>
    </g>
   </g>
   <g id="Line3DCollection_1">
    <defs>
     <path d="
M280.414 -53.3259
L337.224 -117.197
L343.012 -224.131" id="C0_0_6c82b97def"/>
     <path d="
M255.21 -56.778
L313.813 -120.117
L318.364 -226.752" id="C0_1_1421136951"/>
     <path d="
M230.225 -60.2001
L290.589 -123.014
L293.923 -229.351" id="C0_2_29e6121078"/>
     <path d="
M205.456 -63.5928
L267.549 -125.887
L269.686 -231.929" id="C0_3_143196a4d3"/>
     <path d="
M180.899 -66.9563
L244.691 -128.738
L245.651 -234.485" id="C0_4_243cca56a3"/>
     <path d="
M156.552 -70.2911
L222.013 -131.567
L221.814 -237.02" id="C0_5_fcbc2d1c24"/>
     <path d="
M132.412 -73.5975
L199.513 -134.373
L198.174 -239.534" id="C0_6_8f2ec51653"/>
     <path d="
M108.477 -76.8759
L177.189 -137.158
L174.728 -242.028" id="C0_7_02b7fb3932"/>
    </defs>
    <use style="fill:none;stroke:#e6e6e6;stroke-linecap:butt;" x="0" xlink:href="#C0_0_6c82b97def" y="288.0"/>
    <use style="fill:none;stroke:#e6e6e6;stroke-linecap:butt;" x="0" xlink:href="#C0_1_1421136951" y="288.0"/>
    <use style="fill:none;stroke:#e6e6e6;stroke-linecap:butt;" x="0" xlink:href="#C0_2_29e6121078" y="288.0"/>
    <use style="fill:none;stroke:#e6e6e6;stroke-linecap:butt;" x="0" xlink:href="#C0_3_143196a4d3" y="288.0"/>
    <use style="fill:none;stroke:#e6e6e6;stroke-linecap:butt;" x="0" xlink:href="#C0_4_243cca56a3" y="288.0"/>
    <use style="fill:none;stroke:#e6e6e6;stroke-linecap:butt;" x="0" xlink:href="#C0_5_fcbc2d1c24" y="288.0"/>
    <use style="fill:none;stroke:#e6e6e6;stroke-linecap:butt;" x="0" xlink:href="#C0_6_8f2ec51653" y="288.0"/>
    <use style="fill:none;stroke:#e6e6e6;stroke-linecap:butt;" x="0" xlink:href="#C0_7_02b7fb3932" y="288.0"/>
   </g>
   <g id="xtick_1">
    <g id="line2d_2">
     <path d="
M280.908 234.119
L279.424 235.787" style="fill:none;stroke:#000000;"/>
    </g>
    <g id="text_2">
     <!-- 1 -->
     <defs>
      <path d="
M12.4062 8.29688
L28.5156 8.29688
L28.5156 63.9219
L10.9844 60.4062
L10.9844 69.3906
L28.4219 72.9062
L38.2812 72.9062
L38.2812 8.29688
L54.3906 8.29688
L54.3906 0
L12.4062 0
z
" id="DejaVuSans-31"/>
     </defs>
     <g transform="translate(274.612686194 251.871195668)scale(0.1 -0.1)">
      <use xlink:href="#DejaVuSans-31"/>
     </g>
    </g>
   </g>
   <g id="xtick_2">
    <g id="line2d_3">
     <path d="
M255.72 230.672
L254.19 232.325" style="fill:none;stroke:#000000;"/>
    </g>
    <g id="text_3">
     <!-- 2 -->
     <defs>
      <path d="
M19.1875 8.29688
L53.6094 8.29688
L53.6094 0
L7.32812 0
L7.32812 8.29688
Q12.9375 14.1094 22.625 23.8906
Q32.3281 33.6875 34.8125 36.5312
Q39.5469 41.8438 41.4219 45.5312
Q43.3125 49.2188 43.3125 52.7812
Q43.3125 58.5938 39.2344 62.25
Q35.1562 65.9219 28.6094 65.9219
Q23.9688 65.9219 18.8125 64.3125
Q13.6719 62.7031 7.8125 59.4219
L7.8125 69.3906
Q13.7656 71.7812 18.9375 73
Q24.125 74.2188 28.4219 74.2188
Q39.75 74.2188 46.4844 68.5469
Q53.2188 62.8906 53.2188 53.4219
Q53.2188 48.9219 51.5312 44.8906
Q49.8594 40.875 45.4062 35.4062
Q44.1875 33.9844 37.6406 27.2188
Q31.1094 20.4531 19.1875 8.29688" id="DejaVuSans-32"/>
     </defs>
     <g transform="translate(249.23402469 248.500721513)scale(0.1 -0.1)">
      <use xlink:href="#DejaVuSans-32"/>
     </g>
    </g>
   </g>
   <g id="xtick_3">
    <g id="line2d_4">
     <path d="
M230.75 227.254
L229.174 228.894" style="fill:none;stroke:#000000;"/>
    </g>
    <g id="text_4">
     <!-- 3 -->
     <defs>
      <path d="
M40.5781 39.3125
Q47.6562 37.7969 51.625 33
Q55.6094 28.2188 55.6094 21.1875
Q55.6094 10.4062 48.1875 4.48438
Q40.7656 -1.42188 27.0938 -1.42188
Q22.5156 -1.42188 17.6562 -0.515625
Q12.7969 0.390625 7.625 2.20312
L7.625 11.7188
Q11.7188 9.32812 16.5938 8.10938
Q21.4844 6.89062 26.8125 6.89062
Q36.0781 6.89062 40.9375 10.5469
Q45.7969 14.2031 45.7969 21.1875
Q45.7969 27.6406 41.2812 31.2656
Q36.7656 34.9062 28.7188 34.9062
L20.2188 34.9062
L20.2188 43.0156
L29.1094 43.0156
Q36.375 43.0156 40.2344 45.9219
Q44.0938 48.8281 44.0938 54.2969
Q44.0938 59.9062 40.1094 62.9062
Q36.1406 65.9219 28.7188 65.9219
Q24.6562 65.9219 20.0156 65.0312
Q15.375 64.1562 9.8125 62.3125
L9.8125 71.0938
Q15.4375 72.6562 20.3438 73.4375
Q25.25 74.2188 29.5938 74.2188
Q40.8281 74.2188 47.3594 69.1094
Q53.9062 64.0156 53.9062 55.3281
Q53.9062 49.2656 50.4375 45.0938
Q46.9688 40.9219 40.5781 39.3125" id="DejaVuSans-33"/>
     </defs>
     <g transform="translate(224.132883383 245.029376702)scale(0.1 -0.1)">
      <use xlink:href="#DejaVuSans-33"/>
     </g>
    </g>
   </g>
   <g id="xtick_4">
    <g id="line2d_5">
     <path d="
M205.995 223.866
L204.375 225.491" style="fill:none;stroke:#000000;"/>
    </g>
    <g id="text_5">
     <!-- 4 -->
     <defs>
      <path d="
M37.7969 64.3125
L12.8906 25.3906
L37.7969 25.3906
z

M35.2031 72.9062
L47.6094 72.9062
L47.6094 25.3906
L58.0156 25.3906
L58.0156 17.1875
L47.6094 17.1875
L47.6094 0
L37.7969 0
L37.7969 17.1875
L4.89062 17.1875
L4.89062 26.7031
z
" id="DejaVuSans-34"/>
     </defs>
     <g transform="translate(199.075956873 241.456767605)scale(0.1 -0.1)">
      <use xlink:href="#DejaVuSans-34"/>
     </g>
    </g>
   </g>
   <g id="xtick_5">
    <g id="line2d_6">
     <path d="
M181.453 220.507
L179.789 222.119" style="fill:none;stroke:#000000;"/>
    </g>
    <g id="text_6">
     <!-- 5 -->
     <defs>
      <path d="
M10.7969 72.9062
L49.5156 72.9062
L49.5156 64.5938
L19.8281 64.5938
L19.8281 46.7344
Q21.9688 47.4688 24.1094 47.8281
Q26.2656 48.1875 28.4219 48.1875
Q40.625 48.1875 47.75 41.5
Q54.8906 34.8125 54.8906 23.3906
Q54.8906 11.625 47.5625 5.09375
Q40.2344 -1.42188 26.9062 -1.42188
Q22.3125 -1.42188 17.5469 -0.640625
Q12.7969 0.140625 7.71875 1.70312
L7.71875 11.625
Q12.1094 9.23438 16.7969 8.0625
Q21.4844 6.89062 26.7031 6.89062
Q35.1562 6.89062 40.0781 11.3281
Q45.0156 15.7656 45.0156 23.3906
Q45.0156 31 40.0781 35.4375
Q35.1562 39.8906 26.7031 39.8906
Q22.75 39.8906 18.8125 39.0156
Q14.8906 38.1406 10.7969 36.2812
z
" id="DejaVuSans-35"/>
     </defs>
     <g transform="translate(174.7870198 238.045007366)scale(0.1 -0.1)">
      <use xlink:href="#DejaVuSans-35"/>
     </g>
    </g>
   </g>
   <g id="xtick_6">
    <g id="line2d_7">
     <path d="
M157.12 217.177
L155.413 218.775" style="fill:none;stroke:#000000;"/>
    </g>
    <g id="text_7">
     <!-- 6 -->
     <defs>
      <path d="
M33.0156 40.375
Q26.375 40.375 22.4844 35.8281
Q18.6094 31.2969 18.6094 23.3906
Q18.6094 15.5312 22.4844 10.9531
Q26.375 6.39062 33.0156 6.39062
Q39.6562 6.39062 43.5312 10.9531
Q47.4062 15.5312 47.4062 23.3906
Q47.4062 31.2969 43.5312 35.8281
Q39.6562 40.375 33.0156 40.375
M52.5938 71.2969
L52.5938 62.3125
Q48.875 64.0625 45.0938 64.9844
Q41.3125 65.9219 37.5938 65.9219
Q27.8281 65.9219 22.6719 59.3281
Q17.5312 52.7344 16.7969 39.4062
Q19.6719 43.6562 24.0156 45.9219
Q28.375 48.1875 33.5938 48.1875
Q44.5781 48.1875 50.9531 41.5156
Q57.3281 34.8594 57.3281 23.3906
Q57.3281 12.1562 50.6875 5.35938
Q44.0469 -1.42188 33.0156 -1.42188
Q20.3594 -1.42188 13.6719 8.26562
Q6.98438 17.9688 6.98438 36.375
Q6.98438 53.6562 15.1875 63.9375
Q23.3906 74.2188 37.2031 74.2188
Q40.9219 74.2188 44.7031 73.4844
Q48.4844 72.75 52.5938 71.2969" id="DejaVuSans-36"/>
     </defs>
     <g transform="translate(150.252394561 234.793715753)scale(0.1 -0.1)">
      <use xlink:href="#DejaVuSans-36"/>
     </g>
    </g>
   </g>
   <g id="xtick_7">
    <g id="line2d_8">
     <path d="
M132.994 213.875
L131.245 215.459" style="fill:none;stroke:#000000;"/>
    </g>
    <g id="text_8">
     <!-- 7 -->
     <defs>
      <path d="
M8.20312 72.9062
L55.0781 72.9062
L55.0781 68.7031
L28.6094 0
L18.3125 0
L43.2188 64.5938
L8.20312 64.5938
z
" id="DejaVuSans-37"/>
     </defs>
     <g transform="translate(126.257669031 231.308769021)scale(0.1 -0.1)">
      <use xlink:href="#DejaVuSans-37"/>
     </g>
    </g>
   </g>
   <g id="xtick_8">
    <g id="line2d_9">
     <path d="
M109.073 210.601
L107.283 212.172" style="fill:none;stroke:#000000;"/>
    </g>
    <g id="text_9">
     <!-- 8 -->
     <defs>
      <path d="
M31.7812 34.625
Q24.75 34.625 20.7188 30.8594
Q16.7031 27.0938 16.7031 20.5156
Q16.7031 13.9219 20.7188 10.1562
Q24.75 6.39062 31.7812 6.39062
Q38.8125 6.39062 42.8594 10.1719
Q46.9219 13.9688 46.9219 20.5156
Q46.9219 27.0938 42.8906 30.8594
Q38.875 34.625 31.7812 34.625
M21.9219 38.8125
Q15.5781 40.375 12.0312 44.7188
Q8.5 49.0781 8.5 55.3281
Q8.5 64.0625 14.7188 69.1406
Q20.9531 74.2188 31.7812 74.2188
Q42.6719 74.2188 48.875 69.1406
Q55.0781 64.0625 55.0781 55.3281
Q55.0781 49.0781 51.5312 44.7188
Q48 40.375 41.7031 38.8125
Q48.8281 37.1562 52.7969 32.3125
Q56.7812 27.4844 56.7812 20.5156
Q56.7812 9.90625 50.3125 4.23438
Q43.8438 -1.42188 31.7812 -1.42188
Q19.7344 -1.42188 13.25 4.23438
Q6.78125 9.90625 6.78125 20.5156
Q6.78125 27.4844 10.7812 32.3125
Q14.7969 37.1562 21.9219 38.8125
M18.3125 54.3906
Q18.3125 48.7344 21.8438 45.5625
Q25.3906 42.3906 31.7812 42.3906
Q38.1406 42.3906 41.7188 45.5625
Q45.3125 48.7344 45.3125 54.3906
Q45.3125 60.0625 41.7188 63.2344
Q38.1406 66.4062 31.7812 66.4062
Q25.3906 66.4062 21.8438 63.2344
Q18.3125 60.0625 18.3125 54.3906" id="DejaVuSans-38"/>
     </defs>
     <g transform="translate(102.138476829 228.11479977)scale(0.1 -0.1)">
      <use xlink:href="#DejaVuSans-38"/>
     </g>
    </g>
   </g>
  </g>
  <g id="axis3d_2">
   <g id="line2d_10">
    <path d="
M340.654 171.231
L284.108 235.18" style="fill:none;stroke:#000000;stroke-width:0.75;"/>
   </g>
   <g id="text_10">
    <!-- Trans terminals -->
    <defs>
     <path d="
M-0.296875 72.9062
L61.375 72.9062
L61.375 64.5938
L35.5 64.5938
L35.5 0
L25.5938 0
L25.5938 64.5938
L-0.296875 64.5938
z
" id="DejaVuSans-54"/>
    </defs>
    <g transform="translate(313.395378583 249.088116341)rotate(-48.5156939703)scale(0.1 -0.1)">
     <use xlink:href="#DejaVuSans-54"/>
     <use x="46.333984375" xlink:href="#DejaVuSans-72"/>
     <use x="87.447265625" xlink:href="#DejaVuSans-61"/>
     <use x="148.7265625" xlink:href="#DejaVuSans-6e"/>
     <use x="212.10546875" xlink:href="#DejaVuSans-73"/>
     <use x="264.205078125" xlink:href="#DejaVuSans-20"/>
     <use x="295.9921875" xlink:href="#DejaVuSans-74"/>
     <use x="335.201171875" xlink:href="#DejaVuSans-65"/>
     <use x="396.724609375" xlink:href="#DejaVuSans-72"/>
     <use x="436.087890625" xlink:href="#DejaVuSans-6d"/>
     <use x="533.5" xlink:href="#DejaVuSans-69"/>
     <use x="561.283203125" xlink:href="#DejaVuSans-6e"/>
     <use x="624.662109375" xlink:href="#DejaVuSans-61"/>
     <use x="685.94140625" xlink:href="#DejaVuSans-6c"/>
     <use x="713.724609375" xlink:href="#DejaVuSans-73"/>
    </g>
   </g>
   <g id="Line3DCollection_2">
    <defs>
     <path d="
M165.659 -238.187
L168.574 -132.869
L336.257 -111.796" id="C1_0_5549120933"/>
     <path d="
M156.874 -231.669
L160.248 -125.597
L329.44 -104.087" id="C1_1_9a7d6f550e"/>
     <path d="
M147.898 -225.01
L151.75 -118.176
L322.478 -96.2142" id="C1_2_57d784ae77"/>
     <path d="
M138.726 -218.205
L143.076 -110.6
L315.368 -88.1729" id="C1_3_6c2eacff58"/>
     <path d="
M129.351 -211.25
L134.219 -102.866
L308.104 -79.9575" id="C1_4_4baac632a4"/>
     <path d="
M119.767 -204.139
L125.174 -94.9671
L300.68 -71.5623" id="C1_5_f37246d13b"/>
     <path d="
M109.966 -196.867
L115.936 -86.899
L293.093 -62.9814" id="C1_6_6a429bb735"/>
     <path d="
M99.9402 -189.429
L106.497 -78.6558
L285.335 -54.2085" id="C1_7_aaf291c27b"/>
    </defs>
    <use style="fill:none;stroke:#e6e6e6;stroke-linecap:butt;" x="0" xlink:href="#C1_0_5549120933" y="288.0"/>
    <use style="fill:none;stroke:#e6e6e6;stroke-linecap:butt;" x="0" xlink:href="#C1_1_9a7d6f550e" y="288.0"/>
    <use style="fill:none;stroke:#e6e6e6;stroke-linecap:butt;" x="0" xlink:href="#C1_2_57d784ae77" y="288.0"/>
    <use style="fill:none;stroke:#e6e6e6;stroke-linecap:butt;" x="0" xlink:href="#C1_3_6c2eacff58" y="288.0"/>
    <use style="fill:none;stroke:#e6e6e6;stroke-linecap:butt;" x="0" xlink:href="#C1_4_4baac632a4" y="288.0"/>
    <use style="fill:none;stroke:#e6e6e6;stroke-linecap:butt;" x="0" xlink:href="#C1_5_f37246d13b" y="288.0"/>
    <use style="fill:none;stroke:#e6e6e6;stroke-linecap:butt;" x="0" xlink:href="#C1_6_6a429bb735" y="288.0"/>
    <use style="fill:none;stroke:#e6e6e6;stroke-linecap:butt;" x="0" xlink:href="#C1_7_aaf291c27b" y="288.0"/>
   </g>
   <g id="xtick_9">
    <g id="line2d_11">
     <path d="
M334.876 176.03
L339.02 176.551" style="fill:none;stroke:#000000;"/>
    </g>
    <g id="text_11">
     <!-- 2 -->
     <g transform="translate(343.291360457 190.551949697)scale(0.1 -0.1)">
      <use xlink:href="#DejaVuSans-32"/>
     </g>
    </g>
   </g>
   <g id="xtick_10">
    <g id="line2d_12">
     <path d="
M328.046 183.736
L332.229 184.268" style="fill:none;stroke:#000000;"/>
    </g>
    <g id="text_12">
     <!-- 4 -->
     <g transform="translate(336.237997056 198.193732878)scale(0.1 -0.1)">
      <use xlink:href="#DejaVuSans-34"/>
     </g>
    </g>
   </g>
   <g id="xtick_11">
    <g id="line2d_13">
     <path d="
M321.072 191.605
L325.294 192.148" style="fill:none;stroke:#000000;"/>
    </g>
    <g id="text_13">
     <!-- 6 -->
     <g transform="translate(329.523845658 206.262527628)scale(0.1 -0.1)">
      <use xlink:href="#DejaVuSans-36"/>
     </g>
    </g>
   </g>
   <g id="xtick_12">
    <g id="line2d_14">
     <path d="
M313.948 199.642
L318.21 200.197" style="fill:none;stroke:#000000;"/>
    </g>
    <g id="text_14">
     <!-- 8 -->
     <g transform="translate(322.541223811 214.369862486)scale(0.1 -0.1)">
      <use xlink:href="#DejaVuSans-38"/>
     </g>
    </g>
   </g>
   <g id="xtick_13">
    <g id="line2d_15">
     <path d="
M306.67 207.854
L310.973 208.42" style="fill:none;stroke:#000000;"/>
    </g>
    <g id="text_15">
     <!-- 10 -->
     <defs>
      <path d="
M31.7812 66.4062
Q24.1719 66.4062 20.3281 58.9062
Q16.5 51.4219 16.5 36.375
Q16.5 21.3906 20.3281 13.8906
Q24.1719 6.39062 31.7812 6.39062
Q39.4531 6.39062 43.2812 13.8906
Q47.125 21.3906 47.125 36.375
Q47.125 51.4219 43.2812 58.9062
Q39.4531 66.4062 31.7812 66.4062
M31.7812 74.2188
Q44.0469 74.2188 50.5156 64.5156
Q56.9844 54.8281 56.9844 36.375
Q56.9844 17.9688 50.5156 8.26562
Q44.0469 -1.42188 31.7812 -1.42188
Q19.5312 -1.42188 13.0625 8.26562
Q6.59375 17.9688 6.59375 36.375
Q6.59375 54.8281 13.0625 64.5156
Q19.5312 74.2188 31.7812 74.2188" id="DejaVuSans-30"/>
     </defs>
     <g transform="translate(312.408814481 222.65249426)scale(0.1 -0.1)">
      <use xlink:href="#DejaVuSans-31"/>
      <use x="63.623046875" xlink:href="#DejaVuSans-30"/>
     </g>
    </g>
   </g>
   <g id="xtick_14">
    <g id="line2d_16">
     <path d="
M299.233 216.245
L303.577 216.824" style="fill:none;stroke:#000000;"/>
    </g>
    <g id="text_16">
     <!-- 12 -->
     <g transform="translate(305.270092783 231.116170496)scale(0.1 -0.1)">
      <use xlink:href="#DejaVuSans-31"/>
      <use x="63.623046875" xlink:href="#DejaVuSans-32"/>
     </g>
    </g>
   </g>
   <g id="xtick_15">
    <g id="line2d_17">
     <path d="
M291.631 224.821
L296.018 225.413" style="fill:none;stroke:#000000;"/>
    </g>
    <g id="text_17">
     <!-- 14 -->
     <g transform="translate(297.580814495 239.635642778)scale(0.1 -0.1)">
      <use xlink:href="#DejaVuSans-31"/>
      <use x="63.623046875" xlink:href="#DejaVuSans-34"/>
     </g>
    </g>
   </g>
   <g id="xtick_16">
    <g id="line2d_18">
     <path d="
M283.859 233.59
L288.289 234.195" style="fill:none;stroke:#000000;"/>
    </g>
    <g id="text_18">
     <!-- 16 -->
     <g transform="translate(289.979316306 248.610930925)scale(0.1 -0.1)">
      <use xlink:href="#DejaVuSans-31"/>
      <use x="63.623046875" xlink:href="#DejaVuSans-36"/>
     </g>
    </g>
   </g>
  </g>
  <g id="axis3d_3">
   <g id="line2d_19">
    <path d="
M340.654 171.231
L346.624 64.2534" style="fill:none;stroke:#000000;stroke-width:0.75;"/>
   </g>
   <g id="text_19">
    <!-- Req/s -->
    <defs>
     <path d="
M44.3906 34.1875
Q47.5625 33.1094 50.5625 29.5938
Q53.5625 26.0781 56.5938 19.9219
L66.6094 0
L56 0
L46.6875 18.7031
Q43.0625 26.0312 39.6719 28.4219
Q36.2812 30.8125 30.4219 30.8125
L19.6719 30.8125
L19.6719 0
L9.8125 0
L9.8125 72.9062
L32.0781 72.9062
Q44.5781 72.9062 50.7344 67.6719
Q56.8906 62.4531 56.8906 51.9062
Q56.8906 45.0156 53.6875 40.4688
Q50.4844 35.9375 44.3906 34.1875
M19.6719 64.7969
L19.6719 38.9219
L32.0781 38.9219
Q39.2031 38.9219 42.8438 42.2188
Q46.4844 45.5156 46.4844 51.9062
Q46.4844 58.2969 42.8438 61.5469
Q39.2031 64.7969 32.0781 64.7969
z
" id="DejaVuSans-52"/>
     <path d="
M14.7969 27.2969
Q14.7969 17.3906 18.875 11.75
Q22.9531 6.10938 30.0781 6.10938
Q37.2031 6.10938 41.2969 11.75
Q45.4062 17.3906 45.4062 27.2969
Q45.4062 37.2031 41.2969 42.8438
Q37.2031 48.4844 30.0781 48.4844
Q22.9531 48.4844 18.875 42.8438
Q14.7969 37.2031 14.7969 27.2969
M45.4062 8.20312
Q42.5781 3.32812 38.25 0.953125
Q33.9375 -1.42188 27.875 -1.42188
Q17.9688 -1.42188 11.7344 6.48438
Q5.51562 14.4062 5.51562 27.2969
Q5.51562 40.1875 11.7344 48.0938
Q17.9688 56 27.875 56
Q33.9375 56 38.25 53.625
Q42.5781 51.2656 45.4062 46.3906
L45.4062 54.6875
L54.3906 54.6875
L54.3906 -20.7969
L45.4062 -20.7969
z
" id="DejaVuSans-71"/>
     <path d="
M25.3906 72.9062
L33.6875 72.9062
L8.29688 -9.28125
L0 -9.28125
z
" id="DejaVuSans-2f"/>
    </defs>
    <g transform="translate(376.642760176 125.786549966)rotate(-86.8058445275)scale(0.1 -0.1)">
     <use xlink:href="#DejaVuSans-52"/>
     <use x="64.982421875" xlink:href="#DejaVuSans-65"/>
     <use x="126.505859375" xlink:href="#DejaVuSans-71"/>
     <use x="189.982421875" xlink:href="#DejaVuSans-2f"/>
     <use x="223.673828125" xlink:href="#DejaVuSans-73"/>
    </g>
   </g>
   <g id="Line3DCollection_3">
    <defs>
     <path d="
M342.014 -141.15
L173.349 -161.48
L103.491 -102.571" id="C2_0_b46bce8e4d"/>
     <path d="
M343.418 -166.303
L172.732 -186.139
L101.929 -128.625" id="C2_1_5152b8b5fb"/>
     <path d="
M344.856 -192.073
L172.1 -211.385
L100.326 -155.352" id="C2_2_9356d52003"/>
     <path d="
M346.33 -218.481
L171.453 -237.237
L98.6812 -182.778" id="C2_3_b49209ff93"/>
    </defs>
    <use style="fill:none;stroke:#e6e6e6;stroke-linecap:butt;" x="0" xlink:href="#C2_0_b46bce8e4d" y="288.0"/>
    <use style="fill:none;stroke:#e6e6e6;stroke-linecap:butt;" x="0" xlink:href="#C2_1_5152b8b5fb" y="288.0"/>
    <use style="fill:none;stroke:#e6e6e6;stroke-linecap:butt;" x="0" xlink:href="#C2_2_9356d52003" y="288.0"/>
    <use style="fill:none;stroke:#e6e6e6;stroke-linecap:butt;" x="0" xlink:href="#C2_3_b49209ff93" y="288.0"/>
   </g>
   <g id="xtick_17">
    <g id="line2d_20">
     <path d="
M340.625 146.683
L344.794 147.185" style="fill:none;stroke:#000000;"/>
    </g>
    <g id="text_20">
     <!-- 5000 -->
     <g transform="translate(342.63594043 152.229560989)scale(0.1 -0.1)">
      <use xlink:href="#DejaVuSans-35"/>
      <use x="63.623046875" xlink:href="#DejaVuSans-30"/>
      <use x="127.24609375" xlink:href="#DejaVuSans-30"/>
      <use x="190.869140625" xlink:href="#DejaVuSans-30"/>
     </g>
    </g>
   </g>
   <g id="xtick_18">
    <g id="line2d_21">
     <path d="
M342.012 121.533
L346.232 122.024" style="fill:none;stroke:#000000;"/>
    </g>
    <g id="text_21">
     <!-- 10000 -->
     <g transform="translate(341.169851205 127.12492127)scale(0.1 -0.1)">
      <use xlink:href="#DejaVuSans-31"/>
      <use x="63.623046875" xlink:href="#DejaVuSans-30"/>
      <use x="127.24609375" xlink:href="#DejaVuSans-30"/>
      <use x="190.869140625" xlink:href="#DejaVuSans-30"/>
      <use x="254.4921875" xlink:href="#DejaVuSans-30"/>
     </g>
    </g>
   </g>
   <g id="xtick_19">
    <g id="line2d_22">
     <path d="
M343.433 95.768
L347.706 96.2457" style="fill:none;stroke:#000000;"/>
    </g>
    <g id="text_22">
     <!-- 15000 -->
     <g transform="translate(342.75960745 101.407552659)scale(0.1 -0.1)">
      <use xlink:href="#DejaVuSans-31"/>
      <use x="63.623046875" xlink:href="#DejaVuSans-35"/>
      <use x="127.24609375" xlink:href="#DejaVuSans-30"/>
      <use x="190.869140625" xlink:href="#DejaVuSans-30"/>
      <use x="254.4921875" xlink:href="#DejaVuSans-30"/>
     </g>
    </g>
   </g>
   <g id="xtick_20">
    <g id="line2d_23">
     <path d="
M344.888 69.3645
L349.215 69.8286" style="fill:none;stroke:#000000;"/>
    </g>
    <g id="text_23">
     <!-- 20000 -->
     <g transform="translate(344.205831732 75.0547457129)scale(0.1 -0.1)">
      <use xlink:href="#DejaVuSans-32"/>
      <use x="63.623046875" xlink:href="#DejaVuSans-30"/>
      <use x="127.24609375" xlink:href="#DejaVuSans-30"/>
      <use x="190.869140625" xlink:href="#DejaVuSans-30"/>
      <use x="254.4921875" xlink:href="#DejaVuSans-30"/>
     </g>
    </g>
   </g>
  </g>
  <g id="axes_1">
   <g id="Line3DCollection_4">
    <defs>
     <path d="
M337.095 -133.117
L313.979 -148.488
L290.521 -155.729
L267.337 -172.293
L244.008 -185.547
L220.633 -200.224
L197.178 -215.42
L173.444 -238.827" id="C3_0_2f9083c057"/>
     <path d="
M333.347 -122.61
L309.916 -131.508
L286.435 -136.756
L263.175 -146.753
L239.94 -156.287
L216.737 -167.539
L193.536 -178.647
L170.308 -190.886" id="C3_1_1476bf61d4"/>
     <path d="
M329.778 -115.891
L306.126 -121.334
L282.644 -128
L259.295 -136.352
L236.017 -145.569
L212.787 -154.457
L189.56 -166.232
L166.427 -174.275" id="C3_2_976411389f"/>
     <path d="
M326.181 -109.1
L302.52 -116.485
L278.911 -122.246
L255.461 -130.11
L232.091 -138.595
L208.792 -146.212
L185.503 -157.591
L162.332 -165.01" id="C3_3_1165258f99"/>
     <path d="
M322.773 -106.836
L298.863 -111.099
L275.165 -117.243
L251.596 -123.899
L228.137 -131.576
L204.75 -140.232
L181.377 -151.084
L158.1 -159.313" id="C3_4_a9fa801cdd"/>
     <path d="
M319.123 -100.169
L295.17 -105.624
L271.376 -111.808
L247.721 -119.59
L224.151 -127.475
L200.653 -135.98
L177.299 -141.127
L153.858 -152.821" id="C3_5_1041e5bf88"/>
     <path d="
M315.55 -95.8386
L291.49 -101.512
L267.603 -108.84
L243.806 -115.134
L220.115 -126.665
L196.501 -132.634
L172.978 -139.945
L149.713 -142.758" id="C3_6_1ba5cb5515"/>
     <path d="
M311.959 -91.9419
L287.781 -97.6764
L263.796 -106.317
L239.863 -112.332
L216.06 -118.188
L192.334 -127.398
L168.767 -132.752
L145.427 -135.812" id="C3_7_9860d81ceb"/>
     <path d="
M308.304 -87.3531
L284.025 -93.5939
L259.884 -100.255
L235.863 -107.367
L211.947 -114.782
L188.139 -121.546
L164.484 -126.847
L140.967 -132.268" id="C3_8_fc23b6ad24"/>
     <path d="
M304.645 -83.6034
L280.23 -89.5052
L255.972 -96.4119
L231.828 -103.51
L207.797 -110.165
L183.891 -116.402
L160.015 -125.598
L136.383 -130.422" id="C3_9_682ed98a57"/>
     <path d="
M300.975 -80.6335
L276.399 -85.5921
L252.011 -92.1321
L227.748 -99.1098
L203.597 -106.246
L179.559 -113.157
L155.583 -121.503
L131.69 -129.69" id="C3_a_e6b77fda1f"/>
     <path d="
M297.181 -75.3711
L272.531 -81.8425
L248.012 -88.2018
L223.624 -95.7931
L199.349 -102.52
L175.175 -109.979
L151.082 -117.951
L127.126 -124.895" id="C3_b_1d6417a3c3"/>
     <path d="
M293.459 -73.331
L268.6 -77.1719
L243.971 -84.4747
L219.458 -90.5193
L195.067 -97.822
L170.732 -107.034
L146.574 -113.268
L122.41 -122.174" id="C3_c_69600b67e7"/>
     <path d="
M289.547 -66.8522
L264.638 -73.0197
L239.876 -79.613
L215.245 -86.5231
L190.732 -93.5559
L166.877 -82.1133
L141.956 -110.078
L117.745 -117.379" id="C3_d_8cd8b4f235"/>
     <path d="
M285.677 -62.848
L260.636 -69.0724
L235.742 -75.2918
L210.985 -82.2479
L186.34 -89.7837
L161.799 -97.4163
L137.342 -105.487
L112.983 -113.438" id="C3_e_66c7890cf2"/>
     <path d="
M281.761 -58.7748
L256.59 -65.2132
L231.561 -70.9228
L206.662 -79.7281
L181.902 -85.7567
L157.175 -95.1708
L132.671 -101.071
L108.447 -104.591" id="C3_f_91a9825250"/>
     <path d="
M337.095 -133.117
L333.347 -122.61
L329.778 -115.891
L326.181 -109.1
L322.773 -106.836
L319.123 -100.169
L315.55 -95.8386
L311.959 -91.9419
L308.304 -87.3531
L304.645 -83.6034
L300.975 -80.6335
L297.181 -75.3711
L293.459 -73.331
L289.547 -66.8522
L285.677 -62.848
L281.761 -58.7748" id="C3_10_0f44ede3c8"/>
     <path d="
M313.979 -148.488
L309.916 -131.508
L306.126 -121.334
L302.52 -116.485
L298.863 -111.099
L295.17 -105.624
L291.49 -101.512
L287.781 -97.6764
L284.025 -93.5939
L280.23 -89.5052
L276.399 -85.5921
L272.531 -81.8425
L268.6 -77.1719
L264.638 -73.0197
L260.636 -69.0724
L256.59 -65.2132" id="C3_11_0dd9e75ffa"/>
     <path d="
M290.521 -155.729
L286.435 -136.756
L282.644 -128
L278.911 -122.246
L275.165 -117.243
L271.376 -111.808
L267.603 -108.84
L263.796 -106.317
L259.884 -100.255
L255.972 -96.4119
L252.011 -92.1321
L248.012 -88.2018
L243.971 -84.4747
L239.876 -79.613
L235.742 -75.2918
L231.561 -70.9228" id="C3_12_321cf256fd"/>
     <path d="
M267.337 -172.293
L263.175 -146.753
L259.295 -136.352
L255.461 -130.11
L251.596 -123.899
L247.721 -119.59
L243.806 -115.134
L239.863 -112.332
L235.863 -107.367
L231.828 -103.51
L227.748 -99.1098
L223.624 -95.7931
L219.458 -90.5193
L215.245 -86.5231
L210.985 -82.2479
L206.662 -79.7281" id="C3_13_e92e37994c"/>
     <path d="
M244.008 -185.547
L239.94 -156.287
L236.017 -145.569
L232.091 -138.595
L228.137 -131.576
L224.151 -127.475
L220.115 -126.665
L216.06 -118.188
L211.947 -114.782
L207.797 -110.165
L203.597 -106.246
L199.349 -102.52
L195.067 -97.822
L190.732 -93.5559
L186.34 -89.7837
L181.902 -85.7567" id="C3_14_c7f5fe63d5"/>
     <path d="
M220.633 -200.224
L216.737 -167.539
L212.787 -154.457
L208.792 -146.212
L204.75 -140.232
L200.653 -135.98
L196.501 -132.634
L192.334 -127.398
L188.139 -121.546
L183.891 -116.402
L179.559 -113.157
L175.175 -109.979
L170.732 -107.034
L166.877 -82.1133
L161.799 -97.4163
L157.175 -95.1708" id="C3_15_b308a8be44"/>
     <path d="
M197.178 -215.42
L193.536 -178.647
L189.56 -166.232
L185.503 -157.591
L181.377 -151.084
L177.299 -141.127
L172.978 -139.945
L168.767 -132.752
L164.484 -126.847
L160.015 -125.598
L155.583 -121.503
L151.082 -117.951
L146.574 -113.268
L141.956 -110.078
L137.342 -105.487
L132.671 -101.071" id="C3_16_0c6d72bd2f"/>
     <path d="
M173.444 -238.827
L170.308 -190.886
L166.427 -174.275
L162.332 -165.01
L158.1 -159.313
L153.858 -152.821
L149.713 -142.758
L145.427 -135.812
L140.967 -132.268
L136.383 -130.422
L131.69 -129.69
L127.126 -124.895
L122.41 -122.174
L117.745 -117.379
L112.983 -113.438
L108.447 -104.591" id="C3_17_2470cce418"/>
    </defs>
    <g clip-path="url(#p124b8dd147)">
     <use style="fill:none;stroke:#006400;stroke-linecap:butt;" x="0" xlink:href="#C3_0_2f9083c057" y="288.0"/>
    </g>
    <g clip-path="url(#p124b8dd147)">
     <use style="fill:none;stroke:#006400;stroke-linecap:butt;" x="0" xlink:href="#C3_1_1476bf61d4" y="288.0"/>
    </g>
    <g clip-path="url(#p124b8dd147)">
     <use style="fill:none;stroke:#006400;stroke-linecap:butt;" x="0" xlink:href="#C3_2_976411389f" y="288.0"/>
    </g>
    <g clip-path="url(#p124b8dd147)">
     <use style="fill:none;stroke:#006400;stroke-linecap:butt;" x="0" xlink:href="#C3_3_1165258f99" y="288.0"/>
    </g>
    <g clip-path="url(#p124b8dd147)">
     <use style="fill:none;stroke:#006400;stroke-linecap:butt;" x="0" xlink:href="#C3_4_a9fa801cdd" y="288.0"/>
    </g>
    <g clip-path="url(#p124b8dd147)">
     <use style="fill:none;stroke:#006400;stroke-linecap:butt;" x="0" xlink:href="#C3_5_1041e5bf88" y="288.0"/>
    </g>
    <g clip-path="url(#p124b8dd147)">
     <use style="fill:none;stroke:#006400;stroke-linecap:butt;" x="0" xlink:href="#C3_6_1ba5cb5515" y="288.0"/>
    </g>
    <g clip-path="url(#p124b8dd147)">
     <use style="fill:none;stroke:#006400;stroke-linecap:butt;" x="0" xlink:href="#C3_7_9860d81ceb" y="288.0"/>
    </g>
    <g clip-path="url(#p124b8dd147)">
     <use style="fill:none;stroke:#006400;stroke-linecap:butt;" x="0" xlink:href="#C3_8_fc23b6ad24" y="288.0"/>
    </g>
    <g clip-path="url(#p124b8dd147)">
     <use style="fill:none;stroke:#006400;stroke-linecap:butt;" x="0" xlink:href="#C3_9_682ed98a57" y="288.0"/>
    </g>
    <g clip-path="url(#p124b8dd147)">
     <use style="fill:none;stroke:#006400;stroke-linecap:butt;" x="0" xlink:href="#C3_a_e6b77fda1f" y="288.0"/>
    </g>
    <g clip-path="url(#p124b8dd147)">
     <use style="fill:none;stroke:#006400;stroke-linecap:butt;" x="0" xlink:href="#C3_b_1d6417a3c3" y="288.0"/>
    </g>
    <g clip-path="url(#p124b8dd147)">
     <use style="fill:none;stroke:#006400;stroke-linecap:butt;" x="0" xlink:href="#C3_c_69600b67e7" y="288.0"/>
    </g>
    <g clip-path="url(#p124b8dd147)">
     <use style="fill:none;stroke:#006400;stroke-linecap:butt;" x="0" xlink:href="#C3_d_8cd8b4f235" y="288.0"/>
    </g>
    <g clip-path="url(#p124b8dd147)">
     <use style="fill:none;stroke:#006400;stroke-linecap:butt;" x="0" xlink:href="#C3_e_66c7890cf2" y="288.0"/>
    </g>
    <g clip-path="url(#p124b8dd147)">
     <use style="fill:none;stroke:#006400;stroke-linecap:butt;" x="0" xlink:href="#C3_f_91a9825250" y="288.0"/>
    </g>
    <g clip-path="url(#p124b8dd147)">
     <use style="fill:none;stroke:#006400;stroke-linecap:butt;" x="0" xlink:href="#C3_10_0f44ede3c8" y="288.0"/>
    </g>
    <g clip-path="url(#p124b8dd147)">
     <use style="fill:none;stroke:#006400;stroke-linecap:butt;" x="0" xlink:href="#C3_11_0dd9e75ffa" y="288.0"/>
    </g>
    <g clip-path="url(#p124b8dd147)">
     <use style="fill:none;stroke:#006400;stroke-linecap:butt;" x="0" xlink:href="#C3_12_321cf256fd" y="288.0"/>
    </g>
    <g clip-path="url(#p124b8dd147)">
     <use style="fill:none;stroke:#006400;stroke-linecap:butt;" x="0" xlink:href="#C3_13_e92e37994c" y="288.0"/>
    </g>
    <g clip-path="url(#p124b8dd147)">
     <use style="fill:none;stroke:#006400;stroke-linecap:butt;" x="0" xlink:href="#C3_14_c7f5fe63d5" y="288.0"/>
    </g>
    <g clip-path="url(#p124b8dd147)">
     <use style="fill:none;stroke:#006400;stroke-linecap:butt;" x="0" xlink:href="#C3_15_b308a8be44" y="288.0"/>
    </g>
    <g clip-path="url(#p124b8dd147)">
     <use style="fill:none;stroke:#006400;stroke-linecap:butt;" x="0" xlink:href="#C3_16_0c6d72bd2f" y="288.0"/>
    </g>
    <g clip-path="url(#p124b8dd147)">
     <use style="fill:none;stroke:#006400;stroke-linecap:butt;" x="0" xlink:href="#C3_17_2470cce418" y="288.0"/>
    </g>
   </g>
  </g>
 </g>
 <defs>
  <clipPath id="p124b8dd147">
   <rect height="223.2" width="334.8" x="54.0" y="28.8"/>
  </clipPath>
 </defs>
</svg>
