<?xml version="1.0" encoding="utf-8" standalone="no"?>
<!DOCTYPE svg PUBLIC "-//W3C//DTD SVG 1.1//EN"
  "http://www.w3.org/Graphics/SVG/1.1/DTD/svg11.dtd">
<!-- Created with matplotlib (http://matplotlib.sourceforge.net/) -->
<svg height="288pt" version="1.1" viewBox="0 0 432 288" width="432pt" xmlns="http://www.w3.org/2000/svg" xmlns:xlink="http://www.w3.org/1999/xlink">
 <defs>
  <style type="text/css">
*{stroke-linecap:square;stroke-linejoin:round;}
  </style>
 </defs>
 <g id="figure_1">
  <g id="patch_1">
   <path d="
M0 288
L432 288
L432 0
L0 0
z
" style="fill:#ffffff;"/>
  </g>
  <g id="patch_2">
   <path d="
M54 252
L388.8 252
L388.8 28.8
L54 28.8
z
" style="fill:#ffffff;"/>
  </g>
  <g id="pane3d_1">
   <g id="patch_3">
    <path d="
M98.3829 202.681
L194.204 147.957
L192.609 43.3893
L91.4449 92.5573" style="fill:#f2f2f2;opacity:0.5;stroke:#f2f2f2;"/>
   </g>
  </g>
  <g id="pane3d_2">
   <g id="patch_4">
    <path d="
M194.204 147.957
L349.426 178.551
L355.921 70.8301
L192.609 43.3893" style="fill:#e6e6e6;opacity:0.5;stroke:#e6e6e6;"/>
   </g>
  </g>
  <g id="pane3d_3">
   <g id="patch_5">
    <path d="
M98.3829 202.681
L261.697 238.312
L349.426 178.551
L194.204 147.957" style="fill:#ececec;opacity:0.5;stroke:#ececec;"/>
   </g>
  </g>
  <g id="axis3d_1">
   <g id="line2d_1">
    <path d="
M98.3829 202.681
L261.697 238.312" style="fill:none;stroke:#000000;stroke-width:0.75;"/>
   </g>
   <g id="text_1">
    <!-- Analytical workers -->
    <defs>
     <path d="
M56.2031 29.5938
L56.2031 25.2031
L14.8906 25.2031
Q15.4844 15.9219 20.4844 11.0625
Q25.4844 6.20312 34.4219 6.20312
Q39.5938 6.20312 44.4531 7.46875
Q49.3125 8.73438 54.1094 11.2812
L54.1094 2.78125
Q49.2656 0.734375 44.1875 -0.34375
Q39.1094 -1.42188 33.8906 -1.42188
Q20.7969 -1.42188 13.1562 6.1875
Q5.51562 13.8125 5.51562 26.8125
Q5.51562 40.2344 12.7656 48.1094
Q20.0156 56 32.3281 56
Q43.3594 56 49.7812 48.8906
Q56.2031 41.7969 56.2031 29.5938
M47.2188 32.2344
Q47.125 39.5938 43.0938 43.9844
Q39.0625 48.3906 32.4219 48.3906
Q24.9062 48.3906 20.3906 44.1406
Q15.875 39.8906 15.1875 32.1719
z
" id="DejaVuSans-65"/>
     <path d="
M30.6094 48.3906
Q23.3906 48.3906 19.1875 42.75
Q14.9844 37.1094 14.9844 27.2969
Q14.9844 17.4844 19.1562 11.8438
Q23.3438 6.20312 30.6094 6.20312
Q37.7969 6.20312 41.9844 11.8594
Q46.1875 17.5312 46.1875 27.2969
Q46.1875 37.0156 41.9844 42.7031
Q37.7969 48.3906 30.6094 48.3906
M30.6094 56
Q42.3281 56 49.0156 48.375
Q55.7188 40.7656 55.7188 27.2969
Q55.7188 13.875 49.0156 6.21875
Q42.3281 -1.42188 30.6094 -1.42188
Q18.8438 -1.42188 12.1719 6.21875
Q5.51562 13.875 5.51562 27.2969
Q5.51562 40.7656 12.1719 48.375
Q18.8438 56 30.6094 56" id="DejaVuSans-6f"/>
     <path d="
M54.8906 33.0156
L54.8906 0
L45.9062 0
L45.9062 32.7188
Q45.9062 40.4844 42.875 44.3281
Q39.8438 48.1875 33.7969 48.1875
Q26.5156 48.1875 22.3125 43.5469
Q18.1094 38.9219 18.1094 30.9062
L18.1094 0
L9.07812 0
L9.07812 54.6875
L18.1094 54.6875
L18.1094 46.1875
Q21.3438 51.125 25.7031 53.5625
Q30.0781 56 35.7969 56
Q45.2188 56 50.0469 50.1719
Q54.8906 44.3438 54.8906 33.0156" id="DejaVuSans-6e"/>
     <path d="
M9.07812 75.9844
L18.1094 75.9844
L18.1094 31.1094
L44.9219 54.6875
L56.3906 54.6875
L27.3906 29.1094
L57.625 0
L45.9062 0
L18.1094 26.7031
L18.1094 0
L9.07812 0
z
" id="DejaVuSans-6b"/>
     <path d="
M9.42188 75.9844
L18.4062 75.9844
L18.4062 0
L9.42188 0
z
" id="DejaVuSans-6c"/>
     <path id="DejaVuSans-20"/>
     <path d="
M32.1719 -5.07812
Q28.375 -14.8438 24.75 -17.8125
Q21.1406 -20.7969 15.0938 -20.7969
L7.90625 -20.7969
L7.90625 -13.2812
L13.1875 -13.2812
Q16.8906 -13.2812 18.9375 -11.5156
Q21 -9.76562 23.4844 -3.21875
L25.0938 0.875
L2.98438 54.6875
L12.5 54.6875
L29.5938 11.9219
L46.6875 54.6875
L56.2031 54.6875
z
" id="DejaVuSans-79"/>
     <path d="
M34.1875 63.1875
L20.7969 26.9062
L47.6094 26.9062
z

M28.6094 72.9062
L39.7969 72.9062
L67.5781 0
L57.3281 0
L50.6875 18.7031
L17.8281 18.7031
L11.1875 0
L0.78125 0
z
" id="DejaVuSans-41"/>
     <path d="
M9.42188 54.6875
L18.4062 54.6875
L18.4062 0
L9.42188 0
z

M9.42188 75.9844
L18.4062 75.9844
L18.4062 64.5938
L9.42188 64.5938
z
" id="DejaVuSans-69"/>
     <path d="
M18.3125 70.2188
L18.3125 54.6875
L36.8125 54.6875
L36.8125 47.7031
L18.3125 47.7031
L18.3125 18.0156
Q18.3125 11.3281 20.1406 9.42188
Q21.9688 7.51562 27.5938 7.51562
L36.8125 7.51562
L36.8125 0
L27.5938 0
Q17.1875 0 13.2344 3.875
Q9.28125 7.76562 9.28125 18.0156
L9.28125 47.7031
L2.6875 47.7031
L2.6875 54.6875
L9.28125 54.6875
L9.28125 70.2188
z
" id="DejaVuSans-74"/>
     <path d="
M4.20312 54.6875
L13.1875 54.6875
L24.4219 12.0156
L35.5938 54.6875
L46.1875 54.6875
L57.4219 12.0156
L68.6094 54.6875
L77.5938 54.6875
L63.2812 0
L52.6875 0
L40.9219 44.8281
L29.1094 0
L18.5 0
z
" id="DejaVuSans-77"/>
     <path d="
M41.1094 46.2969
Q39.5938 47.1719 37.8125 47.5781
Q36.0312 48 33.8906 48
Q26.2656 48 22.1875 43.0469
Q18.1094 38.0938 18.1094 28.8125
L18.1094 0
L9.07812 0
L9.07812 54.6875
L18.1094 54.6875
L18.1094 46.1875
Q20.9531 51.1719 25.4844 53.5781
Q30.0312 56 36.5312 56
Q37.4531 56 38.5781 55.875
Q39.7031 55.7656 41.0625 55.5156
z
" id="DejaVuSans-72"/>
     <path d="
M48.7812 52.5938
L48.7812 44.1875
Q44.9688 46.2969 41.1406 47.3438
Q37.3125 48.3906 33.4062 48.3906
Q24.6562 48.3906 19.8125 42.8438
Q14.9844 37.3125 14.9844 27.2969
Q14.9844 17.2812 19.8125 11.7344
Q24.6562 6.20312 33.4062 6.20312
Q37.3125 6.20312 41.1406 7.25
Q44.9688 8.29688 48.7812 10.4062
L48.7812 2.09375
Q45.0156 0.34375 40.9844 -0.53125
Q36.9688 -1.42188 32.4219 -1.42188
Q20.0625 -1.42188 12.7812 6.34375
Q5.51562 14.1094 5.51562 27.2969
Q5.51562 40.6719 12.8594 48.3281
Q20.2188 56 33.0156 56
Q37.1562 56 41.1094 55.1406
Q45.0625 54.2969 48.7812 52.5938" id="DejaVuSans-63"/>
     <path d="
M44.2812 53.0781
L44.2812 44.5781
Q40.4844 46.5312 36.375 47.5
Q32.2812 48.4844 27.875 48.4844
Q21.1875 48.4844 17.8438 46.4375
Q14.5 44.3906 14.5 40.2812
Q14.5 37.1562 16.8906 35.375
Q19.2812 33.5938 26.5156 31.9844
L29.5938 31.2969
Q39.1562 29.25 43.1875 25.5156
Q47.2188 21.7812 47.2188 15.0938
Q47.2188 7.46875 41.1875 3.01562
Q35.1562 -1.42188 24.6094 -1.42188
Q20.2188 -1.42188 15.4531 -0.5625
Q10.6875 0.296875 5.42188 2
L5.42188 11.2812
Q10.4062 8.6875 15.2344 7.39062
Q20.0625 6.10938 24.8125 6.10938
Q31.1562 6.10938 34.5625 8.28125
Q37.9844 10.4531 37.9844 14.4062
Q37.9844 18.0625 35.5156 20.0156
Q33.0625 21.9688 24.7031 23.7812
L21.5781 24.5156
Q13.2344 26.2656 9.51562 29.9062
Q5.8125 33.5469 5.8125 39.8906
Q5.8125 47.6094 11.2812 51.7969
Q16.75 56 26.8125 56
Q31.7812 56 36.1719 55.2656
Q40.5781 54.5469 44.2812 53.0781" id="DejaVuSans-73"/>
     <path d="
M34.2812 27.4844
Q23.3906 27.4844 19.1875 25
Q14.9844 22.5156 14.9844 16.5
Q14.9844 11.7188 18.1406 8.90625
Q21.2969 6.10938 26.7031 6.10938
Q34.1875 6.10938 38.7031 11.4062
Q43.2188 16.7031 43.2188 25.4844
L43.2188 27.4844
z

M52.2031 31.2031
L52.2031 0
L43.2188 0
L43.2188 8.29688
Q40.1406 3.32812 35.5469 0.953125
Q30.9531 -1.42188 24.3125 -1.42188
Q15.9219 -1.42188 10.9531 3.29688
Q6 8.01562 6 15.9219
Q6 25.1406 12.1719 29.8281
Q18.3594 34.5156 30.6094 34.5156
L43.2188 34.5156
L43.2188 35.4062
Q43.2188 41.6094 39.1406 45
Q35.0625 48.3906 27.6875 48.3906
Q23 48.3906 18.5469 47.2656
Q14.1094 46.1406 10.0156 43.8906
L10.0156 52.2031
Q14.9375 54.1094 19.5781 55.0469
Q24.2188 56 28.6094 56
Q40.4844 56 46.3438 49.8438
Q52.2031 43.7031 52.2031 31.2031" id="DejaVuSans-61"/>
    </defs>
    <g transform="translate(120.209265261 234.551949777)rotate(-347.692154102)scale(0.1 -0.1)">
     <use xlink:href="#DejaVuSans-41"/>
     <use x="68.408203125" xlink:href="#DejaVuSans-6e"/>
     <use x="131.787109375" xlink:href="#DejaVuSans-61"/>
     <use x="193.06640625" xlink:href="#DejaVuSans-6c"/>
     <use x="220.849609375" xlink:href="#DejaVuSans-79"/>
     <use x="280.029296875" xlink:href="#DejaVuSans-74"/>
     <use x="319.23828125" xlink:href="#DejaVuSans-69"/>
     <use x="347.021484375" xlink:href="#DejaVuSans-63"/>
     <use x="402.001953125" xlink:href="#DejaVuSans-61"/>
     <use x="463.28125" xlink:href="#DejaVuSans-6c"/>
     <use x="491.064453125" xlink:href="#DejaVuSans-20"/>
     <use x="522.8515625" xlink:href="#DejaVuSans-77"/>
     <use x="604.638671875" xlink:href="#DejaVuSans-6f"/>
     <use x="665.8203125" xlink:href="#DejaVuSans-72"/>
     <use x="706.93359375" xlink:href="#DejaVuSans-6b"/>
     <use x="761.21875" xlink:href="#DejaVuSans-65"/>
     <use x="822.7421875" xlink:href="#DejaVuSans-72"/>
     <use x="863.85546875" xlink:href="#DejaVuSans-73"/>
    </g>
   </g>
   <g id="Line3DCollection_1">
    <defs>
     <path d="
M101.506 -84.6379
L197.183 -139.456
L195.736 -244.085" id="C0_0_867ebba9b0"/>
     <path d="
M123.073 -79.9324
L217.738 -135.404
L217.324 -240.458" id="C0_1_8294ebb467"/>
     <path d="
M144.908 -75.1685
L238.531 -131.306
L239.173 -236.787" id="C0_2_593258b0e8"/>
     <path d="
M167.016 -70.345
L259.564 -127.161
L261.288 -233.071" id="C0_3_09f53b5416"/>
     <path d="
M189.402 -65.4609
L280.842 -122.967
L283.674 -229.309" id="C0_4_dbb4f31d7a"/>
     <path d="
M212.071 -60.5149
L302.37 -118.724
L306.336 -225.501" id="C0_5_3bd1852bf9"/>
     <path d="
M235.029 -55.506
L324.151 -114.431
L329.279 -221.646" id="C0_6_4a6b8c3a8d"/>
     <path d="
M258.281 -50.4329
L346.19 -110.087
L352.509 -217.743" id="C0_7_cb58201770"/>
    </defs>
    <use style="fill:none;stroke:#e6e6e6;stroke-linecap:butt;" x="0" xlink:href="#C0_0_867ebba9b0" y="288.0"/>
    <use style="fill:none;stroke:#e6e6e6;stroke-linecap:butt;" x="0" xlink:href="#C0_1_8294ebb467" y="288.0"/>
    <use style="fill:none;stroke:#e6e6e6;stroke-linecap:butt;" x="0" xlink:href="#C0_2_593258b0e8" y="288.0"/>
    <use style="fill:none;stroke:#e6e6e6;stroke-linecap:butt;" x="0" xlink:href="#C0_3_09f53b5416" y="288.0"/>
    <use style="fill:none;stroke:#e6e6e6;stroke-linecap:butt;" x="0" xlink:href="#C0_4_dbb4f31d7a" y="288.0"/>
    <use style="fill:none;stroke:#e6e6e6;stroke-linecap:butt;" x="0" xlink:href="#C0_5_3bd1852bf9" y="288.0"/>
    <use style="fill:none;stroke:#e6e6e6;stroke-linecap:butt;" x="0" xlink:href="#C0_6_4a6b8c3a8d" y="288.0"/>
    <use style="fill:none;stroke:#e6e6e6;stroke-linecap:butt;" x="0" xlink:href="#C0_7_cb58201770" y="288.0"/>
   </g>
   <g id="xtick_1">
    <g id="line2d_2">
     <path d="
M102.33 202.89
L99.8546 204.308" style="fill:none;stroke:#000000;"/>
    </g>
    <g id="text_2">
     <!-- 1 -->
     <defs>
      <path d="
M12.4062 8.29688
L28.5156 8.29688
L28.5156 63.9219
L10.9844 60.4062
L10.9844 69.3906
L28.4219 72.9062
L38.2812 72.9062
L38.2812 8.29688
L54.3906 8.29688
L54.3906 0
L12.4062 0
z
" id="DejaVuSans-31"/>
     </defs>
     <g transform="translate(93.9147969016 219.825549036)scale(0.1 -0.1)">
      <use xlink:href="#DejaVuSans-31"/>
     </g>
    </g>
   </g>
   <g id="xtick_2">
    <g id="line2d_3">
     <path d="
M123.889 207.59
L121.439 209.026" style="fill:none;stroke:#000000;"/>
    </g>
    <g id="text_3">
     <!-- 2 -->
     <defs>
      <path d="
M19.1875 8.29688
L53.6094 8.29688
L53.6094 0
L7.32812 0
L7.32812 8.29688
Q12.9375 14.1094 22.625 23.8906
Q32.3281 33.6875 34.8125 36.5312
Q39.5469 41.8438 41.4219 45.5312
Q43.3125 49.2188 43.3125 52.7812
Q43.3125 58.5938 39.2344 62.25
Q35.1562 65.9219 28.6094 65.9219
Q23.9688 65.9219 18.8125 64.3125
Q13.6719 62.7031 7.8125 59.4219
L7.8125 69.3906
Q13.7656 71.7812 18.9375 73
Q24.125 74.2188 28.4219 74.2188
Q39.75 74.2188 46.4844 68.5469
Q53.2188 62.8906 53.2188 53.4219
Q53.2188 48.9219 51.5312 44.8906
Q49.8594 40.875 45.4062 35.4062
Q44.1875 33.9844 37.6406 27.2188
Q31.1094 20.4531 19.1875 8.29688" id="DejaVuSans-32"/>
     </defs>
     <g transform="translate(115.336219866 224.72585621)scale(0.1 -0.1)">
      <use xlink:href="#DejaVuSans-32"/>
     </g>
    </g>
   </g>
   <g id="xtick_3">
    <g id="line2d_4">
     <path d="
M145.716 212.348
L143.291 213.801" style="fill:none;stroke:#000000;"/>
    </g>
    <g id="text_4">
     <!-- 3 -->
     <defs>
      <path d="
M40.5781 39.3125
Q47.6562 37.7969 51.625 33
Q55.6094 28.2188 55.6094 21.1875
Q55.6094 10.4062 48.1875 4.48438
Q40.7656 -1.42188 27.0938 -1.42188
Q22.5156 -1.42188 17.6562 -0.515625
Q12.7969 0.390625 7.625 2.20312
L7.625 11.7188
Q11.7188 9.32812 16.5938 8.10938
Q21.4844 6.89062 26.8125 6.89062
Q36.0781 6.89062 40.9375 10.5469
Q45.7969 14.2031 45.7969 21.1875
Q45.7969 27.6406 41.2812 31.2656
Q36.7656 34.9062 28.7188 34.9062
L20.2188 34.9062
L20.2188 43.0156
L29.1094 43.0156
Q36.375 43.0156 40.2344 45.9219
Q44.0938 48.8281 44.0938 54.2969
Q44.0938 59.9062 40.1094 62.9062
Q36.1406 65.9219 28.7188 65.9219
Q24.6562 65.9219 20.0156 65.0312
Q15.375 64.1562 9.8125 62.3125
L9.8125 71.0938
Q15.4375 72.6562 20.3438 73.4375
Q25.25 74.2188 29.5938 74.2188
Q40.8281 74.2188 47.3594 69.1094
Q53.9062 64.0156 53.9062 55.3281
Q53.9062 49.2656 50.4375 45.0938
Q46.9688 40.9219 40.5781 39.3125" id="DejaVuSans-33"/>
     </defs>
     <g transform="translate(137.084431101 229.554223599)scale(0.1 -0.1)">
      <use xlink:href="#DejaVuSans-33"/>
     </g>
    </g>
   </g>
   <g id="xtick_4">
    <g id="line2d_5">
     <path d="
M167.815 217.165
L165.417 218.637" style="fill:none;stroke:#000000;"/>
    </g>
    <g id="text_5">
     <!-- 4 -->
     <defs>
      <path d="
M37.7969 64.3125
L12.8906 25.3906
L37.7969 25.3906
z

M35.2031 72.9062
L47.6094 72.9062
L47.6094 25.3906
L58.0156 25.3906
L58.0156 17.1875
L47.6094 17.1875
L47.6094 0
L37.7969 0
L37.7969 17.1875
L4.89062 17.1875
L4.89062 26.7031
z
" id="DejaVuSans-34"/>
     </defs>
     <g transform="translate(158.933996251 234.311764537)scale(0.1 -0.1)">
      <use xlink:href="#DejaVuSans-34"/>
     </g>
    </g>
   </g>
   <g id="xtick_5">
    <g id="line2d_6">
     <path d="
M190.191 222.043
L187.821 223.534" style="fill:none;stroke:#000000;"/>
    </g>
    <g id="text_6">
     <!-- 5 -->
     <defs>
      <path d="
M10.7969 72.9062
L49.5156 72.9062
L49.5156 64.5938
L19.8281 64.5938
L19.8281 46.7344
Q21.9688 47.4688 24.1094 47.8281
Q26.2656 48.1875 28.4219 48.1875
Q40.625 48.1875 47.75 41.5
Q54.8906 34.8125 54.8906 23.3906
Q54.8906 11.625 47.5625 5.09375
Q40.2344 -1.42188 26.9062 -1.42188
Q22.3125 -1.42188 17.5469 -0.640625
Q12.7969 0.140625 7.71875 1.70312
L7.71875 11.625
Q12.1094 9.23438 16.7969 8.0625
Q21.4844 6.89062 26.7031 6.89062
Q35.1562 6.89062 40.0781 11.3281
Q45.0156 15.7656 45.0156 23.3906
Q45.0156 31 40.0781 35.4375
Q35.1562 39.8906 26.7031 39.8906
Q22.75 39.8906 18.8125 39.0156
Q14.8906 38.1406 10.7969 36.2812
z
" id="DejaVuSans-35"/>
     </defs>
     <g transform="translate(181.616639004 239.262120403)scale(0.1 -0.1)">
      <use xlink:href="#DejaVuSans-35"/>
     </g>
    </g>
   </g>
   <g id="xtick_6">
    <g id="line2d_7">
     <path d="
M212.851 226.983
L210.509 228.492" style="fill:none;stroke:#000000;"/>
    </g>
    <g id="text_7">
     <!-- 6 -->
     <defs>
      <path d="
M33.0156 40.375
Q26.375 40.375 22.4844 35.8281
Q18.6094 31.2969 18.6094 23.3906
Q18.6094 15.5312 22.4844 10.9531
Q26.375 6.39062 33.0156 6.39062
Q39.6562 6.39062 43.5312 10.9531
Q47.4062 15.5312 47.4062 23.3906
Q47.4062 31.2969 43.5312 35.8281
Q39.6562 40.375 33.0156 40.375
M52.5938 71.2969
L52.5938 62.3125
Q48.875 64.0625 45.0938 64.9844
Q41.3125 65.9219 37.5938 65.9219
Q27.8281 65.9219 22.6719 59.3281
Q17.5312 52.7344 16.7969 39.4062
Q19.6719 43.6562 24.0156 45.9219
Q28.375 48.1875 33.5938 48.1875
Q44.5781 48.1875 50.9531 41.5156
Q57.3281 34.8594 57.3281 23.3906
Q57.3281 12.1562 50.6875 5.35938
Q44.0469 -1.42188 33.0156 -1.42188
Q20.3594 -1.42188 13.6719 8.26562
Q6.98438 17.9688 6.98438 36.375
Q6.98438 53.6562 15.1875 63.9375
Q23.3906 74.2188 37.2031 74.2188
Q40.9219 74.2188 44.7031 73.4844
Q48.4844 72.75 52.5938 71.2969" id="DejaVuSans-36"/>
     </defs>
     <g transform="translate(204.126713865 244.406461505)scale(0.1 -0.1)">
      <use xlink:href="#DejaVuSans-36"/>
     </g>
    </g>
   </g>
   <g id="xtick_7">
    <g id="line2d_8">
     <path d="
M235.799 231.985
L233.487 233.514" style="fill:none;stroke:#000000;"/>
    </g>
    <g id="text_8">
     <!-- 7 -->
     <defs>
      <path d="
M8.20312 72.9062
L55.0781 72.9062
L55.0781 68.7031
L28.6094 0
L18.3125 0
L43.2188 64.5938
L8.20312 64.5938
z
" id="DejaVuSans-37"/>
     </defs>
     <g transform="translate(227.257929073 249.352237999)scale(0.1 -0.1)">
      <use xlink:href="#DejaVuSans-37"/>
     </g>
    </g>
   </g>
   <g id="xtick_8">
    <g id="line2d_9">
     <path d="
M259.041 237.052
L256.759 238.6" style="fill:none;stroke:#000000;"/>
    </g>
    <g id="text_9">
     <!-- 8 -->
     <defs>
      <path d="
M31.7812 34.625
Q24.75 34.625 20.7188 30.8594
Q16.7031 27.0938 16.7031 20.5156
Q16.7031 13.9219 20.7188 10.1562
Q24.75 6.39062 31.7812 6.39062
Q38.8125 6.39062 42.8594 10.1719
Q46.9219 13.9688 46.9219 20.5156
Q46.9219 27.0938 42.8906 30.8594
Q38.875 34.625 31.7812 34.625
M21.9219 38.8125
Q15.5781 40.375 12.0312 44.7188
Q8.5 49.0781 8.5 55.3281
Q8.5 64.0625 14.7188 69.1406
Q20.9531 74.2188 31.7812 74.2188
Q42.6719 74.2188 48.875 69.1406
Q55.0781 64.0625 55.0781 55.3281
Q55.0781 49.0781 51.5312 44.7188
Q48 40.375 41.7031 38.8125
Q48.8281 37.1562 52.7969 32.3125
Q56.7812 27.4844 56.7812 20.5156
Q56.7812 9.90625 50.3125 4.23438
Q43.8438 -1.42188 31.7812 -1.42188
Q19.7344 -1.42188 13.25 4.23438
Q6.78125 9.90625 6.78125 20.5156
Q6.78125 27.4844 10.7812 32.3125
Q14.7969 37.1562 21.9219 38.8125
M18.3125 54.3906
Q18.3125 48.7344 21.8438 45.5625
Q25.3906 42.3906 31.7812 42.3906
Q38.1406 42.3906 41.7188 45.5625
Q45.3125 48.7344 45.3125 54.3906
Q45.3125 60.0625 41.7188 63.2344
Q38.1406 66.4062 31.7812 66.4062
Q25.3906 66.4062 21.8438 63.2344
Q18.3125 60.0625 18.3125 54.3906" id="DejaVuSans-38"/>
     </defs>
     <g transform="translate(250.354132183 254.625680854)scale(0.1 -0.1)">
      <use xlink:href="#DejaVuSans-38"/>
     </g>
    </g>
   </g>
  </g>
  <g id="axis3d_2">
   <g id="line2d_10">
    <path d="
M349.426 178.551
L261.697 238.312" style="fill:none;stroke:#000000;stroke-width:0.75;"/>
   </g>
   <g id="text_10">
    <!-- Trans workers -->
    <defs>
     <path d="
M-0.296875 72.9062
L61.375 72.9062
L61.375 64.5938
L35.5 64.5938
L35.5 0
L25.5938 0
L25.5938 64.5938
L-0.296875 64.5938
z
" id="DejaVuSans-54"/>
    </defs>
    <g transform="translate(301.896581237 247.405411269)rotate(-34.2628189288)scale(0.1 -0.1)">
     <use xlink:href="#DejaVuSans-54"/>
     <use x="46.333984375" xlink:href="#DejaVuSans-72"/>
     <use x="87.447265625" xlink:href="#DejaVuSans-61"/>
     <use x="148.7265625" xlink:href="#DejaVuSans-6e"/>
     <use x="212.10546875" xlink:href="#DejaVuSans-73"/>
     <use x="264.205078125" xlink:href="#DejaVuSans-20"/>
     <use x="295.9921875" xlink:href="#DejaVuSans-77"/>
     <use x="377.779296875" xlink:href="#DejaVuSans-6f"/>
     <use x="438.9609375" xlink:href="#DejaVuSans-72"/>
     <use x="480.07421875" xlink:href="#DejaVuSans-6b"/>
     <use x="534.359375" xlink:href="#DejaVuSans-65"/>
     <use x="595.8828125" xlink:href="#DejaVuSans-72"/>
     <use x="636.99609375" xlink:href="#DejaVuSans-73"/>
    </g>
   </g>
   <g id="Line3DCollection_2">
    <defs>
     <path d="
M100.574 -199.879
L106.999 -90.2399
L269.61 -55.0775" id="C1_0_efd5f6e8bd"/>
     <path d="
M114.247 -206.525
L119.916 -97.6168
L281.463 -63.1521" id="C1_1_a7e3719db8"/>
     <path d="
M127.643 -213.036
L132.584 -104.851
L293.077 -71.0637" id="C1_2_e0583417b9"/>
     <path d="
M140.769 -219.415
L145.009 -111.948
L304.459 -78.8172" id="C1_3_18dcde0c7a"/>
     <path d="
M153.634 -225.668
L157.199 -118.909
L315.616 -86.4173" id="C1_4_fcb84c24e4"/>
     <path d="
M166.245 -231.797
L169.161 -125.741
L326.554 -93.8686" id="C1_5_e07db15f2f"/>
     <path d="
M178.61 -237.807
L180.9 -132.445
L337.281 -101.175" id="C1_6_867ba4c2fc"/>
     <path d="
M190.736 -243.7
L192.423 -139.026
L347.801 -108.342" id="C1_7_272a567a52"/>
    </defs>
    <use style="fill:none;stroke:#e6e6e6;stroke-linecap:butt;" x="0" xlink:href="#C1_0_efd5f6e8bd" y="288.0"/>
    <use style="fill:none;stroke:#e6e6e6;stroke-linecap:butt;" x="0" xlink:href="#C1_1_a7e3719db8" y="288.0"/>
    <use style="fill:none;stroke:#e6e6e6;stroke-linecap:butt;" x="0" xlink:href="#C1_2_e0583417b9" y="288.0"/>
    <use style="fill:none;stroke:#e6e6e6;stroke-linecap:butt;" x="0" xlink:href="#C1_3_18dcde0c7a" y="288.0"/>
    <use style="fill:none;stroke:#e6e6e6;stroke-linecap:butt;" x="0" xlink:href="#C1_4_fcb84c24e4" y="288.0"/>
    <use style="fill:none;stroke:#e6e6e6;stroke-linecap:butt;" x="0" xlink:href="#C1_5_e07db15f2f" y="288.0"/>
    <use style="fill:none;stroke:#e6e6e6;stroke-linecap:butt;" x="0" xlink:href="#C1_6_867ba4c2fc" y="288.0"/>
    <use style="fill:none;stroke:#e6e6e6;stroke-linecap:butt;" x="0" xlink:href="#C1_7_272a567a52" y="288.0"/>
   </g>
   <g id="xtick_9">
    <g id="line2d_11">
     <path d="
M268.249 232.628
L272.334 233.512" style="fill:none;stroke:#000000;"/>
    </g>
    <g id="text_11">
     <!-- 2 -->
     <g transform="translate(276.689768797 248.391726419)scale(0.1 -0.1)">
      <use xlink:href="#DejaVuSans-32"/>
     </g>
    </g>
   </g>
   <g id="xtick_10">
    <g id="line2d_12">
     <path d="
M280.112 224.56
L284.169 225.425" style="fill:none;stroke:#000000;"/>
    </g>
    <g id="text_12">
     <!-- 4 -->
     <g transform="translate(288.100494077 240.107145136)scale(0.1 -0.1)">
      <use xlink:href="#DejaVuSans-34"/>
     </g>
    </g>
   </g>
   <g id="xtick_11">
    <g id="line2d_13">
     <path d="
M291.735 216.654
L295.764 217.502" style="fill:none;stroke:#000000;"/>
    </g>
    <g id="text_13">
     <!-- 6 -->
     <g transform="translate(299.755367206 232.249548388)scale(0.1 -0.1)">
      <use xlink:href="#DejaVuSans-36"/>
     </g>
    </g>
   </g>
   <g id="xtick_12">
    <g id="line2d_14">
     <path d="
M303.127 208.906
L307.127 209.737" style="fill:none;stroke:#000000;"/>
    </g>
    <g id="text_14">
     <!-- 8 -->
     <g transform="translate(311.058366446 224.420258437)scale(0.1 -0.1)">
      <use xlink:href="#DejaVuSans-38"/>
     </g>
    </g>
   </g>
   <g id="xtick_13">
    <g id="line2d_15">
     <path d="
M314.293 201.311
L318.266 202.126" style="fill:none;stroke:#000000;"/>
    </g>
    <g id="text_15">
     <!-- 10 -->
     <defs>
      <path d="
M31.7812 66.4062
Q24.1719 66.4062 20.3281 58.9062
Q16.5 51.4219 16.5 36.375
Q16.5 21.3906 20.3281 13.8906
Q24.1719 6.39062 31.7812 6.39062
Q39.4531 6.39062 43.2812 13.8906
Q47.125 21.3906 47.125 36.375
Q47.125 51.4219 43.2812 58.9062
Q39.4531 66.4062 31.7812 66.4062
M31.7812 74.2188
Q44.0469 74.2188 50.5156 64.5156
Q56.9844 54.8281 56.9844 36.375
Q56.9844 17.9688 50.5156 8.26562
Q44.0469 -1.42188 31.7812 -1.42188
Q19.5312 -1.42188 13.0625 8.26562
Q6.59375 17.9688 6.59375 36.375
Q6.59375 54.8281 13.0625 64.5156
Q19.5312 74.2188 31.7812 74.2188" id="DejaVuSans-30"/>
     </defs>
     <g transform="translate(319.139751631 216.745792438)scale(0.1 -0.1)">
      <use xlink:href="#DejaVuSans-31"/>
      <use x="63.623046875" xlink:href="#DejaVuSans-30"/>
     </g>
    </g>
   </g>
   <g id="xtick_14">
    <g id="line2d_16">
     <path d="
M325.24 193.865
L329.186 194.664" style="fill:none;stroke:#000000;"/>
    </g>
    <g id="text_16">
     <!-- 12 -->
     <g transform="translate(330.154515408 209.221602896)scale(0.1 -0.1)">
      <use xlink:href="#DejaVuSans-31"/>
      <use x="63.623046875" xlink:href="#DejaVuSans-32"/>
     </g>
    </g>
   </g>
   <g id="xtick_15">
    <g id="line2d_17">
     <path d="
M335.975 186.564
L339.894 187.347" style="fill:none;stroke:#000000;"/>
    </g>
    <g id="text_17">
     <!-- 14 -->
     <g transform="translate(340.569896199 201.712068683)scale(0.1 -0.1)">
      <use xlink:href="#DejaVuSans-31"/>
      <use x="63.623046875" xlink:href="#DejaVuSans-34"/>
     </g>
    </g>
   </g>
   <g id="xtick_16">
    <g id="line2d_18">
     <path d="
M346.504 179.402
L350.396 180.171" style="fill:none;stroke:#000000;"/>
    </g>
    <g id="text_18">
     <!-- 16 -->
     <g transform="translate(351.035702903 194.606736566)scale(0.1 -0.1)">
      <use xlink:href="#DejaVuSans-31"/>
      <use x="63.623046875" xlink:href="#DejaVuSans-36"/>
     </g>
    </g>
   </g>
  </g>
  <g id="axis3d_3">
   <g id="line2d_19">
    <path d="
M349.426 178.551
L355.921 70.8301" style="fill:none;stroke:#000000;stroke-width:0.75;"/>
   </g>
   <g id="text_19">
    <!-- Req/s -->
    <defs>
     <path d="
M44.3906 34.1875
Q47.5625 33.1094 50.5625 29.5938
Q53.5625 26.0781 56.5938 19.9219
L66.6094 0
L56 0
L46.6875 18.7031
Q43.0625 26.0312 39.6719 28.4219
Q36.2812 30.8125 30.4219 30.8125
L19.6719 30.8125
L19.6719 0
L9.8125 0
L9.8125 72.9062
L32.0781 72.9062
Q44.5781 72.9062 50.7344 67.6719
Q56.8906 62.4531 56.8906 51.9062
Q56.8906 45.0156 53.6875 40.4688
Q50.4844 35.9375 44.3906 34.1875
M19.6719 64.7969
L19.6719 38.9219
L32.0781 38.9219
Q39.2031 38.9219 42.8438 42.2188
Q46.4844 45.5156 46.4844 51.9062
Q46.4844 58.2969 42.8438 61.5469
Q39.2031 64.7969 32.0781 64.7969
z
" id="DejaVuSans-52"/>
     <path d="
M14.7969 27.2969
Q14.7969 17.3906 18.875 11.75
Q22.9531 6.10938 30.0781 6.10938
Q37.2031 6.10938 41.2969 11.75
Q45.4062 17.3906 45.4062 27.2969
Q45.4062 37.2031 41.2969 42.8438
Q37.2031 48.4844 30.0781 48.4844
Q22.9531 48.4844 18.875 42.8438
Q14.7969 37.2031 14.7969 27.2969
M45.4062 8.20312
Q42.5781 3.32812 38.25 0.953125
Q33.9375 -1.42188 27.875 -1.42188
Q17.9688 -1.42188 11.7344 6.48438
Q5.51562 14.4062 5.51562 27.2969
Q5.51562 40.1875 11.7344 48.0938
Q17.9688 56 27.875 56
Q33.9375 56 38.25 53.625
Q42.5781 51.2656 45.4062 46.3906
L45.4062 54.6875
L54.3906 54.6875
L54.3906 -20.7969
L45.4062 -20.7969
z
" id="DejaVuSans-71"/>
     <path d="
M25.3906 72.9062
L33.6875 72.9062
L8.29688 -9.28125
L0 -9.28125
z
" id="DejaVuSans-2f"/>
    </defs>
    <g transform="translate(388.249001377 134.466350029)rotate(-86.5499209602)scale(0.1 -0.1)">
     <use xlink:href="#DejaVuSans-52"/>
     <use x="64.982421875" xlink:href="#DejaVuSans-65"/>
     <use x="126.505859375" xlink:href="#DejaVuSans-71"/>
     <use x="189.982421875" xlink:href="#DejaVuSans-2f"/>
     <use x="223.673828125" xlink:href="#DejaVuSans-73"/>
    </g>
   </g>
   <g id="Line3DCollection_3">
    <defs>
     <path d="
M349.55 -111.498
L194.174 -142.036
L98.2512 -87.4103" id="C2_0_7f8018e2fd"/>
     <path d="
M350.748 -131.377
L193.879 -161.366
L96.9725 -107.706" id="C2_1_c5754f4da6"/>
     <path d="
M351.97 -151.646
L193.579 -181.059
L95.668 -128.412" id="C2_2_56d790f743"/>
     <path d="
M353.216 -172.315
L193.273 -201.124
L94.3368 -149.541" id="C2_3_af6498f92a"/>
     <path d="
M354.487 -193.397
L192.961 -221.573
L92.9781 -171.107" id="C2_4_5cf5760509"/>
     <path d="
M355.784 -214.905
L192.643 -242.416
L91.5911 -193.123" id="C2_5_6a9f437b38"/>
    </defs>
    <use style="fill:none;stroke:#e6e6e6;stroke-linecap:butt;" x="0" xlink:href="#C2_0_7f8018e2fd" y="288.0"/>
    <use style="fill:none;stroke:#e6e6e6;stroke-linecap:butt;" x="0" xlink:href="#C2_1_c5754f4da6" y="288.0"/>
    <use style="fill:none;stroke:#e6e6e6;stroke-linecap:butt;" x="0" xlink:href="#C2_2_56d790f743" y="288.0"/>
    <use style="fill:none;stroke:#e6e6e6;stroke-linecap:butt;" x="0" xlink:href="#C2_3_af6498f92a" y="288.0"/>
    <use style="fill:none;stroke:#e6e6e6;stroke-linecap:butt;" x="0" xlink:href="#C2_4_5cf5760509" y="288.0"/>
    <use style="fill:none;stroke:#e6e6e6;stroke-linecap:butt;" x="0" xlink:href="#C2_5_6a9f437b38" y="288.0"/>
   </g>
   <g id="xtick_17">
    <g id="line2d_20">
     <path d="
M348.253 176.247
L352.145 177.012" style="fill:none;stroke:#000000;"/>
    </g>
    <g id="text_20">
     <!-- 0 -->
     <g transform="translate(360.632672473 182.620319786)scale(0.1 -0.1)">
      <use xlink:href="#DejaVuSans-30"/>
     </g>
    </g>
   </g>
   <g id="xtick_18">
    <g id="line2d_21">
     <path d="
M349.439 156.373
L353.37 157.124" style="fill:none;stroke:#000000;"/>
    </g>
    <g id="text_21">
     <!-- 500 -->
     <g transform="translate(355.65440142 162.763894917)scale(0.1 -0.1)">
      <use xlink:href="#DejaVuSans-35"/>
      <use x="63.623046875" xlink:href="#DejaVuSans-30"/>
      <use x="127.24609375" xlink:href="#DejaVuSans-30"/>
     </g>
    </g>
   </g>
   <g id="xtick_19">
    <g id="line2d_22">
     <path d="
M350.648 136.109
L354.618 136.846" style="fill:none;stroke:#000000;"/>
    </g>
    <g id="text_22">
     <!-- 1000 -->
     <g transform="translate(353.990364955 142.519406272)scale(0.1 -0.1)">
      <use xlink:href="#DejaVuSans-31"/>
      <use x="63.623046875" xlink:href="#DejaVuSans-30"/>
      <use x="127.24609375" xlink:href="#DejaVuSans-30"/>
      <use x="190.869140625" xlink:href="#DejaVuSans-30"/>
     </g>
    </g>
   </g>
   <g id="xtick_20">
    <g id="line2d_23">
     <path d="
M351.88 115.444
L355.891 116.167" style="fill:none;stroke:#000000;"/>
    </g>
    <g id="text_23">
     <!-- 1500 -->
     <g transform="translate(355.371018915 121.875365412)scale(0.1 -0.1)">
      <use xlink:href="#DejaVuSans-31"/>
      <use x="63.623046875" xlink:href="#DejaVuSans-35"/>
      <use x="127.24609375" xlink:href="#DejaVuSans-30"/>
      <use x="190.869140625" xlink:href="#DejaVuSans-30"/>
     </g>
    </g>
   </g>
   <g id="xtick_21">
    <g id="line2d_24">
     <path d="
M353.137 94.3673
L357.19 95.0743" style="fill:none;stroke:#000000;"/>
    </g>
    <g id="text_24">
     <!-- 2000 -->
     <g transform="translate(356.596381017 100.819825896)scale(0.1 -0.1)">
      <use xlink:href="#DejaVuSans-32"/>
      <use x="63.623046875" xlink:href="#DejaVuSans-30"/>
      <use x="127.24609375" xlink:href="#DejaVuSans-30"/>
      <use x="190.869140625" xlink:href="#DejaVuSans-30"/>
     </g>
    </g>
   </g>
   <g id="xtick_22">
    <g id="line2d_25">
     <path d="
M354.42 72.8654
L358.515 73.556" style="fill:none;stroke:#000000;"/>
    </g>
    <g id="text_25">
     <!-- 2500 -->
     <g transform="translate(358.0329074 79.3403602316)scale(0.1 -0.1)">
      <use xlink:href="#DejaVuSans-32"/>
      <use x="63.623046875" xlink:href="#DejaVuSans-35"/>
      <use x="127.24609375" xlink:href="#DejaVuSans-30"/>
      <use x="190.869140625" xlink:href="#DejaVuSans-30"/>
     </g>
    </g>
   </g>
  </g>
  <g id="axes_1">
   <g id="Line3DCollection_4">
    <defs>
     <path d="
M102.656 -100.847
L124.201 -99.3595
L145.958 -101.023
L168.35 -94.9073
L190.96 -90.7069
L213.878 -85.3546
L237.082 -80.3296
L260.54 -72.7325" id="C3_0_2c89b9d9c1"/>
     <path d="
M108.554 -116.817
L129.558 -128.504
L151.658 -126.85
L174.198 -121.278
L197.006 -115.524
L220.087 -108.242
L243.414 -101.743
L266.987 -94.3064" id="C3_1_1c9fd9a600"/>
     <path d="
M114.477 -132.559
L135.441 -147.785
L157.551 -149.039
L180.2 -144.162
L203.199 -133.004
L226.346 -126.293
L249.711 -116.592
L273.341 -110.115" id="C3_2_6d258e6cea"/>
     <path d="
M119.693 -162.527
L141.583 -161.425
L163.656 -165.755
L186.522 -152.88
L209.456 -144.71
L232.617 -141.031
L255.909 -124.445
L279.551 -120.121" id="C3_3_b6932d15c1"/>
     <path d="
M125.772 -176.45
L147.378 -184.376
L169.865 -179.17
L192.624 -173.402
L215.678 -160.314
L238.848 -149.232
L262.096 -133.897
L285.529 -123.005" id="C3_4_233915506b"/>
     <path d="
M131.895 -189.349
L153.418 -201.738
L175.979 -196.382
L198.95 -179.233
L221.929 -164.36
L244.983 -150.813
L268.035 -132.631
L291.469 -126.768" id="C3_5_3b9bad49b2"/>
     <path d="
M138.093 -200.25
L159.809 -208.282
L182.544 -192.284
L205.244 -183.179
L228.116 -164.514
L251.024 -150.844
L274.079 -139.703
L297.958 -148.175" id="C3_6_f379c45c4d"/>
     <path d="
M144.21 -212.778
L166.165 -214.439
L188.836 -197.621
L211.531 -179.047
L234.19 -157.017
L257.017 -153.105
L280.224 -152.247
L304.372 -166.546" id="C3_7_0f11ace8e1"/>
     <path d="
M150.632 -216.326
L172.689 -211.878
L195.202 -194.117
L217.694 -179.641
L240.253 -166.279
L263.024 -159.944
L286.398 -166.124
L310.141 -168.243" id="C3_8_d36c88dc4e"/>
     <path d="
M156.973 -220.441
L179.144 -207.961
L201.457 -191.4
L223.78 -178.033
L246.247 -171.146
L269.058 -170.122
L291.773 -154.704
L315.557 -163.28" id="C3_9_1d5b7d3782"/>
     <path d="
M163.458 -217.597
L185.476 -204.971
L207.58 -192.826
L229.794 -184.952
L252.208 -177.46
L274.789 -168.171
L297.563 -159.462
L320.829 -157.377" id="C3_a_ef62e8713b"/>
     <path d="
M169.796 -216.622
L191.649 -205.834
L213.614 -197.442
L235.75 -187.832
L258.075 -180.335
L280.551 -170.757
L303.216 -161.827
L326.409 -160.1" id="C3_b_eec2b6820b"/>
     <path d="
M175.929 -220.837
L197.724 -208.624
L219.604 -199.203
L241.65 -191.316
L263.875 -182.859
L286.243 -173.051
L308.931 -167.341
L331.649 -157.247" id="C3_c_b9071b69fd"/>
     <path d="
M182.063 -222.342
L203.707 -214.28
L225.527 -203.903
L247.494 -194.934
L269.612 -185.294
L290.748 -139.229
L314.376 -167.456
L337.382 -165.319" id="C3_d_d3ec4d9873"/>
     <path d="
M188.11 -224.901
L209.697 -213.199
L231.397 -206.566
L253.273 -197.66
L275.281 -187.356
L297.503 -179.321
L319.924 -171.472
L342.834 -168.858" id="C3_e_c9c9997138"/>
     <path d="
M194.084 -228.301
L215.568 -220.177
L237.212 -210.255
L258.993 -200.338
L280.947 -191.692
L303.059 -182.673
L325.413 -175.268
L347.518 -160.028" id="C3_f_0b85cfe157"/>
     <path d="
M102.656 -100.847
L108.554 -116.817
L114.477 -132.559
L119.693 -162.527
L125.772 -176.45
L131.895 -189.349
L138.093 -200.25
L144.21 -212.778
L150.632 -216.326
L156.973 -220.441
L163.458 -217.597
L169.796 -216.622
L175.929 -220.837
L182.063 -222.342
L188.11 -224.901
L194.084 -228.301" id="C3_10_8a3ce0042f"/>
     <path d="
M124.201 -99.3595
L129.558 -128.504
L135.441 -147.785
L141.583 -161.425
L147.378 -184.376
L153.418 -201.738
L159.809 -208.282
L166.165 -214.439
L172.689 -211.878
L179.144 -207.961
L185.476 -204.971
L191.649 -205.834
L197.724 -208.624
L203.707 -214.28
L209.697 -213.199
L215.568 -220.177" id="C3_11_f93e3439eb"/>
     <path d="
M145.958 -101.023
L151.658 -126.85
L157.551 -149.039
L163.656 -165.755
L169.865 -179.17
L175.979 -196.382
L182.544 -192.284
L188.836 -197.621
L195.202 -194.117
L201.457 -191.4
L207.58 -192.826
L213.614 -197.442
L219.604 -199.203
L225.527 -203.903
L231.397 -206.566
L237.212 -210.255" id="C3_12_2be0f9764a"/>
     <path d="
M168.35 -94.9073
L174.198 -121.278
L180.2 -144.162
L186.522 -152.88
L192.624 -173.402
L198.95 -179.233
L205.244 -183.179
L211.531 -179.047
L217.694 -179.641
L223.78 -178.033
L229.794 -184.952
L235.75 -187.832
L241.65 -191.316
L247.494 -194.934
L253.273 -197.66
L258.993 -200.338" id="C3_13_90db891b58"/>
     <path d="
M190.96 -90.7069
L197.006 -115.524
L203.199 -133.004
L209.456 -144.71
L215.678 -160.314
L221.929 -164.36
L228.116 -164.514
L234.19 -157.017
L240.253 -166.279
L246.247 -171.146
L252.208 -177.46
L258.075 -180.335
L263.875 -182.859
L269.612 -185.294
L275.281 -187.356
L280.947 -191.692" id="C3_14_deae8f75e6"/>
     <path d="
M213.878 -85.3546
L220.087 -108.242
L226.346 -126.293
L232.617 -141.031
L238.848 -149.232
L244.983 -150.813
L251.024 -150.844
L257.017 -153.105
L263.024 -159.944
L269.058 -170.122
L274.789 -168.171
L280.551 -170.757
L286.243 -173.051
L290.748 -139.229
L297.503 -179.321
L303.059 -182.673" id="C3_15_05388eeb3a"/>
     <path d="
M237.082 -80.3296
L243.414 -101.743
L249.711 -116.592
L255.909 -124.445
L262.096 -133.897
L268.035 -132.631
L274.079 -139.703
L280.224 -152.247
L286.398 -166.124
L291.773 -154.704
L297.563 -159.462
L303.216 -161.827
L308.931 -167.341
L314.376 -167.456
L319.924 -171.472
L325.413 -175.268" id="C3_16_531d9c155d"/>
     <path d="
M260.54 -72.7325
L266.987 -94.3064
L273.341 -110.115
L279.551 -120.121
L285.529 -123.005
L291.469 -126.768
L297.958 -148.175
L304.372 -166.546
L310.141 -168.243
L315.557 -163.28
L320.829 -157.377
L326.409 -160.1
L331.649 -157.247
L337.382 -165.319
L342.834 -168.858
L347.518 -160.028" id="C3_17_8dd62d932a"/>
    </defs>
    <g clip-path="url(#p124b8dd147)">
     <use style="fill:none;stroke:#0000ff;stroke-linecap:butt;" x="0" xlink:href="#C3_0_2c89b9d9c1" y="288.0"/>
    </g>
    <g clip-path="url(#p124b8dd147)">
     <use style="fill:none;stroke:#0000ff;stroke-linecap:butt;" x="0" xlink:href="#C3_1_1c9fd9a600" y="288.0"/>
    </g>
    <g clip-path="url(#p124b8dd147)">
     <use style="fill:none;stroke:#0000ff;stroke-linecap:butt;" x="0" xlink:href="#C3_2_6d258e6cea" y="288.0"/>
    </g>
    <g clip-path="url(#p124b8dd147)">
     <use style="fill:none;stroke:#0000ff;stroke-linecap:butt;" x="0" xlink:href="#C3_3_b6932d15c1" y="288.0"/>
    </g>
    <g clip-path="url(#p124b8dd147)">
     <use style="fill:none;stroke:#0000ff;stroke-linecap:butt;" x="0" xlink:href="#C3_4_233915506b" y="288.0"/>
    </g>
    <g clip-path="url(#p124b8dd147)">
     <use style="fill:none;stroke:#0000ff;stroke-linecap:butt;" x="0" xlink:href="#C3_5_3b9bad49b2" y="288.0"/>
    </g>
    <g clip-path="url(#p124b8dd147)">
     <use style="fill:none;stroke:#0000ff;stroke-linecap:butt;" x="0" xlink:href="#C3_6_f379c45c4d" y="288.0"/>
    </g>
    <g clip-path="url(#p124b8dd147)">
     <use style="fill:none;stroke:#0000ff;stroke-linecap:butt;" x="0" xlink:href="#C3_7_0f11ace8e1" y="288.0"/>
    </g>
    <g clip-path="url(#p124b8dd147)">
     <use style="fill:none;stroke:#0000ff;stroke-linecap:butt;" x="0" xlink:href="#C3_8_d36c88dc4e" y="288.0"/>
    </g>
    <g clip-path="url(#p124b8dd147)">
     <use style="fill:none;stroke:#0000ff;stroke-linecap:butt;" x="0" xlink:href="#C3_9_1d5b7d3782" y="288.0"/>
    </g>
    <g clip-path="url(#p124b8dd147)">
     <use style="fill:none;stroke:#0000ff;stroke-linecap:butt;" x="0" xlink:href="#C3_a_ef62e8713b" y="288.0"/>
    </g>
    <g clip-path="url(#p124b8dd147)">
     <use style="fill:none;stroke:#0000ff;stroke-linecap:butt;" x="0" xlink:href="#C3_b_eec2b6820b" y="288.0"/>
    </g>
    <g clip-path="url(#p124b8dd147)">
     <use style="fill:none;stroke:#0000ff;stroke-linecap:butt;" x="0" xlink:href="#C3_c_b9071b69fd" y="288.0"/>
    </g>
    <g clip-path="url(#p124b8dd147)">
     <use style="fill:none;stroke:#0000ff;stroke-linecap:butt;" x="0" xlink:href="#C3_d_d3ec4d9873" y="288.0"/>
    </g>
    <g clip-path="url(#p124b8dd147)">
     <use style="fill:none;stroke:#0000ff;stroke-linecap:butt;" x="0" xlink:href="#C3_e_c9c9997138" y="288.0"/>
    </g>
    <g clip-path="url(#p124b8dd147)">
     <use style="fill:none;stroke:#0000ff;stroke-linecap:butt;" x="0" xlink:href="#C3_f_0b85cfe157" y="288.0"/>
    </g>
    <g clip-path="url(#p124b8dd147)">
     <use style="fill:none;stroke:#0000ff;stroke-linecap:butt;" x="0" xlink:href="#C3_10_8a3ce0042f" y="288.0"/>
    </g>
    <g clip-path="url(#p124b8dd147)">
     <use style="fill:none;stroke:#0000ff;stroke-linecap:butt;" x="0" xlink:href="#C3_11_f93e3439eb" y="288.0"/>
    </g>
    <g clip-path="url(#p124b8dd147)">
     <use style="fill:none;stroke:#0000ff;stroke-linecap:butt;" x="0" xlink:href="#C3_12_2be0f9764a" y="288.0"/>
    </g>
    <g clip-path="url(#p124b8dd147)">
     <use style="fill:none;stroke:#0000ff;stroke-linecap:butt;" x="0" xlink:href="#C3_13_90db891b58" y="288.0"/>
    </g>
    <g clip-path="url(#p124b8dd147)">
     <use style="fill:none;stroke:#0000ff;stroke-linecap:butt;" x="0" xlink:href="#C3_14_deae8f75e6" y="288.0"/>
    </g>
    <g clip-path="url(#p124b8dd147)">
     <use style="fill:none;stroke:#0000ff;stroke-linecap:butt;" x="0" xlink:href="#C3_15_05388eeb3a" y="288.0"/>
    </g>
    <g clip-path="url(#p124b8dd147)">
     <use style="fill:none;stroke:#0000ff;stroke-linecap:butt;" x="0" xlink:href="#C3_16_531d9c155d" y="288.0"/>
    </g>
    <g clip-path="url(#p124b8dd147)">
     <use style="fill:none;stroke:#0000ff;stroke-linecap:butt;" x="0" xlink:href="#C3_17_8dd62d932a" y="288.0"/>
    </g>
   </g>
  </g>
 </g>
 <defs>
  <clipPath id="p124b8dd147">
   <rect height="223.2" width="334.8" x="54.0" y="28.8"/>
  </clipPath>
 </defs>
</svg>
