<?xml version="1.0" encoding="utf-8" standalone="no"?>
<!DOCTYPE svg PUBLIC "-//W3C//DTD SVG 1.1//EN"
  "http://www.w3.org/Graphics/SVG/1.1/DTD/svg11.dtd">
<!-- Created with matplotlib (http://matplotlib.sourceforge.net/) -->
<svg height="288pt" version="1.1" viewBox="0 0 432 288" width="432pt" xmlns="http://www.w3.org/2000/svg" xmlns:xlink="http://www.w3.org/1999/xlink">
 <defs>
  <style type="text/css">
*{stroke-linecap:square;stroke-linejoin:round;}
  </style>
 </defs>
 <g id="figure_1">
  <g id="patch_1">
   <path d="
M0 288
L432 288
L432 0
L0 0
z
" style="fill:#ffffff;"/>
  </g>
  <g id="axes_1">
   <g id="patch_2">
    <path d="
M54 252
L388.8 252
L388.8 28.8
L54 28.8
z
" style="fill:#ffffff;"/>
   </g>
   <g id="line2d_1">
    <path clip-path="url(#p124b8dd147)" d="
M55.6095 242.503
L56.4833 241.608
L56.5027 241.65
L56.6279 241.444
L56.6841 241.462
L57.4419 241.108
L57.7493 241.32
L58.3868 240.248
L58.419 240.77
L60.3471 239.158
L61.9673 237.944
L62.7161 237.517
L63.6311 237.825
L63.8419 238.208
L65.0212 236.96
L65.1157 236.92
L65.2134 236.573
L66.1469 236.66
L66.7471 234.505
L67.7816 235.147
L67.9699 235.837
L68.0094 235.754
L68.4077 234.654
L69.963 233.605
L70.2452 234.296
L70.4443 231.24
L73.148 233.429
L76.5303 231.168
L79.0828 229.427
L82.1989 226.65
L86.8028 224.253
L88.0153 223.218
L94.9634 220.896
L99.2087 218.048
L100.047 216.993
L101.643 216.302
L103.497 213.831
L104.49 212.731
L105.35 213.794
L113.312 210.458
L113.634 210.61
L120.246 203.079
L127.572 201.255
L127.654 201.446
L130.739 199.55
L133.995 181.211
L141.243 180.175
L148.805 190.507
L149.679 191.135
L164.267 170.73
L166.479 162.082
L172.958 178.586
L173.519 177.789
L174.08 176.964
L174.253 170.138
L177.667 175.778
L195.956 161.759
L199.113 161.607
L202.339 158.894
L204.131 159.203
L215.877 132.913
L226.02 134.35
L233.38 140.126
L253.149 118.999
L258.645 116.655
L281.074 106.211
L287.963 92.2023
L293.445 98.0953
L296.046 72.7626
L296.745 96.4966
L323.211 65.8608
L325.388 70.9324
L341.379 63.4991
L343.272 61.3471
L345.273 58.4032
L357.457 50.0984
L362.411 49.0909" style="fill:none;stroke:#0000ff;"/>
    <defs>
     <path d="
M0 1.5
C0.397805 1.5 0.77937 1.34195 1.06066 1.06066
C1.34195 0.77937 1.5 0.397805 1.5 0
C1.5 -0.397805 1.34195 -0.77937 1.06066 -1.06066
C0.77937 -1.34195 0.397805 -1.5 0 -1.5
C-0.397805 -1.5 -0.77937 -1.34195 -1.06066 -1.06066
C-1.34195 -0.77937 -1.5 -0.397805 -1.5 0
C-1.5 0.397805 -1.34195 0.77937 -1.06066 1.06066
C-0.77937 1.34195 -0.397805 1.5 0 1.5
z
" id="m60516ac18e" style="stroke:#0000ff;stroke-linecap:butt;stroke-width:0.5;"/>
    </defs>
    <g clip-path="url(#p124b8dd147)">
     <use style="fill:#0000ff;stroke:#0000ff;stroke-linecap:butt;stroke-width:0.5;" x="55.6094952" xlink:href="#m60516ac18e" y="242.502691941"/>
     <use style="fill:#0000ff;stroke:#0000ff;stroke-linecap:butt;stroke-width:0.5;" x="56.4833232" xlink:href="#m60516ac18e" y="241.607705533"/>
     <use style="fill:#0000ff;stroke:#0000ff;stroke-linecap:butt;stroke-width:0.5;" x="56.5027416" xlink:href="#m60516ac18e" y="241.650223702"/>
     <use style="fill:#0000ff;stroke:#0000ff;stroke-linecap:butt;stroke-width:0.5;" x="56.6278824" xlink:href="#m60516ac18e" y="241.443706881"/>
     <use style="fill:#0000ff;stroke:#0000ff;stroke-linecap:butt;stroke-width:0.5;" x="56.6841288" xlink:href="#m60516ac18e" y="241.461928954"/>
     <use style="fill:#0000ff;stroke:#0000ff;stroke-linecap:butt;stroke-width:0.5;" x="57.4418928" xlink:href="#m60516ac18e" y="241.107951666"/>
     <use style="fill:#0000ff;stroke:#0000ff;stroke-linecap:butt;stroke-width:0.5;" x="57.7493136" xlink:href="#m60516ac18e" y="241.320482372"/>
     <use style="fill:#0000ff;stroke:#0000ff;stroke-linecap:butt;stroke-width:0.5;" x="58.3868472" xlink:href="#m60516ac18e" y="240.248206625"/>
     <use style="fill:#0000ff;stroke:#0000ff;stroke-linecap:butt;stroke-width:0.5;" x="58.418988" xlink:href="#m60516ac18e" y="240.769790896"/>
     <use style="fill:#0000ff;stroke:#0000ff;stroke-linecap:butt;stroke-width:0.5;" x="60.3471384" xlink:href="#m60516ac18e" y="239.158310195"/>
     <use style="fill:#0000ff;stroke:#0000ff;stroke-linecap:butt;stroke-width:0.5;" x="61.9673472" xlink:href="#m60516ac18e" y="237.943986478"/>
     <use style="fill:#0000ff;stroke:#0000ff;stroke-linecap:butt;stroke-width:0.5;" x="62.7161088" xlink:href="#m60516ac18e" y="237.51663979"/>
     <use style="fill:#0000ff;stroke:#0000ff;stroke-linecap:butt;stroke-width:0.5;" x="63.63108" xlink:href="#m60516ac18e" y="237.825091966"/>
     <use style="fill:#0000ff;stroke:#0000ff;stroke-linecap:butt;stroke-width:0.5;" x="63.8419296" xlink:href="#m60516ac18e" y="238.208296737"/>
     <use style="fill:#0000ff;stroke:#0000ff;stroke-linecap:butt;stroke-width:0.5;" x="65.021244" xlink:href="#m60516ac18e" y="236.959754013"/>
     <use style="fill:#0000ff;stroke:#0000ff;stroke-linecap:butt;stroke-width:0.5;" x="65.1156576" xlink:href="#m60516ac18e" y="236.919942092"/>
     <use style="fill:#0000ff;stroke:#0000ff;stroke-linecap:butt;stroke-width:0.5;" x="65.2134192" xlink:href="#m60516ac18e" y="236.573181467"/>
     <use style="fill:#0000ff;stroke:#0000ff;stroke-linecap:butt;stroke-width:0.5;" x="66.146916" xlink:href="#m60516ac18e" y="236.660142248"/>
     <use style="fill:#0000ff;stroke:#0000ff;stroke-linecap:butt;stroke-width:0.5;" x="66.7471008" xlink:href="#m60516ac18e" y="234.505006317"/>
     <use style="fill:#0000ff;stroke:#0000ff;stroke-linecap:butt;stroke-width:0.5;" x="67.7816328" xlink:href="#m60516ac18e" y="235.146808155"/>
     <use style="fill:#0000ff;stroke:#0000ff;stroke-linecap:butt;stroke-width:0.5;" x="67.9698648" xlink:href="#m60516ac18e" y="235.836540658"/>
     <use style="fill:#0000ff;stroke:#0000ff;stroke-linecap:butt;stroke-width:0.5;" x="68.0093712" xlink:href="#m60516ac18e" y="235.754451124"/>
     <use style="fill:#0000ff;stroke:#0000ff;stroke-linecap:butt;stroke-width:0.5;" x="68.4077088" xlink:href="#m60516ac18e" y="234.654150672"/>
     <use style="fill:#0000ff;stroke:#0000ff;stroke-linecap:butt;stroke-width:0.5;" x="69.9630408" xlink:href="#m60516ac18e" y="233.605028384"/>
     <use style="fill:#0000ff;stroke:#0000ff;stroke-linecap:butt;stroke-width:0.5;" x="70.2451656" xlink:href="#m60516ac18e" y="234.295783248"/>
     <use style="fill:#0000ff;stroke:#0000ff;stroke-linecap:butt;stroke-width:0.5;" x="70.4443344" xlink:href="#m60516ac18e" y="231.240128135"/>
     <use style="fill:#0000ff;stroke:#0000ff;stroke-linecap:butt;stroke-width:0.5;" x="73.1480304" xlink:href="#m60516ac18e" y="233.429182378"/>
     <use style="fill:#0000ff;stroke:#0000ff;stroke-linecap:butt;stroke-width:0.5;" x="76.5303288" xlink:href="#m60516ac18e" y="231.167540539"/>
     <use style="fill:#0000ff;stroke:#0000ff;stroke-linecap:butt;stroke-width:0.5;" x="79.082844" xlink:href="#m60516ac18e" y="229.426761305"/>
     <use style="fill:#0000ff;stroke:#0000ff;stroke-linecap:butt;stroke-width:0.5;" x="82.1988648" xlink:href="#m60516ac18e" y="226.650150468"/>
     <use style="fill:#0000ff;stroke:#0000ff;stroke-linecap:butt;stroke-width:0.5;" x="86.8028112" xlink:href="#m60516ac18e" y="224.252895516"/>
     <use style="fill:#0000ff;stroke:#0000ff;stroke-linecap:butt;stroke-width:0.5;" x="88.015308" xlink:href="#m60516ac18e" y="223.218386969"/>
     <use style="fill:#0000ff;stroke:#0000ff;stroke-linecap:butt;stroke-width:0.5;" x="94.9633752" xlink:href="#m60516ac18e" y="220.896185305"/>
     <use style="fill:#0000ff;stroke:#0000ff;stroke-linecap:butt;stroke-width:0.5;" x="99.2087136" xlink:href="#m60516ac18e" y="218.048129512"/>
     <use style="fill:#0000ff;stroke:#0000ff;stroke-linecap:butt;stroke-width:0.5;" x="100.0472016" xlink:href="#m60516ac18e" y="216.993474449"/>
     <use style="fill:#0000ff;stroke:#0000ff;stroke-linecap:butt;stroke-width:0.5;" x="101.6433048" xlink:href="#m60516ac18e" y="216.301637086"/>
     <use style="fill:#0000ff;stroke:#0000ff;stroke-linecap:butt;stroke-width:0.5;" x="103.4970552" xlink:href="#m60516ac18e" y="213.830591761"/>
     <use style="fill:#0000ff;stroke:#0000ff;stroke-linecap:butt;stroke-width:0.5;" x="104.490444" xlink:href="#m60516ac18e" y="212.731433948"/>
     <use style="fill:#0000ff;stroke:#0000ff;stroke-linecap:butt;stroke-width:0.5;" x="105.3504336" xlink:href="#m60516ac18e" y="213.794087478"/>
     <use style="fill:#0000ff;stroke:#0000ff;stroke-linecap:butt;stroke-width:0.5;" x="113.31168" xlink:href="#m60516ac18e" y="210.458125171"/>
     <use style="fill:#0000ff;stroke:#0000ff;stroke-linecap:butt;stroke-width:0.5;" x="113.6341296" xlink:href="#m60516ac18e" y="210.610035914"/>
     <use style="fill:#0000ff;stroke:#0000ff;stroke-linecap:butt;stroke-width:0.5;" x="120.2463552" xlink:href="#m60516ac18e" y="203.078546677"/>
     <use style="fill:#0000ff;stroke:#0000ff;stroke-linecap:butt;stroke-width:0.5;" x="127.5724488" xlink:href="#m60516ac18e" y="201.255377214"/>
     <use style="fill:#0000ff;stroke:#0000ff;stroke-linecap:butt;stroke-width:0.5;" x="127.6542144" xlink:href="#m60516ac18e" y="201.446137655"/>
     <use style="fill:#0000ff;stroke:#0000ff;stroke-linecap:butt;stroke-width:0.5;" x="130.7386896" xlink:href="#m60516ac18e" y="199.54965893"/>
     <use style="fill:#0000ff;stroke:#0000ff;stroke-linecap:butt;stroke-width:0.5;" x="133.9949544" xlink:href="#m60516ac18e" y="181.210676586"/>
     <use style="fill:#0000ff;stroke:#0000ff;stroke-linecap:butt;stroke-width:0.5;" x="141.2431512" xlink:href="#m60516ac18e" y="180.175265957"/>
     <use style="fill:#0000ff;stroke:#0000ff;stroke-linecap:butt;stroke-width:0.5;" x="148.804944" xlink:href="#m60516ac18e" y="190.507060738"/>
     <use style="fill:#0000ff;stroke:#0000ff;stroke-linecap:butt;stroke-width:0.5;" x="149.6792184" xlink:href="#m60516ac18e" y="191.134850223"/>
     <use style="fill:#0000ff;stroke:#0000ff;stroke-linecap:butt;stroke-width:0.5;" x="164.2672728" xlink:href="#m60516ac18e" y="170.729617173"/>
     <use style="fill:#0000ff;stroke:#0000ff;stroke-linecap:butt;stroke-width:0.5;" x="166.478664" xlink:href="#m60516ac18e" y="162.081650133"/>
     <use style="fill:#0000ff;stroke:#0000ff;stroke-linecap:butt;stroke-width:0.5;" x="172.9580112" xlink:href="#m60516ac18e" y="178.585735937"/>
     <use style="fill:#0000ff;stroke:#0000ff;stroke-linecap:butt;stroke-width:0.5;" x="173.5185408" xlink:href="#m60516ac18e" y="177.789196831"/>
     <use style="fill:#0000ff;stroke:#0000ff;stroke-linecap:butt;stroke-width:0.5;" x="174.0795912" xlink:href="#m60516ac18e" y="176.963610659"/>
     <use style="fill:#0000ff;stroke:#0000ff;stroke-linecap:butt;stroke-width:0.5;" x="174.2526456" xlink:href="#m60516ac18e" y="170.137971138"/>
     <use style="fill:#0000ff;stroke:#0000ff;stroke-linecap:butt;stroke-width:0.5;" x="177.6667872" xlink:href="#m60516ac18e" y="175.778213731"/>
     <use style="fill:#0000ff;stroke:#0000ff;stroke-linecap:butt;stroke-width:0.5;" x="195.9562416" xlink:href="#m60516ac18e" y="161.759305881"/>
     <use style="fill:#0000ff;stroke:#0000ff;stroke-linecap:butt;stroke-width:0.5;" x="199.1132568" xlink:href="#m60516ac18e" y="161.60679375"/>
     <use style="fill:#0000ff;stroke:#0000ff;stroke-linecap:butt;stroke-width:0.5;" x="202.3385712" xlink:href="#m60516ac18e" y="158.894110515"/>
     <use style="fill:#0000ff;stroke:#0000ff;stroke-linecap:butt;stroke-width:0.5;" x="204.1310904" xlink:href="#m60516ac18e" y="159.202562691"/>
     <use style="fill:#0000ff;stroke:#0000ff;stroke-linecap:butt;stroke-width:0.5;" x="215.8768416" xlink:href="#m60516ac18e" y="132.913404417"/>
     <use style="fill:#0000ff;stroke:#0000ff;stroke-linecap:butt;stroke-width:0.5;" x="226.0200168" xlink:href="#m60516ac18e" y="134.350302028"/>
     <use style="fill:#0000ff;stroke:#0000ff;stroke-linecap:butt;stroke-width:0.5;" x="233.3798136" xlink:href="#m60516ac18e" y="140.12633815"/>
     <use style="fill:#0000ff;stroke:#0000ff;stroke-linecap:butt;stroke-width:0.5;" x="253.148712" xlink:href="#m60516ac18e" y="118.998897616"/>
     <use style="fill:#0000ff;stroke:#0000ff;stroke-linecap:butt;stroke-width:0.5;" x="258.6452352" xlink:href="#m60516ac18e" y="116.654624993"/>
     <use style="fill:#0000ff;stroke:#0000ff;stroke-linecap:butt;stroke-width:0.5;" x="281.0737848" xlink:href="#m60516ac18e" y="106.211212501"/>
     <use style="fill:#0000ff;stroke:#0000ff;stroke-linecap:butt;stroke-width:0.5;" x="287.9625552" xlink:href="#m60516ac18e" y="92.2022877014"/>
     <use style="fill:#0000ff;stroke:#0000ff;stroke-linecap:butt;stroke-width:0.5;" x="293.4447936" xlink:href="#m60516ac18e" y="98.0952938923"/>
     <use style="fill:#0000ff;stroke:#0000ff;stroke-linecap:butt;stroke-width:0.5;" x="296.0463384" xlink:href="#m60516ac18e" y="72.7625839337"/>
     <use style="fill:#0000ff;stroke:#0000ff;stroke-linecap:butt;stroke-width:0.5;" x="296.7449544" xlink:href="#m60516ac18e" y="96.4965626281"/>
     <use style="fill:#0000ff;stroke:#0000ff;stroke-linecap:butt;stroke-width:0.5;" x="323.2110432" xlink:href="#m60516ac18e" y="65.8608086251"/>
     <use style="fill:#0000ff;stroke:#0000ff;stroke-linecap:butt;stroke-width:0.5;" x="325.3876152" xlink:href="#m60516ac18e" y="70.9324383637"/>
     <use style="fill:#0000ff;stroke:#0000ff;stroke-linecap:butt;stroke-width:0.5;" x="341.3790768" xlink:href="#m60516ac18e" y="63.4990957347"/>
     <use style="fill:#0000ff;stroke:#0000ff;stroke-linecap:butt;stroke-width:0.5;" x="343.2715152" xlink:href="#m60516ac18e" y="61.3471471632"/>
     <use style="fill:#0000ff;stroke:#0000ff;stroke-linecap:butt;stroke-width:0.5;" x="345.2728008" xlink:href="#m60516ac18e" y="58.4032300384"/>
     <use style="fill:#0000ff;stroke:#0000ff;stroke-linecap:butt;stroke-width:0.5;" x="357.4573632" xlink:href="#m60516ac18e" y="50.0984152927"/>
     <use style="fill:#0000ff;stroke:#0000ff;stroke-linecap:butt;stroke-width:0.5;" x="362.4105432" xlink:href="#m60516ac18e" y="49.0909090909"/>
    </g>
   </g>
   <g id="matplotlib.axis_1">
    <g id="xtick_1">
     <g id="line2d_2">
      <path clip-path="url(#p124b8dd147)" d="
M54 252
L54 28.8" style="fill:none;stroke:#000000;stroke-dasharray:1.000000,3.000000;stroke-dashoffset:0.0;stroke-linecap:butt;stroke-width:0.5;"/>
     </g>
     <g id="line2d_3">
      <defs>
       <path d="
M0 0
L0 -4" id="m0012dd4eef" style="stroke:#000000;stroke-linecap:butt;stroke-width:0.5;"/>
      </defs>
      <g>
       <use style="stroke:#000000;stroke-linecap:butt;stroke-width:0.5;" x="54.0" xlink:href="#m0012dd4eef" y="252.0"/>
      </g>
     </g>
     <g id="line2d_4">
      <defs>
       <path d="
M0 0
L0 4" id="m476344969c" style="stroke:#000000;stroke-linecap:butt;stroke-width:0.5;"/>
      </defs>
      <g>
       <use style="stroke:#000000;stroke-linecap:butt;stroke-width:0.5;" x="54.0" xlink:href="#m476344969c" y="28.8"/>
      </g>
     </g>
     <g id="text_1">
      <!-- 0 -->
      <defs>
       <path d="
M31.7812 66.4062
Q24.1719 66.4062 20.3281 58.9062
Q16.5 51.4219 16.5 36.375
Q16.5 21.3906 20.3281 13.8906
Q24.1719 6.39062 31.7812 6.39062
Q39.4531 6.39062 43.2812 13.8906
Q47.125 21.3906 47.125 36.375
Q47.125 51.4219 43.2812 58.9062
Q39.4531 66.4062 31.7812 66.4062
M31.7812 74.2188
Q44.0469 74.2188 50.5156 64.5156
Q56.9844 54.8281 56.9844 36.375
Q56.9844 17.9688 50.5156 8.26562
Q44.0469 -1.42188 31.7812 -1.42188
Q19.5312 -1.42188 13.0625 8.26562
Q6.59375 17.9688 6.59375 36.375
Q6.59375 54.8281 13.0625 64.5156
Q19.5312 74.2188 31.7812 74.2188" id="DejaVuSans-30"/>
      </defs>
      <g transform="translate(51.48046875 263.421875)scale(0.1 -0.1)">
       <use xlink:href="#DejaVuSans-30"/>
      </g>
     </g>
    </g>
    <g id="xtick_2">
     <g id="line2d_5">
      <path clip-path="url(#p124b8dd147)" d="
M91.2 252
L91.2 28.8" style="fill:none;stroke:#000000;stroke-dasharray:1.000000,3.000000;stroke-dashoffset:0.0;stroke-linecap:butt;stroke-width:0.5;"/>
     </g>
     <g id="line2d_6">
      <g>
       <use style="stroke:#000000;stroke-linecap:butt;stroke-width:0.5;" x="91.2" xlink:href="#m0012dd4eef" y="252.0"/>
      </g>
     </g>
     <g id="line2d_7">
      <g>
       <use style="stroke:#000000;stroke-linecap:butt;stroke-width:0.5;" x="91.2" xlink:href="#m476344969c" y="28.8"/>
      </g>
     </g>
     <g id="text_2">
      <!-- 500000 -->
      <defs>
       <path d="
M10.7969 72.9062
L49.5156 72.9062
L49.5156 64.5938
L19.8281 64.5938
L19.8281 46.7344
Q21.9688 47.4688 24.1094 47.8281
Q26.2656 48.1875 28.4219 48.1875
Q40.625 48.1875 47.75 41.5
Q54.8906 34.8125 54.8906 23.3906
Q54.8906 11.625 47.5625 5.09375
Q40.2344 -1.42188 26.9062 -1.42188
Q22.3125 -1.42188 17.5469 -0.640625
Q12.7969 0.140625 7.71875 1.70312
L7.71875 11.625
Q12.1094 9.23438 16.7969 8.0625
Q21.4844 6.89062 26.7031 6.89062
Q35.1562 6.89062 40.0781 11.3281
Q45.0156 15.7656 45.0156 23.3906
Q45.0156 31 40.0781 35.4375
Q35.1562 39.8906 26.7031 39.8906
Q22.75 39.8906 18.8125 39.0156
Q14.8906 38.1406 10.7969 36.2812
z
" id="DejaVuSans-35"/>
      </defs>
      <g transform="translate(72.83046875 263.421875)scale(0.1 -0.1)">
       <use xlink:href="#DejaVuSans-35"/>
       <use x="63.623046875" xlink:href="#DejaVuSans-30"/>
       <use x="127.24609375" xlink:href="#DejaVuSans-30"/>
       <use x="190.869140625" xlink:href="#DejaVuSans-30"/>
       <use x="254.4921875" xlink:href="#DejaVuSans-30"/>
       <use x="318.115234375" xlink:href="#DejaVuSans-30"/>
      </g>
     </g>
    </g>
    <g id="xtick_3">
     <g id="line2d_8">
      <path clip-path="url(#p124b8dd147)" d="
M128.4 252
L128.4 28.8" style="fill:none;stroke:#000000;stroke-dasharray:1.000000,3.000000;stroke-dashoffset:0.0;stroke-linecap:butt;stroke-width:0.5;"/>
     </g>
     <g id="line2d_9">
      <g>
       <use style="stroke:#000000;stroke-linecap:butt;stroke-width:0.5;" x="128.4" xlink:href="#m0012dd4eef" y="252.0"/>
      </g>
     </g>
     <g id="line2d_10">
      <g>
       <use style="stroke:#000000;stroke-linecap:butt;stroke-width:0.5;" x="128.4" xlink:href="#m476344969c" y="28.8"/>
      </g>
     </g>
     <g id="text_3">
      <!-- 1000000 -->
      <defs>
       <path d="
M12.4062 8.29688
L28.5156 8.29688
L28.5156 63.9219
L10.9844 60.4062
L10.9844 69.3906
L28.4219 72.9062
L38.2812 72.9062
L38.2812 8.29688
L54.3906 8.29688
L54.3906 0
L12.4062 0
z
" id="DejaVuSans-31"/>
      </defs>
      <g transform="translate(107.0125 263.421875)scale(0.1 -0.1)">
       <use xlink:href="#DejaVuSans-31"/>
       <use x="63.623046875" xlink:href="#DejaVuSans-30"/>
       <use x="127.24609375" xlink:href="#DejaVuSans-30"/>
       <use x="190.869140625" xlink:href="#DejaVuSans-30"/>
       <use x="254.4921875" xlink:href="#DejaVuSans-30"/>
       <use x="318.115234375" xlink:href="#DejaVuSans-30"/>
       <use x="381.73828125" xlink:href="#DejaVuSans-30"/>
      </g>
     </g>
    </g>
    <g id="xtick_4">
     <g id="line2d_11">
      <path clip-path="url(#p124b8dd147)" d="
M165.6 252
L165.6 28.8" style="fill:none;stroke:#000000;stroke-dasharray:1.000000,3.000000;stroke-dashoffset:0.0;stroke-linecap:butt;stroke-width:0.5;"/>
     </g>
     <g id="line2d_12">
      <g>
       <use style="stroke:#000000;stroke-linecap:butt;stroke-width:0.5;" x="165.6" xlink:href="#m0012dd4eef" y="252.0"/>
      </g>
     </g>
     <g id="line2d_13">
      <g>
       <use style="stroke:#000000;stroke-linecap:butt;stroke-width:0.5;" x="165.6" xlink:href="#m476344969c" y="28.8"/>
      </g>
     </g>
     <g id="text_4">
      <!-- 1500000 -->
      <g transform="translate(144.2125 263.421875)scale(0.1 -0.1)">
       <use xlink:href="#DejaVuSans-31"/>
       <use x="63.623046875" xlink:href="#DejaVuSans-35"/>
       <use x="127.24609375" xlink:href="#DejaVuSans-30"/>
       <use x="190.869140625" xlink:href="#DejaVuSans-30"/>
       <use x="254.4921875" xlink:href="#DejaVuSans-30"/>
       <use x="318.115234375" xlink:href="#DejaVuSans-30"/>
       <use x="381.73828125" xlink:href="#DejaVuSans-30"/>
      </g>
     </g>
    </g>
    <g id="xtick_5">
     <g id="line2d_14">
      <path clip-path="url(#p124b8dd147)" d="
M202.8 252
L202.8 28.8" style="fill:none;stroke:#000000;stroke-dasharray:1.000000,3.000000;stroke-dashoffset:0.0;stroke-linecap:butt;stroke-width:0.5;"/>
     </g>
     <g id="line2d_15">
      <g>
       <use style="stroke:#000000;stroke-linecap:butt;stroke-width:0.5;" x="202.8" xlink:href="#m0012dd4eef" y="252.0"/>
      </g>
     </g>
     <g id="line2d_16">
      <g>
       <use style="stroke:#000000;stroke-linecap:butt;stroke-width:0.5;" x="202.8" xlink:href="#m476344969c" y="28.8"/>
      </g>
     </g>
     <g id="text_5">
      <!-- 2000000 -->
      <defs>
       <path d="
M19.1875 8.29688
L53.6094 8.29688
L53.6094 0
L7.32812 0
L7.32812 8.29688
Q12.9375 14.1094 22.625 23.8906
Q32.3281 33.6875 34.8125 36.5312
Q39.5469 41.8438 41.4219 45.5312
Q43.3125 49.2188 43.3125 52.7812
Q43.3125 58.5938 39.2344 62.25
Q35.1562 65.9219 28.6094 65.9219
Q23.9688 65.9219 18.8125 64.3125
Q13.6719 62.7031 7.8125 59.4219
L7.8125 69.3906
Q13.7656 71.7812 18.9375 73
Q24.125 74.2188 28.4219 74.2188
Q39.75 74.2188 46.4844 68.5469
Q53.2188 62.8906 53.2188 53.4219
Q53.2188 48.9219 51.5312 44.8906
Q49.8594 40.875 45.4062 35.4062
Q44.1875 33.9844 37.6406 27.2188
Q31.1094 20.4531 19.1875 8.29688" id="DejaVuSans-32"/>
      </defs>
      <g transform="translate(181.2296875 263.421875)scale(0.1 -0.1)">
       <use xlink:href="#DejaVuSans-32"/>
       <use x="63.623046875" xlink:href="#DejaVuSans-30"/>
       <use x="127.24609375" xlink:href="#DejaVuSans-30"/>
       <use x="190.869140625" xlink:href="#DejaVuSans-30"/>
       <use x="254.4921875" xlink:href="#DejaVuSans-30"/>
       <use x="318.115234375" xlink:href="#DejaVuSans-30"/>
       <use x="381.73828125" xlink:href="#DejaVuSans-30"/>
      </g>
     </g>
    </g>
    <g id="xtick_6">
     <g id="line2d_17">
      <path clip-path="url(#p124b8dd147)" d="
M240 252
L240 28.8" style="fill:none;stroke:#000000;stroke-dasharray:1.000000,3.000000;stroke-dashoffset:0.0;stroke-linecap:butt;stroke-width:0.5;"/>
     </g>
     <g id="line2d_18">
      <g>
       <use style="stroke:#000000;stroke-linecap:butt;stroke-width:0.5;" x="240.0" xlink:href="#m0012dd4eef" y="252.0"/>
      </g>
     </g>
     <g id="line2d_19">
      <g>
       <use style="stroke:#000000;stroke-linecap:butt;stroke-width:0.5;" x="240.0" xlink:href="#m476344969c" y="28.8"/>
      </g>
     </g>
     <g id="text_6">
      <!-- 2500000 -->
      <g transform="translate(218.4296875 263.421875)scale(0.1 -0.1)">
       <use xlink:href="#DejaVuSans-32"/>
       <use x="63.623046875" xlink:href="#DejaVuSans-35"/>
       <use x="127.24609375" xlink:href="#DejaVuSans-30"/>
       <use x="190.869140625" xlink:href="#DejaVuSans-30"/>
       <use x="254.4921875" xlink:href="#DejaVuSans-30"/>
       <use x="318.115234375" xlink:href="#DejaVuSans-30"/>
       <use x="381.73828125" xlink:href="#DejaVuSans-30"/>
      </g>
     </g>
    </g>
    <g id="xtick_7">
     <g id="line2d_20">
      <path clip-path="url(#p124b8dd147)" d="
M277.2 252
L277.2 28.8" style="fill:none;stroke:#000000;stroke-dasharray:1.000000,3.000000;stroke-dashoffset:0.0;stroke-linecap:butt;stroke-width:0.5;"/>
     </g>
     <g id="line2d_21">
      <g>
       <use style="stroke:#000000;stroke-linecap:butt;stroke-width:0.5;" x="277.2" xlink:href="#m0012dd4eef" y="252.0"/>
      </g>
     </g>
     <g id="line2d_22">
      <g>
       <use style="stroke:#000000;stroke-linecap:butt;stroke-width:0.5;" x="277.2" xlink:href="#m476344969c" y="28.8"/>
      </g>
     </g>
     <g id="text_7">
      <!-- 3000000 -->
      <defs>
       <path d="
M40.5781 39.3125
Q47.6562 37.7969 51.625 33
Q55.6094 28.2188 55.6094 21.1875
Q55.6094 10.4062 48.1875 4.48438
Q40.7656 -1.42188 27.0938 -1.42188
Q22.5156 -1.42188 17.6562 -0.515625
Q12.7969 0.390625 7.625 2.20312
L7.625 11.7188
Q11.7188 9.32812 16.5938 8.10938
Q21.4844 6.89062 26.8125 6.89062
Q36.0781 6.89062 40.9375 10.5469
Q45.7969 14.2031 45.7969 21.1875
Q45.7969 27.6406 41.2812 31.2656
Q36.7656 34.9062 28.7188 34.9062
L20.2188 34.9062
L20.2188 43.0156
L29.1094 43.0156
Q36.375 43.0156 40.2344 45.9219
Q44.0938 48.8281 44.0938 54.2969
Q44.0938 59.9062 40.1094 62.9062
Q36.1406 65.9219 28.7188 65.9219
Q24.6562 65.9219 20.0156 65.0312
Q15.375 64.1562 9.8125 62.3125
L9.8125 71.0938
Q15.4375 72.6562 20.3438 73.4375
Q25.25 74.2188 29.5938 74.2188
Q40.8281 74.2188 47.3594 69.1094
Q53.9062 64.0156 53.9062 55.3281
Q53.9062 49.2656 50.4375 45.0938
Q46.9688 40.9219 40.5781 39.3125" id="DejaVuSans-33"/>
      </defs>
      <g transform="translate(255.64453125 263.421875)scale(0.1 -0.1)">
       <use xlink:href="#DejaVuSans-33"/>
       <use x="63.623046875" xlink:href="#DejaVuSans-30"/>
       <use x="127.24609375" xlink:href="#DejaVuSans-30"/>
       <use x="190.869140625" xlink:href="#DejaVuSans-30"/>
       <use x="254.4921875" xlink:href="#DejaVuSans-30"/>
       <use x="318.115234375" xlink:href="#DejaVuSans-30"/>
       <use x="381.73828125" xlink:href="#DejaVuSans-30"/>
      </g>
     </g>
    </g>
    <g id="xtick_8">
     <g id="line2d_23">
      <path clip-path="url(#p124b8dd147)" d="
M314.4 252
L314.4 28.8" style="fill:none;stroke:#000000;stroke-dasharray:1.000000,3.000000;stroke-dashoffset:0.0;stroke-linecap:butt;stroke-width:0.5;"/>
     </g>
     <g id="line2d_24">
      <g>
       <use style="stroke:#000000;stroke-linecap:butt;stroke-width:0.5;" x="314.4" xlink:href="#m0012dd4eef" y="252.0"/>
      </g>
     </g>
     <g id="line2d_25">
      <g>
       <use style="stroke:#000000;stroke-linecap:butt;stroke-width:0.5;" x="314.4" xlink:href="#m476344969c" y="28.8"/>
      </g>
     </g>
     <g id="text_8">
      <!-- 3500000 -->
      <g transform="translate(292.84453125 263.421875)scale(0.1 -0.1)">
       <use xlink:href="#DejaVuSans-33"/>
       <use x="63.623046875" xlink:href="#DejaVuSans-35"/>
       <use x="127.24609375" xlink:href="#DejaVuSans-30"/>
       <use x="190.869140625" xlink:href="#DejaVuSans-30"/>
       <use x="254.4921875" xlink:href="#DejaVuSans-30"/>
       <use x="318.115234375" xlink:href="#DejaVuSans-30"/>
       <use x="381.73828125" xlink:href="#DejaVuSans-30"/>
      </g>
     </g>
    </g>
    <g id="xtick_9">
     <g id="line2d_26">
      <path clip-path="url(#p124b8dd147)" d="
M351.6 252
L351.6 28.8" style="fill:none;stroke:#000000;stroke-dasharray:1.000000,3.000000;stroke-dashoffset:0.0;stroke-linecap:butt;stroke-width:0.5;"/>
     </g>
     <g id="line2d_27">
      <g>
       <use style="stroke:#000000;stroke-linecap:butt;stroke-width:0.5;" x="351.6" xlink:href="#m0012dd4eef" y="252.0"/>
      </g>
     </g>
     <g id="line2d_28">
      <g>
       <use style="stroke:#000000;stroke-linecap:butt;stroke-width:0.5;" x="351.6" xlink:href="#m476344969c" y="28.8"/>
      </g>
     </g>
     <g id="text_9">
      <!-- 4000000 -->
      <defs>
       <path d="
M37.7969 64.3125
L12.8906 25.3906
L37.7969 25.3906
z

M35.2031 72.9062
L47.6094 72.9062
L47.6094 25.3906
L58.0156 25.3906
L58.0156 17.1875
L47.6094 17.1875
L47.6094 0
L37.7969 0
L37.7969 17.1875
L4.89062 17.1875
L4.89062 26.7031
z
" id="DejaVuSans-34"/>
      </defs>
      <g transform="translate(329.9078125 263.421875)scale(0.1 -0.1)">
       <use xlink:href="#DejaVuSans-34"/>
       <use x="63.623046875" xlink:href="#DejaVuSans-30"/>
       <use x="127.24609375" xlink:href="#DejaVuSans-30"/>
       <use x="190.869140625" xlink:href="#DejaVuSans-30"/>
       <use x="254.4921875" xlink:href="#DejaVuSans-30"/>
       <use x="318.115234375" xlink:href="#DejaVuSans-30"/>
       <use x="381.73828125" xlink:href="#DejaVuSans-30"/>
      </g>
     </g>
    </g>
    <g id="xtick_10">
     <g id="line2d_29">
      <path clip-path="url(#p124b8dd147)" d="
M388.8 252
L388.8 28.8" style="fill:none;stroke:#000000;stroke-dasharray:1.000000,3.000000;stroke-dashoffset:0.0;stroke-linecap:butt;stroke-width:0.5;"/>
     </g>
     <g id="line2d_30">
      <g>
       <use style="stroke:#000000;stroke-linecap:butt;stroke-width:0.5;" x="388.8" xlink:href="#m0012dd4eef" y="252.0"/>
      </g>
     </g>
     <g id="line2d_31">
      <g>
       <use style="stroke:#000000;stroke-linecap:butt;stroke-width:0.5;" x="388.8" xlink:href="#m476344969c" y="28.8"/>
      </g>
     </g>
     <g id="text_10">
      <!-- 4500000 -->
      <g transform="translate(367.1078125 263.421875)scale(0.1 -0.1)">
       <use xlink:href="#DejaVuSans-34"/>
       <use x="63.623046875" xlink:href="#DejaVuSans-35"/>
       <use x="127.24609375" xlink:href="#DejaVuSans-30"/>
       <use x="190.869140625" xlink:href="#DejaVuSans-30"/>
       <use x="254.4921875" xlink:href="#DejaVuSans-30"/>
       <use x="318.115234375" xlink:href="#DejaVuSans-30"/>
       <use x="381.73828125" xlink:href="#DejaVuSans-30"/>
      </g>
     </g>
    </g>
   </g>
   <g id="matplotlib.axis_2">
    <g id="ytick_1">
     <g id="line2d_32">
      <path clip-path="url(#p124b8dd147)" d="
M54 252
L388.8 252" style="fill:none;stroke:#000000;stroke-dasharray:1.000000,3.000000;stroke-dashoffset:0.0;stroke-linecap:butt;stroke-width:0.5;"/>
     </g>
     <g id="line2d_33">
      <defs>
       <path d="
M0 0
L4 0" id="me8a85f7bf6" style="stroke:#000000;stroke-linecap:butt;stroke-width:0.5;"/>
      </defs>
      <g>
       <use style="stroke:#000000;stroke-linecap:butt;stroke-width:0.5;" x="54.0" xlink:href="#me8a85f7bf6" y="252.0"/>
      </g>
     </g>
     <g id="line2d_34">
      <defs>
       <path d="
M0 0
L-4 0" id="m1a32005dea" style="stroke:#000000;stroke-linecap:butt;stroke-width:0.5;"/>
      </defs>
      <g>
       <use style="stroke:#000000;stroke-linecap:butt;stroke-width:0.5;" x="388.8" xlink:href="#m1a32005dea" y="252.0"/>
      </g>
     </g>
     <g id="text_11">
      <!-- 0.0 -->
      <defs>
       <path d="
M10.6875 12.4062
L21 12.4062
L21 0
L10.6875 0
z
" id="DejaVuSans-2e"/>
      </defs>
      <g transform="translate(35.4203125 255.63984375)scale(0.1 -0.1)">
       <use xlink:href="#DejaVuSans-30"/>
       <use x="63.623046875" xlink:href="#DejaVuSans-2e"/>
       <use x="95.41015625" xlink:href="#DejaVuSans-30"/>
      </g>
     </g>
    </g>
    <g id="ytick_2">
     <g id="line2d_35">
      <path clip-path="url(#p124b8dd147)" d="
M54 221.931
L388.8 221.931" style="fill:none;stroke:#000000;stroke-dasharray:1.000000,3.000000;stroke-dashoffset:0.0;stroke-linecap:butt;stroke-width:0.5;"/>
     </g>
     <g id="line2d_36">
      <g>
       <use style="stroke:#000000;stroke-linecap:butt;stroke-width:0.5;" x="54.0" xlink:href="#me8a85f7bf6" y="221.930573574"/>
      </g>
     </g>
     <g id="line2d_37">
      <g>
       <use style="stroke:#000000;stroke-linecap:butt;stroke-width:0.5;" x="388.8" xlink:href="#m1a32005dea" y="221.930573574"/>
      </g>
     </g>
     <g id="text_12">
      <!-- 0.5 -->
      <g transform="translate(35.6296875 225.570417324)scale(0.1 -0.1)">
       <use xlink:href="#DejaVuSans-30"/>
       <use x="63.623046875" xlink:href="#DejaVuSans-2e"/>
       <use x="95.41015625" xlink:href="#DejaVuSans-35"/>
      </g>
     </g>
    </g>
    <g id="ytick_3">
     <g id="line2d_38">
      <path clip-path="url(#p124b8dd147)" d="
M54 191.861
L388.8 191.861" style="fill:none;stroke:#000000;stroke-dasharray:1.000000,3.000000;stroke-dashoffset:0.0;stroke-linecap:butt;stroke-width:0.5;"/>
     </g>
     <g id="line2d_39">
      <g>
       <use style="stroke:#000000;stroke-linecap:butt;stroke-width:0.5;" x="54.0" xlink:href="#me8a85f7bf6" y="191.861147149"/>
      </g>
     </g>
     <g id="line2d_40">
      <g>
       <use style="stroke:#000000;stroke-linecap:butt;stroke-width:0.5;" x="388.8" xlink:href="#m1a32005dea" y="191.861147149"/>
      </g>
     </g>
     <g id="text_13">
      <!-- 1.0 -->
      <g transform="translate(35.859375 195.500990899)scale(0.1 -0.1)">
       <use xlink:href="#DejaVuSans-31"/>
       <use x="63.623046875" xlink:href="#DejaVuSans-2e"/>
       <use x="95.41015625" xlink:href="#DejaVuSans-30"/>
      </g>
     </g>
    </g>
    <g id="ytick_4">
     <g id="line2d_41">
      <path clip-path="url(#p124b8dd147)" d="
M54 161.792
L388.8 161.792" style="fill:none;stroke:#000000;stroke-dasharray:1.000000,3.000000;stroke-dashoffset:0.0;stroke-linecap:butt;stroke-width:0.5;"/>
     </g>
     <g id="line2d_42">
      <g>
       <use style="stroke:#000000;stroke-linecap:butt;stroke-width:0.5;" x="54.0" xlink:href="#me8a85f7bf6" y="161.791720723"/>
      </g>
     </g>
     <g id="line2d_43">
      <g>
       <use style="stroke:#000000;stroke-linecap:butt;stroke-width:0.5;" x="388.8" xlink:href="#m1a32005dea" y="161.791720723"/>
      </g>
     </g>
     <g id="text_14">
      <!-- 1.5 -->
      <g transform="translate(36.06875 165.365939473)scale(0.1 -0.1)">
       <use xlink:href="#DejaVuSans-31"/>
       <use x="63.623046875" xlink:href="#DejaVuSans-2e"/>
       <use x="95.41015625" xlink:href="#DejaVuSans-35"/>
      </g>
     </g>
    </g>
    <g id="ytick_5">
     <g id="line2d_44">
      <path clip-path="url(#p124b8dd147)" d="
M54 131.722
L388.8 131.722" style="fill:none;stroke:#000000;stroke-dasharray:1.000000,3.000000;stroke-dashoffset:0.0;stroke-linecap:butt;stroke-width:0.5;"/>
     </g>
     <g id="line2d_45">
      <g>
       <use style="stroke:#000000;stroke-linecap:butt;stroke-width:0.5;" x="54.0" xlink:href="#me8a85f7bf6" y="131.722294297"/>
      </g>
     </g>
     <g id="line2d_46">
      <g>
       <use style="stroke:#000000;stroke-linecap:butt;stroke-width:0.5;" x="388.8" xlink:href="#m1a32005dea" y="131.722294297"/>
      </g>
     </g>
     <g id="text_15">
      <!-- 2.0 -->
      <g transform="translate(35.49375 135.362138047)scale(0.1 -0.1)">
       <use xlink:href="#DejaVuSans-32"/>
       <use x="63.623046875" xlink:href="#DejaVuSans-2e"/>
       <use x="95.41015625" xlink:href="#DejaVuSans-30"/>
      </g>
     </g>
    </g>
    <g id="ytick_6">
     <g id="line2d_47">
      <path clip-path="url(#p124b8dd147)" d="
M54 101.653
L388.8 101.653" style="fill:none;stroke:#000000;stroke-dasharray:1.000000,3.000000;stroke-dashoffset:0.0;stroke-linecap:butt;stroke-width:0.5;"/>
     </g>
     <g id="line2d_48">
      <g>
       <use style="stroke:#000000;stroke-linecap:butt;stroke-width:0.5;" x="54.0" xlink:href="#me8a85f7bf6" y="101.652867872"/>
      </g>
     </g>
     <g id="line2d_49">
      <g>
       <use style="stroke:#000000;stroke-linecap:butt;stroke-width:0.5;" x="388.8" xlink:href="#m1a32005dea" y="101.652867872"/>
      </g>
     </g>
     <g id="text_16">
      <!-- 2.5 -->
      <g transform="translate(35.703125 105.292711622)scale(0.1 -0.1)">
       <use xlink:href="#DejaVuSans-32"/>
       <use x="63.623046875" xlink:href="#DejaVuSans-2e"/>
       <use x="95.41015625" xlink:href="#DejaVuSans-35"/>
      </g>
     </g>
    </g>
    <g id="ytick_7">
     <g id="line2d_50">
      <path clip-path="url(#p124b8dd147)" d="
M54 71.5834
L388.8 71.5834" style="fill:none;stroke:#000000;stroke-dasharray:1.000000,3.000000;stroke-dashoffset:0.0;stroke-linecap:butt;stroke-width:0.5;"/>
     </g>
     <g id="line2d_51">
      <g>
       <use style="stroke:#000000;stroke-linecap:butt;stroke-width:0.5;" x="54.0" xlink:href="#me8a85f7bf6" y="71.5834414459"/>
      </g>
     </g>
     <g id="line2d_52">
      <g>
       <use style="stroke:#000000;stroke-linecap:butt;stroke-width:0.5;" x="388.8" xlink:href="#m1a32005dea" y="71.5834414459"/>
      </g>
     </g>
     <g id="text_17">
      <!-- 3.0 -->
      <g transform="translate(35.5234375 75.2232851959)scale(0.1 -0.1)">
       <use xlink:href="#DejaVuSans-33"/>
       <use x="63.623046875" xlink:href="#DejaVuSans-2e"/>
       <use x="95.41015625" xlink:href="#DejaVuSans-30"/>
      </g>
     </g>
    </g>
    <g id="ytick_8">
     <g id="line2d_53">
      <path clip-path="url(#p124b8dd147)" d="
M54 41.514
L388.8 41.514" style="fill:none;stroke:#000000;stroke-dasharray:1.000000,3.000000;stroke-dashoffset:0.0;stroke-linecap:butt;stroke-width:0.5;"/>
     </g>
     <g id="line2d_54">
      <g>
       <use style="stroke:#000000;stroke-linecap:butt;stroke-width:0.5;" x="54.0" xlink:href="#me8a85f7bf6" y="41.5140150202"/>
      </g>
     </g>
     <g id="line2d_55">
      <g>
       <use style="stroke:#000000;stroke-linecap:butt;stroke-width:0.5;" x="388.8" xlink:href="#m1a32005dea" y="41.5140150202"/>
      </g>
     </g>
     <g id="text_18">
      <!-- 3.5 -->
      <g transform="translate(35.7328125 45.1538587702)scale(0.1 -0.1)">
       <use xlink:href="#DejaVuSans-33"/>
       <use x="63.623046875" xlink:href="#DejaVuSans-2e"/>
       <use x="95.41015625" xlink:href="#DejaVuSans-35"/>
      </g>
     </g>
    </g>
   </g>
   <g id="patch_3">
    <path d="
M54 28.8
L388.8 28.8" style="fill:none;stroke:#000000;"/>
   </g>
   <g id="patch_4">
    <path d="
M388.8 252
L388.8 28.8" style="fill:none;stroke:#000000;"/>
   </g>
   <g id="patch_5">
    <path d="
M54 252
L388.8 252" style="fill:none;stroke:#000000;"/>
   </g>
   <g id="patch_6">
    <path d="
M54 252
L54 28.8" style="fill:none;stroke:#000000;"/>
   </g>
  </g>
 </g>
 <defs>
  <clipPath id="p124b8dd147">
   <rect height="223.2" width="334.8" x="54.0" y="28.8"/>
  </clipPath>
 </defs>
</svg>
