<?xml version="1.0" encoding="utf-8" standalone="no"?>
<!DOCTYPE svg PUBLIC "-//W3C//DTD SVG 1.1//EN"
  "http://www.w3.org/Graphics/SVG/1.1/DTD/svg11.dtd">
<!-- Created with matplotlib (http://matplotlib.sourceforge.net/) -->
<svg height="288pt" version="1.1" viewBox="0 0 432 288" width="432pt" xmlns="http://www.w3.org/2000/svg" xmlns:xlink="http://www.w3.org/1999/xlink">
 <defs>
  <style type="text/css">
*{stroke-linecap:square;stroke-linejoin:round;}
  </style>
 </defs>
 <g id="figure_1">
  <g id="patch_1">
   <path d="
M0 288
L432 288
L432 0
L0 0
z
" style="fill:#ffffff;"/>
  </g>
  <g id="axes_1">
   <g id="patch_2">
    <path d="
M54 252
L388.8 252
L388.8 28.8
L54 28.8
z
" style="fill:#ffffff;"/>
   </g>
   <g id="line2d_1">
    <path clip-path="url(#p124b8dd147)" d="
M55.2053 249.046
L55.4731 248.755
L58.0176 248.149
L60.5621 247.884
L64.3118 248.74
L64.7136 248.988
L65.785 248.783
L65.785 248.922
L66.7224 248.272
L66.8563 248.81
L66.9902 248.61
L72.481 247.944
L72.481 248.326
L76.3646 247.79
L76.9003 247.889
L82.7928 247.085
L84.6677 246.989
L88.2835 247.153
L88.2835 247.316
L90.4262 246.642
L90.828 246.529
L91.6315 246.07
L92.0333 246.806
L92.1672 246.847
L92.1672 246.983
L92.1672 246.804
L93.9082 245.924
L95.6491 245.647
L96.5866 245.81
L96.7205 246.367
L100.336 245.62
L106.095 245.034
L112.523 242.995
L113.46 244.582
L118.416 206.029
L124.71 243.627
L128.46 243.085
L136.763 242.634
L138.102 242.54
L176.939 162.531
L177.206 162.868
L194.482 237.138
L194.482 238.153
L202.517 147.493
L205.731 236.451
L207.338 236.123
L240.551 122.647
L252.068 116.536
L252.202 104.059
L252.603 105.57
L255.684 113.156
L269.879 107.827
L273.495 231.39
L285.816 88.744
L287.958 83.3744
L323.581 55.7239
L336.303 55.5644
L340.187 54.7985
L342.732 49.0909
L342.999 50.6393" style="fill:none;stroke:#0000ff;"/>
    <defs>
     <path d="
M0 1.5
C0.397805 1.5 0.77937 1.34195 1.06066 1.06066
C1.34195 0.77937 1.5 0.397805 1.5 0
C1.5 -0.397805 1.34195 -0.77937 1.06066 -1.06066
C0.77937 -1.34195 0.397805 -1.5 0 -1.5
C-0.397805 -1.5 -0.77937 -1.34195 -1.06066 -1.06066
C-1.34195 -0.77937 -1.5 -0.397805 -1.5 0
C-1.5 0.397805 -1.34195 0.77937 -1.06066 1.06066
C-0.77937 1.34195 -0.397805 1.5 0 1.5
z
" id="m60516ac18e" style="stroke:#0000ff;stroke-linecap:butt;stroke-width:0.5;"/>
    </defs>
    <g clip-path="url(#p124b8dd147)">
     <use style="fill:#0000ff;stroke:#0000ff;stroke-linecap:butt;stroke-width:0.5;" x="55.20528" xlink:href="#m60516ac18e" y="249.045709009"/>
     <use style="fill:#0000ff;stroke:#0000ff;stroke-linecap:butt;stroke-width:0.5;" x="55.47312" xlink:href="#m60516ac18e" y="248.755256536"/>
     <use style="fill:#0000ff;stroke:#0000ff;stroke-linecap:butt;stroke-width:0.5;" x="58.0176" xlink:href="#m60516ac18e" y="248.149105979"/>
     <use style="fill:#0000ff;stroke:#0000ff;stroke-linecap:butt;stroke-width:0.5;" x="60.56208" xlink:href="#m60516ac18e" y="247.883600606"/>
     <use style="fill:#0000ff;stroke:#0000ff;stroke-linecap:butt;stroke-width:0.5;" x="64.31184" xlink:href="#m60516ac18e" y="248.739904475"/>
     <use style="fill:#0000ff;stroke:#0000ff;stroke-linecap:butt;stroke-width:0.5;" x="64.7136" xlink:href="#m60516ac18e" y="248.987840266"/>
     <use style="fill:#0000ff;stroke:#0000ff;stroke-linecap:butt;stroke-width:0.5;" x="65.78496" xlink:href="#m60516ac18e" y="248.783188759"/>
     <use style="fill:#0000ff;stroke:#0000ff;stroke-linecap:butt;stroke-width:0.5;" x="65.78496" xlink:href="#m60516ac18e" y="248.922210204"/>
     <use style="fill:#0000ff;stroke:#0000ff;stroke-linecap:butt;stroke-width:0.5;" x="66.7224" xlink:href="#m60516ac18e" y="248.272135693"/>
     <use style="fill:#0000ff;stroke:#0000ff;stroke-linecap:butt;stroke-width:0.5;" x="66.85632" xlink:href="#m60516ac18e" y="248.810438668"/>
     <use style="fill:#0000ff;stroke:#0000ff;stroke-linecap:butt;stroke-width:0.5;" x="66.99024" xlink:href="#m60516ac18e" y="248.610136912"/>
     <use style="fill:#0000ff;stroke:#0000ff;stroke-linecap:butt;stroke-width:0.5;" x="72.48096" xlink:href="#m60516ac18e" y="247.943558935"/>
     <use style="fill:#0000ff;stroke:#0000ff;stroke-linecap:butt;stroke-width:0.5;" x="72.48096" xlink:href="#m60516ac18e" y="248.326464933"/>
     <use style="fill:#0000ff;stroke:#0000ff;stroke-linecap:butt;stroke-width:0.5;" x="76.36464" xlink:href="#m60516ac18e" y="247.789953032"/>
     <use style="fill:#0000ff;stroke:#0000ff;stroke-linecap:butt;stroke-width:0.5;" x="76.90032" xlink:href="#m60516ac18e" y="247.889400274"/>
     <use style="fill:#0000ff;stroke:#0000ff;stroke-linecap:butt;stroke-width:0.5;" x="82.7928" xlink:href="#m60516ac18e" y="247.084994902"/>
     <use style="fill:#0000ff;stroke:#0000ff;stroke-linecap:butt;stroke-width:0.5;" x="84.66768" xlink:href="#m60516ac18e" y="246.989129807"/>
     <use style="fill:#0000ff;stroke:#0000ff;stroke-linecap:butt;stroke-width:0.5;" x="88.28352" xlink:href="#m60516ac18e" y="247.15326893"/>
     <use style="fill:#0000ff;stroke:#0000ff;stroke-linecap:butt;stroke-width:0.5;" x="88.28352" xlink:href="#m60516ac18e" y="247.316214004"/>
     <use style="fill:#0000ff;stroke:#0000ff;stroke-linecap:butt;stroke-width:0.5;" x="90.42624" xlink:href="#m60516ac18e" y="246.642258509"/>
     <use style="fill:#0000ff;stroke:#0000ff;stroke-linecap:butt;stroke-width:0.5;" x="90.828" xlink:href="#m60516ac18e" y="246.528781189"/>
     <use style="fill:#0000ff;stroke:#0000ff;stroke-linecap:butt;stroke-width:0.5;" x="91.63152" xlink:href="#m60516ac18e" y="246.070180999"/>
     <use style="fill:#0000ff;stroke:#0000ff;stroke-linecap:butt;stroke-width:0.5;" x="92.03328" xlink:href="#m60516ac18e" y="246.806269698"/>
     <use style="fill:#0000ff;stroke:#0000ff;stroke-linecap:butt;stroke-width:0.5;" x="92.1672" xlink:href="#m60516ac18e" y="246.846910016"/>
     <use style="fill:#0000ff;stroke:#0000ff;stroke-linecap:butt;stroke-width:0.5;" x="92.1672" xlink:href="#m60516ac18e" y="246.983159561"/>
     <use style="fill:#0000ff;stroke:#0000ff;stroke-linecap:butt;stroke-width:0.5;" x="92.1672" xlink:href="#m60516ac18e" y="246.80443598"/>
     <use style="fill:#0000ff;stroke:#0000ff;stroke-linecap:butt;stroke-width:0.5;" x="93.90816" xlink:href="#m60516ac18e" y="245.924123193"/>
     <use style="fill:#0000ff;stroke:#0000ff;stroke-linecap:butt;stroke-width:0.5;" x="95.64912" xlink:href="#m60516ac18e" y="245.646549394"/>
     <use style="fill:#0000ff;stroke:#0000ff;stroke-linecap:butt;stroke-width:0.5;" x="96.58656" xlink:href="#m60516ac18e" y="245.809920914"/>
     <use style="fill:#0000ff;stroke:#0000ff;stroke-linecap:butt;stroke-width:0.5;" x="96.72048" xlink:href="#m60516ac18e" y="246.366561073"/>
     <use style="fill:#0000ff;stroke:#0000ff;stroke-linecap:butt;stroke-width:0.5;" x="100.33632" xlink:href="#m60516ac18e" y="245.620109733"/>
     <use style="fill:#0000ff;stroke:#0000ff;stroke-linecap:butt;stroke-width:0.5;" x="106.09488" xlink:href="#m60516ac18e" y="245.034002145"/>
     <use style="fill:#0000ff;stroke:#0000ff;stroke-linecap:butt;stroke-width:0.5;" x="112.52304" xlink:href="#m60516ac18e" y="242.99494988"/>
     <use style="fill:#0000ff;stroke:#0000ff;stroke-linecap:butt;stroke-width:0.5;" x="113.46048" xlink:href="#m60516ac18e" y="244.581500136"/>
     <use style="fill:#0000ff;stroke:#0000ff;stroke-linecap:butt;stroke-width:0.5;" x="118.41552" xlink:href="#m60516ac18e" y="206.029105064"/>
     <use style="fill:#0000ff;stroke:#0000ff;stroke-linecap:butt;stroke-width:0.5;" x="124.70976" xlink:href="#m60516ac18e" y="243.627284231"/>
     <use style="fill:#0000ff;stroke:#0000ff;stroke-linecap:butt;stroke-width:0.5;" x="128.45952" xlink:href="#m60516ac18e" y="243.085271175"/>
     <use style="fill:#0000ff;stroke:#0000ff;stroke-linecap:butt;stroke-width:0.5;" x="136.76256" xlink:href="#m60516ac18e" y="242.634347016"/>
     <use style="fill:#0000ff;stroke:#0000ff;stroke-linecap:butt;stroke-width:0.5;" x="138.10176" xlink:href="#m60516ac18e" y="242.540272995"/>
     <use style="fill:#0000ff;stroke:#0000ff;stroke-linecap:butt;stroke-width:0.5;" x="176.93856" xlink:href="#m60516ac18e" y="162.531341929"/>
     <use style="fill:#0000ff;stroke:#0000ff;stroke-linecap:butt;stroke-width:0.5;" x="177.2064" xlink:href="#m60516ac18e" y="162.868106454"/>
     <use style="fill:#0000ff;stroke:#0000ff;stroke-linecap:butt;stroke-width:0.5;" x="194.48208" xlink:href="#m60516ac18e" y="237.138181105"/>
     <use style="fill:#0000ff;stroke:#0000ff;stroke-linecap:butt;stroke-width:0.5;" x="194.48208" xlink:href="#m60516ac18e" y="238.152653851"/>
     <use style="fill:#0000ff;stroke:#0000ff;stroke-linecap:butt;stroke-width:0.5;" x="202.51728" xlink:href="#m60516ac18e" y="147.492889039"/>
     <use style="fill:#0000ff;stroke:#0000ff;stroke-linecap:butt;stroke-width:0.5;" x="205.73136" xlink:href="#m60516ac18e" y="236.450579333"/>
     <use style="fill:#0000ff;stroke:#0000ff;stroke-linecap:butt;stroke-width:0.5;" x="207.3384" xlink:href="#m60516ac18e" y="236.123495137"/>
     <use style="fill:#0000ff;stroke:#0000ff;stroke-linecap:butt;stroke-width:0.5;" x="240.55056" xlink:href="#m60516ac18e" y="122.647112888"/>
     <use style="fill:#0000ff;stroke:#0000ff;stroke-linecap:butt;stroke-width:0.5;" x="252.06768" xlink:href="#m60516ac18e" y="116.535798406"/>
     <use style="fill:#0000ff;stroke:#0000ff;stroke-linecap:butt;stroke-width:0.5;" x="252.2016" xlink:href="#m60516ac18e" y="104.059433983"/>
     <use style="fill:#0000ff;stroke:#0000ff;stroke-linecap:butt;stroke-width:0.5;" x="252.60336" xlink:href="#m60516ac18e" y="105.569693022"/>
     <use style="fill:#0000ff;stroke:#0000ff;stroke-linecap:butt;stroke-width:0.5;" x="255.68352" xlink:href="#m60516ac18e" y="113.156084736"/>
     <use style="fill:#0000ff;stroke:#0000ff;stroke-linecap:butt;stroke-width:0.5;" x="269.87904" xlink:href="#m60516ac18e" y="107.82712836"/>
     <use style="fill:#0000ff;stroke:#0000ff;stroke-linecap:butt;stroke-width:0.5;" x="273.49488" xlink:href="#m60516ac18e" y="231.389772297"/>
     <use style="fill:#0000ff;stroke:#0000ff;stroke-linecap:butt;stroke-width:0.5;" x="285.81552" xlink:href="#m60516ac18e" y="88.744004319"/>
     <use style="fill:#0000ff;stroke:#0000ff;stroke-linecap:butt;stroke-width:0.5;" x="287.95824" xlink:href="#m60516ac18e" y="83.3744076253"/>
     <use style="fill:#0000ff;stroke:#0000ff;stroke-linecap:butt;stroke-width:0.5;" x="323.58096" xlink:href="#m60516ac18e" y="55.7238525031"/>
     <use style="fill:#0000ff;stroke:#0000ff;stroke-linecap:butt;stroke-width:0.5;" x="336.30336" xlink:href="#m60516ac18e" y="55.5644042877"/>
     <use style="fill:#0000ff;stroke:#0000ff;stroke-linecap:butt;stroke-width:0.5;" x="340.18704" xlink:href="#m60516ac18e" y="54.7985496475"/>
     <use style="fill:#0000ff;stroke:#0000ff;stroke-linecap:butt;stroke-width:0.5;" x="342.73152" xlink:href="#m60516ac18e" y="49.0909090909"/>
     <use style="fill:#0000ff;stroke:#0000ff;stroke-linecap:butt;stroke-width:0.5;" x="342.99936" xlink:href="#m60516ac18e" y="50.6393350604"/>
    </g>
   </g>
   <g id="line2d_2">
    <path clip-path="url(#p124b8dd147)" d="
M55.2053 269.477
L55.4731 269.296
L58.0176 267.58
L60.5621 265.864
L64.3118 263.336
L64.7136 263.065
L65.785 262.342
L65.785 262.342
L66.7224 261.71
L66.8563 261.62
L66.9902 261.529
L72.481 257.827
L72.481 257.827
L76.3646 255.208
L76.9003 254.846
L82.7928 250.873
L84.6677 249.608
L88.2835 247.17
L88.2835 247.17
L90.4262 245.725
L90.828 245.454
L91.6315 244.912
L92.0333 244.641
L92.1672 244.551
L92.1672 244.551
L92.1672 244.551
L93.9082 243.377
L95.6491 242.203
L96.5866 241.571
L96.7205 241.48
L100.336 239.042
L106.095 235.159
L112.523 230.824
L113.46 230.192
L118.416 226.85
L124.71 222.606
L128.46 220.077
L136.763 214.478
L138.102 213.575
L176.939 187.385
L177.206 187.204
L194.482 175.554
L194.482 175.554
L202.517 170.135
L205.731 167.968
L207.338 166.884
L240.551 144.487
L252.068 136.721
L252.202 136.63
L252.603 136.359
L255.684 134.282
L269.879 124.709
L273.495 122.271
L285.816 113.962
L287.958 112.518
L323.581 88.495
L336.303 79.9155
L340.187 77.2965
L342.732 75.5806
L342.999 75.4" style="fill:none;stroke:#ff0000;"/>
   </g>
   <g id="matplotlib.axis_1">
    <g id="xtick_1">
     <g id="line2d_3">
      <path clip-path="url(#p124b8dd147)" d="
M54 252
L54 28.8" style="fill:none;stroke:#000000;stroke-dasharray:1.000000,3.000000;stroke-dashoffset:0.0;stroke-linecap:butt;stroke-width:0.5;"/>
     </g>
     <g id="line2d_4">
      <defs>
       <path d="
M0 0
L0 -4" id="m0012dd4eef" style="stroke:#000000;stroke-linecap:butt;stroke-width:0.5;"/>
      </defs>
      <g>
       <use style="stroke:#000000;stroke-linecap:butt;stroke-width:0.5;" x="54.0" xlink:href="#m0012dd4eef" y="252.0"/>
      </g>
     </g>
     <g id="line2d_5">
      <defs>
       <path d="
M0 0
L0 4" id="m476344969c" style="stroke:#000000;stroke-linecap:butt;stroke-width:0.5;"/>
      </defs>
      <g>
       <use style="stroke:#000000;stroke-linecap:butt;stroke-width:0.5;" x="54.0" xlink:href="#m476344969c" y="28.8"/>
      </g>
     </g>
     <g id="text_1">
      <!-- 0 -->
      <defs>
       <path d="
M31.7812 66.4062
Q24.1719 66.4062 20.3281 58.9062
Q16.5 51.4219 16.5 36.375
Q16.5 21.3906 20.3281 13.8906
Q24.1719 6.39062 31.7812 6.39062
Q39.4531 6.39062 43.2812 13.8906
Q47.125 21.3906 47.125 36.375
Q47.125 51.4219 43.2812 58.9062
Q39.4531 66.4062 31.7812 66.4062
M31.7812 74.2188
Q44.0469 74.2188 50.5156 64.5156
Q56.9844 54.8281 56.9844 36.375
Q56.9844 17.9688 50.5156 8.26562
Q44.0469 -1.42188 31.7812 -1.42188
Q19.5312 -1.42188 13.0625 8.26562
Q6.59375 17.9688 6.59375 36.375
Q6.59375 54.8281 13.0625 64.5156
Q19.5312 74.2188 31.7812 74.2188" id="DejaVuSans-30"/>
      </defs>
      <g transform="translate(51.48046875 263.421875)scale(0.1 -0.1)">
       <use xlink:href="#DejaVuSans-30"/>
      </g>
     </g>
    </g>
    <g id="xtick_2">
     <g id="line2d_6">
      <path clip-path="url(#p124b8dd147)" d="
M120.96 252
L120.96 28.8" style="fill:none;stroke:#000000;stroke-dasharray:1.000000,3.000000;stroke-dashoffset:0.0;stroke-linecap:butt;stroke-width:0.5;"/>
     </g>
     <g id="line2d_7">
      <g>
       <use style="stroke:#000000;stroke-linecap:butt;stroke-width:0.5;" x="120.96" xlink:href="#m0012dd4eef" y="252.0"/>
      </g>
     </g>
     <g id="line2d_8">
      <g>
       <use style="stroke:#000000;stroke-linecap:butt;stroke-width:0.5;" x="120.96" xlink:href="#m476344969c" y="28.8"/>
      </g>
     </g>
     <g id="text_2">
      <!-- 500 -->
      <defs>
       <path d="
M10.7969 72.9062
L49.5156 72.9062
L49.5156 64.5938
L19.8281 64.5938
L19.8281 46.7344
Q21.9688 47.4688 24.1094 47.8281
Q26.2656 48.1875 28.4219 48.1875
Q40.625 48.1875 47.75 41.5
Q54.8906 34.8125 54.8906 23.3906
Q54.8906 11.625 47.5625 5.09375
Q40.2344 -1.42188 26.9062 -1.42188
Q22.3125 -1.42188 17.5469 -0.640625
Q12.7969 0.140625 7.71875 1.70312
L7.71875 11.625
Q12.1094 9.23438 16.7969 8.0625
Q21.4844 6.89062 26.7031 6.89062
Q35.1562 6.89062 40.0781 11.3281
Q45.0156 15.7656 45.0156 23.3906
Q45.0156 31 40.0781 35.4375
Q35.1562 39.8906 26.7031 39.8906
Q22.75 39.8906 18.8125 39.0156
Q14.8906 38.1406 10.7969 36.2812
z
" id="DejaVuSans-35"/>
      </defs>
      <g transform="translate(112.13421875 263.421875)scale(0.1 -0.1)">
       <use xlink:href="#DejaVuSans-35"/>
       <use x="63.623046875" xlink:href="#DejaVuSans-30"/>
       <use x="127.24609375" xlink:href="#DejaVuSans-30"/>
      </g>
     </g>
    </g>
    <g id="xtick_3">
     <g id="line2d_9">
      <path clip-path="url(#p124b8dd147)" d="
M187.92 252
L187.92 28.8" style="fill:none;stroke:#000000;stroke-dasharray:1.000000,3.000000;stroke-dashoffset:0.0;stroke-linecap:butt;stroke-width:0.5;"/>
     </g>
     <g id="line2d_10">
      <g>
       <use style="stroke:#000000;stroke-linecap:butt;stroke-width:0.5;" x="187.92" xlink:href="#m0012dd4eef" y="252.0"/>
      </g>
     </g>
     <g id="line2d_11">
      <g>
       <use style="stroke:#000000;stroke-linecap:butt;stroke-width:0.5;" x="187.92" xlink:href="#m476344969c" y="28.8"/>
      </g>
     </g>
     <g id="text_3">
      <!-- 1000 -->
      <defs>
       <path d="
M12.4062 8.29688
L28.5156 8.29688
L28.5156 63.9219
L10.9844 60.4062
L10.9844 69.3906
L28.4219 72.9062
L38.2812 72.9062
L38.2812 8.29688
L54.3906 8.29688
L54.3906 0
L12.4062 0
z
" id="DejaVuSans-31"/>
      </defs>
      <g transform="translate(176.07625 263.421875)scale(0.1 -0.1)">
       <use xlink:href="#DejaVuSans-31"/>
       <use x="63.623046875" xlink:href="#DejaVuSans-30"/>
       <use x="127.24609375" xlink:href="#DejaVuSans-30"/>
       <use x="190.869140625" xlink:href="#DejaVuSans-30"/>
      </g>
     </g>
    </g>
    <g id="xtick_4">
     <g id="line2d_12">
      <path clip-path="url(#p124b8dd147)" d="
M254.88 252
L254.88 28.8" style="fill:none;stroke:#000000;stroke-dasharray:1.000000,3.000000;stroke-dashoffset:0.0;stroke-linecap:butt;stroke-width:0.5;"/>
     </g>
     <g id="line2d_13">
      <g>
       <use style="stroke:#000000;stroke-linecap:butt;stroke-width:0.5;" x="254.88" xlink:href="#m0012dd4eef" y="252.0"/>
      </g>
     </g>
     <g id="line2d_14">
      <g>
       <use style="stroke:#000000;stroke-linecap:butt;stroke-width:0.5;" x="254.88" xlink:href="#m476344969c" y="28.8"/>
      </g>
     </g>
     <g id="text_4">
      <!-- 1500 -->
      <g transform="translate(243.03625 263.421875)scale(0.1 -0.1)">
       <use xlink:href="#DejaVuSans-31"/>
       <use x="63.623046875" xlink:href="#DejaVuSans-35"/>
       <use x="127.24609375" xlink:href="#DejaVuSans-30"/>
       <use x="190.869140625" xlink:href="#DejaVuSans-30"/>
      </g>
     </g>
    </g>
    <g id="xtick_5">
     <g id="line2d_15">
      <path clip-path="url(#p124b8dd147)" d="
M321.84 252
L321.84 28.8" style="fill:none;stroke:#000000;stroke-dasharray:1.000000,3.000000;stroke-dashoffset:0.0;stroke-linecap:butt;stroke-width:0.5;"/>
     </g>
     <g id="line2d_16">
      <g>
       <use style="stroke:#000000;stroke-linecap:butt;stroke-width:0.5;" x="321.84" xlink:href="#m0012dd4eef" y="252.0"/>
      </g>
     </g>
     <g id="line2d_17">
      <g>
       <use style="stroke:#000000;stroke-linecap:butt;stroke-width:0.5;" x="321.84" xlink:href="#m476344969c" y="28.8"/>
      </g>
     </g>
     <g id="text_5">
      <!-- 2000 -->
      <defs>
       <path d="
M19.1875 8.29688
L53.6094 8.29688
L53.6094 0
L7.32812 0
L7.32812 8.29688
Q12.9375 14.1094 22.625 23.8906
Q32.3281 33.6875 34.8125 36.5312
Q39.5469 41.8438 41.4219 45.5312
Q43.3125 49.2188 43.3125 52.7812
Q43.3125 58.5938 39.2344 62.25
Q35.1562 65.9219 28.6094 65.9219
Q23.9688 65.9219 18.8125 64.3125
Q13.6719 62.7031 7.8125 59.4219
L7.8125 69.3906
Q13.7656 71.7812 18.9375 73
Q24.125 74.2188 28.4219 74.2188
Q39.75 74.2188 46.4844 68.5469
Q53.2188 62.8906 53.2188 53.4219
Q53.2188 48.9219 51.5312 44.8906
Q49.8594 40.875 45.4062 35.4062
Q44.1875 33.9844 37.6406 27.2188
Q31.1094 20.4531 19.1875 8.29688" id="DejaVuSans-32"/>
      </defs>
      <g transform="translate(309.8134375 263.421875)scale(0.1 -0.1)">
       <use xlink:href="#DejaVuSans-32"/>
       <use x="63.623046875" xlink:href="#DejaVuSans-30"/>
       <use x="127.24609375" xlink:href="#DejaVuSans-30"/>
       <use x="190.869140625" xlink:href="#DejaVuSans-30"/>
      </g>
     </g>
    </g>
    <g id="xtick_6">
     <g id="line2d_18">
      <path clip-path="url(#p124b8dd147)" d="
M388.8 252
L388.8 28.8" style="fill:none;stroke:#000000;stroke-dasharray:1.000000,3.000000;stroke-dashoffset:0.0;stroke-linecap:butt;stroke-width:0.5;"/>
     </g>
     <g id="line2d_19">
      <g>
       <use style="stroke:#000000;stroke-linecap:butt;stroke-width:0.5;" x="388.8" xlink:href="#m0012dd4eef" y="252.0"/>
      </g>
     </g>
     <g id="line2d_20">
      <g>
       <use style="stroke:#000000;stroke-linecap:butt;stroke-width:0.5;" x="388.8" xlink:href="#m476344969c" y="28.8"/>
      </g>
     </g>
     <g id="text_6">
      <!-- 2500 -->
      <g transform="translate(376.7734375 263.421875)scale(0.1 -0.1)">
       <use xlink:href="#DejaVuSans-32"/>
       <use x="63.623046875" xlink:href="#DejaVuSans-35"/>
       <use x="127.24609375" xlink:href="#DejaVuSans-30"/>
       <use x="190.869140625" xlink:href="#DejaVuSans-30"/>
      </g>
     </g>
    </g>
    <g id="text_7">
     <!-- Delivery Transactions (in tausends) -->
     <defs>
      <path d="
M-0.296875 72.9062
L61.375 72.9062
L61.375 64.5938
L35.5 64.5938
L35.5 0
L25.5938 0
L25.5938 64.5938
L-0.296875 64.5938
z
" id="DejaVuSans-54"/>
      <path d="
M2.98438 54.6875
L12.5 54.6875
L29.5938 8.79688
L46.6875 54.6875
L56.2031 54.6875
L35.6875 0
L23.4844 0
z
" id="DejaVuSans-76"/>
      <path d="
M8.01562 75.875
L15.8281 75.875
Q23.1406 64.3594 26.7812 53.3125
Q30.4219 42.2812 30.4219 31.3906
Q30.4219 20.4531 26.7812 9.375
Q23.1406 -1.70312 15.8281 -13.1875
L8.01562 -13.1875
Q14.5 -2 17.7031 9.0625
Q20.9062 20.125 20.9062 31.3906
Q20.9062 42.6719 17.7031 53.6562
Q14.5 64.6562 8.01562 75.875" id="DejaVuSans-29"/>
      <path d="
M30.6094 48.3906
Q23.3906 48.3906 19.1875 42.75
Q14.9844 37.1094 14.9844 27.2969
Q14.9844 17.4844 19.1562 11.8438
Q23.3438 6.20312 30.6094 6.20312
Q37.7969 6.20312 41.9844 11.8594
Q46.1875 17.5312 46.1875 27.2969
Q46.1875 37.0156 41.9844 42.7031
Q37.7969 48.3906 30.6094 48.3906
M30.6094 56
Q42.3281 56 49.0156 48.375
Q55.7188 40.7656 55.7188 27.2969
Q55.7188 13.875 49.0156 6.21875
Q42.3281 -1.42188 30.6094 -1.42188
Q18.8438 -1.42188 12.1719 6.21875
Q5.51562 13.875 5.51562 27.2969
Q5.51562 40.7656 12.1719 48.375
Q18.8438 56 30.6094 56" id="DejaVuSans-6f"/>
      <path d="
M54.8906 33.0156
L54.8906 0
L45.9062 0
L45.9062 32.7188
Q45.9062 40.4844 42.875 44.3281
Q39.8438 48.1875 33.7969 48.1875
Q26.5156 48.1875 22.3125 43.5469
Q18.1094 38.9219 18.1094 30.9062
L18.1094 0
L9.07812 0
L9.07812 54.6875
L18.1094 54.6875
L18.1094 46.1875
Q21.3438 51.125 25.7031 53.5625
Q30.0781 56 35.7969 56
Q45.2188 56 50.0469 50.1719
Q54.8906 44.3438 54.8906 33.0156" id="DejaVuSans-6e"/>
      <path d="
M9.42188 75.9844
L18.4062 75.9844
L18.4062 0
L9.42188 0
z
" id="DejaVuSans-6c"/>
      <path d="
M45.4062 46.3906
L45.4062 75.9844
L54.3906 75.9844
L54.3906 0
L45.4062 0
L45.4062 8.20312
Q42.5781 3.32812 38.25 0.953125
Q33.9375 -1.42188 27.875 -1.42188
Q17.9688 -1.42188 11.7344 6.48438
Q5.51562 14.4062 5.51562 27.2969
Q5.51562 40.1875 11.7344 48.0938
Q17.9688 56 27.875 56
Q33.9375 56 38.25 53.625
Q42.5781 51.2656 45.4062 46.3906
M14.7969 27.2969
Q14.7969 17.3906 18.875 11.75
Q22.9531 6.10938 30.0781 6.10938
Q37.2031 6.10938 41.2969 11.75
Q45.4062 17.3906 45.4062 27.2969
Q45.4062 37.2031 41.2969 42.8438
Q37.2031 48.4844 30.0781 48.4844
Q22.9531 48.4844 18.875 42.8438
Q14.7969 37.2031 14.7969 27.2969" id="DejaVuSans-64"/>
      <path d="
M19.6719 64.7969
L19.6719 8.10938
L31.5938 8.10938
Q46.6875 8.10938 53.6875 14.9375
Q60.6875 21.7812 60.6875 36.5312
Q60.6875 51.1719 53.6875 57.9844
Q46.6875 64.7969 31.5938 64.7969
z

M9.8125 72.9062
L30.0781 72.9062
Q51.2656 72.9062 61.1719 64.0938
Q71.0938 55.2812 71.0938 36.5312
Q71.0938 17.6719 61.125 8.82812
Q51.1719 0 30.0781 0
L9.8125 0
z
" id="DejaVuSans-44"/>
      <path id="DejaVuSans-20"/>
      <path d="
M32.1719 -5.07812
Q28.375 -14.8438 24.75 -17.8125
Q21.1406 -20.7969 15.0938 -20.7969
L7.90625 -20.7969
L7.90625 -13.2812
L13.1875 -13.2812
Q16.8906 -13.2812 18.9375 -11.5156
Q21 -9.76562 23.4844 -3.21875
L25.0938 0.875
L2.98438 54.6875
L12.5 54.6875
L29.5938 11.9219
L46.6875 54.6875
L56.2031 54.6875
z
" id="DejaVuSans-79"/>
      <path d="
M34.2812 27.4844
Q23.3906 27.4844 19.1875 25
Q14.9844 22.5156 14.9844 16.5
Q14.9844 11.7188 18.1406 8.90625
Q21.2969 6.10938 26.7031 6.10938
Q34.1875 6.10938 38.7031 11.4062
Q43.2188 16.7031 43.2188 25.4844
L43.2188 27.4844
z

M52.2031 31.2031
L52.2031 0
L43.2188 0
L43.2188 8.29688
Q40.1406 3.32812 35.5469 0.953125
Q30.9531 -1.42188 24.3125 -1.42188
Q15.9219 -1.42188 10.9531 3.29688
Q6 8.01562 6 15.9219
Q6 25.1406 12.1719 29.8281
Q18.3594 34.5156 30.6094 34.5156
L43.2188 34.5156
L43.2188 35.4062
Q43.2188 41.6094 39.1406 45
Q35.0625 48.3906 27.6875 48.3906
Q23 48.3906 18.5469 47.2656
Q14.1094 46.1406 10.0156 43.8906
L10.0156 52.2031
Q14.9375 54.1094 19.5781 55.0469
Q24.2188 56 28.6094 56
Q40.4844 56 46.3438 49.8438
Q52.2031 43.7031 52.2031 31.2031" id="DejaVuSans-61"/>
      <path d="
M9.42188 54.6875
L18.4062 54.6875
L18.4062 0
L9.42188 0
z

M9.42188 75.9844
L18.4062 75.9844
L18.4062 64.5938
L9.42188 64.5938
z
" id="DejaVuSans-69"/>
      <path d="
M8.5 21.5781
L8.5 54.6875
L17.4844 54.6875
L17.4844 21.9219
Q17.4844 14.1562 20.5 10.2656
Q23.5312 6.39062 29.5938 6.39062
Q36.8594 6.39062 41.0781 11.0312
Q45.3125 15.6719 45.3125 23.6875
L45.3125 54.6875
L54.2969 54.6875
L54.2969 0
L45.3125 0
L45.3125 8.40625
Q42.0469 3.42188 37.7188 1
Q33.4062 -1.42188 27.6875 -1.42188
Q18.2656 -1.42188 13.375 4.4375
Q8.5 10.2969 8.5 21.5781
M31.1094 56
z
" id="DejaVuSans-75"/>
      <path d="
M18.3125 70.2188
L18.3125 54.6875
L36.8125 54.6875
L36.8125 47.7031
L18.3125 47.7031
L18.3125 18.0156
Q18.3125 11.3281 20.1406 9.42188
Q21.9688 7.51562 27.5938 7.51562
L36.8125 7.51562
L36.8125 0
L27.5938 0
Q17.1875 0 13.2344 3.875
Q9.28125 7.76562 9.28125 18.0156
L9.28125 47.7031
L2.6875 47.7031
L2.6875 54.6875
L9.28125 54.6875
L9.28125 70.2188
z
" id="DejaVuSans-74"/>
      <path d="
M31 75.875
Q24.4688 64.6562 21.2812 53.6562
Q18.1094 42.6719 18.1094 31.3906
Q18.1094 20.125 21.3125 9.0625
Q24.5156 -2 31 -13.1875
L23.1875 -13.1875
Q15.875 -1.70312 12.2344 9.375
Q8.59375 20.4531 8.59375 31.3906
Q8.59375 42.2812 12.2031 53.3125
Q15.8281 64.3594 23.1875 75.875
z
" id="DejaVuSans-28"/>
      <path d="
M56.2031 29.5938
L56.2031 25.2031
L14.8906 25.2031
Q15.4844 15.9219 20.4844 11.0625
Q25.4844 6.20312 34.4219 6.20312
Q39.5938 6.20312 44.4531 7.46875
Q49.3125 8.73438 54.1094 11.2812
L54.1094 2.78125
Q49.2656 0.734375 44.1875 -0.34375
Q39.1094 -1.42188 33.8906 -1.42188
Q20.7969 -1.42188 13.1562 6.1875
Q5.51562 13.8125 5.51562 26.8125
Q5.51562 40.2344 12.7656 48.1094
Q20.0156 56 32.3281 56
Q43.3594 56 49.7812 48.8906
Q56.2031 41.7969 56.2031 29.5938
M47.2188 32.2344
Q47.125 39.5938 43.0938 43.9844
Q39.0625 48.3906 32.4219 48.3906
Q24.9062 48.3906 20.3906 44.1406
Q15.875 39.8906 15.1875 32.1719
z
" id="DejaVuSans-65"/>
      <path d="
M48.7812 52.5938
L48.7812 44.1875
Q44.9688 46.2969 41.1406 47.3438
Q37.3125 48.3906 33.4062 48.3906
Q24.6562 48.3906 19.8125 42.8438
Q14.9844 37.3125 14.9844 27.2969
Q14.9844 17.2812 19.8125 11.7344
Q24.6562 6.20312 33.4062 6.20312
Q37.3125 6.20312 41.1406 7.25
Q44.9688 8.29688 48.7812 10.4062
L48.7812 2.09375
Q45.0156 0.34375 40.9844 -0.53125
Q36.9688 -1.42188 32.4219 -1.42188
Q20.0625 -1.42188 12.7812 6.34375
Q5.51562 14.1094 5.51562 27.2969
Q5.51562 40.6719 12.8594 48.3281
Q20.2188 56 33.0156 56
Q37.1562 56 41.1094 55.1406
Q45.0625 54.2969 48.7812 52.5938" id="DejaVuSans-63"/>
      <path d="
M44.2812 53.0781
L44.2812 44.5781
Q40.4844 46.5312 36.375 47.5
Q32.2812 48.4844 27.875 48.4844
Q21.1875 48.4844 17.8438 46.4375
Q14.5 44.3906 14.5 40.2812
Q14.5 37.1562 16.8906 35.375
Q19.2812 33.5938 26.5156 31.9844
L29.5938 31.2969
Q39.1562 29.25 43.1875 25.5156
Q47.2188 21.7812 47.2188 15.0938
Q47.2188 7.46875 41.1875 3.01562
Q35.1562 -1.42188 24.6094 -1.42188
Q20.2188 -1.42188 15.4531 -0.5625
Q10.6875 0.296875 5.42188 2
L5.42188 11.2812
Q10.4062 8.6875 15.2344 7.39062
Q20.0625 6.10938 24.8125 6.10938
Q31.1562 6.10938 34.5625 8.28125
Q37.9844 10.4531 37.9844 14.4062
Q37.9844 18.0625 35.5156 20.0156
Q33.0625 21.9688 24.7031 23.7812
L21.5781 24.5156
Q13.2344 26.2656 9.51562 29.9062
Q5.8125 33.5469 5.8125 39.8906
Q5.8125 47.6094 11.2812 51.7969
Q16.75 56 26.8125 56
Q31.7812 56 36.1719 55.2656
Q40.5781 54.5469 44.2812 53.0781" id="DejaVuSans-73"/>
      <path d="
M41.1094 46.2969
Q39.5938 47.1719 37.8125 47.5781
Q36.0312 48 33.8906 48
Q26.2656 48 22.1875 43.0469
Q18.1094 38.0938 18.1094 28.8125
L18.1094 0
L9.07812 0
L9.07812 54.6875
L18.1094 54.6875
L18.1094 46.1875
Q20.9531 51.1719 25.4844 53.5781
Q30.0312 56 36.5312 56
Q37.4531 56 38.5781 55.875
Q39.7031 55.7656 41.0625 55.5156
z
" id="DejaVuSans-72"/>
     </defs>
     <g transform="translate(133.82109375 276.1625)scale(0.1 -0.1)">
      <use xlink:href="#DejaVuSans-44"/>
      <use x="77.001953125" xlink:href="#DejaVuSans-65"/>
      <use x="138.525390625" xlink:href="#DejaVuSans-6c"/>
      <use x="166.30859375" xlink:href="#DejaVuSans-69"/>
      <use x="194.091796875" xlink:href="#DejaVuSans-76"/>
      <use x="253.271484375" xlink:href="#DejaVuSans-65"/>
      <use x="314.794921875" xlink:href="#DejaVuSans-72"/>
      <use x="355.908203125" xlink:href="#DejaVuSans-79"/>
      <use x="415.087890625" xlink:href="#DejaVuSans-20"/>
      <use x="446.875" xlink:href="#DejaVuSans-54"/>
      <use x="493.208984375" xlink:href="#DejaVuSans-72"/>
      <use x="534.322265625" xlink:href="#DejaVuSans-61"/>
      <use x="595.6015625" xlink:href="#DejaVuSans-6e"/>
      <use x="658.98046875" xlink:href="#DejaVuSans-73"/>
      <use x="711.080078125" xlink:href="#DejaVuSans-61"/>
      <use x="772.359375" xlink:href="#DejaVuSans-63"/>
      <use x="827.33984375" xlink:href="#DejaVuSans-74"/>
      <use x="866.548828125" xlink:href="#DejaVuSans-69"/>
      <use x="894.33203125" xlink:href="#DejaVuSans-6f"/>
      <use x="955.513671875" xlink:href="#DejaVuSans-6e"/>
      <use x="1018.89257812" xlink:href="#DejaVuSans-73"/>
      <use x="1070.9921875" xlink:href="#DejaVuSans-20"/>
      <use x="1102.77929688" xlink:href="#DejaVuSans-28"/>
      <use x="1141.79296875" xlink:href="#DejaVuSans-69"/>
      <use x="1169.57617188" xlink:href="#DejaVuSans-6e"/>
      <use x="1232.95507812" xlink:href="#DejaVuSans-20"/>
      <use x="1264.7421875" xlink:href="#DejaVuSans-74"/>
      <use x="1303.95117188" xlink:href="#DejaVuSans-61"/>
      <use x="1365.23046875" xlink:href="#DejaVuSans-75"/>
      <use x="1428.609375" xlink:href="#DejaVuSans-73"/>
      <use x="1480.70898438" xlink:href="#DejaVuSans-65"/>
      <use x="1542.23242188" xlink:href="#DejaVuSans-6e"/>
      <use x="1605.61132812" xlink:href="#DejaVuSans-64"/>
      <use x="1669.08789062" xlink:href="#DejaVuSans-73"/>
      <use x="1721.1875" xlink:href="#DejaVuSans-29"/>
     </g>
    </g>
   </g>
   <g id="matplotlib.axis_2">
    <g id="ytick_1">
     <g id="line2d_21">
      <path clip-path="url(#p124b8dd147)" d="
M54 252
L388.8 252" style="fill:none;stroke:#000000;stroke-dasharray:1.000000,3.000000;stroke-dashoffset:0.0;stroke-linecap:butt;stroke-width:0.5;"/>
     </g>
     <g id="line2d_22">
      <defs>
       <path d="
M0 0
L4 0" id="me8a85f7bf6" style="stroke:#000000;stroke-linecap:butt;stroke-width:0.5;"/>
      </defs>
      <g>
       <use style="stroke:#000000;stroke-linecap:butt;stroke-width:0.5;" x="54.0" xlink:href="#me8a85f7bf6" y="252.0"/>
      </g>
     </g>
     <g id="line2d_23">
      <defs>
       <path d="
M0 0
L-4 0" id="m1a32005dea" style="stroke:#000000;stroke-linecap:butt;stroke-width:0.5;"/>
      </defs>
      <g>
       <use style="stroke:#000000;stroke-linecap:butt;stroke-width:0.5;" x="388.8" xlink:href="#m1a32005dea" y="252.0"/>
      </g>
     </g>
     <g id="text_8">
      <!-- 0 -->
      <g transform="translate(44.9609375 255.63984375)scale(0.1 -0.1)">
       <use xlink:href="#DejaVuSans-30"/>
      </g>
     </g>
    </g>
    <g id="ytick_2">
     <g id="line2d_24">
      <path clip-path="url(#p124b8dd147)" d="
M54 209.355
L388.8 209.355" style="fill:none;stroke:#000000;stroke-dasharray:1.000000,3.000000;stroke-dashoffset:0.0;stroke-linecap:butt;stroke-width:0.5;"/>
     </g>
     <g id="line2d_25">
      <g>
       <use style="stroke:#000000;stroke-linecap:butt;stroke-width:0.5;" x="54.0" xlink:href="#me8a85f7bf6" y="209.355385032"/>
      </g>
     </g>
     <g id="line2d_26">
      <g>
       <use style="stroke:#000000;stroke-linecap:butt;stroke-width:0.5;" x="388.8" xlink:href="#m1a32005dea" y="209.355385032"/>
      </g>
     </g>
     <g id="text_9">
      <!-- 1 -->
      <g transform="translate(45.659375 213.000697532)scale(0.1 -0.1)">
       <use xlink:href="#DejaVuSans-31"/>
      </g>
     </g>
    </g>
    <g id="ytick_3">
     <g id="line2d_27">
      <path clip-path="url(#p124b8dd147)" d="
M54 166.711
L388.8 166.711" style="fill:none;stroke:#000000;stroke-dasharray:1.000000,3.000000;stroke-dashoffset:0.0;stroke-linecap:butt;stroke-width:0.5;"/>
     </g>
     <g id="line2d_28">
      <g>
       <use style="stroke:#000000;stroke-linecap:butt;stroke-width:0.5;" x="54.0" xlink:href="#me8a85f7bf6" y="166.710770064"/>
      </g>
     </g>
     <g id="line2d_29">
      <g>
       <use style="stroke:#000000;stroke-linecap:butt;stroke-width:0.5;" x="388.8" xlink:href="#m1a32005dea" y="166.710770064"/>
      </g>
     </g>
     <g id="text_10">
      <!-- 2 -->
      <g transform="translate(45.371875 170.421707564)scale(0.1 -0.1)">
       <use xlink:href="#DejaVuSans-32"/>
      </g>
     </g>
    </g>
    <g id="ytick_4">
     <g id="line2d_30">
      <path clip-path="url(#p124b8dd147)" d="
M54 124.066
L388.8 124.066" style="fill:none;stroke:#000000;stroke-dasharray:1.000000,3.000000;stroke-dashoffset:0.0;stroke-linecap:butt;stroke-width:0.5;"/>
     </g>
     <g id="line2d_31">
      <g>
       <use style="stroke:#000000;stroke-linecap:butt;stroke-width:0.5;" x="54.0" xlink:href="#me8a85f7bf6" y="124.066155096"/>
      </g>
     </g>
     <g id="line2d_32">
      <g>
       <use style="stroke:#000000;stroke-linecap:butt;stroke-width:0.5;" x="388.8" xlink:href="#m1a32005dea" y="124.066155096"/>
      </g>
     </g>
     <g id="text_11">
      <!-- 3 -->
      <defs>
       <path d="
M40.5781 39.3125
Q47.6562 37.7969 51.625 33
Q55.6094 28.2188 55.6094 21.1875
Q55.6094 10.4062 48.1875 4.48438
Q40.7656 -1.42188 27.0938 -1.42188
Q22.5156 -1.42188 17.6562 -0.515625
Q12.7969 0.390625 7.625 2.20312
L7.625 11.7188
Q11.7188 9.32812 16.5938 8.10938
Q21.4844 6.89062 26.8125 6.89062
Q36.0781 6.89062 40.9375 10.5469
Q45.7969 14.2031 45.7969 21.1875
Q45.7969 27.6406 41.2812 31.2656
Q36.7656 34.9062 28.7188 34.9062
L20.2188 34.9062
L20.2188 43.0156
L29.1094 43.0156
Q36.375 43.0156 40.2344 45.9219
Q44.0938 48.8281 44.0938 54.2969
Q44.0938 59.9062 40.1094 62.9062
Q36.1406 65.9219 28.7188 65.9219
Q24.6562 65.9219 20.0156 65.0312
Q15.375 64.1562 9.8125 62.3125
L9.8125 71.0938
Q15.4375 72.6562 20.3438 73.4375
Q25.25 74.2188 29.5938 74.2188
Q40.8281 74.2188 47.3594 69.1094
Q53.9062 64.0156 53.9062 55.3281
Q53.9062 49.2656 50.4375 45.0938
Q46.9688 40.9219 40.5781 39.3125" id="DejaVuSans-33"/>
      </defs>
      <g transform="translate(45.2015625 127.705998846)scale(0.1 -0.1)">
       <use xlink:href="#DejaVuSans-33"/>
      </g>
     </g>
    </g>
    <g id="ytick_5">
     <g id="line2d_33">
      <path clip-path="url(#p124b8dd147)" d="
M54 81.4215
L388.8 81.4215" style="fill:none;stroke:#000000;stroke-dasharray:1.000000,3.000000;stroke-dashoffset:0.0;stroke-linecap:butt;stroke-width:0.5;"/>
     </g>
     <g id="line2d_34">
      <g>
       <use style="stroke:#000000;stroke-linecap:butt;stroke-width:0.5;" x="54.0" xlink:href="#me8a85f7bf6" y="81.4215401275"/>
      </g>
     </g>
     <g id="line2d_35">
      <g>
       <use style="stroke:#000000;stroke-linecap:butt;stroke-width:0.5;" x="388.8" xlink:href="#m1a32005dea" y="81.4215401275"/>
      </g>
     </g>
     <g id="text_12">
      <!-- 4 -->
      <defs>
       <path d="
M37.7969 64.3125
L12.8906 25.3906
L37.7969 25.3906
z

M35.2031 72.9062
L47.6094 72.9062
L47.6094 25.3906
L58.0156 25.3906
L58.0156 17.1875
L47.6094 17.1875
L47.6094 0
L37.7969 0
L37.7969 17.1875
L4.89062 17.1875
L4.89062 26.7031
z
" id="DejaVuSans-34"/>
      </defs>
      <g transform="translate(44.6875 85.0668526275)scale(0.1 -0.1)">
       <use xlink:href="#DejaVuSans-34"/>
      </g>
     </g>
    </g>
    <g id="ytick_6">
     <g id="line2d_36">
      <path clip-path="url(#p124b8dd147)" d="
M54 38.7769
L388.8 38.7769" style="fill:none;stroke:#000000;stroke-dasharray:1.000000,3.000000;stroke-dashoffset:0.0;stroke-linecap:butt;stroke-width:0.5;"/>
     </g>
     <g id="line2d_37">
      <g>
       <use style="stroke:#000000;stroke-linecap:butt;stroke-width:0.5;" x="54.0" xlink:href="#me8a85f7bf6" y="38.7769251593"/>
      </g>
     </g>
     <g id="line2d_38">
      <g>
       <use style="stroke:#000000;stroke-linecap:butt;stroke-width:0.5;" x="388.8" xlink:href="#m1a32005dea" y="38.7769251593"/>
      </g>
     </g>
     <g id="text_13">
      <!-- 5 -->
      <g transform="translate(45.2828125 42.3511439093)scale(0.1 -0.1)">
       <use xlink:href="#DejaVuSans-35"/>
      </g>
     </g>
    </g>
    <g id="text_14">
     <!-- Query latency (s) -->
     <defs>
      <path d="
M39.4062 66.2188
Q28.6562 66.2188 22.3281 58.2031
Q16.0156 50.2031 16.0156 36.375
Q16.0156 22.6094 22.3281 14.5938
Q28.6562 6.59375 39.4062 6.59375
Q50.1406 6.59375 56.4219 14.5938
Q62.7031 22.6094 62.7031 36.375
Q62.7031 50.2031 56.4219 58.2031
Q50.1406 66.2188 39.4062 66.2188
M53.2188 1.3125
L66.2188 -12.8906
L54.2969 -12.8906
L43.5 -1.21875
Q41.8906 -1.3125 41.0312 -1.35938
Q40.1875 -1.42188 39.4062 -1.42188
Q24.0312 -1.42188 14.8125 8.85938
Q5.60938 19.1406 5.60938 36.375
Q5.60938 53.6562 14.8125 63.9375
Q24.0312 74.2188 39.4062 74.2188
Q54.7344 74.2188 63.9062 63.9375
Q73.0938 53.6562 73.0938 36.375
Q73.0938 23.6875 67.9844 14.6406
Q62.8906 5.60938 53.2188 1.3125" id="DejaVuSans-51"/>
     </defs>
     <g transform="translate(39.6875 181.13828125)rotate(-90.0)scale(0.1 -0.1)">
      <use xlink:href="#DejaVuSans-51"/>
      <use x="78.7109375" xlink:href="#DejaVuSans-75"/>
      <use x="142.08984375" xlink:href="#DejaVuSans-65"/>
      <use x="203.61328125" xlink:href="#DejaVuSans-72"/>
      <use x="244.7265625" xlink:href="#DejaVuSans-79"/>
      <use x="303.90625" xlink:href="#DejaVuSans-20"/>
      <use x="335.693359375" xlink:href="#DejaVuSans-6c"/>
      <use x="363.4765625" xlink:href="#DejaVuSans-61"/>
      <use x="424.755859375" xlink:href="#DejaVuSans-74"/>
      <use x="463.96484375" xlink:href="#DejaVuSans-65"/>
      <use x="525.48828125" xlink:href="#DejaVuSans-6e"/>
      <use x="588.8671875" xlink:href="#DejaVuSans-63"/>
      <use x="643.84765625" xlink:href="#DejaVuSans-79"/>
      <use x="703.02734375" xlink:href="#DejaVuSans-20"/>
      <use x="734.814453125" xlink:href="#DejaVuSans-28"/>
      <use x="773.828125" xlink:href="#DejaVuSans-73"/>
      <use x="825.927734375" xlink:href="#DejaVuSans-29"/>
     </g>
    </g>
   </g>
   <g id="patch_3">
    <path d="
M54 28.8
L388.8 28.8" style="fill:none;stroke:#000000;"/>
   </g>
   <g id="patch_4">
    <path d="
M388.8 252
L388.8 28.8" style="fill:none;stroke:#000000;"/>
   </g>
   <g id="patch_5">
    <path d="
M54 252
L388.8 252" style="fill:none;stroke:#000000;"/>
   </g>
   <g id="patch_6">
    <path d="
M54 252
L54 28.8" style="fill:none;stroke:#000000;"/>
   </g>
   <g id="text_15">
    <!-- Query 3 -->
    <g transform="translate(197.92125 23.8)scale(0.12 -0.12)">
     <use xlink:href="#DejaVuSans-51"/>
     <use x="78.7109375" xlink:href="#DejaVuSans-75"/>
     <use x="142.08984375" xlink:href="#DejaVuSans-65"/>
     <use x="203.61328125" xlink:href="#DejaVuSans-72"/>
     <use x="244.7265625" xlink:href="#DejaVuSans-79"/>
     <use x="303.90625" xlink:href="#DejaVuSans-20"/>
     <use x="335.693359375" xlink:href="#DejaVuSans-33"/>
    </g>
   </g>
  </g>
 </g>
 <defs>
  <clipPath id="p124b8dd147">
   <rect height="223.2" width="334.8" x="54.0" y="28.8"/>
  </clipPath>
 </defs>
</svg>
