<?xml version="1.0" encoding="utf-8" standalone="no"?>
<!DOCTYPE svg PUBLIC "-//W3C//DTD SVG 1.1//EN"
  "http://www.w3.org/Graphics/SVG/1.1/DTD/svg11.dtd">
<!-- Created with matplotlib (http://matplotlib.sourceforge.net/) -->
<svg height="288pt" version="1.1" viewBox="0 0 432 288" width="432pt" xmlns="http://www.w3.org/2000/svg" xmlns:xlink="http://www.w3.org/1999/xlink">
 <defs>
  <style type="text/css">
*{stroke-linecap:square;stroke-linejoin:round;}
  </style>
 </defs>
 <g id="figure_1">
  <g id="patch_1">
   <path d="
M0 288
L432 288
L432 0
L0 0
z
" style="fill:#ffffff;"/>
  </g>
  <g id="axes_1">
   <g id="patch_2">
    <path d="
M54 252
L388.8 252
L388.8 28.8
L54 28.8
z
" style="fill:#ffffff;"/>
   </g>
   <g id="line2d_1">
    <path clip-path="url(#p124b8dd147)" d="
M54.1053 244.729
L54.1238 245.649
L54.5911 248.997
L55.701 248.924
L62.5954 247.631
L65.9992 248.892
L66.4266 248.872
L66.4691 247.005
L66.7086 247.002
L67.4495 248.65
L67.7694 248.537
L68.3811 248.535
L68.697 248.655
L69.5067 248.266
L69.9114 248.352
L72.078 248.199
L72.7225 247.786
L76.0341 247.976
L76.0472 247.858
L76.2688 248.328
L77.439 248.153
L77.6676 248.231
L79.0399 247.91
L79.4301 247.992
L80.0933 247.678
L80.5655 248.041
L83.2991 247.585
L83.6703 247.483
L83.8652 247.568
L85.0577 247.365
L85.9375 247.658
L86.1072 247.582
L88.518 247.302
L95.2225 246.879
L97.0995 246.864
L102.295 243.674
L103.773 246.277
L105.333 245.495
L105.43 245.995
L109.2 245.925
L111.282 245.152
L116.408 215.394
L116.716 208.546
L121.9 245.2
L134.234 243.182
L141.645 243.183
L143.188 243.252
L147.173 242.42
L149.813 242.82
L149.842 243.113
L154.108 194.487
L154.226 193.718
L154.993 192.288
L161.941 234.079
L162.629 241.963
L169.318 184.628
L173.387 187.689
L178.363 241.051
L180.831 240.854
L182.915 238.742
L185.255 181.008
L196.053 237.787
L201.275 170.376
L203.055 239.466
L209.36 237.903
L216.661 154.832
L218.515 162.251
L232.631 235.641
L253.098 235.23
L256.909 139.679
L258.639 128.165
L263.693 234.313
L273.354 128.015
L273.662 127.76
L285.765 124.469
L288.267 124.198
L296.375 111.649
L325.165 230.845
L342.432 229.229
L362.111 77.7283
L365.947 49.0909" style="fill:none;stroke:#0000ff;"/>
    <defs>
     <path d="
M0 1.5
C0.397805 1.5 0.77937 1.34195 1.06066 1.06066
C1.34195 0.77937 1.5 0.397805 1.5 0
C1.5 -0.397805 1.34195 -0.77937 1.06066 -1.06066
C0.77937 -1.34195 0.397805 -1.5 0 -1.5
C-0.397805 -1.5 -0.77937 -1.34195 -1.06066 -1.06066
C-1.34195 -0.77937 -1.5 -0.397805 -1.5 0
C-1.5 0.397805 -1.34195 0.77937 -1.06066 1.06066
C-0.77937 1.34195 -0.397805 1.5 0 1.5
z
" id="m60516ac18e" style="stroke:#0000ff;stroke-linecap:butt;stroke-width:0.5;"/>
    </defs>
    <g clip-path="url(#p124b8dd147)">
     <use style="fill:#0000ff;stroke:#0000ff;stroke-linecap:butt;stroke-width:0.5;" x="54.105276" xlink:href="#m60516ac18e" y="244.729012158"/>
     <use style="fill:#0000ff;stroke:#0000ff;stroke-linecap:butt;stroke-width:0.5;" x="54.1238016" xlink:href="#m60516ac18e" y="245.649000974"/>
     <use style="fill:#0000ff;stroke:#0000ff;stroke-linecap:butt;stroke-width:0.5;" x="54.591108" xlink:href="#m60516ac18e" y="248.996685643"/>
     <use style="fill:#0000ff;stroke:#0000ff;stroke-linecap:butt;stroke-width:0.5;" x="55.7010072" xlink:href="#m60516ac18e" y="248.923841232"/>
     <use style="fill:#0000ff;stroke:#0000ff;stroke-linecap:butt;stroke-width:0.5;" x="62.5953576" xlink:href="#m60516ac18e" y="247.630811923"/>
     <use style="fill:#0000ff;stroke:#0000ff;stroke-linecap:butt;stroke-width:0.5;" x="65.9991576" xlink:href="#m60516ac18e" y="248.891520626"/>
     <use style="fill:#0000ff;stroke:#0000ff;stroke-linecap:butt;stroke-width:0.5;" x="66.4265856" xlink:href="#m60516ac18e" y="248.871545836"/>
     <use style="fill:#0000ff;stroke:#0000ff;stroke-linecap:butt;stroke-width:0.5;" x="66.4691424" xlink:href="#m60516ac18e" y="247.005071871"/>
     <use style="fill:#0000ff;stroke:#0000ff;stroke-linecap:butt;stroke-width:0.5;" x="66.708636" xlink:href="#m60516ac18e" y="247.001544495"/>
     <use style="fill:#0000ff;stroke:#0000ff;stroke-linecap:butt;stroke-width:0.5;" x="67.4495112" xlink:href="#m60516ac18e" y="248.650182499"/>
     <use style="fill:#0000ff;stroke:#0000ff;stroke-linecap:butt;stroke-width:0.5;" x="67.7694312" xlink:href="#m60516ac18e" y="248.536855299"/>
     <use style="fill:#0000ff;stroke:#0000ff;stroke-linecap:butt;stroke-width:0.5;" x="68.3810736" xlink:href="#m60516ac18e" y="248.535337707"/>
     <use style="fill:#0000ff;stroke:#0000ff;stroke-linecap:butt;stroke-width:0.5;" x="68.696976" xlink:href="#m60516ac18e" y="248.655391531"/>
     <use style="fill:#0000ff;stroke:#0000ff;stroke-linecap:butt;stroke-width:0.5;" x="69.5066712" xlink:href="#m60516ac18e" y="248.266395814"/>
     <use style="fill:#0000ff;stroke:#0000ff;stroke-linecap:butt;stroke-width:0.5;" x="69.9114072" xlink:href="#m60516ac18e" y="248.35158604"/>
     <use style="fill:#0000ff;stroke:#0000ff;stroke-linecap:butt;stroke-width:0.5;" x="72.0780096" xlink:href="#m60516ac18e" y="248.199047547"/>
     <use style="fill:#0000ff;stroke:#0000ff;stroke-linecap:butt;stroke-width:0.5;" x="72.7224624" xlink:href="#m60516ac18e" y="247.786016456"/>
     <use style="fill:#0000ff;stroke:#0000ff;stroke-linecap:butt;stroke-width:0.5;" x="76.0340808" xlink:href="#m60516ac18e" y="247.975715442"/>
     <use style="fill:#0000ff;stroke:#0000ff;stroke-linecap:butt;stroke-width:0.5;" x="76.0472496" xlink:href="#m60516ac18e" y="247.857753435"/>
     <use style="fill:#0000ff;stroke:#0000ff;stroke-linecap:butt;stroke-width:0.5;" x="76.2688128" xlink:href="#m60516ac18e" y="248.327632698"/>
     <use style="fill:#0000ff;stroke:#0000ff;stroke-linecap:butt;stroke-width:0.5;" x="77.438976" xlink:href="#m60516ac18e" y="248.152617438"/>
     <use style="fill:#0000ff;stroke:#0000ff;stroke-linecap:butt;stroke-width:0.5;" x="77.6676072" xlink:href="#m60516ac18e" y="248.231286121"/>
     <use style="fill:#0000ff;stroke:#0000ff;stroke-linecap:butt;stroke-width:0.5;" x="79.0399152" xlink:href="#m60516ac18e" y="247.910253911"/>
     <use style="fill:#0000ff;stroke:#0000ff;stroke-linecap:butt;stroke-width:0.5;" x="79.4301432" xlink:href="#m60516ac18e" y="247.991752697"/>
     <use style="fill:#0000ff;stroke:#0000ff;stroke-linecap:butt;stroke-width:0.5;" x="80.0933448" xlink:href="#m60516ac18e" y="247.677611175"/>
     <use style="fill:#0000ff;stroke:#0000ff;stroke-linecap:butt;stroke-width:0.5;" x="80.5654872" xlink:href="#m60516ac18e" y="248.040561734"/>
     <use style="fill:#0000ff;stroke:#0000ff;stroke-linecap:butt;stroke-width:0.5;" x="83.299092" xlink:href="#m60516ac18e" y="247.584545878"/>
     <use style="fill:#0000ff;stroke:#0000ff;stroke-linecap:butt;stroke-width:0.5;" x="83.670348" xlink:href="#m60516ac18e" y="247.483441445"/>
     <use style="fill:#0000ff;stroke:#0000ff;stroke-linecap:butt;stroke-width:0.5;" x="83.8652016" xlink:href="#m60516ac18e" y="247.568303543"/>
     <use style="fill:#0000ff;stroke:#0000ff;stroke-linecap:butt;stroke-width:0.5;" x="85.0576848" xlink:href="#m60516ac18e" y="247.364946229"/>
     <use style="fill:#0000ff;stroke:#0000ff;stroke-linecap:butt;stroke-width:0.5;" x="85.9375392" xlink:href="#m60516ac18e" y="247.657964513"/>
     <use style="fill:#0000ff;stroke:#0000ff;stroke-linecap:butt;stroke-width:0.5;" x="86.1071712" xlink:href="#m60516ac18e" y="247.581674758"/>
     <use style="fill:#0000ff;stroke:#0000ff;stroke-linecap:butt;stroke-width:0.5;" x="88.5180288" xlink:href="#m60516ac18e" y="247.302273786"/>
     <use style="fill:#0000ff;stroke:#0000ff;stroke-linecap:butt;stroke-width:0.5;" x="95.2225104" xlink:href="#m60516ac18e" y="246.878619551"/>
     <use style="fill:#0000ff;stroke:#0000ff;stroke-linecap:butt;stroke-width:0.5;" x="97.0994736" xlink:href="#m60516ac18e" y="246.863853793"/>
     <use style="fill:#0000ff;stroke:#0000ff;stroke-linecap:butt;stroke-width:0.5;" x="102.295272" xlink:href="#m60516ac18e" y="243.674080712"/>
     <use style="fill:#0000ff;stroke:#0000ff;stroke-linecap:butt;stroke-width:0.5;" x="103.7731536" xlink:href="#m60516ac18e" y="246.276914874"/>
     <use style="fill:#0000ff;stroke:#0000ff;stroke-linecap:butt;stroke-width:0.5;" x="105.333396" xlink:href="#m60516ac18e" y="245.495314033"/>
     <use style="fill:#0000ff;stroke:#0000ff;stroke-linecap:butt;stroke-width:0.5;" x="105.4298184" xlink:href="#m60516ac18e" y="245.99456075"/>
     <use style="fill:#0000ff;stroke:#0000ff;stroke-linecap:butt;stroke-width:0.5;" x="109.2004104" xlink:href="#m60516ac18e" y="245.925202698"/>
     <use style="fill:#0000ff;stroke:#0000ff;stroke-linecap:butt;stroke-width:0.5;" x="111.28242" xlink:href="#m60516ac18e" y="245.151928105"/>
     <use style="fill:#0000ff;stroke:#0000ff;stroke-linecap:butt;stroke-width:0.5;" x="116.4076872" xlink:href="#m60516ac18e" y="215.394165937"/>
     <use style="fill:#0000ff;stroke:#0000ff;stroke-linecap:butt;stroke-width:0.5;" x="116.7161496" xlink:href="#m60516ac18e" y="208.546094042"/>
     <use style="fill:#0000ff;stroke:#0000ff;stroke-linecap:butt;stroke-width:0.5;" x="121.9001928" xlink:href="#m60516ac18e" y="245.199957837"/>
     <use style="fill:#0000ff;stroke:#0000ff;stroke-linecap:butt;stroke-width:0.5;" x="134.2336296" xlink:href="#m60516ac18e" y="243.182052811"/>
     <use style="fill:#0000ff;stroke:#0000ff;stroke-linecap:butt;stroke-width:0.5;" x="141.6453576" xlink:href="#m60516ac18e" y="243.182545003"/>
     <use style="fill:#0000ff;stroke:#0000ff;stroke-linecap:butt;stroke-width:0.5;" x="143.1875952" xlink:href="#m60516ac18e" y="243.252108134"/>
     <use style="fill:#0000ff;stroke:#0000ff;stroke-linecap:butt;stroke-width:0.5;" x="147.1732776" xlink:href="#m60516ac18e" y="242.419688472"/>
     <use style="fill:#0000ff;stroke:#0000ff;stroke-linecap:butt;stroke-width:0.5;" x="149.8127664" xlink:href="#m60516ac18e" y="242.820168668"/>
     <use style="fill:#0000ff;stroke:#0000ff;stroke-linecap:butt;stroke-width:0.5;" x="149.8419312" xlink:href="#m60516ac18e" y="243.113392032"/>
     <use style="fill:#0000ff;stroke:#0000ff;stroke-linecap:butt;stroke-width:0.5;" x="154.1079528" xlink:href="#m60516ac18e" y="194.486876645"/>
     <use style="fill:#0000ff;stroke:#0000ff;stroke-linecap:butt;stroke-width:0.5;" x="154.2255048" xlink:href="#m60516ac18e" y="193.717580603"/>
     <use style="fill:#0000ff;stroke:#0000ff;stroke-linecap:butt;stroke-width:0.5;" x="154.9925688" xlink:href="#m60516ac18e" y="192.288460215"/>
     <use style="fill:#0000ff;stroke:#0000ff;stroke-linecap:butt;stroke-width:0.5;" x="161.9409336" xlink:href="#m60516ac18e" y="234.078511234"/>
     <use style="fill:#0000ff;stroke:#0000ff;stroke-linecap:butt;stroke-width:0.5;" x="162.6289848" xlink:href="#m60516ac18e" y="241.963016361"/>
     <use style="fill:#0000ff;stroke:#0000ff;stroke-linecap:butt;stroke-width:0.5;" x="169.3175448" xlink:href="#m60516ac18e" y="184.628476657"/>
     <use style="fill:#0000ff;stroke:#0000ff;stroke-linecap:butt;stroke-width:0.5;" x="173.3873736" xlink:href="#m60516ac18e" y="187.688516138"/>
     <use style="fill:#0000ff;stroke:#0000ff;stroke-linecap:butt;stroke-width:0.5;" x="178.3631712" xlink:href="#m60516ac18e" y="241.050697537"/>
     <use style="fill:#0000ff;stroke:#0000ff;stroke-linecap:butt;stroke-width:0.5;" x="180.8308704" xlink:href="#m60516ac18e" y="240.853943798"/>
     <use style="fill:#0000ff;stroke:#0000ff;stroke-linecap:butt;stroke-width:0.5;" x="182.9146656" xlink:href="#m60516ac18e" y="238.741701979"/>
     <use style="fill:#0000ff;stroke:#0000ff;stroke-linecap:butt;stroke-width:0.5;" x="185.2548432" xlink:href="#m60516ac18e" y="181.008322719"/>
     <use style="fill:#0000ff;stroke:#0000ff;stroke-linecap:butt;stroke-width:0.5;" x="196.0529616" xlink:href="#m60516ac18e" y="237.786521438"/>
     <use style="fill:#0000ff;stroke:#0000ff;stroke-linecap:butt;stroke-width:0.5;" x="201.2753208" xlink:href="#m60516ac18e" y="170.375540706"/>
     <use style="fill:#0000ff;stroke:#0000ff;stroke-linecap:butt;stroke-width:0.5;" x="203.0553408" xlink:href="#m60516ac18e" y="239.465839408"/>
     <use style="fill:#0000ff;stroke:#0000ff;stroke-linecap:butt;stroke-width:0.5;" x="209.3599968" xlink:href="#m60516ac18e" y="237.903458045"/>
     <use style="fill:#0000ff;stroke:#0000ff;stroke-linecap:butt;stroke-width:0.5;" x="216.6608688" xlink:href="#m60516ac18e" y="154.832446565"/>
     <use style="fill:#0000ff;stroke:#0000ff;stroke-linecap:butt;stroke-width:0.5;" x="218.5149168" xlink:href="#m60516ac18e" y="162.251174028"/>
     <use style="fill:#0000ff;stroke:#0000ff;stroke-linecap:butt;stroke-width:0.5;" x="232.631424" xlink:href="#m60516ac18e" y="235.641343772"/>
     <use style="fill:#0000ff;stroke:#0000ff;stroke-linecap:butt;stroke-width:0.5;" x="253.0978224" xlink:href="#m60516ac18e" y="235.229871289"/>
     <use style="fill:#0000ff;stroke:#0000ff;stroke-linecap:butt;stroke-width:0.5;" x="256.9091856" xlink:href="#m60516ac18e" y="139.678594236"/>
     <use style="fill:#0000ff;stroke:#0000ff;stroke-linecap:butt;stroke-width:0.5;" x="258.6386136" xlink:href="#m60516ac18e" y="128.165280796"/>
     <use style="fill:#0000ff;stroke:#0000ff;stroke-linecap:butt;stroke-width:0.5;" x="263.6929032" xlink:href="#m60516ac18e" y="234.312630546"/>
     <use style="fill:#0000ff;stroke:#0000ff;stroke-linecap:butt;stroke-width:0.5;" x="273.3536688" xlink:href="#m60516ac18e" y="128.015367327"/>
     <use style="fill:#0000ff;stroke:#0000ff;stroke-linecap:butt;stroke-width:0.5;" x="273.6621312" xlink:href="#m60516ac18e" y="127.759755633"/>
     <use style="fill:#0000ff;stroke:#0000ff;stroke-linecap:butt;stroke-width:0.5;" x="285.7647792" xlink:href="#m60516ac18e" y="124.469452344"/>
     <use style="fill:#0000ff;stroke:#0000ff;stroke-linecap:butt;stroke-width:0.5;" x="288.2672232" xlink:href="#m60516ac18e" y="124.198418635"/>
     <use style="fill:#0000ff;stroke:#0000ff;stroke-linecap:butt;stroke-width:0.5;" x="296.3745168" xlink:href="#m60516ac18e" y="111.649041108"/>
     <use style="fill:#0000ff;stroke:#0000ff;stroke-linecap:butt;stroke-width:0.5;" x="325.1647872" xlink:href="#m60516ac18e" y="230.844645957"/>
     <use style="fill:#0000ff;stroke:#0000ff;stroke-linecap:butt;stroke-width:0.5;" x="342.4318368" xlink:href="#m60516ac18e" y="229.228738718"/>
     <use style="fill:#0000ff;stroke:#0000ff;stroke-linecap:butt;stroke-width:0.5;" x="362.1107856" xlink:href="#m60516ac18e" y="77.7282782808"/>
     <use style="fill:#0000ff;stroke:#0000ff;stroke-linecap:butt;stroke-width:0.5;" x="365.9469984" xlink:href="#m60516ac18e" y="49.0909090909"/>
    </g>
   </g>
   <g id="matplotlib.axis_1">
    <g id="xtick_1">
     <g id="line2d_2">
      <path clip-path="url(#p124b8dd147)" d="
M54 252
L54 28.8" style="fill:none;stroke:#000000;stroke-dasharray:1.000000,3.000000;stroke-dashoffset:0.0;stroke-linecap:butt;stroke-width:0.5;"/>
     </g>
     <g id="line2d_3">
      <defs>
       <path d="
M0 0
L0 -4" id="m0012dd4eef" style="stroke:#000000;stroke-linecap:butt;stroke-width:0.5;"/>
      </defs>
      <g>
       <use style="stroke:#000000;stroke-linecap:butt;stroke-width:0.5;" x="54.0" xlink:href="#m0012dd4eef" y="252.0"/>
      </g>
     </g>
     <g id="line2d_4">
      <defs>
       <path d="
M0 0
L0 4" id="m476344969c" style="stroke:#000000;stroke-linecap:butt;stroke-width:0.5;"/>
      </defs>
      <g>
       <use style="stroke:#000000;stroke-linecap:butt;stroke-width:0.5;" x="54.0" xlink:href="#m476344969c" y="28.8"/>
      </g>
     </g>
     <g id="text_1">
      <!-- 0 -->
      <defs>
       <path d="
M31.7812 66.4062
Q24.1719 66.4062 20.3281 58.9062
Q16.5 51.4219 16.5 36.375
Q16.5 21.3906 20.3281 13.8906
Q24.1719 6.39062 31.7812 6.39062
Q39.4531 6.39062 43.2812 13.8906
Q47.125 21.3906 47.125 36.375
Q47.125 51.4219 43.2812 58.9062
Q39.4531 66.4062 31.7812 66.4062
M31.7812 74.2188
Q44.0469 74.2188 50.5156 64.5156
Q56.9844 54.8281 56.9844 36.375
Q56.9844 17.9688 50.5156 8.26562
Q44.0469 -1.42188 31.7812 -1.42188
Q19.5312 -1.42188 13.0625 8.26562
Q6.59375 17.9688 6.59375 36.375
Q6.59375 54.8281 13.0625 64.5156
Q19.5312 74.2188 31.7812 74.2188" id="DejaVuSans-30"/>
      </defs>
      <g transform="translate(51.48046875 263.421875)scale(0.1 -0.1)">
       <use xlink:href="#DejaVuSans-30"/>
      </g>
     </g>
    </g>
    <g id="xtick_2">
     <g id="line2d_5">
      <path clip-path="url(#p124b8dd147)" d="
M91.2 252
L91.2 28.8" style="fill:none;stroke:#000000;stroke-dasharray:1.000000,3.000000;stroke-dashoffset:0.0;stroke-linecap:butt;stroke-width:0.5;"/>
     </g>
     <g id="line2d_6">
      <g>
       <use style="stroke:#000000;stroke-linecap:butt;stroke-width:0.5;" x="91.2" xlink:href="#m0012dd4eef" y="252.0"/>
      </g>
     </g>
     <g id="line2d_7">
      <g>
       <use style="stroke:#000000;stroke-linecap:butt;stroke-width:0.5;" x="91.2" xlink:href="#m476344969c" y="28.8"/>
      </g>
     </g>
     <g id="text_2">
      <!-- 500000 -->
      <defs>
       <path d="
M10.7969 72.9062
L49.5156 72.9062
L49.5156 64.5938
L19.8281 64.5938
L19.8281 46.7344
Q21.9688 47.4688 24.1094 47.8281
Q26.2656 48.1875 28.4219 48.1875
Q40.625 48.1875 47.75 41.5
Q54.8906 34.8125 54.8906 23.3906
Q54.8906 11.625 47.5625 5.09375
Q40.2344 -1.42188 26.9062 -1.42188
Q22.3125 -1.42188 17.5469 -0.640625
Q12.7969 0.140625 7.71875 1.70312
L7.71875 11.625
Q12.1094 9.23438 16.7969 8.0625
Q21.4844 6.89062 26.7031 6.89062
Q35.1562 6.89062 40.0781 11.3281
Q45.0156 15.7656 45.0156 23.3906
Q45.0156 31 40.0781 35.4375
Q35.1562 39.8906 26.7031 39.8906
Q22.75 39.8906 18.8125 39.0156
Q14.8906 38.1406 10.7969 36.2812
z
" id="DejaVuSans-35"/>
      </defs>
      <g transform="translate(72.83046875 263.421875)scale(0.1 -0.1)">
       <use xlink:href="#DejaVuSans-35"/>
       <use x="63.623046875" xlink:href="#DejaVuSans-30"/>
       <use x="127.24609375" xlink:href="#DejaVuSans-30"/>
       <use x="190.869140625" xlink:href="#DejaVuSans-30"/>
       <use x="254.4921875" xlink:href="#DejaVuSans-30"/>
       <use x="318.115234375" xlink:href="#DejaVuSans-30"/>
      </g>
     </g>
    </g>
    <g id="xtick_3">
     <g id="line2d_8">
      <path clip-path="url(#p124b8dd147)" d="
M128.4 252
L128.4 28.8" style="fill:none;stroke:#000000;stroke-dasharray:1.000000,3.000000;stroke-dashoffset:0.0;stroke-linecap:butt;stroke-width:0.5;"/>
     </g>
     <g id="line2d_9">
      <g>
       <use style="stroke:#000000;stroke-linecap:butt;stroke-width:0.5;" x="128.4" xlink:href="#m0012dd4eef" y="252.0"/>
      </g>
     </g>
     <g id="line2d_10">
      <g>
       <use style="stroke:#000000;stroke-linecap:butt;stroke-width:0.5;" x="128.4" xlink:href="#m476344969c" y="28.8"/>
      </g>
     </g>
     <g id="text_3">
      <!-- 1000000 -->
      <defs>
       <path d="
M12.4062 8.29688
L28.5156 8.29688
L28.5156 63.9219
L10.9844 60.4062
L10.9844 69.3906
L28.4219 72.9062
L38.2812 72.9062
L38.2812 8.29688
L54.3906 8.29688
L54.3906 0
L12.4062 0
z
" id="DejaVuSans-31"/>
      </defs>
      <g transform="translate(107.0125 263.421875)scale(0.1 -0.1)">
       <use xlink:href="#DejaVuSans-31"/>
       <use x="63.623046875" xlink:href="#DejaVuSans-30"/>
       <use x="127.24609375" xlink:href="#DejaVuSans-30"/>
       <use x="190.869140625" xlink:href="#DejaVuSans-30"/>
       <use x="254.4921875" xlink:href="#DejaVuSans-30"/>
       <use x="318.115234375" xlink:href="#DejaVuSans-30"/>
       <use x="381.73828125" xlink:href="#DejaVuSans-30"/>
      </g>
     </g>
    </g>
    <g id="xtick_4">
     <g id="line2d_11">
      <path clip-path="url(#p124b8dd147)" d="
M165.6 252
L165.6 28.8" style="fill:none;stroke:#000000;stroke-dasharray:1.000000,3.000000;stroke-dashoffset:0.0;stroke-linecap:butt;stroke-width:0.5;"/>
     </g>
     <g id="line2d_12">
      <g>
       <use style="stroke:#000000;stroke-linecap:butt;stroke-width:0.5;" x="165.6" xlink:href="#m0012dd4eef" y="252.0"/>
      </g>
     </g>
     <g id="line2d_13">
      <g>
       <use style="stroke:#000000;stroke-linecap:butt;stroke-width:0.5;" x="165.6" xlink:href="#m476344969c" y="28.8"/>
      </g>
     </g>
     <g id="text_4">
      <!-- 1500000 -->
      <g transform="translate(144.2125 263.421875)scale(0.1 -0.1)">
       <use xlink:href="#DejaVuSans-31"/>
       <use x="63.623046875" xlink:href="#DejaVuSans-35"/>
       <use x="127.24609375" xlink:href="#DejaVuSans-30"/>
       <use x="190.869140625" xlink:href="#DejaVuSans-30"/>
       <use x="254.4921875" xlink:href="#DejaVuSans-30"/>
       <use x="318.115234375" xlink:href="#DejaVuSans-30"/>
       <use x="381.73828125" xlink:href="#DejaVuSans-30"/>
      </g>
     </g>
    </g>
    <g id="xtick_5">
     <g id="line2d_14">
      <path clip-path="url(#p124b8dd147)" d="
M202.8 252
L202.8 28.8" style="fill:none;stroke:#000000;stroke-dasharray:1.000000,3.000000;stroke-dashoffset:0.0;stroke-linecap:butt;stroke-width:0.5;"/>
     </g>
     <g id="line2d_15">
      <g>
       <use style="stroke:#000000;stroke-linecap:butt;stroke-width:0.5;" x="202.8" xlink:href="#m0012dd4eef" y="252.0"/>
      </g>
     </g>
     <g id="line2d_16">
      <g>
       <use style="stroke:#000000;stroke-linecap:butt;stroke-width:0.5;" x="202.8" xlink:href="#m476344969c" y="28.8"/>
      </g>
     </g>
     <g id="text_5">
      <!-- 2000000 -->
      <defs>
       <path d="
M19.1875 8.29688
L53.6094 8.29688
L53.6094 0
L7.32812 0
L7.32812 8.29688
Q12.9375 14.1094 22.625 23.8906
Q32.3281 33.6875 34.8125 36.5312
Q39.5469 41.8438 41.4219 45.5312
Q43.3125 49.2188 43.3125 52.7812
Q43.3125 58.5938 39.2344 62.25
Q35.1562 65.9219 28.6094 65.9219
Q23.9688 65.9219 18.8125 64.3125
Q13.6719 62.7031 7.8125 59.4219
L7.8125 69.3906
Q13.7656 71.7812 18.9375 73
Q24.125 74.2188 28.4219 74.2188
Q39.75 74.2188 46.4844 68.5469
Q53.2188 62.8906 53.2188 53.4219
Q53.2188 48.9219 51.5312 44.8906
Q49.8594 40.875 45.4062 35.4062
Q44.1875 33.9844 37.6406 27.2188
Q31.1094 20.4531 19.1875 8.29688" id="DejaVuSans-32"/>
      </defs>
      <g transform="translate(181.2296875 263.421875)scale(0.1 -0.1)">
       <use xlink:href="#DejaVuSans-32"/>
       <use x="63.623046875" xlink:href="#DejaVuSans-30"/>
       <use x="127.24609375" xlink:href="#DejaVuSans-30"/>
       <use x="190.869140625" xlink:href="#DejaVuSans-30"/>
       <use x="254.4921875" xlink:href="#DejaVuSans-30"/>
       <use x="318.115234375" xlink:href="#DejaVuSans-30"/>
       <use x="381.73828125" xlink:href="#DejaVuSans-30"/>
      </g>
     </g>
    </g>
    <g id="xtick_6">
     <g id="line2d_17">
      <path clip-path="url(#p124b8dd147)" d="
M240 252
L240 28.8" style="fill:none;stroke:#000000;stroke-dasharray:1.000000,3.000000;stroke-dashoffset:0.0;stroke-linecap:butt;stroke-width:0.5;"/>
     </g>
     <g id="line2d_18">
      <g>
       <use style="stroke:#000000;stroke-linecap:butt;stroke-width:0.5;" x="240.0" xlink:href="#m0012dd4eef" y="252.0"/>
      </g>
     </g>
     <g id="line2d_19">
      <g>
       <use style="stroke:#000000;stroke-linecap:butt;stroke-width:0.5;" x="240.0" xlink:href="#m476344969c" y="28.8"/>
      </g>
     </g>
     <g id="text_6">
      <!-- 2500000 -->
      <g transform="translate(218.4296875 263.421875)scale(0.1 -0.1)">
       <use xlink:href="#DejaVuSans-32"/>
       <use x="63.623046875" xlink:href="#DejaVuSans-35"/>
       <use x="127.24609375" xlink:href="#DejaVuSans-30"/>
       <use x="190.869140625" xlink:href="#DejaVuSans-30"/>
       <use x="254.4921875" xlink:href="#DejaVuSans-30"/>
       <use x="318.115234375" xlink:href="#DejaVuSans-30"/>
       <use x="381.73828125" xlink:href="#DejaVuSans-30"/>
      </g>
     </g>
    </g>
    <g id="xtick_7">
     <g id="line2d_20">
      <path clip-path="url(#p124b8dd147)" d="
M277.2 252
L277.2 28.8" style="fill:none;stroke:#000000;stroke-dasharray:1.000000,3.000000;stroke-dashoffset:0.0;stroke-linecap:butt;stroke-width:0.5;"/>
     </g>
     <g id="line2d_21">
      <g>
       <use style="stroke:#000000;stroke-linecap:butt;stroke-width:0.5;" x="277.2" xlink:href="#m0012dd4eef" y="252.0"/>
      </g>
     </g>
     <g id="line2d_22">
      <g>
       <use style="stroke:#000000;stroke-linecap:butt;stroke-width:0.5;" x="277.2" xlink:href="#m476344969c" y="28.8"/>
      </g>
     </g>
     <g id="text_7">
      <!-- 3000000 -->
      <defs>
       <path d="
M40.5781 39.3125
Q47.6562 37.7969 51.625 33
Q55.6094 28.2188 55.6094 21.1875
Q55.6094 10.4062 48.1875 4.48438
Q40.7656 -1.42188 27.0938 -1.42188
Q22.5156 -1.42188 17.6562 -0.515625
Q12.7969 0.390625 7.625 2.20312
L7.625 11.7188
Q11.7188 9.32812 16.5938 8.10938
Q21.4844 6.89062 26.8125 6.89062
Q36.0781 6.89062 40.9375 10.5469
Q45.7969 14.2031 45.7969 21.1875
Q45.7969 27.6406 41.2812 31.2656
Q36.7656 34.9062 28.7188 34.9062
L20.2188 34.9062
L20.2188 43.0156
L29.1094 43.0156
Q36.375 43.0156 40.2344 45.9219
Q44.0938 48.8281 44.0938 54.2969
Q44.0938 59.9062 40.1094 62.9062
Q36.1406 65.9219 28.7188 65.9219
Q24.6562 65.9219 20.0156 65.0312
Q15.375 64.1562 9.8125 62.3125
L9.8125 71.0938
Q15.4375 72.6562 20.3438 73.4375
Q25.25 74.2188 29.5938 74.2188
Q40.8281 74.2188 47.3594 69.1094
Q53.9062 64.0156 53.9062 55.3281
Q53.9062 49.2656 50.4375 45.0938
Q46.9688 40.9219 40.5781 39.3125" id="DejaVuSans-33"/>
      </defs>
      <g transform="translate(255.64453125 263.421875)scale(0.1 -0.1)">
       <use xlink:href="#DejaVuSans-33"/>
       <use x="63.623046875" xlink:href="#DejaVuSans-30"/>
       <use x="127.24609375" xlink:href="#DejaVuSans-30"/>
       <use x="190.869140625" xlink:href="#DejaVuSans-30"/>
       <use x="254.4921875" xlink:href="#DejaVuSans-30"/>
       <use x="318.115234375" xlink:href="#DejaVuSans-30"/>
       <use x="381.73828125" xlink:href="#DejaVuSans-30"/>
      </g>
     </g>
    </g>
    <g id="xtick_8">
     <g id="line2d_23">
      <path clip-path="url(#p124b8dd147)" d="
M314.4 252
L314.4 28.8" style="fill:none;stroke:#000000;stroke-dasharray:1.000000,3.000000;stroke-dashoffset:0.0;stroke-linecap:butt;stroke-width:0.5;"/>
     </g>
     <g id="line2d_24">
      <g>
       <use style="stroke:#000000;stroke-linecap:butt;stroke-width:0.5;" x="314.4" xlink:href="#m0012dd4eef" y="252.0"/>
      </g>
     </g>
     <g id="line2d_25">
      <g>
       <use style="stroke:#000000;stroke-linecap:butt;stroke-width:0.5;" x="314.4" xlink:href="#m476344969c" y="28.8"/>
      </g>
     </g>
     <g id="text_8">
      <!-- 3500000 -->
      <g transform="translate(292.84453125 263.421875)scale(0.1 -0.1)">
       <use xlink:href="#DejaVuSans-33"/>
       <use x="63.623046875" xlink:href="#DejaVuSans-35"/>
       <use x="127.24609375" xlink:href="#DejaVuSans-30"/>
       <use x="190.869140625" xlink:href="#DejaVuSans-30"/>
       <use x="254.4921875" xlink:href="#DejaVuSans-30"/>
       <use x="318.115234375" xlink:href="#DejaVuSans-30"/>
       <use x="381.73828125" xlink:href="#DejaVuSans-30"/>
      </g>
     </g>
    </g>
    <g id="xtick_9">
     <g id="line2d_26">
      <path clip-path="url(#p124b8dd147)" d="
M351.6 252
L351.6 28.8" style="fill:none;stroke:#000000;stroke-dasharray:1.000000,3.000000;stroke-dashoffset:0.0;stroke-linecap:butt;stroke-width:0.5;"/>
     </g>
     <g id="line2d_27">
      <g>
       <use style="stroke:#000000;stroke-linecap:butt;stroke-width:0.5;" x="351.6" xlink:href="#m0012dd4eef" y="252.0"/>
      </g>
     </g>
     <g id="line2d_28">
      <g>
       <use style="stroke:#000000;stroke-linecap:butt;stroke-width:0.5;" x="351.6" xlink:href="#m476344969c" y="28.8"/>
      </g>
     </g>
     <g id="text_9">
      <!-- 4000000 -->
      <defs>
       <path d="
M37.7969 64.3125
L12.8906 25.3906
L37.7969 25.3906
z

M35.2031 72.9062
L47.6094 72.9062
L47.6094 25.3906
L58.0156 25.3906
L58.0156 17.1875
L47.6094 17.1875
L47.6094 0
L37.7969 0
L37.7969 17.1875
L4.89062 17.1875
L4.89062 26.7031
z
" id="DejaVuSans-34"/>
      </defs>
      <g transform="translate(329.9078125 263.421875)scale(0.1 -0.1)">
       <use xlink:href="#DejaVuSans-34"/>
       <use x="63.623046875" xlink:href="#DejaVuSans-30"/>
       <use x="127.24609375" xlink:href="#DejaVuSans-30"/>
       <use x="190.869140625" xlink:href="#DejaVuSans-30"/>
       <use x="254.4921875" xlink:href="#DejaVuSans-30"/>
       <use x="318.115234375" xlink:href="#DejaVuSans-30"/>
       <use x="381.73828125" xlink:href="#DejaVuSans-30"/>
      </g>
     </g>
    </g>
    <g id="xtick_10">
     <g id="line2d_29">
      <path clip-path="url(#p124b8dd147)" d="
M388.8 252
L388.8 28.8" style="fill:none;stroke:#000000;stroke-dasharray:1.000000,3.000000;stroke-dashoffset:0.0;stroke-linecap:butt;stroke-width:0.5;"/>
     </g>
     <g id="line2d_30">
      <g>
       <use style="stroke:#000000;stroke-linecap:butt;stroke-width:0.5;" x="388.8" xlink:href="#m0012dd4eef" y="252.0"/>
      </g>
     </g>
     <g id="line2d_31">
      <g>
       <use style="stroke:#000000;stroke-linecap:butt;stroke-width:0.5;" x="388.8" xlink:href="#m476344969c" y="28.8"/>
      </g>
     </g>
     <g id="text_10">
      <!-- 4500000 -->
      <g transform="translate(367.1078125 263.421875)scale(0.1 -0.1)">
       <use xlink:href="#DejaVuSans-34"/>
       <use x="63.623046875" xlink:href="#DejaVuSans-35"/>
       <use x="127.24609375" xlink:href="#DejaVuSans-30"/>
       <use x="190.869140625" xlink:href="#DejaVuSans-30"/>
       <use x="254.4921875" xlink:href="#DejaVuSans-30"/>
       <use x="318.115234375" xlink:href="#DejaVuSans-30"/>
       <use x="381.73828125" xlink:href="#DejaVuSans-30"/>
      </g>
     </g>
    </g>
   </g>
   <g id="matplotlib.axis_2">
    <g id="ytick_1">
     <g id="line2d_32">
      <path clip-path="url(#p124b8dd147)" d="
M54 252
L388.8 252" style="fill:none;stroke:#000000;stroke-dasharray:1.000000,3.000000;stroke-dashoffset:0.0;stroke-linecap:butt;stroke-width:0.5;"/>
     </g>
     <g id="line2d_33">
      <defs>
       <path d="
M0 0
L4 0" id="me8a85f7bf6" style="stroke:#000000;stroke-linecap:butt;stroke-width:0.5;"/>
      </defs>
      <g>
       <use style="stroke:#000000;stroke-linecap:butt;stroke-width:0.5;" x="54.0" xlink:href="#me8a85f7bf6" y="252.0"/>
      </g>
     </g>
     <g id="line2d_34">
      <defs>
       <path d="
M0 0
L-4 0" id="m1a32005dea" style="stroke:#000000;stroke-linecap:butt;stroke-width:0.5;"/>
      </defs>
      <g>
       <use style="stroke:#000000;stroke-linecap:butt;stroke-width:0.5;" x="388.8" xlink:href="#m1a32005dea" y="252.0"/>
      </g>
     </g>
     <g id="text_11">
      <!-- 0 -->
      <g transform="translate(44.9609375 255.63984375)scale(0.1 -0.1)">
       <use xlink:href="#DejaVuSans-30"/>
      </g>
     </g>
    </g>
    <g id="ytick_2">
     <g id="line2d_35">
      <path clip-path="url(#p124b8dd147)" d="
M54 210.984
L388.8 210.984" style="fill:none;stroke:#000000;stroke-dasharray:1.000000,3.000000;stroke-dashoffset:0.0;stroke-linecap:butt;stroke-width:0.5;"/>
     </g>
     <g id="line2d_36">
      <g>
       <use style="stroke:#000000;stroke-linecap:butt;stroke-width:0.5;" x="54.0" xlink:href="#me8a85f7bf6" y="210.984002879"/>
      </g>
     </g>
     <g id="line2d_37">
      <g>
       <use style="stroke:#000000;stroke-linecap:butt;stroke-width:0.5;" x="388.8" xlink:href="#m1a32005dea" y="210.984002879"/>
      </g>
     </g>
     <g id="text_12">
      <!-- 1 -->
      <g transform="translate(45.659375 214.629315379)scale(0.1 -0.1)">
       <use xlink:href="#DejaVuSans-31"/>
      </g>
     </g>
    </g>
    <g id="ytick_3">
     <g id="line2d_38">
      <path clip-path="url(#p124b8dd147)" d="
M54 169.968
L388.8 169.968" style="fill:none;stroke:#000000;stroke-dasharray:1.000000,3.000000;stroke-dashoffset:0.0;stroke-linecap:butt;stroke-width:0.5;"/>
     </g>
     <g id="line2d_39">
      <g>
       <use style="stroke:#000000;stroke-linecap:butt;stroke-width:0.5;" x="54.0" xlink:href="#me8a85f7bf6" y="169.968005758"/>
      </g>
     </g>
     <g id="line2d_40">
      <g>
       <use style="stroke:#000000;stroke-linecap:butt;stroke-width:0.5;" x="388.8" xlink:href="#m1a32005dea" y="169.968005758"/>
      </g>
     </g>
     <g id="text_13">
      <!-- 2 -->
      <g transform="translate(45.371875 173.678943258)scale(0.1 -0.1)">
       <use xlink:href="#DejaVuSans-32"/>
      </g>
     </g>
    </g>
    <g id="ytick_4">
     <g id="line2d_41">
      <path clip-path="url(#p124b8dd147)" d="
M54 128.952
L388.8 128.952" style="fill:none;stroke:#000000;stroke-dasharray:1.000000,3.000000;stroke-dashoffset:0.0;stroke-linecap:butt;stroke-width:0.5;"/>
     </g>
     <g id="line2d_42">
      <g>
       <use style="stroke:#000000;stroke-linecap:butt;stroke-width:0.5;" x="54.0" xlink:href="#me8a85f7bf6" y="128.952008637"/>
      </g>
     </g>
     <g id="line2d_43">
      <g>
       <use style="stroke:#000000;stroke-linecap:butt;stroke-width:0.5;" x="388.8" xlink:href="#m1a32005dea" y="128.952008637"/>
      </g>
     </g>
     <g id="text_14">
      <!-- 3 -->
      <g transform="translate(45.2015625 132.591852387)scale(0.1 -0.1)">
       <use xlink:href="#DejaVuSans-33"/>
      </g>
     </g>
    </g>
    <g id="ytick_5">
     <g id="line2d_44">
      <path clip-path="url(#p124b8dd147)" d="
M54 87.936
L388.8 87.936" style="fill:none;stroke:#000000;stroke-dasharray:1.000000,3.000000;stroke-dashoffset:0.0;stroke-linecap:butt;stroke-width:0.5;"/>
     </g>
     <g id="line2d_45">
      <g>
       <use style="stroke:#000000;stroke-linecap:butt;stroke-width:0.5;" x="54.0" xlink:href="#me8a85f7bf6" y="87.9360115162"/>
      </g>
     </g>
     <g id="line2d_46">
      <g>
       <use style="stroke:#000000;stroke-linecap:butt;stroke-width:0.5;" x="388.8" xlink:href="#m1a32005dea" y="87.9360115162"/>
      </g>
     </g>
     <g id="text_15">
      <!-- 4 -->
      <g transform="translate(44.6875 91.5813240162)scale(0.1 -0.1)">
       <use xlink:href="#DejaVuSans-34"/>
      </g>
     </g>
    </g>
    <g id="ytick_6">
     <g id="line2d_47">
      <path clip-path="url(#p124b8dd147)" d="
M54 46.92
L388.8 46.92" style="fill:none;stroke:#000000;stroke-dasharray:1.000000,3.000000;stroke-dashoffset:0.0;stroke-linecap:butt;stroke-width:0.5;"/>
     </g>
     <g id="line2d_48">
      <g>
       <use style="stroke:#000000;stroke-linecap:butt;stroke-width:0.5;" x="54.0" xlink:href="#me8a85f7bf6" y="46.9200143953"/>
      </g>
     </g>
     <g id="line2d_49">
      <g>
       <use style="stroke:#000000;stroke-linecap:butt;stroke-width:0.5;" x="388.8" xlink:href="#m1a32005dea" y="46.9200143953"/>
      </g>
     </g>
     <g id="text_16">
      <!-- 5 -->
      <g transform="translate(45.2828125 50.4942331453)scale(0.1 -0.1)">
       <use xlink:href="#DejaVuSans-35"/>
      </g>
     </g>
    </g>
   </g>
   <g id="patch_3">
    <path d="
M54 28.8
L388.8 28.8" style="fill:none;stroke:#000000;"/>
   </g>
   <g id="patch_4">
    <path d="
M388.8 252
L388.8 28.8" style="fill:none;stroke:#000000;"/>
   </g>
   <g id="patch_5">
    <path d="
M54 252
L388.8 252" style="fill:none;stroke:#000000;"/>
   </g>
   <g id="patch_6">
    <path d="
M54 252
L54 28.8" style="fill:none;stroke:#000000;"/>
   </g>
  </g>
 </g>
 <defs>
  <clipPath id="p124b8dd147">
   <rect height="223.2" width="334.8" x="54.0" y="28.8"/>
  </clipPath>
 </defs>
</svg>
